<svg xmlns="http://www.w3.org/2000/svg" width="150" height="235" fill="none" xmlns:v="https://vecta.io/nano"><g clip-path="url(#A)"><path d="M74.465 214.642c1.874-.895 3.83-1.605 5.84-2.119a.96.96 0 0 1 .691 0c.182.147.3.36.329.593a25.34 25.34 0 0 1 .219 4.163c.093 1.391.59 2.9 1.812 3.561.868.372 1.821.499 2.756.365l6.085-.297c1.188-.059 2.528-.051 3.371.848a2.63 2.63 0 0 1 .553 1.341c.055.491-.029.987-.242 1.432a5.08 5.08 0 0 1-1.997 2.111c-1.276.749-2.637 1.341-4.054 1.763-4.062 1.383-7.585 2.137-11.63 3.562a2.4 2.4 0 0 1-1.056.045 2.39 2.39 0 0 1-.973-.416 2.41 2.41 0 0 1-.702-.795c-.172-.315-.273-.664-.294-1.022-.388-3.79-1.087-11.379-.708-15.135z" fill="#ffbdae"/><path d="M90.839 220.603c.843.339-.126 1.535-.742 6.181 0 .187 0 .432.152.517.106.042.223.042.329 0a39.91 39.91 0 0 0 6.059-2.84.71.71 0 0 1 .784 0 .84.84 0 0 1 .174.326.85.85 0 0 1 .02.369 3.25 3.25 0 0 1-.632 2.238 3.36 3.36 0 0 1-1.096.628 204.05 204.05 0 0 1-19.383 6.834 1.78 1.78 0 0 1-1.458 0c-.265-.221-.458-.516-.556-.848-.205-.381-.279-.819-.211-1.246.202-.764 1.154-.975 1.93-1.077 2.93-.391 5.806-1.12 8.571-2.171a.77.77 0 0 0 .303-.178.63.63 0 0 0 .143-.356c.16-2.204.784-6.724 1.576-7.885.447-.653 1.23-.662 2.141-.696a5.7 5.7 0 0 1 1.896.204z" fill="#00b28c"/><path d="M31.005 214.515a31.59 31.59 0 0 1 6.203-.127.93.93 0 0 1 .649.254c.065.096.11.204.131.318s.02.231-.005.344c-.263 1.368-.638 2.712-1.121 4.019-.354 1.339-.354 2.933.59 3.951a5.24 5.24 0 0 0 2.528 1.238l5.899 1.695c1.146.331 2.427.772 2.907 1.866.168.464.202.966.099 1.449a2.63 2.63 0 0 1-.681 1.281 5.1 5.1 0 0 1-2.528 1.357 18.74 18.74 0 0 1-4.408.373c-4.281 0-7.863-.416-12.144-.373-.356-.023-.703-.126-1.015-.302a2.4 2.4 0 0 1-.787-.712 2.42 2.42 0 0 1-.348-2.047c.733-3.748 2.52-11.192 4.028-14.584z" fill="#ffbdae"/><path d="M44.666 225.41c.666.594-.607 1.416-2.663 5.622-.084.169-.16.398 0 .534.09.075.204.111.32.102a39.63 39.63 0 0 0 6.641-.746.72.72 0 0 1 .409.023c.131.046.247.129.333.24.054.113.082.238.082.364s-.028.251-.082.365a3.17 3.17 0 0 1-1.306 1.907 3.08 3.08 0 0 1-1.239.238c-6.826.435-13.669.523-20.504.263-.25.017-.502-.017-.738-.102s-.453-.217-.636-.39c-.177-.297-.264-.638-.253-.984a1.9 1.9 0 0 1 .194-1.246c.438-.661 1.399-.56 2.174-.407 2.898.577 5.854.814 8.807.704.119-.001.237-.027.346-.077a.53.53 0 0 0 .244-.279c.843-2.044 2.882-6.131 4.003-6.978.624-.467 1.374-.229 2.25 0a5.65 5.65 0 0 1 1.618.847z" fill="#00b28c"/><path d="M58.546 71.29c-5.335-.433-10.678.475-15.936 1.45-3.868.721-7.88 1.543-11.015 3.926a3.45 3.45 0 0 0-1.084 1.038c-.281.422-.466.901-.543 1.403 0 1.017 1.77 5.028 2.486 5.74 5.141 5.138 10.998 5.282 18.212 5.995 6.076.602 12.195-.56 18.119-2.06 4.037-1.026 8.014-.441 10.357-3.909a14.76 14.76 0 0 0 1.45-5.087 5.55 5.55 0 0 0-.77-2.584 5.51 5.51 0 0 0-1.893-1.91 13.59 13.59 0 0 0-5.056-1.789c-4.07-.772-12.835-2.086-14.327-2.213z" fill="#ff6952"/><path d="M78.257 128.879l5.596 81.643c.194 2.543-.598 5.401-2.334 6.121-3.32 1.365-8.967 1.772-10.273 1.077s-1.399-1.56-1.795-4.621l-6.017-52.569c-1.003-5.197-7.071-5.163-8.672-.687-2.023 5.647-3.657 24.225-12.388 54.833-1.997 7.021-5.562 7.055-10.222 5.8-3.952-1.06-4.989-4.401-4.214-7.165 7.677-27.132 13.122-53.841 12.262-82.058l38.058-2.374z" fill="#a0b7ee"/><g fill="#ffbdae"><path d="M114.411 86.586c1.239-1.238 8.798-10.412 10.416-12.718 1.071-1.518 4.669-6.783 5.975-5.681s.287 3.468-.699 5.155c2.528-1.831 8.115-6.512 9.835-5.206s-2.739 4.96-3.826 6.02c1.769-1.195 6.43-4.833 7.5-3.587 1.306 1.518-3.152 5.325-5.242 6.656 2.04-1.28 5.284-3.197 6.203-1.696.632 1.026-1.205 2.416-2.436 3.391-1.584 1.221-16.416 14.499-20.891 16.958l-6.835-9.293zm-77.92 43.988c1.281 4.155.716 9.81-.143 13.109s-4.475 10.683-6.253 10.039-.16-5.673 0-7.038c-.573 1.84-2.048 7.148-4.214 6.266-1.728-.721.093-5.214.843-7.326-.716 2.044-2.874 5.088-4.399 4.494-1.045-.424.169-2.772.801-4.01.792-1.535 3.253-4.299 3.211-8.717 0-2.636-.388-5.163 0-7.792 1.07-7.834 8.031-5.808 10.155.975z"/></g><path d="M78.788 106.257c3 14.16 4.669 30.795 2.848 32.652-1.685 1.696-4.214 2.086-6.624 2.357-8.562.992-17.074 2.544-25.687 2.976-6.194.289-10.442-.771-11.411-3.824-3.304-10.395-2.781-27.132 0-41.063-3.506.203-9.388 1.603-11.487 3.638-3.531 3.391-4.281 8.055-.885 12.803 1.079 1.501 2.663.517 4.374 1.899 1.348 1.094.127 3.553 1.559 4.333 2.191 1.187 3.742 1.314 3.042 4.239-1.096 4.596-7.146 11.514-11.798 11.803-2.596.161-2.351-3.265-4.762-4.638-1.399-.848-1.905 0-3.27-.526-1.972-.712-1.247-5.147-3.27-6.181-5.52-2.84-12.38-9.089-11.31-18.747 1.045-9.386 6.632-15.414 17.639-20.892 17.167-8.538 38.025-11.726 56.338-6.096 8.807 2.705 16.214 9.327 26.352 5.528 3.127-1.179 1.416-2.993 5.284-4.239 1.601-.509 3.885.373 5.284-.56 1.197-.797 2.141-3.629 3.607-3.824 1.821-.246 3.54.848 5.057 1.925 4.262 3.151 8.073 6.877 11.326 11.073 1.365 1.772 2.697 3.917 2.242 6.105-.556 2.629-5.326 1.696-7.391 3.069-2.528 1.696-2.528 4.766-4.955 6.512-4.13 2.934-9.169 0-12.532 3.163-2.671 2.544-12.296 2.23-15.768 1.628-5.191-.874-13.745-4.816-13.804-5.113z" fill="#ff6952"/><path d="M50.261 32.83c4.677-4.112 13.4-5.935 19.687-2.9s9.835 9.963 10.77 22.639c.691 9.327-3.851 19.179-12.152 23.334s-19.737 1.365-24.347-6.732a22.79 22.79 0 0 1-2.587-8.284c-1.466-11.107 3.961-23.936 8.63-28.056z" fill="#ffbdae"/><path d="M63.071 50.475a.93.93 0 0 1 .351-.275.92.92 0 0 1 .438-.078c.15.01.296.057.424.136a.93.93 0 0 1 .312.319c.455.61.641 1.696.565 3.561-.05 1.365-.506 2.679-1.188 3.061s-1.517-.331-1.77-1.628a6.23 6.23 0 0 1-.11-1.263 7.67 7.67 0 0 1 .978-3.832z" fill="#ff6952"/><g fill="#ffbdae"><path d="M79.69 47.855c1.77-.136 7.517-.899 8.849 4.46 1.542 6.206-5.006 9.386-9.481 8.784.598-2.184.985-4.422 1.154-6.681a27.07 27.07 0 0 0-.523-6.563zm-35.37-4.189c-5.242-2.773-9.928 1.331-10.02 5.087-.135 5.427 4.997 8.106 7.694 7.572a44.08 44.08 0 0 1 .683-7.088 37.97 37.97 0 0 1 1.643-5.571z"/></g><g fill="#343b38"><path d="M68.262 52.968c0 .848.472 1.789.936 1.806s.986-.509 1.02-1.357-.413-1.781-.91-1.797-1.045.466-1.045 1.348zm-9.438-1.188c0 .848-.607 1.696-1.062 1.696s-.952-.577-.927-1.458.539-1.747 1.045-1.696.978.551.944 1.458z"/></g><path d="M58.664 21.553c5.318-2.764 14.546-1.34 19.501 2.196 1.635 1.17 5.208 3.824 6.312 5.554 2.975 4.697 3.801 8.174 3.523 10.599s-.666 4.884-2.141 6.783a16.49 16.49 0 0 1-5.587 4.35c.175-1.288.083-2.598-.269-3.849a9.45 9.45 0 0 0-1.779-3.418c-.06-.055-.135-.091-.216-.104a.41.41 0 0 0-.237.034c-.074.034-.136.09-.178.16s-.064.151-.061.233c0 2.154.126 5.935-3.902 5.155-1.087-.212-4.88-.051-7.779-1.458-1.601-.814-1.475-7.936-3.489-8.165-2.528-.28-8.183 7.377-9.43 7.156-4.121-.704 1.391-5.935-2.528-4.019s-5.478 3.756-6.557 6.868c-2.553-5.537-7.113-15.669-.261-21.647 3.169-2.722 13.324-5.52 15.077-6.427z" fill="#212121"/><path d="M57.172 59.064c1.357-.848 3.093 0 4.003.78s2.377 1.602 5.655.577a1.48 1.48 0 0 1 .577-.088c.196.009.389.057.567.142s.337.203.469.35a1.5 1.5 0 0 1 .3.504c.094.441.078.898-.045 1.331a2.75 2.75 0 0 1-.662 1.153 7.32 7.32 0 0 1-4.728 2.077c-4.711.254-6.523-1.569-7.189-3.256a2.83 2.83 0 0 1-.144-1.985c.194-.657.62-1.221 1.197-1.585z" fill="#ff6952"/><path d="M64.394 72.85c.666 1.314 0 3.917 0 6.071 0 .314 5.292.695 4.998.848-3.54 1.696-9.742 8.479-9.742 8.479s-8.242-7.266-13.298-8.937c-.438-.144 4.863-1.017 4.829-1.484-.257-2.305.259-4.629 1.466-6.605 1.003-1.602 4.037-1.56 6.464-1.145 1.82.297 4.517 1.263 5.284 2.773z" fill="#ffbdae"/><path d="M142.778 83.593l-12.92 3.341c-.107.028-.219.034-.329.019a.85.85 0 0 1-.311-.109c-.095-.057-.179-.132-.245-.221s-.115-.191-.143-.299l-5.629-22.291a.85.85 0 0 1 .081-.622c.105-.189.278-.331.483-.396l13.535-4.239c.111-.034.228-.045.344-.032s.227.051.328.11.187.138.256.233a.84.84 0 0 1 .142.317l5.057 23.215c.037.215-.009.437-.13.619s-.307.309-.519.356z" fill="#667770"/><path d="M141.101 81.889l-10.568 2.73a.84.84 0 0 1-.329.019c-.11-.016-.216-.053-.311-.11s-.179-.132-.246-.221-.115-.191-.143-.299l-4.651-18.424a.85.85 0 0 1 .081-.622c.105-.189.278-.331.483-.396l11.108-3.519c.111-.036.229-.048.346-.035s.229.05.331.109.189.139.258.234a.84.84 0 0 1 .143.319l4.147 19.179a.84.84 0 0 1-.106.656.84.84 0 0 1-.233.245c-.094.065-.199.11-.31.133z" fill="#00b28c"/><g fill="#343b38"><path d="M59.683 88.24c.067-.526-.421-.848-.775-1.162l-1.247-1.119-2.419-2.035c-1.518-1.249-3.149-2.353-4.871-3.298-1.787-.979-3.69-1.725-5.663-2.221-.801-.186-1.626-.28-2.435-.407l-1.104-.204c-.362-.076-.843-.119-.927-.415 0 .076 0 0 0-.042a.58.58 0 0 1 .093-.195 1.2 1.2 0 0 1 .228-.237 3.69 3.69 0 0 1 1.18-.593c.91-.322 1.879-.449 2.798-.738.069-.024.127-.07.165-.132s.053-.136.044-.208-.045-.139-.098-.188a.31.31 0 0 0-.195-.082 9.7 9.7 0 0 0-2.798.203 3.79 3.79 0 0 0-2.25 1.102 1.59 1.59 0 0 0-.366.622c-.073.233-.091.48-.054.721a1.59 1.59 0 0 0 .27.67 1.58 1.58 0 0 0 .538.48 6.84 6.84 0 0 0 2.638.594c.85.082 1.695.218 2.528.407 1.104.277 2.188.629 3.245 1.051a25.73 25.73 0 0 1 5.461 3.129l2.899 2.272 1.534 1.289c.421.348.936 1.001 1.534.848.016-.005.029-.016.038-.03s.014-.03.013-.047v-.034z"/><path d="M72.948 76.378a3.54 3.54 0 0 1 2.056.966c.244.246-.093.449-.329.543-.422.148-.856.259-1.298.331l-2.09.517a23.08 23.08 0 0 0-8.082 4.646 27.76 27.76 0 0 0-2.174 2.06l-1.011 1.153a10.85 10.85 0 0 0-.843 1.306c-.278.492.413 1.068.843.619l.935-1.034 1.02-1.162a26.85 26.85 0 0 1 2.056-1.984 26.22 26.22 0 0 1 4.037-2.9 23.21 23.21 0 0 1 4.66-2.018l1.753-.543a2.64 2.64 0 0 0 1.053-.56.99.99 0 0 0 .251-.35c.057-.134.084-.279.08-.425a1 1 0 0 0-.108-.418.99.99 0 0 0-.274-.333 3.93 3.93 0 0 0-2.436-.848c-.219 0-.287.365-.051.407l-.051.026zm2.292-6.427c-1.824 2.122-4.052 3.853-6.554 5.091a20.71 20.71 0 0 1-8.008 2.116c-.7.051-1.399 0-2.098 0h-2.115c-.312 0-.346.432-.067.526 2.609.742 5.372.742 7.981 0a20.63 20.63 0 0 0 7.913-3.663 14.47 14.47 0 0 0 3.371-3.663c.185-.288-.27-.653-.489-.373l.067-.034zM37.173 47.685a2.4 2.4 0 0 1 1.321.519 2.42 2.42 0 0 1 .802 1.177 3.05 3.05 0 0 1 .118 1.492 11.47 11.47 0 0 1-.506 1.586.51.51 0 0 0 .236.568c.096.056.207.078.316.065a.5.5 0 0 0 .291-.141 3.69 3.69 0 0 0 .762-1.94 3.7 3.7 0 0 0-.408-2.045c-.277-.533-.699-.976-1.217-1.276a3.13 3.13 0 0 0-1.708-.42c-.054 0-.105.022-.143.06s-.059.09-.059.144.021.106.059.144.089.06.143.06l-.008.008z"/><path d="M39.516 48.474a1.54 1.54 0 0 0-.346 0l-.295.059c-.185.059-.362.136-.531.203a6.09 6.09 0 0 0-.582.271 1.94 1.94 0 0 0-.539.398c-.06.058-.099.134-.111.218a.37.37 0 0 0 .474.41 2.33 2.33 0 0 0 .582-.246l.522-.271.506-.246.244-.144a1.23 1.23 0 0 0 .244-.22c.035-.035.059-.079.069-.127s.007-.098-.011-.145a.27.27 0 0 0-.093-.107c-.04-.027-.086-.042-.134-.045v-.009zm46.275 3.951a4.34 4.34 0 0 0-2.714 1.34 4.68 4.68 0 0 0-1.171 2.01 1.3 1.3 0 0 0 0 .907l-.059-.212c0 .263 0 .653.219.848.042.04.098.062.156.062s.114-.022.156-.062c.194-.161.211-.492.287-.721l-.11.186a1.61 1.61 0 0 0 .287-.712 4.72 4.72 0 0 1 .211-.577 4.89 4.89 0 0 1 .683-1.068 4.41 4.41 0 0 1 2.166-1.357c.337-.085.278-.67-.084-.627l-.025-.017z"/><path d="M83.853 54.036l.244.076h.059.05l.438.254.109.076a.15.15 0 0 1 .059 0l.152.119h.051 0a.76.76 0 0 1 .101.076.7.7 0 0 0 .303.22c.048.013.099.015.148.005s.095-.03.135-.061a.33.33 0 0 0 .131-.258c-.02-.155-.091-.298-.202-.407a2.14 2.14 0 0 0-.185-.204 1.87 1.87 0 0 0-.514-.339 1.79 1.79 0 0 0-.581-.187 3.49 3.49 0 0 0-.598-.051c-.055 0-.108.021-.149.057a.23.23 0 0 0-.039.297c.03.046.076.08.129.094l.16.229zM53.54 123.69l5.006-.602 5.056-.467 4.947-.305a49.88 49.88 0 0 1 5.057-.076l-.371-.144c.742.797 1.287 1.758 1.593 2.806.184.528.395 1.046.632 1.552.26.5.57.972.927 1.407a7.93 7.93 0 0 1 1.685 3.392 3.78 3.78 0 0 1 0 .848c0 .169 0 .619-.177.737s-.354.068-.464.094l-.556.11-1.112.229-8.697 1.695-8.975 1.035-5.056.314-2.528.169-2.57.314c-.101 0-.197.04-.268.112a.38.38 0 0 0 0 .539c.071.072.167.112.268.112l1.686.076h1.82l3.371-.161 6.868-.551a126.8 126.8 0 0 0 13.324-2.111l1.584-.348a11.58 11.58 0 0 0 1.686-.381c.944-.34 1.096-1.493 1.062-2.374a6.6 6.6 0 0 0-.843-2.782 26.9 26.9 0 0 0-1.686-2.433c-.902-1.365-1.104-3.052-2.216-4.299-.253-.341-.586-.615-.969-.797a2.71 2.71 0 0 0-.784 0h-.91l-3.371.11-7.585.569-3.784.483-3.809.661c-.312.051-.177.517.126.475l.034-.008zm-28.662 25.275a5.14 5.14 0 0 0 .843-.924 7.94 7.94 0 0 0 .624-1.111 6.42 6.42 0 0 0 .657-2.459c.001-.062-.021-.122-.061-.169s-.096-.077-.157-.086a.25.25 0 0 0-.174.041c-.051.034-.088.086-.104.146l-.742 2.273-.514 1.085c-.194.348-.329.729-.523 1.085-.007.021-.008.042-.002.063a.1.1 0 0 0 .035.052c.017.013.037.021.059.021s.042-.005.06-.017zm1.247 4.163c.935 1.001 2.242-1.365 2.528-1.958a14.96 14.96 0 0 0 1.812-5.936c0-.152-.202-.161-.244 0-.513 1.793-1.129 3.554-1.846 5.274a8.85 8.85 0 0 1-1.096 1.874c-.261.305-.657.687-1.095.627-.019-.002-.038.001-.055.009s-.031.022-.04.038-.013.036-.011.055.009.037.022.051l.025-.034zm99.983-69.772a1.62 1.62 0 0 0 .615-.246 2.66 2.66 0 0 0 .515-.449 1.77 1.77 0 0 0 .345-.627c.031-.103.054-.207.067-.314 0-.136.059-.28-.05-.382l.05.11v-.22c0-.119-.193-.093-.219 0l-.05.136.05-.051c-.101.051-.126.17-.168.263a1.34 1.34 0 0 1-.127.246l-.151.237-.051.068-.042.051-.051.068a2.28 2.28 0 0 1-.193.212l-.11.102h-.051c-.16.117-.329.222-.505.314-.044.029-.077.073-.092.125a.23.23 0 0 0 .008.155.21.21 0 0 0 .261.127l-.051.076zM47.093 228.658a1.28 1.28 0 0 1 .227.407 1.3 1.3 0 0 1 0 .203v.255c0 .084 0 .076 0 0v.051c-.004.033-.004.068 0 .101a2.38 2.38 0 0 1-.067.263c-.017.039-.03.078-.042.119v.051c0 .076-.084.144-.126.22a.46.46 0 0 0-.05.119s0-.059 0 0c-.039.053-.065.113-.076.178s.005.142.044.202.098.102.167.12c.253.059.497-.212.624-.398a1.53 1.53 0 0 0 .211-.558c.033-.198.027-.4-.017-.596a1.76 1.76 0 0 0-.666-.983c-.152-.11-.303.119-.194.246h-.034zm46.73-6.147a6.35 6.35 0 0 1 .582.347 2 2 0 0 1 .253.204.91.91 0 0 1 .185.229.44.44 0 0 1 .067.127s0-.043 0 0v.076c.004.048.004.096 0 .144 0-.127 0 .136 0 .085s0 0 0 0a1.65 1.65 0 0 1 0 .288c0-.042 0 0 0 0 .003.023.003.046 0 .068v.076c0-.05 0 0 0 0a.31.31 0 0 0-.03.205c.014.07.051.132.106.177a.31.31 0 0 0 .194.073c.071 0 .14-.026.194-.073.109-.097.196-.217.253-.352a.98.98 0 0 0 .076-.428c-.03-.296-.147-.577-.337-.805a2.86 2.86 0 0 0-1.433-.772c-.038-.01-.078-.006-.112.012s-.062.048-.076.084-.015.077-.002.114a.16.16 0 0 0 .073.087l.008.034zM18.97 108.657a17.48 17.48 0 0 0 2.579-.043 4.03 4.03 0 0 0 1.846-.542 2.44 2.44 0 0 0 .833-.701 2.46 2.46 0 0 0 .448-.995c-.041-.274-.137-.538-.282-.774s-.335-.44-.561-.6a5.77 5.77 0 0 0-.843-.644c-.228-.136-.565-.356-.843-.246a.28.28 0 0 0-.108.065c-.031.03-.055.065-.07.105s-.022.082-.019.124.015.084.036.121c.152.229.463.323.691.475.267.175.516.376.742.602a2.01 2.01 0 0 1 .48.619c.084.238-.118.543-.295.755a2.91 2.91 0 0 1-1.863.983 27.55 27.55 0 0 1-2.798.212c-.069 0-.136.028-.185.077s-.076.116-.076.186.027.137.076.186a.26.26 0 0 0 .185.077l.025-.042zm20.74 41.283a5.12 5.12 0 0 0 2.377-.415 11.33 11.33 0 0 0 2.216-1.06 11.95 11.95 0 0 0 3.624-3.392c.388-.585-.523-1.077-.919-.542a12.88 12.88 0 0 1-3.261 3.12 15.59 15.59 0 0 1-1.955 1.043 18.97 18.97 0 0 0-2.14.848c-.169.093-.16.415.059.449v-.051zm33.609-8.343a5.33 5.33 0 0 0-.126 2.247c.09.549.291 1.074.59 1.543a4.36 4.36 0 0 0 2.461 1.984 6.12 6.12 0 0 0 1.18.195c.393.06.793.042 1.18-.051.438-.144.522-.848 0-.983a10.82 10.82 0 0 0-1.18-.077 4.84 4.84 0 0 1-1.096-.237 2.85 2.85 0 0 1-1.272-.916c-.357-.361-.643-.787-.843-1.255a6.13 6.13 0 0 1-.346-2.374.3.3 0 0 0-.248-.23c-.06-.008-.12.002-.174.03s-.098.071-.126.124zm3.126-45.786a18.47 18.47 0 0 0 .522 3.315l.843 4.113 1.627 8.165.48 2.62a19.13 19.13 0 0 0 .379 2.204c.017.053.05.099.095.132s.098.05.154.05.109-.017.154-.05.078-.079.095-.132a5.97 5.97 0 0 0 0-1.899c-.067-.789-.194-1.569-.32-2.349l-1.003-4.926-1.685-7.631c-.229-1.269-.579-2.512-1.045-3.714-.076-.178-.362-.085-.362.102h.068z"/></g><path d="M100.287 10.861c2.418-3.963 6.21-6.884 10.643-8.199C118.515.008 124.794-.865 132.656.967s15.667 7.512 17.015 15.542c.843 4.867.371 10.582-4.02 15.423-8.739 9.632-15.514 6.783-18.211 8.284-4.079 2.221-5.107 7.953-8.883 10.666-.674-1.874-.295-4.002-.96-5.884-1.189-3.392-5.124-4.757-8.259-6.529-9.11-5.172-16.004-16.635-9.051-27.607z" fill="#4cd8ac"/><g fill="#fffaeb"><path d="M136.39 13.032a2.71 2.71 0 0 1 3.177.17c.383.353.63.83.698 1.348a2.23 2.23 0 0 1-.327 1.484 10.81 10.81 0 0 1-1.484 1.433c-.601.554-1.051 1.255-1.306 2.035-.531 1.789.253 3.621 1.02 5.206a1.27 1.27 0 0 0 .772.588 1.26 1.26 0 0 0 .96-.134c.289-.171.499-.451.584-.777a1.28 1.28 0 0 0-.133-.965 6.84 6.84 0 0 1-.843-2.544c-.004-.33.07-.656.217-.951a2.07 2.07 0 0 1 .626-.745 11.13 11.13 0 0 0 1.82-1.899 4.54 4.54 0 0 0 .683-2.417 4.84 4.84 0 0 0-.683-2.471c-.445-.747-1.083-1.358-1.846-1.768a5.35 5.35 0 0 0-2.627-.588c-.911.031-1.799.295-2.581.766-.276.176-.474.453-.552.773s-.029.658.136.942.433.494.748.583a1.26 1.26 0 0 0 .941-.103v.034zm3.05 14.677v.186c-.01.171.028.342.11.492a1.14 1.14 0 0 0 .259.413 1.13 1.13 0 0 0 .407.265c.151.077.32.112.489.102h.337a1.33 1.33 0 0 0 .539-.339l.194-.263a1.22 1.22 0 0 0 .177-.644v-.187a1.1 1.1 0 0 0-.11-.492 1.05 1.05 0 0 0-.261-.407 1.02 1.02 0 0 0-.413-.263.93.93 0 0 0-.48-.11l-.337.051a1.23 1.23 0 0 0-.557.322l-.202.263c-.111.193-.169.413-.168.636l.016-.025zm-21.945-3.417c.118-.924.902-2.315 1.795-2.357s1.787-.186 2.251.678a8.38 8.38 0 0 1 .531 2.06c.396.059 1.5-.068 2.132 0 4.213.186 5.562-1.764 6.135-3.069 1.011-2.298-.464-4.833-1.871-8.394-.733-1.865-1.433-3.849-2.393-4.307s-4.703.127-9.987 1.45c-.28.132-.51.353-.654.628a1.44 1.44 0 0 0-.147.898c.295 1.56.321 3.985-.514 5.418s-6.143 2.018-8.09 3.587a4.9 4.9 0 0 0-1.039 1.618c-.237.603-.353 1.247-.34 1.896a4.93 4.93 0 0 0 .413 1.881 4.89 4.89 0 0 0 1.101 1.576 4.13 4.13 0 0 0 2.014.551h7.585a4.92 4.92 0 0 0 1.441-.187 11.7 11.7 0 0 1-.363-3.926z"/><path d="M122.442 22.503c-.173-.483-.455-.919-.826-1.272a3.26 3.26 0 0 0-1.306-.763 3.4 3.4 0 0 0-1.633.01c-.536.136-1.031.4-1.443.77-1.609 1.569-1.121 4.689-.843 6.673.304 2.137 1.357 4.791 3.826 4.986 2.284.178 3.262-1.772 3.253-3.79l-.943.95 6.969-.339-.919-.704c.192 1.051.515 2.074.961 3.044a2.98 2.98 0 0 0 1.187 1.103c.49.25 1.039.358 1.586.313.553.006 1.1-.126 1.591-.383a3.38 3.38 0 0 0 1.224-1.092c.592-1.154.882-2.441.842-3.739a19.66 19.66 0 0 0-.236-3.731 6.8 6.8 0 0 0-1.382-3.536 3.43 3.43 0 0 0-1.534-.926 3.42 3.42 0 0 0-1.789-.025 3.43 3.43 0 0 0-1.559.883c-.433.428-.746.963-.907 1.552-.051.169-.354 1.068-.236 1.195-.16-.178.91-.093.337-.271a2.51 2.51 0 0 0-.784.042l-2.351.144-2.402.153a1.56 1.56 0 0 0-.489 0c-.303 0-.261.093.143.382v-.178c.014-.43-.064-.858-.227-1.255-.379-1.153-2.208-.661-1.829.509.295.89.051 1.959 1.113 2.357.572.133 1.166.147 1.744.042l1.686-.11 3.547-.212c1.332-.127 1.239-1.17 1.517-2.188.04-.237.133-.461.274-.655a1.54 1.54 0 0 1 .535-.464 1.53 1.53 0 0 1 .684-.175c.238-.004.475.047.69.15.919.475 1.121 1.755 1.298 2.662.189 1.075.274 2.165.253 3.256.078 1.045-.101 2.094-.523 3.052a1.56 1.56 0 0 1-1.068.647c-.212.029-.428.013-.634-.046a1.56 1.56 0 0 1-.565-.296c-.632-.704-.598-1.874-.842-2.73a.98.98 0 0 0-.341-.502c-.164-.127-.363-.197-.57-.202l-6.969.339a.97.97 0 0 0-.669.285.98.98 0 0 0-.283.673c0 .95-.203 2.179-1.442 1.857-1.39-.365-1.752-2.357-1.913-3.561s-.438-3.069 0-4.299a1.35 1.35 0 0 1 .56-.666c.255-.154.553-.218.848-.182.649.059.918.636 1.154 1.178.472 1.17 2.107.195 1.635-.916z"/></g><g fill="#4cd8ae"><path d="M114.268 14.592l3.632-.263c.246-.013.478-.118.65-.296s.271-.414.277-.662a.97.97 0 0 0-.284-.67.96.96 0 0 0-.668-.28l-3.633.263c-.249.006-.487.11-.663.288s-.276.418-.28.67a.95.95 0 0 0 .276.672.94.94 0 0 0 .667.278h.026zm-2.326 3.85l5.385-.449a.96.96 0 0 0 .391-.045.94.94 0 0 0 .339-.2.95.95 0 0 0 .23-.321c.054-.122.082-.254.082-.387a.96.96 0 0 0-.082-.387.95.95 0 0 0-.23-.321.94.94 0 0 0-.339-.2c-.126-.042-.259-.058-.391-.045l-5.385.449a.95.95 0 0 0-.615.309.96.96 0 0 0 0 1.29.95.95 0 0 0 .615.309z"/></g></g><defs><clipPath id="A"><path fill="#fff" d="M0 0h150v235H0z"/></clipPath></defs></svg>