<svg width="150" height="235" viewBox="0 0 150 235" fill="none" xmlns="http://www.w3.org/2000/svg">
<g clip-path="url(#clip0)">
<path d="M74.4649 214.642C76.3388 213.747 78.2947 213.037 80.3051 212.523C80.5276 212.437 80.7736 212.437 80.9961 212.523C81.178 212.67 81.2958 212.883 81.3248 213.116C81.5121 214.495 81.5853 215.888 81.5439 217.279C81.6366 218.67 82.1339 220.179 83.3558 220.84C84.2242 221.212 85.1772 221.339 86.1116 221.205L92.1962 220.908C93.3845 220.849 94.7244 220.857 95.5672 221.756C95.8735 222.142 96.0653 222.607 96.1205 223.097C96.1756 223.588 96.0919 224.084 95.879 224.529C95.4321 225.413 94.7379 226.147 93.8817 226.64C92.6057 227.389 91.2447 227.981 89.8281 228.403C85.7661 229.786 82.2434 230.54 78.1982 231.965C77.8538 232.058 77.493 232.074 77.1419 232.01C76.7908 231.946 76.4584 231.804 76.1686 231.594C75.8789 231.385 75.6392 231.113 75.4669 230.799C75.2947 230.484 75.1942 230.135 75.1728 229.777C74.7851 225.987 74.0856 218.398 74.4649 214.642Z" fill="#FFBDAE"/>
<path d="M90.8394 220.603C91.6821 220.942 90.713 222.138 90.0978 226.784C90.0978 226.971 90.0978 227.216 90.2495 227.301C90.355 227.343 90.4726 227.343 90.5781 227.301C92.6731 226.526 94.6999 225.576 96.6375 224.461C96.754 224.384 96.8902 224.343 97.0293 224.343C97.1685 224.343 97.3047 224.384 97.4212 224.461C97.5024 224.555 97.5619 224.666 97.5954 224.787C97.6289 224.907 97.6356 225.033 97.615 225.156C97.6872 225.955 97.462 226.753 96.983 227.394C96.6603 227.671 96.2886 227.884 95.8874 228.022C89.5441 230.625 83.0749 232.905 76.5043 234.856C76.2749 234.959 76.0265 235.012 75.7753 235.012C75.5241 235.012 75.2757 234.959 75.0464 234.856C74.7819 234.635 74.5884 234.34 74.4901 234.008C74.2855 233.627 74.2115 233.189 74.2795 232.762C74.4817 231.998 75.434 231.787 76.2093 231.685C79.1394 231.294 82.0151 230.565 84.78 229.514C84.8933 229.479 84.997 229.418 85.0834 229.336C85.167 229.235 85.2171 229.111 85.2267 228.98C85.3868 226.776 86.0105 222.256 86.8026 221.095C87.2493 220.442 88.033 220.433 88.9432 220.399C89.5821 220.36 90.223 220.429 90.8394 220.603Z" fill="#00B28C"/>
<path d="M31.0046 214.515C33.0631 214.269 35.1405 214.227 37.2072 214.388C37.448 214.385 37.6804 214.477 37.8561 214.642C37.921 214.738 37.9656 214.846 37.9874 214.96C38.0091 215.074 38.0075 215.191 37.9825 215.304C37.7194 216.672 37.3445 218.016 36.8617 219.323C36.5077 220.662 36.5077 222.256 37.4516 223.274C38.1666 223.91 39.0408 224.338 39.9798 224.512L45.879 226.207C47.0252 226.538 48.3061 226.979 48.7865 228.073C48.9543 228.537 48.9887 229.039 48.8859 229.522C48.783 230.005 48.5471 230.449 48.205 230.803C47.5082 231.489 46.6309 231.959 45.6768 232.16C44.2273 232.458 42.7479 232.583 41.2692 232.533C36.9881 232.533 33.4064 232.117 29.1253 232.16C28.7689 232.137 28.4221 232.034 28.1103 231.858C27.7986 231.683 27.5298 231.439 27.3238 231.146C27.1177 230.852 26.9795 230.516 26.9194 230.162C26.8593 229.808 26.8787 229.444 26.9763 229.099C27.7095 225.351 29.4961 217.907 31.0046 214.515Z" fill="#FFBDAE"/>
<path d="M44.6655 225.41C45.3312 226.004 44.0587 226.826 42.0024 231.032C41.9181 231.201 41.8423 231.43 42.0024 231.566C42.0919 231.641 42.2068 231.677 42.3226 231.668C44.5531 231.607 46.7746 231.357 48.9635 230.922C49.0991 230.89 49.2409 230.898 49.3723 230.945C49.5036 230.991 49.619 231.074 49.7051 231.185C49.759 231.298 49.787 231.423 49.787 231.549C49.787 231.675 49.759 231.8 49.7051 231.914C49.5244 232.693 49.0578 233.374 48.3988 233.821C48.0065 233.985 47.5848 234.066 47.16 234.059C40.3341 234.494 33.4907 234.582 26.656 234.322C26.4057 234.339 26.1545 234.305 25.9181 234.22C25.6817 234.136 25.4653 234.003 25.2824 233.83C25.1058 233.533 25.0181 233.192 25.0295 232.846C24.9504 232.421 25.0188 231.981 25.2234 231.6C25.6616 230.939 26.6223 231.04 27.3977 231.193C30.2962 231.77 33.2516 232.007 36.2043 231.897C36.3236 231.896 36.4413 231.87 36.5499 231.82C36.662 231.76 36.7488 231.66 36.7942 231.541C37.637 229.497 39.6764 225.41 40.7973 224.563C41.4209 224.096 42.171 224.334 43.0474 224.563C43.6287 224.755 44.1751 225.042 44.6655 225.41Z" fill="#00B28C"/>
<path d="M58.5455 71.2903C53.2109 70.8578 47.8679 71.7651 42.6092 72.7401C38.741 73.4609 34.7295 74.2833 31.5945 76.6659C31.1618 76.9277 30.7918 77.2823 30.5106 77.7043C30.2295 78.1264 30.0443 78.6056 29.968 79.1078C29.968 80.1252 31.7378 84.1357 32.4541 84.8479C37.5948 89.9861 43.4519 90.1303 50.6658 90.8425C56.742 91.4445 62.8603 90.2829 68.7848 88.7821C72.8215 87.7562 76.7993 88.3412 79.1421 84.8734C79.9273 83.2799 80.4185 81.5561 80.5916 79.7861C80.5511 78.874 80.2866 77.9863 79.8219 77.2022C79.3572 76.418 78.7068 75.7618 77.9286 75.2923C76.3772 74.3654 74.6586 73.7574 72.8721 73.5032C68.8017 72.7317 60.0371 71.4174 58.5455 71.2903Z" fill="#FF6952"/>
<path d="M78.2572 128.879C80.4989 156.011 81.5777 180.32 83.8531 210.522C84.0469 213.065 83.2547 215.923 81.5187 216.643C78.1983 218.008 72.5519 218.415 71.2456 217.72C69.9394 217.025 69.8467 216.16 69.4506 213.099C66.6442 191.436 64.3941 165.567 63.4334 160.53C62.4305 155.333 56.3628 155.367 54.7615 159.843C52.739 165.49 51.104 184.068 42.3732 214.676C40.3759 221.697 36.8111 221.731 32.1507 220.476C28.1983 219.416 27.1617 216.075 27.937 213.311C35.6144 186.179 41.0585 159.47 40.1989 131.253L78.2572 128.879Z" fill="#A0B7EE"/>
<path d="M114.411 86.5861C115.65 85.3482 123.209 76.1741 124.827 73.8678C125.898 72.3501 129.496 67.0847 130.802 68.187C132.109 69.2892 131.089 71.6548 130.103 73.3421C132.631 71.5107 138.218 66.8304 139.938 68.1361C141.657 69.4418 137.199 73.0962 136.112 74.1561C137.881 72.9606 142.542 69.3231 143.612 70.5695C144.918 72.0873 140.46 75.8943 138.37 77.2254C140.41 75.9451 143.654 74.0289 144.573 75.5297C145.205 76.5556 143.368 77.9461 142.137 78.9212C140.553 80.1422 125.721 93.4201 121.246 95.8789L114.411 86.5861Z" fill="#FFBDAE"/>
<path d="M36.4909 130.574C37.7718 134.729 37.2072 140.384 36.3476 143.683C35.488 146.981 31.8726 154.366 30.0944 153.722C28.3163 153.077 29.9343 148.049 30.0944 146.684C29.5214 148.524 28.0466 153.832 25.8807 152.95C24.1531 152.229 25.9734 147.736 26.7235 145.624C26.0071 147.668 23.8497 150.712 22.3243 150.118C21.2793 149.694 22.4929 147.346 23.125 146.108C23.9171 144.573 26.3779 141.809 26.3358 137.391C26.3358 134.755 25.9481 132.228 26.3358 129.599C27.4061 121.765 34.3672 123.791 36.4909 130.574Z" fill="#FFBDAE"/>
<path d="M78.7882 106.257C81.7883 120.417 83.457 137.052 81.6366 138.909C79.9512 140.605 77.4229 140.995 75.0127 141.266C66.4504 142.258 57.9387 143.81 49.3258 144.242C43.1317 144.531 38.8842 143.471 37.9151 140.418C34.6115 130.023 35.134 113.286 37.9151 99.3553C34.4093 99.5587 28.5269 100.958 26.4285 102.993C22.8974 106.384 22.1474 111.048 25.5436 115.796C26.6223 117.297 28.2067 116.313 29.9174 117.695C31.2658 118.789 30.0439 121.248 31.4765 122.028C33.6677 123.215 35.2183 123.342 34.5188 126.267C33.4233 130.863 27.3724 137.781 22.7204 138.07C20.1248 138.231 20.3692 134.805 17.9589 133.432C16.56 132.584 16.0543 133.432 14.6891 132.906C12.717 132.194 13.4418 127.759 11.4192 126.725C5.89925 123.885 -0.960686 117.636 0.109598 107.978C1.1546 98.5922 6.74199 92.5637 17.7482 87.0863C34.9149 78.5481 55.7728 75.3601 74.0857 80.99C82.8923 83.6948 90.3 90.3168 100.438 86.5183C103.565 85.3397 101.854 83.5252 105.722 82.2788C107.323 81.7701 109.607 82.6519 111.006 81.7192C112.203 80.9222 113.147 78.0903 114.613 77.8953C116.434 77.6494 118.153 78.7432 119.67 79.82C123.932 82.9712 127.743 86.6972 130.996 90.8934C132.361 92.6654 133.693 94.8106 133.238 96.9981C132.682 99.6266 127.912 98.6939 125.847 100.067C123.319 101.763 123.319 104.833 120.892 106.579C116.762 109.513 111.723 106.579 108.36 109.742C105.689 112.286 96.0644 111.972 92.5923 111.37C87.401 110.496 78.8472 106.554 78.7882 106.257Z" fill="#FF6952"/>
<path d="M50.2613 32.8302C54.9385 28.7179 63.6609 26.895 69.9478 29.9304C76.2346 32.9658 79.7826 39.8931 80.718 52.569C81.4091 61.8957 76.8667 71.7481 68.5657 75.9028C60.2646 80.0574 48.8286 77.2679 44.2188 69.1706C42.8344 66.6026 41.9559 63.7898 41.6316 60.8867C40.1652 49.7794 45.5925 36.9509 50.2613 32.8302Z" fill="#FFBDAE"/>
<path d="M63.071 50.4746C63.1642 50.3557 63.2848 50.2614 63.4223 50.1999C63.5598 50.1383 63.7102 50.1114 63.8603 50.1214C64.0105 50.1314 64.156 50.1781 64.2843 50.2574C64.4125 50.3366 64.5196 50.4461 64.5964 50.5764C65.0515 51.1868 65.2369 52.2721 65.161 54.1375C65.1105 55.5026 64.6554 56.8168 63.9728 57.1984C63.2901 57.5799 62.4558 56.8677 62.203 55.5704C62.1236 55.1542 62.0869 54.7308 62.0934 54.3071C62.0787 52.9653 62.4159 51.6434 63.071 50.4746Z" fill="#FF6952"/>
<path d="M79.6899 47.8547C81.4597 47.719 87.2072 46.9559 88.5387 52.3146C90.081 58.5211 83.5328 61.7007 79.0579 61.0987C79.6562 58.9143 80.0429 56.6767 80.2124 54.4173C80.3058 52.2165 80.1303 50.0125 79.6899 47.8547Z" fill="#FFBDAE"/>
<path d="M44.32 43.6661C39.0781 40.8935 34.3924 44.9973 34.2997 48.7534C34.1649 54.1799 39.2972 56.8592 41.994 56.3251C42.03 53.9476 42.2583 51.577 42.6766 49.2367C43.0815 47.3402 43.6309 45.4778 44.32 43.6661Z" fill="#FFBDAE"/>
<path d="M68.2623 52.9675C68.2623 53.8153 68.7343 54.7565 69.1978 54.7735C69.6613 54.7904 70.1838 54.2647 70.2175 53.4168C70.2512 52.569 69.8045 51.6363 69.3073 51.6193C68.8101 51.6024 68.2623 52.0857 68.2623 52.9675Z" fill="#343B38"/>
<path d="M58.8235 51.7804C58.8235 52.6283 58.2168 53.4762 57.7617 53.4762C57.3066 53.4762 56.8094 52.8996 56.8347 52.0178C56.8599 51.136 57.374 50.2712 57.8797 50.322C58.3853 50.3729 58.8573 50.8732 58.8235 51.7804Z" fill="#343B38"/>
<path d="M58.6635 21.5533C63.9812 18.7892 73.2092 20.2136 78.1646 23.7493C79.7995 24.9194 83.3727 27.5733 84.4767 29.3029C87.4516 34.0002 88.2775 37.4766 87.9994 39.9015C87.7213 42.3265 87.3336 44.7853 85.8588 46.6846C84.3309 48.5239 82.4246 50.0079 80.2714 51.0343C80.4463 49.7465 80.3547 48.4362 80.0023 47.1857C79.6499 45.9353 79.0443 44.7716 78.2236 43.7679C78.1635 43.7127 78.0885 43.6766 78.0081 43.6641C77.9277 43.6516 77.8454 43.6634 77.7715 43.6978C77.6977 43.7322 77.6356 43.7878 77.5931 43.8576C77.5506 43.9274 77.5295 44.0083 77.5325 44.0901C77.5325 46.2437 77.6589 50.0253 73.6306 49.2452C72.5435 49.0332 68.7511 49.1943 65.8521 47.7868C64.2509 46.9729 64.3773 39.8506 62.3631 39.6217C59.8349 39.3419 54.1801 46.9983 52.9328 46.7779C48.8118 46.0741 54.3233 40.8427 50.4046 42.7589C46.4858 44.6751 44.9267 46.515 43.848 49.6268C41.2945 44.0901 36.7353 33.9578 43.5868 27.9802C46.7555 25.2585 56.9106 22.4605 58.6635 21.5533Z" fill="#212121"/>
<path d="M57.1718 59.0637C58.5286 58.2159 60.2646 59.0637 61.1748 59.8438C62.085 60.6239 63.5513 61.4463 66.8296 60.4204C67.0144 60.353 67.2106 60.3231 67.4069 60.3323C67.6032 60.3415 67.7958 60.3896 67.9736 60.4739C68.1513 60.5582 68.3108 60.677 68.4428 60.8235C68.5748 60.97 68.6767 61.1413 68.7426 61.3276C68.8363 61.7683 68.8206 62.2255 68.6972 62.6587C68.5737 63.092 68.3462 63.488 68.0347 63.8119C66.7606 65.0571 65.0808 65.7951 63.307 65.8892C58.596 66.1436 56.7841 64.3206 56.1183 62.6333C55.8318 62.0113 55.7807 61.3055 55.9746 60.6483C56.1686 59.991 56.5943 59.4276 57.1718 59.0637Z" fill="#FF6952"/>
<path d="M64.3941 72.8504C65.0599 74.1646 64.3941 76.7676 64.3941 78.9212C64.3941 79.235 69.6865 79.6165 69.3916 79.7691C65.852 81.4649 59.6494 88.248 59.6494 88.248C59.6494 88.248 51.4074 80.9816 46.3509 79.3113C45.9127 79.1671 51.2136 78.2938 51.1799 77.8275C50.9233 75.5229 51.4394 73.1982 52.6462 71.2224C53.6491 69.6199 56.683 69.6623 59.1101 70.0778C60.9304 70.3746 63.6272 71.3411 64.3941 72.8504Z" fill="#FFBDAE"/>
<path d="M142.778 83.5931L129.858 86.9337C129.751 86.9618 129.639 86.9682 129.529 86.9527C129.42 86.9371 129.314 86.9 129.218 86.8433C129.123 86.7865 129.039 86.7114 128.973 86.6222C128.906 86.5329 128.858 86.4314 128.83 86.3233L123.201 64.0323C123.148 63.8223 123.177 63.5998 123.282 63.4106C123.387 63.2213 123.56 63.0798 123.765 63.0149L137.3 58.7755C137.411 58.7411 137.528 58.7303 137.644 58.7437C137.759 58.7571 137.871 58.7944 137.972 58.8534C138.072 58.9123 138.159 58.9916 138.228 59.0862C138.297 59.1807 138.345 59.2886 138.37 59.4029L143.427 82.618C143.464 82.8334 143.418 83.055 143.297 83.2367C143.176 83.4184 142.99 83.5461 142.778 83.5931Z" fill="#667770"/>
<path d="M141.101 81.8888L130.533 84.619C130.425 84.647 130.313 84.6535 130.204 84.638C130.094 84.6224 129.988 84.5852 129.893 84.5285C129.797 84.4718 129.714 84.3967 129.647 84.3074C129.58 84.2182 129.532 84.1166 129.504 84.0085L124.853 65.584C124.8 65.3739 124.829 65.1514 124.934 64.9622C125.039 64.773 125.212 64.6314 125.417 64.5665L136.525 61.0478C136.636 61.012 136.754 61.0002 136.871 61.0129C136.987 61.0256 137.1 61.0627 137.202 61.1218C137.303 61.1808 137.391 61.2606 137.46 61.3559C137.53 61.4512 137.578 61.5599 137.603 61.6752L141.75 80.8544C141.777 80.9653 141.782 81.0806 141.763 81.1934C141.745 81.3062 141.705 81.4141 141.644 81.5107C141.584 81.6073 141.504 81.6906 141.411 81.7556C141.317 81.8206 141.212 81.8659 141.101 81.8888Z" fill="#00B28C"/>
<path d="M59.6832 88.2395C59.7506 87.7138 59.2618 87.3916 58.9078 87.0779C58.5539 86.7641 58.0651 86.3317 57.6606 85.9587C56.8684 85.2634 56.0678 84.5766 55.2419 83.9237C53.7235 82.6745 52.0928 81.5703 50.3708 80.6254C48.5842 79.6467 46.6812 78.9002 44.7076 78.404C43.907 78.2175 43.0811 78.1242 42.2721 77.997C41.9013 77.9377 41.5305 77.8698 41.1681 77.7935C40.8057 77.7172 40.3253 77.6748 40.2411 77.3781C40.2411 77.4544 40.2411 77.378 40.2411 77.3357C40.2595 77.2654 40.2909 77.1992 40.3338 77.1406C40.3984 77.0514 40.475 76.9715 40.5613 76.9032C40.9161 76.6359 41.3157 76.4348 41.7411 76.3097C42.6513 75.9875 43.6205 75.8603 44.5391 75.5721C44.6078 75.5486 44.6663 75.5019 44.7044 75.4397C44.7425 75.3776 44.7579 75.3041 44.7479 75.2317C44.7379 75.1594 44.7032 75.0929 44.6497 75.0436C44.5962 74.9942 44.5273 74.9653 44.4548 74.9616C43.5173 74.8935 42.5749 74.962 41.6569 75.1651C40.8047 75.2664 40.0116 75.6549 39.4067 76.2673C39.2387 76.4435 39.1133 76.6564 39.0404 76.8894C38.9676 77.1223 38.9492 77.3691 38.9867 77.6103C39.0242 77.8516 39.1167 78.0809 39.2568 78.2804C39.3969 78.4798 39.5809 78.644 39.7944 78.7601C40.626 79.1316 41.5226 79.3333 42.4322 79.3536C43.2827 79.4352 44.1271 79.5711 44.9604 79.7606C46.064 80.038 47.148 80.3892 48.205 80.812C50.1454 81.6268 51.9793 82.6776 53.666 83.9407C54.6604 84.6614 55.6127 85.433 56.565 86.213L58.0988 87.5018C58.5202 87.8494 59.0343 88.5023 59.6326 88.3497C59.6481 88.3442 59.6614 88.3338 59.6705 88.32C59.6797 88.3063 59.6841 88.2899 59.6832 88.2734V88.2395Z" fill="#343B38"/>
<path d="M72.9479 76.3776C73.7201 76.4645 74.4425 76.8041 75.0042 77.3441C75.2486 77.59 74.9115 77.7935 74.6756 77.8868C74.2533 78.0347 73.8191 78.1453 73.3777 78.2175C72.6783 78.3701 71.9704 78.5227 71.2877 78.7347C68.3085 79.7161 65.5588 81.297 63.2058 83.3811C62.4447 84.028 61.7189 84.7158 61.0315 85.4414C60.686 85.8145 60.3405 86.1961 60.0202 86.5946C59.7087 87.009 59.4271 87.4454 59.1775 87.9003C58.8994 88.3921 59.5904 88.9687 60.0202 88.5193C60.45 88.0699 60.6523 87.841 60.9557 87.4849C61.2591 87.1287 61.6215 86.7048 61.9754 86.3232C62.6253 85.6256 63.3118 84.9634 64.0317 84.3392C65.2832 83.2464 66.6348 82.2755 68.0685 81.4394C69.5442 80.598 71.107 79.9213 72.7288 79.4215C73.3103 79.2264 73.9002 79.0738 74.4817 78.8788C74.8706 78.7753 75.2309 78.5839 75.5352 78.3192C75.6436 78.2224 75.7294 78.1028 75.7866 77.9688C75.8438 77.8349 75.871 77.6899 75.8662 77.5442C75.8613 77.3984 75.8246 77.2556 75.7587 77.1258C75.6927 76.9959 75.5992 76.8823 75.4846 76.793C74.79 76.244 73.9324 75.9454 73.0491 75.9451C72.83 75.9451 72.7625 76.3097 72.9985 76.3521L72.9479 76.3776Z" fill="#343B38"/>
<path d="M75.2402 69.9506C73.4166 72.0722 71.1877 73.8034 68.6861 75.0415C66.1845 76.2795 63.4611 76.9991 60.6776 77.1576C59.9781 77.2085 59.2787 77.1576 58.5792 77.1576C57.8797 77.1576 57.1802 77.1576 56.4639 77.1576C56.1521 77.1576 56.1184 77.59 56.3965 77.6833C59.0056 78.4252 61.7681 78.4252 64.3773 77.6833C67.2436 77.0414 69.9412 75.7928 72.2906 74.0205C73.6161 73.0045 74.7566 71.7652 75.6616 70.3576C75.847 70.0693 75.3919 69.7047 75.1728 69.9845L75.2402 69.9506Z" fill="#343B38"/>
<path d="M37.1734 47.6851C37.6557 47.7208 38.116 47.9017 38.4948 48.2041C38.8735 48.5065 39.1531 48.9165 39.2972 49.3809C39.4597 49.8606 39.5003 50.3736 39.4151 50.8732C39.2849 51.4133 39.1159 51.9432 38.9095 52.4587C38.8817 52.5663 38.8898 52.68 38.9323 52.7826C38.9749 52.8852 39.0497 52.9709 39.1452 53.0266C39.2408 53.0824 39.3519 53.1051 39.4615 53.0914C39.5711 53.0776 39.6732 53.0281 39.7522 52.9505C40.187 52.3914 40.4518 51.7177 40.5146 51.0106C40.5774 50.3035 40.4355 49.5932 40.1062 48.9654C39.8295 48.4322 39.4074 47.9895 38.8894 47.6891C38.3715 47.3888 37.7791 47.2433 37.1819 47.2696C37.1282 47.2696 37.0768 47.2911 37.0389 47.3292C37.0009 47.3674 36.9796 47.4192 36.9796 47.4731C36.9796 47.5271 37.0009 47.5789 37.0389 47.617C37.0768 47.6552 37.1282 47.6766 37.1819 47.6766L37.1734 47.6851Z" fill="#343B38"/>
<path d="M39.5163 48.4736C39.4015 48.4606 39.2856 48.4606 39.1708 48.4736L38.8758 48.533C38.6904 48.5923 38.5134 48.6686 38.3449 48.7365C38.1465 48.8166 37.9524 48.9072 37.7634 49.0078C37.562 49.1082 37.3795 49.243 37.224 49.4063C37.1637 49.4641 37.1245 49.5407 37.1127 49.6238C37.101 49.7068 37.1173 49.7914 37.1592 49.8639C37.2011 49.9364 37.266 49.9926 37.3435 50.0234C37.421 50.0542 37.5066 50.0578 37.5864 50.0337C37.7903 49.9783 37.9859 49.8956 38.1679 49.7879L38.6904 49.5165L39.1961 49.2706L39.4405 49.1265C39.5314 49.0644 39.6136 48.9903 39.6849 48.9061C39.7198 48.8714 39.7439 48.8274 39.7544 48.7792C39.7649 48.731 39.7612 48.6808 39.7439 48.6347C39.7229 48.5912 39.6907 48.5541 39.6507 48.5273C39.6107 48.5004 39.5643 48.4848 39.5163 48.4821V48.4736Z" fill="#343B38"/>
<path d="M85.7914 52.4248C84.7567 52.5305 83.7939 53.0058 83.0777 53.7645C82.5249 54.324 82.1219 55.0154 81.9063 55.774C81.797 56.0664 81.797 56.3888 81.9063 56.6812L81.8473 56.4692C81.8473 56.7321 81.8473 57.1221 82.0664 57.3171C82.1086 57.3571 82.1644 57.3793 82.2223 57.3793C82.2803 57.3793 82.336 57.3571 82.3782 57.3171C82.5721 57.156 82.5889 56.8253 82.6648 56.5964L82.5552 56.7829C82.7067 56.5724 82.8051 56.328 82.8418 56.0707C82.8994 55.8741 82.9698 55.6815 83.0524 55.4941C83.2328 55.1097 83.4623 54.7505 83.7351 54.4258C84.3083 53.7687 85.0618 53.2967 85.9009 53.0692C86.238 52.9844 86.179 52.3994 85.8166 52.4418L85.7914 52.4248Z" fill="#343B38"/>
<path d="M83.8531 54.0358L84.0975 54.1121H84.1565H84.207L84.6453 54.3665L84.7548 54.4428C84.7743 54.4389 84.7943 54.4389 84.8138 54.4428L84.9655 54.5615H85.0161C85.0161 54.5615 85.0582 54.5615 85.0161 54.5615C85.0517 54.5842 85.0856 54.6097 85.1172 54.6378C85.1966 54.7376 85.3014 54.8138 85.4206 54.8582C85.4688 54.8711 85.5192 54.8728 85.5682 54.8631C85.6171 54.8535 85.6632 54.8328 85.703 54.8025C85.7428 54.7723 85.7752 54.7334 85.7978 54.6887C85.8204 54.644 85.8326 54.5947 85.8335 54.5445C85.8134 54.3899 85.7422 54.2465 85.6313 54.1375C85.5739 54.0657 85.512 53.9978 85.4459 53.934C85.2943 53.7933 85.1206 53.6787 84.9318 53.5949C84.7499 53.4999 84.5533 53.4368 84.3503 53.4084C84.1527 53.3743 83.9525 53.3572 83.752 53.3575C83.6972 53.358 83.6444 53.3785 83.6034 53.415C83.5624 53.4516 83.5359 53.5018 83.5287 53.5564C83.5215 53.6111 83.5342 53.6665 83.5644 53.7125C83.5945 53.7585 83.6402 53.792 83.693 53.8069L83.8531 54.0358Z" fill="#343B38"/>
<path d="M53.5396 123.69C55.2251 123.418 56.9105 123.274 58.5455 123.088C60.1804 122.901 61.9164 122.757 63.6019 122.621C65.2874 122.486 66.8971 122.384 68.5488 122.316C70.232 122.205 71.9196 122.18 73.6053 122.24L73.2345 122.096C73.9764 122.893 74.5219 123.854 74.8273 124.902C75.0117 125.43 75.2227 125.948 75.4593 126.454C75.7188 126.954 76.0295 127.426 76.3864 127.861C77.2129 128.838 77.7913 130.002 78.0718 131.253C78.1036 131.534 78.1036 131.819 78.0718 132.101C78.0718 132.27 78.0718 132.72 77.8949 132.838C77.7179 132.957 77.5409 132.906 77.4314 132.932L76.8751 133.042L75.7627 133.271C72.8637 133.864 69.9815 134.517 67.0656 134.966C64.1497 135.416 61.099 135.814 58.0904 136.001C56.4049 136.128 54.7194 136.213 53.0339 136.315C52.1912 136.365 51.3484 136.408 50.5057 136.484C49.663 136.56 48.8202 136.722 47.9353 136.798C47.8347 136.798 47.7383 136.838 47.6672 136.91C47.596 136.981 47.5561 137.078 47.5561 137.179C47.5561 137.281 47.596 137.378 47.6672 137.449C47.7383 137.521 47.8347 137.561 47.9353 137.561C48.4915 137.561 49.0393 137.637 49.6208 137.637C50.2023 137.637 50.8344 137.637 51.4411 137.637C52.5788 137.637 53.7081 137.544 54.8121 137.476C57.1044 137.332 59.3966 137.162 61.6805 136.925C66.1557 136.458 70.6031 135.754 75.0043 134.814L76.5886 134.466C77.1591 134.381 77.7224 134.254 78.2741 134.085C79.218 133.745 79.3697 132.592 79.336 131.711C79.2652 130.732 78.9773 129.781 78.4932 128.929C77.9764 128.088 77.4137 127.275 76.8077 126.496C75.906 125.131 75.7037 123.444 74.5913 122.197C74.338 121.856 74.0052 121.582 73.6222 121.4C73.3623 121.362 73.0983 121.362 72.8384 121.4H71.9282C70.799 121.4 69.6781 121.468 68.5573 121.51C66.029 121.621 63.5008 121.799 60.9726 122.079C59.7169 122.223 58.4443 122.367 57.1887 122.562C55.933 122.757 54.6604 123.02 53.3795 123.223C53.0676 123.274 53.2025 123.74 53.5059 123.698L53.5396 123.69Z" fill="#343B38"/>
<path d="M24.8778 148.965C25.1951 148.693 25.4781 148.382 25.7206 148.041C25.9577 147.688 26.1663 147.317 26.3442 146.93C26.725 146.163 26.9485 145.327 27.0015 144.471C27.0022 144.409 26.9803 144.349 26.94 144.302C26.8997 144.255 26.8438 144.225 26.7827 144.216C26.7216 144.208 26.6596 144.222 26.6084 144.257C26.5571 144.291 26.5201 144.343 26.5043 144.403C26.2431 145.158 26.0745 145.938 25.7627 146.676C25.6026 147.04 25.4425 147.413 25.2486 147.761C25.0548 148.109 24.92 148.49 24.7261 148.846C24.719 148.867 24.7183 148.888 24.7242 148.909C24.7302 148.93 24.7424 148.948 24.7593 148.961C24.7761 148.974 24.7966 148.982 24.8179 148.982C24.8392 148.983 24.8602 148.977 24.8778 148.965Z" fill="#343B38"/>
<path d="M26.1251 153.128C27.0605 154.129 28.3668 151.763 28.6533 151.17C29.6649 149.341 30.2823 147.319 30.4652 145.234C30.4652 145.082 30.2629 145.073 30.2208 145.234C29.708 147.027 29.0917 148.788 28.3752 150.508C28.088 151.176 27.72 151.805 27.2796 152.382C27.0184 152.687 26.6223 153.069 26.1841 153.009C26.1654 153.007 26.1464 153.01 26.1295 153.018C26.1125 153.026 26.0986 153.04 26.0894 153.056C26.0803 153.073 26.0764 153.092 26.0782 153.111C26.0801 153.13 26.0876 153.148 26.0998 153.162L26.1251 153.128Z" fill="#343B38"/>
<path d="M126.108 83.3557C126.328 83.317 126.537 83.2333 126.723 83.1098C126.914 82.9832 127.086 82.8321 127.238 82.6604C127.394 82.4774 127.512 82.2638 127.583 82.033C127.614 81.9305 127.637 81.8256 127.65 81.7192C127.65 81.5836 127.709 81.4394 127.6 81.3377L127.65 81.4479V81.2275C127.65 81.1088 127.457 81.1342 127.431 81.2275L127.381 81.3631L127.431 81.3123C127.33 81.3631 127.305 81.4818 127.263 81.5751C127.229 81.6612 127.187 81.7436 127.136 81.821L126.985 82.0584L126.934 82.1262L126.892 82.1771L126.841 82.2449C126.781 82.3196 126.717 82.3904 126.648 82.4569L126.538 82.5587H126.487C126.327 82.6761 126.158 82.781 125.982 82.8724C125.938 82.9018 125.905 82.9459 125.89 82.997C125.874 83.0481 125.877 83.103 125.898 83.1522C125.917 83.203 125.954 83.2446 126.003 83.2682C126.052 83.2919 126.107 83.2959 126.159 83.2794L126.108 83.3557Z" fill="#343B38"/>
<path d="M47.0926 228.658C47.1924 228.778 47.2695 228.916 47.3201 229.065C47.3254 229.133 47.3254 229.201 47.3201 229.268C47.3201 229.353 47.3201 229.438 47.3201 229.523C47.3201 229.607 47.3201 229.599 47.3201 229.523V229.574C47.316 229.607 47.316 229.642 47.3201 229.675C47.3026 229.764 47.2801 229.852 47.2527 229.938C47.2362 229.977 47.2222 230.016 47.2105 230.057V230.108C47.2105 230.184 47.1263 230.252 47.0841 230.328C47.0623 230.365 47.0453 230.405 47.0336 230.447C47.0336 230.447 47.0336 230.388 47.0336 230.447C46.995 230.5 46.969 230.56 46.9577 230.625C46.9471 230.695 46.9627 230.767 47.0016 230.827C47.0405 230.886 47.0999 230.929 47.1684 230.947C47.4212 231.006 47.6656 230.735 47.792 230.549C47.8981 230.379 47.9698 230.189 48.0031 229.991C48.0364 229.794 48.0305 229.591 47.9859 229.395C47.8839 229 47.6486 228.652 47.3201 228.412C47.1684 228.302 47.0167 228.531 47.1263 228.658H47.0926Z" fill="#343B38"/>
<path d="M93.8227 222.511C94.0223 222.616 94.2164 222.732 94.4042 222.858C94.4937 222.919 94.5782 222.987 94.657 223.062C94.7306 223.128 94.7932 223.205 94.8424 223.291C94.8716 223.329 94.8943 223.372 94.9099 223.418C94.9099 223.418 94.9099 223.375 94.9099 223.418V223.494C94.9139 223.542 94.9139 223.59 94.9099 223.638C94.9099 223.511 94.9099 223.774 94.9099 223.723C94.9099 223.672 94.9099 223.723 94.9099 223.723C94.9183 223.819 94.9183 223.915 94.9099 224.011C94.9099 223.969 94.9099 224.011 94.9099 224.011C94.9128 224.034 94.9128 224.057 94.9099 224.079V224.155C94.9099 224.105 94.9099 224.155 94.9099 224.155C94.8764 224.218 94.8657 224.29 94.8795 224.36C94.8934 224.43 94.9309 224.492 94.9857 224.537C95.0394 224.584 95.1083 224.61 95.1795 224.61C95.2508 224.61 95.3196 224.584 95.3734 224.537C95.4829 224.44 95.5694 224.32 95.6263 224.185C95.6832 224.05 95.7091 223.904 95.702 223.757C95.6721 223.461 95.5547 223.18 95.3649 222.952C94.9714 222.561 94.4738 222.293 93.9323 222.18C93.8946 222.17 93.8546 222.174 93.8198 222.192C93.785 222.21 93.7579 222.24 93.7434 222.276C93.7289 222.312 93.7281 222.353 93.7412 222.39C93.7542 222.427 93.7802 222.458 93.8143 222.477L93.8227 222.511Z" fill="#343B38"/>
<path d="M18.9702 108.657C19.8297 108.706 20.6916 108.692 21.549 108.614C22.1986 108.585 22.8317 108.399 23.3946 108.072C23.7212 107.904 24.006 107.665 24.2278 107.371C24.4496 107.077 24.6026 106.737 24.6756 106.376C24.6342 106.102 24.5383 105.838 24.3935 105.602C24.2486 105.366 24.058 105.162 23.8328 105.002C23.5721 104.762 23.29 104.546 22.9901 104.358C22.7625 104.222 22.4254 104.002 22.1473 104.112C22.1071 104.125 22.0703 104.147 22.0396 104.177C22.0088 104.206 21.985 104.242 21.9696 104.282C21.9543 104.321 21.948 104.364 21.951 104.406C21.954 104.449 21.9664 104.49 21.9872 104.527C22.1389 104.756 22.4507 104.85 22.6783 105.002C22.9455 105.177 23.194 105.378 23.4199 105.604C23.6189 105.777 23.7821 105.987 23.9002 106.223C23.9845 106.461 23.7823 106.766 23.6053 106.978C23.1277 107.527 22.4636 107.878 21.7428 107.961C20.8143 108.079 19.8805 108.15 18.9449 108.173C18.8756 108.173 18.8092 108.201 18.7602 108.25C18.7112 108.3 18.6837 108.366 18.6837 108.436C18.6837 108.506 18.7112 108.573 18.7602 108.622C18.8092 108.671 18.8756 108.699 18.9449 108.699L18.9702 108.657Z" fill="#343B38"/>
<path d="M39.7102 149.94C40.5239 149.993 41.3385 149.851 42.0867 149.525C42.8614 149.253 43.6045 148.898 44.3031 148.465C45.7336 147.602 46.9682 146.446 47.9269 145.073C48.3146 144.488 47.4044 143.996 47.0083 144.531C46.1124 145.756 45.0083 146.812 43.7469 147.651C43.1207 148.045 42.4673 148.393 41.7917 148.694C41.0621 148.933 40.3473 149.216 39.6512 149.542C39.4826 149.635 39.491 149.957 39.7102 149.991V149.94Z" fill="#343B38"/>
<path d="M73.3187 141.597C73.1172 142.328 73.0741 143.094 73.1923 143.844C73.2824 144.393 73.4832 144.918 73.7823 145.387C74.3275 146.334 75.2053 147.042 76.2431 147.371C76.6291 147.474 77.0243 147.54 77.4229 147.566C77.8158 147.626 78.2164 147.608 78.6028 147.515C79.041 147.371 79.1253 146.667 78.6028 146.532C78.2111 146.485 77.8173 146.459 77.4229 146.455C77.0499 146.419 76.6823 146.339 76.3273 146.218C75.8265 146.038 75.3857 145.721 75.0548 145.302C74.6975 144.941 74.4116 144.515 74.212 144.047C73.9417 143.287 73.8242 142.48 73.8665 141.673C73.8535 141.614 73.8228 141.56 73.7786 141.519C73.7343 141.478 73.6786 141.452 73.619 141.443C73.5594 141.435 73.4986 141.445 73.445 141.473C73.3913 141.5 73.3472 141.544 73.3187 141.597Z" fill="#343B38"/>
<path d="M76.4454 95.8111C76.5186 96.9299 76.6935 98.0396 76.9679 99.1264C77.246 100.491 77.5325 101.865 77.8106 103.239C78.3584 105.96 78.8809 108.69 79.4371 111.404C79.6141 112.252 79.7826 113.15 79.9175 114.024C80.0007 114.765 80.1274 115.501 80.2967 116.228C80.3137 116.281 80.3469 116.327 80.3916 116.36C80.4362 116.393 80.49 116.41 80.5453 116.41C80.6005 116.41 80.6544 116.393 80.699 116.36C80.7437 116.327 80.7769 116.281 80.7939 116.228C80.8952 115.599 80.8952 114.958 80.7939 114.329C80.7265 113.54 80.6001 112.76 80.4737 111.98C80.204 110.285 79.8332 108.69 79.4708 107.054C78.923 104.51 78.4174 101.967 77.7853 99.4231C77.5559 98.1544 77.2059 96.9108 76.7403 95.7094C76.6645 95.5313 76.3779 95.6246 76.3779 95.8111H76.4454Z" fill="#343B38"/>
<path d="M100.287 10.8614C102.705 6.89838 106.497 3.97736 110.93 2.66237C118.515 0.00848318 124.794 -0.864839 132.656 0.966594C140.519 2.79803 148.323 8.47886 149.671 16.5083C150.514 21.3752 150.042 27.09 145.651 31.9314C136.912 41.5634 130.137 38.7145 127.44 40.2152C123.361 42.4367 122.333 48.1684 118.557 50.8816C117.883 49.0078 118.262 46.8796 117.597 44.9973C116.408 41.6058 112.473 40.2407 109.338 38.4686C100.228 33.2965 93.3339 21.8331 100.287 10.8614Z" fill="#4CD8AC"/>
<path d="M136.39 13.032C136.87 12.7215 137.435 12.5708 138.006 12.6012C138.576 12.6316 139.122 12.8417 139.567 13.2016C139.95 13.5545 140.197 14.0318 140.265 14.5497C140.333 15.0676 140.217 15.593 139.938 16.0336C139.49 16.5576 138.993 17.0374 138.454 17.4665C137.853 18.0208 137.403 18.7216 137.148 19.5014C136.617 21.2905 137.401 23.1219 138.168 24.7074C138.338 24.9986 138.616 25.21 138.94 25.2951C139.265 25.3802 139.61 25.332 139.9 25.1611C140.189 24.9901 140.399 24.7106 140.484 24.3838C140.568 24.057 140.521 23.7099 140.351 23.4186C139.905 22.6352 139.619 21.7706 139.508 20.875C139.504 20.5452 139.578 20.2192 139.725 19.9243C139.871 19.6293 140.086 19.3738 140.351 19.1792C141.03 18.6213 141.641 17.9837 142.171 17.28C142.621 16.5556 142.858 15.7177 142.854 14.8635C142.852 13.9929 142.617 13.139 142.171 12.3925C141.726 11.6459 141.088 11.0348 140.325 10.6241C139.513 10.2071 138.609 10.0047 137.698 10.0358C136.787 10.067 135.899 10.3307 135.117 10.8021C134.841 10.9782 134.643 11.2553 134.565 11.5753C134.487 11.8952 134.536 12.233 134.701 12.5175C134.866 12.802 135.134 13.0111 135.449 13.1007C135.764 13.1904 136.101 13.1536 136.39 12.9981V13.032Z" fill="#FFFAEB"/>
<path d="M139.44 27.7089V27.8954C139.43 28.0665 139.468 28.2372 139.55 28.3872C139.606 28.542 139.694 28.6829 139.809 28.8C139.924 28.9171 140.063 29.0077 140.216 29.0655C140.367 29.1422 140.536 29.1773 140.705 29.1673H141.042C141.246 29.1 141.431 28.9836 141.581 28.8281L141.775 28.5653C141.893 28.3714 141.954 28.1481 141.952 27.9209V27.7343C141.954 27.5641 141.916 27.3957 141.842 27.2426C141.788 27.0883 141.698 26.9489 141.581 26.8356C141.467 26.7156 141.325 26.6254 141.168 26.5727C141.021 26.4935 140.855 26.4554 140.688 26.4625L140.351 26.5134C140.14 26.569 139.948 26.6802 139.794 26.8356L139.592 27.0984C139.481 27.2918 139.423 27.5112 139.424 27.7343L139.44 27.7089Z" fill="#FFFAEB"/>
<path d="M117.495 24.2919C117.613 23.3677 118.397 21.9772 119.29 21.9348C120.184 21.8924 121.077 21.7483 121.541 22.6131C121.805 23.2742 121.983 23.9666 122.072 24.6735C122.468 24.7328 123.572 24.6057 124.204 24.6735C128.417 24.86 129.766 22.9099 130.339 21.6041C131.35 19.3064 129.875 16.7712 128.468 13.2101C127.735 11.3447 127.035 9.36067 126.075 8.90281C125.114 8.44495 121.372 9.02999 116.088 10.3527C115.808 10.485 115.578 10.7056 115.434 10.9809C115.289 11.2563 115.238 11.5715 115.287 11.8789C115.582 13.439 115.608 15.864 114.773 17.2969C113.939 18.7298 108.63 19.3148 106.683 20.8834C106.234 21.3481 105.88 21.8979 105.644 22.501C105.407 23.104 105.291 23.7483 105.304 24.3966C105.316 25.0448 105.457 25.6841 105.717 26.2775C105.976 26.8708 106.351 27.4063 106.818 27.8531C107.432 28.2066 108.125 28.3963 108.832 28.4042C111.908 28.3618 112.852 28.4042 116.417 28.4042C116.904 28.4137 117.389 28.3508 117.858 28.2176C117.516 26.9394 117.393 25.6117 117.495 24.2919Z" fill="#FFFAEB"/>
<path d="M122.442 22.5029C122.269 22.0199 121.987 21.5842 121.616 21.2309C121.246 20.8775 120.799 20.6163 120.31 20.468C119.773 20.3385 119.213 20.3418 118.677 20.4777C118.141 20.6135 117.646 20.8778 117.234 21.248C115.625 22.8166 116.113 25.9368 116.391 27.9209C116.695 30.0576 117.748 32.7115 120.217 32.9065C122.501 33.0845 123.479 31.1344 123.47 29.1164L122.527 30.0661C124.853 29.9813 127.17 29.8117 129.496 29.7269L128.577 29.0232C128.769 30.0744 129.092 31.0971 129.538 32.0671C129.825 32.5381 130.236 32.9198 130.725 33.1698C131.215 33.4198 131.764 33.5282 132.311 33.483C132.864 33.4885 133.411 33.3568 133.902 33.0995C134.393 32.8422 134.813 32.4672 135.126 32.0077C135.718 30.8538 136.008 29.5668 135.968 28.2685C136.008 27.0202 135.929 25.771 135.732 24.5378C135.616 23.2509 135.136 22.0242 134.35 21.0022C133.929 20.5628 133.4 20.2434 132.816 20.0765C132.232 19.9095 131.615 19.901 131.027 20.0517C130.439 20.2024 129.901 20.507 129.468 20.9345C129.035 21.3621 128.722 21.8973 128.561 22.486C128.51 22.6555 128.207 23.5543 128.325 23.6815C128.165 23.5034 129.235 23.5882 128.662 23.4102C128.4 23.3831 128.135 23.3974 127.878 23.4525L125.527 23.5967L123.125 23.7493C122.963 23.7236 122.798 23.7236 122.636 23.7493C122.333 23.7493 122.375 23.8426 122.779 24.1309V23.9528C122.793 23.523 122.715 23.0952 122.552 22.6979C122.173 21.5448 120.344 22.0366 120.723 23.2067C121.018 24.0969 120.774 25.1653 121.836 25.5638C122.408 25.6966 123.002 25.711 123.58 25.6062L125.266 25.4959C126.445 25.4196 127.642 25.3942 128.813 25.284C130.145 25.1568 130.052 24.1139 130.33 23.0964C130.37 22.8597 130.463 22.6355 130.604 22.4413C130.744 22.2471 130.927 22.0883 131.139 21.9774C131.35 21.8664 131.584 21.8064 131.823 21.8019C132.061 21.7975 132.298 21.8488 132.513 21.9518C133.432 22.4266 133.634 23.7069 133.811 24.6141C134 25.6886 134.085 26.7791 134.064 27.87C134.142 28.9153 133.963 29.9638 133.541 30.9224C133.417 31.0979 133.258 31.2459 133.074 31.3571C132.89 31.4684 132.686 31.5405 132.473 31.5691C132.261 31.5977 132.045 31.5822 131.839 31.5235C131.632 31.4647 131.44 31.3641 131.274 31.2277C130.642 30.5239 130.676 29.3538 130.432 28.4975C130.374 28.2979 130.255 28.122 130.091 27.9954C129.927 27.8688 129.728 27.7982 129.521 27.7937C127.195 27.8785 124.878 28.0481 122.552 28.1329C122.301 28.1372 122.061 28.2396 121.883 28.4183C121.706 28.5971 121.604 28.8382 121.6 29.091C121.6 30.0406 121.397 31.2701 120.158 30.9479C118.768 30.5833 118.406 28.5907 118.245 27.3867C118.085 26.1827 117.807 24.3174 118.245 23.088C118.354 22.8097 118.55 22.5755 118.805 22.422C119.06 22.2685 119.358 22.2045 119.653 22.2401C120.302 22.2994 120.571 22.876 120.807 23.4186C121.279 24.5887 122.914 23.6136 122.442 22.5029Z" fill="#FFFAEB"/>
<path d="M114.268 14.5922L117.9 14.3293C118.146 14.3166 118.378 14.2108 118.55 14.0331C118.722 13.8555 118.821 13.6191 118.827 13.3712C118.823 13.1193 118.721 12.879 118.543 12.7016C118.365 12.5242 118.125 12.4237 117.875 12.4216L114.242 12.6844C113.993 12.6909 113.755 12.7942 113.579 12.9727C113.403 13.1513 113.303 13.3912 113.299 13.6425C113.299 13.8944 113.398 14.1359 113.575 14.314C113.752 14.4921 113.992 14.5922 114.242 14.5922H114.268Z" fill="#4CD8AE"/>
<path d="M111.942 18.4416L117.327 17.9922C117.459 18.0047 117.592 17.9894 117.718 17.9471C117.844 17.9049 117.959 17.8367 118.057 17.7469C118.155 17.6571 118.234 17.5477 118.287 17.4257C118.341 17.3037 118.369 17.1717 118.369 17.0383C118.369 16.9049 118.341 16.773 118.287 16.6509C118.234 16.5289 118.155 16.4195 118.057 16.3297C117.959 16.2399 117.844 16.1717 117.718 16.1295C117.592 16.0872 117.459 16.0719 117.327 16.0844L111.942 16.5338C111.706 16.5562 111.486 16.6664 111.327 16.8428C111.167 17.0192 111.079 17.2492 111.079 17.4877C111.079 17.7262 111.167 17.9562 111.327 18.1326C111.486 18.309 111.706 18.4191 111.942 18.4416Z" fill="#4CD8AE"/>
</g>
<defs>
<clipPath id="clip0">
<rect width="150" height="235" fill="white"/>
</clipPath>
</defs>
</svg>
