<svg xmlns="http://www.w3.org/2000/svg" width="133" height="30" fill="none" xmlns:v="https://vecta.io/nano"><g clip-path="url(#A)"><g fill="#fff5d9"><path d="M132.145 7.404L1.872 7.169c-.225 0-.44-.092-.599-.255s-.248-.385-.248-.617L1.084.872c0-.231.089-.453.248-.617S1.707 0 1.931 0l130.154 2.686c.225 0 .44.092.599.255s.248.385.248.617l.085 2.974a.9.9 0 0 1-.067.34c-.044.108-.109.205-.19.286a.84.84 0 0 1-.284.187.82.82 0 0 1-.331.059zM1.194 29.529l130.247-2.328c.225 0 .44-.092.599-.255s.248-.385.248-.617l-.144-5.398c0-.231-.089-.453-.248-.617s-.374-.255-.599-.255L1.177 24.802c-.225 0-.44.092-.599.255s-.248.385-.248.617v2.983a.89.89 0 0 0 .066.338c.044.107.108.204.188.285s.176.145.281.188a.81.81 0 0 0 .329.061z"/><path d="M10.936 26.956H5.667L6.819 2.119h4.117v24.837zm55.873-.723H61.54L62.692 2.12h4.117v24.113zM79.998 3.698h5.269l-.974 22.535h-4.117l-.178-22.535zM28.58 26.73l-6.04-.985-.28-23.625L26.344.724 28.58 26.73zM40.457 1.247l6.04.977.559 24.035-4.083 1.395-2.516-26.407zm81.912 24.986h5.269l-1.152-22.535h-4.117v22.535zM101.294 3.026l6.031.951 1.127 21.933-4.083 1.352-3.075-24.236z"/></g><g fill="#343b38"><path d="M.915 1.003l.034 5.974c-.001.037.005.075.018.109a.28.28 0 0 0 .058.094.27.27 0 0 0 .089.063c.033.015.069.022.106.022l7.166.297 10.707.253 13.325.157 15.205.078h16.179l16.281-.052 15.451-.087 13.917-.061 11.453-.122 8.106-.096 1.372-.061c.065-.012.124-.047.166-.098s.066-.117.066-.185-.024-.133-.066-.185-.101-.087-.166-.098l-7.174-.026h-10.716-13.324H83.92 67.766h-16.28-15.46-13.909c-3.812 0-7.624-.148-11.444-.07-2.685.061-5.404-.096-8.098-.192l-1.355.009.28.253c-.119-1.997-.085-4.003-.22-6 0-.235-.373-.244-.364 0v.026zM.246 25.561A32.48 32.48 0 0 0 0 29.529a.49.49 0 0 0 .136.331.46.46 0 0 0 .321.14l5.269-.27 8.268-.201 21.855-.227 6.582-.044 3.244-.052c1.05.013 2.099-.039 3.143-.157.079-.022.149-.07.199-.137a.39.39 0 0 0 0-.467c-.05-.067-.12-.115-.199-.137a24.03 24.03 0 0 0-2.863-.148h-2.812-5.87l-11.47.07-19.22.453-6.124.375.457.471-.051-2.389c-.017-.506-.11-.977-.136-1.517 0-.262-.432-.358-.483-.061z"/></g></g><defs><clipPath id="A"><path fill="#fff" d="M0 0h133v30H0z"/></clipPath></defs></svg>