<svg xmlns="http://www.w3.org/2000/svg" width="161" height="256" fill="none" xmlns:v="https://vecta.io/nano"><g clip-path="url(#B)"><path d="M103.773.502C99.929-.697 93.159-.119 90.13 6.455c-1.841 3.972-.272 8.794.797 10.742 1.375 2.552 5.786 6.753 9.596 9.236a.85.85 0 0 0 .959-.043 40.34 40.34 0 0 0 8.535-9.679c3.004-5.571 1.841-13.667-6.244-16.21z" fill="#00b28c"/><path d="M101.329 6.608a5.08 5.08 0 0 0-3.275.374c-.504.282-.925.69-1.223 1.186s-.461 1.06-.474 1.638c-.033.622.098 1.242.38 1.797s.703 1.027 1.224 1.367c.821.714 1.889 1.075 2.974 1.005a4.13 4.13 0 0 0 2.821-1.38 3.85 3.85 0 0 0 .755-1.848 3.86 3.86 0 0 0-.271-1.979 4.31 4.31 0 0 0-1.217-1.403 4.29 4.29 0 0 0-1.694-.757z" fill="#fff"/><path d="M152.303 167.455l7.636 11.056c.128.186.176.415.134.637a.85.85 0 0 1-.354.545l-18.988 13.038c-.18.123-.4.173-.614.138a.85.85 0 0 1-.54-.325l-8.697-11.345a.85.85 0 0 1-.149-.316.86.86 0 0 1-.011-.35.87.87 0 0 1 .131-.324.88.88 0 0 1 .25-.244l20.066-12.757c.185-.112.406-.149.617-.103s.397.171.519.35z" fill="#667770"/><path d="M151.285 169.632l6.228 9.066a.85.85 0 0 1 .133.307.84.84 0 0 1 .005.335c-.02.111-.063.216-.124.31a.85.85 0 0 1-.235.239l-15.687 10.776a.85.85 0 0 1-1.154-.187l-7.119-9.322c-.071-.094-.122-.201-.149-.316s-.031-.233-.011-.349.066-.226.131-.324.151-.181.25-.244l16.621-10.529c.182-.105.396-.139.601-.095s.387.162.51.333z" fill="#00b28c"/><path d="M88.331 235.996a32.72 32.72 0 0 0-5.489-2.959c-.214-.112-.461-.142-.696-.085-.202.118-.351.31-.416.535a25.37 25.37 0 0 0-.849 4.091c-.305 1.37-1.044 2.79-2.359 3.249a5.23 5.23 0 0 1-2.8-.068l-6.007-1.242c-1.171-.246-2.545-.45-3.453.298-.367.334-.631.766-.762 1.245s-.123.985.024 1.46c.313.952.904 1.787 1.697 2.398 1.154.942 2.415 1.741 3.759 2.381 3.827 1.999 7.22 3.3 11.03 5.342.328.145.683.216 1.042.207s.71-.099 1.029-.262a2.41 2.41 0 0 0 .817-.68 2.42 2.42 0 0 0 .446-.966c.908-3.751 2.774-11.159 2.986-14.944z" fill="#ffe87b"/><path d="M71.116 239.356c-.849.212-.11 1.539-.212 6.242 0 .196-.051.434-.237.485a.43.43 0 0 1-.172.005c-.057-.011-.111-.032-.159-.064a40.65 40.65 0 0 1-5.583-3.76.72.72 0 0 0-.374-.171.71.71 0 0 0-.407.061.85.85 0 0 0-.223.298c-.051.115-.077.24-.074.365-.199.779-.099 1.605.28 2.314a3.36 3.36 0 0 0 .993.791c5.897 3.569 11.971 6.836 18.199 9.789.215.135.456.223.708.259a1.8 1.8 0 0 0 .751-.055c.293-.183.528-.446.679-.757.259-.346.402-.766.407-1.199-.093-.791-1.001-1.148-1.756-1.37-2.854-.842-5.601-2.012-8.187-3.487a.74.74 0 0 1-.28-.229c-.071-.108-.101-.238-.085-.366.178-2.211.255-6.804-.356-8.071-.339-.706-1.112-.851-2.019-1.021a5.62 5.62 0 0 0-1.892-.059z" fill="#00b28c"/><path d="M123.338 230.213c-1.868.938-3.641 2.054-5.294 3.334a.99.99 0 0 0-.416.57c-.001.116.022.231.067.337a.86.86 0 0 0 .196.284c.973 1.002 2.025 1.924 3.148 2.755 1.035.936 1.917 2.262 1.696 3.64-.251.918-.743 1.752-1.425 2.416l-4.021 4.652c-.781.91-1.621 1.99-1.426 3.172a2.61 2.61 0 0 0 .712 1.273c.353.348.798.588 1.282.692a5.08 5.08 0 0 0 2.902-.281c1.384-.549 2.697-1.263 3.911-2.126 3.597-2.373 6.389-4.703 10.02-7.034 1.332-.85 1.179-2.738.127-3.759-2.749-2.645-8.289-7.892-11.479-9.925z" fill="#ffe87b"/><path d="M117.865 246.908c-.237.851 1.282.851 5.32 3.241.17.093.356.246.314.442-.036.109-.112.2-.212.255a40.18 40.18 0 0 1-5.999 3.053.76.76 0 0 0-.33.246.75.75 0 0 0-.153.384c0 .255.229.433.433.586a3.18 3.18 0 0 0 2.155.851 3.01 3.01 0 0 0 1.17-.485 203.22 203.22 0 0 0 17.402-11.133c.215-.126.401-.295.547-.497a1.8 1.8 0 0 0 .301-.676 1.83 1.83 0 0 0-.322-.962 2.07 2.07 0 0 0-.848-.944c-.722-.306-1.485.315-2.045.851a38.43 38.43 0 0 1-7.034 5.46c-.097.073-.211.12-.331.136a.62.62 0 0 1-.364-.102c-1.833-1.242-5.787-3.546-7.195-3.632-.781-.051-1.281.562-1.875 1.268-.403.496-.719 1.056-.934 1.658z" fill="#00b28c"/><path d="M117.339 88.452c2.274 0 13.575-2.696 16.638-14.254.755-2.824 1.129-21.169-12.726-29.87.763 3.878-1.383 12.06-2.308 15.896a68.91 68.91 0 0 0-1.434 11.907c-.288 4.78-.916 15.692-.17 16.321z" fill="#212121"/><path d="M80.789 155.207c1.527 27.267 9.426 51.881 30.153 76.954 1.621 1.947 5.379 7.203 8.739 6.472 3.521-.766 11.242-6.949 9.172-9.254-15.679-17.469-27.812-42.371-27.541-47.551 0 0-10.461 18.252-21.584 48.189-2.469 6.643-.925 8.327 3.75 9.67s8.069.613 9.129-2.066c14.56-36.852 37.188-57.213 27.812-88.12l-39.63 5.706z" fill="#ff886d"/><g fill="#ffe87b"><path d="M42.77 110.922c-1.332-1.148-9.647-9.721-11.454-11.907-1.196-1.437-5.218-6.387-6.44-5.205s0 3.487 1.103 5.103c-2.673-1.624-8.654-5.868-10.275-4.423s3.131 4.737 4.31 5.716c-1.875-1.055-6.838-4.321-7.814-2.986-1.188 1.624 3.58 5.102 5.786 6.234-2.146-1.123-5.557-2.781-6.355-1.208-.56 1.08 1.391 2.313 2.707 3.164 1.697 1.097 17.622 13.191 22.306 15.309l6.126-9.798zm92.819 34.641c.399 1.701 6.007 25.166 6.177 27.99.119 1.871.45 8.241 2.129 8.02s2.071-2.807 2.113-4.771c1.196 2.9 3.521 9.865 5.685 9.661s.263-5.681-.111-7.161c.891 1.956 2.961 7.536 4.539 7.034 1.918-.604.102-6.209-.992-8.454 1.077 2.169 2.842 5.528 4.42 4.737 1.078-.536.238-2.696-.314-4.15-.721-1.888-10.393-32.702-12.913-37.201l-10.733 4.295z"/></g><path d="M81.238 128.136c-1.892 14.391-2.257 31.162-.288 32.872 1.824 1.582 4.437 1.752 6.838 1.837 8.671.306 17.342 1.216 26.022.927 6.236-.204 8.917-1.88 9.205-5.103.942-10.708.942-16.755.942-29.989 3.046 3.487 6.635 14.782 7.789 17.478 4.556 10.682 6.533 19.868 8.484 22.113 3.326 3.742 14.186-2.254 14.203-6.489 0-4.916-10.317-39.242-22.382-52.476-13.006-14.263-30.747-15.181-48.123-6.804-12.727 6.115-19.828 8.352-42.117.221-2.902-1.054-5.396-.417-6.788.8-2.741 2.373-7.254 6.804-8.679 8.93-2.35 3.487-.713 6.506.628 8.301 1.917 2.551 16.969 11.405 34.192 11.056 11.352-.289 20.032-3.385 20.074-3.674z" fill="#4cd8ac"/><mask id="A" maskUnits="userSpaceOnUse" x="25" y="97" width="130" height="73" mask-type="alpha"><path d="M81.238 128.136c-1.892 14.391-2.257 31.162-.288 32.872 1.824 1.582 4.437 1.752 6.838 1.837 8.671.306 17.342 1.216 26.022.927 6.236-.204 8.917-1.88 9.206-5.103.941-10.708.941-16.755.941-29.989 3.046 3.487 6.635 14.782 7.789 17.478 4.556 10.682 6.533 19.868 8.484 22.113 3.326 3.742 14.186-2.254 14.203-6.489 0-4.916-10.317-39.242-22.382-52.476-13.006-14.263-30.747-15.181-48.123-6.804-12.727 6.115-19.828 8.352-42.117.221-2.902-1.054-5.396-.416-6.788.8-2.741 2.373-7.254 6.804-8.68 8.93-2.35 3.487-.713 6.506.628 8.301 1.918 2.551 16.969 11.405 34.192 11.056 11.352-.289 20.032-3.385 20.074-3.674z" fill="#4cd8ac"/></mask><g mask="url(#A)"><path d="M20.575 154.391l138.728 3.308-.102 6.975-138.321-2.28-.305-8.003zm1.391-25.753h136.217l-.093 9.287-135.852-2.364-.271-6.923zm.051-11.091l136.786.128v6.421l-136.523.391-.263-6.94zm-.424-10.997l137.396-1.513-.119 8.351H21.856l-.263-6.838zm-.543-14.407l138.066 3.717-.059 4.448-137.651 1.182-.356-9.347zm1.222 49.116L161 144.576l-.085 5.818-138.338-1.123-.306-8.012z" fill="#9ae2c6"/></g><path d="M114.166 53.012c-4.318-4.533-12.905-7.127-19.514-4.686S83.936 57.4 81.866 69.945c-1.527 9.228 2.138 19.502 10.096 24.401s19.667 3.155 25.012-4.516a22.78 22.78 0 0 0 3.334-8.046c2.469-10.929-1.824-24.239-6.143-28.772z" fill="#ffe87b"/><path d="M99.743 69.477c-.086-.124-.201-.226-.334-.297a.93.93 0 0 0-.867 0c-.134.07-.248.172-.334.297-.509.57-.798 1.65-.849 3.513-.068 1.369.272 2.722.916 3.164s1.553-.187 1.926-1.463a6.04 6.04 0 0 0 .221-1.259c.132-1.356-.102-2.722-.679-3.955z" fill="#ff886d"/><path d="M83.317 65.361c-1.756-.298-7.458-1.582-9.273 3.657-2.104 6.055 4.183 9.823 8.714 9.628a35.8 35.8 0 0 1-.56-6.804c.107-2.198.483-4.375 1.12-6.481z" fill="#ffe87b"/><g fill="#343b38"><path d="M94.321 71.501c0 .85-.636 1.744-1.095 1.701s-.95-.604-.908-1.488.569-1.701 1.078-1.701.976.578.925 1.488zm9.562-.331c0 .85.45 1.795.916 1.812s1.01-.493 1.053-1.378-.382-1.786-.849-1.812-1.069.493-1.12 1.378z"/></g><path d="M85.209 44.473c-2.365 1.229-4.438 2.953-6.079 5.056a18.63 18.63 0 0 0-3.432 7.132c-.467 2.407.484 6.685 1.519 8.862 1.23 2.551 2.961 6.192 4.98 7.467.789-7.654 13.575-16.432 15.179-17.971 1.485 1.769 19.607 7.365 23.094 17.631 1.945-3.252 3.606-6.667 4.964-10.206 1.959-5.401.967-16.84-7.543-20.123-9.893-3.793-19.302-4.856-32.682 2.152z" fill="#212121"/><path d="M104.893 78.595c-1.29-.97-3.106-.281-4.081.417s-2.546 1.386-5.736.068c-.177-.086-.37-.135-.566-.145s-.393.02-.578.087-.355.171-.499.305a1.48 1.48 0 0 0-.342.475c-.136.432-.163.891-.079 1.337a2.74 2.74 0 0 0 .563 1.215c1.161 1.361 2.778 2.25 4.548 2.501 4.709.689 6.686-.97 7.509-2.603a2.84 2.84 0 0 0 .317-1.968c-.136-.673-.511-1.273-1.055-1.689z" fill="#ff886d"/><g fill="#ffe87b"><path d="M98.046 92.84c-.849 1.488-.611 5.843-.67 8.369-.093 3.947 2.893 6.855 5.005 7.221 3.208.544 7.424-.85 8.324-5.911.593-3.342.407-8.922-.789-10.954-.959-1.633-4.014-1.701-6.466-1.344-1.841.247-4.59 1.14-5.404 2.62zm21.109-28.474c5.506-2.288 9.842 2.228 9.596 5.953-.356 5.426-5.744 7.654-8.4 6.872.18-2.379.163-4.768-.051-7.144a38.16 38.16 0 0 0-1.145-5.681z"/></g><g fill="#212121"><path d="M113.615 37.983a7.08 7.08 0 0 1 3.02-4.149 7.05 7.05 0 0 1 5.023-1.013c.726.142 1.394.499 1.915 1.025a3.71 3.71 0 0 1 1.012 1.926c2.308-1.956 6.601-1.335 8.162.851 1.697 2.424 1.162 5.103-1.035 6.038 1.196 0 3.02.51 3.894 1.863 1.315 2.007.849 6.285-3.639 7.501-4.989 1.344-10.937.383-14.203-2.551-4.769-4.184-4.921-8.777-4.149-11.49zM97.444 54.27a17.27 17.27 0 0 0 4.183 6.455 20.09 20.09 0 0 0 6.448 4.252 9.66 9.66 0 0 0 4.285.969c.212 0 .365-.349.119-.451-1.129-.502-2.342-.774-3.496-1.208a20.02 20.02 0 0 1-3.317-1.633 22.21 22.21 0 0 1-5.574-4.933c-.909-1.114-1.7-2.319-2.359-3.598-.076-.153-.348 0-.288.128v.017z"/><path d="M97.435 54.619a40.55 40.55 0 0 0-3.317 3.912 22.8 22.8 0 0 0-2.664 3.819c-.62 1.158-.841 2.488-.628 3.785a3.17 3.17 0 0 0 .678 1.567c.365.45.847.791 1.392.985.045.012.093.009.137-.009s.079-.05.103-.091.032-.088.026-.135-.028-.09-.062-.123c-.797-.697-1.305-1.668-1.425-2.722-.069-1.244.261-2.478.942-3.521a37.83 37.83 0 0 1 2.469-3.402 37.97 37.97 0 0 0 2.596-3.836c.025-.033.036-.074.03-.115s-.027-.077-.06-.102-.074-.036-.114-.03-.077.027-.102.06v-.042z"/><path d="M97.647 54.041a4.77 4.77 0 0 0-.636 1.922c-.121.682-.175 1.374-.161 2.067a11.07 11.07 0 0 0 2.868 7.153c.416.463.873.888 1.366 1.267a4.04 4.04 0 0 0 1.553.85c.221 0 .509-.204.331-.434-.376-.404-.794-.767-1.247-1.08-.434-.359-.848-.743-1.239-1.148a11.43 11.43 0 0 1-1.85-2.841 11.08 11.08 0 0 1-.916-3.734c-.047-.657-.047-1.316 0-1.973.117-.638.196-1.283.237-1.931a.17.17 0 0 0-.036-.101c-.023-.029-.054-.049-.089-.059s-.073-.008-.107.006-.063.038-.082.069l.008-.034z"/></g><g fill="#343b38"><path d="M86.244 89.302a15.11 15.11 0 0 0 5.939 5.724c2.577 1.501 5.461 2.393 8.434 2.611a14.87 14.87 0 0 0 5.09-.527c.357-.102.306-.723-.085-.672-2.883.403-5.817.235-8.637-.493-2.665-.734-5.15-2.014-7.297-3.759-1.129-.962-2.187-2.005-3.165-3.121-.153-.162-.399.051-.297.238h.017zm-74.281 8.973a10.74 10.74 0 0 0 3.657 3.853 28.65 28.65 0 0 0 2.384 1.556 7.85 7.85 0 0 0 1.111.604 3.16 3.16 0 0 0 .899.315.22.22 0 0 0 .112-.028c.034-.019.063-.047.082-.081a.24.24 0 0 0 .031-.111c.001-.039-.01-.078-.03-.112-.214-.219-.457-.408-.721-.561a10.99 10.99 0 0 0-1.01-.638l-2.308-1.446a27.71 27.71 0 0 1-2.291-1.701 6.91 6.91 0 0 1-1.646-1.829c-.102-.179-.348 0-.272.153v.025zm-.56 3.98c-.348 1.03.585 1.846 1.315 2.416.509.4 1.069.723 1.587 1.114a9.93 9.93 0 0 1 .976.851c1.697 1.386 3.496 2.662 5.303 3.886l1.332.851c.262.186.548.337.848.451.047.009.096.004.139-.015s.08-.052.105-.093.035-.09.031-.137-.023-.093-.054-.13a4.61 4.61 0 0 0-.585-.484l-.984-.757-2.673-1.888-2.545-1.838-2.079-1.479a16.22 16.22 0 0 1-1.697-1.115c-.253-.149-.454-.373-.577-.64a1.45 1.45 0 0 1-.11-.856c.011-.04.006-.082-.014-.118s-.053-.063-.093-.074-.082-.006-.117.014-.062.053-.074.092l-.034-.051zm3.75-6.999c.322 1.565 1.697 2.756 2.91 3.7a19.33 19.33 0 0 0 2.197 1.513c.314.187.636.341.967.502.262.125.543.205.831.238.136 0 .263-.136.144-.246a3.98 3.98 0 0 0-.602-.536l-.848-.587-1.985-1.454a17.17 17.17 0 0 1-1.867-1.65c-.51-.436-.919-.979-1.196-1.59a.28.28 0 0 0-.534.145l-.017-.034zm9.274.774l1.875 5.281c.189.876.295 1.767.314 2.662.059.91.653 2.05 1.697 1.974.046-.003.09-.019.127-.046s.067-.063.084-.106.023-.089.016-.134-.027-.088-.058-.123a3.39 3.39 0 0 1-.848-1.012c-.143-.462-.206-.945-.187-1.429a12.13 12.13 0 0 0-.619-2.44 19.39 19.39 0 0 0-2.13-4.746c-.093-.136-.348-.051-.288.119h.017zm128.436 89.106a9.16 9.16 0 0 0-.305-3.648c-.163-.683-.364-1.356-.602-2.016-.118-.29-.251-.574-.399-.85-.119-.238-.238-.596-.509-.672a.27.27 0 0 0-.204.026c-.062.035-.107.093-.127.161-.085.23.11.536.187.757l.263.808.619 1.964.475 1.906c.141.495.215 1.007.221 1.522 0 .213.348.272.381.051v-.009zm3.878-2.942l-.297-1.378-.535-1.701-.644-1.633-.28-.655c-.094-.195-.162-.459-.391-.519-.051-.013-.105-.009-.154.011s-.09.055-.117.1c-.094.221 0 .4.11.604s.178.459.255.689l.585 1.658.645 1.701c.178.417.416.851.619 1.233.06.119.229 0 .204-.085v-.025zm-8.349-.077c-.237-.51-.407-1.063-.636-1.582l-.849-2.007-.772-1.905a9.43 9.43 0 0 0-.577-1.225c-.023-.044-.06-.079-.106-.099s-.097-.024-.145-.012a.22.22 0 0 0-.164.222c.049.465.154.922.314 1.361a11.54 11.54 0 0 0 .721 1.99l.908 2.058a6.64 6.64 0 0 0 .975 1.446c.162.178.399-.051.314-.247h.017zm-27.447-59.509a37.27 37.27 0 0 0 2.24 5.503l3.326 6.472c.255.459.543.91.848 1.361.211.406.499.767.849 1.063.28.187.56-.119.517-.4-.103-.375-.266-.732-.483-1.055l-.628-1.182-1.612-2.934-3.266-6.387c-.44-.846-.834-1.715-1.18-2.603-.01-.039-.029-.075-.053-.107s-.056-.059-.091-.08a.29.29 0 0 0-.114-.038c-.04-.005-.08-.002-.119.008s-.076.029-.108.054-.059.056-.079.091-.033.074-.038.114-.002.081.008.12h-.017z"/><path d="M119.876 124.93a5.24 5.24 0 0 0 1.086 2.347 6.38 6.38 0 0 0 1.901 1.565l.517.247c.12.069.253.109.391.119h.127.178c.062-.001.123-.018.177-.049a.36.36 0 0 0 .176-.309c0-.063-.016-.124-.048-.178-.05-.102-.169-.162-.254-.23.136.111-.043-.051-.076-.085-.062-.046-.127-.085-.196-.119a7.37 7.37 0 0 1-1.951-1.276c-.677-.63-1.225-1.387-1.612-2.228-.11-.255-.467-.068-.424.179l.008.017zm-36.288-7.059c-.506 1.353-.894 2.747-1.162 4.167l-1.112 6.43c-.687 4.686-1.298 9.355-1.697 14.118a34.89 34.89 0 0 0-.127 5.103.24.24 0 0 0 .082.139c.042.035.096.054.151.054s.109-.019.151-.054a.24.24 0 0 0 .082-.139c.059-.587.195-1.174.246-1.76a101.4 101.4 0 0 1 .238-2.509l.679-6.549a368.66 368.66 0 0 1 1.875-13.974c.19-1.668.525-3.315 1.001-4.924.085-.247-.288-.341-.39-.102h-.017zm8.298 83.621c1.756-3.402 3.046-7.094 4.505-10.657l4.294-10.206c.432-.978.848-1.948 1.349-2.917.246-.519.475-1.046.712-1.574s.433-1.105.679-1.65a.32.32 0 0 0 .008-.226c-.025-.074-.076-.137-.143-.176s-.147-.053-.223-.039a.33.33 0 0 0-.194.118c-.271.434-.576.851-.848 1.284a16.63 16.63 0 0 0-.738 1.302c-.467.85-.908 1.777-1.341 2.67-.82 1.701-1.604 3.402-2.35 5.103-1.493 3.402-2.842 6.906-4.157 10.41-.789 2.092-1.578 4.168-2.189 6.319a.34.34 0 0 0 .194.404c.076.033.161.036.239.01a.34.34 0 0 0 .186-.15l.017-.025z"/><path d="M96.536 175.517a8.87 8.87 0 0 0 2.673 1.183 9.4 9.4 0 0 0 1.468.289c.475.103.97.067 1.425-.102.263-.119.145-.468-.067-.553a5.62 5.62 0 0 0-1.316-.17 10.25 10.25 0 0 1-1.349-.221 10.86 10.86 0 0 1-2.545-.91.28.28 0 0 0-.213-.032c-.072.019-.135.065-.173.129s-.05.142-.031.214a.28.28 0 0 0 .129.173zm4.632 44.269a59.76 59.76 0 0 0 3.674-6.277c1.9-3.47 3.733-6.991 5.506-10.529l1.366-2.747c.386-.789.691-1.615.908-2.467.013-.06.005-.122-.023-.177s-.074-.098-.13-.122-.119-.028-.178-.011a.26.26 0 0 0-.144.106c-.462.613-.879 1.258-1.247 1.931-.408.765-.798 1.556-1.197 2.33l-2.74 5.256-5.091 9.619c-.458.936-.848 1.829-1.332 2.739a.35.35 0 0 0-.006.243c.027.079.081.146.153.188a.34.34 0 0 0 .239.042c.082-.015.156-.059.208-.124h.034zm-34.489 22.87c-.382-.264-.272-.919 0-1.225a1.77 1.77 0 0 1 .798-.451l.246-.076a1.32 1.32 0 0 0 .254-.111l.492-.187a.11.11 0 0 0 .049-.041c.012-.018.018-.039.018-.061s-.006-.043-.018-.061-.029-.033-.049-.041a2.9 2.9 0 0 0-.475 0h-.221a1.03 1.03 0 0 0-.28.051 2.38 2.38 0 0 0-.908.417 1.57 1.57 0 0 0-.512.663 1.58 1.58 0 0 0-.099.834 1.08 1.08 0 0 0 .158.424 1.09 1.09 0 0 0 .317.324c.255.162.484-.238.238-.408l-.008-.051zm51.399 7.195a1.9 1.9 0 0 0-.76.849 1.91 1.91 0 0 0-.14 1.133 1.78 1.78 0 0 0 .552.995 2.13 2.13 0 0 0 .568.331l.229.068a.49.49 0 0 0 .238-.001.5.5 0 0 0 .212-.109l-.229.093c.154-.011.306-.031.458-.059.045-.016.084-.045.111-.084s.043-.085.043-.133-.015-.094-.043-.133-.066-.068-.111-.084a.73.73 0 0 1-.297-.102l.144.187a.51.51 0 0 0-.212-.272l-.195-.102-.076-.06c-.06 0 .059.068 0 0l-.145-.136a1.53 1.53 0 0 1-.161-.161s0 .051 0 0l-.059-.102a1.6 1.6 0 0 1-.093-.179c0 .085 0 0 0-.042v-.094-.094c0-.085 0 0 0 0a1.5 1.5 0 0 1 0-.212.35.35 0 0 1 0-.102s0-.085 0 0c-.005-.071-.005-.142 0-.213a1.48 1.48 0 0 1 .144-.323 1.35 1.35 0 0 1 .263-.281c.271-.229-.077-.672-.382-.493l-.059-.085zM76.623 70.957a4.31 4.31 0 0 1 2.206 1.812c.254.414.443.864.56 1.335l.17.748c.076.247 0 .459.212.655a.23.23 0 0 0 .314 0c.229-.179.221-.519.288-.757a2.02 2.02 0 0 0-.076-.927 4.72 4.72 0 0 0-1.258-2.246c-.619-.617-1.397-1.05-2.246-1.25-.083-.023-.172-.011-.247.032s-.129.114-.152.198-.011.172.032.248a.32.32 0 0 0 .197.152z"/><path d="M78.498 71.646a2.44 2.44 0 0 0-1.137.119 1.99 1.99 0 0 0-.594.315 2.12 2.12 0 0 0-.204.187c-.105.084-.185.196-.229.323a.34.34 0 0 0 .408.408c.082-.02.156-.065.212-.128h.051l.204-.136.45-.272.102-.051h.059s-.051 0 0 0l.28-.136h.051.127l.263-.06a.22.22 0 0 0 .162-.246.24.24 0 0 0-.221-.204l.017-.119zm47.071-4.303a3.2 3.2 0 0 0-1.751.247 3.21 3.21 0 0 0-1.354 1.14 3.55 3.55 0 0 0-.585 1.922 3.31 3.31 0 0 0 .534 2.041.52.52 0 0 0 .628.204c.112-.044.201-.135.253-.244s.066-.233.035-.351c-.161-.499-.28-1.011-.356-1.531a3.17 3.17 0 0 1 .246-1.539c.191-.447.511-.828.92-1.091a2.43 2.43 0 0 1 1.371-.389c.229 0 .288-.366.059-.408z"/><path d="M122.871 68.754l.043.051c.048.064.105.122.169.17l.238.162.509.306c.329.242.685.445 1.061.604a.38.38 0 0 0 .39-.136c.041-.062.063-.134.063-.208s-.022-.147-.063-.208a2.96 2.96 0 0 0-1.052-.799l-.535-.255a2.46 2.46 0 0 0-.331-.102 1.27 1.27 0 0 0-.356 0c-.048.002-.095.018-.134.046s-.071.066-.089.11-.025.094-.017.141.03.092.062.128l.042-.008z"/></g><path d="M50.058 37.022c-2.433-3.975-6.251-6.903-10.716-8.216-7.678-2.671-13.957-3.538-21.873-1.701S1.697 34.658.331 42.687c-.848 4.882-.373 10.623 4.047 15.471 8.798 9.662 15.62 6.804 18.335 8.309 4.106 2.228 5.141 7.978 8.942 10.708.679-1.888.305-4.023.967-5.911 1.196-3.402 5.167-4.763 8.315-6.549 9.172-5.18 16.112-16.678 9.121-27.692z" fill="#4cd8ac"/><g fill="#fffaeb"><path d="M42.074 38.204a109.41 109.41 0 0 0-1.324 11.907c0 .338.134.663.373.902a1.27 1.27 0 0 0 .9.374c.335-.009.654-.146.89-.383a1.31 1.31 0 0 0 .382-.893 99.17 99.17 0 0 1 1.239-11.201 1.32 1.32 0 0 0-.137-.959c-.165-.291-.435-.507-.754-.606a1.29 1.29 0 0 0-1.569.85v.008zm-1.527 15.599l-.127.306-.051.34.051.34.127.306.195.255.255.204.153.06.153.068h.17.17.339l.305-.128.255-.204.195-.255a2.44 2.44 0 0 0 .127-.315l.051-.34-.051-.34c0-.051-.144-.332-.068-.153s0-.102-.059-.153a.85.85 0 0 0-.331-.357.86.86 0 0 0-.433-.23 1 1 0 0 0-.501 0c-.169.008-.333.06-.475.153l-.263.196a1.31 1.31 0 0 0-.322.57v.34a1.2 1.2 0 0 0 .17.638l-.127-.298-.042-.34.042-.34.127-.298.204-.255.255-.196.305-.128h.339.339l.297.128.255.196.204.264.127.306v.332.34l-.127.298a.93.93 0 0 0 .153-.468 1.04 1.04 0 0 0 0-.51.97.97 0 0 0-.229-.434.9.9 0 0 0-.356-.332l-.305-.128a1.31 1.31 0 0 0-.679 0l-.297.128a1.19 1.19 0 0 0-.458.459l-.059-.026zm-20.846-4.397c.127-.927.908-2.322 1.816-2.356s1.79-.187 2.257.672a8.42 8.42 0 0 1 .543 2.067c.39.068 1.502-.06 2.138 0 4.242.196 5.6-1.769 6.177-3.07 1.018-2.313-.467-4.848-1.875-8.428-.738-1.862-1.451-3.853-2.418-4.312s-4.726.128-10.054 1.446a1.46 1.46 0 0 0-.653.633c-.145.275-.199.59-.153.898.305 1.565.331 3.997-.509 5.443s-6.194 1.99-8.145 3.53c-1.493 1.199-2.231 4.831.127 6.991.622.35 1.323.538 2.036.544h7.636a5.27 5.27 0 0 0 1.451-.187 11.74 11.74 0 0 1-.373-3.87z"/><path d="M24.69 47.628a3.29 3.29 0 0 0-.835-1.278 3.28 3.28 0 0 0-1.32-.763c-.542-.127-1.106-.122-1.645.016a3.46 3.46 0 0 0-1.452.775c-1.612 1.565-1.12 4.695-.848 6.685.297 2.143 1.357 4.805 3.852 5.001 2.299.187 3.283-1.777 3.275-3.802l-.959.961 7.017-.349-.916-.697a12.71 12.71 0 0 0 .959 3.045 2.98 2.98 0 0 0 1.202 1.112 2.97 2.97 0 0 0 1.606.308c.559.013 1.111-.116 1.607-.374a3.31 3.31 0 0 0 1.227-1.106 7.62 7.62 0 0 0 .848-3.751 19.61 19.61 0 0 0-.246-3.734 6.66 6.66 0 0 0-1.383-3.547 3.46 3.46 0 0 0-1.549-.938c-.59-.169-1.215-.179-1.81-.026a3.46 3.46 0 0 0-1.576.893c-.437.433-.751.974-.911 1.568-.051.179-.348 1.08-.229 1.199-.17-.17.908-.085.339-.272-.264-.024-.529-.009-.789.042l-2.367.153-2.427.145a1.83 1.83 0 0 0-.484 0c-.314 0-.263.102.136.391v-.187a2.86 2.86 0 0 0-.221-1.25c-.382-1.165-2.231-.663-1.841.51.289.85.043 1.956 1.12 2.364a4.36 4.36 0 0 0 1.756 0l1.697-.102 3.572-.221c1.332-.119 1.239-1.165 1.527-2.194a1.55 1.55 0 0 1 .275-.657c.141-.195.326-.354.539-.465a1.54 1.54 0 0 1 1.384-.018c.916.468 1.128 1.752 1.307 2.671.192 1.075.274 2.166.246 3.257a6.43 6.43 0 0 1-.501 3.138c-.128.174-.289.321-.475.431a1.6 1.6 0 0 1-1.245.166 1.6 1.6 0 0 1-.571-.291c-.636-.714-.602-1.88-.848-2.747-.061-.2-.183-.376-.349-.503a.99.99 0 0 0-.576-.203l-7.017.349c-.251.004-.49.106-.667.284a.97.97 0 0 0-.283.669c0 .953-.204 2.194-1.459 1.871-1.4-.366-1.765-2.364-1.918-3.581s-.441-3.079 0-4.304c.106-.279.302-.515.558-.669a1.33 1.33 0 0 1 .851-.181c.662.059.933.629 1.162 1.182.484 1.097 2.13.128 1.654-.978z"/></g><g fill="#4cd8ae"><path d="M16.46 39.684l3.657-.272a.96.96 0 0 0 .869-.957.96.96 0 0 0-.869-.957l-3.657.272a.96.96 0 0 0-.967.568.96.96 0 0 0-.082.389c0 .134.028.266.082.389a.96.96 0 0 0 .967.568zm-2.342 3.853l5.396-.442a.98.98 0 0 0 .951-.961.96.96 0 0 0-.281-.671c-.178-.178-.418-.279-.669-.281l-5.421.442c-.252.007-.492.11-.671.289s-.281.419-.288.672a.97.97 0 0 0 .286.672c.179.178.421.279.673.281h.025z"/></g></g><defs><clipPath id="B"><path fill="#fff" d="M0 0h161v256H0z"/></clipPath></defs></svg>