<svg width="115" height="146" viewBox="0 0 115 146" fill="none" xmlns="http://www.w3.org/2000/svg">
<g clip-path="url(#clip0)">
<path d="M41.6722 106.402C41.7004 117.359 41.1039 128.308 39.8854 139.199C38.2704 153.899 25.2044 140.901 24.6374 135.888C24.0705 130.874 18.0829 130.338 16.1587 134.551C13.7276 139.871 -2.89487 151.439 0.438211 134.551C2.35203 125.03 3.56078 115.383 4.05478 105.687L41.6722 106.402Z" fill="#444E4A"/>
<path d="M84.3752 64.3091C85.6896 63.1941 93.8247 54.8947 95.6115 52.7922C96.7798 51.3962 100.766 46.6039 101.925 47.7445C103.085 48.8852 101.925 51.1494 100.843 52.6816C103.42 51.1068 109.322 46.9955 110.911 48.4255C112.5 49.8556 107.836 53.0135 106.685 53.9584C108.523 52.9369 113.385 49.7704 114.339 51.0643C115.507 52.639 110.834 55.9758 108.669 57.1079C110.774 56.0268 114.115 54.418 114.906 55.9332C115.447 56.9802 113.54 58.1804 112.251 59.0061C110.602 60.0616 94.9758 71.7743 90.3885 73.8512L84.3752 64.3091Z" fill="#FFE87B"/>
<path d="M41.234 59.7126C49.687 63.0068 56.4648 70.0123 66.7304 67.1011C69.8917 66.2499 68.354 64.3091 72.254 63.4239C73.869 63.0493 76.051 64.0793 77.4942 63.2877C78.7312 62.6067 79.8823 59.9339 81.3427 59.8828C83.1553 59.7892 84.7789 60.9554 86.1362 62.13C90.0968 65.5101 93.5659 69.4174 96.4447 73.7406C97.6559 75.5622 98.7984 77.7328 98.1628 79.8267C97.424 82.3293 92.7937 81.061 90.6633 82.2272C88.0862 83.6487 87.8371 86.6535 85.2771 88.1857C80.9819 90.7393 76.2572 87.4621 72.7093 90.2796C69.8831 92.5183 60.4336 91.4884 57.0662 90.6371C52.0665 89.3774 43.9572 84.9 43.9228 84.6106C45.7784 98.5534 46.1306 114.803 44.1977 116.463C42.4195 117.995 39.9025 118.165 37.4972 118.233C29.0013 118.54 20.4967 119.417 12.0008 119.136C5.88442 118.94 4.04607 117.646 3.32447 114.607C0.859022 104.231 1.27136 88.5261 4.29519 74.711L8.91684 54.8096C19.922 54.0696 30.9565 55.7437 41.234 59.7126Z" fill="#7393ED"/>
<path d="M21.562 11.219C26.4757 7.59283 35.2207 6.5203 41.1481 9.91664C47.0755 13.313 50.0478 20.3355 49.9963 32.661C49.9533 41.7265 44.7217 50.9451 36.2516 54.3244C27.7814 57.7037 16.7084 54.1286 12.7997 45.9655C11.6376 43.3686 10.993 40.5736 10.9012 37.7343C10.3085 26.8558 16.6482 14.8452 21.562 11.219Z" fill="#FFE87B"/>
<path d="M32.7897 29.2987C32.8908 29.1911 33.0167 29.1093 33.1567 29.0604C33.2966 29.0115 33.4464 28.9968 33.5933 29.0177C33.7401 29.0387 33.8797 29.0945 34.0001 29.1805C34.1205 29.2665 34.218 29.3801 34.2845 29.5115C34.6882 30.1414 34.7827 31.214 34.5679 33.01C34.4133 34.3294 33.8635 35.5637 33.1591 35.8786C32.4547 36.1936 31.6987 35.4445 31.5441 34.1762C31.5011 33.763 31.5011 33.3466 31.5441 32.9334C31.6333 31.6351 32.0626 30.3823 32.7897 29.2987Z" fill="#FF886D"/>
<path d="M49.3434 28.0389C51.0615 28.0389 56.8085 27.7495 57.7019 33.0441C58.7413 39.1558 52.0494 41.752 47.7026 40.8582C48.4559 38.7869 49.0082 36.6492 49.352 34.4741C49.6183 32.337 49.6154 30.1754 49.3434 28.0389Z" fill="#FFE87B"/>
<path d="M14.8787 21.2803C9.93057 18.1904 4.99967 21.7995 4.62169 25.4257C4.0719 30.6777 8.9169 33.6654 11.6057 33.359C11.8252 31.0601 12.2332 28.7826 12.8255 26.5493C13.3693 24.7423 14.0558 22.9805 14.8787 21.2803Z" fill="#FFE87B"/>
<path d="M37.6948 32.1163C37.6003 32.9675 38.0298 33.8783 38.4765 33.9293C38.9232 33.9804 39.4988 33.5122 39.5933 32.661C39.6878 31.8098 39.3356 30.9075 38.8459 30.848C38.3563 30.7884 37.7979 31.265 37.6948 32.1163Z" fill="#343B38"/>
<path d="M28.5117 30.2351C28.4172 31.0863 27.7815 31.8779 27.3348 31.8268C26.8881 31.7758 26.4758 31.1884 26.5359 30.3372C26.596 29.486 27.2059 28.6859 27.6956 28.7454C28.1852 28.805 28.6148 29.3839 28.5117 30.2351Z" fill="#343B38"/>
<path d="M26.7764 4.95405C27.0771 2.99626 28.8982 1.68539 30.6936 0.936326C36.1399 -1.3279 45.1084 0.757571 49.7042 4.571C51.2843 5.80226 52.4936 7.43915 53.2005 9.30375C53.5479 10.2414 53.6706 11.2463 53.5588 12.2391C53.4469 13.2318 53.1037 14.1852 52.5563 15.0239C53.2413 14.8234 53.9783 14.8967 54.6094 15.2282C55.6705 15.776 56.5604 16.6009 57.1827 17.6135C57.805 18.6262 58.136 19.7882 58.14 20.9739C58.1151 23.3599 57.1718 25.6464 55.5028 27.3665C53.8583 29.0329 51.8681 30.3253 49.6699 31.1544C50.2282 28.6007 49.6699 25.0682 47.591 23.3062C47.2903 24.932 44.1548 27.4516 39.6105 26.1918C37.2825 25.5534 36.4234 21.5442 37.0334 20.1567C36.2602 21.8081 32.4203 24.3106 29.0443 24.6937C23.4777 25.3151 21.0294 22.7784 20.1446 19.9694C17.3818 21.6137 15.2026 24.0675 13.9079 26.9919C11.8205 21.3995 8.16094 11.27 15.3597 6.02658C18.6928 3.60913 22.9021 3.54955 26.7764 4.95405Z" fill="#212121"/>
<path d="M26.3211 37.1724C27.7299 36.4489 29.3707 37.4023 30.1954 38.228C31.02 39.0536 32.4117 39.9304 35.7276 39.2239C35.9137 39.1724 36.1084 39.158 36.3002 39.1816C36.4919 39.2051 36.6771 39.2662 36.8449 39.3612C37.0127 39.4562 37.1598 39.5833 37.2777 39.7351C37.3956 39.8868 37.4819 40.0603 37.5316 40.2453C37.5946 40.678 37.5492 41.1194 37.3994 41.5306C37.2496 41.9418 37 42.3102 36.6725 42.6032C35.3192 43.7234 33.5988 44.3139 31.8361 44.263C27.1715 44.1524 25.5308 42.2457 24.9638 40.5518C24.732 39.9216 24.7423 39.229 24.9926 38.6058C25.2429 37.9827 25.7157 37.4725 26.3211 37.1724Z" fill="#FF886D"/>
<path d="M39.8424 28.4816C42.4797 27.5878 46.0533 27.7495 47.9002 30.0563C49.1974 31.6651 50.0221 34.3124 49.2919 36.3383C48.1408 39.4878 44.5929 41.037 41.3973 40.7646C39.9395 40.7091 38.55 40.1384 37.48 39.1558C36.5019 38.0714 35.8998 36.7052 35.762 35.2572C35.5542 34.0306 35.7531 32.7703 36.3289 31.6651C37.0887 30.2514 38.2959 29.1239 39.7651 28.456C40.229 28.2773 40.0314 27.5367 39.5589 27.7155C38.2519 28.2303 37.1199 29.1034 36.2953 30.2324C35.4708 31.3615 34.9878 32.6999 34.9029 34.0911C34.8433 35.6892 35.2425 37.2713 36.054 38.6536C36.8678 39.9448 38.1654 40.8632 39.662 41.2072C41.3871 41.6966 43.2217 41.6541 44.9219 41.0854C46.622 40.5168 48.1073 39.4489 49.1802 38.0237C50.7523 35.7509 50.3915 32.7887 49.0685 30.4734C48.321 29.0914 47.0614 28.0508 45.555 27.5708C43.5824 27.0201 41.4888 27.0645 39.5417 27.6985C39.1724 27.8942 39.3699 28.6348 39.8424 28.4816Z" fill="#343B38"/>
<path d="M22.945 25.8088C24.2271 25.5541 25.5531 25.6214 26.8021 26.0045C27.493 26.1652 28.1384 26.4782 28.6902 26.9204C29.2421 27.3625 29.6861 27.9224 29.9892 28.5582C31.2434 31.1118 29.9119 34.5167 27.7814 36.2191C26.5909 37.064 25.2114 37.6102 23.7611 37.8109C22.7761 37.994 21.7653 37.994 20.7802 37.8109C19.4722 37.5262 18.3184 36.7681 17.5447 35.685C16.7709 34.6018 16.4329 33.2716 16.5967 31.9545C16.6929 30.5755 17.2594 29.2698 18.2031 28.2517C19.5734 27.0964 21.1972 26.2744 22.945 25.8513C23.0441 25.8242 23.1283 25.7592 23.1791 25.6706C23.2298 25.582 23.243 25.4771 23.2156 25.3789C23.1883 25.2807 23.1227 25.1973 23.0333 25.147C22.9439 25.0967 22.838 25.0837 22.7389 25.1108C20.9934 25.5615 19.3592 26.361 17.9368 27.4601C16.9247 28.3887 16.241 29.6153 15.9868 30.9586C15.2824 33.9208 16.7256 37.2661 19.6978 38.3046C21.0241 38.6883 22.4171 38.7912 23.7861 38.6064C25.1552 38.4216 26.4696 37.9533 27.644 37.232C30.2211 35.6913 31.9392 31.9375 31.0114 29.0689C30.7696 28.2518 30.3373 27.5025 29.7494 26.8814C29.1614 26.2604 28.4343 25.7851 27.6268 25.4938C26.0672 24.9092 24.3719 24.7763 22.7389 25.1108C22.672 25.1565 22.6214 25.222 22.5942 25.2979C22.567 25.3738 22.5647 25.4563 22.5875 25.5335C22.6104 25.6108 22.6572 25.679 22.7214 25.7284C22.7855 25.7778 22.8638 25.8059 22.945 25.8088Z" fill="#343B38"/>
<path d="M30.9771 29.7925C31.3044 29.6224 31.659 29.5101 32.0251 29.4605C32.4147 29.3779 32.8122 29.338 33.2106 29.3413C34.293 29.3413 35.5815 29.5371 36.243 30.499C36.5265 30.9076 37.1965 30.499 36.9131 30.1159C36.4937 29.6075 35.9595 29.2039 35.3536 28.9377C34.7477 28.6716 34.0872 28.5503 33.4254 28.5837C32.9241 28.5638 32.4222 28.6038 31.9306 28.7029C31.461 28.7657 31.0069 28.9129 30.5905 29.137C30.1696 29.3924 30.5905 30.0563 30.9771 29.7925Z" fill="#343B38"/>
<path d="M32.3601 51.0728C32.9958 52.5879 32.3601 56.7589 32.1196 59.1933C31.7845 62.9897 28.5631 65.5434 26.4671 65.62C23.2886 65.8072 19.3198 64.0452 18.9848 59.0486C18.77 55.7629 19.5518 50.4173 20.9348 48.5872C22.043 47.1146 25.0239 47.387 27.3777 47.9743C29.1473 48.4085 31.7244 49.5576 32.3601 51.0728Z" fill="#FFE87B"/>
<path d="M25.7713 55.4735C28.3467 56.1201 31.0398 56.1551 33.6315 55.5757C37.7443 54.6982 41.4654 52.5384 44.2493 49.4129C45.2516 48.3114 46.1489 47.1203 46.9295 45.8549C47.3616 45.1386 47.7544 44.3998 48.1064 43.6417C48.304 43.2416 48.4844 42.7905 48.6562 42.4245C48.828 42.0584 48.9311 41.5733 49.0771 41.1051C49.2231 40.6369 48.596 40.4667 48.4156 40.8327C48.2352 41.1987 48.0033 41.5052 47.8315 41.8542L47.3161 42.8841C46.981 43.531 46.6374 44.1695 46.268 44.7993C45.6083 45.9347 44.8586 47.0163 44.0259 48.034C42.6145 49.7534 40.925 51.229 39.0263 52.4007C36.1374 54.1436 32.8452 55.1226 29.4652 55.2437C28.2586 55.3082 27.0485 55.2397 25.8572 55.0394C25.5651 54.9884 25.4362 55.3969 25.7283 55.4735H25.7713Z" fill="#343B38"/>
<path d="M42.2735 74.9067C42.5312 76.9071 42.9178 78.8904 43.2271 80.8652C43.3817 81.8696 43.5535 82.8656 43.7081 83.8615C43.7854 84.3467 43.8542 84.8319 43.9315 85.3171C43.951 85.8303 44.0465 86.3379 44.215 86.8237C44.243 86.8686 44.2835 86.9045 44.3317 86.9271C44.3799 86.9496 44.4337 86.9577 44.4865 86.9505C44.5393 86.9433 44.5888 86.921 44.6291 86.8864C44.6693 86.8518 44.6986 86.8064 44.7132 86.7556C44.7949 86.2738 44.7949 85.7818 44.7132 85.3C44.7132 84.7808 44.6445 84.2615 44.593 83.7423C44.4985 82.7209 44.361 81.6994 44.172 80.695C43.8124 78.6876 43.2364 76.7242 42.4539 74.8386C42.4539 74.745 42.2392 74.7876 42.2563 74.8897L42.2735 74.9067Z" fill="#343B38"/>
<path d="M45.074 77.8604C45.2246 79.0873 45.1899 80.3295 44.9709 81.5462C44.7303 82.7634 44.1118 83.8785 44.0002 85.1127C43.9993 85.1723 44.0164 85.2307 44.0494 85.2805C44.0824 85.3303 44.1297 85.3692 44.1851 85.3921C44.2406 85.415 44.3018 85.4209 44.3607 85.409C44.4196 85.3972 44.4735 85.3681 44.5156 85.3256C45.5293 84.4743 45.8299 82.9677 46.0017 81.6909C46.1872 80.3755 46.0244 79.035 45.5293 77.8008C45.4348 77.5625 45.0138 77.5625 45.0396 77.8604H45.074Z" fill="#343B38"/>
<path d="M102.089 49.9491C101.348 50.9549 100.674 52.0069 100.07 53.0986C99.6815 53.9848 99.5306 54.9553 99.6318 55.9162C99.8069 56.8159 99.7174 57.7466 99.3741 58.5975C98.8506 59.3572 98.1567 59.9865 97.3468 60.4361C97.1922 60.5553 97.1492 60.8957 97.4155 60.9383C98.3862 61.066 99.3483 60.2573 99.8981 59.5593C100.207 59.1505 100.431 58.6847 100.556 58.1893C100.681 57.6939 100.706 57.1787 100.628 56.6737C100.444 55.6657 100.494 54.6294 100.774 53.6434C101.021 53.0706 101.308 52.5159 101.633 51.9835C101.967 51.372 102.227 50.7234 102.407 50.0513C102.414 50.015 102.409 49.9773 102.392 49.9444C102.375 49.9115 102.347 49.8853 102.313 49.8704C102.278 49.8554 102.24 49.8526 102.204 49.8623C102.168 49.8719 102.136 49.8936 102.114 49.9236L102.089 49.9491Z" fill="#343B38"/>
<path d="M105.052 55.1926C105.805 54.7637 106.513 54.2618 107.166 53.6945C108.025 52.9965 108.884 52.2815 109.743 51.5494C110.052 51.2888 110.339 51.0042 110.602 50.6982C110.618 50.6675 110.625 50.6328 110.621 50.5983C110.618 50.5638 110.605 50.531 110.583 50.504C110.561 50.4769 110.532 50.4567 110.498 50.4459C110.465 50.435 110.429 50.434 110.396 50.4428C110.088 50.592 109.799 50.7778 109.537 50.9961C109.124 51.2941 108.729 51.6345 108.334 51.9495C107.475 52.656 106.616 53.371 105.757 54.1116C105.462 54.3849 105.15 54.638 104.82 54.8691C104.785 54.8991 104.762 54.9403 104.754 54.9856C104.747 55.031 104.756 55.0775 104.779 55.117C104.803 55.1566 104.839 55.1867 104.883 55.2021C104.927 55.2174 104.975 55.2171 105.018 55.2011L105.052 55.1926Z" fill="#343B38"/>
<path d="M107.552 58.0612C108.351 57.6952 109.116 57.2866 109.897 56.8951C110.68 56.5723 111.423 56.1641 112.114 55.6778C112.2 55.6097 112.114 55.4821 112.028 55.4821C111.156 55.5297 110.313 55.809 109.588 56.2907C108.806 56.7163 108.059 57.1419 107.303 57.6356C107.252 57.671 107.216 57.7242 107.202 57.7847C107.189 57.8452 107.199 57.9085 107.23 57.962C107.261 58.0156 107.312 58.0556 107.372 58.0739C107.431 58.0923 107.496 58.0878 107.552 58.0612Z" fill="#343B38"/>
<path d="M8.16096 24.6086C8.64334 24.6847 9.0917 24.9021 9.44839 25.2328C9.80508 25.5635 10.0538 25.9923 10.1625 26.4642C10.2829 26.9421 10.2829 27.4419 10.1625 27.9198C9.99662 28.4386 9.78684 28.9426 9.53543 29.4264C9.47722 29.5329 9.45909 29.6564 9.48427 29.7749C9.50944 29.8934 9.57629 29.9992 9.67288 30.0734C9.76486 30.1518 9.88222 30.195 10.0036 30.195C10.125 30.195 10.2424 30.1518 10.3343 30.0734C10.8302 29.5614 11.1465 28.9047 11.2363 28.2007C11.3569 27.4934 11.2704 26.7668 10.9872 26.1067C10.7382 25.5628 10.3409 25.0986 9.84006 24.7662C9.33924 24.4339 8.75475 24.2466 8.15237 24.2255C8.10382 24.2353 8.06017 24.2614 8.02882 24.2994C7.99747 24.3374 7.98035 24.385 7.98035 24.4341C7.98035 24.4832 7.99747 24.5307 8.02882 24.5687C8.06017 24.6068 8.10382 24.6329 8.15237 24.6426L8.16096 24.6086Z" fill="#343B38"/>
<path d="M10.5061 25.6045C10.3976 25.5709 10.2847 25.5537 10.1711 25.5534H9.82745C9.62631 25.5972 9.4283 25.654 9.23471 25.7236C9.01882 25.7889 8.80662 25.8656 8.59902 25.9535C8.3926 26.043 8.20136 26.1636 8.03205 26.311C7.97272 26.3706 7.93472 26.4478 7.92386 26.5308C7.913 26.6138 7.92988 26.698 7.97192 26.7706C8.01728 26.8392 8.08281 26.8923 8.15964 26.9228C8.23646 26.9532 8.32087 26.9595 8.40144 26.9409C8.62125 26.8957 8.8347 26.8242 9.03713 26.7281H9.11445H9.22612L9.44088 26.6344C9.44088 26.6344 9.49243 26.6344 9.44088 26.6344H9.49243L10.0336 26.4302C10.1398 26.3919 10.2431 26.3464 10.3429 26.294C10.4388 26.2355 10.5281 26.167 10.6092 26.0897C10.6387 26.0581 10.6597 26.0196 10.6702 25.9778C10.6807 25.936 10.6803 25.8923 10.6692 25.8507C10.6581 25.809 10.6365 25.7709 10.6065 25.7398C10.5764 25.7086 10.539 25.6855 10.4975 25.6726L10.5061 25.6045Z" fill="#343B38"/>
<path d="M55.099 32.9079C53.9084 32.943 52.7806 33.4451 51.9635 34.3039C51.5452 34.7203 51.21 35.2112 50.9756 35.7509C50.822 36.0452 50.7452 36.373 50.7523 36.7043C50.7523 36.9341 50.7523 37.2831 50.9241 37.4789C50.9626 37.5072 51.0093 37.5225 51.0572 37.5225C51.1052 37.5225 51.1519 37.5072 51.1904 37.4789C51.3034 37.3956 51.3874 37.2796 51.4309 37.1469L51.4825 36.9852C51.4825 36.9852 51.6027 36.7639 51.4825 36.8745C51.6135 36.642 51.72 36.3967 51.8003 36.1425C51.9981 35.6958 52.2647 35.2823 52.5906 34.9167C53.262 34.1684 54.1713 33.6699 55.1678 33.5037C55.5371 33.4442 55.4512 32.8568 55.0819 32.8653L55.099 32.9079Z" fill="#343B38"/>
<path d="M53.0459 34.372H53.1662H53.2263C53.3053 34.4062 53.3802 34.449 53.4497 34.4996L53.5613 34.5763L53.6387 34.6358C53.716 34.6784 53.7847 34.7465 53.8534 34.7805C53.9221 34.8146 53.8534 34.7805 53.8534 34.7805L53.9136 34.8316L54.008 34.9167C54.0669 34.9779 54.13 35.0347 54.197 35.087L54.386 35.2657C54.4282 35.3291 54.484 35.3825 54.5493 35.4222C54.6146 35.4619 54.6879 35.487 54.764 35.4956C54.8351 35.4923 54.9035 35.4678 54.9602 35.4252C55.017 35.3827 55.0594 35.3241 55.0819 35.2572C55.1592 35.0104 54.8929 34.721 54.7468 34.5422C54.6016 34.3864 54.4301 34.2568 54.24 34.1592C54.0664 34.0495 53.8744 33.9717 53.673 33.9293C53.4736 33.8768 53.2692 33.8454 53.0631 33.8357C53.0081 33.8353 52.9548 33.8551 52.9136 33.8912C52.8724 33.9274 52.8461 33.9773 52.8397 34.0315C52.8312 34.0864 52.843 34.1425 52.873 34.1895C52.903 34.2364 52.9492 34.271 53.003 34.2868L53.0459 34.372Z" fill="#343B38"/>
</g>
<defs>
<clipPath id="clip0">
<rect width="115" height="146" fill="white"/>
</clipPath>
</defs>
</svg>
