<svg width="161" height="256" viewBox="0 0 161 256" fill="none" xmlns="http://www.w3.org/2000/svg">
<g clip-path="url(#clip0)">
<path d="M103.773 0.501814C99.9294 -0.697389 93.1589 -0.11905 90.13 6.4553C88.2888 10.4271 89.8584 15.2495 90.9275 17.1971C92.302 19.7486 96.7138 23.9501 100.523 26.4335C100.669 26.5243 100.838 26.5688 101.009 26.5612C101.18 26.5536 101.345 26.4943 101.482 26.391C104.827 23.6446 107.709 20.3766 110.017 16.7123C113.021 11.1415 111.858 3.0448 103.773 0.501814Z" fill="#00B28C"/>
<path d="M101.329 6.60836C100.226 6.36556 99.0744 6.4972 98.0544 6.98258C97.5505 7.26414 97.1289 7.67283 96.8312 8.16814C96.5336 8.66344 96.3703 9.22814 96.3575 9.80623C96.3249 10.4282 96.4559 11.0478 96.7373 11.6031C97.0187 12.1583 97.4407 12.6297 97.961 12.9701C98.7819 13.6843 99.8504 14.0455 100.935 13.9754C102.02 13.9054 103.033 13.4097 103.756 12.5959C104.166 12.0572 104.426 11.4196 104.511 10.7475C104.596 10.0754 104.502 9.3927 104.24 8.76862C103.941 8.21776 103.525 7.73901 103.023 7.36586C102.52 6.99271 101.942 6.73418 101.329 6.60836Z" fill="white"/>
<path d="M152.303 167.455L159.939 178.511C160.067 178.697 160.115 178.926 160.073 179.148C160.032 179.37 159.904 179.566 159.719 179.693L140.731 192.731C140.551 192.854 140.331 192.904 140.117 192.869C139.902 192.834 139.709 192.718 139.577 192.544L130.88 181.199C130.809 181.105 130.758 180.997 130.731 180.883C130.703 180.768 130.7 180.649 130.72 180.533C130.741 180.418 130.786 180.307 130.851 180.209C130.917 180.112 131.002 180.029 131.101 179.965L151.167 167.208C151.352 167.096 151.573 167.059 151.784 167.105C151.995 167.151 152.181 167.276 152.303 167.455Z" fill="#667770"/>
<path d="M151.285 169.632L157.513 178.698C157.577 178.791 157.623 178.895 157.646 179.005C157.67 179.115 157.672 179.229 157.651 179.34C157.631 179.451 157.588 179.556 157.527 179.65C157.465 179.745 157.385 179.826 157.292 179.889L141.605 190.665C141.425 190.788 141.205 190.837 140.99 190.802C140.776 190.767 140.583 190.651 140.451 190.478L133.332 181.156C133.261 181.062 133.21 180.955 133.183 180.84C133.155 180.726 133.152 180.607 133.172 180.491C133.193 180.375 133.238 180.265 133.303 180.167C133.369 180.069 133.454 179.986 133.553 179.923L150.174 169.394C150.356 169.289 150.57 169.255 150.775 169.299C150.981 169.343 151.162 169.461 151.285 169.632Z" fill="#00B28C"/>
<path d="M88.3312 235.996C86.5993 234.837 84.7612 233.846 82.8418 233.037C82.6277 232.925 82.3806 232.895 82.1461 232.952C81.9443 233.07 81.7956 233.262 81.7304 233.487C81.3356 234.825 81.0518 236.193 80.8819 237.578C80.5765 238.948 79.8383 240.368 78.5233 240.827C77.6011 241.059 76.6333 241.036 75.7234 240.759L69.7164 239.517C68.5456 239.271 67.1711 239.067 66.2633 239.815C65.8964 240.149 65.6321 240.581 65.5013 241.06C65.3706 241.539 65.3788 242.045 65.5252 242.52C65.8378 243.472 66.429 244.307 67.222 244.918C68.3755 245.86 69.6373 246.659 70.9806 247.299C74.8071 249.298 78.2008 250.599 82.0103 252.641C82.3379 252.786 82.6938 252.857 83.0521 252.848C83.4104 252.838 83.7621 252.749 84.0816 252.586C84.401 252.423 84.6801 252.191 84.8987 251.906C85.1172 251.621 85.2696 251.291 85.3447 250.94C86.2525 247.189 88.1191 239.781 88.3312 235.996Z" fill="#FFE87B"/>
<path d="M71.1163 239.356C70.2678 239.568 71.006 240.895 70.9041 245.598C70.9041 245.794 70.8532 246.032 70.6666 246.083C70.6103 246.096 70.5519 246.098 70.495 246.088C70.4381 246.077 70.3839 246.056 70.3357 246.024C68.3743 244.927 66.507 243.67 64.753 242.264C64.6476 242.172 64.5177 242.112 64.3791 242.093C64.2405 242.073 64.0992 242.094 63.9724 242.154C63.8771 242.236 63.801 242.337 63.7496 242.452C63.6983 242.567 63.6729 242.692 63.6754 242.817C63.4769 243.596 63.5768 244.422 63.9554 245.131C64.2329 245.455 64.5699 245.724 64.9481 245.922C70.8453 249.491 76.9195 252.758 83.1471 255.711C83.3622 255.846 83.6035 255.934 83.855 255.97C84.1065 256.005 84.3626 255.986 84.6065 255.915C84.8993 255.732 85.1346 255.469 85.2852 255.158C85.5444 254.812 85.687 254.392 85.6925 253.959C85.5991 253.168 84.6913 252.811 83.9362 252.589C81.0824 251.747 78.3351 250.577 75.7487 249.102C75.6379 249.05 75.5416 248.971 75.4688 248.873C75.3981 248.765 75.368 248.635 75.3839 248.507C75.5621 246.296 75.6384 241.703 75.0276 240.436C74.6882 239.73 73.9161 239.585 73.0083 239.415C72.3855 239.289 71.7458 239.268 71.1163 239.356Z" fill="#00B28C"/>
<path d="M123.338 230.213C121.47 231.151 119.697 232.267 118.044 233.547C117.84 233.679 117.692 233.882 117.628 234.117C117.627 234.233 117.65 234.348 117.695 234.454C117.741 234.561 117.807 234.658 117.891 234.738C118.864 235.74 119.916 236.662 121.039 237.493C122.074 238.429 122.956 239.755 122.735 241.133C122.484 242.051 121.992 242.885 121.31 243.549L117.289 248.201C116.508 249.111 115.668 250.191 115.863 251.373C115.975 251.857 116.222 252.299 116.575 252.646C116.928 252.994 117.373 253.234 117.857 253.338C118.831 253.53 119.839 253.432 120.759 253.057C122.143 252.508 123.456 251.794 124.67 250.931C128.267 248.558 131.059 246.228 134.69 243.897C136.022 243.047 135.869 241.159 134.817 240.138C132.068 237.493 126.528 232.246 123.338 230.213Z" fill="#FFE87B"/>
<path d="M117.865 246.908C117.628 247.759 119.147 247.759 123.185 250.149C123.355 250.242 123.541 250.395 123.499 250.591C123.463 250.7 123.387 250.791 123.287 250.846C121.376 252.03 119.369 253.051 117.288 253.899C117.158 253.949 117.043 254.034 116.958 254.145C116.872 254.256 116.819 254.389 116.805 254.529C116.805 254.784 117.034 254.962 117.238 255.115C117.824 255.66 118.593 255.963 119.393 255.966C119.813 255.889 120.212 255.724 120.563 255.481C126.548 252.068 132.356 248.352 137.965 244.348C138.18 244.222 138.366 244.053 138.512 243.851C138.658 243.649 138.761 243.418 138.813 243.175C138.798 242.83 138.687 242.497 138.491 242.213C138.314 241.817 138.017 241.487 137.643 241.269C136.921 240.963 136.158 241.584 135.598 242.12C133.472 244.207 131.112 246.039 128.564 247.58C128.467 247.653 128.353 247.7 128.233 247.716C128.104 247.721 127.977 247.685 127.869 247.614C126.036 246.372 122.082 244.068 120.674 243.982C119.893 243.931 119.393 244.544 118.799 245.25C118.396 245.746 118.08 246.306 117.865 246.908Z" fill="#00B28C"/>
<path d="M117.339 88.4519C119.613 88.4519 130.914 85.7558 133.977 74.1975C134.732 71.3739 135.106 53.0286 121.251 44.328C122.014 48.2063 119.868 56.3881 118.943 60.2238C118.12 64.1433 117.64 68.1275 117.509 72.1308C117.221 76.9106 116.593 87.8225 117.339 88.4519Z" fill="#212121"/>
<path d="M80.7886 155.207C82.3158 182.474 90.2148 207.088 110.942 232.161C112.563 234.108 116.321 239.364 119.681 238.633C123.202 237.867 130.923 231.684 128.853 229.379C113.174 211.91 101.041 187.008 101.312 181.828C101.312 181.828 90.8511 200.08 79.7281 230.017C77.2591 236.66 78.8033 238.344 83.4782 239.687C88.1531 241.031 91.5468 240.3 92.6074 237.621C107.167 200.769 129.795 180.408 120.419 149.501L80.7886 155.207Z" fill="#FF886D"/>
<path d="M42.7699 110.922C41.4378 109.774 33.1231 101.201 31.3159 99.0151C30.1196 97.5777 26.098 92.6278 24.8763 93.81C23.6545 94.9922 24.8763 97.2971 25.9792 98.913C23.3066 97.2885 17.3251 93.0446 15.7046 94.4904C14.0841 95.9363 18.8354 99.2277 20.0147 100.206C18.1396 99.1511 13.1763 95.8852 12.2006 97.2205C11.0127 98.845 15.781 102.323 17.9869 103.455C15.8404 102.332 12.4296 100.674 11.6321 102.247C11.0721 103.327 13.0235 104.56 14.3386 105.411C16.0355 106.508 31.9607 118.602 36.6441 120.72L42.7699 110.922Z" fill="#FFE87B"/>
<path d="M135.589 145.563C135.988 147.264 141.596 170.729 141.766 173.553C141.885 175.424 142.216 181.794 143.895 181.573C145.575 181.352 145.966 178.766 146.008 176.802C147.204 179.702 149.529 186.667 151.693 186.463C153.856 186.259 151.956 180.782 151.582 179.302C152.473 181.258 154.543 186.838 156.121 186.336C158.039 185.732 156.223 180.127 155.129 177.882C156.206 180.051 157.971 183.41 159.549 182.619C160.627 182.083 159.787 179.923 159.235 178.469C158.514 176.581 148.842 145.767 146.322 141.268L135.589 145.563Z" fill="#FFE87B"/>
<path d="M81.2381 128.136C79.3461 142.527 78.9813 159.298 80.9497 161.008C82.7738 162.59 85.387 162.76 87.7881 162.845C96.4592 163.151 105.13 164.061 113.81 163.772C120.046 163.568 122.727 161.892 123.015 158.669C123.957 147.961 123.957 141.914 123.957 128.68C127.003 132.167 130.592 143.462 131.746 146.158C136.302 156.84 138.279 166.026 140.23 168.271C143.556 172.013 154.416 166.017 154.433 161.782C154.433 156.866 144.116 122.54 132.051 109.306C119.045 95.0432 101.304 94.1246 83.9277 102.502C71.2011 108.617 64.0996 110.854 41.8111 102.723C38.9095 101.669 36.415 102.306 35.0236 103.523C32.2831 105.896 27.7694 110.327 26.3441 112.453C23.9939 115.94 25.6314 118.959 26.9719 120.754C28.8894 123.305 43.9407 132.159 61.164 131.81C72.5162 131.521 81.1957 128.425 81.2381 128.136Z" fill="#4CD8AC"/>
<mask id="mask0" style="mask-type:alpha" maskUnits="userSpaceOnUse" x="25" y="97" width="130" height="73">
<path d="M81.2383 128.136C79.3463 142.527 78.9815 159.298 80.9499 161.008C82.774 162.59 85.3872 162.76 87.7883 162.845C96.4593 163.151 105.13 164.061 113.81 163.772C120.046 163.568 122.727 161.892 123.016 158.669C123.957 147.961 123.957 141.914 123.957 128.68C127.003 132.167 130.592 143.462 131.746 146.158C136.302 156.84 138.279 166.026 140.23 168.271C143.556 172.013 154.416 166.017 154.433 161.782C154.433 156.866 144.116 122.54 132.051 109.306C119.045 95.0432 101.304 94.1247 83.9279 102.502C71.2013 108.617 64.0998 110.854 41.8113 102.723C38.9096 101.669 36.4152 102.307 35.0238 103.523C32.2833 105.896 27.7696 110.327 26.3442 112.453C23.9941 115.94 25.6316 118.959 26.9721 120.754C28.8896 123.305 43.9409 132.159 61.1642 131.81C72.5164 131.521 81.1959 128.425 81.2383 128.136Z" fill="#4CD8AC"/>
</mask>
<g mask="url(#mask0)">
<path d="M20.5746 154.391L159.303 157.699L159.201 164.674L20.8801 162.394L20.5746 154.391Z" fill="#9AE2C6"/>
<path d="M21.9661 128.638H158.183L158.09 137.925L22.2376 135.561L21.9661 128.638Z" fill="#9AE2C6"/>
<path d="M22.017 117.547L158.803 117.675V124.096L22.28 124.487L22.017 117.547Z" fill="#9AE2C6"/>
<path d="M21.5928 106.55L158.989 105.037L158.87 113.388H21.8558L21.5928 106.55Z" fill="#9AE2C6"/>
<path d="M21.0498 92.143L159.116 95.8597L159.057 100.308L21.4061 101.49L21.0498 92.143Z" fill="#9AE2C6"/>
<path d="M22.2715 141.259L161 144.576L160.915 150.394L22.577 149.271L22.2715 141.259Z" fill="#9AE2C6"/>
</g>
<path d="M114.166 53.0116C109.848 48.4784 101.261 45.8844 94.6521 48.3253C88.0427 50.7662 83.9363 57.4001 81.8661 69.945C80.3389 79.1729 84.0042 89.4469 91.9625 94.3458C99.9209 99.2446 111.629 97.5011 116.975 89.8296C118.593 87.3883 119.725 84.6562 120.309 81.7839C122.778 70.855 118.485 57.5447 114.166 53.0116Z" fill="#FFE87B"/>
<path d="M99.7428 69.4772C99.6569 69.3527 99.5422 69.2509 99.4085 69.1806C99.2747 69.1102 99.1259 69.0735 98.9749 69.0735C98.8239 69.0735 98.6751 69.1102 98.5414 69.1806C98.4076 69.2509 98.2929 69.3527 98.2071 69.4772C97.698 70.0471 97.4095 71.1272 97.3586 72.9898C97.2908 74.3591 97.6301 75.7114 98.275 76.1536C98.9198 76.5959 99.8276 75.9665 100.201 74.6908C100.319 74.2804 100.393 73.8583 100.422 73.4321C100.554 72.0766 100.32 70.7103 99.7428 69.4772Z" fill="#FF886D"/>
<path d="M83.3169 65.3608C81.5606 65.0631 75.8591 63.7789 74.0435 69.018C71.9393 75.0735 78.2263 78.8412 82.757 78.6456C82.354 76.4007 82.1665 74.1223 82.197 71.8416C82.3038 69.6435 82.6799 67.4669 83.3169 65.3608Z" fill="#FFE87B"/>
<path d="M94.3212 71.5014C94.3212 72.3519 93.6849 73.245 93.2267 73.2024C92.7686 73.1599 92.2765 72.5986 92.3189 71.7141C92.3613 70.8295 92.8874 70.0131 93.3964 70.0131C93.9055 70.0131 94.3721 70.5914 94.3212 71.5014Z" fill="#343B38"/>
<path d="M103.883 71.1697C103.883 72.0202 104.333 72.9643 104.799 72.9813C105.266 72.9983 105.809 72.488 105.852 71.6035C105.894 70.719 105.47 69.8174 105.003 69.7919C104.536 69.7664 103.934 70.2852 103.883 71.1697Z" fill="#343B38"/>
<path d="M85.209 44.4726C82.8442 45.7012 80.7709 47.4255 79.1298 49.5284C77.4887 51.6314 76.3183 54.0637 75.698 56.6602C75.2313 59.0671 76.1816 63.3451 77.2167 65.5224C78.4469 68.0739 80.1777 71.714 82.197 72.9898C82.9861 65.3353 95.7721 56.5582 97.3756 55.0187C98.8604 56.7878 116.983 62.3841 120.47 72.6496C122.415 69.3973 124.076 65.9826 125.434 62.4436C127.393 57.0429 126.401 45.6037 117.891 42.3208C107.998 38.5276 98.5889 37.4645 85.209 44.4726Z" fill="#212121"/>
<path d="M104.893 78.5946C103.603 77.625 101.787 78.3139 100.812 79.0113C99.8361 79.7087 98.2665 80.3976 95.0763 79.0793C94.899 78.9937 94.7064 78.9446 94.5099 78.9347C94.3133 78.9248 94.1168 78.9544 93.9318 79.0217C93.7468 79.0891 93.5772 79.1928 93.4328 79.3269C93.2884 79.4609 93.1722 79.6225 93.091 79.8023C92.9547 80.2345 92.9275 80.6938 93.0119 81.1391C93.0963 81.5844 93.2896 82.0018 93.5746 82.3537C94.7358 83.7149 96.353 84.6041 98.1222 84.8542C102.831 85.5431 104.808 83.8846 105.631 82.2517C105.971 81.6559 106.083 80.9567 105.948 80.284C105.812 79.6114 105.437 79.011 104.893 78.5946Z" fill="#FF886D"/>
<path d="M98.0459 92.8404C97.1974 94.3288 97.435 98.6833 97.3756 101.209C97.2823 105.156 100.269 108.064 102.381 108.43C105.589 108.974 109.805 107.58 110.705 102.519C111.298 99.1766 111.112 93.5974 109.916 91.5647C108.957 89.9317 105.902 89.8637 103.45 90.2209C101.609 90.4675 98.8604 91.3606 98.0459 92.8404Z" fill="#FFE87B"/>
<path d="M119.155 64.3657C124.661 62.0779 128.997 66.594 128.751 70.3192C128.395 75.7454 123.007 77.9737 120.351 77.1912C120.531 74.8125 120.514 72.4229 120.3 70.047C120.063 68.1268 119.68 66.2275 119.155 64.3657Z" fill="#FFE87B"/>
<path d="M113.615 37.9833C114.068 36.2702 115.146 34.7897 116.635 33.834C118.124 32.8783 119.916 32.5168 121.658 32.8208C122.384 32.9627 123.052 33.3198 123.573 33.8459C124.095 34.3721 124.448 35.043 124.585 35.772C126.893 33.8158 131.186 34.4367 132.747 36.6225C134.444 39.0464 133.909 41.7255 131.712 42.661C132.908 42.661 134.732 43.1713 135.606 44.5236C136.921 46.5308 136.455 50.8088 131.967 52.025C126.978 53.3688 121.03 52.4077 117.764 49.4735C112.995 45.2891 112.843 40.6964 113.615 37.9833Z" fill="#212121"/>
<path d="M97.4435 54.2703C98.3354 56.7102 99.7652 58.9168 101.626 60.7256C103.481 62.5475 105.671 63.9917 108.074 64.9781C109.41 65.6264 110.876 65.9581 112.359 65.9476C112.571 65.9476 112.724 65.5989 112.478 65.4969C111.349 64.9951 110.136 64.7229 108.982 64.2892C107.829 63.8484 106.718 63.3018 105.665 62.6562C103.543 61.3376 101.659 59.6699 100.091 57.7233C99.1817 56.6096 98.3912 55.4039 97.732 54.1257C97.6556 53.9726 97.3841 54.1257 97.4435 54.2533V54.2703Z" fill="#212121"/>
<path d="M97.435 54.619C96.2479 55.8516 95.1399 57.1583 94.1176 58.5313C93.1018 59.7096 92.2091 60.9892 91.4535 62.35C90.8333 63.5076 90.6126 64.8383 90.8257 66.1347C90.9043 66.7094 91.1389 67.2513 91.504 67.7013C91.8691 68.1513 92.3506 68.492 92.8958 68.6862C92.9411 68.6985 92.9892 68.6953 93.0325 68.6773C93.0758 68.6592 93.112 68.6273 93.1352 68.5864C93.1585 68.5456 93.1676 68.4982 93.1612 68.4516C93.1547 68.405 93.133 68.3619 93.0995 68.329C92.3024 67.6317 91.7941 66.6611 91.6741 65.6074C91.6048 64.363 91.9348 63.1291 92.6159 62.0864C93.3753 60.9074 94.1995 59.7716 95.0848 58.6844C96.0273 57.46 96.8944 56.179 97.681 54.8486C97.7058 54.8159 97.7166 54.7747 97.711 54.734C97.7054 54.6934 97.684 54.6566 97.6514 54.6318C97.6187 54.6069 97.5776 54.5961 97.537 54.6017C97.4965 54.6073 97.4598 54.6288 97.435 54.6615V54.619Z" fill="#212121"/>
<path d="M97.6471 54.0406C97.3 54.6282 97.083 55.2838 97.0108 55.9628C96.8894 56.6447 96.8354 57.3369 96.8496 58.0295C96.9185 60.6814 97.9363 63.22 99.7173 65.1822C100.133 65.6455 100.59 66.0697 101.083 66.4494C101.532 66.8445 102.062 67.135 102.636 67.2999C102.857 67.2999 103.145 67.0958 102.967 66.8662C102.591 66.4618 102.173 66.0996 101.72 65.786C101.286 65.4268 100.872 65.0435 100.481 64.6379C99.7268 63.7885 99.1035 62.831 98.6313 61.7972C98.1107 60.6158 97.8005 59.3522 97.715 58.0635C97.6683 57.4066 97.6683 56.7472 97.715 56.0903C97.8317 55.452 97.911 54.8074 97.9525 54.1597C97.9516 54.1231 97.9389 54.0878 97.9163 54.059C97.8937 54.0302 97.8625 54.0095 97.8272 54C97.7919 53.9904 97.7545 53.9925 97.7206 54.006C97.6866 54.0194 97.6578 54.0435 97.6386 54.0747L97.6471 54.0406Z" fill="#212121"/>
<path d="M86.2441 89.3024C87.6559 91.7255 89.7122 93.7073 92.1831 95.0262C94.7603 96.5267 97.6443 97.4196 100.617 97.6373C102.331 97.757 104.053 97.5786 105.707 97.1099C106.064 97.0079 106.013 96.387 105.622 96.438C102.739 96.8409 99.8045 96.6733 96.9853 95.9448C94.32 95.2109 91.8355 93.9308 89.6887 92.1856C88.5595 91.2237 87.5018 90.1805 86.5241 89.0642C86.3713 88.9026 86.1253 89.1153 86.2271 89.3024H86.2441Z" fill="#343B38"/>
<path d="M11.963 98.2751C12.8408 99.8461 14.0982 101.171 15.6198 102.128C16.3919 102.689 17.1894 103.208 18.0039 103.684C18.3575 103.915 18.7292 104.117 19.1154 104.288C19.3975 104.438 19.7008 104.544 20.0147 104.603C20.0538 104.604 20.0923 104.594 20.1264 104.575C20.1606 104.556 20.189 104.528 20.2088 104.494C20.2287 104.46 20.2392 104.422 20.2394 104.383C20.2396 104.344 20.2294 104.305 20.2098 104.271C19.9958 104.052 19.7532 103.863 19.4887 103.71C19.1636 103.479 18.8266 103.266 18.479 103.072C17.6985 102.613 16.9264 102.128 16.1713 101.626C15.3791 101.099 14.6145 100.531 13.8805 99.9251C13.227 99.4193 12.6694 98.7999 12.2345 98.0965C12.1327 97.9179 11.8866 98.0965 11.963 98.2496V98.2751Z" fill="#343B38"/>
<path d="M11.4031 102.255C11.0552 103.285 11.9885 104.101 12.7182 104.671C13.2272 105.071 13.7872 105.394 14.3047 105.785C14.6441 106.04 14.958 106.321 15.2805 106.636C16.9773 108.022 18.776 109.298 20.5832 110.522C21.0159 110.82 21.4316 111.092 21.9153 111.373C22.1777 111.559 22.4628 111.71 22.7637 111.824C22.8105 111.833 22.8592 111.828 22.9029 111.809C22.9466 111.789 22.9832 111.757 23.0075 111.716C23.0319 111.674 23.0427 111.626 23.0385 111.579C23.0344 111.531 23.0154 111.486 22.9843 111.449C22.803 111.272 22.6071 111.11 22.3989 110.965C22.068 110.709 21.7541 110.446 21.4147 110.208C20.5323 109.573 19.6414 108.943 18.7421 108.32C17.8936 107.716 17.0452 107.103 16.1968 106.482C15.5095 105.981 14.8562 105.445 14.1181 105.003C13.5298 104.667 12.9631 104.295 12.4212 103.888C12.1682 103.739 11.9669 103.515 11.844 103.248C11.7212 102.98 11.6828 102.682 11.734 102.392C11.7452 102.352 11.7404 102.31 11.7205 102.274C11.7006 102.238 11.6673 102.211 11.6279 102.2C11.5885 102.189 11.5463 102.194 11.5105 102.214C11.4747 102.234 11.4483 102.267 11.437 102.306L11.4031 102.255Z" fill="#343B38"/>
<path d="M15.1531 95.2558C15.4755 96.8207 16.85 98.0114 18.0633 98.9555C18.7603 99.5101 19.4945 100.016 20.2607 100.469C20.5747 100.656 20.8971 100.81 21.228 100.971C21.4901 101.096 21.7711 101.176 22.0594 101.209C22.1952 101.209 22.3225 101.073 22.2037 100.963C22.0214 100.764 21.8196 100.585 21.6013 100.427L20.7528 99.84C20.0741 99.3807 19.4123 98.879 18.7675 98.3857C18.1063 97.8817 17.4824 97.3303 16.9009 96.7357C16.3905 96.3 15.982 95.757 15.7046 95.1453C15.6777 95.0838 15.6296 95.0341 15.5692 95.0051C15.5088 94.9761 15.44 94.9697 15.3754 94.9872C15.3107 95.0047 15.2544 95.0449 15.2168 95.1004C15.1791 95.1559 15.1626 95.2231 15.1701 95.2899L15.1531 95.2558Z" fill="#343B38"/>
<path d="M24.4266 96.0298C25.0545 97.7903 25.8265 99.4998 26.3017 101.311C26.4912 102.187 26.5963 103.078 26.6156 103.973C26.675 104.883 27.2689 106.023 28.3125 105.947C28.3583 105.944 28.4023 105.928 28.4397 105.901C28.477 105.874 28.5062 105.838 28.5238 105.795C28.5415 105.753 28.5469 105.706 28.5396 105.661C28.5322 105.615 28.5123 105.573 28.4821 105.538C28.136 105.26 27.8478 104.916 27.6337 104.526C27.4909 104.064 27.4277 103.581 27.447 103.097C27.3259 102.264 27.1183 101.446 26.8277 100.657C26.3336 98.9859 25.6173 97.3897 24.6981 95.9107C24.6048 95.7747 24.3502 95.8597 24.4096 96.0298H24.4266Z" fill="#343B38"/>
<path d="M152.863 185.136C153.008 183.912 152.904 182.671 152.558 181.488C152.395 180.805 152.194 180.132 151.956 179.472C151.838 179.182 151.705 178.898 151.557 178.622C151.438 178.384 151.319 178.026 151.048 177.95C150.979 177.931 150.906 177.941 150.844 177.976C150.782 178.011 150.737 178.069 150.717 178.137C150.632 178.367 150.827 178.673 150.904 178.894C150.98 179.115 151.073 179.438 151.167 179.702C151.387 180.357 151.608 181.003 151.786 181.666C151.964 182.33 152.108 182.934 152.261 183.572C152.402 184.067 152.476 184.579 152.482 185.094C152.482 185.307 152.83 185.366 152.863 185.145V185.136Z" fill="#343B38"/>
<path d="M156.741 182.194C156.639 181.735 156.571 181.267 156.444 180.816C156.317 180.365 156.105 179.685 155.909 179.115C155.714 178.545 155.494 178.018 155.265 177.482L154.985 176.827C154.891 176.632 154.823 176.368 154.594 176.308C154.543 176.295 154.489 176.299 154.44 176.319C154.391 176.339 154.35 176.374 154.323 176.419C154.229 176.64 154.323 176.819 154.433 177.023C154.543 177.227 154.611 177.482 154.688 177.712C154.891 178.264 155.061 178.826 155.273 179.37C155.485 179.914 155.689 180.484 155.918 181.071C156.096 181.488 156.334 181.922 156.537 182.304C156.597 182.423 156.766 182.304 156.741 182.219V182.194Z" fill="#343B38"/>
<path d="M148.392 182.117C148.155 181.607 147.985 181.054 147.756 180.535C147.459 179.872 147.187 179.2 146.907 178.528C146.627 177.856 146.441 177.227 146.135 176.623C145.972 176.202 145.78 175.792 145.558 175.398C145.535 175.354 145.498 175.319 145.452 175.299C145.406 175.279 145.355 175.275 145.307 175.287C145.258 175.3 145.216 175.329 145.186 175.369C145.156 175.41 145.141 175.459 145.143 175.509C145.192 175.974 145.297 176.431 145.457 176.87C145.636 177.554 145.877 178.22 146.178 178.86C146.466 179.557 146.763 180.238 147.086 180.918C147.346 181.441 147.674 181.927 148.061 182.364C148.223 182.542 148.46 182.313 148.375 182.117H148.392Z" fill="#343B38"/>
<path d="M120.945 122.608C121.544 124.499 122.293 126.339 123.185 128.111C124.212 130.305 125.332 132.465 126.511 134.583C126.766 135.042 127.054 135.493 127.359 135.944C127.57 136.35 127.858 136.711 128.208 137.007C128.488 137.194 128.768 136.888 128.725 136.607C128.622 136.232 128.459 135.875 128.242 135.552L127.614 134.37C127.08 133.392 126.528 132.423 126.002 131.436C124.871 129.321 123.782 127.192 122.736 125.049C122.296 124.203 121.902 123.334 121.556 122.446C121.546 122.407 121.527 122.371 121.503 122.339C121.478 122.306 121.447 122.28 121.412 122.259C121.377 122.239 121.338 122.226 121.298 122.221C121.258 122.216 121.218 122.219 121.179 122.229C121.14 122.24 121.103 122.258 121.071 122.283C121.039 122.308 121.012 122.339 120.992 122.374C120.972 122.409 120.959 122.448 120.954 122.488C120.949 122.528 120.952 122.569 120.962 122.608H120.945Z" fill="#343B38"/>
<path d="M119.876 124.93C120.036 125.791 120.41 126.598 120.962 127.277C121.488 127.917 122.134 128.449 122.863 128.842L123.38 129.089C123.5 129.158 123.633 129.198 123.771 129.208H123.898H124.076C124.138 129.207 124.199 129.19 124.253 129.159C124.307 129.127 124.351 129.082 124.382 129.028C124.413 128.974 124.429 128.912 124.429 128.85C124.429 128.787 124.413 128.726 124.381 128.672C124.331 128.57 124.212 128.51 124.127 128.442C124.263 128.553 124.084 128.391 124.051 128.357C123.989 128.311 123.924 128.272 123.855 128.238C123.142 127.919 122.483 127.489 121.904 126.962C121.227 126.332 120.679 125.575 120.292 124.734C120.182 124.479 119.825 124.666 119.868 124.913L119.876 124.93Z" fill="#343B38"/>
<path d="M83.5884 117.871C83.0828 119.224 82.6939 120.618 82.4261 122.038C81.9764 124.164 81.637 126.291 81.3146 128.468C80.6274 133.154 80.0165 137.823 79.6178 142.586C79.4508 144.282 79.4083 145.987 79.4905 147.689C79.5009 147.743 79.5299 147.793 79.5725 147.828C79.615 147.863 79.6686 147.882 79.7238 147.882C79.7791 147.882 79.8326 147.863 79.8752 147.828C79.9178 147.793 79.9467 147.743 79.9571 147.689C80.0165 147.102 80.1523 146.515 80.2032 145.929C80.2711 145.078 80.3559 144.228 80.4407 143.42C80.6783 141.242 80.8735 139.048 81.1195 136.871C81.6568 132.193 82.2819 127.535 82.9945 122.897C83.1843 121.229 83.5193 119.582 83.9957 117.973C84.0805 117.726 83.7072 117.632 83.6054 117.871H83.5884Z" fill="#343B38"/>
<path d="M91.8862 201.492C93.6425 198.09 94.9321 194.398 96.3914 190.835C97.7913 187.433 99.1658 183.98 100.685 180.629C101.117 179.651 101.533 178.681 102.034 177.712C102.28 177.193 102.509 176.666 102.746 176.138C102.984 175.611 103.179 175.033 103.425 174.488C103.455 174.416 103.458 174.336 103.433 174.262C103.408 174.188 103.357 174.125 103.29 174.086C103.223 174.046 103.143 174.033 103.067 174.047C102.99 174.062 102.922 174.104 102.873 174.165C102.602 174.599 102.297 175.016 102.025 175.449C101.754 175.883 101.516 176.3 101.287 176.751C100.82 177.601 100.379 178.528 99.9464 179.421C99.1262 181.122 98.3428 182.823 97.5962 184.524C96.1029 187.926 94.7539 191.43 93.4388 194.934C92.6498 197.026 91.8607 199.102 91.2499 201.253C91.2279 201.333 91.2355 201.418 91.2713 201.492C91.307 201.566 91.3685 201.625 91.4443 201.657C91.52 201.69 91.6049 201.693 91.6831 201.667C91.7612 201.642 91.8274 201.588 91.8692 201.517L91.8862 201.492Z" fill="#343B38"/>
<path d="M96.5356 175.517C97.3552 176.057 98.2583 176.456 99.2082 176.7C99.689 176.835 100.18 176.932 100.676 176.989C101.151 177.092 101.646 177.056 102.101 176.887C102.364 176.768 102.246 176.419 102.034 176.334C101.603 176.226 101.162 176.168 100.718 176.164C100.264 176.12 99.8136 176.047 99.3694 175.943C98.4864 175.747 97.6314 175.441 96.8241 175.033C96.76 174.994 96.6833 174.983 96.6109 175.001C96.5385 175.02 96.4763 175.066 96.4381 175.13C96.3998 175.195 96.3886 175.272 96.4069 175.344C96.4252 175.417 96.4715 175.479 96.5356 175.517Z" fill="#343B38"/>
<path d="M101.168 219.786C102.519 217.77 103.746 215.674 104.842 213.509C106.742 210.039 108.575 206.518 110.348 202.98C110.806 202.07 111.265 201.151 111.714 200.233C112.1 199.444 112.405 198.618 112.622 197.766C112.635 197.706 112.627 197.644 112.599 197.589C112.571 197.534 112.525 197.491 112.469 197.467C112.413 197.443 112.35 197.439 112.291 197.456C112.232 197.474 112.181 197.511 112.147 197.562C111.685 198.175 111.268 198.82 110.9 199.493C110.492 200.258 110.102 201.049 109.703 201.823L106.963 207.079C105.266 210.286 103.518 213.458 101.872 216.698C101.414 217.634 101.024 218.527 100.54 219.437C100.509 219.515 100.507 219.601 100.534 219.68C100.561 219.759 100.615 219.826 100.687 219.868C100.759 219.911 100.844 219.926 100.926 219.91C101.008 219.895 101.082 219.851 101.134 219.786H101.168Z" fill="#343B38"/>
<path d="M66.679 242.656C66.2972 242.392 66.4075 241.737 66.679 241.431C66.9009 241.213 67.1759 241.058 67.4766 240.98L67.7226 240.904C67.811 240.876 67.8963 240.839 67.9771 240.793C68.1383 240.725 68.308 240.683 68.4692 240.606C68.4893 240.598 68.5065 240.583 68.5186 240.565C68.5307 240.547 68.5371 240.526 68.5371 240.504C68.5371 240.482 68.5307 240.461 68.5186 240.443C68.5065 240.424 68.4893 240.41 68.4692 240.402C68.3111 240.389 68.1522 240.389 67.9941 240.402H67.7735C67.6783 240.406 67.584 240.423 67.4935 240.453C67.165 240.526 66.8557 240.668 66.5857 240.87C66.3582 241.04 66.1813 241.27 66.0737 241.533C65.9661 241.797 65.9319 242.085 65.9748 242.367C65.9972 242.518 66.051 242.663 66.1329 242.791C66.2147 242.92 66.3228 243.031 66.4499 243.115C66.7045 243.277 66.9336 242.877 66.6875 242.707L66.679 242.656Z" fill="#343B38"/>
<path d="M118.078 249.851C117.744 250.05 117.478 250.346 117.318 250.7C117.157 251.055 117.108 251.45 117.178 251.833C117.248 252.216 117.442 252.566 117.73 252.828C117.901 252.967 118.093 253.079 118.298 253.159L118.527 253.227C118.606 253.246 118.687 253.246 118.765 253.226C118.844 253.207 118.916 253.17 118.977 253.117L118.748 253.21C118.902 253.199 119.054 253.179 119.206 253.151C119.251 253.135 119.29 253.106 119.317 253.067C119.345 253.028 119.36 252.982 119.36 252.934C119.36 252.886 119.345 252.84 119.317 252.801C119.29 252.762 119.251 252.733 119.206 252.717C119.101 252.705 118.999 252.67 118.909 252.615L119.053 252.802C119.016 252.689 118.941 252.593 118.841 252.53L118.646 252.428L118.57 252.368C118.51 252.368 118.629 252.436 118.57 252.368L118.425 252.232C118.368 252.183 118.314 252.129 118.264 252.071C118.264 252.071 118.264 252.122 118.264 252.071L118.205 251.969C118.17 251.911 118.139 251.851 118.112 251.79C118.112 251.875 118.112 251.79 118.112 251.748V251.654V251.56C118.112 251.475 118.112 251.56 118.112 251.56C118.107 251.49 118.107 251.419 118.112 251.348C118.107 251.314 118.107 251.28 118.112 251.246C118.112 251.246 118.112 251.161 118.112 251.246C118.107 251.175 118.107 251.104 118.112 251.033C118.147 250.92 118.195 250.812 118.256 250.71C118.33 250.604 118.418 250.51 118.519 250.429C118.79 250.2 118.442 249.757 118.137 249.936L118.078 249.851Z" fill="#343B38"/>
<path d="M76.6228 70.9571C77.5419 71.2925 78.3198 71.9314 78.8287 72.7686C79.0826 73.1823 79.2714 73.6327 79.3887 74.1039C79.4481 74.359 79.482 74.6057 79.5584 74.8523C79.6347 75.099 79.5584 75.3116 79.7705 75.5072C79.813 75.5473 79.8691 75.5696 79.9275 75.5696C79.9858 75.5696 80.0419 75.5473 80.0844 75.5072C80.3135 75.3286 80.305 74.9884 80.3729 74.7503C80.4199 74.4395 80.3937 74.1221 80.2965 73.8232C80.0931 72.9723 79.6577 72.1947 79.0389 71.5775C78.4201 70.9602 77.6424 70.5275 76.7925 70.3277C76.7092 70.3051 76.6204 70.3167 76.5456 70.3597C76.4709 70.4028 76.4162 70.4739 76.3937 70.5573C76.3712 70.6408 76.3827 70.7298 76.4257 70.8048C76.4686 70.8797 76.5395 70.9345 76.6228 70.9571Z" fill="#343B38"/>
<path d="M78.4978 71.646C78.1148 71.5953 77.7252 71.6361 77.3609 71.7651C77.1466 71.8355 76.9458 71.9419 76.767 72.0797C76.6951 72.1376 76.6271 72.2001 76.5633 72.2669C76.4581 72.3508 76.3787 72.4628 76.3343 72.59C76.3213 72.6463 76.3227 72.705 76.3386 72.7605C76.3545 72.816 76.3842 72.8666 76.4249 72.9074C76.4656 72.9483 76.5161 72.978 76.5715 72.9939C76.6269 73.0098 76.6854 73.0113 76.7415 72.9983C76.8233 72.9778 76.8971 72.9334 76.9536 72.8707H77.0045L77.2082 72.7346C77.3609 72.6496 77.4966 72.5475 77.6578 72.4625L77.7597 72.4114H77.819C77.819 72.4114 77.7681 72.4114 77.819 72.4114L78.099 72.2754H78.1499H78.2772L78.5402 72.2158C78.5926 72.2018 78.6381 72.1689 78.6678 72.1234C78.6976 72.0779 78.7095 72.023 78.7014 71.9692C78.6923 71.9155 78.6657 71.8664 78.6258 71.8295C78.5859 71.7926 78.5349 71.7699 78.4808 71.7651L78.4978 71.646Z" fill="#343B38"/>
<path d="M125.569 67.3425C124.974 67.2587 124.367 67.3442 123.818 67.5893C123.269 67.8344 122.8 68.2293 122.464 68.7288C122.088 69.2997 121.885 69.9671 121.879 70.6509C121.83 71.3716 122.017 72.0885 122.413 72.6921C122.478 72.7941 122.576 72.8703 122.69 72.9075C122.805 72.9448 122.929 72.9408 123.041 72.8962C123.152 72.8476 123.242 72.7609 123.294 72.6518C123.347 72.5427 123.36 72.4183 123.329 72.3009C123.168 71.8015 123.049 71.2894 122.973 70.77C122.926 70.2443 123.01 69.7151 123.219 69.2306C123.41 68.7831 123.73 68.403 124.139 68.1393C124.547 67.8756 125.024 67.7403 125.51 67.7507C125.739 67.7507 125.798 67.385 125.569 67.3425Z" fill="#343B38"/>
<path d="M122.871 68.7543L122.914 68.8053C122.962 68.8698 123.019 68.9271 123.083 68.9754L123.321 69.137C123.491 69.2476 123.66 69.3326 123.83 69.4432C124.159 69.6851 124.515 69.8878 124.891 70.0471C124.962 70.0643 125.036 70.0607 125.106 70.0365C125.175 70.0124 125.236 69.9688 125.281 69.911C125.322 69.8494 125.344 69.7768 125.344 69.7026C125.344 69.6284 125.322 69.5559 125.281 69.4942C124.995 69.1518 124.635 68.8785 124.229 68.6948C124.051 68.6097 123.872 68.5162 123.694 68.4396C123.586 68.3979 123.476 68.3638 123.363 68.3376C123.245 68.3209 123.125 68.3209 123.007 68.3376C122.959 68.3397 122.912 68.3555 122.873 68.3832C122.833 68.4108 122.802 68.4491 122.784 68.4936C122.765 68.5382 122.759 68.5871 122.767 68.6348C122.775 68.6824 122.797 68.7268 122.829 68.7628L122.871 68.7543Z" fill="#343B38"/>
<path d="M50.058 37.0222C47.6254 33.0469 43.8065 30.1189 39.3422 28.8064C31.6638 26.1359 25.3854 25.2684 17.4694 27.1054C9.55346 28.9425 1.6969 34.6579 0.330915 42.6866C-0.517525 47.5684 -0.0423989 53.3093 4.37797 58.1571C13.1763 67.8188 19.9978 64.9611 22.7128 66.4665C26.8192 68.6948 27.8543 74.4442 31.6553 77.1743C32.3341 75.2862 31.9608 73.1514 32.6226 71.2633C33.8189 67.8613 37.7896 66.5005 40.9373 64.7145C50.1089 59.5349 57.0491 48.0362 50.058 37.0222Z" fill="#4CD8AC"/>
<path d="M42.0742 38.2044C41.4159 42.1461 40.974 46.1211 40.7506 50.1114C40.7506 50.4497 40.8847 50.7742 41.1234 51.0135C41.362 51.2527 41.6857 51.3871 42.0233 51.3871C42.3581 51.3785 42.6768 51.2414 42.9137 51.004C43.1505 50.7665 43.2873 50.447 43.2959 50.1114C43.4962 46.3571 43.9098 42.6174 44.5347 38.9103C44.612 38.5849 44.563 38.2421 44.3976 37.9515C44.2321 37.6609 43.9627 37.4442 43.6438 37.3454C43.3232 37.257 42.981 37.2962 42.6886 37.4546C42.3961 37.6131 42.176 37.8787 42.0742 38.1959V38.2044Z" fill="#FFFAEB"/>
<path d="M40.547 53.8025C40.547 53.8025 40.4197 54.1002 40.4197 54.1087L40.3688 54.4489L40.4197 54.7891C40.4197 54.7891 40.547 55.0868 40.547 55.0953L40.7421 55.3504L40.9967 55.5545L41.1494 55.6141L41.3021 55.6821H41.4718H41.6415H41.9809L42.2863 55.5545L42.5408 55.3504C42.5408 55.3504 42.736 55.1038 42.736 55.0953C42.7856 54.9935 42.8282 54.8883 42.8632 54.7806C42.8632 54.7806 42.9142 54.4574 42.9142 54.4404L42.8632 54.1002C42.8632 54.0492 42.719 53.7685 42.7954 53.9471C42.8717 54.1257 42.7954 53.845 42.736 53.794C42.6628 53.6451 42.5478 53.521 42.4051 53.4368C42.2865 53.3193 42.136 53.2394 41.9724 53.2072C41.8082 53.1647 41.636 53.1647 41.4718 53.2072C41.3027 53.2148 41.1386 53.2677 40.9967 53.3603L40.7337 53.5559C40.5798 53.7154 40.4688 53.9114 40.4113 54.1257V54.4659C40.4072 54.6902 40.466 54.9112 40.5809 55.1038L40.4537 54.8061L40.4113 54.4659L40.4537 54.1257L40.5809 53.828L40.7846 53.5729L41.0391 53.3773L41.3445 53.2497H41.6839H42.0233L42.3202 53.3773L42.5748 53.5729L42.7784 53.8365L42.9057 54.1427V54.4744V54.8146L42.7784 55.1123C42.8704 54.973 42.9232 54.8114 42.9311 54.6445C42.9735 54.4771 42.9735 54.3016 42.9311 54.1342C42.8931 53.9723 42.8142 53.8229 42.702 53.7004C42.6159 53.5592 42.4926 53.4444 42.3457 53.3688L42.0403 53.2412C41.8179 53.1816 41.5839 53.1816 41.3615 53.2412L41.0646 53.3688C40.8723 53.4763 40.7137 53.6353 40.6064 53.828L40.547 53.8025Z" fill="#FFFAEB"/>
<path d="M19.7008 49.4055C19.8281 48.4784 20.6086 47.0836 21.5165 47.0496C22.4243 47.0156 23.3067 46.8625 23.7733 47.7215C24.0413 48.3844 24.2238 49.0789 24.3163 49.7882C24.7066 49.8562 25.8181 49.7286 26.4544 49.7882C30.6966 49.9838 32.0541 48.0191 32.631 46.7179C33.6492 44.4045 32.1644 41.87 30.756 38.2894C30.0178 36.4269 29.3051 34.4367 28.3379 33.9774C27.3707 33.5182 23.6121 34.105 18.2839 35.4233C18.0045 35.5593 17.7757 35.781 17.6308 36.0564C17.4858 36.3317 17.4322 36.6462 17.4779 36.9542C17.7833 38.5191 17.8088 40.9515 16.9688 42.3974C16.1289 43.8432 10.7752 44.3875 8.8238 45.9269C7.33054 47.1261 6.5924 50.7578 8.95106 52.918C9.57334 53.2683 10.2737 53.4555 10.9873 53.4623C14.0756 53.4623 15.0344 53.4623 18.6233 53.4623C19.1132 53.4677 19.6015 53.4047 20.0741 53.2752C19.7355 52.0152 19.6093 50.7072 19.7008 49.4055Z" fill="#FFFAEB"/>
<path d="M24.6896 47.6279C24.5153 47.1421 24.2294 46.7042 23.855 46.3496C23.4807 45.995 23.0283 45.7337 22.5346 45.5867C21.993 45.4594 21.4288 45.4649 20.8897 45.6025C20.3506 45.7402 19.8526 46.0061 19.4378 46.3777C17.8258 47.9426 18.3179 51.0724 18.5894 53.0626C18.8863 55.2059 19.9469 57.8679 22.4413 58.0635C24.7405 58.2507 25.7247 56.286 25.7163 54.2618L24.7575 55.2229C27.0992 55.1293 29.4324 54.9677 31.7741 54.8742L30.8578 54.1768C31.0482 55.2281 31.3703 56.2511 31.8165 57.2216C32.1057 57.6975 32.5221 58.0827 33.0184 58.3337C33.5147 58.5847 34.0712 58.6915 34.6249 58.6419C35.1834 58.6551 35.7363 58.5263 36.2318 58.2676C36.7273 58.0088 37.1494 57.6285 37.4587 57.162C38.0574 56.0053 38.3496 54.7138 38.3071 53.4113C38.3443 52.1617 38.2619 50.9115 38.0611 49.6776C37.9547 48.3856 37.4741 47.1529 36.6781 46.131C36.2538 45.686 35.7191 45.3621 35.1287 45.1925C34.5384 45.023 33.9137 45.0139 33.3187 45.1663C32.7237 45.3187 32.1798 45.6269 31.7429 46.0595C31.306 46.4921 30.9917 47.0334 30.8323 47.6279C30.7814 47.8065 30.4845 48.7081 30.6033 48.8271C30.4336 48.657 31.5111 48.7421 30.9426 48.555C30.679 48.5313 30.4132 48.5457 30.1536 48.5975C29.3617 48.6372 28.5727 48.6882 27.7864 48.7506L25.3599 48.8952C25.1994 48.8738 25.0368 48.8738 24.8763 48.8952C24.5624 48.8952 24.6133 48.9972 25.012 49.2864V49.0993C25.033 48.6712 24.9576 48.2439 24.7915 47.8491C24.4097 46.6839 22.5601 47.1857 22.9503 48.3594C23.2388 49.2099 22.9928 50.3155 24.0703 50.7237C24.6497 50.8429 25.2472 50.8429 25.8266 50.7237L27.5234 50.6217C28.7112 50.5366 29.9075 50.5111 31.0954 50.4006C32.4274 50.2815 32.3341 49.2354 32.6226 48.2063C32.6618 47.9687 32.7558 47.7436 32.8971 47.5489C33.0384 47.3541 33.223 47.1951 33.4364 47.0844C33.6497 46.9738 33.8859 46.9146 34.1261 46.9115C34.3663 46.9084 34.6039 46.9615 34.82 47.0666C35.7363 47.5344 35.9484 48.8186 36.1266 49.7372C36.3187 50.8118 36.4011 51.9032 36.3727 52.9946C36.4711 54.0662 36.299 55.1455 35.8721 56.1329C35.7443 56.3072 35.5828 56.4539 35.3971 56.5642C35.2115 56.6745 35.0056 56.746 34.7917 56.7746C34.5778 56.8032 34.3603 56.7882 34.1524 56.7306C33.9444 56.6729 33.7501 56.5738 33.5813 56.4391C32.945 55.7247 32.9789 54.5595 32.7329 53.692C32.6723 53.4918 32.5503 53.3159 32.3843 53.1891C32.2183 53.0624 32.0167 52.9914 31.8081 52.9861C29.4664 53.0796 27.1331 53.2412 24.7915 53.3348C24.5408 53.3391 24.3016 53.4409 24.1243 53.6186C23.9471 53.7963 23.8456 54.0361 23.8412 54.2873C23.8412 55.2399 23.6376 56.4816 22.3819 56.1584C20.982 55.7927 20.6171 53.794 20.4644 52.5778C20.3117 51.3616 20.0232 49.499 20.4644 48.2743C20.5704 47.995 20.7667 47.7594 21.0221 47.6052C21.2774 47.451 21.577 47.3872 21.8728 47.4238C22.5346 47.4833 22.8061 48.0532 23.0352 48.606C23.5188 49.7031 25.1648 48.7336 24.6896 47.6279Z" fill="#FFFAEB"/>
<path d="M16.4598 39.6843L20.1166 39.4121C20.3542 39.3896 20.5749 39.2791 20.7355 39.1021C20.8962 38.9252 20.9852 38.6945 20.9852 38.4553C20.9852 38.216 20.8962 37.9854 20.7355 37.8084C20.5749 37.6315 20.3542 37.521 20.1166 37.4985L16.4598 37.7706C16.3269 37.7581 16.1928 37.7734 16.0662 37.8158C15.9395 37.8582 15.8231 37.9266 15.7244 38.0167C15.6257 38.1067 15.5468 38.2165 15.4928 38.3389C15.4388 38.4613 15.4109 38.5936 15.4109 38.7274C15.4109 38.8613 15.4388 38.9936 15.4928 39.116C15.5468 39.2384 15.6257 39.3482 15.7244 39.4382C15.8231 39.5283 15.9395 39.5967 16.0662 39.6391C16.1928 39.6814 16.3269 39.6968 16.4598 39.6843Z" fill="#4CD8AE"/>
<path d="M14.118 43.537L19.5141 43.0948C19.7655 43.0882 20.0047 42.9846 20.1818 42.8056C20.3589 42.6265 20.4601 42.3858 20.4644 42.1337C20.4622 41.8818 20.3613 41.6408 20.1836 41.4626C20.0059 41.2844 19.7655 41.1834 19.5141 41.1812L14.0926 41.6234C13.8403 41.6299 13.6002 41.7332 13.4218 41.9121C13.2434 42.0909 13.1403 42.3316 13.1339 42.5845C13.1383 42.8372 13.241 43.0782 13.42 43.2561C13.5991 43.4341 13.8405 43.5349 14.0926 43.537H14.118Z" fill="#4CD8AE"/>
</g>
<defs>
<clipPath id="clip0">
<rect width="161" height="256" fill="white"/>
</clipPath>
</defs>
</svg>
