<svg width="532" height="299" viewBox="0 0 532 299" fill="none" xmlns="http://www.w3.org/2000/svg">
<g clip-path="url(#clip0)">
<path d="M111.176 298.72C106.31 298.72 101.554 297.276 97.5087 294.571C93.4633 291.867 90.3102 288.022 88.4483 283.525C86.5863 279.027 86.0992 274.078 87.0484 269.303C87.9976 264.528 90.3405 260.142 93.7809 256.7C97.2213 253.257 101.605 250.913 106.377 249.963C111.149 249.014 116.095 249.501 120.59 251.364C125.085 253.227 128.927 256.382 131.63 260.43C134.333 264.478 135.776 269.237 135.776 274.105C135.776 280.633 133.184 286.894 128.571 291.51C123.957 296.126 117.7 298.72 111.176 298.72ZM111.176 252.113C106.814 252.113 102.55 253.407 98.9226 255.832C95.2956 258.257 92.4687 261.704 90.7994 265.736C89.1301 269.769 88.6933 274.206 89.5443 278.487C90.3953 282.768 92.4959 286.7 95.5804 289.786C98.6649 292.873 102.595 294.974 106.873 295.826C111.151 296.677 115.586 296.24 119.616 294.57C123.646 292.9 127.091 290.071 129.514 286.442C131.938 282.813 133.231 278.546 133.231 274.181C133.231 268.329 130.908 262.715 126.771 258.577C122.635 254.438 117.025 252.113 111.176 252.113Z" fill="#8A9990"/>
<path d="M24.6002 298.72C19.7347 298.72 14.9785 297.276 10.9331 294.571C6.88758 291.867 3.73452 288.022 1.87259 283.525C0.0106588 279.027 -0.476507 274.078 0.472697 269.303C1.4219 264.528 3.76484 260.142 7.20524 256.7C10.6456 253.257 15.029 250.913 19.8009 249.963C24.5729 249.014 29.5192 249.501 34.0143 251.364C38.5094 253.227 42.3514 256.382 45.0545 260.43C47.7576 264.478 49.2004 269.237 49.2004 274.105C49.2004 280.633 46.6086 286.894 41.9951 291.51C37.3817 296.126 31.1246 298.72 24.6002 298.72ZM24.8462 252.546C12.7073 252.546 2.10375 261.764 2.10375 273.91C2.10375 286.056 12.4189 295.274 24.6002 295.274C36.7815 295.274 46.6555 286.285 46.6555 274.148C46.6718 271.284 46.1158 268.446 45.0201 265.801C43.9244 263.155 42.3112 260.756 40.2753 258.743C38.2394 256.73 35.8219 255.145 33.1649 254.081C30.508 253.017 27.6652 252.495 24.8038 252.546H24.8462Z" fill="#8A9990"/>
<path d="M111.888 274.521L89.3326 215.225C89.2324 214.93 89.043 214.674 88.7908 214.491C88.5385 214.309 88.2357 214.209 87.9245 214.206L72.6554 213.663L72.842 212.517L87.916 212.084C88.6606 212.088 89.3859 212.322 89.993 212.753C90.6002 213.185 91.0597 213.793 91.3091 214.495L113.848 273.766L111.888 274.521Z" fill="#C4F0DF"/>
<path d="M55.6813 274.47L39.2076 234.034L40.9975 233.304L59.0829 273.078L55.6813 274.47Z" fill="#C4F0DF"/>
<path d="M56.4617 275.183H24.227C24.0301 275.183 23.837 275.128 23.6695 275.025C23.502 274.921 23.3666 274.773 23.2786 274.597C23.1905 274.42 23.1532 274.223 23.1709 274.027C23.1886 273.831 23.2605 273.643 23.3787 273.485L43.6442 244.703C43.7323 244.578 43.8459 244.474 43.9775 244.396C44.1091 244.318 44.2557 244.27 44.4076 244.253L97.7985 237.293L98.528 239.407L98.6383 239.33L99.9531 241.028L57.1658 274.979C56.9638 275.131 56.7134 275.203 56.4617 275.183ZM26.4749 273.027L55.7576 272.178L93.9982 241.707L46.3841 246.935L26.4749 273.027Z" fill="#C4F0DF"/>
<path d="M93.4977 217.805C95.3391 223.338 97.4712 228.769 99.8852 234.076C99.9459 234.336 100.058 234.581 100.214 234.797C100.37 235.013 100.567 235.196 100.794 235.335C101.022 235.474 101.274 235.566 101.538 235.606C101.801 235.647 102.07 235.635 102.328 235.57L116.749 234.458C117.3 234.476 117.84 234.308 118.284 233.983C118.558 233.68 118.748 233.312 118.836 232.913C120.68 226.921 120.83 220.534 119.268 214.461C119.192 214.035 119.004 213.637 118.726 213.307C118.432 213.1 118.098 212.957 117.746 212.888C117.394 212.819 117.031 212.826 116.681 212.908C109.318 213.612 102.812 213.969 95.4742 215.182C93.6673 215.488 93.1414 216.676 93.4977 217.805Z" fill="#FFF0B0"/>
<path d="M70.7213 211.524C70.4914 211.524 70.2701 211.612 70.1028 211.769C69.9356 211.927 69.8352 212.143 69.8221 212.373C69.7434 213.361 69.8381 214.355 70.1021 215.31C70.3133 215.615 70.6077 215.854 70.9504 215.997C72.0446 216.345 77.7366 215.777 81.0025 215.564C81.163 215.568 81.3223 215.536 81.4691 215.471C81.5998 215.386 81.7116 215.275 81.7977 215.145C81.8838 215.015 81.9423 214.869 81.9695 214.716C82.2656 213.699 82.3436 212.632 82.1986 211.584C82.1884 211.491 82.1595 211.401 82.1137 211.32C81.995 211.142 81.7405 211.142 81.5199 211.151C77.6179 211.439 71.8411 211.524 70.7213 211.524Z" fill="#FFF0B0"/>
<path d="M35.0596 228.5C34.2113 228.61 33.0406 229.069 33.0406 230.155C33.0406 231.581 34.6694 233.38 35.9163 233.932C37.0909 234.333 38.3533 234.4 39.5639 234.127C43.8053 233.559 52.2882 231.691 52.6699 230.172C52.8141 229.569 51.5586 229.035 49.8197 228.805C46.7828 228.398 37.6977 228.118 35.0596 228.5Z" fill="#FFF0B0"/>
<path d="M48.0552 264.217C46.1026 259.597 42.833 255.656 38.6547 252.885C34.4764 250.113 29.5748 248.636 24.562 248.636C19.5492 248.636 14.6476 250.113 10.4693 252.885C6.29105 255.656 3.02141 259.597 1.06884 264.217L0 263.249C4.24141 253.157 13.5725 246.528 24.6002 246.528C35.6278 246.528 45.3916 253.454 49.6584 263.555L48.0552 264.217Z" fill="#C4F0DF"/>
<path d="M87.6869 264.217L86.1261 263.555C87.7065 259.81 90.1049 256.468 93.1452 253.772C96.1855 251.076 99.7905 249.096 103.696 247.977C107.601 246.857 111.707 246.627 115.713 247.303C119.718 247.98 123.522 249.545 126.844 251.884L125.86 253.276C122.745 251.082 119.18 249.614 115.424 248.98C111.669 248.345 107.819 248.561 104.158 249.61C100.496 250.659 97.1165 252.516 94.2663 255.044C91.4161 257.571 89.1679 260.706 87.6869 264.217Z" fill="#C4F0DF"/>
<path d="M61.4919 271.033C60.6865 270.277 59.6962 269.747 58.6209 269.497C57.5456 269.247 56.4233 269.284 55.3673 269.607C54.3222 269.969 53.4305 270.674 52.8375 271.608C52.2444 272.542 51.985 273.65 52.1014 274.75C52.3169 275.818 52.8049 276.813 53.5181 277.636C54.1859 278.56 55.0442 279.33 56.0349 279.894C57.0257 280.458 58.1258 280.802 59.2609 280.904C61.5343 280.972 63.9095 279.351 64.164 277.084C64.4185 274.818 63.1715 272.637 61.4919 271.033Z" fill="#FFF0B0"/>
<path d="M54.9857 215.446L48.123 217.831V152.822L56.3005 151.057L54.9857 215.446Z" fill="#D5E3F9"/>
<path d="M57.6832 298.72H47.648C47.423 298.72 47.2073 298.63 47.0482 298.471C46.8891 298.312 46.7997 298.096 46.7997 297.871L46.1211 215.607C46.1208 215.49 46.1446 215.375 46.1909 215.268C46.2371 215.161 46.305 215.064 46.3902 214.985C46.4753 214.905 46.576 214.844 46.6859 214.805C46.7957 214.766 46.9125 214.75 47.0288 214.758L55.5116 215.386C55.7261 215.401 55.9269 215.497 56.0734 215.655C56.2198 215.812 56.301 216.02 56.3005 216.235L58.5315 297.88C58.5292 298.103 58.4389 298.317 58.28 298.474C58.1212 298.632 57.9067 298.72 57.6832 298.72Z" fill="#A0B7EE"/>
<path d="M136.913 125.279C136.913 125.279 88.408 123.395 61.6362 139.997C38.7326 154.18 32.133 168.542 30.6909 172.421C30.6479 172.541 30.6327 172.67 30.6464 172.797C30.6601 172.924 30.7024 173.047 30.7701 173.155C30.8378 173.264 30.9292 173.356 31.0374 173.424C31.1456 173.492 31.2678 173.535 31.395 173.549L37.8589 174.262C38.014 174.278 38.1705 174.251 38.3112 174.184C38.4519 174.116 38.5713 174.011 38.6562 173.881C40.7176 170.638 54.2901 150.361 73.3255 143.01C104.619 130.94 136.947 133.512 136.947 133.512L136.913 125.279Z" fill="#A0B7EE"/>
<path d="M449.768 298.72H133.214L138.448 -143.379H443.83L449.768 298.72Z" fill="#FF886D"/>
<path d="M339.075 269.386H246.799L249.344 160.079L340.772 157.533L339.075 269.386Z" fill="#00B28C"/>
<path d="M348.432 162.583L240.191 164.077C239.834 164.079 239.481 164.006 239.155 163.862C238.828 163.718 238.535 163.508 238.295 163.244C238.055 162.979 237.873 162.668 237.762 162.329C237.65 161.99 237.611 161.631 237.646 161.276L239.436 143.562C239.499 142.949 239.783 142.38 240.234 141.96C240.684 141.54 241.272 141.298 241.888 141.279L347.236 138.011C347.899 137.99 348.545 138.229 349.035 138.678C349.525 139.127 349.82 139.749 349.857 140.413L350.96 159.893C350.979 160.237 350.928 160.583 350.81 160.907C350.692 161.232 350.51 161.529 350.273 161.781C350.037 162.033 349.751 162.234 349.435 162.371C349.118 162.509 348.777 162.581 348.432 162.583Z" fill="#FFFAEB"/>
<path d="M289.374 231.946L260.049 232.464C259.933 232.464 259.817 232.44 259.71 232.394C259.603 232.348 259.507 232.28 259.427 232.194C259.348 232.109 259.287 232.008 259.248 231.899C259.209 231.789 259.193 231.672 259.201 231.555L262.594 175.612C262.608 175.404 262.698 175.209 262.847 175.064C262.996 174.918 263.192 174.833 263.4 174.823L290.274 173.439C290.389 173.433 290.503 173.451 290.611 173.491C290.719 173.531 290.818 173.593 290.901 173.672C290.984 173.752 291.051 173.847 291.096 173.953C291.141 174.059 291.164 174.173 291.164 174.288L290.214 231.097C290.214 231.321 290.126 231.535 289.969 231.694C289.812 231.853 289.598 231.944 289.374 231.946Z" fill="#D5E3F9"/>
<path d="M327.835 232.472H296.407C296.182 232.472 295.966 232.383 295.807 232.224C295.648 232.064 295.558 231.848 295.558 231.623L298.188 174.509C298.188 174.292 298.27 174.084 298.418 173.926C298.566 173.768 298.769 173.673 298.985 173.66L325.74 171.86C325.856 171.853 325.972 171.87 326.08 171.91C326.189 171.949 326.289 172.011 326.373 172.09C326.457 172.17 326.525 172.266 326.57 172.372C326.616 172.479 326.64 172.593 326.639 172.709L328.667 231.632C328.665 231.853 328.577 232.064 328.421 232.221C328.266 232.378 328.056 232.468 327.835 232.472Z" fill="#D5E3F9"/>
<path d="M160.325 194.379L134.028 192.791C133.917 192.785 133.808 192.756 133.707 192.708C133.607 192.659 133.517 192.591 133.443 192.507C133.369 192.424 133.312 192.326 133.276 192.221C133.239 192.115 133.224 192.003 133.231 191.892L133.978 180.688C133.991 180.472 134.086 180.269 134.243 180.12C134.401 179.972 134.609 179.889 134.826 179.89L158.909 179.092C159.118 179.091 159.321 179.167 159.478 179.307C159.634 179.446 159.734 179.639 159.757 179.847L161.258 193.428C161.274 193.555 161.262 193.684 161.221 193.806C161.18 193.927 161.112 194.038 161.022 194.13C160.932 194.221 160.823 194.291 160.702 194.334C160.582 194.377 160.453 194.392 160.325 194.379Z" fill="#FFE7E2"/>
<path d="M200.237 24.613L175.45 26.2003C175.335 26.2072 175.219 26.1904 175.11 26.1509C175.001 26.1114 174.901 26.0499 174.817 25.9704C174.733 25.8909 174.666 25.795 174.62 25.6885C174.574 25.5821 174.551 25.4674 174.551 25.3515V11.7709L200.135 10.1243C200.251 10.1173 200.367 10.1341 200.475 10.1737C200.584 10.2132 200.684 10.2746 200.768 10.3541C200.852 10.4336 200.92 10.5296 200.965 10.636C201.011 10.7425 201.035 10.8572 201.034 10.9731V23.7982C201.026 24.0089 200.94 24.209 200.793 24.3596C200.645 24.5102 200.447 24.6005 200.237 24.613Z" fill="#FFE7E2"/>
<path d="M183.526 20.2842L160.385 19.4949C160.16 19.4949 159.944 19.4054 159.785 19.2463C159.626 19.0871 159.536 18.8712 159.536 18.6461V6.66971C159.536 6.4446 159.626 6.2287 159.785 6.06953C159.944 5.91035 160.16 5.82092 160.385 5.82092L184.272 6.6103C184.388 6.61009 184.503 6.63362 184.609 6.67942C184.715 6.72523 184.811 6.79234 184.891 6.87663C184.97 6.96093 185.032 7.0606 185.071 7.16953C185.111 7.27846 185.127 7.39434 185.121 7.51001L184.374 19.4949C184.359 19.7095 184.263 19.9104 184.106 20.057C183.948 20.2035 183.741 20.2848 183.526 20.2842Z" fill="#FF6952"/>
<path d="M428.832 227.167L403.299 226.378C403.182 226.378 403.067 226.354 402.96 226.308C402.853 226.262 402.756 226.194 402.677 226.109C402.597 226.023 402.536 225.923 402.497 225.813C402.458 225.703 402.442 225.586 402.45 225.47L403.239 213.527L428.051 212.678C428.268 212.678 428.476 212.76 428.634 212.909C428.792 213.057 428.887 213.26 428.9 213.476L429.646 226.251C429.655 226.365 429.641 226.48 429.605 226.588C429.569 226.697 429.511 226.797 429.435 226.883C429.359 226.969 429.266 227.038 429.162 227.087C429.059 227.136 428.946 227.163 428.832 227.167Z" fill="#FFE7E2"/>
<path d="M414.632 222.074L389.056 221.285C388.838 221.285 388.629 221.202 388.471 221.052C388.313 220.902 388.219 220.696 388.208 220.479L387.461 207.688C387.455 207.568 387.474 207.449 387.517 207.337C387.56 207.226 387.626 207.125 387.711 207.041C387.796 206.956 387.898 206.891 388.01 206.849C388.122 206.807 388.241 206.789 388.36 206.796L413.19 208.384C413.388 208.396 413.575 208.478 413.719 208.614C413.863 208.751 413.955 208.933 413.979 209.131L415.463 221.124C415.477 221.242 415.467 221.362 415.431 221.476C415.396 221.59 415.338 221.695 415.259 221.785C415.181 221.874 415.084 221.947 414.976 221.996C414.868 222.046 414.751 222.073 414.632 222.074Z" fill="#FF6952"/>
<path d="M288.653 0.388763L168.087 -2.23398L170.717 -88.53L290.418 -91.6451L288.653 0.388763ZM171.59 -5.55273L285.337 -3.08276L286.965 -88.1566L174.008 -85.2198L171.59 -5.55273Z" fill="#00B28C"/>
<path d="M286.991 123.225H173.228L171.531 37.2091L285.294 34.6627L286.991 123.225Z" fill="#D5E3F9"/>
<path d="M288.721 124.948H171.565L169.801 35.5794L286.957 32.9566L288.721 124.948ZM174.89 121.553H285.26L283.631 36.4281L173.262 38.8981L174.89 121.553Z" fill="#00B28C"/>
<path d="M201.034 260.329H67.1924V298.711H201.034V260.329Z" fill="#FF6952"/>
<path d="M142.715 231.674C139.958 228.39 133.689 226.064 128.387 226.896C123.086 227.727 118.089 232.795 119.387 237.998C112.813 233.677 107.155 232.795 101.76 234.314C95.6693 236.012 94.5156 241.384 96.4836 243.014C89.3156 240.587 81.2654 239.84 76.1248 241.843C71.349 243.71 68.7957 248.514 69.9069 252.47C62.0434 250.271 57.6832 257.443 59.3798 262.553C61.3054 268.384 70.3396 268.902 76.2606 267.264C76.3284 270.591 80.5614 274.827 84.2005 276.049C96.4242 280.157 108.275 277.967 118.81 270.549C121.444 273.342 124.63 275.558 128.164 277.056C131.699 278.554 135.505 279.301 139.344 279.25C143.182 279.199 146.967 278.351 150.461 276.759C153.954 275.168 157.079 272.868 159.638 270.005C171.039 278.536 182.601 277.407 188.132 274.385C193.519 271.448 193.637 263.852 192.144 263.147C216.286 269.386 215.531 252.962 200.534 248.913C202.714 244.109 198.965 238.991 193.434 236.852C184.103 233.245 174.305 234.051 167.4 240.468C169.029 235.816 166.815 231.522 160.105 229.026C157.235 227.906 154.122 227.562 151.077 228.026C148.032 228.491 145.163 229.749 142.757 231.674" fill="#00B28C"/>
<path d="M91.4788 257.078C91.6184 256.635 91.6413 256.163 91.5453 255.709C91.4492 255.254 91.2375 254.832 90.9305 254.483C90.6236 254.134 90.2318 253.871 89.7932 253.718C89.3546 253.565 88.884 253.528 88.4269 253.611C87.9698 253.693 87.5418 253.892 87.1842 254.189C86.8267 254.486 86.5518 254.87 86.3861 255.304C86.2204 255.738 86.1695 256.208 86.2384 256.667C86.3073 257.127 86.4936 257.561 86.7793 257.927C86.5025 257.541 86.1326 257.231 85.704 257.026C85.2754 256.821 84.802 256.728 84.3278 256.756C83.3947 256.858 82.2664 257.859 83.0044 259.795C83.3638 260.796 83.9594 261.695 84.7407 262.416C85.522 263.137 86.4658 263.659 87.4918 263.937C88.5319 264.225 89.6298 264.231 90.6731 263.955C91.7165 263.679 92.6678 263.131 93.4298 262.366C95.1264 260.541 96.051 257.978 94.8464 256.612C93.8709 255.534 91.835 255.916 91.4788 257.078Z" fill="#FFE87B"/>
<path d="M91.4448 259.684C91.4448 260.762 90.4438 261.339 89.1544 261.051C87.865 260.762 86.7029 260.304 86.7029 259.353C86.7029 258.751 87.3645 258.284 88.7133 258.284C90.0621 258.284 91.4448 258.793 91.4448 259.684Z" fill="#FF886D"/>
<path d="M182.448 249.465C182.588 249.022 182.611 248.55 182.515 248.095C182.419 247.64 182.207 247.218 181.9 246.869C181.593 246.521 181.202 246.257 180.763 246.104C180.324 245.951 179.854 245.915 179.397 245.997C178.94 246.08 178.512 246.279 178.154 246.576C177.796 246.872 177.521 247.256 177.356 247.69C177.19 248.124 177.139 248.594 177.208 249.054C177.277 249.513 177.463 249.947 177.749 250.314C177.472 249.927 177.102 249.617 176.674 249.413C176.245 249.208 175.772 249.115 175.297 249.142C174.364 249.244 173.236 250.246 173.974 252.181C174.337 253.181 174.935 254.08 175.717 254.801C176.499 255.522 177.444 256.044 178.47 256.323C179.51 256.61 180.608 256.616 181.651 256.34C182.694 256.065 183.646 255.517 184.408 254.753C186.105 252.928 187.021 250.365 185.816 248.998C184.841 247.92 182.805 248.294 182.448 249.465Z" fill="#FFE87B"/>
<path d="M182.423 252.071C182.423 253.149 181.414 253.768 180.124 253.437C178.835 253.106 177.673 252.682 177.673 251.74C177.673 251.128 178.334 250.67 179.683 250.67C181.032 250.67 182.423 251.179 182.423 252.071Z" fill="#FF886D"/>
<path d="M139.313 240.434C139.469 240.014 139.512 239.56 139.436 239.118C139.361 238.676 139.17 238.262 138.884 237.918C138.597 237.573 138.225 237.31 137.804 237.156C137.384 237.002 136.93 236.961 136.488 237.039C136.102 237.023 135.719 237.106 135.374 237.281C135.029 237.456 134.734 237.716 134.518 238.037C134.302 238.357 134.172 238.728 134.14 239.114C134.107 239.499 134.174 239.886 134.334 240.239C134.095 239.797 133.713 239.449 133.25 239.254C132.788 239.058 132.273 239.025 131.789 239.161C130.423 239.585 130.254 241.325 130.72 242.556C131.061 243.544 131.614 244.445 132.339 245.197C133.064 245.949 133.945 246.534 134.919 246.91C135.871 247.3 136.912 247.416 137.926 247.243C138.94 247.071 139.885 246.617 140.654 245.934C142.528 244.321 143.775 241.894 142.74 240.391C141.867 239.186 139.805 239.322 139.313 240.434Z" fill="#FF886D"/>
<path d="M138.754 242.454C138.754 243.523 137.753 244.101 136.463 243.82C135.174 243.54 134.012 243.065 134.012 242.123C134.012 241.52 134.665 241.053 136.022 241.053C137.379 241.053 138.754 241.563 138.754 242.454Z" fill="#A0B7EE"/>
<path d="M152.317 260.864C152.473 260.445 152.515 259.992 152.44 259.551C152.365 259.11 152.175 258.697 151.89 258.352C151.604 258.008 151.233 257.745 150.814 257.59C150.394 257.435 149.942 257.393 149.501 257.469C149.115 257.453 148.731 257.537 148.386 257.711C148.041 257.886 147.747 258.146 147.531 258.467C147.315 258.788 147.185 259.158 147.152 259.544C147.12 259.929 147.187 260.317 147.347 260.669C147.105 260.229 146.723 259.884 146.261 259.688C145.799 259.493 145.285 259.458 144.802 259.591C143.436 260.015 143.275 261.755 143.741 262.986C144.082 263.974 144.635 264.875 145.36 265.627C146.085 266.379 146.966 266.964 147.94 267.34C148.892 267.731 149.933 267.846 150.947 267.673C151.961 267.501 152.906 267.047 153.675 266.364C155.549 264.751 156.788 262.324 155.761 260.822C154.879 259.616 152.809 259.752 152.317 260.864Z" fill="#A0B7EE"/>
<path d="M152.148 262.613C152.148 263.682 151.138 264.259 149.858 263.979C148.577 263.699 147.406 263.224 147.406 262.281C147.406 261.679 148.059 261.212 149.416 261.212C150.774 261.212 152.148 261.721 152.148 262.613Z" fill="#FFE87B"/>
<path d="M523.237 260.329H389.395V298.711H523.237V260.329Z" fill="#FF6952"/>
<path d="M457.029 238.405C454.764 235.12 451.498 233.694 447.163 234.051C442.829 234.407 439.699 237.446 440.165 241.274C438.729 239.598 436.895 238.31 434.832 237.527C432.77 236.745 430.543 236.493 428.358 236.794C426.172 237.096 424.097 237.941 422.323 239.253C420.549 240.565 419.132 242.302 418.203 244.304C414.734 241.427 409.152 240.62 404.554 241.52C399.957 242.42 396.402 246.002 397.208 249.957C395.745 249.297 394.162 248.944 392.557 248.919C390.953 248.894 389.36 249.198 387.877 249.813C384.976 251.171 382.855 254.362 383.313 257.537C383.434 258.41 383.73 259.251 384.183 260.007C384.636 260.764 385.237 261.421 385.95 261.94C386.662 262.459 387.472 262.829 388.331 263.028C389.19 263.226 390.08 263.25 390.948 263.096C390.702 267.34 394.112 271.584 397.87 272.747C408.668 276.023 417.592 274.385 425.498 268.376C438.299 277.619 457.029 277.628 469.829 268.376C473.706 275.302 482.393 277.288 491.037 275.259C496.033 274.097 501.055 269.691 501.844 264.743C508.155 268.376 516.892 270.472 523.619 267.867C530.592 265.167 533.383 260.083 531.313 254.167C529.158 248.039 521.795 245.798 516.281 247.02C517.13 243.031 513.372 237.684 508.036 235.927C499.222 233.024 489.179 234.543 483.979 238.524C483.801 234.509 477.685 232.362 473.155 232.404C466.555 232.489 461.05 234.306 457.029 238.405Z" fill="#00B28C"/>
<path d="M445.95 249.117C444.884 249.839 443.615 250.201 442.329 250.151C441.042 250.1 439.806 249.64 438.799 248.837C437.858 248.939 436.738 249.94 437.476 251.867C437.833 252.869 438.428 253.77 439.209 254.492C439.991 255.213 440.936 255.734 441.963 256.009C443.003 256.301 444.102 256.309 445.146 256.033C446.19 255.757 447.141 255.206 447.901 254.439C449.598 252.614 450.522 250.059 449.318 248.692C448.342 247.581 446.307 247.954 445.95 249.117Z" fill="#FFE87B"/>
<path d="M445.916 251.731C445.916 252.809 444.915 253.378 443.626 253.098C442.337 252.818 441.174 252.342 441.174 251.4C441.174 250.797 441.828 250.331 443.185 250.331C444.542 250.331 445.916 250.84 445.916 251.731Z" fill="#FF886D"/>
<path d="M503.93 241.333C502.862 242.052 501.593 242.411 500.308 242.359C499.022 242.307 497.786 241.847 496.779 241.045C495.838 241.147 494.718 242.148 495.456 244.084C495.813 245.086 496.408 245.987 497.189 246.708C497.971 247.43 498.916 247.95 499.943 248.226C500.983 248.514 502.081 248.52 503.125 248.244C504.168 247.968 505.119 247.42 505.881 246.655C507.578 244.83 508.503 242.267 507.298 240.901C506.323 239.789 504.287 240.171 503.93 241.333Z" fill="#FFE87B"/>
<path d="M503.879 243.948C503.879 245.017 502.878 245.594 501.589 245.314C500.3 245.034 499.137 244.559 499.137 243.617C499.137 243.014 499.799 242.547 501.148 242.547C502.497 242.547 503.879 243.048 503.879 243.948Z" fill="#FF886D"/>
<path d="M491.062 257.622C491.218 257.202 491.26 256.748 491.185 256.306C491.109 255.864 490.919 255.45 490.632 255.105C490.346 254.761 489.973 254.498 489.553 254.344C489.132 254.19 488.678 254.149 488.237 254.227C487.851 254.212 487.467 254.296 487.122 254.472C486.777 254.648 486.483 254.909 486.268 255.231C486.053 255.552 485.923 255.924 485.892 256.31C485.862 256.696 485.93 257.083 486.091 257.435C485.85 256.995 485.468 256.648 485.006 256.451C484.545 256.254 484.031 256.218 483.546 256.348C482.18 256.773 482.019 258.521 482.477 259.744C482.817 260.733 483.369 261.637 484.094 262.39C484.819 263.144 485.701 263.73 486.676 264.106C487.629 264.497 488.672 264.613 489.687 264.441C490.702 264.268 491.649 263.814 492.419 263.13C494.294 261.518 495.532 259.082 494.497 257.588C493.615 256.374 491.554 256.51 491.062 257.622Z" fill="#FF886D"/>
<path d="M490.502 259.633C490.502 260.711 489.501 261.288 488.212 261C486.922 260.711 485.76 260.244 485.76 259.302C485.76 258.691 486.422 258.233 487.771 258.233C489.119 258.233 490.502 258.742 490.502 259.633Z" fill="#A0B7EE"/>
<path d="M416.608 258.581C416.764 258.161 416.807 257.707 416.731 257.265C416.656 256.823 416.465 256.409 416.179 256.065C415.892 255.72 415.52 255.457 415.099 255.303C414.678 255.149 414.225 255.108 413.783 255.186C413.398 255.171 413.015 255.256 412.672 255.431C412.328 255.607 412.035 255.867 411.82 256.188C411.605 256.508 411.475 256.878 411.443 257.263C411.411 257.648 411.478 258.034 411.637 258.386C411.394 257.937 411.005 257.585 410.534 257.389C410.063 257.193 409.539 257.164 409.05 257.308C407.684 257.732 407.523 259.472 407.981 260.703C408.322 261.691 408.875 262.592 409.6 263.344C410.325 264.096 411.206 264.681 412.18 265.057C413.133 265.45 414.176 265.567 415.192 265.394C416.207 265.222 417.154 264.766 417.923 264.081C419.798 262.468 421.036 260.041 420.001 258.538C419.162 257.359 417.1 257.469 416.608 258.581Z" fill="#A0B7EE"/>
<path d="M416.439 260.329C416.439 261.407 415.429 261.976 414.14 261.696C412.85 261.416 411.688 260.94 411.688 259.998C411.688 259.396 412.35 258.929 413.699 258.929C415.047 258.929 416.439 259.438 416.439 260.329Z" fill="#FFE87B"/>
<path d="M351.087 278.578L235.644 277.729L237.281 255.041C237.297 254.827 237.392 254.626 237.55 254.479C237.707 254.333 237.915 254.251 238.13 254.252L350.247 255.101C350.472 255.101 350.688 255.19 350.847 255.349C351.006 255.509 351.095 255.724 351.095 255.95L351.087 278.578Z" fill="#FFFAEB"/>
<path d="M362.505 298.72H224.235L225.864 275.183C225.879 274.968 225.975 274.767 226.132 274.621C226.29 274.474 226.497 274.393 226.712 274.394L360.028 276.091C360.242 276.091 360.448 276.171 360.605 276.315C360.762 276.46 360.859 276.659 360.876 276.872L362.505 298.72Z" fill="#FFFAEB"/>
<path d="M192.356 98.2791C195.478 101.038 195.945 105.613 195.945 105.613C195.945 105.613 191.355 105.706 188.234 102.939C185.112 100.172 184.646 95.6055 184.646 95.6055C184.646 95.6055 189.235 95.5121 192.356 98.2791Z" fill="#009375"/>
<path d="M202.027 96.6326C201.424 100.758 197.862 103.652 197.862 103.652C197.862 103.652 195.266 99.8579 195.868 95.7328C196.471 91.6077 200.042 88.7134 200.042 88.7134C200.042 88.7134 202.629 92.5075 202.027 96.6326Z" fill="#009375"/>
<path d="M205.42 101.471C202.417 104.356 197.828 104.45 197.828 104.45C197.828 104.45 198.108 99.8664 201.119 96.9805C204.131 94.0946 208.711 94.0013 208.711 94.0013C208.711 94.0013 208.431 98.5847 205.42 101.471Z" fill="#009375"/>
<path d="M197.412 93.9249C198.786 98.729 196.309 103.652 196.309 103.652C196.309 103.652 191.61 100.783 190.244 95.9705C188.878 91.1579 191.347 86.2519 191.347 86.2519C191.347 86.2519 196.046 89.1208 197.412 93.9249Z" fill="#009375"/>
<path d="M203.52 122.138L189.099 121.638L185.706 102.523L206.845 101.649L203.52 122.138Z" fill="#F3B131"/>
<path d="M195.47 92.4226C195.36 92.3686 195.24 92.3406 195.118 92.3406C194.996 92.3406 194.875 92.3686 194.766 92.4226C194.621 92.0406 194.384 91.752 194.121 91.735C193.885 91.7444 193.659 91.8333 193.481 91.9875C193.302 92.1417 193.181 92.3519 193.137 92.5838C192.953 92.4812 192.742 92.4375 192.533 92.4588C192.323 92.48 192.126 92.5652 191.966 92.7027C191.635 93.0677 191.907 94.0353 192.577 94.5615C192.793 94.7345 193.041 94.8625 193.307 94.9379C193.573 95.0133 193.851 95.0346 194.126 95.0006C194.4 94.9666 194.665 94.8779 194.904 94.7398C195.144 94.6017 195.354 94.417 195.521 94.1965C195.636 94.0777 195.726 93.9371 195.785 93.7829C195.845 93.6287 195.874 93.4641 195.869 93.2988C195.864 93.1335 195.826 92.9708 195.758 92.8203C195.689 92.6698 195.591 92.5346 195.47 92.4226Z" fill="#FF6952"/>
<path d="M200.585 97.6087C200.477 97.5529 200.358 97.5237 200.237 97.5237C200.116 97.5237 199.997 97.5529 199.889 97.6087C199.745 97.2182 199.507 96.9296 199.244 96.9127C199.009 96.922 198.783 97.011 198.604 97.1651C198.426 97.3193 198.304 97.5295 198.26 97.7614C198.078 97.6576 197.867 97.6125 197.658 97.6323C197.448 97.652 197.25 97.7356 197.09 97.8718C196.759 98.2368 197.03 99.2044 197.701 99.7306C197.916 99.9047 198.164 100.034 198.43 100.11C198.696 100.186 198.975 100.207 199.25 100.173C199.524 100.139 199.79 100.05 200.029 99.9115C200.269 99.7727 200.478 99.587 200.644 99.3656C200.757 99.2472 200.845 99.1073 200.903 98.9543C200.962 98.8014 200.989 98.6383 200.983 98.4747C200.978 98.3111 200.94 98.1502 200.871 98.0015C200.803 97.8528 200.705 97.7192 200.585 97.6087Z" fill="#FF6952"/>
<path d="M311.073 123.225L422.292 120.679L426.533 36.3603L311.922 32.1163L311.073 123.225Z" fill="#D5E3F9"/>
<path d="M309.36 124.948L310.208 30.3508L311.956 30.4102L428.28 34.7221L423.878 122.325L309.36 124.948ZM313.601 33.8733L312.753 121.476L420.68 119.006L424.752 37.9899L313.601 33.8733Z" fill="#00B28C"/>
<path d="M136.811 18.0519C139.067 17.967 141.332 17.8058 143.597 17.7548C144.708 17.7548 145.837 17.7548 146.948 17.7124C148.059 17.67 149.255 17.7124 150.392 17.6275C150.604 17.6275 150.689 17.271 150.443 17.2286C149.323 17.0249 148.169 17.0588 147.05 16.9485C145.905 16.8848 144.758 16.8848 143.614 16.9485C141.314 16.9725 139.017 17.1284 136.735 17.4153C136.37 17.4663 136.455 18.0774 136.828 18.0604L136.811 18.0519Z" fill="#343B38"/>
<path d="M159.341 7.56947C159.206 8.80021 159.223 10.0394 159.206 11.2871C159.206 12.3906 159.206 13.4855 159.206 14.5889C159.206 15.6923 159.29 16.957 159.384 18.1369C159.365 18.3511 159.4 18.5667 159.486 18.7638C159.572 18.961 159.706 19.1335 159.876 19.2657C160.418 19.4653 161 19.5294 161.572 19.4525C165.737 19.5968 169.894 19.8429 174.051 20.0975C176.595 20.2503 179.191 20.4031 181.761 20.5304C182.355 20.5304 182.347 19.6816 181.761 19.6222C177.681 19.4355 173.601 19.1809 169.512 18.9602C167.51 18.8583 165.508 18.765 163.506 18.6971L161.886 18.6376H161.08C160.916 18.6461 160.752 18.6461 160.588 18.6376C160.317 18.6376 160.308 18.6376 160.257 18.3406C160.185 17.8061 160.151 17.2672 160.156 16.7279C160.122 16.1224 160.096 15.5198 160.079 14.9199C160.136 12.4577 160.04 9.99428 159.791 7.544C159.791 7.27238 159.384 7.37425 159.358 7.60342L159.341 7.56947Z" fill="#343B38"/>
<path d="M174.271 20.072C174.271 21.0142 174.271 21.9563 174.271 22.8985C174.271 23.3483 174.271 23.7982 174.271 24.2396C174.241 24.6976 174.275 25.1577 174.373 25.6061C174.432 25.7818 174.547 25.9333 174.7 26.0375C174.853 26.1418 175.036 26.1929 175.221 26.1833C175.747 26.1833 176.29 26.1833 176.816 26.1239C177.868 26.1239 178.911 26.039 179.963 25.9965C184.077 25.8268 188.191 25.657 192.306 25.4363L195.8 25.2581L197.607 25.1732C198.203 25.2005 198.799 25.1462 199.38 25.012C199.464 24.9869 199.538 24.9354 199.59 24.865C199.643 24.7947 199.671 24.7093 199.671 24.6215C199.671 24.5338 199.643 24.4484 199.59 24.378C199.538 24.3077 199.464 24.2561 199.38 24.2311C198.904 24.1485 198.418 24.1342 197.938 24.1886L196.454 24.2565L193.442 24.4178C191.508 24.5197 189.574 24.6357 187.64 24.7658C183.704 25.012 179.759 25.2496 175.764 25.343C175.637 25.343 175.23 25.4279 175.119 25.343C175.009 25.2581 175.077 24.6894 175.068 24.5536L174.992 23.1192C174.992 22.1006 174.873 21.0906 174.78 20.0805C174.78 19.7325 174.212 19.7155 174.22 20.0805L174.271 20.072Z" fill="#343B38"/>
<path d="M146.982 24.9102C147.848 24.9951 148.72 24.9951 149.586 24.9102C150.434 24.9102 151.376 24.8508 152.267 24.8083C154.056 24.7234 155.846 24.6386 157.636 24.5367C159.426 24.4348 161.216 24.3245 162.997 24.1717L165.678 23.951C166.586 23.8662 167.468 23.7304 168.358 23.62C168.664 23.62 168.681 23.1277 168.358 23.1362C167.468 23.1362 166.577 23.1362 165.678 23.2211L162.997 23.3739C161.216 23.4672 159.426 23.5861 157.636 23.6879L152.267 23.968L149.586 24.1038C148.713 24.0933 147.841 24.1643 146.982 24.316C146.71 24.3754 146.685 24.8507 146.982 24.8932V24.9102Z" fill="#343B38"/>
<path d="M138.872 156.048C139.96 156.237 141.06 156.351 142.164 156.387C143.258 156.463 144.361 156.523 145.455 156.582C147.669 156.71 149.891 156.803 152.114 156.888C156.525 157.049 160.945 157.193 165.356 157.21H169.071C170.319 157.259 171.569 157.188 172.804 156.998C172.881 156.974 172.95 156.926 172.998 156.86C173.047 156.794 173.073 156.715 173.073 156.633C173.073 156.552 173.047 156.472 172.998 156.406C172.95 156.341 172.881 156.292 172.804 156.268C171.708 156.11 170.602 156.044 169.495 156.073H166.289L159.621 155.997C155.202 155.92 150.791 155.767 146.38 155.615L142.757 155.479L140.9 155.419C140.255 155.385 139.61 155.385 138.966 155.419C138.601 155.419 138.465 156.005 138.872 156.098V156.048Z" fill="#343B38"/>
<path d="M163.837 162.057C171.531 162.125 179.233 162.286 186.927 162.125L190.134 162.065C191.237 162.065 192.339 161.896 193.434 161.819C193.517 161.819 193.597 161.786 193.656 161.727C193.715 161.668 193.748 161.589 193.748 161.505C193.748 161.422 193.715 161.342 193.656 161.283C193.597 161.224 193.517 161.191 193.434 161.191L192 161.115C191.517 161.115 191.042 161.013 190.558 161.004C189.599 161.004 188.641 161.004 187.682 161.004C185.765 161.004 183.857 161.004 181.94 161.004C178.08 161.055 174.203 161.004 170.352 161.217C168.189 161.327 166.009 161.335 163.837 161.386C163.749 161.386 163.665 161.421 163.603 161.483C163.541 161.545 163.506 161.63 163.506 161.717C163.506 161.805 163.541 161.889 163.603 161.951C163.665 162.014 163.749 162.048 163.837 162.048V162.057Z" fill="#343B38"/>
<path d="M134.393 180.459C133.879 182.999 133.558 185.576 133.435 188.166C133.392 188.819 133.367 189.473 133.341 190.126C133.243 190.745 133.243 191.375 133.341 191.994C133.415 192.219 133.545 192.423 133.718 192.585C133.892 192.746 134.104 192.861 134.334 192.919C134.616 192.953 134.901 192.953 135.182 192.919C135.539 192.919 135.895 192.97 136.251 192.995C138.872 193.216 141.519 193.292 144.149 193.453C146.778 193.615 149.238 193.734 151.715 193.861C154.741 194.09 157.777 194.149 160.809 194.039C160.899 194.026 160.982 193.98 161.041 193.911C161.101 193.841 161.134 193.753 161.134 193.661C161.134 193.57 161.101 193.482 161.041 193.412C160.982 193.343 160.899 193.297 160.809 193.284C158.264 192.961 155.668 192.885 153.098 192.766L145.82 192.418C143.402 192.299 140.993 192.223 138.584 192.146L136.658 192.095C136.002 192.151 135.342 192.134 134.69 192.044C134.13 191.892 134.292 191.196 134.3 190.737C134.3 190.101 134.3 189.464 134.3 188.828C134.376 186.044 134.631 183.268 134.775 180.484C134.775 180.431 134.755 180.38 134.72 180.34C134.685 180.3 134.637 180.274 134.585 180.267C134.532 180.259 134.478 180.271 134.434 180.3C134.39 180.329 134.357 180.374 134.342 180.425L134.393 180.459Z" fill="#343B38"/>
<path d="M138.584 197.944C142.384 198.224 146.218 198.376 150.01 198.64C153.802 198.903 157.56 199.174 161.343 199.429C163.481 199.565 165.644 199.718 167.79 199.684C167.977 199.684 168.036 199.386 167.79 199.344C166.866 199.149 165.932 199.022 164.999 198.894C164.066 198.767 163.15 198.614 162.217 198.521C160.317 198.325 158.425 198.156 156.517 198.028C152.682 197.757 148.882 197.596 145.014 197.477C142.851 197.409 140.696 197.366 138.541 197.4C138.469 197.4 138.4 197.429 138.35 197.48C138.299 197.531 138.27 197.6 138.27 197.672C138.27 197.744 138.299 197.813 138.35 197.864C138.4 197.915 138.469 197.944 138.541 197.944H138.584Z" fill="#343B38"/>
<path d="M387.453 208.579C386.698 212.823 387.266 217.22 387.936 221.446C387.974 221.578 388.053 221.694 388.161 221.778C388.269 221.862 388.402 221.91 388.539 221.913C389.87 221.913 391.194 221.913 392.526 221.913C394.298 221.913 396.063 221.845 397.836 221.913L408.982 222.193L411.527 222.253C412.221 222.325 412.92 222.325 413.614 222.253C413.702 222.222 413.778 222.164 413.832 222.088C413.885 222.012 413.914 221.922 413.914 221.828C413.914 221.735 413.885 221.644 413.832 221.568C413.778 221.492 413.702 221.435 413.614 221.404C413.02 221.277 412.414 221.217 411.807 221.226L409.61 221.149L404.308 221.005C402.4 220.954 400.491 220.937 398.574 220.903C396.657 220.869 394.96 220.767 393.153 220.708C391.618 220.708 390.082 220.708 388.547 220.708L389.149 221.166C388.793 219.112 388.471 217.041 388.301 214.962C388.131 212.882 388.038 210.786 388.004 208.698C388.004 208.418 387.555 208.333 387.495 208.63L387.453 208.579Z" fill="#343B38"/>
<path d="M403.46 221.828C403.093 222.473 402.919 223.21 402.959 223.95C402.866 224.74 402.722 225.546 402.705 226.344C402.707 226.489 402.766 226.627 402.869 226.729C402.972 226.83 403.111 226.887 403.256 226.887C404.144 226.838 405.035 226.86 405.92 226.955C406.768 226.998 407.616 227.04 408.465 227.065C410.11 227.133 411.764 227.184 413.41 227.227C416.676 227.329 419.942 227.447 423.208 227.43C425.176 227.43 427.144 227.43 429.103 227.235C429.179 227.223 429.247 227.184 429.297 227.126C429.346 227.067 429.374 226.993 429.374 226.917C429.374 226.84 429.346 226.766 429.297 226.708C429.247 226.65 429.179 226.611 429.103 226.599C425.753 226.242 422.317 226.259 418.975 226.2C415.734 226.149 412.497 226.078 409.262 225.987L406.412 225.954H404.927C404.417 225.97 403.906 225.945 403.4 225.877L403.791 226.556C403.926 225.775 403.952 224.969 404.02 224.18C404.2 223.449 404.18 222.684 403.96 221.964C403.935 221.922 403.902 221.887 403.861 221.86C403.821 221.833 403.775 221.816 403.726 221.809C403.678 221.803 403.629 221.807 403.583 221.822C403.537 221.837 403.495 221.863 403.46 221.896V221.828Z" fill="#343B38"/>
<path d="M239.216 144.682C238.902 146.003 238.664 147.341 238.503 148.689C238.308 150.081 238.121 151.473 237.935 152.865C237.578 155.598 237.273 158.339 237.163 161.098C237.112 162.235 237.052 163.364 238.011 164.128C238.969 164.892 240.31 164.595 241.404 164.595L249.582 164.544C255.197 164.493 260.813 164.416 266.428 164.315C272.052 164.221 277.677 164.119 283.292 164.052C288.908 163.984 294.32 164.001 299.783 163.865C300.437 163.853 301.089 163.791 301.734 163.678C301.813 163.651 301.881 163.6 301.93 163.533C301.978 163.465 302.004 163.384 302.004 163.3C302.004 163.217 301.978 163.136 301.93 163.068C301.881 163 301.813 162.949 301.734 162.923C300.447 162.742 299.147 162.671 297.849 162.71H293.862C291.164 162.71 288.47 162.742 285.778 162.804C280.298 162.889 274.821 162.991 269.346 163.109C263.872 163.228 258.395 163.33 252.915 163.415C250.223 163.455 247.531 163.486 244.84 163.508H240.861C239.92 163.508 238.537 163.771 238.147 162.617C238.035 162.021 238.02 161.41 238.104 160.809C238.104 160.164 238.155 159.511 238.198 158.865C238.282 157.507 238.401 156.158 238.537 154.817C238.808 152.109 239.139 149.401 239.385 146.685C239.436 146.013 239.436 145.338 239.385 144.665C239.378 144.64 239.363 144.618 239.343 144.602C239.322 144.586 239.297 144.578 239.271 144.578C239.245 144.578 239.219 144.586 239.199 144.602C239.178 144.618 239.163 144.64 239.156 144.665L239.216 144.682Z" fill="#343B38"/>
<path d="M249.14 164.077C249.013 165.231 249.013 166.403 248.971 167.557C248.928 168.711 248.886 169.934 248.852 171.13C248.773 173.665 248.688 176.212 248.597 178.769C248.411 183.922 248.207 189.082 248.038 194.234C247.987 195.635 247.97 197.035 247.936 198.427C247.902 199.819 247.868 201.169 247.936 202.535C247.936 202.773 248.351 202.875 248.394 202.595C248.572 201.432 248.648 200.244 248.716 199.072C248.784 197.901 248.886 196.577 248.937 195.329C249.047 192.783 249.157 190.237 249.251 187.69C249.42 182.521 249.573 177.344 249.675 172.174C249.675 170.808 249.717 169.441 249.717 168.083C249.717 166.725 249.777 165.435 249.666 164.119C249.655 164.055 249.621 163.996 249.571 163.953C249.52 163.911 249.456 163.888 249.391 163.888C249.325 163.888 249.261 163.911 249.211 163.953C249.16 163.996 249.126 164.055 249.115 164.119L249.14 164.077Z" fill="#343B38"/>
<path d="M236.942 256.561C236.45 261.136 236.094 265.736 235.695 270.328C235.619 271.287 235.492 272.272 235.5 273.239C235.475 273.5 235.513 273.763 235.612 274.006C235.711 274.248 235.868 274.463 236.068 274.631C236.375 274.796 236.723 274.866 237.069 274.835C238.766 274.886 240.462 275.047 242.159 275.132C243.856 275.217 245.671 275.293 247.427 275.361C254.79 275.633 262.162 275.735 269.482 275.769C276.803 275.803 284.336 275.769 291.767 275.769C298.935 275.769 306.102 275.769 313.27 275.879C314.119 275.879 314.967 275.879 315.815 275.879C315.897 275.866 315.972 275.824 316.026 275.761C316.079 275.698 316.109 275.618 316.109 275.535C316.109 275.452 316.079 275.372 316.026 275.309C315.972 275.246 315.897 275.204 315.815 275.192C314.119 275.022 312.422 275.03 310.726 274.988L305.5 274.903C301.937 274.863 298.375 274.835 294.812 274.818C287.534 274.818 280.255 274.818 272.969 274.818C265.682 274.818 258.472 274.725 251.227 274.538C247.698 274.445 244.169 274.326 240.649 274.156L238.062 274.02C237.577 274.028 237.093 274.006 236.611 273.952C236.238 273.876 236.314 273.214 236.323 272.891C236.331 272.569 236.323 272.043 236.391 271.644C236.679 266.975 237.239 262.307 237.349 257.63C237.349 257.282 237.349 256.926 237.349 256.578C237.339 256.525 237.311 256.478 237.27 256.445C237.229 256.411 237.178 256.392 237.124 256.392C237.071 256.392 237.02 256.411 236.979 256.445C236.938 256.478 236.91 256.525 236.9 256.578L236.942 256.561Z" fill="#343B38"/>
<path d="M327.369 275.921C335.75 276.286 344.148 276.473 352.538 276.541H356.049C357.234 276.581 358.421 276.561 359.604 276.482C359.703 276.482 359.798 276.442 359.868 276.372C359.938 276.302 359.977 276.207 359.977 276.108C359.977 276.009 359.938 275.914 359.868 275.844C359.798 275.774 359.703 275.735 359.604 275.735C358.56 275.624 357.508 275.65 356.457 275.633L353.36 275.573L347.032 275.455C342.791 275.378 338.634 275.302 334.435 275.268C332.077 275.268 329.727 275.268 327.369 275.378C327.308 275.389 327.254 275.421 327.214 275.469C327.175 275.516 327.153 275.576 327.153 275.637C327.153 275.699 327.175 275.758 327.214 275.806C327.254 275.853 327.308 275.885 327.369 275.896V275.921Z" fill="#343B38"/>
<path d="M225.702 276.032C225.524 277.013 225.422 278.006 225.397 279.003C225.278 280.488 225.168 281.965 225.058 283.442C224.803 286.899 224.535 290.351 224.252 293.797C224.094 295.444 224.02 297.099 224.031 298.754C224.032 298.798 224.049 298.84 224.079 298.874C224.108 298.907 224.148 298.928 224.192 298.934C224.236 298.94 224.28 298.931 224.318 298.907C224.355 298.883 224.383 298.847 224.396 298.805C224.717 297.408 224.933 295.99 225.041 294.561C225.21 292.863 225.338 291.166 225.448 289.468C225.643 286.192 225.855 282.915 225.965 279.639C225.965 278.969 226.008 278.298 226.033 277.619C226.076 277.114 226.076 276.605 226.033 276.1C226.033 275.93 225.753 275.862 225.711 276.057L225.702 276.032Z" fill="#343B38"/>
<path d="M228.637 292.235C228.536 293.296 228.493 294.374 228.425 295.444C228.425 295.995 228.349 296.547 228.332 297.141C228.249 297.714 228.313 298.298 228.519 298.839C228.539 298.872 228.568 298.9 228.602 298.919C228.636 298.938 228.675 298.948 228.714 298.948C228.753 298.948 228.791 298.938 228.826 298.919C228.86 298.9 228.888 298.872 228.909 298.839C229.091 298.293 229.16 297.715 229.113 297.141C229.113 296.575 229.138 296.009 229.189 295.444C229.293 294.378 229.322 293.305 229.274 292.235C229.261 292.16 229.223 292.091 229.164 292.042C229.106 291.992 229.032 291.965 228.956 291.965C228.879 291.965 228.805 291.992 228.747 292.042C228.689 292.091 228.65 292.16 228.637 292.235Z" fill="#343B38"/>
<path d="M231.42 293.491C231.318 294.34 231.318 295.189 231.284 296.038C231.284 296.479 231.284 296.887 231.225 297.37C231.147 297.852 231.215 298.345 231.42 298.788C231.441 298.821 231.471 298.848 231.506 298.867C231.541 298.886 231.58 298.896 231.619 298.896C231.659 298.896 231.698 298.886 231.733 298.867C231.767 298.848 231.797 298.821 231.818 298.788C232.006 298.34 232.073 297.852 232.014 297.37C232.014 296.92 232.014 296.479 232.014 296.038C232.071 295.19 232.071 294.339 232.014 293.491C232.001 293.416 231.962 293.347 231.904 293.298C231.846 293.248 231.772 293.221 231.696 293.221C231.619 293.221 231.545 293.248 231.487 293.298C231.429 293.347 231.39 293.416 231.377 293.491H231.42Z" fill="#343B38"/>
<path d="M234.126 294.705C234.024 295.384 234.016 296.089 233.965 296.776C233.965 297.141 233.922 297.498 233.905 297.863C233.866 298.05 233.867 298.243 233.906 298.43C233.946 298.617 234.023 298.794 234.134 298.949C234.177 298.992 234.235 299.015 234.296 299.015C234.356 299.015 234.414 298.992 234.457 298.949C234.671 298.63 234.756 298.242 234.694 297.863C234.694 297.498 234.694 297.141 234.694 296.776C234.762 296.088 234.762 295.394 234.694 294.705C234.678 294.636 234.639 294.575 234.583 294.531C234.528 294.487 234.459 294.464 234.389 294.464C234.318 294.464 234.25 294.487 234.194 294.531C234.139 294.575 234.1 294.636 234.083 294.705H234.126Z" fill="#343B38"/>
<path d="M96.0425 260.177C94.5606 260.197 93.1177 260.655 91.8944 261.492C91.0694 261.969 90.3203 262.567 89.6719 263.266C88.9779 263.928 88.5041 264.787 88.3147 265.728C88.3147 266.025 88.6879 266.067 88.8321 265.872C89.2804 265.101 89.788 264.366 90.3506 263.674C90.9369 263.051 91.5979 262.504 92.3186 262.044C92.9607 261.623 93.6496 261.278 94.3714 261.017C94.9113 260.79 95.4842 260.653 96.068 260.609C96.118 260.599 96.1631 260.572 96.1954 260.533C96.2278 260.493 96.2455 260.444 96.2455 260.393C96.2455 260.342 96.2278 260.292 96.1954 260.253C96.1631 260.213 96.118 260.186 96.068 260.177H96.0425Z" fill="#343B38"/>
<path d="M80.7904 260.906C81.1551 260.906 81.5114 260.805 81.8762 260.805C82.2344 260.806 82.5909 260.855 82.9365 260.949C83.6413 261.15 84.3048 261.475 84.8961 261.908C85.4277 262.287 85.9118 262.729 86.3381 263.224C86.4993 263.419 86.6605 263.614 86.8132 263.826C86.9659 264.039 87.0931 264.259 87.2967 264.344C87.3278 264.362 87.3622 264.374 87.3979 264.379C87.4336 264.383 87.4699 264.381 87.5046 264.371C87.5394 264.362 87.5719 264.346 87.6003 264.323C87.6286 264.301 87.6523 264.274 87.67 264.242C87.9244 263.716 87.3815 263.054 87.0507 262.663C86.5604 262.084 85.989 261.578 85.3541 261.161C84.6765 260.715 83.9234 260.396 83.1316 260.219C82.3221 259.991 81.4575 260.063 80.6971 260.423C80.65 260.453 80.6139 260.498 80.5941 260.551C80.5743 260.603 80.5718 260.661 80.5869 260.715C80.6021 260.769 80.6341 260.816 80.6784 260.851C80.7226 260.885 80.7767 260.905 80.8328 260.906H80.7904Z" fill="#343B38"/>
<path d="M128.939 243.54C130.443 243.529 131.91 244.006 133.121 244.898C133.688 245.294 134.235 245.719 134.758 246.172C135.002 246.37 135.226 246.592 135.428 246.834C135.53 246.961 135.615 247.105 135.717 247.241C135.818 247.377 135.954 247.419 136.056 247.53C136.086 247.559 136.123 247.581 136.163 247.592C136.204 247.602 136.247 247.602 136.287 247.591C136.328 247.58 136.365 247.558 136.394 247.528C136.424 247.498 136.444 247.46 136.455 247.419C136.543 247.277 136.587 247.112 136.582 246.944C136.548 246.752 136.479 246.568 136.378 246.401C136.168 246.081 135.911 245.795 135.615 245.552C135.004 245.013 134.349 244.528 133.655 244.101C132.964 243.637 132.184 243.322 131.365 243.176C130.546 243.03 129.705 243.056 128.896 243.252C128.861 243.26 128.829 243.28 128.807 243.309C128.784 243.337 128.772 243.372 128.772 243.409C128.772 243.445 128.784 243.48 128.807 243.509C128.829 243.537 128.861 243.558 128.896 243.566L128.939 243.54Z" fill="#343B38"/>
<path d="M143.801 243.557C142.645 243.635 141.531 244.016 140.569 244.661C139.226 245.393 138.053 246.399 137.125 247.614C136.897 247.928 136.711 248.271 136.573 248.633C136.483 248.799 136.428 248.983 136.414 249.171C136.399 249.36 136.425 249.55 136.489 249.728C136.513 249.77 136.547 249.805 136.588 249.832C136.628 249.859 136.674 249.876 136.722 249.883C136.771 249.889 136.819 249.885 136.866 249.87C136.912 249.855 136.954 249.83 136.989 249.796C137.252 249.592 137.354 249.108 137.506 248.82C137.702 248.476 137.926 248.15 138.177 247.844C138.723 247.179 139.353 246.589 140.051 246.087C140.713 245.586 141.42 245.148 142.164 244.78C142.667 244.477 143.222 244.27 143.801 244.168C143.882 244.168 143.959 244.136 144.017 244.079C144.074 244.022 144.106 243.944 144.106 243.863C144.106 243.782 144.074 243.704 144.017 243.647C143.959 243.59 143.882 243.557 143.801 243.557Z" fill="#343B38"/>
<path d="M141.307 263.207C142.994 263.32 144.57 264.088 145.701 265.346C146.211 265.896 146.645 266.512 146.99 267.179C147.16 267.502 147.304 267.841 147.465 268.172C147.566 268.489 147.758 268.77 148.017 268.978C148.047 268.995 148.08 269.005 148.114 269.007C148.149 269.009 148.183 269.003 148.215 268.99C148.247 268.977 148.275 268.957 148.298 268.931C148.321 268.906 148.338 268.876 148.348 268.843C148.45 268.483 148.414 268.098 148.246 267.765C148.105 267.379 147.929 267.006 147.72 266.653C147.303 265.924 146.792 265.254 146.201 264.658C145.567 264.008 144.804 263.498 143.961 263.16C143.118 262.823 142.214 262.665 141.307 262.697C141.239 262.697 141.175 262.724 141.127 262.772C141.079 262.82 141.052 262.885 141.052 262.952C141.052 263.02 141.079 263.084 141.127 263.132C141.175 263.18 141.239 263.207 141.307 263.207Z" fill="#343B38"/>
<path d="M171.277 253.488C172.892 253.415 174.496 253.794 175.908 254.583C177.139 255.285 178.231 256.205 179.132 257.299C179.488 257.698 180.09 257.189 179.853 256.747C179.015 255.378 177.76 254.313 176.273 253.709C174.682 252.979 172.913 252.731 171.183 252.996C170.903 253.038 170.971 253.505 171.251 253.488H171.277Z" fill="#343B38"/>
<path d="M180.939 258.292C181.709 256.91 182.782 255.72 184.077 254.812C184.758 254.33 185.492 253.928 186.266 253.615C186.622 253.479 186.988 253.369 187.36 253.284C187.747 253.256 188.124 253.143 188.463 252.953C188.498 252.916 188.525 252.871 188.541 252.822C188.557 252.773 188.562 252.721 188.556 252.67C188.549 252.619 188.531 252.57 188.504 252.526C188.476 252.483 188.439 252.446 188.395 252.419C188.09 252.206 187.547 252.325 187.165 252.376C186.736 252.449 186.315 252.566 185.909 252.724C185.041 253.039 184.224 253.479 183.483 254.031C182.025 254.974 180.937 256.393 180.404 258.046C180.328 258.36 180.786 258.572 180.947 258.275L180.939 258.292Z" fill="#343B38"/>
<path d="M405.25 260.754C406.802 260.941 408.281 261.526 409.542 262.451C410.145 262.909 410.67 263.462 411.094 264.089C411.512 264.788 411.889 265.511 412.223 266.254C412.401 266.585 413.028 266.449 412.978 266.05C412.627 264.298 411.599 262.755 410.119 261.755C408.724 260.742 407.049 260.187 405.326 260.168C405.012 260.168 404.919 260.686 405.25 260.737V260.754Z" fill="#343B38"/>
<path d="M413.962 265.982C414.99 264.881 416.201 263.965 417.541 263.275C418.152 263.022 418.786 262.829 419.433 262.697C419.764 262.629 420.078 262.545 420.417 262.502C420.739 262.503 421.059 262.442 421.359 262.324C421.399 262.3 421.432 262.266 421.456 262.225C421.479 262.184 421.491 262.138 421.491 262.091C421.491 262.043 421.479 261.997 421.456 261.956C421.432 261.915 421.399 261.881 421.359 261.857C421.026 261.73 420.666 261.695 420.315 261.755C419.958 261.756 419.601 261.779 419.246 261.823C418.513 261.932 417.797 262.137 417.117 262.434C415.578 263.043 414.314 264.193 413.563 265.668C413.527 265.721 413.513 265.786 413.523 265.849C413.533 265.913 413.567 265.97 413.617 266.01C413.667 266.049 413.731 266.068 413.795 266.063C413.859 266.058 413.918 266.029 413.962 265.982Z" fill="#343B38"/>
<path d="M435.559 251.935C437.232 251.963 438.835 252.614 440.055 253.76C440.69 254.274 441.259 254.864 441.751 255.517C441.958 255.805 442.148 256.105 442.32 256.416C442.464 256.671 442.6 257.087 442.854 257.265C442.932 257.309 443.024 257.322 443.111 257.3C443.198 257.277 443.273 257.223 443.321 257.146C443.507 256.824 443.321 256.357 443.176 256.043C443.005 255.682 442.794 255.34 442.549 255.024C441.986 254.278 441.321 253.615 440.572 253.055C439.155 251.866 437.325 251.289 435.483 251.451C435.186 251.493 435.253 251.986 435.55 251.969L435.559 251.935Z" fill="#343B38"/>
<path d="M450.718 252.156C449.323 252.33 448.001 252.878 446.892 253.743C446.201 254.241 445.577 254.826 445.034 255.483C444.428 256.151 443.966 256.937 443.677 257.791C443.631 257.904 443.631 258.03 443.678 258.142C443.725 258.255 443.815 258.344 443.927 258.39C444.04 258.436 444.166 258.436 444.278 258.389C444.39 258.342 444.479 258.252 444.525 258.139C444.88 257.45 445.291 256.791 445.755 256.17C446.268 255.554 446.836 254.986 447.452 254.473C447.975 254.022 448.544 253.627 449.148 253.293C449.623 253 450.15 252.804 450.701 252.716C451.065 252.673 451.082 252.105 450.701 252.13L450.718 252.156Z" fill="#343B38"/>
<path d="M479.678 260.465C480.916 260.21 482.223 260.856 483.258 261.467C484.6 262.263 485.756 263.337 486.651 264.616C486.829 264.87 487.55 266.177 487.932 265.617C488.093 265.38 487.932 264.955 487.804 264.718C487.639 264.341 487.422 263.99 487.16 263.674C486.219 262.445 485.024 261.434 483.656 260.711C482.415 259.96 480.958 259.643 479.517 259.812C479.093 259.888 479.271 260.558 479.695 260.465H479.678Z" fill="#343B38"/>
<path d="M489.34 265.184C490.241 263.844 491.444 262.734 492.852 261.942C493.895 261.29 495.043 260.822 496.245 260.558C496.364 260.558 496.364 260.329 496.245 260.312C495.678 260.234 495.102 260.269 494.548 260.414C493.813 260.594 493.107 260.88 492.453 261.263C490.939 262.119 489.695 263.383 488.865 264.913C488.839 264.977 488.837 265.048 488.86 265.113C488.882 265.179 488.927 265.234 488.987 265.269C489.046 265.304 489.116 265.316 489.184 265.304C489.252 265.291 489.313 265.255 489.357 265.201L489.34 265.184Z" fill="#343B38"/>
<path d="M493.7 244.135C494.099 244.245 494.548 244.27 494.913 244.381C495.299 244.481 495.674 244.621 496.033 244.797C496.702 245.136 497.314 245.577 497.848 246.104C498.378 246.628 498.834 247.222 499.205 247.869C499.481 248.528 499.843 249.148 500.283 249.711C500.315 249.738 500.354 249.755 500.396 249.76C500.437 249.766 500.48 249.76 500.518 249.744C500.557 249.727 500.59 249.7 500.614 249.666C500.639 249.632 500.653 249.592 500.656 249.55C500.624 248.725 500.327 247.933 499.808 247.292C499.378 246.599 498.856 245.967 498.255 245.416C497.646 244.868 496.945 244.432 496.185 244.126C495.387 243.772 494.506 243.646 493.641 243.761C493.601 243.773 493.566 243.798 493.541 243.832C493.516 243.865 493.502 243.906 493.502 243.948C493.502 243.99 493.516 244.03 493.541 244.064C493.566 244.098 493.601 244.122 493.641 244.135H493.7Z" fill="#343B38"/>
<path d="M509.088 244.415C507.438 244.491 505.842 245.029 504.482 245.968C503.721 246.479 503.019 247.071 502.386 247.733C501.68 248.378 501.161 249.202 500.885 250.118C500.885 250.28 501.038 250.475 501.199 250.356C501.87 249.789 502.481 249.155 503.023 248.463C503.607 247.836 504.252 247.267 504.948 246.766C506.205 245.855 507.658 245.253 509.19 245.009C509.529 244.966 509.444 244.406 509.105 244.415H509.088Z" fill="#343B38"/>
<path d="M149.187 268.113C149.501 267.908 149.786 267.662 150.036 267.383C150.336 267.112 150.651 266.857 150.977 266.619C151.57 266.182 152.197 265.793 152.852 265.456C154.147 264.885 155.472 264.387 156.822 263.962C156.87 263.943 156.91 263.909 156.936 263.865C156.962 263.821 156.972 263.769 156.965 263.718C156.959 263.667 156.935 263.62 156.898 263.584C156.861 263.549 156.814 263.526 156.762 263.521C155.249 263.502 153.756 263.873 152.428 264.599C151.728 264.948 151.064 265.363 150.443 265.838C150.129 266.084 149.824 266.33 149.535 266.593C149.187 266.869 148.898 267.213 148.687 267.603C148.646 267.675 148.63 267.757 148.641 267.838C148.652 267.919 148.69 267.994 148.747 268.052C148.805 268.11 148.88 268.147 148.961 268.158C149.042 268.169 149.125 268.153 149.196 268.113H149.187Z" fill="#343B38"/>
<path d="M187.394 106.648C187.93 106.703 188.47 106.703 189.006 106.648H190.702C191.847 106.648 193.001 106.648 194.146 106.648C195.291 106.648 196.386 106.648 197.539 106.648C198.099 106.648 198.659 106.648 199.236 106.648C199.778 106.695 200.323 106.646 200.848 106.504C200.902 106.472 200.947 106.426 200.979 106.371C201.01 106.316 201.027 106.253 201.027 106.19C201.027 106.126 201.01 106.064 200.979 106.009C200.947 105.954 200.902 105.908 200.848 105.876C200.355 105.718 199.838 105.649 199.321 105.672C198.761 105.63 198.201 105.621 197.624 105.613C196.479 105.613 195.325 105.613 194.18 105.613C193.035 105.613 191.941 105.664 190.787 105.715L189.091 105.799C188.521 105.786 187.952 105.838 187.394 105.952C187.319 105.978 187.254 106.027 187.208 106.092C187.162 106.156 187.138 106.234 187.138 106.313C187.138 106.392 187.162 106.47 187.208 106.534C187.254 106.599 187.319 106.648 187.394 106.674V106.648Z" fill="#343B38"/>
<path d="M409.72 188.989C410.924 189.179 412.148 189.207 413.359 189.074L417.075 188.972C419.492 188.921 421.918 188.87 424.336 188.836C429.239 188.774 434.142 188.774 439.045 188.836C440.403 188.836 441.751 188.836 443.1 188.836C444.495 188.948 445.899 188.894 447.282 188.675C447.37 188.644 447.446 188.586 447.5 188.51C447.554 188.434 447.583 188.344 447.583 188.25C447.583 188.157 447.554 188.066 447.5 187.99C447.446 187.914 447.37 187.857 447.282 187.826C446.074 187.584 444.84 187.49 443.609 187.546C442.371 187.546 441.132 187.495 439.894 187.487C437.467 187.487 435.041 187.487 432.624 187.487C427.721 187.537 422.818 187.653 417.915 187.835L413.86 188.004C413.19 188.004 412.511 188.055 411.832 188.098C411.118 188.105 410.408 188.208 409.72 188.403C409.654 188.425 409.597 188.467 409.556 188.524C409.516 188.58 409.494 188.648 409.494 188.717C409.494 188.787 409.516 188.854 409.556 188.911C409.597 188.967 409.654 189.009 409.72 189.031V188.989Z" fill="#343B38"/>
<path d="M427.101 195.694C428.374 195.771 429.646 195.626 430.944 195.584L434.711 195.508C435.966 195.508 437.255 195.508 438.477 195.508C439.741 195.582 441.01 195.519 442.26 195.321C442.334 195.297 442.399 195.251 442.445 195.189C442.49 195.126 442.515 195.05 442.515 194.973C442.515 194.895 442.49 194.82 442.445 194.757C442.399 194.695 442.334 194.648 442.26 194.625C441.017 194.36 439.747 194.252 438.477 194.302C437.196 194.302 435.932 194.302 434.626 194.302C433.319 194.302 432.081 194.396 430.783 194.472C429.51 194.493 428.24 194.604 426.983 194.803C426.474 194.913 426.626 195.652 427.101 195.652V195.694Z" fill="#343B38"/>
<path d="M413.716 10.9221C414.759 10.9221 415.794 10.8627 416.837 10.8203C417.881 10.7778 418.907 10.7184 419.95 10.6845C422.003 10.5996 424.048 10.5147 426.1 10.4553C430.198 10.3365 434.312 10.3704 438.409 10.2176C440.742 10.1243 443.075 10.0649 445.407 9.94602C445.428 9.93976 445.447 9.92688 445.46 9.90929C445.473 9.8917 445.48 9.87035 445.48 9.84842C445.48 9.82648 445.473 9.80513 445.46 9.78755C445.447 9.76996 445.428 9.75707 445.407 9.7508C443.338 9.57256 441.242 9.47919 439.164 9.4028C437.086 9.32641 435.007 9.33491 432.929 9.36037C428.823 9.41978 424.718 9.51315 420.621 9.71686L417.083 9.8951C415.93 9.963 414.767 9.99696 413.614 10.1667C413.181 10.2346 413.308 10.9052 413.716 10.9221Z" fill="#343B38"/>
</g>
<defs>
<clipPath id="clip0">
<rect width="532" height="299" fill="white"/>
</clipPath>
</defs>
</svg>
