<svg xmlns="http://www.w3.org/2000/svg" width="51" height="78" fill="none" xmlns:v="https://vecta.io/nano"><g clip-path="url(#A)"><path d="M23.053 65.678l6.423 11.876c.053.099.124.187.21.258s.185.124.291.156.218.042.328.03a.83.83 0 0 0 .314-.101L50.571 66.63c.187-.107.327-.283.391-.491a.87.87 0 0 0-.047-.631l-6.171-12.973c-.051-.106-.123-.201-.212-.278a.84.84 0 0 0-.303-.167c-.111-.034-.229-.044-.344-.029a.83.83 0 0 0-.326.114L23.381 64.53c-.191.11-.332.292-.393.506a.87.87 0 0 0 .065.642z" fill="#667770"/><path d="M25.433 65.738l5.246 9.717c.054.099.126.185.212.255s.186.122.292.153a.83.83 0 0 0 .64-.074l16.495-9.305c.187-.107.327-.283.391-.492a.87.87 0 0 0-.047-.631l-5.044-10.617c-.05-.107-.122-.203-.21-.28s-.191-.135-.303-.17-.229-.045-.344-.031a.83.83 0 0 0-.328.113L25.735 64.59c-.186.114-.322.298-.378.512a.87.87 0 0 0 .076.636z" fill="#00b28c"/><path d="M20.237 36.631c1.043 1.354 15.133 19.982 17.126 21.85 1.32 1.234 5.885 5.381 4.691 6.529s-3.363-.146-4.826-1.311c1.446 2.682 5.229 8.714 3.775 10.231s-4.397-3.273-5.271-4.464c.925 1.877 3.825 6.855 2.522 7.763-1.606 1.088-4.691-3.727-5.7-5.938.967 2.151 2.404 5.552.841 6.272-1.059.488-2.161-1.474-2.909-2.793-.975-1.714-18.093-27.925-19.926-32.604l9.677-5.535z" fill="#ffe87b"/><path d="M32.377 52.431c1.177-.24 1.791.857 3.363 2.896a1.05 1.05 0 0 1 .269.514c.084.48-.404.857-.841 1.088l-11.073 6.504c-.276.179-.604.254-.928.212s-.624-.199-.846-.443c-.548-.683-1.021-1.424-1.412-2.211-.127-.18-.198-.395-.202-.617 0-.369.404-.6.731-.763 3.683-1.851 9.761-6.949 10.938-7.181z" fill="#343b38"/><path d="M23.995 56.347c1.399-1.111 2.907-2.072 4.498-2.87a1.65 1.65 0 0 1 1.27 0 17.7 17.7 0 0 1 3.91 4.044 1.24 1.24 0 0 1 .016.695 1.22 1.22 0 0 1-.36.59 16.04 16.04 0 0 1-4.431 3.239c-.715.444-1.559.62-2.388.497-1.219-.377-3.363-3.359-3.464-4.284a1.82 1.82 0 0 1 .164-1.116c.171-.344.447-.623.786-.795z" fill="#444e4a"/><path d="M1.16 23.581C4.599 13.076 13.889 7.043 23.945 3.308 29.3 1.32 39.919-.548 46.039.146l-2.673 20.419c-7.34-.188-16.176 2.022-18.598 3.573-3.17 2.022-6.726 6.084-4.439 10.214.841 1.577 2.522.72 4.069 2.202 1.219 1.165-.151 3.47 1.177 4.344 2.018 1.32 3.498 1.568 2.606 4.336-1.404 4.387-7.752 10.668-12.283 10.591-2.522-.051-2.018-3.367-4.204-4.901-1.286-.857-1.833-.171-3.102-.754-1.85-.857-.841-5.141-2.682-6.289-5.07-3.162-7.516-11.85-4.75-20.299z" fill="#7393ed"/><path d="M20.624 24.523c.371.275.683.625.916 1.028.093.154.277.428.219.617s-.244.24-.362.308.101 0 0 0l-.151.051-.227.034h-.084a5.78 5.78 0 0 1-.942 0 16.67 16.67 0 0 1-3.893-.651.52.52 0 0 0-.355.05c-.109.058-.195.153-.242.269a.55.55 0 0 0-.019.364.54.54 0 0 0 .213.294 4.25 4.25 0 0 0 1.681.591c.711.129 1.431.206 2.152.231.6.034 1.202-.009 1.791-.128a1.67 1.67 0 0 0 .925-.462c.253-.249.424-.573.487-.926.051-1.02-1-1.928-1.816-2.322a.33.33 0 0 0-.244-.018c-.081.025-.149.081-.192.156a.35.35 0 0 0-.037.247c.019.084.068.158.137.207l.042.06z" fill="#343b38"/></g><defs><clipPath id="A"><path fill="#fff" d="M0 0h51v78H0z"/></clipPath></defs></svg>