<svg width="532" height="175" viewBox="0 0 532 175" fill="none" xmlns="http://www.w3.org/2000/svg">
<g clip-path="url(#clip0)">
<path d="M111.176 174.72C106.31 174.72 101.554 173.276 97.5087 170.571C93.4633 167.867 90.3102 164.022 88.4483 159.525C86.5863 155.027 86.0992 150.078 87.0484 145.303C87.9976 140.528 90.3405 136.142 93.7809 132.7C97.2213 129.257 101.605 126.913 106.377 125.963C111.149 125.014 116.095 125.501 120.59 127.364C125.085 129.227 128.927 132.382 131.63 136.43C134.333 140.478 135.776 145.237 135.776 150.105C135.776 156.633 133.184 162.894 128.571 167.51C123.957 172.126 117.7 174.72 111.176 174.72ZM111.176 128.113C106.814 128.113 102.55 129.407 98.9226 131.832C95.2956 134.257 92.4687 137.704 90.7994 141.736C89.1301 145.769 88.6933 150.206 89.5443 154.487C90.3953 158.768 92.4959 162.7 95.5804 165.786C98.6649 168.873 102.595 170.974 106.873 171.826C111.151 172.677 115.586 172.24 119.616 170.57C123.646 168.9 127.091 166.071 129.514 162.442C131.938 158.813 133.231 154.546 133.231 150.181C133.231 144.329 130.908 138.715 126.771 134.577C122.635 130.438 117.025 128.113 111.176 128.113Z" fill="#8A9990"/>
<path d="M24.6002 174.72C19.7347 174.72 14.9785 173.276 10.9331 170.571C6.88758 167.867 3.73452 164.022 1.87259 159.525C0.0106588 155.027 -0.476507 150.078 0.472697 145.303C1.4219 140.528 3.76484 136.142 7.20524 132.7C10.6456 129.257 15.029 126.913 19.8009 125.963C24.5729 125.014 29.5192 125.501 34.0143 127.364C38.5094 129.227 42.3514 132.382 45.0545 136.43C47.7576 140.478 49.2004 145.237 49.2004 150.105C49.2004 156.633 46.6086 162.894 41.9951 167.51C37.3817 172.126 31.1246 174.72 24.6002 174.72ZM24.8462 128.546C12.7073 128.546 2.10375 137.764 2.10375 149.91C2.10375 162.056 12.4189 171.274 24.6002 171.274C36.7815 171.274 46.6555 162.285 46.6555 150.148C46.6718 147.284 46.1158 144.446 45.0201 141.801C43.9244 139.155 42.3112 136.756 40.2753 134.743C38.2394 132.73 35.8219 131.145 33.1649 130.081C30.508 129.017 27.6652 128.495 24.8038 128.546H24.8462Z" fill="#8A9990"/>
<path d="M111.888 150.521L89.3326 91.2248C89.2324 90.93 89.043 90.6735 88.7908 90.4911C88.5385 90.3086 88.2357 90.2091 87.9245 90.2063L72.6554 89.6631L72.842 88.5172L87.916 88.0844C88.6606 88.0884 89.3859 88.3221 89.993 88.7534C90.6002 89.1847 91.0597 89.7928 91.3091 90.4949L113.848 149.766L111.888 150.521Z" fill="#C4F0DF"/>
<path d="M55.6813 150.47L39.2076 110.034L40.9975 109.304L59.0829 149.078L55.6813 150.47Z" fill="#C4F0DF"/>
<path d="M56.4617 151.183H24.227C24.0301 151.183 23.837 151.128 23.6695 151.025C23.502 150.921 23.3666 150.773 23.2786 150.597C23.1905 150.42 23.1532 150.223 23.1709 150.027C23.1886 149.831 23.2605 149.643 23.3787 149.485L43.6442 120.703C43.7323 120.578 43.8459 120.474 43.9775 120.396C44.1091 120.318 44.2557 120.27 44.4076 120.253L97.7985 113.293L98.528 115.407L98.6383 115.33L99.9531 117.028L57.1658 150.979C56.9638 151.131 56.7134 151.203 56.4617 151.183ZM26.4749 149.027L55.7576 148.178L93.9982 117.707L46.3841 122.935L26.4749 149.027Z" fill="#C4F0DF"/>
<path d="M93.4977 93.8051C95.3391 99.3376 97.4712 104.769 99.8852 110.076C99.9459 110.336 100.058 110.581 100.214 110.797C100.37 111.013 100.567 111.196 100.794 111.335C101.022 111.474 101.274 111.566 101.538 111.606C101.801 111.647 102.07 111.635 102.328 111.57L116.749 110.458C117.3 110.476 117.84 110.308 118.284 109.983C118.558 109.68 118.748 109.312 118.836 108.913C120.68 102.921 120.83 96.5337 119.268 90.4609C119.192 90.0352 119.004 89.6371 118.726 89.3065C118.432 89.0995 118.098 88.957 117.746 88.8882C117.394 88.8195 117.031 88.8261 116.681 88.9076C109.318 89.6121 102.812 89.9686 95.4742 91.1823C93.6673 91.4879 93.1414 92.6762 93.4977 93.8051Z" fill="#FFF0B0"/>
<path d="M70.7213 87.5241C70.4914 87.5238 70.2701 87.6115 70.1028 87.7694C69.9356 87.9273 69.8352 88.1432 69.8221 88.3729C69.7434 89.3607 69.8381 90.3547 70.1021 91.3097C70.3133 91.6153 70.6077 91.8539 70.9504 91.9973C72.0446 92.3453 77.7366 91.7766 81.0025 91.5644C81.163 91.5679 81.3223 91.536 81.4691 91.471C81.5998 91.3861 81.7116 91.2753 81.7977 91.1453C81.8838 91.0154 81.9423 90.8691 81.9695 90.7156C82.2656 89.6994 82.3436 88.6321 82.1986 87.5835C82.1884 87.491 82.1595 87.4015 82.1137 87.3204C81.995 87.1422 81.7405 87.1422 81.5199 87.1507C77.6179 87.4392 71.8411 87.5241 70.7213 87.5241Z" fill="#FFF0B0"/>
<path d="M35.0596 104.5C34.2113 104.61 33.0406 105.069 33.0406 106.155C33.0406 107.581 34.6694 109.38 35.9163 109.932C37.0909 110.333 38.3533 110.4 39.5639 110.127C43.8053 109.559 52.2882 107.691 52.6699 106.172C52.8141 105.569 51.5586 105.035 49.8197 104.805C46.7828 104.398 37.6977 104.118 35.0596 104.5Z" fill="#FFF0B0"/>
<path d="M48.0552 140.217C46.1026 135.597 42.833 131.656 38.6547 128.885C34.4764 126.113 29.5748 124.636 24.562 124.636C19.5492 124.636 14.6476 126.113 10.4693 128.885C6.29105 131.656 3.02141 135.597 1.06884 140.217L0 139.249C4.24141 129.157 13.5725 122.528 24.6002 122.528C35.6278 122.528 45.3916 129.454 49.6584 139.555L48.0552 140.217Z" fill="#C4F0DF"/>
<path d="M87.6869 140.217L86.1261 139.555C87.7065 135.81 90.1049 132.468 93.1452 129.772C96.1855 127.076 99.7905 125.096 103.696 123.977C107.601 122.857 111.707 122.627 115.713 123.303C119.718 123.98 123.522 125.545 126.844 127.884L125.86 129.276C122.745 127.082 119.18 125.614 115.424 124.98C111.669 124.345 107.819 124.561 104.158 125.61C100.496 126.659 97.1165 128.516 94.2663 131.044C91.4161 133.571 89.1679 136.706 87.6869 140.217Z" fill="#C4F0DF"/>
<path d="M61.4919 147.033C60.6865 146.277 59.6962 145.747 58.6209 145.497C57.5456 145.247 56.4233 145.284 55.3673 145.607C54.3222 145.969 53.4305 146.674 52.8375 147.608C52.2444 148.542 51.985 149.65 52.1014 150.75C52.3169 151.818 52.8049 152.813 53.5181 153.636C54.1859 154.56 55.0442 155.33 56.0349 155.894C57.0257 156.458 58.1258 156.802 59.2609 156.904C61.5343 156.972 63.9095 155.351 64.164 153.084C64.4185 150.818 63.1715 148.637 61.4919 147.033Z" fill="#FFF0B0"/>
<path d="M54.9857 91.4456L48.123 93.8307V28.8222L56.3005 27.0567L54.9857 91.4456Z" fill="#D5E3F9"/>
<path d="M57.6832 174.72H47.648C47.423 174.72 47.2073 174.63 47.0482 174.471C46.8891 174.312 46.7997 174.096 46.7997 173.871L46.1211 91.6067C46.1208 91.4901 46.1446 91.3746 46.1909 91.2676C46.2371 91.1605 46.305 91.0642 46.3902 90.9845C46.4753 90.9049 46.576 90.8437 46.6859 90.8047C46.7957 90.7657 46.9125 90.7498 47.0288 90.7579L55.5116 91.386C55.7261 91.4011 55.9269 91.4972 56.0734 91.6547C56.2198 91.8123 56.301 92.0196 56.3005 92.2348L58.5315 173.88C58.5292 174.103 58.4389 174.317 58.28 174.474C58.1212 174.632 57.9067 174.72 57.6832 174.72Z" fill="#A0B7EE"/>
<path d="M136.913 1.27903C136.913 1.27903 88.408 -0.605279 61.6362 15.997C38.7326 30.1802 32.133 44.5416 30.6909 48.4206C30.6479 48.5411 30.6327 48.6698 30.6464 48.7971C30.6601 48.9243 30.7024 49.0468 30.7701 49.1554C30.8378 49.264 30.9292 49.3558 31.0374 49.424C31.1456 49.4923 31.2678 49.5352 31.395 49.5495L37.8589 50.2625C38.014 50.2783 38.1705 50.251 38.3112 50.1836C38.4519 50.1163 38.5713 50.0114 38.6562 49.8805C40.7176 46.6381 54.2901 26.3606 73.3255 19.0102C104.619 6.94042 136.947 9.51224 136.947 9.51224L136.913 1.27903Z" fill="#A0B7EE"/>
<path d="M449.768 174.72H133.214L138.448 -267.379H443.83L449.768 174.72Z" fill="#FF886D"/>
<path d="M339.075 145.386H246.799L249.344 36.0793L340.772 33.5329L339.075 145.386Z" fill="#00B28C"/>
<path d="M348.432 38.5832L240.191 40.077C239.834 40.0788 239.481 40.0055 239.155 39.862C238.828 39.7184 238.535 39.5077 238.295 39.2435C238.055 38.9794 237.873 38.6678 237.762 38.3288C237.65 37.9899 237.611 37.6312 237.646 37.276L239.436 19.5619C239.499 18.9489 239.783 18.3797 240.234 17.9599C240.684 17.54 241.272 17.298 241.888 17.2787L347.236 14.0109C347.899 13.9899 348.545 14.2293 349.035 14.6781C349.525 15.1269 349.82 15.7495 349.857 16.4129L350.96 35.8925C350.979 36.2374 350.928 36.5827 350.81 36.9073C350.692 37.232 350.51 37.5292 350.273 37.7809C350.037 38.0326 349.751 38.2336 349.435 38.3715C349.118 38.5094 348.777 38.5814 348.432 38.5832Z" fill="#FFFAEB"/>
<path d="M289.374 107.946L260.049 108.464C259.933 108.464 259.817 108.44 259.71 108.394C259.603 108.348 259.507 108.28 259.427 108.194C259.348 108.109 259.287 108.008 259.248 107.899C259.209 107.789 259.193 107.672 259.201 107.555L262.594 51.612C262.608 51.4045 262.698 51.2094 262.847 51.0639C262.996 50.9184 263.192 50.8325 263.4 50.8226L290.274 49.4391C290.389 49.4334 290.503 49.4511 290.611 49.4911C290.719 49.5312 290.818 49.5928 290.901 49.6722C290.984 49.7516 291.051 49.8471 291.096 49.953C291.141 50.0588 291.164 50.1728 291.164 50.2879L290.214 107.097C290.214 107.321 290.126 107.535 289.969 107.694C289.812 107.853 289.598 107.944 289.374 107.946Z" fill="#D5E3F9"/>
<path d="M327.835 108.472H296.407C296.182 108.472 295.966 108.383 295.807 108.224C295.648 108.064 295.558 107.848 295.558 107.623L298.188 50.5086C298.188 50.2921 298.27 50.0835 298.418 49.9258C298.566 49.768 298.769 49.6729 298.985 49.6599L325.74 47.8604C325.856 47.8535 325.972 47.8703 326.08 47.9098C326.189 47.9493 326.289 48.0108 326.373 48.0903C326.457 48.1698 326.525 48.2657 326.57 48.3722C326.616 48.4786 326.64 48.5933 326.639 48.7092L328.667 107.632C328.665 107.853 328.577 108.064 328.421 108.221C328.266 108.378 328.056 108.468 327.835 108.472Z" fill="#D5E3F9"/>
<path d="M160.325 70.3786L134.028 68.7914C133.917 68.7849 133.808 68.7564 133.707 68.7077C133.607 68.6589 133.517 68.5908 133.443 68.5072C133.369 68.4236 133.312 68.3262 133.276 68.2206C133.239 68.1149 133.224 68.0032 133.231 67.8917L133.978 56.6877C133.991 56.4715 134.086 56.2685 134.243 56.1202C134.401 55.9719 134.609 55.8895 134.826 55.8899L158.909 55.092C159.118 55.0907 159.321 55.1672 159.478 55.3067C159.634 55.4462 159.734 55.6388 159.757 55.8474L161.258 69.4279C161.274 69.5552 161.262 69.6844 161.221 69.8059C161.18 69.9274 161.112 70.038 161.022 70.1295C160.932 70.221 160.823 70.2909 160.702 70.3341C160.582 70.3772 160.453 70.3924 160.325 70.3786Z" fill="#FFE7E2"/>
<path d="M428.832 103.167L403.299 102.378C403.182 102.378 403.067 102.354 402.96 102.308C402.853 102.262 402.756 102.194 402.677 102.109C402.597 102.023 402.536 101.923 402.497 101.813C402.458 101.703 402.442 101.586 402.45 101.47L403.239 89.5273L428.051 88.6785C428.268 88.6781 428.476 88.7605 428.634 88.9088C428.792 89.0571 428.887 89.2602 428.9 89.4763L429.646 102.251C429.655 102.365 429.641 102.48 429.605 102.588C429.569 102.697 429.511 102.797 429.435 102.883C429.359 102.969 429.266 103.038 429.162 103.087C429.059 103.136 428.946 103.163 428.832 103.167Z" fill="#FFE7E2"/>
<path d="M414.632 98.0745L389.056 97.2851C388.838 97.2854 388.629 97.2018 388.471 97.0517C388.313 96.9016 388.219 96.6965 388.208 96.4788L387.461 83.6876C387.455 83.5682 387.474 83.4489 387.517 83.3374C387.56 83.2258 387.626 83.1247 387.711 83.0406C387.796 82.9564 387.898 82.8912 388.01 82.8491C388.122 82.807 388.241 82.7891 388.36 82.7964L413.19 84.3836C413.388 84.3961 413.575 84.4777 413.719 84.6142C413.863 84.7507 413.955 84.9334 413.979 85.1306L415.463 97.1239C415.477 97.2422 415.467 97.3621 415.431 97.476C415.396 97.5898 415.338 97.695 415.259 97.7847C415.181 97.8744 415.084 97.9465 414.976 97.9965C414.868 98.0464 414.751 98.073 414.632 98.0745Z" fill="#FF6952"/>
<path d="M288.721 0.948044H171.565L169.801 -88.4206L286.957 -91.0434L288.721 0.948044ZM174.89 -2.44711H285.26L283.631 -87.5719L173.262 -85.1019L174.89 -2.44711Z" fill="#00B28C"/>
<path d="M201.034 136.329H67.1924V174.711H201.034V136.329Z" fill="#FF6952"/>
<path d="M142.715 107.674C139.958 104.39 133.689 102.064 128.387 102.896C123.086 103.727 118.089 108.795 119.387 113.998C112.813 109.677 107.155 108.795 101.76 110.314C95.6693 112.012 94.5156 117.384 96.4836 119.014C89.3156 116.587 81.2654 115.84 76.1248 117.843C71.349 119.71 68.7957 124.514 69.9069 128.47C62.0434 126.271 57.6832 133.443 59.3798 138.553C61.3054 144.384 70.3396 144.902 76.2606 143.264C76.3284 146.591 80.5614 150.827 84.2005 152.049C96.4242 156.157 108.275 153.967 118.81 146.549C121.444 149.342 124.63 151.558 128.164 153.056C131.699 154.554 135.505 155.301 139.344 155.25C143.182 155.199 146.967 154.351 150.461 152.759C153.954 151.168 157.079 148.868 159.638 146.005C171.039 154.536 182.601 153.407 188.132 150.385C193.519 147.448 193.637 139.852 192.144 139.147C216.286 145.386 215.531 128.962 200.534 124.913C202.714 120.109 198.965 114.991 193.434 112.852C184.103 109.245 174.305 110.051 167.4 116.468C169.029 111.816 166.815 107.522 160.105 105.026C157.235 103.906 154.122 103.562 151.077 104.026C148.032 104.491 145.163 105.749 142.757 107.674" fill="#00B28C"/>
<path d="M91.4788 133.078C91.6184 132.635 91.6413 132.163 91.5453 131.709C91.4492 131.254 91.2375 130.832 90.9305 130.483C90.6236 130.134 90.2318 129.871 89.7932 129.718C89.3546 129.565 88.884 129.528 88.4269 129.611C87.9698 129.693 87.5418 129.892 87.1842 130.189C86.8267 130.486 86.5518 130.87 86.3861 131.304C86.2204 131.738 86.1695 132.208 86.2384 132.667C86.3073 133.127 86.4936 133.561 86.7793 133.927C86.5025 133.541 86.1326 133.231 85.704 133.026C85.2754 132.821 84.802 132.728 84.3278 132.756C83.3947 132.858 82.2664 133.859 83.0044 135.795C83.3638 136.796 83.9594 137.695 84.7407 138.416C85.522 139.137 86.4658 139.659 87.4918 139.937C88.5319 140.225 89.6298 140.231 90.6731 139.955C91.7165 139.679 92.6678 139.131 93.4298 138.366C95.1264 136.541 96.051 133.978 94.8464 132.612C93.8709 131.534 91.835 131.916 91.4788 133.078Z" fill="#FFE87B"/>
<path d="M91.4448 135.684C91.4448 136.762 90.4438 137.339 89.1544 137.051C87.865 136.762 86.7029 136.304 86.7029 135.353C86.7029 134.751 87.3645 134.284 88.7133 134.284C90.0621 134.284 91.4448 134.793 91.4448 135.684Z" fill="#FF886D"/>
<path d="M182.448 125.465C182.588 125.022 182.611 124.55 182.515 124.095C182.419 123.64 182.207 123.218 181.9 122.869C181.593 122.521 181.202 122.257 180.763 122.104C180.324 121.951 179.854 121.915 179.397 121.997C178.94 122.08 178.512 122.279 178.154 122.576C177.796 122.872 177.521 123.256 177.356 123.69C177.19 124.124 177.139 124.594 177.208 125.054C177.277 125.513 177.463 125.947 177.749 126.314C177.472 125.927 177.102 125.617 176.674 125.413C176.245 125.208 175.772 125.115 175.297 125.142C174.364 125.244 173.236 126.246 173.974 128.181C174.337 129.181 174.935 130.08 175.717 130.801C176.499 131.522 177.444 132.044 178.47 132.323C179.51 132.61 180.608 132.616 181.651 132.34C182.694 132.065 183.646 131.517 184.408 130.753C186.105 128.928 187.021 126.365 185.816 124.998C184.841 123.92 182.805 124.294 182.448 125.465Z" fill="#FFE87B"/>
<path d="M182.423 128.071C182.423 129.149 181.414 129.768 180.124 129.437C178.835 129.106 177.673 128.682 177.673 127.74C177.673 127.128 178.334 126.67 179.683 126.67C181.032 126.67 182.423 127.179 182.423 128.071Z" fill="#FF886D"/>
<path d="M139.313 116.434C139.469 116.014 139.512 115.56 139.436 115.118C139.361 114.676 139.17 114.262 138.884 113.918C138.597 113.573 138.225 113.31 137.804 113.156C137.384 113.002 136.93 112.961 136.488 113.039C136.102 113.023 135.719 113.106 135.374 113.281C135.029 113.456 134.734 113.716 134.518 114.037C134.302 114.357 134.172 114.728 134.14 115.114C134.107 115.499 134.174 115.886 134.334 116.239C134.095 115.797 133.713 115.449 133.25 115.254C132.788 115.058 132.273 115.025 131.789 115.161C130.423 115.585 130.254 117.325 130.72 118.556C131.061 119.544 131.614 120.445 132.339 121.197C133.064 121.949 133.945 122.534 134.919 122.91C135.871 123.3 136.912 123.416 137.926 123.243C138.94 123.071 139.885 122.617 140.654 121.934C142.528 120.321 143.775 117.894 142.74 116.391C141.867 115.186 139.805 115.322 139.313 116.434Z" fill="#FF886D"/>
<path d="M138.754 118.454C138.754 119.523 137.753 120.101 136.463 119.82C135.174 119.54 134.012 119.065 134.012 118.123C134.012 117.52 134.665 117.053 136.022 117.053C137.379 117.053 138.754 117.563 138.754 118.454Z" fill="#A0B7EE"/>
<path d="M152.317 136.864C152.473 136.445 152.515 135.992 152.44 135.551C152.365 135.11 152.175 134.697 151.89 134.352C151.604 134.008 151.233 133.745 150.814 133.59C150.394 133.435 149.942 133.393 149.501 133.469C149.115 133.453 148.731 133.537 148.386 133.711C148.041 133.886 147.747 134.146 147.531 134.467C147.315 134.788 147.185 135.158 147.152 135.544C147.12 135.929 147.187 136.317 147.347 136.669C147.105 136.229 146.723 135.884 146.261 135.688C145.799 135.493 145.285 135.458 144.802 135.591C143.436 136.015 143.275 137.755 143.741 138.986C144.082 139.974 144.635 140.875 145.36 141.627C146.085 142.379 146.966 142.964 147.94 143.34C148.892 143.731 149.933 143.846 150.947 143.673C151.961 143.501 152.906 143.047 153.675 142.364C155.549 140.751 156.788 138.324 155.761 136.822C154.879 135.616 152.809 135.752 152.317 136.864Z" fill="#A0B7EE"/>
<path d="M152.148 138.613C152.148 139.682 151.138 140.259 149.858 139.979C148.577 139.699 147.406 139.224 147.406 138.281C147.406 137.679 148.059 137.212 149.416 137.212C150.774 137.212 152.148 137.721 152.148 138.613Z" fill="#FFE87B"/>
<path d="M523.237 136.329H389.395V174.711H523.237V136.329Z" fill="#FF6952"/>
<path d="M457.029 114.405C454.764 111.12 451.498 109.694 447.163 110.051C442.829 110.407 439.699 113.446 440.165 117.274C438.729 115.598 436.895 114.31 434.832 113.527C432.77 112.745 430.543 112.493 428.358 112.794C426.172 113.096 424.097 113.941 422.323 115.253C420.549 116.565 419.132 118.302 418.203 120.304C414.734 117.427 409.152 116.62 404.554 117.52C399.957 118.42 396.402 122.002 397.208 125.957C395.745 125.297 394.162 124.944 392.557 124.919C390.953 124.894 389.36 125.198 387.877 125.813C384.976 127.171 382.855 130.362 383.313 133.537C383.434 134.41 383.73 135.251 384.183 136.007C384.636 136.764 385.237 137.421 385.95 137.94C386.662 138.459 387.472 138.829 388.331 139.028C389.19 139.226 390.08 139.25 390.948 139.096C390.702 143.34 394.112 147.584 397.87 148.747C408.668 152.023 417.592 150.385 425.498 144.376C438.299 153.619 457.029 153.628 469.829 144.376C473.706 151.302 482.393 153.288 491.037 151.259C496.033 150.097 501.055 145.691 501.844 140.743C508.155 144.376 516.892 146.472 523.619 143.867C530.592 141.167 533.383 136.083 531.313 130.167C529.158 124.039 521.795 121.798 516.281 123.02C517.13 119.031 513.372 113.684 508.036 111.927C499.222 109.024 489.179 110.543 483.979 114.524C483.801 110.509 477.685 108.362 473.155 108.404C466.555 108.489 461.05 110.306 457.029 114.405Z" fill="#00B28C"/>
<path d="M445.95 125.117C444.884 125.839 443.615 126.201 442.329 126.151C441.042 126.1 439.806 125.64 438.799 124.837C437.858 124.939 436.738 125.94 437.476 127.867C437.833 128.869 438.428 129.77 439.209 130.492C439.991 131.213 440.936 131.734 441.963 132.009C443.003 132.301 444.102 132.309 445.146 132.033C446.19 131.757 447.141 131.206 447.901 130.439C449.598 128.614 450.522 126.059 449.318 124.692C448.342 123.581 446.307 123.954 445.95 125.117Z" fill="#FFE87B"/>
<path d="M445.916 127.731C445.916 128.809 444.915 129.378 443.626 129.098C442.337 128.818 441.174 128.342 441.174 127.4C441.174 126.797 441.828 126.331 443.185 126.331C444.542 126.331 445.916 126.84 445.916 127.731Z" fill="#FF886D"/>
<path d="M503.93 117.333C502.862 118.052 501.593 118.411 500.308 118.359C499.022 118.307 497.786 117.847 496.779 117.045C495.838 117.147 494.718 118.148 495.456 120.084C495.813 121.086 496.408 121.987 497.189 122.708C497.971 123.43 498.916 123.95 499.943 124.226C500.983 124.514 502.081 124.52 503.125 124.244C504.168 123.968 505.119 123.42 505.881 122.655C507.578 120.83 508.503 118.267 507.298 116.901C506.323 115.789 504.287 116.171 503.93 117.333Z" fill="#FFE87B"/>
<path d="M503.879 119.948C503.879 121.017 502.878 121.594 501.589 121.314C500.3 121.034 499.137 120.559 499.137 119.617C499.137 119.014 499.799 118.547 501.148 118.547C502.497 118.547 503.879 119.048 503.879 119.948Z" fill="#FF886D"/>
<path d="M491.062 133.622C491.218 133.202 491.26 132.748 491.185 132.306C491.109 131.864 490.919 131.45 490.632 131.105C490.346 130.761 489.973 130.498 489.553 130.344C489.132 130.19 488.678 130.149 488.237 130.227C487.851 130.212 487.467 130.296 487.122 130.472C486.777 130.648 486.483 130.909 486.268 131.231C486.053 131.552 485.923 131.924 485.892 132.31C485.862 132.696 485.93 133.083 486.091 133.435C485.85 132.995 485.468 132.648 485.006 132.451C484.545 132.254 484.031 132.218 483.546 132.348C482.18 132.773 482.019 134.521 482.477 135.744C482.817 136.733 483.369 137.637 484.094 138.39C484.819 139.144 485.701 139.73 486.676 140.106C487.629 140.497 488.672 140.613 489.687 140.441C490.702 140.268 491.649 139.814 492.419 139.13C494.294 137.518 495.532 135.082 494.497 133.588C493.615 132.374 491.554 132.51 491.062 133.622Z" fill="#FF886D"/>
<path d="M490.502 135.633C490.502 136.711 489.501 137.288 488.212 137C486.922 136.711 485.76 136.244 485.76 135.302C485.76 134.691 486.422 134.233 487.771 134.233C489.119 134.233 490.502 134.742 490.502 135.633Z" fill="#A0B7EE"/>
<path d="M416.608 134.581C416.764 134.161 416.807 133.707 416.731 133.265C416.656 132.823 416.465 132.409 416.179 132.065C415.892 131.72 415.52 131.457 415.099 131.303C414.678 131.149 414.225 131.108 413.783 131.186C413.398 131.171 413.015 131.256 412.672 131.431C412.328 131.607 412.035 131.867 411.82 132.188C411.605 132.508 411.475 132.878 411.443 133.263C411.411 133.648 411.478 134.034 411.637 134.386C411.394 133.937 411.005 133.585 410.534 133.389C410.063 133.193 409.539 133.164 409.05 133.308C407.684 133.732 407.523 135.472 407.981 136.703C408.322 137.691 408.875 138.592 409.6 139.344C410.325 140.096 411.206 140.681 412.18 141.057C413.133 141.45 414.176 141.567 415.192 141.394C416.207 141.222 417.154 140.766 417.923 140.081C419.798 138.468 421.036 136.041 420.001 134.538C419.162 133.359 417.1 133.469 416.608 134.581Z" fill="#A0B7EE"/>
<path d="M416.439 136.329C416.439 137.407 415.429 137.976 414.14 137.696C412.85 137.416 411.688 136.94 411.688 135.998C411.688 135.396 412.35 134.929 413.699 134.929C415.047 134.929 416.439 135.438 416.439 136.329Z" fill="#FFE87B"/>
<path d="M351.087 154.578L235.644 153.729L237.281 131.041C237.297 130.827 237.392 130.626 237.55 130.479C237.707 130.333 237.915 130.251 238.13 130.252L350.247 131.101C350.472 131.101 350.688 131.19 350.847 131.349C351.006 131.509 351.095 131.724 351.095 131.95L351.087 154.578Z" fill="#FFFAEB"/>
<path d="M362.505 174.72H224.235L225.864 151.183C225.879 150.968 225.975 150.767 226.132 150.621C226.29 150.474 226.497 150.393 226.712 150.394L360.028 152.091C360.242 152.091 360.448 152.171 360.605 152.315C360.762 152.46 360.859 152.659 360.876 152.872L362.505 174.72Z" fill="#FFFAEB"/>
<path d="M309.36 0.947968L310.208 -93.6492L311.956 -93.5898L428.28 -89.2779L423.878 -1.67477L309.36 0.947968ZM313.601 -90.1267L312.753 -2.52356L420.68 -4.99353L424.752 -86.0101L313.601 -90.1267Z" fill="#00B28C"/>
<path d="M138.872 32.0475C139.96 32.2374 141.06 32.3509 142.164 32.387C143.258 32.4634 144.361 32.5228 145.455 32.5822C147.669 32.7095 149.891 32.8029 152.114 32.8878C156.525 33.0491 160.945 33.1934 165.356 33.2103H169.071C170.319 33.2587 171.569 33.1876 172.804 32.9981C172.881 32.9741 172.95 32.9256 172.998 32.86C173.047 32.7943 173.073 32.7148 173.073 32.6332C173.073 32.5515 173.047 32.4721 172.998 32.4064C172.95 32.3407 172.881 32.2922 172.804 32.2682C171.708 32.1097 170.602 32.0444 169.495 32.073H166.289L159.621 31.9966C155.202 31.9202 150.791 31.7674 146.38 31.6146L142.757 31.4788L140.9 31.4194C140.255 31.3854 139.61 31.3854 138.966 31.4194C138.601 31.4194 138.465 32.0051 138.872 32.0984V32.0475Z" fill="#343B38"/>
<path d="M163.837 38.0569C171.531 38.1248 179.233 38.2861 186.927 38.1248L190.134 38.0654C191.237 38.0654 192.339 37.8957 193.434 37.8193C193.517 37.8193 193.597 37.7862 193.656 37.7273C193.715 37.6684 193.748 37.5885 193.748 37.5052C193.748 37.4219 193.715 37.3421 193.656 37.2832C193.597 37.2243 193.517 37.1912 193.434 37.1912L192 37.1148C191.517 37.1148 191.042 37.0129 190.558 37.0045C189.599 37.0045 188.641 37.0045 187.682 37.0045C185.765 37.0045 183.857 37.0045 181.94 37.0045C178.08 37.0554 174.203 37.0045 170.352 37.2167C168.189 37.327 166.009 37.3355 163.837 37.3864C163.749 37.3864 163.665 37.4213 163.603 37.4833C163.541 37.5454 163.506 37.6296 163.506 37.7174C163.506 37.8052 163.541 37.8894 163.603 37.9515C163.665 38.0136 163.749 38.0484 163.837 38.0484V38.0569Z" fill="#343B38"/>
<path d="M134.393 56.4585C133.879 58.9994 133.558 61.5759 133.435 64.1655C133.392 64.8191 133.367 65.4727 133.341 66.1262C133.243 66.7448 133.243 67.375 133.341 67.9936C133.415 68.2193 133.545 68.4227 133.718 68.5845C133.892 68.7463 134.104 68.8613 134.334 68.9187C134.616 68.9535 134.901 68.9535 135.182 68.9187C135.539 68.9187 135.895 68.9697 136.251 68.9951C138.872 69.2158 141.519 69.2922 144.149 69.4535C146.778 69.6147 149.238 69.7336 151.715 69.8609C154.741 70.09 157.777 70.1495 160.809 70.0391C160.899 70.0255 160.982 69.9799 161.041 69.9106C161.101 69.8413 161.134 69.7529 161.134 69.6614C161.134 69.57 161.101 69.4816 161.041 69.4122C160.982 69.3429 160.899 69.2973 160.809 69.2837C158.264 68.9612 155.668 68.8848 153.098 68.766L145.82 68.418C143.402 68.2991 140.993 68.2228 138.584 68.1464L136.658 68.0954C136.002 68.1507 135.342 68.1336 134.69 68.0445C134.13 67.8917 134.292 67.1957 134.3 66.7374C134.3 66.1008 134.3 65.4642 134.3 64.8276C134.376 62.0436 134.631 59.268 134.775 56.484C134.775 56.4309 134.755 56.3796 134.72 56.3397C134.685 56.2998 134.637 56.2738 134.585 56.2666C134.532 56.2594 134.478 56.2714 134.434 56.3004C134.39 56.3294 134.357 56.3735 134.342 56.4246L134.393 56.4585Z" fill="#343B38"/>
<path d="M138.584 73.9436C142.384 74.2237 146.218 74.3764 150.01 74.6396C153.802 74.9027 157.56 75.1743 161.343 75.4289C163.481 75.5647 165.644 75.7175 167.79 75.6836C167.977 75.6836 168.036 75.3865 167.79 75.344C166.866 75.1488 165.932 75.0215 164.999 74.8942C164.066 74.7669 163.15 74.6141 162.217 74.5207C160.317 74.3255 158.425 74.1558 156.517 74.0284C152.682 73.7568 148.882 73.5956 145.014 73.4767C142.851 73.4088 140.696 73.3664 138.541 73.4003C138.469 73.4003 138.4 73.4289 138.35 73.4799C138.299 73.5308 138.27 73.5999 138.27 73.6719C138.27 73.744 138.299 73.8131 138.35 73.864C138.4 73.9149 138.469 73.9436 138.541 73.9436H138.584Z" fill="#343B38"/>
<path d="M387.453 84.5788C386.698 88.8228 387.266 93.2195 387.936 97.4465C387.974 97.5782 388.053 97.6945 388.161 97.7784C388.269 97.8624 388.402 97.9096 388.539 97.9133C389.87 97.9133 391.194 97.9133 392.526 97.9133C394.298 97.9133 396.063 97.8454 397.836 97.9133L408.982 98.1934L411.527 98.2528C412.221 98.325 412.92 98.325 413.614 98.2528C413.702 98.2219 413.778 98.1645 413.832 98.0885C413.885 98.0125 413.914 97.9216 413.914 97.8284C413.914 97.7353 413.885 97.6444 413.832 97.5684C413.778 97.4924 413.702 97.4349 413.614 97.404C413.02 97.2771 412.414 97.2173 411.807 97.2258L409.61 97.1494L404.308 97.0051C402.4 96.9542 400.491 96.9372 398.574 96.9032C396.657 96.8693 394.96 96.7674 393.153 96.708C391.618 96.708 390.082 96.708 388.547 96.708L389.149 97.1664C388.793 95.1123 388.471 93.0412 388.301 90.9617C388.131 88.8822 388.038 86.7857 388.004 84.6977C388.004 84.4176 387.555 84.3327 387.495 84.6298L387.453 84.5788Z" fill="#343B38"/>
<path d="M403.46 97.8284C403.093 98.4731 402.919 99.2097 402.959 99.9504C402.866 100.74 402.722 101.546 402.705 102.344C402.707 102.489 402.766 102.627 402.869 102.729C402.972 102.83 403.111 102.887 403.256 102.887C404.144 102.838 405.035 102.86 405.92 102.955C406.768 102.998 407.616 103.04 408.465 103.065C410.11 103.133 411.764 103.184 413.41 103.227C416.676 103.329 419.942 103.447 423.208 103.43C425.176 103.43 427.144 103.43 429.103 103.235C429.179 103.223 429.247 103.184 429.297 103.126C429.346 103.067 429.374 102.993 429.374 102.917C429.374 102.84 429.346 102.766 429.297 102.708C429.247 102.65 429.179 102.611 429.103 102.599C425.753 102.242 422.317 102.259 418.975 102.2C415.734 102.149 412.497 102.078 409.262 101.987L406.412 101.954H404.927C404.417 101.97 403.906 101.945 403.4 101.877L403.791 102.556C403.926 101.775 403.952 100.969 404.02 100.18C404.2 99.4493 404.18 98.6837 403.96 97.9642C403.935 97.9224 403.902 97.8868 403.861 97.86C403.821 97.8331 403.775 97.8158 403.726 97.8093C403.678 97.8027 403.629 97.8072 403.583 97.8222C403.537 97.8373 403.495 97.8626 403.46 97.8963V97.8284Z" fill="#343B38"/>
<path d="M239.216 20.6823C238.902 22.003 238.664 23.3406 238.503 24.6885C238.308 26.0805 238.121 27.4726 237.935 28.8646C237.578 31.5976 237.273 34.3392 237.163 37.0977C237.112 38.2351 237.052 39.364 238.011 40.1279C238.969 40.8918 240.31 40.5947 241.404 40.5947L249.582 40.5438C255.197 40.4929 260.813 40.4165 266.428 40.3146C272.052 40.2213 277.677 40.1194 283.292 40.0515C288.908 39.9836 294.32 40.0006 299.783 39.8648C300.437 39.8535 301.089 39.7911 301.734 39.678C301.813 39.6512 301.881 39.6004 301.93 39.5326C301.978 39.4649 302.004 39.3837 302.004 39.3003C302.004 39.217 301.978 39.1358 301.93 39.068C301.881 39.0003 301.813 38.9494 301.734 38.9226C300.447 38.7417 299.147 38.6708 297.849 38.7104H293.862C291.164 38.7104 288.47 38.7416 285.778 38.8038C280.298 38.8887 274.821 38.9905 269.346 39.1093C263.872 39.2282 258.395 39.33 252.915 39.4149C250.223 39.4545 247.531 39.4856 244.84 39.5083H240.861C239.92 39.5083 238.537 39.7714 238.147 38.6171C238.035 38.0207 238.02 37.4101 238.104 36.8092C238.104 36.1641 238.155 35.5105 238.198 34.8654C238.282 33.5074 238.401 32.1578 238.537 30.8167C238.808 28.1091 239.139 25.4015 239.385 22.6854C239.436 22.013 239.436 21.3377 239.385 20.6653C239.378 20.6402 239.363 20.618 239.343 20.6023C239.322 20.5865 239.297 20.5779 239.271 20.5779C239.245 20.5779 239.219 20.5865 239.199 20.6023C239.178 20.618 239.163 20.6402 239.156 20.6653L239.216 20.6823Z" fill="#343B38"/>
<path d="M249.14 40.077C249.013 41.2314 249.013 42.4027 248.971 43.5571C248.928 44.7114 248.886 45.9336 248.852 47.1304C248.773 49.6655 248.688 52.2118 248.597 54.7695C248.411 59.9216 248.207 65.0822 248.038 70.2344C247.987 71.6349 247.97 73.0354 247.936 74.4274C247.902 75.8194 247.868 77.1689 247.936 78.5355C247.936 78.7731 248.351 78.875 248.394 78.5949C248.572 77.4321 248.648 76.2437 248.716 75.0724C248.784 73.9011 248.886 72.577 248.937 71.3293C249.047 68.7829 249.157 66.2366 249.251 63.6902C249.42 58.5211 249.573 53.3435 249.675 48.1744C249.675 46.8079 249.717 45.4414 249.717 44.0833C249.717 42.7252 249.777 41.4351 249.666 40.1195C249.655 40.0546 249.621 39.9958 249.571 39.9535C249.52 39.9112 249.456 39.8879 249.391 39.8879C249.325 39.8879 249.261 39.9112 249.211 39.9535C249.16 39.9958 249.126 40.0546 249.115 40.1195L249.14 40.077Z" fill="#343B38"/>
<path d="M236.942 132.561C236.45 137.136 236.094 141.736 235.695 146.328C235.619 147.287 235.492 148.272 235.5 149.239C235.475 149.5 235.513 149.763 235.612 150.006C235.711 150.248 235.868 150.463 236.068 150.631C236.375 150.796 236.723 150.866 237.069 150.835C238.766 150.886 240.462 151.047 242.159 151.132C243.856 151.217 245.671 151.293 247.427 151.361C254.79 151.633 262.162 151.735 269.482 151.769C276.803 151.803 284.336 151.769 291.767 151.769C298.935 151.769 306.102 151.769 313.27 151.879C314.119 151.879 314.967 151.879 315.815 151.879C315.897 151.866 315.972 151.824 316.026 151.761C316.079 151.698 316.109 151.618 316.109 151.535C316.109 151.452 316.079 151.372 316.026 151.309C315.972 151.246 315.897 151.204 315.815 151.192C314.119 151.022 312.422 151.03 310.726 150.988L305.5 150.903C301.937 150.863 298.375 150.835 294.812 150.818C287.534 150.818 280.255 150.818 272.969 150.818C265.682 150.818 258.472 150.725 251.227 150.538C247.698 150.445 244.169 150.326 240.649 150.156L238.062 150.02C237.577 150.028 237.093 150.006 236.611 149.952C236.238 149.876 236.314 149.214 236.323 148.891C236.331 148.569 236.323 148.043 236.391 147.644C236.679 142.975 237.239 138.307 237.349 133.63C237.349 133.282 237.349 132.926 237.349 132.578C237.339 132.525 237.311 132.478 237.27 132.445C237.229 132.411 237.178 132.392 237.124 132.392C237.071 132.392 237.02 132.411 236.979 132.445C236.938 132.478 236.91 132.525 236.9 132.578L236.942 132.561Z" fill="#343B38"/>
<path d="M327.369 151.921C335.75 152.286 344.148 152.473 352.538 152.541H356.049C357.234 152.581 358.421 152.561 359.604 152.482C359.703 152.482 359.798 152.442 359.868 152.372C359.938 152.302 359.977 152.207 359.977 152.108C359.977 152.009 359.938 151.914 359.868 151.844C359.798 151.774 359.703 151.735 359.604 151.735C358.56 151.624 357.508 151.65 356.457 151.633L353.36 151.573L347.032 151.455C342.791 151.378 338.634 151.302 334.435 151.268C332.077 151.268 329.727 151.268 327.369 151.378C327.308 151.389 327.254 151.421 327.214 151.469C327.175 151.516 327.153 151.576 327.153 151.637C327.153 151.699 327.175 151.758 327.214 151.806C327.254 151.853 327.308 151.885 327.369 151.896V151.921Z" fill="#343B38"/>
<path d="M225.702 152.032C225.524 153.013 225.422 154.006 225.397 155.003C225.278 156.488 225.168 157.965 225.058 159.442C224.803 162.899 224.535 166.351 224.252 169.797C224.094 171.444 224.02 173.099 224.031 174.754C224.032 174.798 224.049 174.84 224.079 174.874C224.108 174.907 224.148 174.928 224.192 174.934C224.236 174.94 224.28 174.931 224.318 174.907C224.355 174.883 224.383 174.847 224.396 174.805C224.717 173.408 224.933 171.99 225.041 170.561C225.21 168.863 225.338 167.166 225.448 165.468C225.643 162.192 225.855 158.915 225.965 155.639C225.965 154.969 226.008 154.298 226.033 153.619C226.076 153.114 226.076 152.605 226.033 152.1C226.033 151.93 225.753 151.862 225.711 152.057L225.702 152.032Z" fill="#343B38"/>
<path d="M228.637 168.235C228.536 169.296 228.493 170.374 228.425 171.444C228.425 171.995 228.349 172.547 228.332 173.141C228.249 173.714 228.313 174.298 228.519 174.839C228.539 174.872 228.568 174.9 228.602 174.919C228.636 174.938 228.675 174.948 228.714 174.948C228.753 174.948 228.791 174.938 228.826 174.919C228.86 174.9 228.888 174.872 228.909 174.839C229.091 174.293 229.16 173.715 229.113 173.141C229.113 172.575 229.138 172.009 229.189 171.444C229.293 170.378 229.322 169.305 229.274 168.235C229.261 168.16 229.223 168.091 229.164 168.042C229.106 167.992 229.032 167.965 228.956 167.965C228.879 167.965 228.805 167.992 228.747 168.042C228.689 168.091 228.65 168.16 228.637 168.235Z" fill="#343B38"/>
<path d="M231.42 169.491C231.318 170.34 231.318 171.189 231.284 172.038C231.284 172.479 231.284 172.887 231.225 173.37C231.147 173.852 231.215 174.345 231.42 174.788C231.441 174.821 231.471 174.848 231.506 174.867C231.541 174.886 231.58 174.896 231.619 174.896C231.659 174.896 231.698 174.886 231.733 174.867C231.767 174.848 231.797 174.821 231.818 174.788C232.006 174.34 232.073 173.852 232.014 173.37C232.014 172.92 232.014 172.479 232.014 172.038C232.071 171.19 232.071 170.339 232.014 169.491C232.001 169.416 231.962 169.347 231.904 169.298C231.846 169.248 231.772 169.221 231.696 169.221C231.619 169.221 231.545 169.248 231.487 169.298C231.429 169.347 231.39 169.416 231.377 169.491H231.42Z" fill="#343B38"/>
<path d="M234.126 170.705C234.024 171.384 234.016 172.089 233.965 172.776C233.965 173.141 233.922 173.498 233.905 173.863C233.866 174.05 233.867 174.243 233.906 174.43C233.946 174.617 234.023 174.794 234.134 174.949C234.177 174.992 234.235 175.015 234.296 175.015C234.356 175.015 234.414 174.992 234.457 174.949C234.671 174.63 234.756 174.242 234.694 173.863C234.694 173.498 234.694 173.141 234.694 172.776C234.762 172.088 234.762 171.394 234.694 170.705C234.678 170.636 234.639 170.575 234.583 170.531C234.528 170.487 234.459 170.464 234.389 170.464C234.318 170.464 234.25 170.487 234.194 170.531C234.139 170.575 234.1 170.636 234.083 170.705H234.126Z" fill="#343B38"/>
<path d="M96.0425 136.177C94.5606 136.197 93.1177 136.655 91.8944 137.492C91.0694 137.969 90.3203 138.567 89.6719 139.266C88.9779 139.928 88.5041 140.787 88.3147 141.728C88.3147 142.025 88.6879 142.067 88.8321 141.872C89.2804 141.101 89.788 140.366 90.3506 139.674C90.9369 139.051 91.5979 138.504 92.3186 138.044C92.9607 137.623 93.6496 137.278 94.3714 137.017C94.9113 136.79 95.4842 136.653 96.068 136.609C96.118 136.599 96.1631 136.572 96.1954 136.533C96.2278 136.493 96.2455 136.444 96.2455 136.393C96.2455 136.342 96.2278 136.292 96.1954 136.253C96.1631 136.213 96.118 136.186 96.068 136.177H96.0425Z" fill="#343B38"/>
<path d="M80.7904 136.906C81.1551 136.906 81.5114 136.805 81.8762 136.805C82.2344 136.806 82.5909 136.855 82.9365 136.949C83.6413 137.15 84.3048 137.475 84.8961 137.908C85.4277 138.287 85.9118 138.729 86.3381 139.224C86.4993 139.419 86.6605 139.614 86.8132 139.826C86.9659 140.039 87.0931 140.259 87.2967 140.344C87.3278 140.362 87.3622 140.374 87.3979 140.379C87.4336 140.383 87.4699 140.381 87.5046 140.371C87.5394 140.362 87.5719 140.346 87.6003 140.323C87.6286 140.301 87.6523 140.274 87.67 140.242C87.9244 139.716 87.3815 139.054 87.0507 138.663C86.5604 138.084 85.989 137.578 85.3541 137.161C84.6765 136.715 83.9234 136.396 83.1316 136.219C82.3221 135.991 81.4575 136.063 80.6971 136.423C80.65 136.453 80.6139 136.498 80.5941 136.551C80.5743 136.603 80.5718 136.661 80.5869 136.715C80.6021 136.769 80.6341 136.816 80.6784 136.851C80.7226 136.885 80.7767 136.905 80.8328 136.906H80.7904Z" fill="#343B38"/>
<path d="M128.939 119.54C130.443 119.529 131.91 120.006 133.121 120.898C133.688 121.294 134.235 121.719 134.758 122.172C135.002 122.37 135.226 122.592 135.428 122.834C135.53 122.961 135.615 123.105 135.717 123.241C135.818 123.377 135.954 123.419 136.056 123.53C136.086 123.559 136.123 123.581 136.163 123.592C136.204 123.602 136.247 123.602 136.287 123.591C136.328 123.58 136.365 123.558 136.394 123.528C136.424 123.498 136.444 123.46 136.455 123.419C136.543 123.277 136.587 123.112 136.582 122.944C136.548 122.752 136.479 122.568 136.378 122.401C136.168 122.081 135.911 121.795 135.615 121.552C135.004 121.013 134.349 120.528 133.655 120.101C132.964 119.637 132.184 119.322 131.365 119.176C130.546 119.03 129.705 119.056 128.896 119.252C128.861 119.26 128.829 119.28 128.807 119.309C128.784 119.337 128.772 119.372 128.772 119.409C128.772 119.445 128.784 119.48 128.807 119.509C128.829 119.537 128.861 119.558 128.896 119.566L128.939 119.54Z" fill="#343B38"/>
<path d="M143.801 119.557C142.645 119.635 141.531 120.016 140.569 120.661C139.226 121.393 138.053 122.399 137.125 123.614C136.897 123.928 136.711 124.271 136.573 124.633C136.483 124.799 136.428 124.983 136.414 125.171C136.399 125.36 136.425 125.55 136.489 125.728C136.513 125.77 136.547 125.805 136.588 125.832C136.628 125.859 136.674 125.876 136.722 125.883C136.771 125.889 136.819 125.885 136.866 125.87C136.912 125.855 136.954 125.83 136.989 125.796C137.252 125.592 137.354 125.108 137.506 124.82C137.702 124.476 137.926 124.15 138.177 123.844C138.723 123.179 139.353 122.589 140.051 122.087C140.713 121.586 141.42 121.148 142.164 120.78C142.667 120.477 143.222 120.27 143.801 120.168C143.882 120.168 143.959 120.136 144.017 120.079C144.074 120.022 144.106 119.944 144.106 119.863C144.106 119.782 144.074 119.704 144.017 119.647C143.959 119.59 143.882 119.557 143.801 119.557Z" fill="#343B38"/>
<path d="M141.307 139.207C142.994 139.32 144.57 140.088 145.701 141.346C146.211 141.896 146.645 142.512 146.99 143.179C147.16 143.502 147.304 143.841 147.465 144.172C147.566 144.489 147.758 144.77 148.017 144.978C148.047 144.995 148.08 145.005 148.114 145.007C148.149 145.009 148.183 145.003 148.215 144.99C148.247 144.977 148.275 144.957 148.298 144.931C148.321 144.906 148.338 144.876 148.348 144.843C148.45 144.483 148.414 144.098 148.246 143.765C148.105 143.379 147.929 143.006 147.72 142.653C147.303 141.924 146.792 141.254 146.201 140.658C145.567 140.008 144.804 139.498 143.961 139.16C143.118 138.823 142.214 138.665 141.307 138.697C141.239 138.697 141.175 138.724 141.127 138.772C141.079 138.82 141.052 138.885 141.052 138.952C141.052 139.02 141.079 139.084 141.127 139.132C141.175 139.18 141.239 139.207 141.307 139.207Z" fill="#343B38"/>
<path d="M171.277 129.488C172.892 129.415 174.496 129.794 175.908 130.583C177.139 131.285 178.231 132.205 179.132 133.299C179.488 133.698 180.09 133.189 179.853 132.747C179.015 131.378 177.76 130.313 176.273 129.709C174.682 128.979 172.913 128.731 171.183 128.996C170.903 129.038 170.971 129.505 171.251 129.488H171.277Z" fill="#343B38"/>
<path d="M180.939 134.292C181.709 132.91 182.782 131.72 184.077 130.812C184.758 130.33 185.492 129.928 186.266 129.615C186.622 129.479 186.988 129.369 187.36 129.284C187.747 129.256 188.124 129.143 188.463 128.953C188.498 128.916 188.525 128.871 188.541 128.822C188.557 128.773 188.562 128.721 188.556 128.67C188.549 128.619 188.531 128.57 188.504 128.526C188.476 128.483 188.439 128.446 188.395 128.419C188.09 128.206 187.547 128.325 187.165 128.376C186.736 128.449 186.315 128.566 185.909 128.724C185.041 129.039 184.224 129.479 183.483 130.031C182.025 130.974 180.937 132.393 180.404 134.046C180.328 134.36 180.786 134.572 180.947 134.275L180.939 134.292Z" fill="#343B38"/>
<path d="M405.25 136.754C406.802 136.941 408.281 137.526 409.542 138.451C410.145 138.909 410.67 139.462 411.094 140.089C411.512 140.788 411.889 141.511 412.223 142.254C412.401 142.585 413.028 142.449 412.978 142.05C412.627 140.298 411.599 138.755 410.119 137.755C408.724 136.742 407.049 136.187 405.326 136.168C405.012 136.168 404.919 136.686 405.25 136.737V136.754Z" fill="#343B38"/>
<path d="M413.962 141.982C414.99 140.881 416.201 139.965 417.541 139.275C418.152 139.022 418.786 138.829 419.433 138.697C419.764 138.629 420.078 138.545 420.417 138.502C420.739 138.503 421.059 138.442 421.359 138.324C421.399 138.3 421.432 138.266 421.456 138.225C421.479 138.184 421.491 138.138 421.491 138.091C421.491 138.043 421.479 137.997 421.456 137.956C421.432 137.915 421.399 137.881 421.359 137.857C421.026 137.73 420.666 137.695 420.315 137.755C419.958 137.756 419.601 137.779 419.246 137.823C418.513 137.932 417.797 138.137 417.117 138.434C415.578 139.043 414.314 140.193 413.563 141.668C413.527 141.721 413.513 141.786 413.523 141.849C413.533 141.913 413.567 141.97 413.617 142.01C413.667 142.049 413.731 142.068 413.795 142.063C413.859 142.058 413.918 142.029 413.962 141.982Z" fill="#343B38"/>
<path d="M435.559 127.935C437.232 127.963 438.835 128.614 440.055 129.76C440.69 130.274 441.259 130.864 441.751 131.517C441.958 131.805 442.148 132.105 442.32 132.416C442.464 132.671 442.6 133.087 442.854 133.265C442.932 133.309 443.024 133.322 443.111 133.3C443.198 133.277 443.273 133.223 443.321 133.146C443.507 132.824 443.321 132.357 443.176 132.043C443.005 131.682 442.794 131.34 442.549 131.024C441.986 130.278 441.321 129.615 440.572 129.055C439.155 127.866 437.325 127.289 435.483 127.451C435.186 127.493 435.253 127.986 435.55 127.969L435.559 127.935Z" fill="#343B38"/>
<path d="M450.718 128.156C449.323 128.33 448.001 128.878 446.892 129.743C446.201 130.241 445.577 130.826 445.034 131.483C444.428 132.151 443.966 132.937 443.677 133.791C443.631 133.904 443.631 134.03 443.678 134.142C443.725 134.255 443.815 134.344 443.927 134.39C444.04 134.436 444.166 134.436 444.278 134.389C444.39 134.342 444.479 134.252 444.525 134.139C444.88 133.45 445.291 132.791 445.755 132.17C446.268 131.554 446.836 130.986 447.452 130.473C447.975 130.022 448.544 129.627 449.148 129.293C449.623 129 450.15 128.804 450.701 128.716C451.065 128.673 451.082 128.105 450.701 128.13L450.718 128.156Z" fill="#343B38"/>
<path d="M479.678 136.465C480.916 136.21 482.223 136.856 483.258 137.467C484.6 138.263 485.756 139.337 486.651 140.616C486.829 140.87 487.55 142.177 487.932 141.617C488.093 141.38 487.932 140.955 487.804 140.718C487.639 140.341 487.422 139.99 487.16 139.674C486.219 138.445 485.024 137.434 483.656 136.711C482.415 135.96 480.958 135.643 479.517 135.812C479.093 135.888 479.271 136.558 479.695 136.465H479.678Z" fill="#343B38"/>
<path d="M489.34 141.184C490.241 139.844 491.444 138.734 492.852 137.942C493.895 137.29 495.043 136.822 496.245 136.558C496.364 136.558 496.364 136.329 496.245 136.312C495.678 136.234 495.102 136.269 494.548 136.414C493.813 136.594 493.107 136.88 492.453 137.263C490.939 138.119 489.695 139.383 488.865 140.913C488.839 140.977 488.837 141.048 488.86 141.113C488.882 141.179 488.927 141.234 488.987 141.269C489.046 141.304 489.116 141.316 489.184 141.304C489.252 141.291 489.313 141.255 489.357 141.201L489.34 141.184Z" fill="#343B38"/>
<path d="M493.7 120.135C494.099 120.245 494.548 120.27 494.913 120.381C495.299 120.481 495.674 120.621 496.033 120.797C496.702 121.136 497.314 121.577 497.848 122.104C498.378 122.628 498.834 123.222 499.205 123.869C499.481 124.528 499.843 125.148 500.283 125.711C500.315 125.738 500.354 125.755 500.396 125.76C500.437 125.766 500.48 125.76 500.518 125.744C500.557 125.727 500.59 125.7 500.614 125.666C500.639 125.632 500.653 125.592 500.656 125.55C500.624 124.725 500.327 123.933 499.808 123.292C499.378 122.599 498.856 121.967 498.255 121.416C497.646 120.868 496.945 120.432 496.185 120.126C495.387 119.772 494.506 119.646 493.641 119.761C493.601 119.773 493.566 119.798 493.541 119.832C493.516 119.865 493.502 119.906 493.502 119.948C493.502 119.99 493.516 120.03 493.541 120.064C493.566 120.098 493.601 120.122 493.641 120.135H493.7Z" fill="#343B38"/>
<path d="M509.088 120.415C507.438 120.491 505.842 121.029 504.482 121.968C503.721 122.479 503.019 123.071 502.386 123.733C501.68 124.378 501.161 125.202 500.885 126.118C500.885 126.28 501.038 126.475 501.199 126.356C501.87 125.789 502.481 125.155 503.023 124.463C503.607 123.836 504.252 123.267 504.948 122.766C506.205 121.855 507.658 121.253 509.19 121.009C509.529 120.966 509.444 120.406 509.105 120.415H509.088Z" fill="#343B38"/>
<path d="M149.187 144.113C149.501 143.908 149.786 143.662 150.036 143.383C150.336 143.112 150.651 142.857 150.977 142.619C151.57 142.182 152.197 141.793 152.852 141.456C154.147 140.885 155.472 140.387 156.822 139.962C156.87 139.943 156.91 139.909 156.936 139.865C156.962 139.821 156.972 139.769 156.965 139.718C156.959 139.667 156.935 139.62 156.898 139.584C156.861 139.549 156.814 139.526 156.762 139.521C155.249 139.502 153.756 139.873 152.428 140.599C151.728 140.948 151.064 141.363 150.443 141.838C150.129 142.084 149.824 142.33 149.535 142.593C149.187 142.869 148.898 143.213 148.687 143.603C148.646 143.675 148.63 143.757 148.641 143.838C148.652 143.919 148.69 143.994 148.747 144.052C148.805 144.11 148.88 144.147 148.961 144.158C149.042 144.169 149.125 144.153 149.196 144.113H149.187Z" fill="#343B38"/>
<path d="M409.72 64.9889C410.924 65.1786 412.148 65.2071 413.359 65.0737L417.075 64.9719C419.492 64.9209 421.918 64.87 424.336 64.8361C429.239 64.7738 434.142 64.7738 439.045 64.8361C440.403 64.8361 441.751 64.8361 443.1 64.8361C444.495 64.9483 445.899 64.8941 447.282 64.6748C447.37 64.6439 447.446 64.5865 447.5 64.5105C447.554 64.4344 447.583 64.3436 447.583 64.2504C447.583 64.1572 447.554 64.0664 447.5 63.9904C447.446 63.9143 447.37 63.8569 447.282 63.826C446.074 63.584 444.84 63.49 443.609 63.5459C442.371 63.5459 441.132 63.495 439.894 63.4865C437.467 63.4865 435.041 63.4865 432.624 63.4865C427.721 63.5374 422.818 63.6534 417.915 63.8345L413.86 64.0043C413.19 64.0043 412.511 64.0552 411.832 64.0976C411.118 64.1051 410.408 64.2079 409.72 64.4032C409.654 64.4252 409.597 64.4673 409.556 64.5237C409.516 64.58 409.494 64.6478 409.494 64.7172C409.494 64.7867 409.516 64.8544 409.556 64.9108C409.597 64.9672 409.654 65.0093 409.72 65.0313V64.9889Z" fill="#343B38"/>
<path d="M427.101 71.6943C428.374 71.7707 429.646 71.6264 430.944 71.5839L434.711 71.5076C435.966 71.5076 437.255 71.5076 438.477 71.5076C439.741 71.5816 441.01 71.519 442.26 71.3208C442.334 71.2974 442.399 71.2511 442.445 71.1885C442.49 71.1259 442.515 71.0504 442.515 70.9728C442.515 70.8953 442.49 70.8197 442.445 70.7571C442.399 70.6946 442.334 70.6482 442.26 70.6248C441.017 70.3602 439.747 70.2519 438.477 70.3023C437.196 70.3023 435.932 70.3023 434.626 70.3023C433.319 70.3023 432.081 70.3957 430.783 70.4721C429.51 70.4931 428.24 70.6037 426.983 70.8031C426.474 70.9134 426.626 71.6518 427.101 71.6518V71.6943Z" fill="#343B38"/>
</g>
<defs>
<clipPath id="clip0">
<rect width="532" height="175" fill="white"/>
</clipPath>
</defs>
</svg>
