<svg xmlns="http://www.w3.org/2000/svg" width="98" height="102" fill="none" xmlns:v="https://vecta.io/nano"><g clip-path="url(#A)"><path d="M52.016 102h-12.78l6.995-64.374h5.538L52.016 102z" fill="#ff886d"/><path d="M40.761 1.959c-6.39 2.829-9.372 7.382-15.336 10.701-5.376 2.998-8.375 2.956-13.343 6.596S2.402 27.559.92 33.496C-1.525 43.378.852 53.665 8.955 63.42c6.646 7.964 17.782 12.61 29.821 15.355 9.372 2.137 20.253.524 26.506-1.495 7.046-2.272 15.524-6.63 20.576-12.669 4.737-5.642 8.631-11.765 10.744-18.8 1.508-4.991 2.556-11.081-.656-15.202-3.902-5.135-9.083-4.223-13.249-8.446-5.47-5.507-4.695-8.877-10.591-13.936C63.229.642 50.355-2.297 40.761 1.959z" fill="#28c99b"/><g fill="#00b28f"><path d="M87.921 42.668c-.051-1.149-1.116-3.226-3.476-1.689-2.727 1.774-4.26 4.983-5.257 8.049-.417 1.25-.23 3.218 1.091 3.159 2.505-.11 7.847-5.211 7.643-9.518zm-45.32-10.895c-.997-.591-3.323-.845-3.331 1.942 0 3.235 1.849 6.258 3.86 8.792.852 1.03 2.556 1.968 3.263.844 1.261-2.137-.077-9.366-3.791-11.579zm10.148 23.505c-.239-1.123-1.619-3.007-3.706-1.098-2.394 2.188-3.408 5.591-3.877 8.784-.205 1.292.307 3.209 1.593 2.939 2.454-.515 6.918-6.402 5.99-10.625zM15.336 32.499c-1.15-.169-3.408.439-2.351 3.049 1.21 2.998 4.073 5.068 6.91 6.714 1.142.65 3.135.845 3.34-.439.418-2.449-3.561-8.657-7.898-9.324zm47.203-18.741c-.52-1.03-2.335-2.534-3.868-.135-1.755 2.72-1.832 6.258-1.508 9.476.128 1.301 1.108 3.032 2.292 2.441 2.241-1.115 5.035-7.922 3.084-11.782z"/></g></g><defs><clipPath id="A"><path fill="#fff" d="M0 0h98v102H0z"/></clipPath></defs></svg>