<svg width="532" height="455" viewBox="0 0 532 455" fill="none" xmlns="http://www.w3.org/2000/svg">
<g clip-path="url(#clip0)">
<path d="M111.176 454.72C106.31 454.72 101.554 453.276 97.5087 450.572C93.4633 447.867 90.3102 444.023 88.4483 439.525C86.5863 435.027 86.0992 430.078 87.0484 425.303C87.9976 420.528 90.3405 416.142 93.7809 412.7C97.2213 409.257 101.605 406.913 106.377 405.963C111.149 405.014 116.095 405.501 120.59 407.364C125.085 409.227 128.927 412.382 131.63 416.43C134.333 420.478 135.776 425.237 135.776 430.105C135.776 436.633 133.184 442.894 128.571 447.51C123.957 452.127 117.7 454.72 111.176 454.72ZM111.176 408.113C106.814 408.113 102.55 409.407 98.9226 411.832C95.2956 414.257 92.4687 417.704 90.7994 421.736C89.1301 425.769 88.6933 430.206 89.5443 434.487C90.3953 438.768 92.4959 442.7 95.5804 445.786C98.6649 448.873 102.595 450.974 106.873 451.826C111.151 452.677 115.586 452.24 119.616 450.57C123.646 448.9 127.091 446.071 129.514 442.442C131.938 438.813 133.231 434.546 133.231 430.182C133.231 424.329 130.908 418.715 126.771 414.577C122.635 410.438 117.025 408.113 111.176 408.113Z" fill="#8A9990"/>
<path d="M24.6002 454.72C19.7347 454.72 14.9785 453.276 10.9331 450.572C6.88758 447.867 3.73452 444.023 1.87259 439.525C0.0106588 435.027 -0.476507 430.078 0.472697 425.303C1.4219 420.528 3.76484 416.142 7.20524 412.7C10.6456 409.257 15.029 406.913 19.8009 405.963C24.5729 405.014 29.5192 405.501 34.0143 407.364C38.5094 409.227 42.3514 412.382 45.0545 416.43C47.7576 420.478 49.2004 425.237 49.2004 430.105C49.2004 436.633 46.6086 442.894 41.9951 447.51C37.3817 452.127 31.1246 454.72 24.6002 454.72ZM24.8462 408.546C12.7073 408.546 2.10375 417.764 2.10375 429.91C2.10375 442.056 12.4189 451.274 24.6002 451.274C36.7815 451.274 46.6555 442.285 46.6555 430.148C46.6718 427.284 46.1158 424.446 45.0201 421.801C43.9244 419.155 42.3112 416.756 40.2753 414.743C38.2394 412.73 35.8219 411.145 33.1649 410.081C30.508 409.017 27.6652 408.495 24.8038 408.546H24.8462Z" fill="#8A9990"/>
<path d="M111.888 430.521L89.3326 371.225C89.2324 370.93 89.043 370.674 88.7908 370.491C88.5385 370.309 88.2357 370.209 87.9245 370.206L72.6554 369.663L72.842 368.517L87.916 368.084C88.6606 368.088 89.3859 368.322 89.993 368.753C90.6002 369.185 91.0597 369.793 91.3091 370.495L113.848 429.766L111.888 430.521Z" fill="#C4F0DF"/>
<path d="M55.6813 430.47L39.2076 390.034L40.9975 389.304L59.0829 429.078L55.6813 430.47Z" fill="#C4F0DF"/>
<path d="M56.4617 431.183H24.227C24.0301 431.183 23.837 431.128 23.6695 431.025C23.502 430.921 23.3666 430.773 23.2786 430.597C23.1905 430.42 23.1532 430.223 23.1709 430.027C23.1886 429.831 23.2605 429.643 23.3787 429.485L43.6442 400.703C43.7323 400.578 43.8459 400.474 43.9775 400.396C44.1091 400.318 44.2557 400.27 44.4076 400.253L97.7985 393.293L98.528 395.407L98.6383 395.33L99.9531 397.028L57.1658 430.979C56.9638 431.131 56.7134 431.203 56.4617 431.183ZM26.4749 429.027L55.7576 428.178L93.9982 397.707L46.3841 402.935L26.4749 429.027Z" fill="#C4F0DF"/>
<path d="M93.4977 373.805C95.3391 379.338 97.4712 384.769 99.8852 390.076C99.9459 390.336 100.058 390.581 100.214 390.797C100.37 391.013 100.567 391.196 100.794 391.335C101.022 391.474 101.274 391.566 101.538 391.606C101.801 391.647 102.07 391.635 102.328 391.57L116.749 390.458C117.3 390.476 117.84 390.308 118.284 389.983C118.558 389.68 118.748 389.312 118.836 388.914C120.68 382.921 120.83 376.534 119.268 370.461C119.192 370.035 119.004 369.637 118.726 369.307C118.432 369.1 118.098 368.957 117.746 368.888C117.394 368.82 117.031 368.826 116.681 368.908C109.318 369.612 102.812 369.969 95.4742 371.182C93.6673 371.488 93.1414 372.676 93.4977 373.805Z" fill="#FFF0B0"/>
<path d="M70.7213 367.524C70.4914 367.524 70.2701 367.612 70.1028 367.769C69.9356 367.927 69.8352 368.143 69.8221 368.373C69.7434 369.361 69.8381 370.355 70.1021 371.31C70.3133 371.615 70.6077 371.854 70.9504 371.997C72.0446 372.345 77.7366 371.777 81.0025 371.564C81.163 371.568 81.3223 371.536 81.4691 371.471C81.5998 371.386 81.7116 371.275 81.7977 371.145C81.8838 371.015 81.9423 370.869 81.9695 370.716C82.2656 369.699 82.3436 368.632 82.1986 367.584C82.1884 367.491 82.1595 367.401 82.1137 367.32C81.995 367.142 81.7405 367.142 81.5199 367.151C77.6179 367.439 71.8411 367.524 70.7213 367.524Z" fill="#FFF0B0"/>
<path d="M35.0596 384.5C34.2113 384.61 33.0406 385.069 33.0406 386.155C33.0406 387.581 34.6694 389.38 35.9163 389.932C37.0909 390.333 38.3533 390.4 39.5639 390.127C43.8053 389.559 52.2882 387.691 52.6699 386.172C52.8141 385.569 51.5586 385.035 49.8197 384.805C46.7828 384.398 37.6977 384.118 35.0596 384.5Z" fill="#FFF0B0"/>
<path d="M48.0552 420.217C46.1026 415.597 42.833 411.656 38.6547 408.885C34.4764 406.113 29.5748 404.636 24.562 404.636C19.5492 404.636 14.6476 406.113 10.4693 408.885C6.29105 411.656 3.02141 415.597 1.06884 420.217L0 419.249C4.24141 409.157 13.5725 402.528 24.6002 402.528C35.6278 402.528 45.3916 409.454 49.6584 419.555L48.0552 420.217Z" fill="#C4F0DF"/>
<path d="M87.6869 420.217L86.1261 419.555C87.7065 415.81 90.1049 412.468 93.1452 409.772C96.1855 407.076 99.7905 405.096 103.696 403.977C107.601 402.857 111.707 402.627 115.713 403.303C119.718 403.98 123.522 405.545 126.844 407.884L125.86 409.276C122.745 407.082 119.18 405.614 115.424 404.98C111.669 404.345 107.819 404.561 104.158 405.61C100.496 406.659 97.1165 408.516 94.2663 411.044C91.4161 413.571 89.1679 416.706 87.6869 420.217Z" fill="#C4F0DF"/>
<path d="M61.4919 427.033C60.6865 426.277 59.6962 425.747 58.6209 425.497C57.5456 425.247 56.4233 425.284 55.3673 425.607C54.3222 425.969 53.4305 426.674 52.8375 427.608C52.2444 428.542 51.985 429.65 52.1014 430.75C52.3169 431.818 52.8049 432.813 53.5181 433.636C54.1859 434.56 55.0442 435.33 56.0349 435.894C57.0257 436.458 58.1258 436.802 59.2609 436.904C61.5343 436.972 63.9095 435.351 64.164 433.084C64.4185 430.818 63.1715 428.637 61.4919 427.033Z" fill="#FFF0B0"/>
<path d="M54.9857 371.446L48.123 373.831V308.822L56.3005 307.057L54.9857 371.446Z" fill="#D5E3F9"/>
<path d="M57.6832 454.72H47.648C47.423 454.72 47.2073 454.63 47.0482 454.471C46.8891 454.312 46.7997 454.096 46.7997 453.871L46.1211 371.607C46.1208 371.49 46.1446 371.375 46.1909 371.268C46.2371 371.161 46.305 371.064 46.3902 370.985C46.4753 370.905 46.576 370.844 46.6859 370.805C46.7957 370.766 46.9125 370.75 47.0288 370.758L55.5116 371.386C55.7261 371.401 55.9269 371.497 56.0734 371.655C56.2198 371.812 56.301 372.02 56.3005 372.235L58.5315 453.88C58.5292 454.103 58.4389 454.317 58.28 454.474C58.1212 454.632 57.9067 454.72 57.6832 454.72Z" fill="#A0B7EE"/>
<path d="M136.913 281.279C136.913 281.279 88.408 279.395 61.6362 295.997C38.7326 310.18 32.133 324.542 30.6909 328.421C30.6479 328.541 30.6327 328.67 30.6464 328.797C30.6601 328.924 30.7024 329.047 30.7701 329.155C30.8378 329.264 30.9292 329.356 31.0374 329.424C31.1456 329.492 31.2678 329.535 31.395 329.55L37.8589 330.263C38.014 330.278 38.1705 330.251 38.3112 330.184C38.4519 330.116 38.5713 330.011 38.6562 329.881C40.7176 326.638 54.2901 306.361 73.3255 299.01C104.619 286.94 136.947 289.512 136.947 289.512L136.913 281.279Z" fill="#A0B7EE"/>
<path d="M449.768 454.72H133.214L138.448 12.6214H443.83L449.768 454.72Z" fill="#FF886D"/>
<path d="M454.594 46.6832L127.471 39.0441C127.092 39.0344 126.72 38.94 126.382 38.7678C126.044 38.5957 125.749 38.3501 125.518 38.049C125.287 37.748 125.126 37.3991 125.047 37.0279C124.969 36.6567 124.974 36.2726 125.062 35.9036L133.231 1.95219C133.367 1.38407 133.694 0.880019 134.158 0.524576C134.621 0.169132 135.192 -0.0160847 135.776 -1.20444e-05L448.13 7.28257C448.711 7.29487 449.269 7.50526 449.714 7.87886C450.158 8.25246 450.461 8.76682 450.573 9.33663L457.156 43.6361C457.232 44.0111 457.221 44.3984 457.127 44.769C457.032 45.1397 456.855 45.4841 456.609 45.7769C456.363 46.0697 456.054 46.3032 455.705 46.4601C455.356 46.617 454.977 46.6932 454.594 46.6832Z" fill="#00B28C"/>
<path d="M339.075 425.386H246.799L249.344 316.079L340.772 313.533L339.075 425.386Z" fill="#00B28C"/>
<path d="M348.432 318.583L240.191 320.077C239.834 320.079 239.481 320.006 239.155 319.862C238.828 319.718 238.535 319.508 238.295 319.244C238.055 318.979 237.873 318.668 237.762 318.329C237.65 317.99 237.611 317.631 237.646 317.276L239.436 299.562C239.499 298.949 239.783 298.38 240.234 297.96C240.684 297.54 241.272 297.298 241.888 297.279L347.236 294.011C347.899 293.99 348.545 294.229 349.035 294.678C349.525 295.127 349.82 295.749 349.857 296.413L350.96 315.893C350.979 316.237 350.928 316.583 350.81 316.907C350.692 317.232 350.51 317.529 350.273 317.781C350.037 318.033 349.751 318.234 349.435 318.371C349.118 318.509 348.777 318.581 348.432 318.583Z" fill="#FFFAEB"/>
<path d="M289.374 387.946L260.049 388.464C259.933 388.464 259.817 388.44 259.71 388.394C259.603 388.348 259.507 388.28 259.427 388.194C259.348 388.109 259.287 388.009 259.248 387.899C259.209 387.789 259.193 387.672 259.201 387.556L262.594 331.612C262.608 331.405 262.698 331.209 262.847 331.064C262.996 330.918 263.192 330.833 263.4 330.823L290.274 329.439C290.389 329.433 290.503 329.451 290.611 329.491C290.719 329.531 290.818 329.593 290.901 329.672C290.984 329.752 291.051 329.847 291.096 329.953C291.141 330.059 291.164 330.173 291.164 330.288L290.214 387.097C290.214 387.321 290.126 387.535 289.969 387.694C289.812 387.853 289.598 387.944 289.374 387.946Z" fill="#D5E3F9"/>
<path d="M327.835 388.472H296.407C296.182 388.472 295.966 388.383 295.807 388.224C295.648 388.064 295.558 387.848 295.558 387.623L298.188 330.509C298.188 330.292 298.27 330.084 298.418 329.926C298.566 329.768 298.769 329.673 298.985 329.66L325.74 327.86C325.856 327.853 325.972 327.87 326.08 327.91C326.189 327.949 326.289 328.011 326.373 328.09C326.457 328.17 326.525 328.266 326.57 328.372C326.616 328.479 326.64 328.593 326.639 328.709L328.667 387.632C328.665 387.853 328.577 388.064 328.421 388.221C328.266 388.378 328.056 388.468 327.835 388.472Z" fill="#D5E3F9"/>
<path d="M160.325 350.379L134.028 348.791C133.917 348.785 133.808 348.756 133.707 348.708C133.607 348.659 133.517 348.591 133.443 348.507C133.369 348.424 133.312 348.326 133.276 348.221C133.239 348.115 133.224 348.003 133.231 347.892L133.978 336.688C133.991 336.472 134.086 336.269 134.243 336.12C134.401 335.972 134.609 335.89 134.826 335.89L158.909 335.092C159.118 335.091 159.321 335.167 159.478 335.307C159.634 335.446 159.734 335.639 159.757 335.847L161.258 349.428C161.274 349.555 161.262 349.684 161.221 349.806C161.18 349.927 161.112 350.038 161.022 350.13C160.932 350.221 160.823 350.291 160.702 350.334C160.582 350.377 160.453 350.392 160.325 350.379Z" fill="#FFE7E2"/>
<path d="M200.237 180.613L175.45 182.2C175.335 182.207 175.219 182.19 175.11 182.151C175.001 182.111 174.901 182.05 174.817 181.97C174.733 181.891 174.666 181.795 174.62 181.689C174.574 181.582 174.551 181.467 174.551 181.351V167.771L200.135 166.124C200.251 166.117 200.367 166.134 200.475 166.174C200.584 166.213 200.684 166.275 200.768 166.354C200.852 166.434 200.92 166.53 200.965 166.636C201.011 166.742 201.035 166.857 201.034 166.973V179.798C201.026 180.009 200.94 180.209 200.793 180.36C200.645 180.51 200.447 180.601 200.237 180.613Z" fill="#FFE7E2"/>
<path d="M183.526 176.284L160.385 175.495C160.16 175.495 159.944 175.405 159.785 175.246C159.626 175.087 159.536 174.871 159.536 174.646V162.67C159.536 162.445 159.626 162.229 159.785 162.07C159.944 161.91 160.16 161.821 160.385 161.821L184.272 162.61C184.388 162.61 184.503 162.634 184.609 162.679C184.715 162.725 184.811 162.792 184.891 162.877C184.97 162.961 185.032 163.061 185.071 163.17C185.111 163.278 185.127 163.394 185.121 163.51L184.374 175.495C184.359 175.71 184.263 175.91 184.106 176.057C183.948 176.204 183.741 176.285 183.526 176.284Z" fill="#FF6952"/>
<path d="M428.832 383.167L403.299 382.378C403.182 382.378 403.067 382.354 402.96 382.308C402.853 382.262 402.756 382.194 402.677 382.109C402.597 382.023 402.536 381.923 402.497 381.813C402.458 381.703 402.442 381.586 402.45 381.47L403.239 369.527L428.051 368.678C428.268 368.678 428.476 368.76 428.634 368.909C428.792 369.057 428.887 369.26 428.9 369.476L429.646 382.251C429.655 382.365 429.641 382.48 429.605 382.588C429.569 382.697 429.511 382.797 429.435 382.883C429.359 382.969 429.266 383.038 429.162 383.087C429.059 383.136 428.946 383.163 428.832 383.167Z" fill="#FFE7E2"/>
<path d="M414.632 378.074L389.056 377.285C388.838 377.285 388.629 377.202 388.471 377.052C388.313 376.902 388.219 376.696 388.208 376.479L387.461 363.688C387.455 363.568 387.474 363.449 387.517 363.337C387.56 363.226 387.626 363.125 387.711 363.041C387.796 362.956 387.898 362.891 388.01 362.849C388.122 362.807 388.241 362.789 388.36 362.796L413.19 364.384C413.388 364.396 413.575 364.478 413.719 364.614C413.863 364.751 413.955 364.933 413.979 365.131L415.463 377.124C415.477 377.242 415.467 377.362 415.431 377.476C415.396 377.59 415.338 377.695 415.259 377.785C415.181 377.874 415.084 377.947 414.976 377.996C414.868 378.046 414.751 378.073 414.632 378.074Z" fill="#FF6952"/>
<path d="M169.835 152.111L286.991 154.657L288.687 66.095L172.362 69.1251L169.835 152.111Z" fill="#D5E3F9"/>
<path d="M288.653 156.389L168.087 153.766L170.717 67.47L290.418 64.3549L288.653 156.389ZM171.59 150.447L285.337 152.917L286.965 67.8434L174.008 70.7802L171.59 150.447Z" fill="#00B28C"/>
<path d="M427.297 149.352L311.073 153.808V68.6412H425.685L427.297 149.352Z" fill="#D5E3F9"/>
<mask id="mask0" style="mask-type:alpha" maskUnits="userSpaceOnUse" x="311" y="68" width="117" height="86">
<path d="M427.297 149.352L311.073 153.808V68.6412H425.685L427.297 149.352Z" fill="#D5E3F9"/>
</mask>
<g mask="url(#mask0)">
<path d="M419.671 75.3043H324.417L324.493 66.0355L419.492 68.3951L419.671 75.3043Z" fill="#FFF5D9"/>
<path d="M419.967 83.1555L324.315 83.0281V78.4702L419.781 76.2294L419.967 83.1555Z" fill="#FFF5D9"/>
<path d="M420.256 91.4821L324.188 92.9929L324.264 84.6578H420.078L420.256 91.4821Z" fill="#FFF5D9"/>
<path d="M420.646 102.958L324.095 100.946L324.137 94.8008L420.392 93.621L420.646 102.958Z" fill="#FFF5D9"/>
<path d="M420.977 112.405L323.967 109.094L324.027 103.289L420.756 104.409L420.977 112.405Z" fill="#FFF5D9"/>
<path d="M421.214 118.499H323.84L323.908 111.505L421.087 113.916L421.214 118.499Z" fill="#FFF5D9"/>
<path d="M319.929 127.369L319.039 128.014L320.176 63.3788H321.049L319.929 127.369Z" fill="#FFCC1C"/>
<path d="M320.142 130.628L319.293 130.552C319.082 130.533 318.885 130.435 318.742 130.278C318.599 130.12 318.521 129.915 318.521 129.703V126.749C318.521 126.533 318.603 126.324 318.752 126.166C318.9 126.008 319.103 125.913 319.319 125.9L320.006 125.858C320.117 125.851 320.229 125.866 320.335 125.903C320.44 125.939 320.537 125.996 320.621 126.07C320.705 126.144 320.773 126.234 320.821 126.335C320.87 126.435 320.899 126.544 320.905 126.656L321.066 129.728C321.074 129.851 321.055 129.973 321.011 130.088C320.967 130.202 320.899 130.306 320.811 130.391C320.723 130.477 320.618 130.542 320.502 130.583C320.387 130.624 320.264 130.639 320.142 130.628Z" fill="#F3B131"/>
<path d="M400.559 132.708C399.771 131.767 398.655 131.16 397.437 131.01C395.757 130.765 394.044 131.113 392.593 131.995C391.972 132.489 391.508 133.153 391.257 133.907C391.005 134.66 390.978 135.47 391.177 136.239C391.412 137.223 391.864 138.142 392.5 138.929C393.968 140.746 395.113 141.229 397.395 141.476C398.754 141.692 400.144 141.362 401.263 140.559C402.087 139.852 402.61 138.856 402.722 137.775C403.256 135.059 402.866 133.616 400.559 132.708Z" fill="#009375"/>
<path d="M402.238 137.8C401.806 136.476 402.858 135.61 404.359 134.957C406.369 134.108 408.312 135.144 408.159 136.833C408.091 137.605 406.853 138.53 406.098 138.751C404.63 139.124 402.679 139.116 402.238 137.8Z" fill="#009375"/>
<path d="M392.712 153.019L402.578 152.697L404.893 140.44L390.439 139.88L392.712 153.019Z" fill="#F3B131"/>
<path d="M397.479 130.323C397.415 130.29 397.344 130.274 397.272 130.274C397.2 130.274 397.128 130.29 397.064 130.323C396.97 130.085 396.826 129.915 396.665 129.907C396.527 130.119 396.33 130.287 396.098 130.388C395.865 130.489 395.608 130.519 395.359 130.475C395.164 130.687 395.359 131.273 395.732 131.604C395.863 131.708 396.014 131.785 396.175 131.829C396.336 131.874 396.505 131.886 396.671 131.865C396.837 131.844 396.997 131.789 397.142 131.705C397.286 131.621 397.413 131.509 397.513 131.375C397.581 131.304 397.634 131.22 397.669 131.129C397.704 131.037 397.72 130.94 397.717 130.842C397.714 130.744 397.691 130.647 397.65 130.558C397.61 130.469 397.551 130.389 397.479 130.323Z" fill="#FF6952"/>
</g>
<path d="M286.991 279.225H173.228L171.531 193.209L285.294 190.663L286.991 279.225Z" fill="#D5E3F9"/>
<path d="M288.721 280.948H171.565L169.801 191.579L286.957 188.957L288.721 280.948ZM174.89 277.553H285.26L283.631 192.428L173.262 194.898L174.89 277.553Z" fill="#00B28C"/>
<path d="M201.034 416.329H67.1924V454.711H201.034V416.329Z" fill="#FF6952"/>
<path d="M142.715 387.674C139.958 384.39 133.689 382.064 128.387 382.896C123.086 383.727 118.089 388.795 119.387 393.998C112.813 389.677 107.155 388.795 101.76 390.314C95.6693 392.012 94.5156 397.384 96.4836 399.014C89.3156 396.587 81.2654 395.84 76.1248 397.843C71.349 399.71 68.7957 404.514 69.9069 408.47C62.0434 406.271 57.6832 413.443 59.3798 418.553C61.3054 424.384 70.3396 424.902 76.2606 423.264C76.3284 426.591 80.5614 430.827 84.2005 432.049C96.4242 436.157 108.275 433.967 118.81 426.549C121.444 429.342 124.63 431.558 128.164 433.056C131.699 434.554 135.505 435.301 139.344 435.25C143.182 435.199 146.967 434.351 150.461 432.759C153.954 431.168 157.079 428.868 159.638 426.005C171.039 434.536 182.601 433.407 188.132 430.385C193.519 427.448 193.637 419.852 192.144 419.147C216.286 425.386 215.531 408.962 200.534 404.913C202.714 400.109 198.965 394.991 193.434 392.852C184.103 389.245 174.305 390.051 167.4 396.468C169.029 391.816 166.815 387.522 160.105 385.026C157.235 383.906 154.122 383.562 151.077 384.026C148.032 384.491 145.163 385.749 142.757 387.674" fill="#00B28C"/>
<path d="M91.4788 413.078C91.6184 412.635 91.6413 412.163 91.5453 411.709C91.4492 411.254 91.2375 410.832 90.9305 410.483C90.6236 410.134 90.2318 409.871 89.7932 409.718C89.3546 409.565 88.884 409.528 88.4269 409.611C87.9698 409.693 87.5418 409.892 87.1842 410.189C86.8267 410.486 86.5518 410.87 86.3861 411.304C86.2204 411.738 86.1695 412.208 86.2384 412.667C86.3073 413.127 86.4936 413.561 86.7793 413.927C86.5025 413.541 86.1326 413.231 85.704 413.026C85.2754 412.821 84.802 412.728 84.3278 412.756C83.3947 412.858 82.2664 413.859 83.0044 415.795C83.3638 416.796 83.9594 417.695 84.7407 418.416C85.522 419.137 86.4658 419.659 87.4918 419.937C88.5319 420.225 89.6298 420.231 90.6731 419.955C91.7165 419.679 92.6678 419.131 93.4298 418.366C95.1264 416.541 96.051 413.978 94.8464 412.612C93.8709 411.534 91.835 411.916 91.4788 413.078Z" fill="#FFE87B"/>
<path d="M91.4448 415.684C91.4448 416.762 90.4438 417.339 89.1544 417.051C87.865 416.762 86.7029 416.304 86.7029 415.353C86.7029 414.751 87.3645 414.284 88.7133 414.284C90.0621 414.284 91.4448 414.793 91.4448 415.684Z" fill="#FF886D"/>
<path d="M182.448 405.465C182.588 405.022 182.611 404.55 182.515 404.095C182.419 403.64 182.207 403.218 181.9 402.869C181.593 402.521 181.202 402.257 180.763 402.104C180.324 401.951 179.854 401.915 179.397 401.997C178.94 402.08 178.512 402.279 178.154 402.576C177.796 402.872 177.521 403.256 177.356 403.69C177.19 404.124 177.139 404.594 177.208 405.054C177.277 405.513 177.463 405.947 177.749 406.314C177.472 405.927 177.102 405.617 176.674 405.413C176.245 405.208 175.772 405.115 175.297 405.142C174.364 405.244 173.236 406.246 173.974 408.181C174.337 409.181 174.935 410.08 175.717 410.801C176.499 411.522 177.444 412.044 178.47 412.323C179.51 412.61 180.608 412.616 181.651 412.34C182.694 412.065 183.646 411.517 184.408 410.753C186.105 408.928 187.021 406.365 185.816 404.998C184.841 403.92 182.805 404.294 182.448 405.465Z" fill="#FFE87B"/>
<path d="M182.423 408.071C182.423 409.149 181.414 409.768 180.124 409.437C178.835 409.106 177.673 408.682 177.673 407.74C177.673 407.129 178.334 406.67 179.683 406.67C181.032 406.67 182.423 407.179 182.423 408.071Z" fill="#FF886D"/>
<path d="M139.313 396.434C139.469 396.014 139.512 395.56 139.436 395.118C139.361 394.676 139.17 394.262 138.884 393.918C138.597 393.573 138.225 393.31 137.804 393.156C137.384 393.002 136.93 392.961 136.488 393.039C136.102 393.023 135.719 393.106 135.374 393.281C135.029 393.456 134.734 393.716 134.518 394.037C134.302 394.357 134.172 394.728 134.14 395.114C134.107 395.499 134.174 395.886 134.334 396.239C134.095 395.797 133.713 395.449 133.25 395.254C132.788 395.058 132.273 395.025 131.789 395.161C130.423 395.585 130.254 397.325 130.72 398.556C131.061 399.544 131.614 400.445 132.339 401.197C133.064 401.949 133.945 402.534 134.919 402.91C135.871 403.3 136.912 403.416 137.926 403.243C138.94 403.071 139.885 402.617 140.654 401.934C142.528 400.321 143.775 397.894 142.74 396.391C141.867 395.186 139.805 395.322 139.313 396.434Z" fill="#FF886D"/>
<path d="M138.754 398.454C138.754 399.523 137.753 400.101 136.463 399.82C135.174 399.54 134.012 399.065 134.012 398.123C134.012 397.52 134.665 397.053 136.022 397.053C137.379 397.053 138.754 397.563 138.754 398.454Z" fill="#A0B7EE"/>
<path d="M152.317 416.864C152.473 416.445 152.515 415.992 152.44 415.551C152.365 415.11 152.175 414.697 151.89 414.352C151.604 414.008 151.233 413.745 150.814 413.59C150.394 413.435 149.942 413.393 149.501 413.469C149.115 413.453 148.731 413.537 148.386 413.711C148.041 413.886 147.747 414.146 147.531 414.467C147.315 414.788 147.185 415.158 147.152 415.544C147.12 415.929 147.187 416.317 147.347 416.669C147.105 416.229 146.723 415.884 146.261 415.688C145.799 415.493 145.285 415.458 144.802 415.591C143.436 416.015 143.275 417.755 143.741 418.986C144.082 419.974 144.635 420.875 145.36 421.627C146.085 422.379 146.966 422.964 147.94 423.34C148.892 423.731 149.933 423.846 150.947 423.673C151.961 423.501 152.906 423.047 153.675 422.364C155.549 420.751 156.788 418.324 155.761 416.822C154.879 415.616 152.809 415.752 152.317 416.864Z" fill="#A0B7EE"/>
<path d="M152.148 418.613C152.148 419.682 151.138 420.259 149.858 419.979C148.577 419.699 147.406 419.224 147.406 418.281C147.406 417.679 148.059 417.212 149.416 417.212C150.774 417.212 152.148 417.721 152.148 418.613Z" fill="#FFE87B"/>
<path d="M523.237 416.329H389.395V454.711H523.237V416.329Z" fill="#FF6952"/>
<path d="M457.029 394.405C454.764 391.12 451.498 389.694 447.163 390.051C442.829 390.407 439.699 393.446 440.165 397.274C438.729 395.598 436.895 394.31 434.832 393.527C432.77 392.745 430.543 392.493 428.358 392.794C426.172 393.096 424.097 393.941 422.323 395.253C420.549 396.565 419.132 398.302 418.203 400.304C414.734 397.427 409.152 396.62 404.554 397.52C399.957 398.42 396.402 402.002 397.208 405.957C395.745 405.297 394.162 404.944 392.557 404.919C390.953 404.894 389.36 405.198 387.877 405.813C384.976 407.171 382.855 410.362 383.313 413.537C383.434 414.41 383.73 415.251 384.183 416.007C384.636 416.764 385.237 417.421 385.95 417.94C386.662 418.459 387.472 418.829 388.331 419.028C389.19 419.226 390.08 419.25 390.948 419.096C390.702 423.34 394.112 427.584 397.87 428.747C408.668 432.023 417.592 430.385 425.498 424.376C438.299 433.619 457.029 433.628 469.829 424.376C473.706 431.302 482.393 433.288 491.037 431.259C496.033 430.097 501.055 425.691 501.844 420.743C508.155 424.376 516.892 426.472 523.619 423.867C530.592 421.167 533.383 416.083 531.313 410.167C529.158 404.039 521.795 401.798 516.281 403.02C517.13 399.031 513.372 393.684 508.036 391.927C499.222 389.024 489.179 390.543 483.979 394.524C483.801 390.509 477.685 388.362 473.155 388.404C466.555 388.489 461.05 390.306 457.029 394.405Z" fill="#00B28C"/>
<path d="M445.95 405.117C444.884 405.839 443.615 406.201 442.329 406.151C441.042 406.1 439.806 405.64 438.799 404.837C437.858 404.939 436.738 405.94 437.476 407.867C437.833 408.869 438.428 409.77 439.209 410.492C439.991 411.213 440.936 411.734 441.963 412.009C443.003 412.301 444.102 412.309 445.146 412.033C446.19 411.757 447.141 411.206 447.901 410.439C449.598 408.614 450.522 406.059 449.318 404.692C448.342 403.581 446.307 403.954 445.95 405.117Z" fill="#FFE87B"/>
<path d="M445.916 407.731C445.916 408.809 444.915 409.378 443.626 409.098C442.337 408.818 441.174 408.342 441.174 407.4C441.174 406.797 441.828 406.331 443.185 406.331C444.542 406.331 445.916 406.84 445.916 407.731Z" fill="#FF886D"/>
<path d="M503.93 397.334C502.862 398.052 501.593 398.411 500.308 398.359C499.022 398.307 497.786 397.847 496.779 397.045C495.838 397.147 494.718 398.148 495.456 400.084C495.813 401.086 496.408 401.987 497.189 402.708C497.971 403.43 498.916 403.951 499.943 404.226C500.983 404.514 502.081 404.52 503.125 404.244C504.168 403.968 505.119 403.42 505.881 402.655C507.578 400.831 508.503 398.267 507.298 396.901C506.323 395.789 504.287 396.171 503.93 397.334Z" fill="#FFE87B"/>
<path d="M503.879 399.948C503.879 401.017 502.878 401.594 501.589 401.314C500.3 401.034 499.137 400.559 499.137 399.617C499.137 399.014 499.799 398.547 501.148 398.547C502.497 398.547 503.879 399.048 503.879 399.948Z" fill="#FF886D"/>
<path d="M491.062 413.622C491.218 413.202 491.26 412.748 491.185 412.306C491.109 411.864 490.919 411.45 490.632 411.105C490.346 410.761 489.973 410.498 489.553 410.344C489.132 410.19 488.678 410.149 488.237 410.227C487.851 410.212 487.467 410.296 487.122 410.472C486.777 410.648 486.483 410.909 486.268 411.231C486.053 411.552 485.923 411.924 485.892 412.31C485.862 412.696 485.93 413.083 486.091 413.435C485.85 412.995 485.468 412.648 485.006 412.451C484.545 412.254 484.031 412.218 483.546 412.348C482.18 412.773 482.019 414.521 482.477 415.744C482.817 416.733 483.369 417.637 484.094 418.39C484.819 419.144 485.701 419.73 486.676 420.106C487.629 420.497 488.672 420.613 489.687 420.441C490.702 420.268 491.649 419.814 492.419 419.13C494.294 417.518 495.532 415.082 494.497 413.588C493.615 412.374 491.554 412.51 491.062 413.622Z" fill="#FF886D"/>
<path d="M490.502 415.633C490.502 416.711 489.501 417.288 488.212 417C486.922 416.711 485.76 416.244 485.76 415.302C485.76 414.691 486.422 414.233 487.771 414.233C489.119 414.233 490.502 414.742 490.502 415.633Z" fill="#A0B7EE"/>
<path d="M416.608 414.581C416.764 414.161 416.807 413.707 416.731 413.265C416.656 412.823 416.465 412.409 416.179 412.065C415.892 411.72 415.52 411.457 415.099 411.303C414.678 411.149 414.225 411.108 413.783 411.186C413.398 411.172 413.015 411.256 412.672 411.431C412.328 411.607 412.035 411.867 411.82 412.188C411.605 412.508 411.475 412.878 411.443 413.263C411.411 413.648 411.478 414.034 411.637 414.386C411.394 413.937 411.005 413.586 410.534 413.389C410.063 413.193 409.539 413.164 409.05 413.308C407.684 413.732 407.523 415.472 407.981 416.703C408.322 417.691 408.875 418.592 409.6 419.344C410.325 420.096 411.206 420.681 412.18 421.057C413.133 421.45 414.176 421.567 415.192 421.394C416.207 421.222 417.154 420.767 417.923 420.081C419.798 418.468 421.036 416.041 420.001 414.538C419.162 413.359 417.1 413.469 416.608 414.581Z" fill="#A0B7EE"/>
<path d="M416.439 416.329C416.439 417.407 415.429 417.976 414.14 417.696C412.85 417.416 411.688 416.94 411.688 415.998C411.688 415.396 412.35 414.929 413.699 414.929C415.047 414.929 416.439 415.438 416.439 416.329Z" fill="#FFE87B"/>
<path d="M351.087 434.578L235.644 433.729L237.281 411.041C237.297 410.827 237.392 410.626 237.55 410.479C237.707 410.333 237.915 410.251 238.13 410.252L350.247 411.101C350.472 411.101 350.688 411.19 350.847 411.349C351.006 411.509 351.095 411.724 351.095 411.95L351.087 434.578Z" fill="#FFFAEB"/>
<path d="M362.505 454.72H224.235L225.864 431.183C225.879 430.968 225.975 430.767 226.132 430.621C226.29 430.474 226.497 430.393 226.712 430.394L360.028 432.091C360.242 432.091 360.448 432.171 360.605 432.315C360.762 432.46 360.859 432.659 360.876 432.872L362.505 454.72Z" fill="#FFFAEB"/>
<path d="M192.356 254.279C195.478 257.038 195.945 261.613 195.945 261.613C195.945 261.613 191.355 261.706 188.234 258.939C185.112 256.172 184.646 251.605 184.646 251.605C184.646 251.605 189.235 251.512 192.356 254.279Z" fill="#009375"/>
<path d="M202.027 252.633C201.424 256.758 197.862 259.652 197.862 259.652C197.862 259.652 195.266 255.858 195.868 251.733C196.471 247.608 200.042 244.713 200.042 244.713C200.042 244.713 202.629 248.507 202.027 252.633Z" fill="#009375"/>
<path d="M205.42 257.471C202.417 260.356 197.828 260.45 197.828 260.45C197.828 260.45 198.108 255.866 201.119 252.981C204.131 250.095 208.711 250.001 208.711 250.001C208.711 250.001 208.431 254.585 205.42 257.471Z" fill="#009375"/>
<path d="M197.412 249.925C198.786 254.729 196.309 259.652 196.309 259.652C196.309 259.652 191.61 256.783 190.244 251.97C188.878 247.158 191.347 242.252 191.347 242.252C191.347 242.252 196.046 245.121 197.412 249.925Z" fill="#009375"/>
<path d="M203.52 278.138L189.099 277.638L185.706 258.523L206.845 257.649L203.52 278.138Z" fill="#F3B131"/>
<path d="M195.47 248.423C195.36 248.369 195.24 248.341 195.118 248.341C194.996 248.341 194.875 248.369 194.766 248.423C194.621 248.041 194.384 247.752 194.121 247.735C193.885 247.744 193.659 247.833 193.481 247.987C193.302 248.142 193.181 248.352 193.137 248.584C192.953 248.481 192.742 248.437 192.533 248.459C192.323 248.48 192.126 248.565 191.966 248.703C191.635 249.068 191.907 250.035 192.577 250.561C192.793 250.734 193.041 250.862 193.307 250.938C193.573 251.013 193.851 251.035 194.126 251.001C194.4 250.967 194.665 250.878 194.904 250.74C195.144 250.602 195.354 250.417 195.521 250.196C195.636 250.078 195.726 249.937 195.785 249.783C195.845 249.629 195.874 249.464 195.869 249.299C195.864 249.133 195.826 248.971 195.758 248.82C195.689 248.67 195.591 248.535 195.47 248.423Z" fill="#FF6952"/>
<path d="M200.585 253.609C200.477 253.553 200.358 253.524 200.237 253.524C200.116 253.524 199.997 253.553 199.889 253.609C199.745 253.218 199.507 252.93 199.244 252.913C199.009 252.922 198.783 253.011 198.604 253.165C198.426 253.319 198.304 253.529 198.26 253.761C198.078 253.658 197.867 253.612 197.658 253.632C197.448 253.652 197.25 253.736 197.09 253.872C196.759 254.237 197.03 255.204 197.701 255.731C197.916 255.905 198.164 256.034 198.43 256.11C198.696 256.186 198.975 256.207 199.25 256.173C199.524 256.139 199.79 256.05 200.029 255.911C200.269 255.773 200.478 255.587 200.644 255.366C200.757 255.247 200.845 255.107 200.903 254.954C200.962 254.801 200.989 254.638 200.983 254.475C200.978 254.311 200.94 254.15 200.871 254.001C200.803 253.853 200.705 253.719 200.585 253.609Z" fill="#FF6952"/>
<path d="M311.073 279.225L422.292 276.679L426.533 192.36L311.922 188.116L311.073 279.225Z" fill="#D5E3F9"/>
<path d="M309.36 280.948L310.208 186.351L311.956 186.41L428.28 190.722L423.878 278.325L309.36 280.948ZM313.601 189.873L312.753 277.476L420.68 275.006L424.752 193.99L313.601 189.873Z" fill="#00B28C"/>
<path d="M309.377 155.565V66.9437H427.347L429.044 150.973L427.347 151.041L309.377 155.565ZM312.77 70.3389V152.043L425.591 147.714L424.048 70.3389H312.77Z" fill="#00B28C"/>
<path d="M132.934 39.3752C135.126 39.6216 137.329 39.7491 139.534 39.7571L146.218 40.0202C150.612 40.19 155.009 40.3456 159.409 40.4871C168.248 40.7587 177.087 40.9878 185.926 41.1067C190.855 41.1831 195.809 41.1915 200.737 40.886C200.771 40.886 200.804 40.8726 200.827 40.8487C200.851 40.8248 200.865 40.7924 200.865 40.7587C200.865 40.7249 200.851 40.6925 200.827 40.6686C200.804 40.6448 200.771 40.6314 200.737 40.6314C196.335 40.3513 191.932 40.2918 187.521 40.207C183.11 40.1221 178.699 40.0542 174.28 39.9523C165.491 39.7486 156.703 39.46 147.906 39.163L140.459 38.9083L136.743 38.781C135.503 38.7174 134.26 38.7174 133.019 38.781C132.688 38.781 132.561 39.3412 132.934 39.4006V39.3752Z" fill="#343B38"/>
<path d="M284.039 42.8976C294.54 43.2371 305.051 43.636 315.552 43.9841C325.91 44.3321 336.276 44.731 346.633 45.079C356.991 45.427 367.365 45.7665 377.731 46.0551C388.097 46.3437 398.472 46.6068 408.838 46.7596C419.357 46.9208 429.892 47.1076 440.411 46.819C441.743 46.819 443.066 46.7341 444.398 46.6577C444.463 46.6463 444.521 46.6124 444.564 46.5619C444.606 46.5115 444.629 46.4477 444.629 46.3819C444.629 46.316 444.606 46.2522 444.564 46.2018C444.521 46.1514 444.463 46.1174 444.398 46.106C433.871 45.6052 423.293 45.8174 412.757 45.6646C402.374 45.5119 391.991 45.294 381.608 45.0111C371.225 44.7282 360.856 44.4141 350.502 44.0689C340.153 43.7294 329.804 43.404 319.454 43.0928C308.978 42.7788 298.493 42.4817 288.017 42.3289C286.685 42.3289 285.362 42.3289 284.039 42.3289C283.674 42.3289 283.674 42.8891 284.039 42.9061V42.8976Z" fill="#343B38"/>
<path d="M136.811 174.052C139.067 173.967 141.332 173.806 143.597 173.755C144.708 173.755 145.837 173.755 146.948 173.712C148.059 173.67 149.255 173.712 150.392 173.628C150.604 173.628 150.689 173.271 150.443 173.229C149.323 173.025 148.169 173.059 147.05 172.948C145.905 172.885 144.758 172.885 143.614 172.948C141.314 172.973 139.017 173.128 136.735 173.415C136.37 173.466 136.455 174.077 136.828 174.06L136.811 174.052Z" fill="#343B38"/>
<path d="M159.341 163.569C159.206 164.8 159.223 166.039 159.206 167.287C159.206 168.391 159.206 169.486 159.206 170.589C159.206 171.692 159.29 172.957 159.384 174.137C159.365 174.351 159.4 174.567 159.486 174.764C159.572 174.961 159.706 175.134 159.876 175.266C160.418 175.465 161 175.529 161.572 175.452C165.737 175.597 169.894 175.843 174.051 176.098C176.595 176.25 179.191 176.403 181.761 176.53C182.355 176.53 182.347 175.682 181.761 175.622C177.681 175.435 173.601 175.181 169.512 174.96C167.51 174.858 165.508 174.765 163.506 174.697L161.886 174.638H161.08C160.916 174.646 160.752 174.646 160.588 174.638C160.317 174.638 160.308 174.638 160.257 174.341C160.185 173.806 160.151 173.267 160.156 172.728C160.122 172.122 160.096 171.52 160.079 170.92C160.136 168.458 160.04 165.994 159.791 163.544C159.791 163.272 159.384 163.374 159.358 163.603L159.341 163.569Z" fill="#343B38"/>
<path d="M174.271 176.072C174.271 177.014 174.271 177.956 174.271 178.898C174.271 179.348 174.271 179.798 174.271 180.24C174.241 180.698 174.275 181.158 174.373 181.606C174.432 181.782 174.547 181.933 174.7 182.038C174.853 182.142 175.036 182.193 175.221 182.183C175.747 182.183 176.29 182.183 176.816 182.124C177.868 182.124 178.911 182.039 179.963 181.997C184.077 181.827 188.191 181.657 192.306 181.436L195.8 181.258L197.607 181.173C198.203 181.2 198.799 181.146 199.38 181.012C199.464 180.987 199.538 180.935 199.59 180.865C199.643 180.795 199.671 180.709 199.671 180.622C199.671 180.534 199.643 180.448 199.59 180.378C199.538 180.308 199.464 180.256 199.38 180.231C198.904 180.148 198.418 180.134 197.938 180.189L196.454 180.257L193.442 180.418C191.508 180.52 189.574 180.636 187.64 180.766C183.704 181.012 179.759 181.25 175.764 181.343C175.637 181.343 175.23 181.428 175.119 181.343C175.009 181.258 175.077 180.689 175.068 180.554L174.992 179.119C174.992 178.101 174.873 177.091 174.78 176.081C174.78 175.733 174.212 175.716 174.22 176.081L174.271 176.072Z" fill="#343B38"/>
<path d="M146.982 180.91C147.848 180.995 148.72 180.995 149.586 180.91C150.434 180.91 151.376 180.851 152.267 180.808C154.056 180.723 155.846 180.639 157.636 180.537C159.426 180.435 161.216 180.325 162.997 180.172L165.678 179.951C166.586 179.866 167.468 179.73 168.358 179.62C168.664 179.62 168.681 179.128 168.358 179.136C167.468 179.136 166.577 179.136 165.678 179.221L162.997 179.374C161.216 179.467 159.426 179.586 157.636 179.688L152.267 179.968L149.586 180.104C148.713 180.093 147.841 180.164 146.982 180.316C146.71 180.375 146.685 180.851 146.982 180.893V180.91Z" fill="#343B38"/>
<path d="M138.872 312.048C139.96 312.237 141.06 312.351 142.164 312.387C143.258 312.463 144.361 312.523 145.455 312.582C147.669 312.71 149.891 312.803 152.114 312.888C156.525 313.049 160.945 313.193 165.356 313.21H169.071C170.319 313.259 171.569 313.188 172.804 312.998C172.881 312.974 172.95 312.926 172.998 312.86C173.047 312.794 173.073 312.715 173.073 312.633C173.073 312.552 173.047 312.472 172.998 312.406C172.95 312.341 172.881 312.292 172.804 312.268C171.708 312.11 170.602 312.044 169.495 312.073H166.289L159.621 311.997C155.202 311.92 150.791 311.767 146.38 311.615L142.757 311.479L140.9 311.419C140.255 311.385 139.61 311.385 138.966 311.419C138.601 311.419 138.465 312.005 138.872 312.098V312.048Z" fill="#343B38"/>
<path d="M163.837 318.057C171.531 318.125 179.233 318.286 186.927 318.125L190.134 318.065C191.237 318.065 192.339 317.896 193.434 317.819C193.517 317.819 193.597 317.786 193.656 317.727C193.715 317.668 193.748 317.589 193.748 317.505C193.748 317.422 193.715 317.342 193.656 317.283C193.597 317.224 193.517 317.191 193.434 317.191L192 317.115C191.517 317.115 191.042 317.013 190.558 317.004C189.599 317.004 188.641 317.004 187.682 317.004C185.765 317.004 183.857 317.004 181.94 317.004C178.08 317.055 174.203 317.004 170.352 317.217C168.189 317.327 166.009 317.335 163.837 317.386C163.749 317.386 163.665 317.421 163.603 317.483C163.541 317.545 163.506 317.63 163.506 317.717C163.506 317.805 163.541 317.889 163.603 317.951C163.665 318.014 163.749 318.048 163.837 318.048V318.057Z" fill="#343B38"/>
<path d="M134.393 336.459C133.879 338.999 133.558 341.576 133.435 344.166C133.392 344.819 133.367 345.473 133.341 346.126C133.243 346.745 133.243 347.375 133.341 347.994C133.415 348.219 133.545 348.423 133.718 348.585C133.892 348.746 134.104 348.861 134.334 348.919C134.616 348.953 134.901 348.953 135.182 348.919C135.539 348.919 135.895 348.97 136.251 348.995C138.872 349.216 141.519 349.292 144.149 349.453C146.778 349.615 149.238 349.734 151.715 349.861C154.741 350.09 157.777 350.149 160.809 350.039C160.899 350.026 160.982 349.98 161.041 349.911C161.101 349.841 161.134 349.753 161.134 349.661C161.134 349.57 161.101 349.482 161.041 349.412C160.982 349.343 160.899 349.297 160.809 349.284C158.264 348.961 155.668 348.885 153.098 348.766L145.82 348.418C143.402 348.299 140.993 348.223 138.584 348.146L136.658 348.095C136.002 348.151 135.342 348.134 134.69 348.044C134.13 347.892 134.292 347.196 134.3 346.737C134.3 346.101 134.3 345.464 134.3 344.828C134.376 342.044 134.631 339.268 134.775 336.484C134.775 336.431 134.755 336.38 134.72 336.34C134.685 336.3 134.637 336.274 134.585 336.267C134.532 336.259 134.478 336.271 134.434 336.3C134.39 336.329 134.357 336.374 134.342 336.425L134.393 336.459Z" fill="#343B38"/>
<path d="M138.584 353.944C142.384 354.224 146.218 354.377 150.01 354.64C153.802 354.903 157.56 355.174 161.343 355.429C163.481 355.565 165.644 355.718 167.79 355.684C167.977 355.684 168.036 355.387 167.79 355.344C166.866 355.149 165.932 355.022 164.999 354.894C164.066 354.767 163.15 354.614 162.217 354.521C160.317 354.326 158.425 354.156 156.517 354.028C152.682 353.757 148.882 353.596 145.014 353.477C142.851 353.409 140.696 353.366 138.541 353.4C138.469 353.4 138.4 353.429 138.35 353.48C138.299 353.531 138.27 353.6 138.27 353.672C138.27 353.744 138.299 353.813 138.35 353.864C138.4 353.915 138.469 353.944 138.541 353.944H138.584Z" fill="#343B38"/>
<path d="M387.453 364.579C386.698 368.823 387.266 373.22 387.936 377.446C387.974 377.578 388.053 377.694 388.161 377.778C388.269 377.862 388.402 377.91 388.539 377.913C389.87 377.913 391.194 377.913 392.526 377.913C394.298 377.913 396.063 377.845 397.836 377.913L408.982 378.193L411.527 378.253C412.221 378.325 412.92 378.325 413.614 378.253C413.702 378.222 413.778 378.164 413.832 378.088C413.885 378.012 413.914 377.922 413.914 377.828C413.914 377.735 413.885 377.644 413.832 377.568C413.778 377.492 413.702 377.435 413.614 377.404C413.02 377.277 412.414 377.217 411.807 377.226L409.61 377.149L404.308 377.005C402.4 376.954 400.491 376.937 398.574 376.903C396.657 376.869 394.96 376.767 393.153 376.708C391.618 376.708 390.082 376.708 388.547 376.708L389.149 377.166C388.793 375.112 388.471 373.041 388.301 370.962C388.131 368.882 388.038 366.786 388.004 364.698C388.004 364.418 387.555 364.333 387.495 364.63L387.453 364.579Z" fill="#343B38"/>
<path d="M403.46 377.828C403.093 378.473 402.919 379.21 402.959 379.95C402.866 380.74 402.722 381.546 402.705 382.344C402.707 382.489 402.766 382.627 402.869 382.729C402.972 382.83 403.111 382.887 403.256 382.887C404.144 382.838 405.035 382.86 405.92 382.955C406.768 382.998 407.616 383.04 408.465 383.065C410.11 383.133 411.764 383.184 413.41 383.227C416.676 383.329 419.942 383.447 423.208 383.43C425.176 383.43 427.144 383.43 429.103 383.235C429.179 383.223 429.247 383.184 429.297 383.126C429.346 383.067 429.374 382.993 429.374 382.917C429.374 382.84 429.346 382.766 429.297 382.708C429.247 382.65 429.179 382.611 429.103 382.599C425.753 382.242 422.317 382.259 418.975 382.2C415.734 382.149 412.497 382.078 409.262 381.987L406.412 381.954H404.927C404.417 381.97 403.906 381.945 403.4 381.877L403.791 382.556C403.926 381.775 403.952 380.969 404.02 380.18C404.2 379.449 404.18 378.684 403.96 377.964C403.935 377.922 403.902 377.887 403.861 377.86C403.821 377.833 403.775 377.816 403.726 377.809C403.678 377.803 403.629 377.807 403.583 377.822C403.537 377.837 403.495 377.863 403.46 377.896V377.828Z" fill="#343B38"/>
<path d="M239.216 300.682C238.902 302.003 238.664 303.341 238.503 304.689C238.308 306.081 238.121 307.473 237.935 308.865C237.578 311.598 237.273 314.339 237.163 317.098C237.112 318.235 237.052 319.364 238.011 320.128C238.969 320.892 240.31 320.595 241.404 320.595L249.582 320.544C255.197 320.493 260.813 320.417 266.428 320.315C272.052 320.221 277.677 320.119 283.292 320.052C288.908 319.984 294.32 320.001 299.783 319.865C300.437 319.854 301.089 319.791 301.734 319.678C301.813 319.651 301.881 319.6 301.93 319.533C301.978 319.465 302.004 319.384 302.004 319.3C302.004 319.217 301.978 319.136 301.93 319.068C301.881 319 301.813 318.949 301.734 318.923C300.447 318.742 299.147 318.671 297.849 318.71H293.862C291.164 318.71 288.47 318.742 285.778 318.804C280.298 318.889 274.821 318.991 269.346 319.109C263.872 319.228 258.395 319.33 252.915 319.415C250.223 319.455 247.531 319.486 244.84 319.508H240.861C239.92 319.508 238.537 319.771 238.147 318.617C238.035 318.021 238.02 317.41 238.104 316.809C238.104 316.164 238.155 315.511 238.198 314.865C238.282 313.507 238.401 312.158 238.537 310.817C238.808 308.109 239.139 305.402 239.385 302.685C239.436 302.013 239.436 301.338 239.385 300.665C239.378 300.64 239.363 300.618 239.343 300.602C239.322 300.587 239.297 300.578 239.271 300.578C239.245 300.578 239.219 300.587 239.199 300.602C239.178 300.618 239.163 300.64 239.156 300.665L239.216 300.682Z" fill="#343B38"/>
<path d="M249.14 320.077C249.013 321.231 249.013 322.403 248.971 323.557C248.928 324.711 248.886 325.934 248.852 327.13C248.773 329.665 248.688 332.212 248.597 334.769C248.411 339.922 248.207 345.082 248.038 350.234C247.987 351.635 247.97 353.035 247.936 354.427C247.902 355.819 247.868 357.169 247.936 358.535C247.936 358.773 248.351 358.875 248.394 358.595C248.572 357.432 248.648 356.244 248.716 355.072C248.784 353.901 248.886 352.577 248.937 351.329C249.047 348.783 249.157 346.237 249.251 343.69C249.42 338.521 249.573 333.344 249.675 328.174C249.675 326.808 249.717 325.441 249.717 324.083C249.717 322.725 249.777 321.435 249.666 320.119C249.655 320.055 249.621 319.996 249.571 319.953C249.52 319.911 249.456 319.888 249.391 319.888C249.325 319.888 249.261 319.911 249.211 319.953C249.16 319.996 249.126 320.055 249.115 320.119L249.14 320.077Z" fill="#343B38"/>
<path d="M236.942 412.561C236.45 417.136 236.094 421.736 235.695 426.328C235.619 427.287 235.492 428.272 235.5 429.239C235.475 429.5 235.513 429.763 235.612 430.006C235.711 430.248 235.868 430.463 236.068 430.631C236.375 430.796 236.723 430.866 237.069 430.835C238.766 430.886 240.462 431.047 242.159 431.132C243.856 431.217 245.671 431.293 247.427 431.361C254.79 431.633 262.162 431.735 269.482 431.769C276.803 431.803 284.336 431.769 291.767 431.769C298.935 431.769 306.102 431.769 313.27 431.879C314.119 431.879 314.967 431.879 315.815 431.879C315.897 431.866 315.972 431.824 316.026 431.761C316.079 431.698 316.109 431.618 316.109 431.535C316.109 431.452 316.079 431.372 316.026 431.309C315.972 431.246 315.897 431.204 315.815 431.192C314.119 431.022 312.422 431.03 310.726 430.988L305.5 430.903C301.937 430.863 298.375 430.835 294.812 430.818C287.534 430.818 280.255 430.818 272.969 430.818C265.682 430.818 258.472 430.725 251.227 430.538C247.698 430.445 244.169 430.326 240.649 430.156L238.062 430.02C237.577 430.028 237.093 430.006 236.611 429.952C236.238 429.876 236.314 429.214 236.323 428.891C236.331 428.569 236.323 428.043 236.391 427.644C236.679 422.975 237.239 418.307 237.349 413.63C237.349 413.282 237.349 412.926 237.349 412.578C237.339 412.526 237.311 412.479 237.27 412.445C237.229 412.411 237.178 412.392 237.124 412.392C237.071 412.392 237.02 412.411 236.979 412.445C236.938 412.479 236.91 412.526 236.9 412.578L236.942 412.561Z" fill="#343B38"/>
<path d="M327.369 431.921C335.75 432.286 344.148 432.473 352.538 432.541H356.049C357.234 432.581 358.421 432.561 359.604 432.482C359.703 432.482 359.798 432.442 359.868 432.372C359.938 432.302 359.977 432.207 359.977 432.108C359.977 432.009 359.938 431.914 359.868 431.844C359.798 431.774 359.703 431.735 359.604 431.735C358.56 431.624 357.508 431.65 356.457 431.633L353.36 431.573L347.032 431.455C342.791 431.378 338.634 431.302 334.435 431.268C332.077 431.268 329.727 431.268 327.369 431.378C327.308 431.389 327.254 431.421 327.214 431.469C327.175 431.516 327.153 431.576 327.153 431.637C327.153 431.699 327.175 431.758 327.214 431.806C327.254 431.853 327.308 431.885 327.369 431.896V431.921Z" fill="#343B38"/>
<path d="M225.702 432.032C225.524 433.013 225.422 434.006 225.397 435.003C225.278 436.488 225.168 437.965 225.058 439.442C224.803 442.899 224.535 446.351 224.252 449.797C224.094 451.444 224.02 453.099 224.031 454.754C224.032 454.798 224.049 454.84 224.079 454.874C224.108 454.907 224.148 454.928 224.192 454.934C224.236 454.94 224.28 454.931 224.318 454.907C224.355 454.883 224.383 454.847 224.396 454.805C224.717 453.408 224.933 451.99 225.041 450.561C225.21 448.863 225.338 447.166 225.448 445.468C225.643 442.192 225.855 438.915 225.965 435.639C225.965 434.969 226.008 434.298 226.033 433.619C226.076 433.114 226.076 432.605 226.033 432.1C226.033 431.93 225.753 431.862 225.711 432.057L225.702 432.032Z" fill="#343B38"/>
<path d="M228.637 448.235C228.536 449.296 228.493 450.374 228.425 451.444C228.425 451.995 228.349 452.547 228.332 453.141C228.249 453.714 228.313 454.298 228.519 454.839C228.539 454.872 228.568 454.9 228.602 454.919C228.636 454.938 228.675 454.948 228.714 454.948C228.753 454.948 228.791 454.938 228.826 454.919C228.86 454.9 228.888 454.872 228.909 454.839C229.091 454.293 229.16 453.715 229.113 453.141C229.113 452.575 229.138 452.009 229.189 451.444C229.293 450.378 229.322 449.305 229.274 448.235C229.261 448.16 229.223 448.091 229.164 448.042C229.106 447.992 229.032 447.965 228.956 447.965C228.879 447.965 228.805 447.992 228.747 448.042C228.689 448.091 228.65 448.16 228.637 448.235Z" fill="#343B38"/>
<path d="M231.42 449.491C231.318 450.34 231.318 451.189 231.284 452.038C231.284 452.479 231.284 452.887 231.225 453.37C231.147 453.852 231.215 454.345 231.42 454.788C231.441 454.821 231.471 454.849 231.506 454.867C231.541 454.886 231.58 454.896 231.619 454.896C231.659 454.896 231.698 454.886 231.733 454.867C231.767 454.849 231.797 454.821 231.818 454.788C232.006 454.34 232.073 453.852 232.014 453.37C232.014 452.921 232.014 452.479 232.014 452.038C232.071 451.19 232.071 450.339 232.014 449.491C232.001 449.416 231.962 449.347 231.904 449.298C231.846 449.248 231.772 449.221 231.696 449.221C231.619 449.221 231.545 449.248 231.487 449.298C231.429 449.347 231.39 449.416 231.377 449.491H231.42Z" fill="#343B38"/>
<path d="M234.126 450.705C234.024 451.384 234.016 452.089 233.965 452.776C233.965 453.141 233.922 453.498 233.905 453.863C233.866 454.05 233.867 454.243 233.906 454.43C233.946 454.617 234.023 454.794 234.134 454.949C234.177 454.992 234.235 455.015 234.296 455.015C234.356 455.015 234.414 454.992 234.457 454.949C234.671 454.63 234.756 454.242 234.694 453.863C234.694 453.498 234.694 453.141 234.694 452.776C234.762 452.088 234.762 451.394 234.694 450.705C234.678 450.636 234.639 450.575 234.583 450.531C234.528 450.487 234.459 450.464 234.389 450.464C234.318 450.464 234.25 450.487 234.194 450.531C234.139 450.575 234.1 450.636 234.083 450.705H234.126Z" fill="#343B38"/>
<path d="M96.0425 416.177C94.5606 416.197 93.1177 416.655 91.8944 417.492C91.0694 417.969 90.3203 418.567 89.6719 419.266C88.9779 419.928 88.5041 420.787 88.3147 421.728C88.3147 422.025 88.6879 422.067 88.8321 421.872C89.2804 421.101 89.788 420.366 90.3506 419.674C90.9369 419.051 91.5979 418.504 92.3186 418.044C92.9607 417.623 93.6496 417.278 94.3714 417.017C94.9113 416.79 95.4842 416.653 96.068 416.609C96.118 416.599 96.1631 416.572 96.1954 416.533C96.2278 416.493 96.2455 416.444 96.2455 416.393C96.2455 416.342 96.2278 416.292 96.1954 416.253C96.1631 416.213 96.118 416.186 96.068 416.177H96.0425Z" fill="#343B38"/>
<path d="M80.7904 416.906C81.1551 416.906 81.5114 416.805 81.8762 416.805C82.2344 416.806 82.5909 416.855 82.9365 416.949C83.6413 417.15 84.3048 417.475 84.8961 417.908C85.4277 418.287 85.9118 418.729 86.3381 419.224C86.4993 419.419 86.6605 419.614 86.8132 419.826C86.9659 420.039 87.0931 420.259 87.2967 420.344C87.3278 420.362 87.3622 420.374 87.3979 420.379C87.4336 420.383 87.4699 420.381 87.5046 420.371C87.5394 420.362 87.5719 420.346 87.6003 420.323C87.6286 420.301 87.6523 420.274 87.67 420.242C87.9244 419.716 87.3815 419.054 87.0507 418.663C86.5604 418.084 85.989 417.578 85.3541 417.161C84.6765 416.715 83.9234 416.396 83.1316 416.219C82.3221 415.991 81.4575 416.063 80.6971 416.423C80.65 416.453 80.6139 416.498 80.5941 416.551C80.5743 416.603 80.5718 416.661 80.5869 416.715C80.6021 416.769 80.6341 416.816 80.6784 416.851C80.7226 416.885 80.7767 416.905 80.8328 416.906H80.7904Z" fill="#343B38"/>
<path d="M128.939 399.54C130.443 399.529 131.91 400.006 133.121 400.898C133.688 401.294 134.235 401.719 134.758 402.172C135.002 402.37 135.226 402.592 135.428 402.834C135.53 402.961 135.615 403.105 135.717 403.241C135.818 403.377 135.954 403.419 136.056 403.53C136.086 403.559 136.123 403.581 136.163 403.592C136.204 403.602 136.247 403.602 136.287 403.591C136.328 403.58 136.365 403.558 136.394 403.528C136.424 403.498 136.444 403.46 136.455 403.419C136.543 403.277 136.587 403.112 136.582 402.944C136.548 402.752 136.479 402.568 136.378 402.401C136.168 402.081 135.911 401.795 135.615 401.552C135.004 401.013 134.349 400.528 133.655 400.101C132.964 399.637 132.184 399.322 131.365 399.176C130.546 399.03 129.705 399.056 128.896 399.252C128.861 399.26 128.829 399.28 128.807 399.309C128.784 399.337 128.772 399.372 128.772 399.409C128.772 399.445 128.784 399.48 128.807 399.509C128.829 399.537 128.861 399.558 128.896 399.566L128.939 399.54Z" fill="#343B38"/>
<path d="M143.801 399.557C142.645 399.635 141.531 400.016 140.569 400.661C139.226 401.393 138.053 402.399 137.125 403.614C136.897 403.928 136.711 404.271 136.573 404.633C136.483 404.799 136.428 404.983 136.414 405.171C136.399 405.36 136.425 405.55 136.489 405.728C136.513 405.77 136.547 405.805 136.588 405.832C136.628 405.859 136.674 405.876 136.722 405.883C136.771 405.889 136.819 405.885 136.866 405.87C136.912 405.855 136.954 405.83 136.989 405.796C137.252 405.592 137.354 405.108 137.506 404.82C137.702 404.476 137.926 404.15 138.177 403.844C138.723 403.179 139.353 402.589 140.051 402.087C140.713 401.586 141.42 401.148 142.164 400.78C142.667 400.477 143.222 400.27 143.801 400.168C143.882 400.168 143.959 400.136 144.017 400.079C144.074 400.022 144.106 399.944 144.106 399.863C144.106 399.782 144.074 399.704 144.017 399.647C143.959 399.59 143.882 399.557 143.801 399.557Z" fill="#343B38"/>
<path d="M141.307 419.207C142.994 419.32 144.57 420.088 145.701 421.346C146.211 421.896 146.645 422.512 146.99 423.179C147.16 423.502 147.304 423.841 147.465 424.172C147.566 424.489 147.758 424.77 148.017 424.978C148.047 424.995 148.08 425.005 148.114 425.007C148.149 425.009 148.183 425.003 148.215 424.99C148.247 424.977 148.275 424.957 148.298 424.931C148.321 424.906 148.338 424.876 148.348 424.843C148.45 424.483 148.414 424.098 148.246 423.765C148.105 423.379 147.929 423.006 147.72 422.653C147.303 421.924 146.792 421.254 146.201 420.658C145.567 420.008 144.804 419.498 143.961 419.16C143.118 418.823 142.214 418.665 141.307 418.697C141.239 418.697 141.175 418.724 141.127 418.772C141.079 418.82 141.052 418.885 141.052 418.952C141.052 419.02 141.079 419.084 141.127 419.132C141.175 419.18 141.239 419.207 141.307 419.207Z" fill="#343B38"/>
<path d="M171.277 409.488C172.892 409.415 174.496 409.794 175.908 410.583C177.139 411.285 178.231 412.205 179.132 413.299C179.488 413.698 180.09 413.189 179.853 412.747C179.015 411.378 177.76 410.313 176.273 409.709C174.682 408.979 172.913 408.731 171.183 408.996C170.903 409.038 170.971 409.505 171.251 409.488H171.277Z" fill="#343B38"/>
<path d="M180.939 414.292C181.709 412.91 182.782 411.72 184.077 410.812C184.758 410.33 185.492 409.928 186.266 409.615C186.622 409.479 186.988 409.369 187.36 409.284C187.747 409.256 188.124 409.143 188.463 408.953C188.498 408.916 188.525 408.871 188.541 408.822C188.557 408.773 188.562 408.721 188.556 408.67C188.549 408.619 188.531 408.57 188.504 408.526C188.476 408.483 188.439 408.446 188.395 408.419C188.09 408.206 187.547 408.325 187.165 408.376C186.736 408.449 186.315 408.566 185.909 408.724C185.041 409.039 184.224 409.479 183.483 410.031C182.025 410.974 180.937 412.393 180.404 414.046C180.328 414.36 180.786 414.572 180.947 414.275L180.939 414.292Z" fill="#343B38"/>
<path d="M405.25 416.754C406.802 416.941 408.281 417.526 409.542 418.451C410.145 418.909 410.67 419.462 411.094 420.089C411.512 420.788 411.889 421.511 412.223 422.254C412.401 422.585 413.028 422.449 412.978 422.05C412.627 420.298 411.599 418.755 410.119 417.755C408.724 416.742 407.049 416.187 405.326 416.168C405.012 416.168 404.919 416.686 405.25 416.737V416.754Z" fill="#343B38"/>
<path d="M413.962 421.982C414.99 420.881 416.201 419.965 417.541 419.275C418.152 419.022 418.786 418.829 419.433 418.697C419.764 418.629 420.078 418.545 420.417 418.502C420.739 418.503 421.059 418.442 421.359 418.324C421.399 418.3 421.432 418.266 421.456 418.225C421.479 418.184 421.491 418.138 421.491 418.091C421.491 418.043 421.479 417.997 421.456 417.956C421.432 417.915 421.399 417.881 421.359 417.857C421.026 417.73 420.666 417.695 420.315 417.755C419.958 417.756 419.601 417.779 419.246 417.823C418.513 417.932 417.797 418.137 417.117 418.434C415.578 419.043 414.314 420.193 413.563 421.668C413.527 421.721 413.513 421.786 413.523 421.849C413.533 421.913 413.567 421.97 413.617 422.01C413.667 422.049 413.731 422.068 413.795 422.063C413.859 422.058 413.918 422.029 413.962 421.982Z" fill="#343B38"/>
<path d="M435.559 407.935C437.232 407.963 438.835 408.614 440.055 409.76C440.69 410.274 441.259 410.864 441.751 411.517C441.958 411.805 442.148 412.105 442.32 412.416C442.464 412.671 442.6 413.087 442.854 413.265C442.932 413.309 443.024 413.322 443.111 413.3C443.198 413.277 443.273 413.223 443.321 413.146C443.507 412.824 443.321 412.357 443.176 412.043C443.005 411.682 442.794 411.34 442.549 411.024C441.986 410.278 441.321 409.615 440.572 409.055C439.155 407.866 437.325 407.289 435.483 407.451C435.186 407.493 435.253 407.986 435.55 407.969L435.559 407.935Z" fill="#343B38"/>
<path d="M450.718 408.156C449.323 408.33 448.001 408.878 446.892 409.743C446.201 410.241 445.577 410.826 445.034 411.483C444.428 412.151 443.966 412.937 443.677 413.791C443.631 413.904 443.631 414.03 443.678 414.143C443.725 414.255 443.815 414.344 443.927 414.39C444.04 414.436 444.166 414.436 444.278 414.389C444.39 414.342 444.479 414.252 444.525 414.14C444.88 413.45 445.291 412.791 445.755 412.17C446.268 411.554 446.836 410.986 447.452 410.473C447.975 410.023 448.544 409.627 449.148 409.293C449.623 409 450.15 408.804 450.701 408.716C451.065 408.673 451.082 408.105 450.701 408.13L450.718 408.156Z" fill="#343B38"/>
<path d="M479.678 416.465C480.916 416.21 482.223 416.856 483.258 417.467C484.6 418.263 485.756 419.337 486.651 420.616C486.829 420.87 487.55 422.177 487.932 421.617C488.093 421.38 487.932 420.955 487.804 420.718C487.639 420.341 487.422 419.99 487.16 419.674C486.219 418.445 485.024 417.434 483.656 416.711C482.415 415.96 480.958 415.643 479.517 415.812C479.093 415.888 479.271 416.558 479.695 416.465H479.678Z" fill="#343B38"/>
<path d="M489.34 421.184C490.241 419.844 491.444 418.734 492.852 417.942C493.895 417.29 495.043 416.822 496.245 416.558C496.364 416.558 496.364 416.329 496.245 416.312C495.678 416.234 495.102 416.269 494.548 416.414C493.813 416.594 493.107 416.88 492.453 417.263C490.939 418.119 489.695 419.383 488.865 420.913C488.839 420.977 488.837 421.048 488.86 421.113C488.882 421.179 488.927 421.234 488.987 421.269C489.046 421.304 489.116 421.316 489.184 421.304C489.252 421.291 489.313 421.255 489.357 421.201L489.34 421.184Z" fill="#343B38"/>
<path d="M493.7 400.135C494.099 400.245 494.548 400.27 494.913 400.381C495.299 400.481 495.674 400.621 496.033 400.797C496.702 401.136 497.314 401.577 497.848 402.104C498.378 402.628 498.834 403.222 499.205 403.869C499.481 404.528 499.843 405.148 500.283 405.711C500.315 405.738 500.354 405.755 500.396 405.76C500.437 405.766 500.48 405.761 500.518 405.744C500.557 405.727 500.59 405.7 500.614 405.666C500.639 405.632 500.653 405.592 500.656 405.55C500.624 404.725 500.327 403.933 499.808 403.292C499.378 402.599 498.856 401.968 498.255 401.416C497.646 400.868 496.945 400.432 496.185 400.126C495.387 399.772 494.506 399.646 493.641 399.761C493.601 399.773 493.566 399.798 493.541 399.832C493.516 399.865 493.502 399.906 493.502 399.948C493.502 399.99 493.516 400.03 493.541 400.064C493.566 400.098 493.601 400.122 493.641 400.135H493.7Z" fill="#343B38"/>
<path d="M509.088 400.415C507.438 400.491 505.842 401.029 504.482 401.968C503.721 402.479 503.019 403.071 502.386 403.733C501.68 404.378 501.161 405.202 500.885 406.118C500.885 406.28 501.038 406.475 501.199 406.356C501.87 405.789 502.481 405.155 503.023 404.463C503.607 403.836 504.252 403.267 504.948 402.766C506.205 401.855 507.658 401.253 509.19 401.009C509.529 400.966 509.444 400.406 509.105 400.415H509.088Z" fill="#343B38"/>
<path d="M149.187 424.113C149.501 423.908 149.786 423.662 150.036 423.383C150.336 423.112 150.651 422.857 150.977 422.619C151.57 422.182 152.197 421.793 152.852 421.456C154.147 420.885 155.472 420.387 156.822 419.962C156.87 419.943 156.91 419.909 156.936 419.865C156.962 419.821 156.972 419.769 156.965 419.718C156.959 419.667 156.935 419.62 156.898 419.584C156.861 419.549 156.814 419.526 156.762 419.521C155.249 419.502 153.756 419.873 152.428 420.599C151.728 420.948 151.064 421.363 150.443 421.838C150.129 422.084 149.824 422.33 149.535 422.593C149.187 422.869 148.898 423.213 148.687 423.603C148.646 423.675 148.63 423.757 148.641 423.838C148.652 423.919 148.69 423.994 148.747 424.052C148.805 424.11 148.88 424.147 148.961 424.158C149.042 424.169 149.125 424.153 149.196 424.113H149.187Z" fill="#343B38"/>
<path d="M187.394 262.648C187.93 262.703 188.47 262.703 189.006 262.648H190.702C191.847 262.648 193.001 262.648 194.146 262.648C195.291 262.648 196.386 262.648 197.539 262.648C198.099 262.648 198.659 262.648 199.236 262.648C199.778 262.695 200.323 262.646 200.848 262.504C200.902 262.472 200.947 262.426 200.979 262.371C201.01 262.316 201.027 262.253 201.027 262.19C201.027 262.126 201.01 262.064 200.979 262.009C200.947 261.954 200.902 261.908 200.848 261.876C200.355 261.718 199.838 261.649 199.321 261.672C198.761 261.63 198.201 261.621 197.624 261.613C196.479 261.613 195.325 261.613 194.18 261.613C193.035 261.613 191.941 261.664 190.787 261.715L189.091 261.799C188.521 261.786 187.952 261.838 187.394 261.952C187.319 261.978 187.254 262.027 187.208 262.092C187.162 262.156 187.138 262.234 187.138 262.313C187.138 262.392 187.162 262.47 187.208 262.534C187.254 262.599 187.319 262.648 187.394 262.674V262.648Z" fill="#343B38"/>
<path d="M391.38 132.343L391.906 132.988C391.999 133.098 392.084 133.2 392.186 133.302L392.466 133.582C392.627 133.735 392.882 133.887 393.094 133.76C393.156 133.721 393.204 133.662 393.23 133.593C393.256 133.524 393.259 133.449 393.238 133.378C393.207 133.3 393.167 133.226 393.119 133.157C393.017 133.031 392.903 132.915 392.78 132.809C392.681 132.712 392.577 132.621 392.466 132.538C392.212 132.334 391.957 132.13 391.694 131.935C391.64 131.904 391.577 131.894 391.516 131.906C391.455 131.919 391.401 131.953 391.363 132.003C391.325 132.051 391.304 132.111 391.304 132.173C391.304 132.235 391.325 132.294 391.363 132.343H391.38Z" fill="#343B38"/>
<path d="M399.744 133.794C399.922 133.748 400.093 133.679 400.253 133.59L400.661 133.37C400.813 133.277 400.958 133.172 401.093 133.056C401.157 133.003 401.216 132.947 401.271 132.886C401.328 132.846 401.374 132.792 401.405 132.73C401.436 132.668 401.451 132.599 401.449 132.529V132.665C401.493 132.597 401.524 132.523 401.543 132.444C401.549 132.42 401.55 132.394 401.545 132.369C401.54 132.343 401.529 132.32 401.514 132.299C401.498 132.279 401.478 132.262 401.455 132.251C401.432 132.239 401.407 132.233 401.382 132.232C401.301 132.234 401.221 132.248 401.144 132.275H401.237C401.17 132.255 401.098 132.252 401.029 132.265C400.96 132.279 400.894 132.308 400.839 132.351L400.652 132.444C400.508 132.521 400.372 132.614 400.236 132.699C400.101 132.784 399.982 132.869 399.846 132.945L399.651 133.064C399.562 133.114 399.48 133.174 399.405 133.242C399.354 133.294 399.321 133.361 399.312 133.433C399.303 133.505 399.318 133.578 399.354 133.641C399.391 133.704 399.447 133.753 399.515 133.781C399.582 133.809 399.657 133.813 399.727 133.794H399.744Z" fill="#343B38"/>
<path d="M395.299 133.777C395.266 133.951 395.266 134.129 395.299 134.303C395.334 134.396 395.373 134.487 395.418 134.575L395.469 134.677V134.728C395.511 134.796 395.578 134.844 395.656 134.863C395.698 134.876 395.742 134.878 395.785 134.869C395.828 134.86 395.868 134.841 395.902 134.813C395.934 134.785 395.961 134.752 395.98 134.714C395.999 134.676 396.01 134.634 396.012 134.592C395.999 134.483 395.962 134.378 395.902 134.286V134.363C395.902 134.269 395.842 134.184 395.817 134.091C395.791 133.998 395.774 133.913 395.757 133.819V133.896C395.757 133.853 395.757 133.811 395.757 133.777C395.755 133.705 395.726 133.636 395.676 133.584C395.626 133.532 395.558 133.501 395.486 133.497C395.412 133.498 395.342 133.529 395.291 133.582C395.239 133.634 395.208 133.704 395.206 133.777H395.299Z" fill="#343B38"/>
<path d="M393.23 136.332L394.078 136.731C394.364 136.88 394.665 136.997 394.977 137.079C395.032 137.088 395.088 137.079 395.137 137.052C395.185 137.026 395.223 136.983 395.245 136.932C395.267 136.881 395.27 136.824 395.256 136.771C395.241 136.717 395.208 136.67 395.164 136.637C394.898 136.466 394.613 136.327 394.315 136.222L393.467 135.882C393.41 135.863 393.347 135.868 393.293 135.895C393.239 135.922 393.198 135.969 393.179 136.026C393.154 136.081 393.151 136.142 393.17 136.199C393.189 136.256 393.228 136.303 393.28 136.332H393.23Z" fill="#343B38"/>
<path d="M391.584 138.725C391.746 138.771 391.91 138.808 392.076 138.836L392.509 138.887C392.655 138.904 392.803 138.904 392.95 138.887H393.408C393.483 138.888 393.556 138.861 393.613 138.812C393.67 138.763 393.706 138.694 393.716 138.62C393.725 138.545 393.707 138.469 393.664 138.408C393.621 138.346 393.557 138.302 393.484 138.284L393.043 138.199C392.872 138.172 392.699 138.158 392.525 138.157H392.076C391.911 138.164 391.746 138.183 391.584 138.216C391.529 138.231 391.481 138.263 391.446 138.307C391.41 138.351 391.391 138.406 391.389 138.462C391.39 138.52 391.41 138.576 391.445 138.622C391.48 138.667 391.529 138.701 391.584 138.717V138.725Z" fill="#343B38"/>
<path d="M405.241 133.87C405.165 134.077 405.122 134.295 405.114 134.515C405.114 134.796 405.114 135.245 405.445 135.364L405.301 135.279C405.394 135.364 405.504 135.458 405.631 135.415C405.673 135.404 405.711 135.383 405.742 135.353C405.774 135.324 405.797 135.287 405.81 135.245C405.81 135.245 405.81 135.169 405.852 135.135L405.699 135.33C405.758 135.288 405.81 135.237 405.852 135.178C405.89 135.076 405.89 134.965 405.852 134.864V134.957V134.719V134.821C405.831 134.655 405.831 134.487 405.852 134.32V134.414C405.866 134.305 405.889 134.197 405.92 134.091C405.933 134.046 405.937 133.999 405.931 133.952C405.926 133.905 405.911 133.86 405.889 133.819C405.866 133.778 405.835 133.742 405.798 133.713C405.761 133.684 405.719 133.662 405.674 133.65C405.63 133.631 405.582 133.621 405.534 133.621C405.486 133.621 405.438 133.631 405.394 133.65C405.317 133.705 405.258 133.782 405.224 133.87H405.241Z" fill="#343B38"/>
<path d="M398.964 138.157C399.031 138.148 399.096 138.131 399.159 138.106L399.303 138.038L399.6 137.902L400.135 137.597C400.287 137.512 400.465 137.376 400.457 137.181C400.452 137.102 400.419 137.028 400.365 136.97C400.311 136.913 400.238 136.876 400.16 136.867C400.075 136.863 399.991 136.881 399.914 136.918C399.708 137.016 399.509 137.129 399.32 137.257C399.218 137.325 399.117 137.384 399.023 137.461L398.888 137.571C398.821 137.613 398.764 137.668 398.718 137.732C398.687 137.777 398.671 137.831 398.671 137.885C398.671 137.94 398.687 137.993 398.718 138.038C398.748 138.085 398.792 138.122 398.843 138.143C398.895 138.164 398.952 138.169 399.006 138.157H398.964Z" fill="#343B38"/>
<path d="M404.147 138.352L404.418 138.759L404.546 138.972L404.698 139.175C404.735 139.237 404.792 139.285 404.859 139.311C404.894 139.326 404.932 139.334 404.97 139.334C405.008 139.334 405.045 139.326 405.08 139.311C405.122 139.302 405.16 139.281 405.19 139.252C405.226 139.225 405.257 139.194 405.284 139.158C405.315 139.107 405.332 139.049 405.332 138.989C405.332 138.929 405.315 138.87 405.284 138.819L405.131 138.615C405.067 138.528 404.993 138.448 404.91 138.377C404.792 138.258 404.668 138.144 404.537 138.038C404.492 137.999 404.435 137.978 404.376 137.978C404.317 137.978 404.26 137.999 404.215 138.038C404.167 138.075 404.134 138.128 404.122 138.187C404.109 138.246 404.118 138.307 404.147 138.361V138.352Z" fill="#343B38"/>
<path d="M406.386 137.384H406.641L406.853 137.435L407.336 137.503L407.871 137.571H408.108C408.226 137.564 408.341 137.535 408.448 137.486C408.493 137.459 408.531 137.421 408.558 137.375C408.584 137.329 408.598 137.276 408.598 137.223C408.598 137.17 408.584 137.118 408.558 137.072C408.531 137.026 408.493 136.987 408.448 136.96C408.356 136.906 408.256 136.868 408.151 136.85H407.116C406.947 136.839 406.777 136.859 406.615 136.909H406.743H406.446C406.391 136.912 406.339 136.935 406.299 136.972C406.259 137.009 406.233 137.059 406.225 137.113C406.219 137.166 406.232 137.22 406.261 137.265C406.291 137.31 406.335 137.343 406.386 137.359V137.384Z" fill="#343B38"/>
<path d="M390.863 141.985C392.619 142.18 394.375 142.333 396.139 142.469C397.004 142.537 397.87 142.596 398.735 142.647C399.628 142.736 400.527 142.761 401.424 142.723C401.594 142.723 401.661 142.435 401.424 142.392C400.581 142.26 399.731 142.177 398.879 142.146L396.198 141.942C394.409 141.807 392.619 141.645 390.837 141.501C390.523 141.501 390.532 141.942 390.837 141.985H390.863Z" fill="#343B38"/>
<path d="M409.72 344.989C410.924 345.179 412.148 345.207 413.359 345.074L417.075 344.972C419.492 344.921 421.918 344.87 424.336 344.836C429.239 344.774 434.142 344.774 439.045 344.836C440.403 344.836 441.751 344.836 443.1 344.836C444.495 344.948 445.899 344.894 447.282 344.675C447.37 344.644 447.446 344.587 447.5 344.511C447.554 344.435 447.583 344.344 447.583 344.25C447.583 344.157 447.554 344.066 447.5 343.99C447.446 343.914 447.37 343.857 447.282 343.826C446.074 343.584 444.84 343.49 443.609 343.546C442.371 343.546 441.132 343.495 439.894 343.487C437.467 343.487 435.041 343.487 432.624 343.487C427.721 343.537 422.818 343.654 417.915 343.835L413.86 344.004C413.19 344.004 412.511 344.055 411.832 344.098C411.118 344.105 410.408 344.208 409.72 344.403C409.654 344.425 409.597 344.467 409.556 344.524C409.516 344.58 409.494 344.648 409.494 344.717C409.494 344.787 409.516 344.855 409.556 344.911C409.597 344.967 409.654 345.009 409.72 345.031V344.989Z" fill="#343B38"/>
<path d="M427.101 351.694C428.374 351.771 429.646 351.626 430.944 351.584L434.711 351.508C435.966 351.508 437.255 351.508 438.477 351.508C439.741 351.582 441.01 351.519 442.26 351.321C442.334 351.297 442.399 351.251 442.445 351.189C442.49 351.126 442.515 351.05 442.515 350.973C442.515 350.895 442.49 350.82 442.445 350.757C442.399 350.695 442.334 350.648 442.26 350.625C441.017 350.36 439.747 350.252 438.477 350.302C437.196 350.302 435.932 350.302 434.626 350.302C433.319 350.302 432.081 350.396 430.783 350.472C429.51 350.493 428.24 350.604 426.983 350.803C426.474 350.913 426.626 351.652 427.101 351.652V351.694Z" fill="#343B38"/>
<path d="M417.253 57.2761C423.776 57.4288 430.299 57.4458 436.823 57.4798C438.677 57.5562 440.535 57.5392 442.387 57.4288C442.499 57.4136 442.602 57.3584 442.676 57.2733C442.75 57.1883 442.791 57.0792 442.791 56.9662C442.791 56.8533 442.75 56.7442 442.676 56.6592C442.602 56.5741 442.499 56.5188 442.387 56.5037C440.762 56.382 439.131 56.3451 437.501 56.3933H432.607H422.826C420.968 56.3933 419.111 56.3933 417.253 56.3933C417.143 56.4084 417.043 56.4626 416.97 56.5461C416.897 56.6296 416.857 56.7366 416.857 56.8474C416.857 56.9582 416.897 57.0652 416.97 57.1487C417.043 57.2322 417.143 57.2865 417.253 57.3015V57.2761Z" fill="#343B38"/>
<path d="M430.325 61.0107C431.92 61.0786 433.506 61.1295 435.101 61.155C436.691 61.2611 438.286 61.2611 439.877 61.155C439.971 61.141 440.058 61.0935 440.12 61.021C440.183 60.9486 440.217 60.856 440.217 60.7603C440.217 60.6645 440.183 60.572 440.12 60.4995C440.058 60.4271 439.971 60.3795 439.877 60.3656C438.286 60.2595 436.691 60.2595 435.101 60.3656C433.506 60.3656 431.92 60.442 430.325 60.5099C430.256 60.5217 430.193 60.5576 430.148 60.6112C430.103 60.6648 430.078 60.7326 430.078 60.8027C430.078 60.8728 430.103 60.9407 430.148 60.9943C430.193 61.0479 430.256 61.0837 430.325 61.0956V61.0107Z" fill="#343B38"/>
<path d="M413.716 166.922C414.759 166.922 415.794 166.863 416.837 166.82C417.881 166.778 418.907 166.718 419.95 166.684C422.003 166.6 424.048 166.515 426.1 166.455C430.198 166.336 434.312 166.37 438.409 166.218C440.742 166.124 443.075 166.065 445.407 165.946C445.428 165.94 445.447 165.927 445.46 165.909C445.473 165.892 445.48 165.87 445.48 165.848C445.48 165.826 445.473 165.805 445.46 165.788C445.447 165.77 445.428 165.757 445.407 165.751C443.338 165.573 441.242 165.479 439.164 165.403C437.086 165.326 435.007 165.335 432.929 165.36C428.823 165.42 424.718 165.513 420.621 165.717L417.083 165.895C415.93 165.963 414.767 165.997 413.614 166.167C413.181 166.235 413.308 166.905 413.716 166.922Z" fill="#343B38"/>
</g>
<defs>
<clipPath id="clip0">
<rect width="532" height="455" fill="white"/>
</clipPath>
</defs>
</svg>
