<svg xmlns="http://www.w3.org/2000/svg" width="532" height="455" fill="none" xmlns:v="https://vecta.io/nano"><style><![CDATA[.B{fill:#d5e3f9}.C{fill:#00b28c}.D{fill:#ff6952}.E{fill:#ffe87b}.F{fill:#ff886d}.G{fill:#a0b7ee}.H{fill:#f3b131}.I{fill:#009375}]]></style><g clip-path="url(#B)"><g fill="#8a9990"><path d="M111.176 454.72a24.59 24.59 0 0 1-13.667-4.148c-4.045-2.704-7.199-6.549-9.06-11.047a24.63 24.63 0 0 1-1.4-14.222 24.61 24.61 0 0 1 6.733-12.603c3.441-3.442 7.824-5.787 12.596-6.737a24.59 24.59 0 0 1 14.213 1.401 24.6 24.6 0 0 1 11.04 9.066c2.703 4.048 4.146 8.807 4.146 13.675 0 6.528-2.592 12.789-7.205 17.405a24.59 24.59 0 0 1-17.395 7.21zm0-46.607c-4.362 0-8.626 1.294-12.253 3.719a22.07 22.07 0 0 0-8.123 9.904c-1.669 4.033-2.106 8.47-1.255 12.751a22.07 22.07 0 0 0 6.036 11.299 22.05 22.05 0 0 0 24.036 4.784c4.03-1.67 7.475-4.499 9.898-8.128a22.08 22.08 0 0 0 3.717-12.26 22.07 22.07 0 0 0-6.46-15.605c-4.136-4.139-9.746-6.464-15.595-6.464zM24.6 454.72a24.59 24.59 0 0 1-13.667-4.148 24.61 24.61 0 0 1-9.061-11.047 24.63 24.63 0 0 1-1.4-14.222A24.61 24.61 0 0 1 7.205 412.7c3.441-3.442 7.824-5.787 12.596-6.737s9.718-.462 14.213 1.401a24.6 24.6 0 0 1 11.04 9.066c2.703 4.048 4.146 8.807 4.146 13.675a24.62 24.62 0 0 1-7.205 17.405 24.59 24.59 0 0 1-17.395 7.21zm.246-46.174c-12.139 0-22.742 9.218-22.742 21.364s10.315 21.364 22.496 21.364 22.055-8.989 22.055-21.126a21.49 21.49 0 0 0-1.635-8.347c-1.096-2.646-2.709-5.045-4.745-7.058a21.46 21.46 0 0 0-15.472-6.197h.042z"/></g><g fill="#c4f0df"><path d="M111.888 430.521l-22.555-59.296c-.1-.295-.29-.551-.542-.734a1.5 1.5 0 0 0-.866-.285l-15.269-.543.187-1.146 15.074-.433a3.62 3.62 0 0 1 2.077.669 3.63 3.63 0 0 1 1.316 1.742l22.539 59.271-1.96.755zm-56.207-.051l-16.474-40.436 1.79-.73 18.085 39.774-3.402 1.392z"/><path d="M56.462 431.183H24.227c-.197 0-.39-.055-.558-.158s-.303-.252-.391-.428-.125-.374-.108-.57.09-.384.208-.542l20.266-28.782a1.08 1.08 0 0 1 .333-.307c.132-.078.278-.126.43-.143l53.391-6.96.73 2.114.11-.077 1.315 1.698-42.787 33.951c-.202.152-.452.224-.704.204zm-29.987-2.156l29.283-.849 38.241-30.471-47.614 5.228-19.909 26.092z"/></g><g fill="#fff0b0"><path d="M93.498 373.805a165.47 165.47 0 0 0 6.388 16.271 2.02 2.02 0 0 0 .329.721 2.01 2.01 0 0 0 .58.538c.228.139.48.231.744.271a2 2 0 0 0 .79-.036l14.421-1.112c.551.018 1.091-.15 1.535-.475a2.35 2.35 0 0 0 .552-1.069c1.844-5.993 1.994-12.38.432-18.453-.076-.426-.264-.824-.542-1.154a2.56 2.56 0 0 0-.98-.419 2.55 2.55 0 0 0-1.065.02c-7.363.704-13.869 1.061-21.207 2.274-1.807.306-2.333 1.494-1.977 2.623zm-22.777-6.281c-.23 0-.451.088-.618.245a.9.9 0 0 0-.281.604 8.49 8.49 0 0 0 .28 2.937c.211.305.506.544.848.687 1.094.348 6.786-.22 10.052-.433a1.09 1.09 0 0 0 .467-.093 1.14 1.14 0 0 0 .5-.755 7.52 7.52 0 0 0 .229-3.132.69.69 0 0 0-.085-.264c-.119-.178-.373-.178-.594-.169-3.902.288-9.679.373-10.799.373zM35.06 384.5c-.848.11-2.019.569-2.019 1.655 0 1.426 1.629 3.225 2.876 3.777 1.175.401 2.437.468 3.648.195 4.241-.568 12.724-2.436 13.106-3.955.144-.603-1.111-1.137-2.85-1.367-3.037-.407-12.122-.687-14.76-.305z"/></g><g fill="#c4f0df"><path d="M48.055 420.217c-1.953-4.62-5.222-8.561-9.401-11.332a25.49 25.49 0 0 0-28.185 0c-4.178 2.771-7.448 6.712-9.4 11.332L0 419.249c4.241-10.092 13.573-16.721 24.6-16.721s20.791 6.926 25.058 17.027l-1.603.662zm39.632 0l-1.561-.662a27.22 27.22 0 0 1 7.019-9.783 27.19 27.19 0 0 1 10.551-5.795 27.18 27.18 0 0 1 12.017-.674c4.005.677 7.809 2.242 11.131 4.581l-.984 1.392a25.49 25.49 0 0 0-10.436-4.296 25.48 25.48 0 0 0-21.158 6.064 25.51 25.51 0 0 0-6.579 9.173z"/></g><path d="M61.492 427.033a6.27 6.27 0 0 0-6.125-1.426c-1.045.362-1.937 1.067-2.53 2.001a4.9 4.9 0 0 0-.736 3.142c.215 1.068.704 2.063 1.417 2.886a7.97 7.97 0 0 0 2.517 2.258 7.96 7.96 0 0 0 3.226 1.01c2.273.068 4.649-1.553 4.903-3.82s-.992-4.447-2.672-6.051z" fill="#fff0b0"/><path d="M54.986 371.446l-6.863 2.385v-65.009l8.178-1.765-1.315 64.389z" class="B"/><g class="G"><path d="M57.683 454.72H47.648a.85.85 0 0 1-.848-.849l-.679-82.264a.84.84 0 0 1 .269-.622.84.84 0 0 1 .296-.18.85.85 0 0 1 .343-.047l8.483.628c.215.015.415.111.562.269a.85.85 0 0 1 .227.58l2.231 81.645a.85.85 0 0 1-.252.594c-.159.158-.373.246-.597.246zm79.23-173.441s-48.505-1.884-75.277 14.718c-22.904 14.183-29.503 28.545-30.945 32.424-.043.12-.058.249-.044.376s.056.25.124.358.159.201.267.269a.86.86 0 0 0 .358.126l6.464.713a.86.86 0 0 0 .797-.382c2.061-3.243 15.634-23.52 34.669-30.871 31.293-12.07 63.622-9.498 63.622-9.498l-.034-8.233z"/></g><path d="M449.768 454.72H133.214l5.234-442.099H443.83l5.938 442.099z" class="F"/><g class="C"><path d="M454.594 46.683l-327.123-7.639a2.54 2.54 0 0 1-1.089-.276c-.338-.172-.633-.418-.864-.719a2.55 2.55 0 0 1-.471-1.021 2.57 2.57 0 0 1 .015-1.124l8.169-33.951c.136-.568.463-1.072.927-1.428A2.54 2.54 0 0 1 135.776 0L448.13 7.283c.581.012 1.139.223 1.584.596a2.54 2.54 0 0 1 .859 1.458l6.583 34.299a2.55 2.55 0 0 1-.547 2.141 2.54 2.54 0 0 1-.904.683c-.349.157-.728.233-1.111.223zM339.075 425.386h-92.276l2.545-109.307 91.428-2.546-1.697 111.853z"/></g><path d="M348.432 318.583l-108.241 1.494a2.53 2.53 0 0 1-1.036-.215 2.55 2.55 0 0 1-.86-.618 2.54 2.54 0 0 1-.533-.915 2.56 2.56 0 0 1-.116-1.053l1.79-17.714c.063-.613.347-1.182.798-1.602a2.54 2.54 0 0 1 1.654-.681l105.348-3.268c.663-.021 1.309.218 1.799.667s.785 1.071.822 1.735l1.103 19.48c.019.344-.032.69-.15 1.014a2.54 2.54 0 0 1-.537.874c-.236.252-.522.453-.838.59a2.55 2.55 0 0 1-1.003.212z" fill="#fffaeb"/><g class="B"><path d="M289.374 387.946l-29.325.518a.86.86 0 0 1-.339-.07.84.84 0 0 1-.283-.2.85.85 0 0 1-.226-.638l3.393-55.944c.014-.207.104-.403.253-.548a.85.85 0 0 1 .553-.241l26.874-1.384a.84.84 0 0 1 .337.052.85.85 0 0 1 .29.181c.083.08.15.175.195.281s.068.22.068.335l-.95 56.809a.85.85 0 0 1-.245.597c-.157.159-.371.25-.595.252zm38.461.526h-31.428a.85.85 0 0 1-.6-.248c-.159-.16-.249-.376-.249-.601l2.63-57.114a.85.85 0 0 1 .23-.583c.148-.158.351-.253.567-.266l26.755-1.8c.116-.007.232.01.34.05a.87.87 0 0 1 .293.18.85.85 0 0 1 .197.282c.046.107.07.221.069.337l2.028 58.923c-.002.221-.09.432-.246.589s-.365.247-.586.251z"/></g><g fill="#ffe7e2"><path d="M160.325 350.379l-26.297-1.588c-.111-.006-.22-.035-.321-.083a.85.85 0 0 1-.264-.201.84.84 0 0 1-.212-.615l.747-11.204c.013-.216.108-.419.265-.568a.85.85 0 0 1 .583-.23l24.083-.798a.85.85 0 0 1 .848.755l1.501 13.581a.85.85 0 0 1-.037.378c-.041.121-.109.232-.199.324a.85.85 0 0 1-.32.204.86.86 0 0 1-.377.045zm39.912-169.766L175.45 182.2c-.115.007-.231-.01-.34-.049a.83.83 0 0 1-.293-.181.85.85 0 0 1-.197-.281c-.046-.107-.069-.222-.069-.338v-13.58l25.584-1.647c.116-.007.232.01.34.05a.87.87 0 0 1 .293.18.85.85 0 0 1 .197.282.83.83 0 0 1 .069.337v12.825a.85.85 0 0 1-.797.815z"/></g><path d="M183.526 176.284l-23.141-.789a.85.85 0 0 1-.849-.849V162.67a.85.85 0 0 1 .249-.6c.159-.16.375-.249.6-.249l23.887.789c.116 0 .231.024.337.069s.202.113.282.198.141.184.18.293a.85.85 0 0 1 .05.34l-.747 11.985a.85.85 0 0 1-.268.562c-.158.147-.365.228-.58.227z" class="D"/><path d="M428.832 383.167l-25.533-.789c-.117 0-.232-.024-.339-.07a.84.84 0 0 1-.283-.199.85.85 0 0 1-.227-.639l.789-11.943 24.812-.849a.85.85 0 0 1 .583.231c.158.148.253.351.266.567l.746 12.775c.009.114-.005.229-.041.337s-.094.209-.17.295-.169.155-.273.204a.84.84 0 0 1-.33.08z" fill="#ffe7e2"/><path d="M414.632 378.074l-25.576-.789a.85.85 0 0 1-.848-.806l-.747-12.791a.86.86 0 0 1 .056-.351c.043-.111.109-.212.194-.296a.84.84 0 0 1 .299-.192c.112-.042.231-.06.35-.053l24.83 1.588c.198.012.385.094.529.23s.236.319.26.517l1.484 11.993a.84.84 0 0 1-.204.661.84.84 0 0 1-.283.211c-.108.05-.225.077-.344.078z" class="D"/><path d="M169.835 152.111l117.156 2.546 1.696-88.562-116.325 3.03-2.527 82.986z" class="B"/><path d="M288.653 156.389l-120.566-2.623 2.63-86.296 119.701-3.115-1.765 92.034zm-117.063-5.942l113.747 2.47 1.628-85.074-112.957 2.937-2.418 79.667z" class="C"/><path d="M427.297 149.352l-116.224 4.456V68.641h114.612l1.612 80.711z" class="B"/><mask id="A" maskUnits="userSpaceOnUse" x="311" y="68" width="117" height="86" mask-type="alpha"><path d="M427.297 149.352l-116.224 4.456V68.641h114.612l1.612 80.711z" class="B"/></mask><g mask="url(#A)"><path d="M419.671 75.304h-95.254l.076-9.269 94.999 2.36.179 6.909zm.296 7.852l-95.652-.127V78.47l95.466-2.241.186 6.926zm.289 8.326l-96.068 1.511.076-8.335h95.814l.178 6.824zm.39 11.476l-96.551-2.012.042-6.145 96.255-1.18.254 9.337zm.331 9.447l-97.01-3.311.06-5.805 96.729 1.12.221 7.996zm.237 6.094H323.84l.068-6.994 97.179 2.411.127 4.583z" fill="#fff5d9"/><path d="M319.929 127.369l-.89.645 1.137-64.635h.873l-1.12 63.99z" fill="#ffcc1c"/><path d="M320.142 130.628l-.849-.076a.85.85 0 0 1-.551-.274c-.143-.158-.221-.363-.221-.575v-2.954a.85.85 0 0 1 .231-.583c.148-.158.351-.253.567-.266l.687-.042a.84.84 0 0 1 .329.045.85.85 0 0 1 .286.167c.084.074.152.164.2.265a.83.83 0 0 1 .084.321l.161 3.072a.85.85 0 0 1-.055.36c-.044.114-.112.218-.2.303a.84.84 0 0 1-.309.192c-.115.041-.238.056-.36.045z" class="H"/><path d="M400.559 132.708c-.788-.941-1.904-1.548-3.122-1.698a7.3 7.3 0 0 0-4.844.985c-.621.494-1.085 1.158-1.336 1.912s-.279 1.563-.08 2.332a6.79 6.79 0 0 0 1.323 2.69c1.468 1.817 2.613 2.3 4.895 2.547a5.23 5.23 0 0 0 3.868-.917c.824-.707 1.347-1.703 1.459-2.784.534-2.716.144-4.159-2.163-5.067z" class="I"/><path d="M402.238 137.8c-.432-1.324.62-2.19 2.121-2.843 2.01-.849 3.953.187 3.8 1.876-.068.772-1.306 1.697-2.061 1.918-1.468.373-3.419.365-3.86-.951z" class="I"/><path d="M392.712 153.019l9.866-.322 2.315-12.257-14.454-.56 2.273 13.139z" class="H"/><path d="M397.479 130.323a.45.45 0 0 0-.207-.049c-.072 0-.144.016-.208.049-.094-.238-.238-.408-.399-.416-.138.212-.335.38-.567.481s-.49.131-.739.087c-.195.212 0 .798.373 1.129a1.24 1.24 0 0 0 .443.225 1.26 1.26 0 0 0 .496.036c.166-.021.326-.076.471-.16s.271-.196.371-.33a.74.74 0 0 0 .204-.533c-.003-.098-.026-.195-.067-.284a.72.72 0 0 0-.171-.235z" class="D"/></g><path d="M286.991 279.225H173.228l-1.697-86.016 113.763-2.546 1.697 88.562z" class="B"/><path d="M288.721 280.948H171.565l-1.764-89.369 117.156-2.622 1.764 91.991zm-113.831-3.395h110.37l-1.629-85.125-110.369 2.47 1.628 82.655z" class="C"/><path d="M201.034 416.329H67.192v38.382h133.842v-38.382z" class="D"/><path d="M142.715 387.674c-2.757-3.284-9.026-5.61-14.328-4.778s-10.298 5.899-9 11.102c-6.574-4.321-12.232-5.203-17.627-3.684-6.091 1.698-7.244 7.07-5.276 8.7-7.168-2.427-15.218-3.174-20.359-1.171-4.776 1.867-7.329 6.671-6.218 10.627-7.863-2.199-12.224 4.973-10.527 10.083 1.926 5.831 10.96 6.349 16.881 4.711.068 3.327 4.301 7.563 7.94 8.785 12.224 4.108 24.075 1.918 34.61-5.5a27.74 27.74 0 0 0 9.354 6.507c3.535 1.498 7.341 2.245 11.18 2.194s7.623-.899 11.117-2.491a27.72 27.72 0 0 0 9.177-6.754c11.401 8.531 22.963 7.402 28.494 4.38 5.387-2.937 5.505-10.533 4.012-11.238 24.142 6.239 23.387-10.185 8.39-14.234 2.18-4.804-1.569-9.922-7.1-12.061-9.331-3.607-19.129-2.801-26.034 3.616 1.629-4.652-.585-8.946-7.295-11.442-2.87-1.12-5.983-1.464-9.028-1a17.56 17.56 0 0 0-8.32 3.648" class="C"/><path d="M91.479 413.078a2.7 2.7 0 0 0-.548-2.595c-.307-.349-.699-.612-1.137-.765a2.69 2.69 0 0 0-1.366-.107c-.457.082-.885.281-1.243.578s-.632.681-.798 1.115a2.7 2.7 0 0 0-.148 1.363c.069.46.255.894.541 1.26a2.82 2.82 0 0 0-1.075-.901c-.429-.205-.902-.298-1.376-.27-.933.102-2.061 1.103-1.323 3.039a6.6 6.6 0 0 0 1.736 2.621c.781.721 1.725 1.243 2.751 1.521 1.04.288 2.138.294 3.181.018s1.995-.824 2.757-1.589c1.697-1.825 2.621-4.388 1.417-5.754-.975-1.078-3.011-.696-3.368.466z" class="E"/><path d="M91.445 415.684c0 1.078-1.001 1.655-2.29 1.367s-2.451-.747-2.451-1.698c0-.602.662-1.069 2.01-1.069s2.731.509 2.731 1.4z" class="F"/><path d="M182.448 405.465a2.7 2.7 0 0 0-.548-2.596c-.307-.348-.698-.612-1.137-.765a2.7 2.7 0 0 0-2.609.472c-.358.296-.633.68-.798 1.114a2.7 2.7 0 0 0-.148 1.364c.069.459.255.893.541 1.26a2.81 2.81 0 0 0-1.075-.901 2.82 2.82 0 0 0-1.377-.271c-.933.102-2.061 1.104-1.323 3.039a6.65 6.65 0 0 0 1.743 2.62 6.63 6.63 0 0 0 2.753 1.522c1.04.287 2.138.293 3.181.017s1.995-.823 2.757-1.587c1.697-1.825 2.613-4.388 1.408-5.755-.975-1.078-3.011-.704-3.368.467z" class="E"/><g class="F"><path d="M182.423 408.071c0 1.078-1.009 1.697-2.299 1.366s-2.451-.755-2.451-1.697c0-.611.661-1.07 2.01-1.07s2.74.509 2.74 1.401zm-43.11-11.637c.156-.42.199-.874.123-1.316s-.266-.856-.552-1.2a2.54 2.54 0 0 0-2.396-.879c-.386-.016-.769.067-1.114.242a2.27 2.27 0 0 0-.856.756 2.26 2.26 0 0 0-.378 1.077c-.033.385.034.772.194 1.125-.239-.442-.621-.79-1.084-.985a2.21 2.21 0 0 0-1.461-.093c-1.366.424-1.535 2.164-1.069 3.395a7.18 7.18 0 0 0 1.619 2.641c.725.752 1.606 1.337 2.58 1.713.952.39 1.993.506 3.007.333a5.49 5.49 0 0 0 2.728-1.309c1.874-1.613 3.121-4.04 2.086-5.543-.873-1.205-2.935-1.069-3.427.043z"/></g><g class="G"><path d="M138.754 398.454c0 1.069-1.001 1.647-2.291 1.366s-2.451-.755-2.451-1.697c0-.603.653-1.07 2.01-1.07s2.732.51 2.732 1.401zm13.563 18.41a2.54 2.54 0 0 0 .123-1.313c-.075-.441-.265-.854-.55-1.199a2.55 2.55 0 0 0-1.076-.762 2.54 2.54 0 0 0-1.313-.121 2.27 2.27 0 0 0-1.115.242c-.345.175-.639.435-.855.756s-.346.691-.379 1.077.035.773.195 1.125c-.242-.44-.624-.785-1.086-.981a2.23 2.23 0 0 0-1.459-.097c-1.366.424-1.527 2.164-1.061 3.395a7.18 7.18 0 0 0 1.619 2.641c.725.752 1.606 1.337 2.58 1.713.952.391 1.993.506 3.007.333a5.49 5.49 0 0 0 2.728-1.309c1.874-1.613 3.113-4.04 2.086-5.542-.882-1.206-2.952-1.07-3.444.042z"/></g><path d="M152.148 418.613c0 1.069-1.01 1.646-2.29 1.366s-2.452-.755-2.452-1.698c0-.602.653-1.069 2.01-1.069s2.732.509 2.732 1.401z" class="E"/><path d="M523.237 416.329H389.395v38.382h133.842v-38.382z" class="D"/><path d="M457.029 394.405c-2.265-3.285-5.531-4.711-9.866-4.354s-7.464 3.395-6.998 7.223a13.18 13.18 0 0 0-5.333-3.747c-2.062-.782-4.289-1.034-6.474-.733a13.18 13.18 0 0 0-6.035 2.459c-1.774 1.312-3.191 3.049-4.12 5.051-3.469-2.877-9.051-3.684-13.649-2.784s-8.152 4.482-7.346 8.437c-1.463-.66-3.046-1.013-4.651-1.038a11.74 11.74 0 0 0-4.68.894c-2.901 1.358-5.022 4.549-4.564 7.724a6.56 6.56 0 0 0 .87 2.47 6.55 6.55 0 0 0 1.767 1.933c.712.519 1.522.889 2.381 1.088s1.749.222 2.617.068c-.246 4.244 3.164 8.488 6.922 9.651 10.798 3.276 19.722 1.638 27.628-4.371 12.801 9.243 31.531 9.252 44.331 0 3.877 6.926 12.564 8.912 21.208 6.883 4.996-1.162 10.018-5.568 10.807-10.516 6.311 3.633 15.048 5.729 21.775 3.124 6.973-2.7 9.764-7.784 7.694-13.7-2.155-6.128-9.518-8.369-15.032-7.147.849-3.989-2.909-9.336-8.245-11.093-8.814-2.903-18.857-1.384-24.057 2.597-.178-4.015-6.294-6.162-10.824-6.12-6.6.085-12.105 1.902-16.126 6.001z" class="C"/><path d="M445.95 405.117a6.04 6.04 0 0 1-3.621 1.034c-1.287-.051-2.523-.511-3.53-1.314-.941.102-2.061 1.103-1.323 3.03.357 1.002.952 1.903 1.733 2.625a6.57 6.57 0 0 0 2.754 1.517 6.05 6.05 0 0 0 3.183.024 6.06 6.06 0 0 0 2.755-1.594c1.697-1.825 2.621-4.38 1.417-5.747-.976-1.111-3.011-.738-3.368.425z" class="E"/><path d="M445.916 407.731c0 1.078-1.001 1.647-2.29 1.367s-2.452-.756-2.452-1.698c0-.603.654-1.069 2.011-1.069s2.731.509 2.731 1.4z" class="F"/><path d="M503.93 397.334c-1.068.718-2.337 1.077-3.622 1.025s-2.522-.512-3.529-1.314c-.941.102-2.061 1.103-1.323 3.039.357 1.002.952 1.903 1.733 2.624a6.56 6.56 0 0 0 2.754 1.518 6.09 6.09 0 0 0 3.182.018c1.043-.276 1.994-.824 2.756-1.589 1.697-1.824 2.622-4.388 1.417-5.754-.975-1.112-3.011-.73-3.368.433z" class="E"/><g class="F"><path d="M503.879 399.948c0 1.069-1.001 1.646-2.29 1.366s-2.452-.755-2.452-1.697c0-.603.662-1.07 2.011-1.07s2.731.501 2.731 1.401zm-12.817 13.674c.156-.42.198-.874.123-1.316s-.266-.856-.553-1.201a2.54 2.54 0 0 0-2.395-.878 2.26 2.26 0 0 0-1.115.245c-.345.176-.639.437-.854.759a2.27 2.27 0 0 0-.376 1.079 2.28 2.28 0 0 0 .199 1.125 2.24 2.24 0 0 0-2.545-1.087c-1.366.425-1.527 2.173-1.069 3.396.34.989.892 1.893 1.617 2.646s1.607 1.34 2.582 1.716a5.51 5.51 0 0 0 3.011.335c1.015-.173 1.962-.627 2.732-1.311 1.875-1.612 3.113-4.048 2.078-5.542-.882-1.214-2.943-1.078-3.435.034z"/></g><g class="G"><path d="M490.502 415.633c0 1.078-1.001 1.655-2.29 1.367s-2.452-.756-2.452-1.698c0-.611.662-1.069 2.011-1.069s2.731.509 2.731 1.4zm-73.894-1.052c.156-.42.199-.874.123-1.316s-.266-.856-.552-1.2a2.54 2.54 0 0 0-2.396-.879c-.385-.014-.768.07-1.111.245s-.637.436-.852.757a2.27 2.27 0 0 0-.183 2.198 2.23 2.23 0 0 0-1.103-.997c-.471-.196-.995-.225-1.484-.081-1.366.424-1.527 2.164-1.069 3.395a7.18 7.18 0 0 0 1.619 2.641c.725.752 1.606 1.337 2.58 1.713.953.393 1.996.51 3.012.337a5.48 5.48 0 0 0 2.731-1.313c1.875-1.613 3.113-4.04 2.078-5.543-.839-1.179-2.901-1.069-3.393.043z"/></g><path d="M416.439 416.329c0 1.078-1.01 1.647-2.299 1.367s-2.452-.756-2.452-1.698c0-.602.662-1.069 2.011-1.069s2.74.509 2.74 1.4z" class="E"/><g fill="#fffaeb"><path d="M351.087 434.578l-115.443-.849 1.637-22.688c.016-.214.111-.415.269-.562a.85.85 0 0 1 .58-.227l112.117.849a.85.85 0 0 1 .848.849l-.008 22.628z"/><path d="M362.505 454.72h-138.27l1.629-23.537a.85.85 0 0 1 .268-.562c.158-.147.365-.228.58-.227l133.316 1.697c.214 0 .42.08.577.224a.85.85 0 0 1 .271.557l1.629 21.848z"/></g><g class="I"><path d="M192.356 254.279c3.122 2.759 3.589 7.334 3.589 7.334s-4.59.093-7.711-2.674-3.588-7.334-3.588-7.334 4.589-.093 7.71 2.674zm9.671-1.646c-.603 4.125-4.165 7.019-4.165 7.019s-2.596-3.794-1.994-7.919 4.174-7.02 4.174-7.02 2.587 3.794 1.985 7.92z"/><path d="M205.42 257.471c-3.003 2.885-7.592 2.979-7.592 2.979s.28-4.584 3.291-7.469 7.592-2.98 7.592-2.98-.28 4.584-3.291 7.47zm-8.008-7.546c1.374 4.804-1.103 9.727-1.103 9.727s-4.699-2.869-6.065-7.682 1.103-9.718 1.103-9.718 4.699 2.869 6.065 7.673z"/></g><path d="M203.52 278.138l-14.421-.5-3.393-19.115 21.139-.874-3.325 20.489z" class="H"/><g class="D"><path d="M195.47 248.423a.8.8 0 0 0-.352-.082c-.122 0-.243.028-.352.082-.145-.382-.382-.671-.645-.688a1.04 1.04 0 0 0-.64.252c-.179.155-.3.365-.344.597a1.02 1.02 0 0 0-1.171.119c-.331.365-.059 1.332.611 1.858a2.08 2.08 0 0 0 .73.377c.266.075.544.097.819.063a2.06 2.06 0 0 0 1.395-.805c.115-.118.205-.259.264-.413a1.25 1.25 0 0 0 .084-.484 1.26 1.26 0 0 0-.111-.479 1.23 1.23 0 0 0-.288-.397zm5.115 5.186c-.108-.056-.227-.085-.348-.085s-.24.029-.348.085c-.144-.391-.382-.679-.645-.696-.235.009-.461.098-.64.252a1.04 1.04 0 0 0-.344.596c-.182-.103-.393-.149-.602-.129a1.03 1.03 0 0 0-.568.24c-.331.365-.06 1.332.611 1.859a2.06 2.06 0 0 0 .729.379c.266.076.545.097.82.063a2.05 2.05 0 0 0 .779-.262 2.07 2.07 0 0 0 .615-.545c.113-.119.201-.259.259-.412a1.21 1.21 0 0 0 .08-.479c-.005-.164-.043-.325-.112-.474a1.23 1.23 0 0 0-.286-.392z"/></g><path d="M311.073 279.225l111.219-2.546 4.241-84.319-114.611-4.244-.849 91.109z" class="B"/><g class="C"><path d="M309.36 280.948l.848-94.597 1.748.059 116.324 4.312-4.402 87.603-114.518 2.623zm4.241-91.075l-.848 87.603 107.927-2.47 4.072-81.016-111.151-4.117zm-4.224-34.308V66.944h117.97l1.697 84.029-1.697.068-117.97 4.524zm3.393-85.226v81.704l112.821-4.329-1.543-77.375H312.77z"/></g><g fill="#343b38"><path d="M132.934 39.375c2.192.246 4.395.374 6.6.382l6.684.263 13.191.467 26.517.62c4.929.076 9.883.085 14.811-.221.034 0 .067-.013.09-.037s.038-.056.038-.09-.014-.066-.038-.09-.056-.037-.09-.037c-4.402-.28-8.805-.34-13.216-.424l-13.241-.255-26.374-.789-7.447-.255-3.716-.127a36.14 36.14 0 0 0-3.724 0c-.331 0-.458.56-.085.62v-.025zm151.105 3.523l31.513 1.087 31.081 1.095 31.098.976 31.107.704c10.519.161 21.054.348 31.573.059 1.332 0 2.655-.085 3.987-.161.065-.011.123-.045.166-.096a.28.28 0 0 0 0-.36c-.043-.05-.101-.084-.166-.096-10.527-.501-21.105-.289-31.641-.441l-31.149-.654-31.106-.942-31.048-.976-31.437-.764h-3.978c-.365 0-.365.56 0 .577v-.009zM136.811 174.052l6.786-.297 3.351-.043 3.444-.084c.212 0 .297-.357.051-.399-1.12-.204-2.274-.17-3.393-.281-1.145-.063-2.292-.063-3.436 0a60.39 60.39 0 0 0-6.879.467c-.365.051-.28.662.093.645l-.017-.008zm22.53-10.483c-.135 1.231-.118 2.47-.135 3.718v3.302c0 1.103.084 2.368.178 3.548-.019.214.016.43.102.627a1.29 1.29 0 0 0 .39.502c.542.199 1.124.263 1.696.186 4.165.145 8.322.391 12.479.646l7.71.432c.594 0 .586-.848 0-.908l-12.249-.662-6.006-.263-1.62-.059h-.806c-.164.008-.328.008-.492 0-.271 0-.28 0-.331-.297-.072-.535-.106-1.074-.101-1.613l-.077-1.808c.057-2.462-.039-4.926-.288-7.376 0-.272-.407-.17-.433.059l-.017-.034z"/><path d="M174.271 176.072v2.826 1.342c-.03.458.004.918.102 1.366.059.176.174.327.327.432a.84.84 0 0 0 .521.145l1.595-.059 3.147-.127 12.343-.561 3.494-.178 1.807-.085c.596.027 1.192-.027 1.773-.161.084-.025.158-.077.21-.147a.41.41 0 0 0 .081-.243c0-.087-.028-.174-.081-.244a.41.41 0 0 0-.21-.147 5.05 5.05 0 0 0-1.442-.042l-1.484.068-3.012.161-5.802.348-11.876.577c-.127 0-.534.085-.645 0s-.042-.654-.051-.789l-.076-1.435c0-1.018-.119-2.028-.212-3.038 0-.348-.568-.365-.56 0l.051-.009zm-27.289 4.838a13.33 13.33 0 0 0 2.604 0l2.681-.102 5.369-.271 5.361-.365 2.681-.221 2.68-.331c.306 0 .323-.492 0-.484l-2.68.085-2.681.153-5.361.314-5.369.28-2.681.136a13.94 13.94 0 0 0-2.604.212c-.272.059-.297.535 0 .577v.017zm-8.11 131.138a23.76 23.76 0 0 0 3.292.339l3.291.195 6.659.306 13.242.322h3.715c1.248.049 2.498-.022 3.733-.212a.38.38 0 0 0 .194-.592c-.048-.065-.117-.114-.194-.138-1.096-.158-2.202-.224-3.309-.195h-3.206l-6.668-.076-13.241-.382-3.623-.136-1.857-.06a18.35 18.35 0 0 0-1.934 0c-.365 0-.501.586-.094.679v-.05zm24.965 6.009l23.09.068 3.207-.06c1.103 0 2.205-.169 3.3-.246.083 0 .163-.033.222-.092s.092-.138.092-.222-.033-.163-.092-.222-.139-.092-.222-.092l-1.434-.076c-.483 0-.958-.102-1.442-.111h-2.876-5.742c-3.86.051-7.737 0-11.588.213-2.163.11-4.343.118-6.515.169a.33.33 0 0 0-.234.097c-.062.062-.097.147-.097.234a.33.33 0 0 0 .097.234c.062.063.146.097.234.097v.009zm-29.444 18.402a51.08 51.08 0 0 0-.958 7.707l-.094 1.96a5.97 5.97 0 0 0 0 1.868 1.42 1.42 0 0 0 .993.925 3.54 3.54 0 0 0 .848 0c.357 0 .713.051 1.069.076l7.898.458 7.566.408a81.4 81.4 0 0 0 9.094.178c.09-.013.173-.059.232-.128s.093-.158.093-.25a.38.38 0 0 0-.093-.249c-.06-.07-.142-.115-.232-.128-2.545-.323-5.141-.399-7.711-.518l-7.278-.348-7.236-.272-1.926-.051c-.656.056-1.316.039-1.968-.051-.56-.152-.398-.848-.39-1.307v-1.909l.475-8.344a.22.22 0 0 0-.055-.144c-.035-.04-.083-.066-.135-.073s-.107.004-.151.033-.077.074-.092.125l.051.034zm4.191 17.485l11.426.696 11.333.789 6.447.255c.187 0 .246-.297 0-.34l-2.791-.45s-1.849-.28-2.782-.373a161.8 161.8 0 0 0-5.7-.493c-3.835-.271-7.635-.432-11.503-.551-2.163-.068-4.318-.111-6.473-.077-.072 0-.141.029-.191.08s-.08.12-.08.192.029.141.08.192a.27.27 0 0 0 .191.08h.043zm248.869 10.635c-.755 4.244-.187 8.641.483 12.867a.65.65 0 0 0 .225.332.64.64 0 0 0 .378.135h3.987c1.772 0 3.537-.068 5.31 0l11.146.28 2.545.06a10.11 10.11 0 0 0 2.087 0c.088-.031.164-.089.218-.165s.082-.166.082-.26-.029-.184-.082-.26a.45.45 0 0 0-.218-.164 8.07 8.07 0 0 0-1.807-.178l-2.197-.077-5.302-.144-5.734-.102c-1.917-.034-3.614-.136-5.421-.195h-4.606l.602.458c-.356-2.054-.678-4.125-.848-6.204a96.22 96.22 0 0 1-.297-6.264c0-.28-.449-.365-.509-.068l-.042-.051z"/><path d="M403.46 377.828a3.87 3.87 0 0 0-.501 2.122l-.254 2.394a.55.55 0 0 0 .164.385c.103.101.242.158.387.158a16.46 16.46 0 0 1 2.664.068l2.545.11 4.945.162 9.798.203 5.895-.195c.076-.012.144-.051.194-.109a.33.33 0 0 0 .077-.209c0-.077-.028-.151-.077-.209a.32.32 0 0 0-.194-.109c-3.35-.357-6.786-.34-10.128-.399l-9.713-.213-2.85-.033h-1.485a9.28 9.28 0 0 1-1.527-.077l.391.679c.135-.781.161-1.587.229-2.376a4.17 4.17 0 0 0-.06-2.216c-.025-.042-.058-.077-.099-.104a.32.32 0 0 0-.135-.051.33.33 0 0 0-.266.087v-.068zm-164.244-77.146a35.57 35.57 0 0 0-.713 4.007l-.568 4.176-.772 8.233c-.051 1.137-.111 2.266.848 3.03s2.299.467 3.393.467l8.178-.051 16.846-.229 16.864-.263 16.491-.187c.654-.011 1.306-.074 1.951-.187.079-.027.147-.078.196-.145s.074-.149.074-.233a.4.4 0 0 0-.074-.232.39.39 0 0 0-.196-.145 22.95 22.95 0 0 0-3.885-.213h-3.987l-8.084.094-16.432.305-16.431.306-8.075.093h-3.979c-.941 0-2.324.263-2.714-.891-.112-.596-.127-1.207-.043-1.808l.094-1.944.339-4.048.848-8.132c.051-.672.051-1.347 0-2.02-.007-.025-.022-.047-.042-.063s-.046-.024-.072-.024-.052.009-.072.024a.12.12 0 0 0-.043.063l.06.017z"/><path d="M249.14 320.077c-.127 1.154-.127 2.326-.169 3.48l-.119 3.573-.255 7.639-.559 15.465-.102 4.193v4.108c0 .238.415.34.458.06.178-1.163.254-2.351.322-3.523l.221-3.743.314-7.639.424-15.516.042-4.091-.051-3.964c-.011-.064-.045-.123-.095-.166s-.115-.065-.18-.065a.28.28 0 0 0-.276.231l.025-.042zm-12.198 92.484c-.492 4.575-.848 9.175-1.247 13.767-.076.959-.203 1.944-.195 2.911a1.62 1.62 0 0 0 .112.767c.099.242.256.457.456.625a1.78 1.78 0 0 0 1.001.204c1.697.051 3.393.212 5.09.297l5.268.229c7.363.272 14.735.374 22.055.408h22.285l21.503.11h2.545a.35.35 0 0 0 .211-.118c.053-.063.083-.143.083-.226s-.03-.163-.083-.226-.129-.105-.211-.117c-1.696-.17-3.393-.162-5.089-.204l-5.226-.085-10.688-.085h-21.843a840.44 840.44 0 0 1-21.742-.28l-10.578-.382-2.587-.136c-.485.008-.969-.014-1.451-.068-.373-.076-.297-.738-.288-1.061s0-.848.068-1.247c.288-4.669.848-9.337.958-14.014v-1.052a.23.23 0 0 0-.079-.133c-.041-.034-.092-.053-.146-.053s-.104.019-.145.053a.23.23 0 0 0-.079.133l.042-.017zm90.427 19.36c8.381.365 16.779.552 25.169.62h3.511a35.43 35.43 0 0 0 3.555-.059c.099 0 .194-.04.264-.11s.109-.165.109-.264-.039-.194-.109-.264-.165-.109-.264-.109c-1.044-.111-2.096-.085-3.147-.102l-3.097-.06-6.328-.118-12.597-.187c-2.358 0-4.708 0-7.066.11a.26.26 0 0 0-.155.091c-.039.047-.061.107-.061.168a.27.27 0 0 0 .061.169c.039.048.094.079.155.09v.025zm-101.667.111c-.178.981-.28 1.974-.305 2.971l-.339 4.439-.806 10.355a48.54 48.54 0 0 0-.221 4.957c.001.044.018.086.048.12a.18.18 0 0 0 .113.06c.044.006.088-.003.126-.027s.065-.06.078-.102a28.56 28.56 0 0 0 .645-4.244l.407-5.093.517-9.829.068-2.02a8.96 8.96 0 0 0 0-1.519c0-.17-.28-.238-.322-.043l-.009-.025zm2.935 16.203l-.212 3.209c0 .551-.076 1.103-.093 1.697a3.4 3.4 0 0 0 .187 1.698c.02.033.049.061.083.08a.23.23 0 0 0 .112.029c.039 0 .077-.01.112-.029s.062-.047.083-.08a4.27 4.27 0 0 0 .204-1.698l.076-1.697a22.62 22.62 0 0 0 .085-3.209.32.32 0 0 0-.527-.193c-.058.049-.097.118-.11.193zm2.783 1.256c-.102.849-.102 1.698-.136 2.547l-.059 1.332c-.078.482-.01.975.195 1.418.021.033.051.061.086.079a.25.25 0 0 0 .113.029c.039 0 .079-.01.114-.029a.23.23 0 0 0 .085-.079c.188-.448.255-.936.196-1.418v-1.332a18.99 18.99 0 0 0 0-2.547c-.013-.075-.052-.144-.11-.193a.32.32 0 0 0-.417 0c-.058.049-.097.118-.11.193h.043zm2.706 1.214c-.102.679-.11 1.384-.161 2.071 0 .365-.043.722-.06 1.087a1.39 1.39 0 0 0 .229 1.086c.043.043.101.066.162.066s.118-.023.161-.066a1.51 1.51 0 0 0 .237-1.086v-1.087a10.54 10.54 0 0 0 0-2.071.31.31 0 0 0-.305-.241c-.071 0-.139.023-.195.067a.32.32 0 0 0-.111.174h.043zM96.043 416.177c-1.482.02-2.925.478-4.148 1.315a9.57 9.57 0 0 0-2.223 1.774c-.694.662-1.168 1.521-1.357 2.462 0 .297.373.339.517.144a17.15 17.15 0 0 1 1.519-2.198c.586-.623 1.247-1.17 1.968-1.63a9.86 9.86 0 0 1 2.053-1.027 5.43 5.43 0 0 1 1.697-.408.22.22 0 0 0 .127-.076c.032-.039.05-.089.05-.14a.22.22 0 0 0-.05-.14.21.21 0 0 0-.127-.076h-.025zm-15.253.729c.365 0 .721-.101 1.086-.101a4.08 4.08 0 0 1 1.06.144 6.19 6.19 0 0 1 1.96.959 8.14 8.14 0 0 1 1.442 1.316l.475.602c.153.213.28.433.484.518a.28.28 0 0 0 .101.035c.036.004.072.002.107-.008a.27.27 0 0 0 .096-.048c.029-.023.052-.049.07-.081.254-.526-.288-1.188-.619-1.579a7.92 7.92 0 0 0-1.697-1.502 6.7 6.7 0 0 0-2.222-.942 3.48 3.48 0 0 0-2.434.204.26.26 0 0 0-.103.128c-.02.052-.022.11-.007.164s.047.101.091.136.098.054.154.055h-.042zm48.149-17.366c1.504-.011 2.971.466 4.182 1.358a19.93 19.93 0 0 1 1.637 1.274c.244.198.468.42.67.662.102.127.187.271.289.407s.237.178.339.289c.03.029.067.051.107.062s.084.01.124-.001.078-.033.107-.063a.24.24 0 0 0 .061-.109c.088-.142.132-.307.127-.475a1.58 1.58 0 0 0-.204-.543c-.21-.32-.467-.606-.763-.849-.611-.539-1.266-1.024-1.96-1.451-.691-.464-1.471-.779-2.29-.925a6.01 6.01 0 0 0-2.469.076c-.035.008-.067.028-.089.057s-.035.063-.035.1a.16.16 0 0 0 .124.157l.043-.026zm14.862.017a6.6 6.6 0 0 0-3.232 1.104c-1.343.732-2.516 1.738-3.444 2.953a4.41 4.41 0 0 0-.552 1.019 1.34 1.34 0 0 0-.159.538c-.015.189.011.379.075.557.024.042.058.077.099.104s.086.044.134.051a.32.32 0 0 0 .144-.013.31.31 0 0 0 .123-.074c.263-.204.365-.688.517-.976.196-.344.42-.67.671-.976a9.91 9.91 0 0 1 1.874-1.757 13.2 13.2 0 0 1 2.113-1.307 4.78 4.78 0 0 1 1.637-.612c.081 0 .158-.032.216-.089s.089-.135.089-.216-.032-.159-.089-.216-.135-.09-.216-.09zm-2.494 19.65c1.687.113 3.263.881 4.394 2.139.51.55.944 1.166 1.289 1.833l.475.993c.101.317.293.598.552.806.03.017.063.027.097.029s.069-.004.101-.017.06-.033.083-.059.04-.055.05-.088a1.49 1.49 0 0 0-.102-1.078 6.69 6.69 0 0 0-.526-1.112 9.61 9.61 0 0 0-1.519-1.995c-.634-.65-1.397-1.16-2.24-1.498a6.53 6.53 0 0 0-2.654-.463c-.068 0-.132.027-.18.075s-.075.113-.075.18.027.132.075.18.112.075.18.075zm29.97-9.719a8.69 8.69 0 0 1 4.631 1.095c1.231.702 2.323 1.622 3.224 2.716.356.399.958-.11.721-.552-.838-1.369-2.093-2.434-3.58-3.038-1.591-.73-3.36-.978-5.09-.713-.28.042-.212.509.068.492h.026zm9.662 4.804a10.48 10.48 0 0 1 3.138-3.48 10.79 10.79 0 0 1 2.189-1.197c.356-.136.722-.246 1.094-.331a2.65 2.65 0 0 0 1.103-.331.35.35 0 0 0 .078-.131c.016-.049.021-.101.015-.152s-.025-.1-.052-.144-.065-.08-.109-.107c-.305-.213-.848-.094-1.23-.043-.429.073-.85.19-1.256.348-.868.315-1.685.755-2.426 1.307-1.458.943-2.546 2.362-3.079 4.015-.076.314.382.526.543.229l-.008.017zm224.311 2.462a9.1 9.1 0 0 1 4.292 1.697 6.94 6.94 0 0 1 1.552 1.638c.418.699.795 1.422 1.129 2.165.178.331.805.195.755-.204-.351-1.752-1.379-3.295-2.859-4.295-1.395-1.013-3.07-1.568-4.793-1.587-.314 0-.407.518-.076.569v.017zm8.712 5.228c1.028-1.101 2.239-2.017 3.579-2.707a10.36 10.36 0 0 1 1.892-.578l.984-.195c.322.001.642-.06.942-.178a.28.28 0 0 0 .097-.099c.023-.041.035-.087.035-.134s-.012-.094-.035-.135a.28.28 0 0 0-.097-.099 1.99 1.99 0 0 0-1.044-.102c-.357.001-.714.024-1.069.068a8.41 8.41 0 0 0-2.129.611c-1.539.609-2.803 1.759-3.554 3.234-.036.053-.05.118-.04.181a.26.26 0 0 0 .094.161c.05.04.114.058.178.053s.123-.034.167-.081zm21.597-14.047a6.73 6.73 0 0 1 4.496 1.825c.635.514 1.204 1.104 1.696 1.757a9.02 9.02 0 0 1 .569.899c.144.255.28.671.534.849a.35.35 0 0 0 .257.035c.087-.023.162-.077.21-.154.186-.322 0-.789-.145-1.103-.171-.361-.382-.703-.627-1.019-.563-.746-1.228-1.409-1.977-1.969-1.417-1.189-3.247-1.766-5.089-1.604-.297.042-.23.535.067.518l.009-.034zm15.159.221c-1.395.174-2.717.722-3.826 1.587-.691.498-1.315 1.083-1.858 1.74a6.57 6.57 0 0 0-1.357 2.308.46.46 0 0 0 .25.599.46.46 0 0 0 .598-.25 13.96 13.96 0 0 1 1.23-1.97c.513-.616 1.081-1.184 1.697-1.697.523-.45 1.092-.846 1.696-1.18.475-.293 1.002-.489 1.553-.577.364-.043.381-.611 0-.586l.017.026zm28.96 8.309c1.238-.255 2.545.391 3.58 1.002 1.342.796 2.498 1.87 3.393 3.149.178.254.899 1.561 1.281 1.001.161-.237 0-.662-.128-.899a4.4 4.4 0 0 0-.644-1.044c-.941-1.229-2.136-2.24-3.504-2.963a6.53 6.53 0 0 0-4.139-.899c-.424.076-.246.746.178.653h-.017zm9.662 4.719a10.34 10.34 0 0 1 3.512-3.242c1.043-.652 2.191-1.12 3.393-1.384.119 0 .119-.229 0-.246-.567-.078-1.143-.043-1.697.102-.735.18-1.441.466-2.095.849-1.514.856-2.758 2.12-3.588 3.65-.026.064-.028.135-.005.2s.067.121.127.156a.29.29 0 0 0 .197.035c.068-.012.129-.049.173-.103l-.017-.017zm4.36-21.049c.399.11.848.135 1.213.246.386.1.761.24 1.12.416a7.25 7.25 0 0 1 1.815 1.307c.53.524.986 1.118 1.357 1.765.276.659.638 1.279 1.078 1.842.032.027.071.044.113.049a.23.23 0 0 0 .218-.094c.025-.034.039-.074.042-.116-.032-.825-.329-1.617-.848-2.258a8.96 8.96 0 0 0-1.553-1.876c-.609-.548-1.31-.984-2.07-1.29-.798-.354-1.679-.48-2.544-.365-.04.012-.075.037-.1.071s-.039.074-.039.116.014.082.039.116a.2.2 0 0 0 .1.071h.059zm15.388.28a8.82 8.82 0 0 0-4.606 1.553 12.68 12.68 0 0 0-2.096 1.765c-.706.645-1.225 1.469-1.501 2.385 0 .162.153.357.314.238.671-.567 1.282-1.201 1.824-1.893.584-.627 1.229-1.196 1.925-1.697 1.257-.911 2.71-1.513 4.242-1.757.339-.043.254-.603-.085-.594h-.017zm-359.901 23.698a4.29 4.29 0 0 0 .849-.73c.3-.271.615-.526.941-.764.593-.437 1.22-.826 1.875-1.163a38.47 38.47 0 0 1 3.97-1.494.23.23 0 0 0 .114-.097c.026-.044.036-.096.029-.147a.23.23 0 0 0-.203-.197c-1.513-.019-3.006.352-4.334 1.078a12.3 12.3 0 0 0-1.985 1.239l-.908.755c-.348.276-.637.62-.848 1.01-.041.072-.057.154-.046.235a.38.38 0 0 0 .106.214c.058.058.133.095.214.106s.164-.005.235-.045h-.009zm38.207-161.465c.536.055 1.076.055 1.612 0h1.696 3.444 3.393 1.697c.542.047 1.087-.002 1.612-.144a.37.37 0 0 0 .179-.314.37.37 0 0 0-.179-.314c-.493-.158-1.01-.227-1.527-.204l-1.697-.059h-3.444l-3.393.102-1.696.084a7.61 7.61 0 0 0-1.697.153.38.38 0 0 0-.256.361.38.38 0 0 0 .256.361v-.026zM391.38 132.343l.526.645.28.314.28.28c.161.153.416.305.628.178a.34.34 0 0 0 .136-.167c.026-.069.029-.144.008-.215-.031-.078-.071-.152-.119-.221a2.72 2.72 0 0 0-.339-.348c-.099-.097-.203-.188-.314-.271l-.772-.603c-.054-.031-.117-.041-.178-.029a.26.26 0 0 0-.153.097c-.038.048-.059.108-.059.17s.021.121.059.17h.017zm8.364 1.451a2.16 2.16 0 0 0 .509-.204l.408-.22a3.33 3.33 0 0 0 .432-.314c.064-.053.123-.109.178-.17a.42.42 0 0 0 .134-.156c.031-.062.046-.131.044-.201v.136a.71.71 0 0 0 .094-.221c.006-.024.007-.05.002-.075s-.016-.049-.031-.07-.036-.037-.059-.048-.048-.018-.073-.019c-.081.002-.161.016-.238.043h.093c-.067-.02-.139-.023-.208-.01s-.135.043-.19.086l-.187.093c-.144.077-.28.17-.416.255l-.39.246-.195.119c-.089.05-.171.11-.246.178-.051.052-.084.119-.093.191s.006.145.042.208a.33.33 0 0 0 .373.153h.017zm-4.445-.017a1.41 1.41 0 0 0 0 .526c.035.093.074.184.119.272l.051.102v.051c.042.068.109.116.187.135.042.013.086.015.129.006a.27.27 0 0 0 .117-.056c.032-.028.059-.061.078-.099s.03-.08.032-.122c-.013-.109-.05-.214-.11-.306v.077c0-.094-.06-.179-.085-.272s-.043-.178-.06-.272v.077-.119a.29.29 0 0 0-.081-.193c-.05-.052-.118-.083-.19-.087a.26.26 0 0 0-.195.085c-.051.053-.083.122-.085.195h.093zm-2.069 2.555l.848.399c.286.149.587.266.899.348.055.009.111 0 .16-.027s.086-.069.108-.12.025-.108.011-.161a.25.25 0 0 0-.092-.134 4.07 4.07 0 0 0-.849-.415l-.848-.34c-.057-.019-.12-.014-.174.013s-.095.074-.114.131c-.025.055-.028.116-.009.173s.058.104.11.133h-.05zm-1.646 2.393a4.6 4.6 0 0 0 .492.111l.433.051c.146.017.294.017.441 0h.458a.31.31 0 0 0 .205-.075c.057-.049.093-.118.103-.192a.3.3 0 0 0-.052-.212.31.31 0 0 0-.18-.124l-.441-.085c-.171-.027-.344-.041-.518-.042h-.449a3.13 3.13 0 0 0-.492.059c-.055.015-.103.047-.138.091a.26.26 0 0 0-.057.155c.001.058.021.114.056.16a.27.27 0 0 0 .139.095v.008zm13.657-4.855c-.076.207-.119.425-.127.645 0 .281 0 .73.331.849l-.144-.085c.093.085.203.179.33.136a.25.25 0 0 0 .111-.062.24.24 0 0 0 .068-.108s0-.076.042-.11l-.153.195a.65.65 0 0 0 .153-.152c.038-.102.038-.213 0-.314v.093-.238.102a2 2 0 0 1 0-.501v.094a2.11 2.11 0 0 1 .068-.323c.013-.045.017-.092.011-.139s-.02-.092-.042-.133-.054-.077-.091-.106-.079-.051-.124-.063c-.044-.019-.092-.029-.14-.029s-.096.01-.14.029c-.077.055-.136.132-.17.22h.017zm-6.277 4.287c.067-.009.132-.026.195-.051l.144-.068.297-.136.535-.305c.152-.085.33-.221.322-.416a.34.34 0 0 0-.092-.211c-.054-.057-.127-.094-.205-.103a.51.51 0 0 0-.246.051 4.53 4.53 0 0 0-.594.339l-.297.204-.135.11c-.067.042-.124.097-.17.161a.27.27 0 0 0-.047.153c0 .055.016.108.047.153a.29.29 0 0 0 .125.105c.051.021.109.026.163.014h-.042zm5.183.195l.271.407.128.213.152.203c.037.062.094.11.161.136.035.015.073.023.111.023s.075-.008.11-.023c.042-.009.08-.03.11-.059.036-.027.067-.058.094-.094.031-.051.048-.109.048-.169s-.017-.119-.048-.17l-.153-.204a1.42 1.42 0 0 0-.221-.238c-.118-.119-.242-.233-.373-.339-.045-.039-.102-.06-.161-.06s-.116.021-.161.06-.081.09-.093.149-.004.12.025.174v-.009zm2.239-.968h.255l.212.051.483.068.535.068h.237a.95.95 0 0 0 .34-.085c.045-.027.083-.065.11-.111a.31.31 0 0 0 .04-.152c0-.053-.014-.105-.04-.151a.32.32 0 0 0-.11-.112.88.88 0 0 0-.297-.11h-1.035c-.169-.011-.339.009-.501.059h.128-.297c-.055.003-.107.026-.147.063a.24.24 0 0 0-.074.141c-.006.053.007.107.036.152a.23.23 0 0 0 .125.094v.025zm-15.523 4.601l5.276.484 2.596.178a19.01 19.01 0 0 0 2.689.076c.17 0 .237-.288 0-.331a21.51 21.51 0 0 0-2.545-.246l-2.681-.204-5.361-.441c-.314 0-.305.441 0 .484h.026zm18.857 203.004a13.73 13.73 0 0 0 3.639.085l3.716-.102 7.261-.136h14.709 4.055a17.69 17.69 0 0 0 4.182-.161.45.45 0 0 0 0-.849 15.19 15.19 0 0 0-3.673-.28c-1.238 0-2.477-.051-3.715-.059h-7.27l-14.709.348-4.055.169-2.028.094c-.714.007-1.424.11-2.112.305a.33.33 0 0 0-.164.121c-.04.056-.062.124-.062.193s.022.138.062.194a.33.33 0 0 0 .164.12v-.042zm17.381 6.705c1.273.077 2.545-.068 3.843-.11l3.767-.076h3.766a17.61 17.61 0 0 0 3.783-.187c.074-.024.139-.07.185-.132s.07-.139.07-.216a.37.37 0 0 0-.07-.216c-.046-.062-.111-.109-.185-.132a15.26 15.26 0 0 0-3.783-.323h-3.851l-3.843.17a27.17 27.17 0 0 0-3.8.331c-.509.11-.357.849.118.849v.042zm-9.848-294.418l19.57.204a55.28 55.28 0 0 0 5.564-.051.46.46 0 0 0 .289-.156.47.47 0 0 0 0-.614c-.074-.085-.177-.14-.289-.155-1.625-.122-3.256-.159-4.886-.11h-4.894-9.781-5.573a.46.46 0 0 0-.396.454c0 .11.04.218.113.301a.46.46 0 0 0 .283.153v-.025zm13.072 3.735l4.776.144a35.87 35.87 0 0 0 4.776 0 .4.4 0 0 0 .34-.395c0-.096-.034-.188-.097-.261s-.149-.12-.243-.134a35.87 35.87 0 0 0-4.776 0l-4.776.144a.3.3 0 0 0-.177.101c-.045.053-.07.121-.07.192s.025.138.07.192.108.089.177.101v-.085zm-16.609 105.911l3.121-.102 3.113-.136 6.15-.229 12.309-.237 6.998-.272c.021-.006.04-.019.053-.037s.02-.039.02-.061-.007-.043-.02-.06-.032-.031-.053-.037l-6.243-.348-6.235-.043-12.308.357-3.538.178-3.469.272c-.433.068-.306.738.102.755z"/></g></g><defs><clipPath id="B"><path fill="#fff" d="M0 0h532v455H0z"/></clipPath></defs></svg>