<svg xmlns="http://www.w3.org/2000/svg" width="53" height="51" fill="none" xmlns:v="https://vecta.io/nano"><path d="M50.136 10.887a18.85 18.85 0 0 0-10.724-8.218C31.722 0 25.433-.85 17.505.977S1.699 8.498.331 16.547C-.485 21.425 0 27.195 4.385 32.005c8.812 9.654 15.644 6.799 18.363 8.303 4.113 2.227 5.15 7.972 8.956 10.691.68-1.878.306-4.011.969-5.898 1.198-3.399 5.175-4.768 8.328-6.544 9.186-5.184 16.137-16.674 9.135-27.671z" fill="#ffe87b"/><g fill="#28c99b"><path d="M12.441 22.181c-.25-4.533-.162-9.078.264-13.598l-2.175.935c3.556 3.115 6.446 6.916 8.498 11.176a1.28 1.28 0 0 0 .779.596 1.28 1.28 0 0 0 .972-.129 1.28 1.28 0 0 0 .596-.779 1.28 1.28 0 0 0-.129-.972c-2.157-4.455-5.185-8.431-8.905-11.694a1.3 1.3 0 0 0-1.348-.21 1.3 1.3 0 0 0-.793 1.111 91.51 91.51 0 0 0-.263 13.598c.085 1.632 2.634 1.64 2.549 0l-.043-.034z"/><path d="M12.143 17.567l5.515-.85c.318-.1.585-.32.744-.614a1.28 1.28 0 0 0 .106-.958 1.33 1.33 0 0 0-.621-.73c-.29-.157-.63-.2-.951-.12l-5.507.85c-.162.044-.314.12-.446.223s-.244.231-.327.378a1.29 1.29 0 0 0-.157.474 1.27 1.27 0 0 0 .037.498 1.31 1.31 0 0 0 1.563.85h.043zm18.032-7.071a8.89 8.89 0 0 1 0 .952v.527c-.004.051-.004.102 0 .153 0 .229 0-.076 0-.093a1.39 1.39 0 0 0-.059.391 9.2 9.2 0 0 1-.374 1.419l-.145.382c.085-.238 0 .051-.068.136a7.61 7.61 0 0 1-.442.85l-.459.671c.127-.17 0 0 0 0a1.69 1.69 0 0 1-.162.187c-.119.144-.246.28-.382.408l-.297.281c-.187.178.051-.051.051-.043s-.145.102-.136.093-.314.119-.136.077-.153.051-.213.068a1.34 1.34 0 0 1-.161.043h.11-.45c-.153 0 .17 0 .153 0a6.54 6.54 0 0 1-.331-.085l-.136-.042c-.153 0 .23.127.093.042l-.229-.127-.119-.076c-.178-.094.11.051.076.068s-.187-.17-.221-.204l-.102-.11c-.162-.17.068.076.059.076a2.74 2.74 0 0 1-.162-.255 1.14 1.14 0 0 1-.051-.102c-.102-.128.076.246 0 .093s-.068-.229-.102-.34 0 .264 0 0a2.41 2.41 0 0 1 0-.34c0-.289-.059.161 0-.06a3.69 3.69 0 0 0 .119-.408c0-.178-.093.178 0 0l.093-.187c.059-.119.128-.229.195-.34l.136-.196s-.136.162 0-.042.187-.213.289-.306l.28-.263c-.204.187.043 0 .128-.077.212-.135.433-.255.663-.357-.229.11 0 0 .085 0l.365-.111c.238-.068.484-.102.731-.162s-.246 0-.059 0h.136.365a6.8 6.8 0 0 1 .722 0h.646.162c.17 0-.264-.051-.102 0l.348.059a7.36 7.36 0 0 1 .969.255h.077c.196.068-.289-.153-.127-.051l.145.076.204.127.144.094c-.127-.102.051.051.076.076a1.23 1.23 0 0 1 .187.179 1.1 1.1 0 0 1 .136.144c.153.17 0-.11 0 0a3.14 3.14 0 0 0 .212.366s.076.17 0 0 0 .059 0 .102a.99.99 0 0 1 .051.17v.085c0 .111 0 .111 0 0s0-.119 0 .043a1.75 1.75 0 0 1 0 .212c.013.116.013.233 0 .348 0 0 .059-.289 0-.085a1.91 1.91 0 0 1-.051.213l-.051.162c-.051.187 0 .102 0 0 0 .221-.28.527-.408.697.161-.23 0 0-.093.093-.107.111-.221.216-.34.315a1.26 1.26 0 0 0-.279.415 1.27 1.27 0 0 0 0 .98 1.28 1.28 0 0 0 .279.415c.244.229.566.356.901.356s.657-.127.901-.356a4.74 4.74 0 0 0 1.7-3.535 4.42 4.42 0 0 0-2.056-3.629 6.21 6.21 0 0 0-2.847-.85 8.8 8.8 0 0 0-3.518.263c-1.405.409-2.613 1.315-3.399 2.55a4.17 4.17 0 0 0-.726 1.995c-.066.717.056 1.438.352 2.093a3.8 3.8 0 0 0 2.821 1.972 3.95 3.95 0 0 0 3.68-1.343 10.2 10.2 0 0 0 2.719-7.598c0-.338-.134-.662-.373-.901s-.563-.373-.901-.373-.662.134-.901.373-.373.563-.373.901h-.017z"/><path d="M26.088 5.677a33.33 33.33 0 0 0 .425 7.003 23.85 23.85 0 0 0 1.904 6.705c.07.168.176.319.309.443s.292.218.465.275.356.077.537.058.356-.077.513-.17.292-.217.396-.366.176-.319.209-.498.028-.363-.016-.54-.125-.342-.238-.485A21.85 21.85 0 0 1 28.943 12a30.28 30.28 0 0 1-.331-6.323c.094-1.64-2.456-1.64-2.549 0h.026z"/><path d="M23.207 9.654l8.574-.765c.329-.01.642-.143.878-.373a1.32 1.32 0 0 0 .396-.868c0-.338-.134-.662-.373-.901s-.563-.373-.901-.373l-8.574.765a1.31 1.31 0 0 0-1.275 1.275 1.29 1.29 0 0 0 1.275 1.275v-.034zm-.017 12.502a3.93 3.93 0 0 0-.412 2.338 3.94 3.94 0 0 0 1.007 2.15 1.28 1.28 0 0 0 .901.369c.337 0 .661-.133.901-.369a1.3 1.3 0 0 0 0-1.802l-.094-.195.195.255a2.75 2.75 0 0 1-.323-.552l.127.306c-.092-.223-.155-.457-.187-.697l.043.34a2.57 2.57 0 0 1 0-.722l-.043.331c.031-.21.088-.416.17-.612l-.127.306c.025-.067.053-.132.085-.195a1.35 1.35 0 0 0 .059-.943c-.093-.32-.302-.593-.586-.765a1.3 1.3 0 0 0-.48-.162 1.29 1.29 0 0 0-.506.035 1.32 1.32 0 0 0-.765.586h.034z"/><path d="M18.907 27.416l10.614-.697c.338 0 .662-.134.901-.373s.373-.563.373-.901-.134-.662-.373-.901-.563-.373-.901-.373l-10.614.697a1.3 1.3 0 0 0-1.275 1.275c.002.337.137.66.376.899s.561.374.899.376z"/><path d="M20.394 26.431a13.66 13.66 0 0 0 3.198 5.757c1.52 1.63 3.415 2.862 5.52 3.591.321.09.665.052.958-.106s.514-.425.614-.744a1.31 1.31 0 0 0-.85-1.564l-.697-.263-.153-.068-.331-.17c-.406-.205-.8-.432-1.181-.68-.758-.493-1.446-1.085-2.048-1.759l-.45-.518-.136-.162-.221-.297a12 12 0 0 1-.765-1.207c-.452-.782-.784-1.627-.986-2.507-.089-.327-.304-.605-.598-.773s-.643-.212-.97-.123-.605.304-.773.598-.213.643-.124.97l-.008.025z"/><path d="M19.222 36.221a11.47 11.47 0 0 0 8.497-9.833c0-.338-.134-.662-.373-.901s-.563-.373-.901-.373a1.31 1.31 0 0 0-1.275 1.275c0 .306 0-.128 0 .144 0 .128-.043.247-.068.366a6.99 6.99 0 0 1-.17.714l-.23.697-.11.289c0 .085 0 .076 0 0l-.077.17a11.58 11.58 0 0 1-.68 1.241l-.425.603c.136-.187-.102.119-.102.127l-.238.281a8.55 8.55 0 0 1-4.487 2.771 1.27 1.27 0 0 0-.458.216c-.136.102-.252.23-.338.377s-.142.31-.164.479-.01.341.036.505a1.29 1.29 0 0 0 .229.452 1.28 1.28 0 0 0 .387.327c.149.082.314.133.484.15a1.28 1.28 0 0 0 .504-.05l-.043-.026zm21.992-19.47a2.7 2.7 0 0 1 2.498 2.117c.074.513-.034 1.035-.304 1.477s-.685.776-1.175.945c-.79.238-1.632.212-2.43.416a4.19 4.19 0 0 0-2.124 1.241 7.72 7.72 0 0 0-1.632 4.249 1.3 1.3 0 0 0 .85 1.564c.327.089.675.045.97-.122a1.28 1.28 0 0 0 .602-.77c.178-1.249.365-3.128 1.7-3.629.926-.34 1.963-.229 2.898-.544.889-.291 1.666-.849 2.226-1.598a4.81 4.81 0 0 0 .45-5.099c-.446-.822-1.098-1.514-1.892-2.009a5.4 5.4 0 0 0-2.637-.813 1.28 1.28 0 0 0-.899.376c-.239.239-.373.562-.376.899a1.3 1.3 0 0 0 1.275 1.275v.025zm-5.889 13.954l-.111.153c-.091.143-.144.307-.153.476a1.05 1.05 0 0 0 0 .51.97.97 0 0 0 .229.433 1.11 1.11 0 0 0 .357.331l.306.127a1.33 1.33 0 0 0 .68 0l.306-.127a1.37 1.37 0 0 0 .45-.459l.111-.153c.091-.143.144-.307.153-.476a1.04 1.04 0 0 0 0-.51 1.46 1.46 0 0 0-.586-.765l-.306-.127a1.33 1.33 0 0 0-.68 0l-.297.127a1.31 1.31 0 0 0-.459.459z"/></g></svg>