<svg xmlns="http://www.w3.org/2000/svg" width="165" height="129" fill="none" xmlns:v="https://vecta.io/nano"><g clip-path="url(#A)"><path d="M45.937 29.704c-.851 4.423-2.629 8.23-4.619 12.264s-3.564 8.5-2.969 12.958a6.59 6.59 0 0 0 1.821 4.102c1.049.825 2.284 1.385 3.598 1.632 5.419 1.438 11.195 2.36 16.597.846a3.51 3.51 0 0 0 2.016-1.133 4.54 4.54 0 0 0 .57-1.607c.57-2.453 1.889-4.669 2.646-7.079a17.48 17.48 0 0 0-.536-11.435 22.28 22.28 0 0 0-6.976-9.219c-2.79-2.216-5.181-5.743-8.745-6.107-1.37-.144-2.637.787-3.403 4.779z" fill="#212121"/><path d="M84.636 63.579l-30.968-2.856-4.828 51.743 30.968 2.857 4.828-51.744z" fill="#f2f5f9"/><path d="M44.687 94.729l36.01 8.813c1.191 8.212 2.178 16.07 3.063 23.809L34.878 129a229.62 229.62 0 0 1 9.808-34.271z" fill="#444e4a"/><g fill="#ffe7e2"><path d="M128.905 38.593c1.2-1.193 8.601-9.972 10.208-12.179 1.055-1.463 4.569-6.47 5.836-5.438s.264 3.332-.697 4.956c2.458-1.751 7.92-6.233 9.587-4.965s-2.688 4.753-3.743 5.768c1.701-1.142 6.269-4.618 7.307-3.383 1.259 1.463-3.088 5.075-5.104 6.369 1.991-1.218 5.155-3.053 6.04-1.607.613.99-1.182 2.309-2.382 3.214-1.548 1.167-16.035 13.863-20.416 16.239l-6.636-8.974zM20.936 91.65c-.459-1.632-2.603-12.881-2.901-15.579-.196-1.785-.808-7.866-2.424-7.612s-1.863 2.783-1.821 4.66c-1.285-2.715-3.854-9.304-5.955-8.982s0 5.455.434 6.851c-.919-1.802-3.165-7.045-4.67-6.496-1.82.668.187 5.921 1.344 8.052-1.14-2.03-3.003-5.168-4.483-4.339-1.021.567-.111 2.597.493 3.967.749 1.768 7.18 19.885 9.817 24.08l10.166-4.601z"/></g><path d="M98.68 21.212c1.222-.196 2.476-.003 3.581.55.755.352 1.378.933 1.778 1.66s.559 1.561.451 2.383c-.451 2.453-1.982 3.857-2.075 5.159-.136 1.692 1.795 3.129 1.514 4.821-.109.466-.348.892-.69 1.228s-.772.571-1.241.675c-.947.189-1.928.113-2.833-.22-4.5-1.413-10.344-6.69-7.724-12.56.842-1.903 5.725-3.392 7.239-3.696z" fill="#4cd8ac"/><path d="M94.673 36.978c0 4.491 1.063 8.568 2.271 12.898s1.931 9.008.528 13.279c-.396 1.488-1.298 2.794-2.552 3.696-1.186.621-2.505.946-3.845.947-5.589.415-11.433.279-16.469-2.165-.744-.279-1.369-.805-1.769-1.489-.196-.542-.285-1.116-.264-1.692-.102-2.537-.995-4.939-1.285-7.434-.397-3.904.531-7.829 2.637-11.147 2.12-3.313 5.085-6.01 8.592-7.815 3.148-1.692 6.185-4.686 9.74-4.398 1.319.11 2.424 1.26 2.416 5.32z" fill="#212121"/><path d="M82.44 15.224c-3.59-4.508-11.255-7.612-17.482-5.921s-10.625 7.367-13.611 18.607c-2.169 8.272.34 17.931 7.231 23.048s17.788 4.508 23.335-2.038c1.689-2.087 2.954-4.479 3.726-7.045 3.216-9.735.383-22.185-3.199-26.651z" fill="#ffe7e2"/><path d="M66.039 27.607c-.07-.128-.169-.237-.29-.318s-.26-.132-.405-.149-.292.002-.429.054a.91.91 0 0 0-.356.244c-.544.499-.91 1.506-1.165 3.273-.187 1.302 0 2.622.612 3.096s1.506 0 1.982-1.226c.146-.383.251-.78.315-1.184.246-1.264.155-2.571-.264-3.789z" fill="#ff886d"/><path d="M52.819 24.587c-1.701-.431-7.035-2.157-9.247 2.681-2.552 5.599 3.216 9.744 7.546 9.946a33.87 33.87 0 0 1 .06-6.521 25.46 25.46 0 0 1 1.642-6.107z" fill="#ffe7e2"/><g fill="#343b38"><path d="M60.646 29.07c-.128.846-.766 1.607-1.208 1.539s-.851-.651-.74-1.489.698-1.616 1.174-1.548.893.66.774 1.497zm9.221.533c-.119.846.281 1.759.723 1.818s1.012-.389 1.14-1.226-.213-1.742-.697-1.81-1.038.372-1.166 1.218z"/></g><path d="M83.257 6.377C78.306.372 70.522-.575 63.521.262c-6.329.753-10.625 3.459-13.705 7.164-2.967 3.515-4.815 7.828-5.308 12.391-.255 3.704 1.77 6.665 6.652 6.817 5.751.194 6.806-5.523 8.507-8.365 3.165-5.185 7.835-6.166 10.897.414 1.472 3.163 4.866 9.304 7.444 9.566 3.564.397 5.581-.584 4.951-3.265 2.178 2.555 4.114 5.304 5.785 8.213 10.778 0 10.651-8.712 6.933-17.922-2.016-4.982-8.49-9.354-12.42-8.898z" fill="#212121"/><path d="M70.191 36.758c-1.157-1.04-2.96-.541-3.964 0s-2.552 1.108-5.521-.44c-.165-.096-.347-.158-.535-.183s-.381-.013-.565.035a1.45 1.45 0 0 0-.508.248 1.44 1.44 0 0 0-.373.424c-.166.4-.231.835-.188 1.266a2.62 2.62 0 0 0 .435 1.204 7.07 7.07 0 0 0 4.168 2.783c4.466 1.066 6.516-.338 7.444-1.827.368-.535.531-1.183.46-1.827a2.7 2.7 0 0 0-.851-1.683z" fill="#ff886d"/><g fill="#ffe7e2"><path d="M62.245 50.68c-1.157 1.362-1.846 5.92-2.424 8.509-.91 4.06 1.599 7.688 3.726 8.458 3.233 1.226 7.903.677 9.902-4.398 1.31-3.299 2.263-9.118 1.412-11.452-.663-1.886-3.837-2.537-6.465-2.723-1.94-.118-4.985.237-6.151 1.607zm23.964-24.029c5.495-1.692 9.272 2.977 8.711 6.546-.851 5.151-6.193 6.766-8.686 5.828a41.19 41.19 0 0 0 .579-6.826 35.91 35.91 0 0 0-.604-5.548z"/></g><g fill="#ffe87b"><path d="M34.827 69.829c-2.688 5.134-4.041 14.378-12.93 11.528-6.754-2.148-20.289 3.561-13.764 14.108 6.874 11.097 19.192 12.687 29.068 2.673a68.35 68.35 0 0 0-1.701 18.21c.196 3.079 5.734 6.428 11.757 6.174 3.632-.152 5.836-.905 6.746-3.434 0 0 2.263-7.849 4.662-33.586 1.344-14.378 1.353-27.235 1.353-27.235-12.318-.66-21.548 4.618-25.189 11.562zm108.489-31.853c-3.139-4.043-5.997-11.993-10.966-10.699-2.968.77-33.551 32.555-49.008 32.69-5.793 0-3.25-.068-8.813-.364 0 0-3.896 9.422-8.056 31.227-3.752 19.614-5.444 28.334-3.471 30.846s7.018 3.756 11.739 3.24c2.314-.254 10.991-2.757 12.148-5.633 1.353-3.383 1.914-20.451.91-34.999 0 .288 21.463-8.534 29.587-14.531 13.1-9.642 27.537-23.369 28.073-25.898.459-2.106-.843-4.17-2.144-5.878z"/><path d="M144.736 42.67c-.374.279-1.131.102-1.752-.431a149.38 149.38 0 0 1-11.127-11.164c-.349-.381-.706-.846-.629-1.049.153-.414 5.282-3.696 5.954-3.806a1.64 1.64 0 0 1 .841.193 1.61 1.61 0 0 1 .623.594l8.566 12.577c.323.499.349.99 0 1.209l-2.476 1.878zM4.806 85.197c-.036-.282.024-.567.17-.811a1.27 1.27 0 0 1 .638-.534 105.77 105.77 0 0 1 12.258-5.075c.408-.144.851-.271 1.046-.11a35.42 35.42 0 0 1 1.701 6.716 1.19 1.19 0 0 1-.364.641 1.2 1.2 0 0 1-.674.306c-4.253.787-6.805 3.764-11.297 4.449-.198.065-.413.055-.605-.028a.85.85 0 0 1-.433-.421l-2.441-5.134z"/></g><g fill="#212121"><path d="M53.202 20.485c-1.107.339-2.081 1.01-2.79 1.92a10.31 10.31 0 0 0-1.446 6.487c.221 2.284 1.166 4.102 2.365 4.821a12.62 12.62 0 0 1-.851-7.003c.264-1.895 1.88-4.956 2.748-6.225m12.564-7.198c-.332.389-.213 1.007-.213 1.48v1.81a26.56 26.56 0 0 0 .408 3.721 8.76 8.76 0 0 0 2.748 5.075 6.2 6.2 0 0 0 1.557.981 3.26 3.26 0 0 0 1.914.414.35.35 0 0 0 .159-.108c.042-.05.069-.11.078-.175a.35.35 0 0 0-.027-.189c-.026-.059-.07-.11-.124-.146-.442-.288-1.046-.364-1.523-.609a5.69 5.69 0 0 1-1.208-.846 8.04 8.04 0 0 1-1.701-2.216 14.31 14.31 0 0 1-1.276-5.684l-.128-1.886c0-.491.085-1.21-.272-1.599a.27.27 0 0 0-.089-.061c-.034-.014-.07-.021-.106-.021s-.073.007-.106.021-.064.035-.089.061v-.025z"/></g><g fill="#343b38"><path d="M62.22 53.285a4.61 4.61 0 0 0 1.616.778 16.86 16.86 0 0 0 2.229.634 14.41 14.41 0 0 0 2.552.305c.929.134 1.876-.01 2.722-.415a.31.31 0 0 0 .116-.127c.026-.052.035-.111.028-.169a.3.3 0 0 0-.068-.157c-.037-.044-.087-.078-.143-.096-.844-.132-1.703-.152-2.552-.059a18.99 18.99 0 0 1-2.493-.245c-.698-.118-1.395-.279-2.076-.465a7.7 7.7 0 0 0-1.701-.406c-.048.002-.095.018-.135.045s-.071.066-.089.11-.024.093-.016.14.029.092.062.127h-.051zM31.186 82.042a8.4 8.4 0 0 0-2.016-1.286 1.94 1.94 0 0 0-1.2-.271 1.11 1.11 0 0 0-.748.711 4.43 4.43 0 0 0-.221 2.131c.094.719.374 1.759 1.131 2.047.179.068.332-.11.349-.271-.002-.163-.025-.325-.068-.482-.029-.137-.066-.273-.111-.406-.108-.275-.193-.558-.255-.846a4.36 4.36 0 0 1-.051-1.692c0-.169.094-.364.264-.355a2.34 2.34 0 0 1 .851.321 11.78 11.78 0 0 1 1.701.93c.323.212.723-.296.417-.541l-.043.009zm5.555 19.58l.97-3.172 1.327-3.738 1.489-3.857 1.336-3.502.961-2.935c.068-.279-.357-.491-.485-.212-2.095 4.398-3.922 8.917-5.47 13.533a13.26 13.26 0 0 0-.74 3.763.31.31 0 0 0 .086.193c.05.052.117.086.189.095s.145-.007.207-.046a.31.31 0 0 0 .131-.166v.043zm-18.221 2.233l-2.11-.998a21.63 21.63 0 0 1-2.212-1.345c-1.463-1.038-2.801-2.238-3.99-3.578a17.96 17.96 0 0 1-2.875-4.153 5.37 5.37 0 0 1-.349-4.559c.816-1.522 2.085-2.757 3.632-3.535.221-.135.077-.524-.179-.423a8.14 8.14 0 0 0-3.794 2.943 5.48 5.48 0 0 0-.425 5.075c1.268 3.383 4.024 6.25 6.882 8.39.846.635 1.742 1.201 2.68 1.692a7.68 7.68 0 0 0 2.629.922c.221 0 .306-.33.111-.423v-.008zm116.357-76.248a7.64 7.64 0 0 1 1.701 1.616 14.29 14.29 0 0 1 1.234 1.988c.145.262.374 1.049.808.795s.06-.846-.059-1.108a5.31 5.31 0 0 0-.264-.592l-.323-.516a6.42 6.42 0 0 0-.741-.922 9.01 9.01 0 0 0-2.186-1.599c-.045-.026-.099-.033-.149-.019s-.093.046-.119.091-.033.098-.019.148.046.093.091.118h.026zM85.486 86.694c.954-.931 2.058-1.698 3.267-2.267l5.189-2.343c4.483-1.844 8.992-3.62 13.33-5.76a38.99 38.99 0 0 0 7.656-4.576c.272-.228-.076-.626-.366-.474-2.381 1.21-4.678 2.537-7.069 3.755s-4.662 2.216-7.026 3.248c-3.905 1.691-7.92 3.222-11.68 5.235a13.16 13.16 0 0 0-3.786 2.69c-.298.33.187.846.493.491h-.008zM59.872 58.072l-.077 1.692-.145 3.248-.434 8.526-.383 7.341-.332 13.144-.63 7.494a54.53 54.53 0 0 1-1.557 7.18c0 .11.145.195.196.085a40.47 40.47 0 0 0 2.671-12.771c.34-4.423.272-8.881.391-13.313l.604-16.73c0-1.311.06-2.622.068-3.924a10.79 10.79 0 0 0-.094-2.03c0-.161-.281-.118-.281 0v.059zm14.623 1.032a5.54 5.54 0 0 0-.485 1.099 30.29 30.29 0 0 0-.944 2.597l-2.646 8.661a321.22 321.22 0 0 0-3.105 11.511 205.42 205.42 0 0 0-2.646 12.103 136.9 136.9 0 0 0-.944 5.608c-.23 1.641-.459 3.307-.527 4.965a7.75 7.75 0 0 0 0 1.099c0 .229.366.313.434.059.366-1.522.434-3.137.681-4.685a143.32 143.32 0 0 1 .936-5.405c.774-4.009 1.701-7.984 2.629-11.96s1.931-7.79 2.943-11.663a298.5 298.5 0 0 1 2.552-9.185l.851-3.003a13.75 13.75 0 0 1 .485-1.556.99.99 0 0 1 .051-.11c.102-.144-.128-.271-.238-.135h-.025zm-34.249 45.833a13.01 13.01 0 0 0-1.778 4.229 12.77 12.77 0 0 0-.34 4.61 5.31 5.31 0 0 0 1.866 3.194 5.36 5.36 0 0 0 3.51 1.212c2.688 0 5.104-1.81 6.414-4.009a13.53 13.53 0 0 0 1.599-4.229 6.82 6.82 0 0 0 .306-2.14 1.32 1.32 0 0 0-.399-.788c-.22-.209-.506-.337-.809-.362-.681-.101-1.395 0-2.084-.042a21.96 21.96 0 0 1-2.229-.237c-1.473-.223-2.905-.656-4.254-1.286a.38.38 0 0 0-.259-.005c-.084.029-.156.087-.201.163a.37.37 0 0 0 .086.477c1.88 1.353 4.39 1.776 6.669 1.861h1.642a1.33 1.33 0 0 1 .732.101c.255.169.119.609.076.846a15.98 15.98 0 0 1-1.055 3.814c-.97 2.199-2.756 4.229-5.206 4.72-2.135.448-4.662-.601-5.351-2.766a10.03 10.03 0 0 1 0-4.66 16.72 16.72 0 0 1 1.455-4.534c.023-.053.025-.112.007-.167s-.056-.101-.106-.13a.24.24 0 0 0-.166-.028c-.057.011-.108.043-.143.089l.017.067zm28.039 3.578c-.66 1.25-1.059 2.619-1.174 4.026-.176 1.349-.224 2.711-.145 4.068.004.612.142 1.215.403 1.768a4.23 4.23 0 0 0 1.111 1.438 6.48 6.48 0 0 0 3.607.939 5.99 5.99 0 0 0 3.754-.657c1.145-.622 2.053-1.601 2.584-2.786a12.23 12.23 0 0 0 1.08-4.051l.187-2.123c.042-.296-.002-.598-.125-.87a1.58 1.58 0 0 0-.573-.669c-.618-.254-1.293-.342-1.957-.254a25.27 25.27 0 0 1-2.271-.102c-1.567-.138-3.123-.369-4.662-.693a.51.51 0 0 0-.206-.015.54.54 0 0 0-.196.065.53.53 0 0 0-.249.318c-.018.066-.023.136-.015.205a.52.52 0 0 0 .2.35.55.55 0 0 0 .185.092c2.315.697 4.728 1.02 7.146.956.417 0 1.123-.22 1.497 0s.162 1.141.145 1.488a15.48 15.48 0 0 1-.561 3.899c-.329 1.038-.914 1.977-1.701 2.732a4.53 4.53 0 0 1-3.19 1.218c-1.158.06-2.316-.115-3.403-.516a2.99 2.99 0 0 1-1.175-.989 2.96 2.96 0 0 1-.526-1.438 18.34 18.34 0 0 1 0-3.925 14.45 14.45 0 0 1 .851-4.229c.128-.33-.408-.541-.578-.237l-.043-.008zm-23.198-83.37c-.442 0-.851.465-1.157.753-.347.337-.656.711-.919 1.117-.467.713-.74 1.535-.791 2.385a6.04 6.04 0 0 0 .425 2.453c.255.685.621 1.793 1.378 2.064a.22.22 0 0 0 .094-.002c.031-.007.06-.021.085-.04a.22.22 0 0 0 .085-.161 1.83 1.83 0 0 0-.34-1.032 9.88 9.88 0 0 1-.485-1.057 5.63 5.63 0 0 1-.4-2.114 4.69 4.69 0 0 1 .553-2.081 6.76 6.76 0 0 1 .766-1.083c.272-.313.749-.609.851-1.023.005-.021.006-.042.001-.063a.14.14 0 0 0-.027-.058.16.16 0 0 0-.049-.041c-.019-.01-.04-.015-.062-.016h-.008zM4.083 64.661a3.04 3.04 0 0 1 .953 1.066l1.038 1.734 1.021 2.004.493.99c.138.295.339.557.587.77.153.118.357 0 .357-.203a2.45 2.45 0 0 0-.306-1.04l-.502-.99-1.14-2.097c-.561-.914-1.276-2.182-2.382-2.537-.036-.011-.076-.009-.11.007s-.062.044-.077.079a.15.15 0 0 0-.003.11c.013.036.038.066.072.084v.025zm8.388 13.795c-.051-1.472.808-2.639 1.327-3.95a5.89 5.89 0 0 0 .366-1.692 2.69 2.69 0 0 0-.162-1.641.17.17 0 0 0-.205-.046c-.023.011-.043.026-.059.046a3.14 3.14 0 0 0-.459 1.565 6.67 6.67 0 0 1-.4 1.768c-.519 1.26-1.446 2.605-.902 4.009.093.245.51.237.493-.068v.008zM7.818 64.322c.851.144 1.531 1.099 2.033 1.759a9.35 9.35 0 0 1 .74 1.303l1.063 2.157.468.973c.085.281.278.518.536.66.042.01.086.006.126-.011a.2.2 0 0 0 .095-.082 1.07 1.07 0 0 0 .035-.453 1.08 1.08 0 0 0-.154-.427l-.485-1.091-1.191-2.241a7.99 7.99 0 0 0-.978-1.404c-.578-.668-1.293-1.497-2.28-1.412-.162 0-.23.287-.043.313l.034-.042zm-6.414 3.95a9.54 9.54 0 0 1 1.004.939c.366.346.7.726.995 1.133.289.398.527.846.783 1.243l.357.6c.128.195.255.431.442.465a.17.17 0 0 0 .119-.076c.102-.169 0-.474-.085-.651a5.34 5.34 0 0 0-.332-.711c-.25-.458-.534-.896-.851-1.311a7.63 7.63 0 0 0-1.046-1.167 4.01 4.01 0 0 0-1.285-.719c-.162-.051-.23.169-.111.254h.008zm5.81 14.988l4.398-1.692 3.726-1.505 1.889-.66.936-.288c.315-.085.476.11.63.431a8 8 0 0 0 .774 1.649 3.05 3.05 0 0 0 1.523.922 8.89 8.89 0 0 0 2.161.372h1.174c.471.044.945-.032 1.378-.22.072-.051.129-.12.164-.2a.48.48 0 0 0-.065-.494.49.49 0 0 0-.21-.152 2.97 2.97 0 0 0-1.191-.059h-1.114a6.49 6.49 0 0 1-1.889-.313 1.9 1.9 0 0 1-.733-.35 1.89 1.89 0 0 1-.518-.623 5.66 5.66 0 0 0-.851-1.607c-.562-.6-1.242-.397-1.923-.169l-1.922.668-3.726 1.548-2.186 1.04-2.552 1.404c-.153.093-.051.364.128.305v-.008zm37.498-55.476a4.37 4.37 0 0 1 2.008 2.055c.199.413.328.856.383 1.311 0 .271 0 .533.085.795s0 .482.119.685a.22.22 0 0 0 .058.065.23.23 0 0 0 .079.037c.029.007.058.008.087.004a.22.22 0 0 0 .082-.03c.255-.144.289-.448.383-.702a1.95 1.95 0 0 0 .059-.888 4.52 4.52 0 0 0-.519-1.692c-.527-1.04-1.443-1.833-2.552-2.207-.34-.11-.578.431-.247.592l-.025-.025z"/><path d="M46.558 28.757a4.4 4.4 0 0 0-.57-.085c-.206-.017-.413 0-.613.051a1.97 1.97 0 0 0-.578.212l-.272.195c-.093.061-.171.142-.23.237-.031.057-.045.122-.04.187s.029.127.068.178a.34.34 0 0 0 .346.126 1.36 1.36 0 0 0 .272-.135l.145-.118.298-.144s.136-.059.051 0h.102l.476-.152a1.71 1.71 0 0 1 .459-.076c.247 0 .323-.381.06-.44l.026-.034zm45.819 1.582a3.19 3.19 0 0 0-1.745.021c-.568.169-1.078.493-1.47.935a3.56 3.56 0 0 0-.851 1.801 3.26 3.26 0 0 0 .306 2.157c.247.389.987.262.936-.254 0-.305-.102-.601-.145-.905a4.4 4.4 0 0 1 0-.744 3 3 0 0 1 .417-1.446 2.41 2.41 0 0 1 1.027-.97 2.43 2.43 0 0 1 1.398-.231c.053.015.11.008.157-.019s.083-.072.098-.125.008-.109-.019-.157-.072-.083-.125-.097l.017.034z"/><path d="M89.544 31.387a1.66 1.66 0 0 0 .179.254 2 2 0 0 0 .247.212l.255.194.059.051.119.093.434.355a2.99 2.99 0 0 0 .544.381c.073.041.157.058.24.047s.16-.048.22-.107a.39.39 0 0 0 .1-.215.4.4 0 0 0-.041-.233 1.87 1.87 0 0 0-.442-.491 4.93 4.93 0 0 0-.536-.406 4.66 4.66 0 0 0-.485-.313c-.105-.057-.216-.103-.332-.135a1.13 1.13 0 0 0-.332-.051c-.044.001-.086.013-.124.035s-.069.053-.091.09-.034.08-.035.123a.26.26 0 0 0 .029.125l-.008-.009zM28.745 81.196a3.5 3.5 0 0 0 .919-.474 5.85 5.85 0 0 0 .851-.77c.51-.584.95-1.226 1.31-1.912a36.05 36.05 0 0 0 2.042-4.703 23.15 23.15 0 0 1 1.922-4.229 22.79 22.79 0 0 1 3.403-4.051 28.04 28.04 0 0 1 2.271-1.988 26.76 26.76 0 0 1 2.271-1.48c.046-.029.08-.073.096-.125s.013-.108-.008-.158a.23.23 0 0 0-.267-.132c-.759.212-1.482.537-2.144.964a16.64 16.64 0 0 0-2.127 1.463 22.55 22.55 0 0 0-3.803 3.984 16.23 16.23 0 0 0-2.178 4.229l-1.837 4.736a13.23 13.23 0 0 1-2.977 4.229c-.179.161 0 .516.247.423l.009-.009zm114.749-51.813a2.79 2.79 0 0 0 .222-.22c.058-.07.112-.143.161-.22.128-.161.281-.305.409-.457a3.33 3.33 0 0 0 .646-1.193 2.88 2.88 0 0 0 .111-.651c.008-.104.008-.209 0-.313a2.39 2.39 0 0 0-.077-.355c0-.178-.119-.457-.357-.389s-.204.389-.23.575l.043-.152c-.067.141-.104.293-.111.448 0 .152-.068.313-.11.465a3.74 3.74 0 0 1-.341.846c-.272.465-1.012 1.032-.629 1.616a.17.17 0 0 0 .06.043c.022.01.047.015.072.015s.049-.005.072-.015.043-.024.059-.043zm2.952 9.642a1.97 1.97 0 0 0 .638-.22l.579-.305 1.106-.685a10.65 10.65 0 0 0 1.055-.761c.17-.135.323-.296.476-.44a1.34 1.34 0 0 0 .391-.541c0-.144-.068-.33-.229-.313a1.2 1.2 0 0 0-.536.254l-.528.372-1.021.753-1.037.668-.57.33c-.199.096-.38.225-.536.381-.039.043-.065.096-.074.152s-.003.115.019.168.059.099.106.132a.31.31 0 0 0 .161.055z"/></g><path d="M152.512 39.422l12.02-5.92c.202-.1.356-.275.427-.488a.84.84 0 0 0-.044-.645l-10.208-20.451c-.098-.193-.266-.342-.47-.416s-.428-.067-.628.018l-13.083 5.608c-.108.047-.205.115-.285.201s-.14.187-.179.298a.84.84 0 0 0-.043.344c.009.117.043.23.098.333l11.306 20.764a.85.85 0 0 0 .475.387c.202.066.42.054.614-.032z" fill="#667770"/><path d="M152.682 37.046l9.8-4.83c.202-.1.355-.275.427-.488a.84.84 0 0 0-.044-.645l-8.456-16.916a.85.85 0 0 0-.466-.412c-.202-.074-.425-.069-.623.014l-10.71 4.593a.84.84 0 0 0-.284.201.85.85 0 0 0-.18.298c-.038.11-.053.228-.043.344s.043.23.098.333l9.358 17.136a.85.85 0 0 0 .486.412c.209.069.438.055.637-.04z" fill="#00b28c"/><path d="M15.755 68.67a9.3 9.3 0 0 1 .978 1.531c.266.566.471 1.159.613 1.768.145.623.238 1.257.281 1.895l.043.998v.448a1.68 1.68 0 0 0 .136.457c.018.059.055.11.105.147a.29.29 0 0 0 .344 0c.05-.037.086-.088.105-.147a2.74 2.74 0 0 0 .102-.457v-.508c0-.355-.06-.71-.085-1.057a15.02 15.02 0 0 0-.306-2.148 6.07 6.07 0 0 0-.791-1.835 3.1 3.1 0 0 0-1.37-1.252c-.102 0-.213.102-.153.195v-.034z" fill="#343b38"/></g><defs><clipPath id="A"><path fill="#fff" d="M0 0h165v129H0z"/></clipPath></defs></svg>