<svg width="403" height="309" viewBox="0 0 403 309" fill="none" xmlns="http://www.w3.org/2000/svg">
<g clip-path="url(#clip0)">
<path d="M381.503 308.073H9.64941L23.2366 44.7977L374.765 47.3913L381.503 308.073Z" fill="#FFE87B"/>
<path d="M132.053 282.281L44.3431 280.972L45.2936 274.534L132.053 272.451V282.281Z" fill="#8A9990"/>
<path d="M46.4138 308.073H41.3218L43.2228 262.076C43.2316 261.904 43.2923 261.739 43.3969 261.603C43.5014 261.466 43.645 261.364 43.8084 261.311L45.2936 260.818C45.4244 260.775 45.5637 260.765 45.6994 260.788C45.8352 260.811 45.9633 260.866 46.0727 260.95C46.1821 261.034 46.2696 261.143 46.3275 261.268C46.3855 261.393 46.4122 261.53 46.4054 261.668L46.4138 308.073Z" fill="#FFFAEB"/>
<path d="M129.516 308.073H134.608L132.741 262.825C132.733 262.635 132.662 262.453 132.539 262.308C132.416 262.163 132.248 262.063 132.062 262.025L130.543 261.711C130.418 261.685 130.289 261.688 130.166 261.719C130.042 261.75 129.927 261.809 129.829 261.891C129.732 261.972 129.653 262.075 129.601 262.191C129.548 262.307 129.522 262.434 129.524 262.561L129.516 308.073Z" fill="#FFFAEB"/>
<path d="M130.543 284.866L45.4803 282.851L44.9117 279.45H129.516L130.543 284.866Z" fill="#FFFAEB"/>
<path d="M130.543 294.187L45.4379 294.501L45.9725 292.069L130.925 290.598L130.543 294.187Z" fill="#FFFAEB"/>
<path d="M165.05 224.269H63.871L62.3689 112.589L163.539 109.281L165.05 224.269Z" fill="#D5E3F9"/>
<path d="M88.2958 224.515H63.6249V112.828L96.8843 111.458L83.7893 170.126L88.2958 224.515Z" fill="#FFFAEB"/>
<mask id="mask0" style="mask-type:alpha" maskUnits="userSpaceOnUse" x="63" y="111" width="34" height="114">
<path d="M88.2958 224.516H63.625V112.828L96.8844 111.458L83.7894 170.126L88.2958 224.516Z" fill="#FFFAEB"/>
</mask>
<g mask="url(#mask0)">
<g opacity="0.5">
<path opacity="0.5" d="M62.3604 226.097H66.6377L66.6377 109.111H62.3604L62.3604 226.097Z" fill="#FF886D"/>
</g>
<g opacity="0.5">
<path opacity="0.5" d="M73.1215 108.321H78.2984L78.1117 225.306H74.8189L73.1215 108.321Z" fill="#FF886D"/>
</g>
<g opacity="0.5">
<path opacity="0.5" d="M85.3763 109.12H88.8559L89.6536 226.097H85.3763V109.12Z" fill="#FF886D"/>
</g>
<g opacity="0.5">
<path opacity="0.5" d="M99.9226 118.321V123.678H52.6346V120.779L99.9226 118.321Z" fill="#FF886D"/>
</g>
<g opacity="0.5">
<path opacity="0.5" d="M99.9226 130.923V135.209L52.6346 136.459V130.923H99.9226Z" fill="#FF886D"/>
</g>
<g opacity="0.5">
<path opacity="0.5" d="M100.05 142.327V146.613H52.7619V144.087L100.05 142.327Z" fill="#FF886D"/>
</g>
<g opacity="0.5">
<path opacity="0.5" d="M100.423 154.147V158.433L53.1353 159.36V153.059L100.423 154.147Z" fill="#FF886D"/>
</g>
<g opacity="0.5">
<path opacity="0.5" d="M99.5492 165.848V170.126L52.2612 169.411V166.835L99.5492 165.848Z" fill="#FF886D"/>
</g>
<g opacity="0.5">
<path opacity="0.5" d="M99.9226 177.09V182.346L50.6317 181.504L52.6346 178.06L99.9226 177.09Z" fill="#FF886D"/>
</g>
<g opacity="0.5">
<path opacity="0.5" d="M101.051 188.936L99.9226 194.353L52.6346 193.596V190.067L101.051 188.936Z" fill="#FF886D"/>
</g>
<g opacity="0.5">
<path opacity="0.5" d="M99.9226 202.253L99.2267 205.535L52.6346 206.539V200.714L99.9226 202.253Z" fill="#FF886D"/>
</g>
<g opacity="0.5">
<path opacity="0.5" d="M99.9226 212.245V216.531H52.6346V214.507L99.9226 212.245Z" fill="#FF886D"/>
</g>
</g>
<path d="M139.513 224.516H164.184V110.676L130.924 109.281L144.019 169.08L139.513 224.516Z" fill="#FFFAEB"/>
<mask id="mask1" style="mask-type:alpha" maskUnits="userSpaceOnUse" x="130" y="109" width="35" height="116">
<path d="M139.513 224.516H164.184V110.676L130.925 109.281L144.02 169.08L139.513 224.516Z" fill="#FFFAEB"/>
</mask>
<g mask="url(#mask1)">
<g opacity="0.5">
<path opacity="0.5" d="M165.448 106.892H161.171V226.131H165.448V106.892Z" fill="#FF886D"/>
</g>
<g opacity="0.5">
<path opacity="0.5" d="M154.696 106.084H149.51L149.706 225.323H152.998L154.696 106.084Z" fill="#FF886D"/>
</g>
<g opacity="0.5">
<path opacity="0.5" d="M142.432 106.892H138.953L138.155 226.131H142.432V106.892Z" fill="#FF886D"/>
</g>
<g opacity="0.5">
<path opacity="0.5" d="M127.25 117.632L127.7 120.557L175.174 121.731V116.246L127.25 117.632Z" fill="#FF886D"/>
</g>
<g opacity="0.5">
<path opacity="0.5" d="M128.26 130.226V133.883L175.565 132.879V127.233L128.26 130.226Z" fill="#FF886D"/>
</g>
<g opacity="0.5">
<path opacity="0.5" d="M127.886 139.546V145.235H175.174V142.574L127.886 139.546Z" fill="#FF886D"/>
</g>
<g opacity="0.5">
<path opacity="0.5" d="M127.386 152.795V157.157L174.674 158.11V151.69L127.386 152.795Z" fill="#FF886D"/>
</g>
<g opacity="0.5">
<path opacity="0.5" d="M128.26 164.717V169.08L175.548 168.348V165.721L128.26 164.717Z" fill="#FF886D"/>
</g>
<g opacity="0.5">
<path opacity="0.5" d="M127.886 176.18V181.529L177.169 180.67L175.174 177.167L127.886 176.18Z" fill="#FF886D"/>
</g>
<g opacity="0.5">
<path opacity="0.5" d="M126.758 188.247L127.886 193.766L175.174 193.001V189.404L126.758 188.247Z" fill="#FF886D"/>
</g>
<g opacity="0.5">
<path opacity="0.5" d="M127.886 201.828L128.582 205.17L175.174 206.19V200.254L127.886 201.828Z" fill="#FF886D"/>
</g>
<g opacity="0.5">
<path opacity="0.5" d="M127.886 212.007V216.377H175.174V214.32L127.886 212.007Z" fill="#FF886D"/>
</g>
</g>
<path d="M98.692 209.779C93.4981 207.414 93.9139 203.222 94.4486 201.751C94.715 200.979 95.1916 200.298 95.8246 199.784C96.4576 199.27 97.2216 198.944 98.03 198.843C98.5295 198.82 99.0284 198.9 99.4957 199.078C99.9629 199.257 100.388 199.53 100.746 199.88C101.306 197.797 102.85 197.329 104.709 197.55C105.309 197.607 105.874 197.859 106.319 198.267C106.763 198.675 107.062 199.218 107.17 199.812C108.435 197.797 111.787 198.843 112.661 199.914C114.986 202.746 114.774 207.508 108.952 209.872C105.906 211.105 100.678 210.68 98.692 209.779Z" fill="#00B28C"/>
<path d="M110.234 222.857L97.2068 222.398C97.0046 222.401 96.8081 222.331 96.6525 222.202C96.4969 222.073 96.3925 221.892 96.3582 221.692L94.2704 209.345C94.2492 209.222 94.2553 209.095 94.2884 208.975C94.3214 208.854 94.3806 208.743 94.4616 208.648C94.5426 208.553 94.6435 208.477 94.7572 208.425C94.8708 208.374 94.9944 208.348 95.1191 208.35L113.06 208.248C113.188 208.245 113.315 208.271 113.432 208.325C113.548 208.378 113.651 208.457 113.733 208.556C113.815 208.655 113.873 208.772 113.903 208.896C113.934 209.021 113.936 209.151 113.909 209.277L111.083 222.185C111.041 222.379 110.934 222.552 110.779 222.674C110.624 222.797 110.431 222.862 110.234 222.857Z" fill="#F3B131"/>
<path d="M106.084 196.649C105.976 196.594 105.857 196.566 105.736 196.566C105.615 196.566 105.496 196.594 105.388 196.649C105.235 196.266 105.006 195.977 104.735 195.96C104.5 195.972 104.275 196.062 104.097 196.216C103.919 196.37 103.797 196.579 103.75 196.81C103.568 196.708 103.358 196.665 103.15 196.686C102.942 196.707 102.746 196.792 102.587 196.929C102.256 197.295 102.528 198.264 103.19 198.792C103.407 198.964 103.656 199.092 103.923 199.167C104.189 199.242 104.468 199.263 104.743 199.229C105.018 199.195 105.283 199.106 105.524 198.968C105.764 198.831 105.975 198.646 106.143 198.426C106.259 198.307 106.349 198.166 106.409 198.011C106.469 197.856 106.497 197.691 106.491 197.525C106.486 197.359 106.447 197.196 106.377 197.045C106.307 196.895 106.207 196.76 106.084 196.649Z" fill="#FF6952"/>
<path d="M166.772 225.97L61.4523 227.135L61.8257 111.484L165.219 107.547L166.772 225.97ZM65.5514 222.568H163.327L161.867 111.033L64.0832 114.231L65.5514 222.568Z" fill="#5874DC"/>
<path d="M366.159 115.481L340.86 118.38V81.0916C340.86 80.9716 340.884 80.8528 340.933 80.743C340.981 80.6333 341.052 80.535 341.141 80.4547C341.23 80.3743 341.335 80.3138 341.449 80.277C341.563 80.2402 341.683 80.228 341.802 80.2412L365.336 82.9454C365.543 82.9705 365.734 83.071 365.871 83.2279C366.009 83.3847 366.084 83.5869 366.083 83.7958L366.159 115.481Z" fill="#FFFAEB"/>
<path d="M295.524 294.459H205.081L203.732 109.281L294.175 110.761L295.524 294.459Z" fill="#D5E3F9"/>
<path d="M333.63 298.005L297.094 296.151L295.711 109.086L328.495 109.281L333.63 298.005Z" fill="#5874DC"/>
<path d="M224.44 223.265L218.312 222.67L214.892 162.345L220.366 160.686L224.44 223.265Z" fill="#FF886D"/>
<path d="M294.192 118.576H203.732L203.791 109.281L294.022 111.645L294.192 118.576Z" fill="#FFFAEB"/>
<path d="M294.192 293.243H203.732L203.791 285.07L293.886 282.485L294.192 293.243Z" fill="#FFFAEB"/>
<path d="M297.23 296.159L201.381 297.307L201.984 107.555L295.821 109.094L297.23 296.159ZM206.762 292.758H293.81L292.486 112.479L205.438 111.05L206.762 292.758Z" fill="#5874DC"/>
<path d="M367.101 119.903L339.757 118.967C339.532 118.967 339.316 118.878 339.157 118.718C338.998 118.559 338.908 118.342 338.908 118.117V116.416C338.908 116.191 338.998 115.974 339.157 115.815C339.316 115.655 339.532 115.566 339.757 115.566L367.101 114.63C367.326 114.63 367.542 114.72 367.701 114.879C367.86 115.039 367.95 115.255 367.95 115.481V119.052C367.95 119.164 367.928 119.275 367.885 119.378C367.843 119.481 367.78 119.575 367.701 119.654C367.622 119.733 367.529 119.795 367.426 119.838C367.323 119.881 367.213 119.903 367.101 119.903Z" fill="#9AE2C6"/>
<path d="M351.596 130.957L350.747 118.84H356.213L356.476 130.532C356.477 130.743 356.401 130.946 356.261 131.103C356.122 131.26 355.929 131.36 355.721 131.383L352.563 131.723C352.449 131.739 352.333 131.733 352.222 131.703C352.11 131.673 352.006 131.62 351.915 131.549C351.825 131.477 351.75 131.388 351.695 131.286C351.64 131.184 351.606 131.073 351.596 130.957Z" fill="#9AE2C6"/>
<path d="M255.187 73.7189H203.732V99.5107H255.187V73.7189Z" fill="#FFFAEB"/>
<path d="M256.027 100.344H202.883V72.8685H256.027V100.344ZM204.581 98.6433H254.33V74.5692H204.581V98.6433Z" fill="#9AE2C6"/>
<path d="M389.854 306.704H323.844L325.729 248.309H389.854V306.704Z" fill="#FFF5D9"/>
<path d="M381.503 279.45C381.538 281.344 381.159 283.223 380.392 284.956C379.625 286.688 378.49 288.231 377.065 289.477C375.64 290.723 373.961 291.642 372.144 292.169C370.328 292.696 368.418 292.819 366.55 292.528C358.368 291.414 350.815 283.94 350.815 275.665C350.831 273.714 351.271 271.789 352.106 270.025C352.94 268.261 354.148 266.701 355.647 265.454C357.145 264.206 358.896 263.301 360.779 262.801C362.662 262.302 364.632 262.22 366.55 262.561C376.275 264.33 381.503 271.175 381.503 279.45Z" fill="#A9B5AF"/>
<path d="M320.45 308.073H314.102L314.67 243.258H322.215L320.45 308.073Z" fill="#55625D"/>
<path d="M399.41 308.073H392.12L393.503 243.793L397.899 243.258L399.41 308.073Z" fill="#55625D"/>
<path d="M397.891 250.188H314.781C314.736 250.188 314.692 250.17 314.661 250.138C314.629 250.107 314.611 250.063 314.611 250.018L314.67 241.072C314.669 241.05 314.673 241.027 314.681 241.006C314.689 240.985 314.701 240.965 314.717 240.949C314.733 240.933 314.753 240.921 314.774 240.913C314.795 240.905 314.817 240.901 314.84 240.902L397.738 243.258C397.76 243.257 397.781 243.26 397.801 243.268C397.822 243.275 397.84 243.287 397.855 243.302C397.87 243.318 397.882 243.336 397.89 243.356C397.897 243.376 397.901 243.398 397.9 243.419L398.027 250.01C398.03 250.051 398.017 250.092 397.992 250.125C397.967 250.157 397.931 250.18 397.891 250.188Z" fill="#8A9990"/>
<path d="M398.146 261.277L314.679 261.149C314.657 261.15 314.635 261.145 314.615 261.136C314.595 261.128 314.577 261.115 314.562 261.099C314.547 261.083 314.535 261.064 314.527 261.044C314.52 261.023 314.516 261.001 314.518 260.979V256.728C314.516 256.706 314.52 256.684 314.527 256.663C314.535 256.643 314.547 256.624 314.562 256.608C314.577 256.592 314.595 256.579 314.615 256.571C314.635 256.562 314.657 256.557 314.679 256.557L398.027 254.338C398.073 254.338 398.117 254.356 398.15 254.387C398.183 254.419 398.203 254.462 398.205 254.508L398.358 261.098C398.358 261.125 398.353 261.151 398.342 261.176C398.331 261.2 398.315 261.221 398.294 261.238C398.274 261.256 398.25 261.268 398.224 261.275C398.199 261.281 398.172 261.282 398.146 261.277Z" fill="#8A9990"/>
<path d="M398.409 272.272L314.577 273.82C314.532 273.82 314.489 273.802 314.457 273.77C314.425 273.738 314.407 273.695 314.407 273.65L314.475 265.64C314.475 265.594 314.493 265.551 314.525 265.519C314.557 265.487 314.6 265.469 314.645 265.469H398.247C398.292 265.469 398.336 265.487 398.368 265.519C398.399 265.551 398.417 265.594 398.417 265.64L398.57 272.136C398.561 272.173 398.541 272.206 398.512 272.231C398.483 272.255 398.447 272.27 398.409 272.272Z" fill="#8A9990"/>
<path d="M398.731 286.661L314.484 282.962C314.462 282.962 314.44 282.957 314.42 282.949C314.4 282.94 314.382 282.927 314.366 282.911C314.351 282.895 314.34 282.877 314.332 282.856C314.325 282.835 314.321 282.813 314.322 282.791V278.676C314.322 278.631 314.34 278.587 314.372 278.555C314.404 278.524 314.447 278.506 314.492 278.506L398.511 277.324C398.556 277.324 398.599 277.342 398.631 277.373C398.662 277.405 398.68 277.449 398.68 277.494L398.876 286.491C398.876 286.532 398.862 286.571 398.835 286.603C398.809 286.634 398.772 286.655 398.731 286.661Z" fill="#8A9990"/>
<path d="M399.02 299.144L314.373 295.845C314.329 295.841 314.288 295.82 314.258 295.787C314.228 295.754 314.212 295.711 314.212 295.666L314.254 290.19C314.259 290.145 314.279 290.104 314.312 290.074C314.345 290.044 314.388 290.028 314.433 290.028L398.875 291.142C398.92 291.142 398.964 291.16 398.995 291.192C399.027 291.224 399.045 291.267 399.045 291.312L399.223 298.966C399.224 298.991 399.218 299.017 399.208 299.04C399.197 299.064 399.182 299.085 399.163 299.102C399.143 299.119 399.12 299.131 399.096 299.139C399.071 299.146 399.045 299.148 399.02 299.144Z" fill="#8A9990"/>
<path d="M399.41 308.073H314.271C314.226 308.073 314.183 308.055 314.151 308.023C314.12 307.991 314.102 307.948 314.102 307.903L314.161 301.245C314.16 301.221 314.163 301.198 314.172 301.176C314.181 301.154 314.194 301.134 314.211 301.118C314.228 301.102 314.248 301.09 314.27 301.082C314.292 301.075 314.316 301.072 314.339 301.075L399.139 303.481C399.182 303.483 399.222 303.5 399.254 303.53C399.285 303.56 399.304 303.6 399.308 303.643L399.41 308.073Z" fill="#8A9990"/>
<path d="M71.212 96.2538L46.4138 97.2147C45.9216 97.2147 45.5058 97.0021 45.5058 96.7045V88.4388L71.1017 87.4439C71.5939 87.4439 72.0098 87.6565 72.0098 87.9541V95.7265C72.0098 96.0157 71.6618 96.2368 71.212 96.2538Z" fill="#FFF5D9"/>
<path d="M54.4932 91.9338L31.333 91.4576C30.8747 91.4576 30.4843 91.2195 30.4843 90.9389V83.6852C30.4843 83.3961 30.8832 83.158 31.333 83.1665L55.2315 83.6512C55.7068 83.6512 56.0802 83.9063 56.0802 84.1954L55.3334 91.4491C55.3419 91.7297 54.9515 91.9423 54.4932 91.9338Z" fill="#FFCC1C"/>
<path d="M378.049 206.641L352.937 205.637C352.47 205.637 352.088 205.365 352.139 205.067L352.886 197.992C352.886 197.72 353.268 197.499 353.735 197.491L377.828 196.989C378.278 196.989 378.677 197.184 378.677 197.465L378.957 206.045C379.008 206.343 378.575 206.641 378.049 206.641Z" fill="#FFF5D9"/>
<path d="M79.181 252.008L53.6021 251.557C53.1693 251.557 52.8128 251.345 52.7534 251.098L52.0066 243.768C52.0066 243.479 52.397 243.241 52.9062 243.258L77.7383 244.168C78.1457 244.168 78.4766 244.363 78.5276 244.593L80.0212 251.464C80.1146 251.761 79.7072 252.017 79.181 252.008Z" fill="#FFF5D9"/>
<path d="M93.3539 256.625L67.8937 256.175C67.4185 256.175 67.045 255.928 67.045 255.656L67.8428 248.811L92.6579 248.343C93.1247 248.343 93.5066 248.538 93.5066 248.802L94.2534 256.115C94.2959 256.396 93.8885 256.634 93.3539 256.625Z" fill="#FFCC1C"/>
<path d="M4.40462 63.5654L396.975 66.6098C397.499 66.6063 398.01 66.4405 398.437 66.1351C398.864 65.8296 399.187 65.3994 399.36 64.9033C399.534 64.4072 399.55 63.8694 399.408 63.3635C399.265 62.8577 398.969 62.4084 398.562 62.0773L345.876 17.6878L36.7814 27.6287L2.74123 59.101C2.35466 59.4425 2.08065 59.8936 1.95543 60.3946C1.83021 60.8956 1.85969 61.4228 2.03995 61.9067C2.22022 62.3905 2.54279 62.8081 2.96501 63.1043C3.38724 63.4005 3.88923 63.5613 4.40462 63.5654Z" fill="#5874DC"/>
<path d="M52.9656 40.5883H38.343L35.746 18.8783C35.7037 18.4944 35.7489 18.1059 35.8783 17.742C36.0077 17.3782 36.2178 17.0485 36.4929 16.7779L43.7914 9.35413C44.2188 8.92161 44.7865 8.65646 45.3919 8.60655C45.9973 8.55665 46.6006 8.72529 47.0928 9.08201L54.7308 14.6434C55.1039 14.9056 55.3999 15.2632 55.5879 15.679C55.776 16.0948 55.8493 16.5536 55.8001 17.0075L52.9656 40.5883Z" fill="#5874DC"/>
<path d="M341.836 31.974L331.576 30.758C330.983 30.6894 330.433 30.4143 330.022 29.9806C329.611 29.547 329.365 28.9824 329.327 28.3855L327.961 6.58191C327.927 6.0946 328.034 5.60799 328.269 5.17988C328.504 4.75177 328.856 4.40017 329.284 4.16685L336.583 0.297656C337.02 0.0652896 337.516 -0.0343332 338.009 0.0109756C338.501 0.0562843 338.97 0.24456 339.358 0.552767L346.716 6.41184C347.064 6.6897 347.334 7.05422 347.498 7.46903C347.662 7.88384 347.714 8.33444 347.65 8.77587L344.628 29.8056C344.533 30.4588 344.189 31.0496 343.669 31.454C343.148 31.8583 342.491 32.0448 341.836 31.974Z" fill="#5874DC"/>
<path d="M8.90256 53.4885C7.62836 53.066 6.25584 53.0432 4.96835 53.4231C3.68086 53.803 2.53971 54.5675 1.69734 55.6144C1.07288e-06 57.8254 0.712885 61.8136 3.0043 63.3443C4.70164 64.4923 7.76534 64.4583 9.65788 63.5994C12.3397 62.3664 12.798 60.1384 12.8064 58.1485C12.8234 56.3457 11.0327 54.1518 8.90256 53.4885Z" fill="#7393ED"/>
<path d="M44.3855 53.6501C43.1149 53.2255 41.7451 53.2008 40.46 53.5794C39.175 53.9579 38.0364 54.7215 37.1973 55.7675C35.4999 57.9444 36.2043 61.9752 38.4873 63.4974C40.2185 64.6284 43.2822 64.6284 45.1408 63.778C47.8226 62.5535 48.2809 60.3255 48.2979 58.3271C48.3064 56.5073 46.5157 54.3048 44.3855 53.6501Z" fill="#7393ED"/>
<path d="M79.8685 53.4885C78.5968 53.0673 77.2271 53.0453 75.9426 53.4252C74.658 53.8051 73.5198 54.5689 72.6802 55.6144C70.9829 57.7914 71.6873 61.8136 73.9702 63.3443C75.6675 64.4923 78.7312 64.4583 80.6238 63.5994C83.3141 62.3664 83.7639 60.1384 83.7808 58.1485C83.7893 56.3457 81.9986 54.1518 79.8685 53.4885Z" fill="#7393ED"/>
<path d="M115.351 53.7436C114.08 53.3187 112.709 53.2948 111.424 53.6749C110.139 54.0551 109 54.821 108.163 55.8695C106.466 58.0465 107.17 62.0687 109.453 63.5909C111.15 64.7474 114.214 64.7134 116.107 63.846C118.797 62.6215 119.247 60.3935 119.264 58.3951C119.272 56.6008 117.482 54.4239 115.351 53.7436Z" fill="#7393ED"/>
<path d="M150.834 54.2453C149.563 53.8229 148.193 53.8002 146.908 54.1802C145.623 54.5602 144.485 55.3247 143.646 56.3712C141.949 58.5482 142.653 62.5704 144.936 64.1011C146.633 65.2491 149.697 65.2151 151.59 64.3477C154.28 63.1232 154.73 60.8952 154.747 58.8968C154.755 57.1025 152.965 54.9086 150.834 54.2453Z" fill="#7393ED"/>
<path d="M186.326 54.2453C185.053 53.8222 183.682 53.7992 182.395 54.1791C181.109 54.5591 179.969 55.324 179.129 56.3712C177.432 58.5482 178.136 62.5704 180.419 64.1011C182.116 65.2491 185.189 65.2151 187.073 64.3477C189.763 63.1232 190.213 60.8952 190.23 58.8968C190.238 57.1025 188.456 54.9086 186.326 54.2453Z" fill="#7393ED"/>
<path d="M221.809 54.9256C220.536 54.5038 219.165 54.4814 217.879 54.8613C216.593 55.2411 215.453 56.0053 214.612 57.0516C212.915 59.2285 213.619 63.2593 215.902 64.7815C217.599 65.9295 220.671 65.8954 222.556 65.0366C225.246 63.8035 225.696 61.584 225.713 59.5857C225.747 57.8254 223.939 55.5889 221.809 54.9256Z" fill="#7393ED"/>
<path d="M257.292 54.9256C256.019 54.505 254.648 54.4832 253.362 54.863C252.076 55.2428 250.937 56.0062 250.095 57.0515C248.398 59.2285 249.102 63.2593 251.385 64.7814C253.082 65.9294 256.154 65.8954 258.039 65.0366C260.729 63.8035 261.179 61.584 261.196 59.5857C261.204 57.8254 259.422 55.5889 257.292 54.9256Z" fill="#7393ED"/>
<path d="M292.792 55.3168C291.519 54.8937 290.147 54.8706 288.861 55.2506C287.575 55.6306 286.435 56.3954 285.595 57.4427C283.897 59.6196 284.602 63.6419 286.893 65.1641C288.591 66.3206 291.654 66.2866 293.538 65.4192C296.229 64.1946 296.687 61.9667 296.695 59.9683C296.695 58.174 294.905 55.9715 292.792 55.3168Z" fill="#7393ED"/>
<path d="M328.258 55.3168C326.985 54.8937 325.613 54.8706 324.327 55.2506C323.041 55.6306 321.901 56.3954 321.061 57.4427C319.363 59.6196 320.068 63.6419 322.359 65.1641C324.057 66.3206 327.12 66.2866 329.004 65.4192C331.695 64.1946 332.153 61.9667 332.161 59.9683C332.178 58.174 330.388 55.9715 328.258 55.3168Z" fill="#7393ED"/>
<path d="M363.741 55.7675C362.467 55.3469 361.097 55.325 359.811 55.7049C358.525 56.0847 357.386 56.8481 356.544 57.8934C354.846 60.0704 355.551 64.1011 357.842 65.6233C359.54 66.7713 362.603 66.7373 364.496 65.8784C367.178 64.6454 367.636 62.4174 367.644 60.4275C367.661 58.6757 365.871 56.4308 363.741 55.7675Z" fill="#7393ED"/>
<path d="M398.468 55.8695C397.191 55.4389 395.812 55.4118 394.519 55.7921C393.225 56.1723 392.08 56.9415 391.237 57.9955C389.54 60.1724 390.244 64.1947 392.536 65.7169C394.233 66.8734 397.297 66.8394 399.189 65.972C401.871 64.7474 402.33 62.5195 402.338 60.5211C402.389 58.7268 400.573 56.5243 398.468 55.8695Z" fill="#7393ED"/>
<path d="M220.06 88.8895C220.06 88.2857 220.417 88.0391 221.079 88.0391C221.741 88.0391 221.927 88.2942 221.927 88.796V89.0936C221.851 91.3726 219.84 92.9628 216.547 92.9628C212.388 92.9628 210.903 90.4117 210.903 87.5034V84.7822C210.903 81.8654 212.354 79.3228 216.683 79.3228C219.662 79.3228 221.834 80.777 221.834 83.2685V83.5407C221.834 83.9659 221.664 84.391 220.909 84.391C220.154 84.391 219.899 83.9659 219.899 83.5407V83.209C219.899 82.1971 218.541 81.1086 216.751 81.1086C214.264 81.1086 212.796 82.4607 212.796 85.1819V87.1377C212.796 89.8504 214.196 91.2025 216.674 91.2025C218.499 91.2025 219.882 90.2756 219.993 89.1191L220.06 88.8895Z" fill="#FF6952"/>
<path d="M231.5 86.517V92.138C231.5 92.7162 231.254 92.9883 230.575 92.9883C229.897 92.9883 229.659 92.7162 229.659 92.138V91.8403C229.276 92.2266 228.815 92.5265 228.307 92.7201C227.8 92.9136 227.256 92.9964 226.714 92.9628C224.796 92.9628 223.192 92.3505 223.065 90.2161C222.954 88.3538 224.058 87.5629 225.806 87.1718L229.659 86.3214C229.616 85.1054 229.268 84.4251 227.486 84.3826C226.01 84.3826 225.237 85.0714 225.237 85.5816V85.7176C225.237 86.0408 224.889 86.3214 224.295 86.3044C223.701 86.2874 223.396 86.0408 223.396 85.6071V85.3435C223.396 83.6427 225.093 82.6648 227.537 82.6648C230.923 82.6733 231.5 84.4081 231.5 86.517ZM229.659 88.728V88.0222L226.069 88.8725C225.743 88.9157 225.445 89.0756 225.228 89.3226C225.011 89.5697 224.891 89.8871 224.889 90.2161C224.889 91.0665 225.696 91.3216 226.731 91.2706C228.199 91.177 229.659 90.5137 229.659 88.728Z" fill="#FF6952"/>
<path d="M237.042 81.032C236.482 81.032 235.973 81.2786 235.973 81.976V82.8263H237.552C238.086 82.8263 238.324 83.0814 238.324 83.6767C238.324 84.272 238.086 84.5271 237.552 84.5271H235.973V92.0869C235.973 92.6566 235.71 92.9373 235.048 92.9373C234.386 92.9373 234.114 92.6566 234.114 92.0869V84.5781H233.452C232.918 84.5781 232.68 84.323 232.68 83.7277C232.68 83.1325 232.918 82.8774 233.452 82.8774H234.114V81.9079C234.114 80.2072 235.175 79.2803 237.042 79.2803H237.704C238.256 79.2803 238.553 79.5269 238.553 80.1306C238.553 80.7344 238.264 80.981 237.704 80.981L237.042 81.032Z" fill="#FF6952"/>
<path d="M238.859 86.7891C238.859 84.5951 240.191 82.6733 243.263 82.6733C245.733 82.6733 247.388 84.1699 247.388 86.602V87.5884C247.388 88.2687 247.091 88.4898 246.497 88.4898H240.7V88.5409C240.7 90.114 241.294 91.16 243.153 91.1855C244.443 91.1855 245.393 90.7178 245.393 90.0205V89.8759C245.393 89.3572 245.911 89.2637 246.352 89.2637C246.794 89.2637 247.201 89.4337 247.201 90.0035V90.0545C247.201 91.8998 245.504 92.9713 243.025 92.9713C240.115 92.9713 238.825 91.075 238.825 88.915L238.859 86.7891ZM240.726 86.7891H245.673V86.3129C245.673 85.3009 244.825 84.4336 243.263 84.4336C242.941 84.3919 242.614 84.4203 242.304 84.5168C241.994 84.6134 241.709 84.7757 241.467 84.9928C241.225 85.2099 241.033 85.4767 240.904 85.7749C240.774 86.0732 240.711 86.3959 240.717 86.7211L240.726 86.7891Z" fill="#FF6952"/>
<path d="M8.6225 54.0242C8.94743 53.89 9.23764 53.6836 9.47117 53.4204L10.2095 52.7741C10.7357 52.3149 11.2534 51.8387 11.7711 51.3625C12.8065 50.4214 13.8333 49.469 14.8517 48.5053L17.9239 45.631C18.4247 45.1633 18.9084 44.6956 19.4091 44.2364C19.9483 43.7994 20.4507 43.3187 20.9113 42.7993C21.1234 42.5441 20.9113 42.119 20.5378 42.3145C19.9983 42.6796 19.4901 43.0892 19.0187 43.5391L17.4062 44.9082L14.2152 47.6209L11.0327 50.4101C10.5235 50.8608 10.0058 51.2605 9.50512 51.7537L8.76678 52.417C8.50369 52.6466 8.13876 52.8762 8.00297 53.2078C7.93966 53.3034 7.90708 53.4161 7.90962 53.5307C7.91217 53.6454 7.94971 53.7565 8.0172 53.8492C8.08469 53.9418 8.17889 54.0115 8.28711 54.0489C8.39533 54.0863 8.51238 54.0895 8.6225 54.0582V54.0242Z" fill="#343B38"/>
<path d="M10.9733 54.6195C10.6254 53.531 8.97895 53.0548 7.96055 52.9187C6.68784 52.7688 5.39788 52.8905 4.17547 53.2759C2.83381 53.5799 1.6501 54.3666 0.848681 55.4868C0.184271 56.5147 -0.114734 57.7371 9.82173e-06 58.9564C0.168397 60.2197 0.69784 61.4072 1.52452 62.3759C2.3512 63.3446 3.43984 64.053 4.65921 64.4158C7.26464 65.2661 10.7527 64.875 12.5603 62.613C13.5145 61.532 14.0027 60.1164 13.9182 58.6757C13.7739 57.3236 13.0695 55.8185 11.7286 55.3338C11.2873 55.1722 10.9988 55.776 11.2873 56.0821C12.0586 56.7363 12.5803 57.6376 12.764 58.6332C12.8192 59.1328 12.7725 59.6385 12.6266 60.1195C12.4807 60.6004 12.2387 61.0466 11.9154 61.4309C11.1453 62.2737 10.1623 62.8924 9.07037 63.2217C7.9784 63.551 6.81793 63.5787 5.71157 63.3018C4.69411 63.1259 3.74704 62.6653 2.97968 61.9732C2.21232 61.281 1.65597 60.3855 1.37486 59.3901C1.18927 58.4858 1.30247 57.5455 1.69735 56.7114C1.92314 56.2361 2.24138 55.8107 2.6334 55.4602C3.02542 55.1098 3.48333 54.8413 3.98028 54.6705C5.0619 54.2483 6.21422 54.0375 7.37496 54.0497C7.95046 54.0627 8.5215 54.1542 9.0723 54.3218C9.57156 54.5753 10.0876 54.7941 10.6169 54.9766C10.666 54.988 10.7172 54.9867 10.7657 54.9728C10.8142 54.9589 10.8583 54.9329 10.894 54.8971C10.9297 54.8614 10.9557 54.8172 10.9695 54.7686C10.9834 54.72 10.9847 54.6687 10.9733 54.6195Z" fill="#343B38"/>
<path d="M42.9173 52.8677C41.6967 52.5854 40.418 52.7016 39.268 53.1993C38.1105 53.6107 37.0986 54.3527 36.3571 55.3338C35.6458 56.3066 35.249 57.4745 35.2202 58.6802C35.1914 59.8858 35.5319 61.0714 36.1958 62.0772C37.0606 63.2086 38.2271 64.0716 39.5607 64.5667C40.8943 65.0618 42.3404 65.1687 43.732 64.875C46.3375 64.3477 48.7562 62.5109 49.2484 59.7727C49.3894 59.0673 49.3846 58.3404 49.2342 57.6368C49.0839 56.9333 48.7912 56.2682 48.3743 55.6824C47.9229 55.0394 47.3796 54.4663 46.7618 53.9817C46.4733 53.7473 46.1603 53.5449 45.8283 53.3779C45.4874 53.1885 45.0918 53.1225 44.708 53.1908C44.3176 53.2419 44.2837 53.7521 44.4958 53.9902C44.8932 54.3574 45.3318 54.677 45.8028 54.9426C46.2541 55.2824 46.6593 55.6797 47.0079 56.1246C47.6958 56.893 48.0739 57.8902 48.0688 58.9224C48.0009 61.1503 46.1847 62.7916 44.1818 63.4123C43.0362 63.7799 41.8119 63.826 40.642 63.5457C39.472 63.2653 38.401 62.6693 37.5452 61.8221C36.9092 61.0994 36.5129 60.1966 36.4111 59.2384C36.3092 58.2803 36.5068 57.3141 36.9766 56.4733C37.5487 55.4944 38.4165 54.7231 39.4547 54.2708C40.5814 53.8849 41.7402 53.6003 42.9173 53.4204C42.9743 53.4026 43.0241 53.367 43.0595 53.3188C43.0948 53.2706 43.1139 53.2124 43.1139 53.1526C43.1139 53.0928 43.0948 53.0345 43.0595 52.9863C43.0241 52.9381 42.9743 52.9025 42.9173 52.8847V52.8677Z" fill="#343B38"/>
<path d="M36.7899 55.6994C37.3585 55.9886 37.9865 54.9681 38.2921 54.6195C38.8295 54.0072 39.3614 53.3751 39.8876 52.7231C40.9484 51.4391 42.0007 50.172 43.0361 48.8454L46.0829 44.9847L47.5935 43.0544L48.3573 42.0935C48.6062 41.7619 48.8303 41.4123 49.0277 41.0475C49.2314 40.6989 48.7816 40.3927 48.4931 40.6308C48.163 40.8927 47.8511 41.1768 47.5595 41.4812L46.6769 42.5187C46.1507 43.1394 45.6331 43.7687 45.1154 44.4065C44.08 45.6735 43.0701 46.9576 42.0517 48.2332C41.0333 49.5087 40.0233 50.7843 39.0049 52.0939L37.4773 54.0157C37.2906 54.2623 36.1874 55.3678 36.7729 55.6654L36.7899 55.6994Z" fill="#343B38"/>
<path d="M72.5614 56.5073C73.4101 55.5719 74.0381 54.4749 74.7849 53.4715C75.5317 52.4681 76.4228 51.286 77.2291 50.1721C78.9264 47.9611 80.6238 45.7501 82.041 43.3691C82.8516 42.0961 83.5285 40.7424 84.0609 39.3298C84.1882 38.9896 83.6705 38.7941 83.4923 39.0917C82.1089 41.3877 80.7001 43.6497 79.1216 45.8181C77.5431 47.9866 75.8373 50.1806 74.2502 52.3915C73.3524 53.5076 72.5757 54.7162 71.9334 55.9971C71.7806 56.3628 72.2304 56.8475 72.5444 56.4648L72.5614 56.5073Z" fill="#343B38"/>
<path d="M75.5742 53.3524C74.3921 53.5994 73.3176 54.2127 72.5028 55.1055C71.6879 55.9983 71.174 57.1254 71.0338 58.3271C71.0137 59.447 71.2795 60.5534 71.8061 61.5415C72.3527 62.4937 73.1595 63.2697 74.1314 63.778C75.1772 64.343 76.3421 64.6508 77.5299 64.6759C78.7178 64.7011 79.8946 64.4428 80.9632 63.9225C83.1104 62.9191 85.2066 60.9377 84.8586 58.3781C84.6712 57.0168 83.9807 55.7756 82.9237 54.9001C82.4129 54.4553 81.8414 54.0859 81.2263 53.8031C80.6058 53.4657 79.9023 53.3123 79.198 53.3609C79.1297 53.3816 79.0679 53.4195 79.0185 53.4711C78.9691 53.5226 78.9338 53.586 78.9159 53.6552C78.898 53.7243 78.8981 53.7969 78.9163 53.866C78.9345 53.9351 78.9701 53.9984 79.0198 54.0497C79.4066 54.3381 79.8324 54.5701 80.2843 54.7385C80.7774 54.9664 81.2513 55.2337 81.7016 55.5378C82.5072 56.094 83.1116 56.8965 83.4244 57.8254C83.5868 58.2664 83.6483 58.7384 83.6042 59.2065C83.5601 59.6745 83.4117 60.1267 83.1698 60.5295C82.6056 61.3637 81.8409 62.0422 80.9463 62.5024C80.1165 62.9876 79.1889 63.2806 78.2315 63.3601C77.2741 63.4395 76.311 63.3034 75.4129 62.9616C74.5898 62.6591 73.8528 62.16 73.2658 61.5075C72.7311 60.8278 72.3777 60.0231 72.2389 59.1689C72.1434 58.6209 72.1699 58.0585 72.3167 57.5219C72.4634 56.9853 72.7266 56.4878 73.0876 56.0651C73.8803 55.2052 74.813 54.4864 75.8457 53.9391C75.9095 53.898 75.9567 53.8357 75.9791 53.7631C76.0016 53.6905 75.9978 53.6123 75.9684 53.5423C75.939 53.4723 75.8859 53.4148 75.8185 53.3801C75.7511 53.3454 75.6736 53.3356 75.5996 53.3524H75.5742Z" fill="#343B38"/>
<path d="M14.8348 62.3238C15.5901 62.1028 16.3454 61.9667 17.1092 61.7626C17.873 61.5585 18.6029 61.3119 19.3412 61.0653C20.8349 60.5551 22.3201 60.0193 23.8137 59.5091C24.5122 59.2546 25.2678 59.2016 25.9948 59.356C26.7332 59.5091 27.463 59.6962 28.1929 59.9088C29.6441 60.334 31.0784 60.8527 32.4872 61.3969C34.0827 62.0177 35.6527 62.732 37.2567 63.3103C37.8253 63.5144 38.2242 62.5875 37.6725 62.3324C34.8446 61.0143 31.9193 59.9169 28.9227 59.0499C28.1759 58.8288 27.4291 58.6247 26.6653 58.4462C25.9301 58.2328 25.1601 58.1663 24.3993 58.2506C23.6538 58.4012 22.9237 58.6204 22.2182 58.9053C21.4205 59.1775 20.6397 59.4751 19.8504 59.7557C19.0612 60.0363 18.1531 60.368 17.3044 60.6996C16.4558 61.0313 15.6071 61.55 14.682 61.8902C14.4274 61.9922 14.5208 62.4004 14.8009 62.3153L14.8348 62.3238Z" fill="#343B38"/>
<path d="M370.301 64.7474C371.107 64.3903 371.939 64.1437 372.753 63.812C373.568 63.4804 374.222 63.1572 374.951 62.8086C376.445 62.0943 377.922 61.3374 379.424 60.6401C379.762 60.4854 380.128 60.4004 380.5 60.3902C380.872 60.38 381.242 60.4447 381.588 60.5806C382.305 60.7961 383.01 61.0487 383.701 61.3374C385.115 61.9376 386.498 62.6103 387.843 63.3528C389.413 64.2032 390.932 65.1471 392.519 65.9635C392.642 66.0356 392.788 66.056 392.925 66.0201C392.994 66.0024 393.058 65.9713 393.114 65.9288C393.17 65.8862 393.217 65.833 393.253 65.7721C393.289 65.7113 393.312 65.644 393.322 65.5741C393.331 65.5042 393.327 65.433 393.31 65.3647C393.292 65.2964 393.261 65.2323 393.218 65.176C393.176 65.1197 393.123 65.0723 393.062 65.0366C390.323 63.2884 387.441 61.775 384.448 60.5126C383.71 60.2065 382.954 59.9258 382.199 59.6622C381.481 59.3718 380.702 59.2665 379.933 59.3561C379.133 59.5672 378.366 59.8846 377.65 60.3C376.861 60.6742 376.08 61.0738 375.291 61.4735C374.502 61.8732 373.594 62.3239 372.745 62.7916C371.896 63.2593 371.048 63.863 370.131 64.3478C369.868 64.4923 370.131 64.8495 370.352 64.7389L370.301 64.7474Z" fill="#343B38"/>
<path d="M49.2229 62.9276C50.2073 62.7887 51.1725 62.5377 52.0999 62.1793C53.0674 61.8731 54.0434 61.5585 55.0024 61.2353L57.9049 60.2659C58.7945 59.913 59.7282 59.6841 60.68 59.5856C62.3773 59.5091 63.9219 60.2064 65.5005 60.6571C66.9008 61.0568 68.318 61.4224 69.7438 61.8901C70.5925 62.1708 71.3733 62.4514 72.1625 62.7915C72.9372 63.174 73.7368 63.5036 74.5558 63.778C74.6533 63.8013 74.7557 63.7925 74.8479 63.753C74.94 63.7134 75.017 63.6452 75.0675 63.5584C75.1179 63.4716 75.1392 63.3708 75.128 63.271C75.1169 63.1712 75.0739 63.0776 75.0056 63.0041C74.4479 62.4104 73.7548 61.961 72.9857 61.6945C72.2524 61.3695 71.5016 61.0856 70.7368 60.8442C69.2686 60.3935 67.7494 60.0873 66.2473 59.7387C64.7451 59.39 63.0817 58.7693 61.4438 58.5482C59.424 58.276 57.5484 59.1009 55.6728 59.7302L52.2782 60.8867C51.1483 61.1936 50.0576 61.6302 49.0278 62.1878C48.7392 62.3663 48.8326 62.9021 49.2145 62.8681L49.2229 62.9276Z" fill="#343B38"/>
<path d="M111.736 53.3949C110.61 53.5795 109.562 54.0913 108.724 54.8667C107.885 55.6422 107.292 56.6473 107.017 57.7574C106.773 58.8034 106.832 59.8975 107.187 60.9112C107.542 61.9249 108.178 62.8161 109.02 63.4804C109.998 64.1626 111.119 64.6107 112.296 64.7899C113.328 64.9761 114.391 64.8851 115.377 64.5263C117.753 63.6759 120.045 61.9752 119.951 59.1945C119.897 57.506 119.184 55.9062 117.965 54.7385C117.424 54.1544 116.753 53.7056 116.008 53.428C115.262 53.1503 114.462 53.0517 113.671 53.1398C113.366 53.1909 113.416 53.6245 113.671 53.7096C114.839 54.0289 115.929 54.5878 116.871 55.3508C117.834 56.1654 118.481 57.2946 118.695 58.5397C118.801 59.0392 118.799 59.5557 118.689 60.0544C118.579 60.553 118.364 61.0224 118.059 61.431C117.399 62.223 116.545 62.8296 115.581 63.1912C114.77 63.5912 113.868 63.7702 112.967 63.71C112.02 63.6254 111.1 63.3537 110.259 62.9106C109.423 62.5059 108.751 61.824 108.358 60.9803C108.007 60.219 107.836 59.3867 107.858 58.5482C107.942 56.1927 109.759 54.5429 111.846 53.7776C111.871 53.7709 111.895 53.7593 111.916 53.7435C111.936 53.7277 111.953 53.708 111.966 53.6855C111.979 53.663 111.988 53.6381 111.991 53.6124C111.995 53.5866 111.993 53.5604 111.986 53.5353C111.98 53.5101 111.968 53.4866 111.952 53.4659C111.937 53.4453 111.917 53.4279 111.894 53.4149C111.872 53.4019 111.847 53.3934 111.821 53.39C111.796 53.3866 111.77 53.3882 111.745 53.3949H111.736Z" fill="#343B38"/>
<path d="M108.29 56.6859C108.609 56.2381 108.876 55.756 109.088 55.2488C109.368 54.6875 109.64 54.1178 109.937 53.548C110.522 52.366 111.125 51.201 111.719 50.0275C112.933 47.6464 114.189 45.2909 115.377 42.9014C115.691 42.2721 116.005 41.6343 116.293 40.9965C116.429 40.6904 116.514 40.3672 116.65 40.0526C116.782 39.7524 116.882 39.4388 116.947 39.1172C116.998 38.9046 116.718 38.675 116.548 38.8791C116.175 39.3298 115.954 39.874 115.623 40.3417C115.301 40.8497 115.017 41.3813 114.774 41.9319C114.152 43.0998 113.535 44.2676 112.924 45.4355C111.668 47.8335 110.378 50.2486 109.292 52.7147C109.003 53.3524 108.706 53.9817 108.443 54.6365C108.157 55.2306 107.959 55.8639 107.858 56.5158C107.86 56.5657 107.877 56.6138 107.906 56.6545C107.935 56.6951 107.975 56.7266 108.022 56.7453C108.068 56.764 108.119 56.7692 108.168 56.7602C108.217 56.7512 108.262 56.7284 108.299 56.6944L108.29 56.6859Z" fill="#343B38"/>
<path d="M85.249 63.778C86.3363 63.5377 87.3907 63.1665 88.3891 62.6725C89.5095 62.168 90.6004 61.6002 91.6565 60.9718C92.6413 60.3217 93.6773 59.7529 94.7541 59.271C95.3134 59.0352 95.9062 58.8889 96.5109 58.8373C96.604 58.8288 96.6978 58.8288 96.7909 58.8373C96.6976 58.8373 96.8843 58.8373 96.9607 58.8373C98.2567 59.2012 99.52 59.6734 100.737 60.2489C102.587 61.0228 104.42 61.8136 106.271 62.596C107.323 63.0467 108.375 63.4889 109.436 63.9225C109.708 64.0331 109.971 64.0586 110.285 64.1436L111.006 64.3817C111.452 64.5384 111.908 64.6606 112.373 64.7474C112.452 64.7694 112.536 64.7618 112.611 64.7259C112.685 64.6901 112.743 64.6285 112.776 64.5525C112.808 64.4766 112.811 64.3916 112.786 64.3132C112.76 64.2349 112.707 64.1686 112.636 64.1266C112.28 63.8933 111.909 63.6858 111.524 63.5059L110.955 63.2252C110.709 63.1062 110.522 62.9531 110.293 62.8256C109.852 62.5875 109.343 62.4259 108.876 62.2303L107.408 61.6265C105.481 60.8442 103.555 60.0619 101.603 59.339C100.253 58.791 98.87 58.3308 97.4614 57.9614C95.5943 57.5363 93.7187 58.4632 92.1911 59.4496C89.8995 60.869 87.4987 62.1031 85.0114 63.1402C84.604 63.3188 84.918 63.8715 85.2914 63.812L85.249 63.778Z" fill="#343B38"/>
<path d="M147.974 53.701C146.797 53.7044 145.651 54.0793 144.698 54.7725C143.877 55.3636 143.215 56.1496 142.772 57.06C142.332 58.1377 142.133 59.2985 142.186 60.4615C142.206 61.6681 142.686 62.8214 143.527 63.6844C144.535 64.6213 145.786 65.2552 147.137 65.5139C148.487 65.7725 149.883 65.6454 151.165 65.1471C152.286 64.6932 153.263 63.9434 153.992 62.9776C154.721 62.0119 155.176 60.8661 155.307 59.6622C155.33 58.4022 154.963 57.166 154.254 56.1246C153.894 55.5789 153.44 55.101 152.914 54.713C152.353 54.3157 151.722 54.0273 151.055 53.8626C150.52 53.7096 150.317 54.5004 150.826 54.713C151.728 55.0585 152.521 55.6426 153.118 56.4033C153.716 57.1639 154.097 58.0727 154.221 59.0329C154.501 60.9632 153.041 62.8596 151.471 63.795C150.45 64.3428 149.299 64.6 148.142 64.5385C146.986 64.4771 145.868 64.0993 144.911 63.4463C144.069 62.871 143.484 61.9893 143.281 60.9887C143.135 60.0425 143.181 59.0764 143.417 58.1485C143.711 57.1234 144.301 56.2086 145.114 55.5198C145.927 54.8311 146.925 54.3994 147.983 54.2793C148.314 54.2368 148.331 53.7351 147.983 53.7436L147.974 53.701Z" fill="#343B38"/>
<path d="M143.756 56.7964C144.978 54.4154 146.031 51.9663 147.075 49.5002C147.601 48.2587 148.085 47.0086 148.551 45.7501C148.789 45.1208 149.001 44.483 149.205 43.8452C149.457 43.2341 149.62 42.5897 149.689 41.9319C149.689 41.7193 149.383 41.5577 149.23 41.7448C148.873 42.2928 148.588 42.8844 148.382 43.5051C148.127 44.0833 147.872 44.6616 147.635 45.2058C147.109 46.4814 146.54 47.757 146.014 49.024C144.934 51.4695 144.007 53.9801 143.239 56.5413C143.162 56.8389 143.595 57.043 143.748 56.7624L143.756 56.7964Z" fill="#343B38"/>
<path d="M120.656 63.6675C122.209 62.9276 123.719 62.0773 125.221 61.2269L127.538 59.9003C128.207 59.4851 128.898 59.1075 129.609 58.7693C130.351 58.5143 131.136 58.413 131.918 58.4714C132.7 58.5299 133.462 58.747 134.158 59.1095C135.72 59.7643 137.222 60.5636 138.758 61.2779C139.606 61.6946 140.523 62.1283 141.423 62.511C141.872 62.715 142.322 62.8936 142.78 63.0552C143.202 63.2444 143.648 63.376 144.104 63.4464C144.3 63.4464 144.376 63.1998 144.257 63.0722C143.955 62.7934 143.615 62.5586 143.247 62.3749C142.84 62.1283 142.399 61.8817 142.017 61.6691C141.219 61.2609 140.413 60.8782 139.606 60.4871C138.011 59.7047 136.415 58.9054 134.786 58.2081C133.317 57.4453 131.638 57.1883 130.008 57.4767C129.242 57.7041 128.513 58.0421 127.844 58.4802L125.603 59.8663C123.847 60.9378 122.056 61.9837 120.409 63.2253C120.351 63.2602 120.309 63.317 120.292 63.3832C120.275 63.4494 120.285 63.5195 120.32 63.5782C120.355 63.6368 120.412 63.6792 120.478 63.6959C120.544 63.7126 120.614 63.7024 120.673 63.6675H120.656Z" fill="#343B38"/>
<path d="M191.384 64.1351C192.301 63.9183 193.189 63.5959 194.032 63.1742C194.88 62.8085 195.729 62.4514 196.578 62.0772L199.124 60.9547C199.914 60.5571 200.745 60.2463 201.602 60.0278C203.172 59.7217 204.818 60.572 206.219 61.2013C207.619 61.8306 208.858 62.4514 210.156 63.1147C211.005 63.5398 211.854 63.965 212.652 64.3392C213.042 64.5263 213.424 64.7219 213.823 64.9004C214.254 65.08 214.708 65.1974 215.172 65.2491C215.571 65.3001 215.783 64.7049 215.503 64.4583C214.865 63.9402 214.149 63.5269 213.381 63.2337C212.601 62.8766 211.828 62.5109 211.039 62.1707C209.613 61.5585 208.196 60.9377 206.753 60.368C205.311 59.7982 203.681 58.9733 202.06 58.9393C201.179 58.9519 200.31 59.155 199.514 59.5346C198.623 59.9088 197.749 60.3084 196.858 60.6996L193.947 62.0092C192.92 62.3954 191.942 62.9036 191.036 63.5228C190.713 63.7694 191.087 64.1861 191.392 64.1351H191.384Z" fill="#343B38"/>
<path d="M226.977 64.6284C227.982 64.3921 228.95 64.0202 229.854 63.5229C230.905 62.9992 231.922 62.4114 232.901 61.7626C233.772 61.1203 234.694 60.5514 235.659 60.0618C236.161 59.8232 236.701 59.6736 237.255 59.6196C237.339 59.6111 237.424 59.6111 237.509 59.6196C237.373 59.6196 237.602 59.6196 237.653 59.6196C238.824 59.9889 239.96 60.4613 241.048 61.0313C242.745 61.7966 244.4 62.5875 246.072 63.3698C247.04 63.8205 248.007 64.2202 248.983 64.6964C249.238 64.8069 249.484 64.8409 249.738 64.926C249.993 65.011 250.18 65.0876 250.4 65.1641C250.811 65.3206 251.234 65.4429 251.665 65.5297C251.744 65.5518 251.829 65.5441 251.903 65.5083C251.977 65.4724 252.036 65.4108 252.068 65.3349C252.1 65.259 252.104 65.1739 252.078 65.0956C252.052 65.0172 251.999 64.9509 251.928 64.909C251.608 64.6791 251.27 64.4744 250.918 64.2967L250.4 64.0076C250.18 63.897 250.01 63.7355 249.798 63.6164C249.398 63.4058 248.987 63.2157 248.567 63.0467L247.218 62.4344C245.444 61.6435 243.662 60.8612 241.863 60.1299C240.626 59.5799 239.353 59.1168 238.052 58.7438C236.355 58.3186 234.598 59.2625 233.24 60.2234C231.152 61.6338 228.952 62.8709 226.663 63.9225C226.264 64.1181 226.561 64.6624 226.943 64.5943L226.977 64.6284Z" fill="#343B38"/>
<path d="M263.351 64.9345C264.947 64.2712 266.466 63.4549 267.993 62.6555L270.276 61.4395C270.981 61.021 271.713 60.6489 272.466 60.3255C273.211 60.0849 273.998 60 274.778 60.076C275.557 60.1521 276.313 60.3875 276.998 60.7677C278.559 61.482 280.062 62.3409 281.589 63.1147C282.438 63.5569 283.329 63.9651 284.22 64.4328C284.653 64.6454 285.069 64.8325 285.552 65.011C285.961 65.2275 286.398 65.3849 286.851 65.4787C287.055 65.4787 287.114 65.2321 287.004 65.1046C286.706 64.8187 286.372 64.5729 286.011 64.3733C285.612 64.1096 285.213 63.863 284.797 63.6334C284.016 63.1997 283.219 62.7831 282.429 62.3664C280.859 61.516 279.289 60.6656 277.677 59.9343C276.228 59.1453 274.564 58.847 272.933 59.0839C272.157 59.267 271.414 59.5651 270.726 59.9683L268.426 61.2779C266.636 62.2898 264.819 63.2763 263.139 64.4583C262.918 64.6114 263.046 65.0536 263.334 64.9345H263.351Z" fill="#343B38"/>
<path d="M182.795 53.65C181.672 53.7938 180.62 54.2781 179.78 55.0381C178.939 55.798 178.351 56.7973 178.094 57.9019C177.858 59.0736 177.956 60.2881 178.376 61.4067C178.797 62.5253 179.522 63.5032 180.47 64.2287C181.518 65.0933 182.808 65.613 184.162 65.7168C185.561 65.7491 186.927 65.2887 188.023 64.4158C189.065 63.6559 189.862 62.6063 190.315 61.397C190.767 60.1877 190.856 58.872 190.569 57.6128C190.232 56.1974 189.37 54.9634 188.159 54.1603C187.064 53.446 185.307 52.8592 184.085 53.548C184.015 53.592 183.959 53.6554 183.923 53.7306C183.888 53.8057 183.875 53.8895 183.885 53.972C183.896 54.0544 183.93 54.132 183.984 54.1955C184.037 54.2591 184.108 54.3059 184.187 54.3303C184.679 54.4154 185.18 54.3899 185.672 54.4749C186.217 54.5534 186.743 54.7291 187.225 54.9936C188.125 55.4882 188.825 56.2823 189.203 57.2386C189.577 58.2249 189.647 59.3012 189.403 60.3277C189.16 61.3543 188.614 62.2838 187.836 62.9957C187.066 63.7677 186.081 64.2893 185.01 64.4923C183.892 64.6239 182.763 64.3592 181.819 63.744C180.963 63.2536 180.251 62.5458 179.755 61.6919C179.259 60.8379 178.996 59.868 178.993 58.8798C179.052 57.7866 179.467 56.7428 180.173 55.9076C180.879 55.0724 181.839 54.4916 182.906 54.2538C183.237 54.1858 183.169 53.616 182.821 53.65H182.795Z" fill="#343B38"/>
<path d="M181.437 54.5599C181.803 53.2686 182.058 51.9487 182.201 50.6142C182.413 49.2536 182.634 47.893 182.829 46.5324C183.328 43.8709 183.635 41.1767 183.746 38.4709C183.741 38.4151 183.718 38.3625 183.68 38.3218C183.642 38.281 183.591 38.2545 183.535 38.2466C183.48 38.2387 183.424 38.2499 183.376 38.2782C183.328 38.3066 183.29 38.3506 183.271 38.4028C182.489 41.0085 181.935 43.6774 181.616 46.3793C181.403 47.7059 181.225 49.041 181.047 50.3761C180.81 51.7265 180.691 53.0952 180.691 54.4664C180.695 54.5544 180.729 54.6382 180.789 54.7031C180.849 54.7679 180.929 54.8096 181.016 54.8207C181.104 54.8319 181.192 54.8119 181.266 54.7642C181.34 54.7165 181.395 54.6441 181.42 54.5599H181.437Z" fill="#343B38"/>
<path d="M157.7 64.1776C159.345 63.4714 160.946 62.6678 162.495 61.7711L164.922 60.538C165.699 60.0943 166.511 59.716 167.349 59.407C167.785 59.3093 168.236 59.3026 168.674 59.3875C169.112 59.4723 169.528 59.6469 169.896 59.9003C170.608 60.2574 171.338 60.6061 172.068 60.9462C173.596 61.6605 175.14 62.3323 176.685 63.0211L179.231 64.1351C180.015 64.5838 180.881 64.8728 181.777 64.9855C181.829 64.9835 181.88 64.9665 181.922 64.9365C181.965 64.9064 181.998 64.8647 182.018 64.8162C182.038 64.7678 182.043 64.7147 182.033 64.6632C182.024 64.6118 182 64.5643 181.964 64.5263C181.388 63.9438 180.689 63.4991 179.918 63.2252C179.138 62.8681 178.348 62.5279 177.559 62.1963L172.739 60.1724C171.966 59.8492 171.194 59.5176 170.422 59.1689C169.683 58.7509 168.858 58.5093 168.011 58.4631C167.153 58.5787 166.327 58.868 165.584 59.3135C164.741 59.7274 163.91 60.1525 163.089 60.5891C162.164 61.0738 161.239 61.567 160.322 62.0687C159.356 62.5597 158.431 63.1285 157.556 63.7695C157.369 63.914 157.462 64.2967 157.743 64.1946L157.7 64.1776Z" fill="#343B38"/>
<path d="M299.394 64.5178C301.015 63.7695 302.543 62.8171 304.096 61.9667C305.649 61.1163 306.99 60.1384 308.526 59.4156C310.062 58.6928 311.59 59.169 313.015 59.9343C314.441 60.6996 316.003 61.7711 317.496 62.681C318.345 63.2167 319.194 63.7525 320.11 64.2627C320.526 64.5093 320.959 64.7304 321.375 64.943C321.807 65.2048 322.272 65.4078 322.758 65.5468C322.919 65.5468 323.132 65.3937 323.004 65.2236C322.754 64.9371 322.469 64.6829 322.156 64.4668C321.748 64.1607 321.349 63.846 320.917 63.5569C320.144 63.0467 319.355 62.5535 318.566 62.0517C317.004 61.0653 315.451 60.0448 313.839 59.1435C312.442 58.2065 310.749 57.8217 309.086 58.0635C308.294 58.2784 307.542 58.6233 306.863 59.0839L304.461 60.5636C302.662 61.6776 300.828 62.7575 299.14 64.0331C299.09 64.0725 299.056 64.1286 299.044 64.1911C299.032 64.2536 299.044 64.3182 299.076 64.3731C299.108 64.428 299.158 64.4694 299.218 64.4897C299.279 64.5101 299.344 64.508 299.403 64.4838L299.394 64.5178Z" fill="#343B38"/>
<path d="M334.911 64.7219C336.449 64.0818 337.943 63.3403 339.384 62.5025L341.692 61.3375C342.392 60.9473 343.128 60.6255 343.89 60.3765C344.67 60.2335 345.475 60.4047 346.131 60.8527C346.801 61.1929 347.472 61.516 348.15 61.8307C349.525 62.477 350.926 63.0807 352.309 63.693L354.745 64.7219C355.458 65.122 356.247 65.3654 357.062 65.4363C357.114 65.4343 357.164 65.4172 357.207 65.3872C357.25 65.3572 357.283 65.3155 357.303 65.267C357.322 65.2185 357.328 65.1654 357.318 65.114C357.308 65.0626 357.284 65.015 357.248 64.9771C356.732 64.4339 356.091 64.0252 355.381 63.7865C354.651 63.4549 353.913 63.1402 353.175 62.8256L348.677 60.9548C347.955 60.6572 347.234 60.3425 346.521 60.0279C345.862 59.6633 345.126 59.4594 344.374 59.4326C343.601 59.5332 342.857 59.7877 342.184 60.1809C341.395 60.5806 340.606 60.9803 339.816 61.397C339.027 61.8137 338.119 62.2984 337.27 62.7661C336.378 63.2117 335.526 63.7353 334.724 64.3308C334.538 64.4753 334.724 64.7985 334.954 64.7219H334.911Z" fill="#343B38"/>
<path d="M219.059 54.1773C217.797 54.0829 216.546 54.4753 215.562 55.2742C214.512 56.0265 213.692 57.0572 213.195 58.2505C212.734 59.4751 212.672 60.8145 213.018 62.0766C213.364 63.3386 214.1 64.4582 215.121 65.2746C216.199 66.0987 217.486 66.6039 218.836 66.7331C220.186 66.8624 221.545 66.6105 222.759 66.0059C223.79 65.533 224.693 64.8184 225.39 63.9225C226.02 63.1096 226.392 62.1263 226.459 61.0993C226.65 59.5687 226.324 58.0182 225.534 56.6944C225.096 56.0176 224.5 55.4575 223.798 55.062C223.096 54.6666 222.308 54.4476 221.503 54.4239C221.428 54.4277 221.356 54.4552 221.298 54.5023C221.239 54.5495 221.197 54.614 221.177 54.6866C221.158 54.7592 221.161 54.8362 221.188 54.9066C221.214 54.977 221.262 55.0372 221.325 55.0786C222.42 55.5086 223.418 56.1533 224.261 56.975C224.948 57.8698 225.302 58.9763 225.263 60.1044C225.337 61.0062 225.149 61.9102 224.72 62.7065C224.257 63.4452 223.626 64.0631 222.878 64.5093C221.948 65.0917 220.885 65.425 219.789 65.4771C218.694 65.5292 217.604 65.2984 216.623 64.8069C215.699 64.2976 214.948 63.522 214.469 62.5805C213.989 61.6391 213.802 60.575 213.933 59.5261C214.17 58.3183 214.796 57.2219 215.715 56.4052C216.697 55.626 217.839 55.0742 219.059 54.7895C219.314 54.713 219.365 54.2623 219.059 54.2198V54.1773Z" fill="#343B38"/>
<path d="M217.005 55.1467C217.182 54.4053 217.279 53.6469 217.294 52.8847C217.353 51.9068 217.345 50.9204 217.294 49.9339C217.234 47.893 217.141 45.8692 216.988 43.8368C216.988 43.6072 216.988 43.3776 216.937 43.148C216.886 42.9184 216.827 42.7228 216.793 42.5017C216.752 42.181 216.681 41.865 216.581 41.5578C216.565 41.5107 216.535 41.4699 216.494 41.441C216.454 41.4121 216.406 41.3965 216.356 41.3965C216.306 41.3965 216.258 41.4121 216.218 41.441C216.177 41.4699 216.147 41.5107 216.131 41.5578C216.045 41.8344 215.988 42.1194 215.961 42.4081V42.6547C215.961 42.6973 215.919 42.9524 215.961 42.8248C215.923 42.9188 215.892 43.0154 215.868 43.1139C215.868 43.216 215.868 43.335 215.868 43.4456C215.868 44.3725 215.868 45.2909 215.868 46.2178C215.868 48.2927 215.927 50.3846 216.097 52.4595C216.138 53.3616 216.243 54.2595 216.411 55.1467C216.43 55.2119 216.47 55.2692 216.524 55.3099C216.579 55.3507 216.645 55.3727 216.712 55.3727C216.78 55.3727 216.846 55.3507 216.901 55.3099C216.955 55.2692 216.995 55.2119 217.014 55.1467H217.005Z" fill="#343B38"/>
<path d="M252.641 54.7045C250.468 55.5549 248.533 57.3832 248.398 59.8068C248.37 60.8754 248.609 61.934 249.092 62.8871C249.575 63.8403 250.287 64.6579 251.164 65.2661C252.312 65.9314 253.6 66.316 254.924 66.3886C255.977 66.526 257.047 66.439 258.064 66.1335C258.936 65.8486 259.737 65.3781 260.41 64.7543C261.084 64.1305 261.616 63.3682 261.968 62.5194C262.251 61.8194 262.387 61.0682 262.366 60.313C262.346 59.5579 262.17 58.8152 261.849 58.1315C261.199 56.8113 260.201 55.694 258.964 54.9001C258.446 54.5259 257.835 55.3423 258.293 55.7505C259.804 57.1621 261.34 59.152 260.746 61.3374C260.523 62.1507 260.093 62.892 259.498 63.4889C259.078 63.9459 258.566 64.3083 257.996 64.5518C256.231 65.1347 254.315 65.0623 252.599 64.3477C251.849 64.0141 251.196 63.4948 250.702 62.8388C250.207 62.1828 249.888 61.4115 249.772 60.5976C249.357 58.3781 251.113 56.4223 252.98 55.4954C253.396 55.2828 253.099 54.5429 252.649 54.7215L252.641 54.7045Z" fill="#343B38"/>
<path d="M253.549 43.369C253.773 44.4381 254.082 45.4874 254.474 46.5069C254.831 47.5529 255.212 48.5818 255.603 49.6108C255.993 50.6397 256.367 51.6176 256.766 52.6126C257.149 53.6578 257.638 54.6608 258.225 55.6059C258.27 55.7187 258.358 55.8089 258.47 55.8567C258.581 55.9046 258.707 55.9061 258.819 55.861C258.932 55.8159 259.022 55.7278 259.07 55.6162C259.117 55.5046 259.119 55.3785 259.074 55.2657C258.819 54.1922 258.458 53.1468 257.996 52.1449L256.723 49.092C256.307 48.1056 255.874 47.1192 255.493 46.1327C255.094 45.0934 254.632 44.0795 254.109 43.0969C254.073 43.0341 254.015 42.9866 253.946 42.9635C253.878 42.9404 253.803 42.9432 253.736 42.9714C253.67 42.9996 253.616 43.0513 253.584 43.1167C253.553 43.182 253.546 43.2567 253.566 43.3265L253.549 43.369Z" fill="#343B38"/>
<path d="M287.139 55.1637C285.946 55.7383 284.978 56.6961 284.39 57.8849C283.879 58.9975 283.762 60.2514 284.059 61.4394C284.312 62.6446 284.831 63.7778 285.578 64.7559C286.463 65.8065 287.647 66.5604 288.973 66.9159C290.032 67.1908 291.141 67.2171 292.212 66.993C293.284 66.7688 294.289 66.3001 295.151 65.6233C297.12 64.0926 297.646 61.3714 297.094 58.9989C296.766 57.6182 295.941 56.4073 294.777 55.5974C294.291 55.2453 293.76 54.9593 293.199 54.747C292.997 54.6338 292.773 54.5633 292.543 54.5399C292.312 54.5165 292.079 54.5407 291.858 54.6109C291.775 54.6383 291.701 54.6858 291.641 54.7492C291.581 54.8126 291.537 54.8899 291.515 54.9743C291.492 55.0586 291.491 55.1472 291.51 55.2322C291.53 55.3172 291.571 55.396 291.629 55.4613C291.837 55.6785 292.089 55.8494 292.367 55.963C292.741 56.1454 293.104 56.3498 293.454 56.5753C294.246 57.0314 294.887 57.7118 295.295 58.5312C296.033 60.2319 295.915 62.698 294.548 64.0416C294.059 64.51 293.482 64.877 292.851 65.1216C292.015 65.4745 291.106 65.6175 290.203 65.5382C289.168 65.4155 288.189 64.9963 287.386 64.3307C286.648 63.7127 286.093 62.9039 285.782 61.9922C285.339 61.024 285.217 59.9394 285.434 58.8968C285.786 57.6787 286.579 56.6358 287.657 55.9715C287.77 55.9061 287.852 55.7986 287.885 55.6726C287.918 55.5466 287.901 55.4125 287.835 55.2997C287.77 55.187 287.663 55.1048 287.537 55.0713C287.411 55.0378 287.277 55.0558 287.165 55.1212L287.139 55.1637Z" fill="#343B38"/>
<path d="M284.415 38.7855C284.635 39.4278 284.919 40.0461 285.264 40.6308C285.62 41.3196 285.968 42.0084 286.333 42.6887C287.114 44.1173 287.878 45.546 288.667 46.9406C290.203 49.6788 291.773 52.4085 293.462 55.0531C294.146 56.2003 294.93 57.2845 295.804 58.2931C296.169 58.6842 296.772 58.1825 296.534 57.7318C295.295 55.4443 293.81 53.2759 292.444 51.0649C290.746 48.2927 289.049 45.512 287.352 42.7227C286.919 41.9999 286.503 41.2856 286.028 40.5628C285.653 39.8674 285.212 39.2096 284.712 38.5984C284.684 38.5752 284.649 38.5612 284.613 38.5583C284.576 38.5554 284.54 38.5638 284.509 38.5824C284.477 38.601 284.452 38.6288 284.437 38.662C284.422 38.6953 284.417 38.7325 284.424 38.7685L284.415 38.7855Z" fill="#343B38"/>
<path d="M322.495 55.4529C318.532 57.4512 319.168 63.2168 322.385 65.5893C323.341 66.2111 324.436 66.5855 325.572 66.679C326.708 66.7725 327.849 66.5821 328.894 66.1251C329.994 65.7389 330.956 65.0372 331.66 64.1073C332.365 63.1774 332.781 62.0604 332.857 60.8953C332.944 60.1509 332.883 59.3967 332.679 58.6758C332.409 57.9505 331.989 57.29 331.449 56.7369C330.894 56.1016 330.215 55.5862 329.455 55.2222C328.695 54.8582 327.869 54.6531 327.027 54.6195C326.688 54.6195 326.484 55.1467 326.84 55.3083C328.027 55.7916 329.137 56.4478 330.133 57.2557C330.572 57.5991 330.932 58.0324 331.189 58.5267C331.447 59.0209 331.596 59.5647 331.627 60.1214C331.703 61.0648 331.493 62.0092 331.023 62.8304C330.554 63.6516 329.847 64.3111 328.996 64.7219C328.162 65.1706 327.233 65.4131 326.287 65.4294C325.341 65.4457 324.405 65.2352 323.556 64.8155C322.869 64.3932 322.284 63.8232 321.844 63.1467C321.403 62.4702 321.119 61.7041 321.01 60.9038C320.86 59.9858 320.963 59.0443 321.309 58.181C321.655 57.3177 322.229 56.5655 322.97 56.0056C323.301 55.7505 322.877 55.2828 322.546 55.4529H322.495Z" fill="#343B38"/>
<path d="M311.793 32.6543C314.17 35.9538 316.588 39.2022 319.016 42.4591C321.782 46.1497 324.506 49.8829 327.265 53.5905L327.689 54.1688C327.782 54.2963 327.876 54.4239 327.977 54.5429L328.088 54.6705C328.13 54.7385 328.181 54.798 328.224 54.8576L328.3 54.9596C328.3 54.9596 328.232 54.8661 328.3 54.9596L328.478 55.1977L328.826 55.6569C329.048 55.9792 329.317 56.2659 329.624 56.5073L329.76 56.6008C330.176 56.8474 329.471 56.4478 329.862 56.6689C329.932 56.7205 330.011 56.7577 330.096 56.7781C330.18 56.7985 330.268 56.8019 330.354 56.7879L329.929 56.6178C330.201 57.026 330.854 56.6178 330.583 56.2437L330.523 56.7029C330.571 56.6471 330.606 56.5819 330.627 56.5115C330.647 56.4412 330.652 56.3673 330.642 56.2947V56.0736C330.557 55.6399 330.685 56.3797 330.642 56.0736C330.646 56.0226 330.646 55.9715 330.642 55.9205C330.581 55.6175 330.463 55.329 330.294 55.0702C329.887 54.4834 329.497 53.8796 329.072 53.3099C327.816 51.6091 326.526 49.9509 325.236 48.2927C322.232 44.4405 319.177 40.6393 316.113 36.8212C314.874 35.2905 313.598 33.791 312.286 32.3227C312.082 32.0931 311.666 32.3992 311.853 32.6543H311.793Z" fill="#343B38"/>
<path d="M359.251 55.5039C358.035 56.0183 356.988 56.8638 356.227 57.9445C355.467 59.0252 355.024 60.2978 354.948 61.618C354.935 62.305 355.061 62.9875 355.318 63.6246C355.574 64.2617 355.957 64.8403 356.442 65.3257C357.296 66.1064 358.362 66.6155 359.506 66.7883C360.63 66.9745 361.776 66.9745 362.9 66.7883C363.822 66.68 364.713 66.3911 365.523 65.9379C366.581 65.2417 367.396 64.2311 367.852 63.0477C368.309 61.8644 368.385 60.5676 368.069 59.339C367.726 58.3297 367.12 57.431 366.312 56.7369C365.805 56.2759 365.233 55.8919 364.615 55.5974C364.239 55.4154 363.847 55.2701 363.443 55.1637C363.249 55.1023 363.051 55.0567 362.849 55.0276C362.603 55.0276 362.349 55.0872 362.094 55.0787C361.704 55.0787 361.687 55.5974 362.009 55.725C362.182 55.8148 362.347 55.9201 362.501 56.0396C362.647 56.106 362.797 56.16 362.951 56.2012C363.248 56.3117 363.554 56.4393 363.842 56.5753C364.326 56.8098 364.784 57.0948 365.209 57.4257C365.863 57.9162 366.392 58.5542 366.753 59.288C366.877 59.5421 366.968 59.8107 367.025 60.0874C367.029 60.144 367.029 60.2008 367.025 60.2574C367.025 60.0789 367.025 60.4275 367.025 60.4615C367.049 60.7445 367.049 61.029 367.025 61.3119C366.893 62.4924 366.36 63.5915 365.514 64.4243C364.921 64.9681 364.179 65.3232 363.384 65.4447C362.497 65.6486 361.586 65.7259 360.677 65.6743C359.74 65.6467 358.822 65.4022 357.995 64.96C357.548 64.7005 357.158 64.3514 356.852 63.9344C356.545 63.5174 356.328 63.0415 356.213 62.5364C355.576 60.0534 357.435 57.3152 359.506 56.0906C359.82 55.9035 359.616 55.3338 359.251 55.4783V55.5039Z" fill="#343B38"/>
<path d="M348.6 39.7379C350.943 42.1955 353.302 44.6446 355.602 47.1447C357.698 49.4237 359.752 51.7537 361.865 54.0072L363.63 55.8695C363.944 56.2012 364.258 56.5413 364.589 56.8559C364.92 57.1706 365.294 57.5277 365.828 57.4172C365.92 57.3939 366.005 57.3461 366.072 57.2787C366.139 57.2113 366.187 57.1269 366.21 57.0345C366.405 56.2437 365.463 55.5379 364.98 55.0276L363.367 53.3269C362.332 52.2129 361.271 51.1074 360.219 50.0104C358.029 47.7144 355.805 45.4439 353.531 43.2075C352.105 41.8185 350.643 40.4806 349.143 39.1937C348.77 38.8706 348.244 39.3723 348.6 39.7379Z" fill="#343B38"/>
<path d="M393.979 55.827C392.789 56.2923 391.77 57.1129 391.061 58.1777C390.352 59.2425 389.987 60.4999 390.015 61.7796C390.088 62.9156 390.508 64.0017 391.216 64.8913C391.925 65.7809 392.889 66.4312 393.979 66.7543C395.179 67.1166 396.45 67.1742 397.679 66.9218C398.907 66.6695 400.053 66.1151 401.014 65.3087C401.748 64.6202 402.306 63.7645 402.64 62.8141C402.974 61.8637 403.074 60.8467 402.932 59.8493C402.671 58.5776 401.978 57.4358 400.972 56.6178C399.875 55.6558 398.489 55.0873 397.034 55.0021C396.915 55.0073 396.801 55.0542 396.713 55.1347C396.624 55.2152 396.567 55.3243 396.551 55.4428C396.535 55.5613 396.561 55.6817 396.624 55.783C396.688 55.8843 396.785 55.9601 396.898 55.9971C397.957 56.2701 398.972 56.694 399.911 57.2556C400.737 57.8338 401.356 58.6625 401.676 59.6197C401.865 60.2164 401.9 60.8511 401.778 61.465C401.651 62.3306 401.313 63.1515 400.793 63.8545C400.107 64.633 399.235 65.2241 398.258 65.5721C397.281 65.9202 396.232 66.0139 395.209 65.8444C394.304 65.7472 393.447 65.3884 392.741 64.8116C392.036 64.2349 391.514 63.4651 391.237 62.596C390.98 61.3794 391.134 60.1117 391.675 58.9925C392.216 57.8733 393.113 56.9661 394.225 56.4138C394.556 56.2607 394.318 55.6994 393.987 55.827H393.979Z" fill="#343B38"/>
<path d="M351.749 22.8921C352.965 24.1195 354.248 25.2779 355.593 26.3616C356.909 27.4841 358.216 28.6151 359.54 29.7631C362.193 32.0307 364.861 34.2644 367.543 36.464C372.889 40.937 378.227 45.4184 383.498 49.9764C384.974 51.252 386.442 52.5361 387.902 53.8286C388.615 54.4494 389.328 55.0702 390.032 55.6995C390.714 56.4081 391.498 57.0101 392.358 57.4852C392.424 57.5201 392.501 57.5329 392.575 57.5218C392.65 57.5107 392.719 57.4762 392.772 57.4233C392.826 57.3704 392.862 57.3019 392.874 57.2274C392.887 57.153 392.875 57.0765 392.841 57.009C392.38 56.3004 391.807 55.6715 391.144 55.1467L389.235 53.4034C387.953 52.2384 386.689 51.0989 385.348 49.9594C382.705 47.6464 380.041 45.3788 377.353 43.1564C372.007 38.6155 366.612 34.151 361.169 29.7631C359.647 28.5385 358.122 27.3197 356.595 26.1065C355.119 24.8477 353.581 23.6642 351.986 22.5604C351.791 22.4329 351.596 22.7135 351.749 22.8665V22.8921Z" fill="#343B38"/>
<path d="M327.494 18.4106C330.04 18.4957 332.586 18.3511 335.132 18.2746L338.925 18.1385C340.207 18.0875 341.522 18.1385 342.795 17.9854C342.937 17.9682 343.068 17.8994 343.163 17.7921C343.258 17.6848 343.311 17.5463 343.311 17.4029C343.311 17.2595 343.258 17.1211 343.163 17.0138C343.068 16.9064 342.937 16.8377 342.795 16.8204C341.514 16.8204 340.249 16.914 338.925 16.9565L335.132 17.1096C332.586 17.2201 330.04 17.2711 327.494 17.5432C327.396 17.563 327.308 17.6161 327.244 17.6936C327.181 17.7712 327.146 17.8682 327.146 17.9684C327.146 18.0686 327.181 18.1657 327.244 18.2432C327.308 18.3207 327.396 18.3739 327.494 18.3936V18.4106Z" fill="#343B38"/>
<path d="M99.0739 199.2C99.3425 199.426 99.626 199.633 99.9226 199.821C100.225 200.01 100.509 200.226 100.771 200.467C101.017 200.698 101.242 200.952 101.442 201.224L101.73 201.649C101.836 201.826 101.953 201.996 102.078 202.159C102.142 202.217 102.223 202.253 102.309 202.262C102.395 202.271 102.481 202.252 102.556 202.209C102.63 202.165 102.689 202.099 102.724 202.02C102.759 201.941 102.767 201.852 102.749 201.768C102.607 201.376 102.388 201.018 102.104 200.714C101.852 200.401 101.567 200.116 101.255 199.863C100.691 199.309 99.9659 198.949 99.1842 198.834C99.1463 198.835 99.1094 198.847 99.0781 198.869C99.0468 198.89 99.0224 198.92 99.008 198.956C98.9936 198.991 98.9897 199.029 98.9969 199.067C99.0041 199.104 99.022 199.139 99.0484 199.166L99.0739 199.2Z" fill="#343B38"/>
<path d="M108.341 198.622C108.252 198.604 108.16 198.604 108.07 198.622C107.976 198.653 107.885 198.692 107.798 198.741C107.639 198.83 107.486 198.929 107.34 199.038C107.081 199.255 106.85 199.504 106.653 199.778C106.454 200.039 106.292 200.325 106.169 200.628C105.967 200.972 105.883 201.372 105.931 201.768C105.952 201.836 105.99 201.898 106.041 201.948C106.093 201.997 106.156 202.033 106.225 202.051C106.294 202.069 106.366 202.068 106.435 202.05C106.504 202.032 106.567 201.996 106.619 201.947C106.689 201.857 106.743 201.757 106.78 201.649C106.839 201.513 106.78 201.759 106.78 201.581C106.783 201.536 106.783 201.49 106.78 201.445L106.856 201.241C106.907 201.105 106.856 201.317 106.856 201.19L106.916 201.037C106.967 200.901 106.916 201.122 106.916 200.986C106.912 200.96 106.912 200.935 106.916 200.909L107.017 200.714C107.089 200.578 107.168 200.448 107.255 200.322L107.323 200.237C107.323 200.169 107.323 200.237 107.323 200.237L107.467 200.076L107.773 199.761C107.883 199.659 107.976 199.557 108.087 199.463C108.197 199.37 108.206 199.378 108.257 199.327C108.317 199.263 108.366 199.188 108.401 199.106C108.424 199.064 108.435 199.016 108.435 198.967C108.435 198.919 108.422 198.871 108.398 198.829C108.375 198.786 108.341 198.75 108.3 198.725C108.258 198.699 108.212 198.684 108.163 198.681L108.341 198.622Z" fill="#343B38"/>
<path d="M94.9748 211.59C96.7919 211.892 98.6325 212.028 100.474 211.998C101.391 211.998 102.307 211.998 103.224 211.998C104.152 212.028 105.079 211.901 105.965 211.624C106.015 211.605 106.058 211.571 106.089 211.527C106.119 211.483 106.135 211.431 106.135 211.377C106.135 211.324 106.119 211.271 106.089 211.227C106.058 211.183 106.015 211.15 105.965 211.131C105.092 210.947 104.198 210.89 103.309 210.961L100.559 211.003C98.7259 211.003 96.8674 210.884 95.0512 211.003C94.7542 211.003 94.6438 211.488 94.9748 211.556V211.59Z" fill="#343B38"/>
<path d="M37.5282 28.0623C38.1369 28.1389 38.7527 28.1389 39.3614 28.0623L41.2963 27.9773L45.1748 27.8242C46.4648 27.7732 47.7208 27.7392 49.0532 27.7052L50.9203 27.6542C51.2597 27.6542 51.5992 27.6542 51.9302 27.5861C52.1951 27.5957 52.4581 27.5371 52.694 27.4161C52.7186 27.4008 52.7388 27.3795 52.7529 27.3542C52.7669 27.3289 52.7743 27.3004 52.7743 27.2715C52.7743 27.2425 52.7669 27.2141 52.7529 27.1888C52.7388 27.1635 52.7186 27.1422 52.694 27.1269C52.1503 26.9335 51.5686 26.8723 50.9967 26.9483C50.3517 26.9483 49.7067 26.9483 49.0617 26.9483C47.7632 26.9483 46.5157 27.0164 45.1833 27.0674C43.8508 27.1184 42.6372 27.1694 41.3048 27.246L39.4547 27.348C38.8092 27.3416 38.1653 27.413 37.5367 27.5606C37.3161 27.6371 37.2736 28.0028 37.5367 28.0538L37.5282 28.0623Z" fill="#343B38"/>
<path d="M345.952 119.631C346.822 119.738 347.7 119.77 348.575 119.724L351.282 119.775C353.064 119.818 354.846 119.843 356.629 119.869L361.975 119.962C363.781 120.077 365.592 120.077 367.398 119.962C367.602 119.962 367.695 119.597 367.458 119.562C365.695 119.356 363.92 119.267 362.145 119.299L356.714 119.188C354.909 119.154 353.098 119.129 351.282 119.112H348.575C347.703 119.027 346.824 119.027 345.952 119.112C345.898 119.132 345.852 119.167 345.819 119.215C345.786 119.262 345.768 119.318 345.768 119.375C345.768 119.433 345.786 119.489 345.819 119.536C345.852 119.583 345.898 119.619 345.952 119.639V119.631Z" fill="#343B38"/>
<path d="M351.825 131.162C351.97 130.878 352.04 130.562 352.029 130.243C352.029 129.92 352.097 129.597 352.122 129.265L351.723 129.665L355.746 129.265H356.187C356.221 129.261 356.255 129.261 356.289 129.265C356.34 129.265 356.289 129.214 356.289 129.265C356.302 129.522 356.267 129.778 356.187 130.022C356.052 130.566 355.712 131.017 355.559 131.553C355.517 131.697 355.67 131.893 355.839 131.825C356.152 131.697 356.414 131.47 356.586 131.179C356.755 130.883 356.884 130.565 356.968 130.235C357.121 129.639 357.274 128.636 356.476 128.449C356.125 128.39 355.766 128.39 355.415 128.449L354.21 128.568L351.664 128.823C351.56 128.829 351.462 128.873 351.389 128.947C351.315 129.02 351.271 129.119 351.265 129.223C351.265 129.554 351.223 129.877 351.206 130.201V130.643C351.19 130.809 351.229 130.976 351.316 131.119C351.409 131.323 351.681 131.272 351.791 131.119L351.825 131.162Z" fill="#343B38"/>
<path d="M296.381 122.598C300.302 122.598 304.215 122.598 308.136 122.428C312.056 122.258 315.96 122.071 319.873 121.816L323.081 121.603L324.778 121.484C325.331 121.491 325.883 121.42 326.416 121.272C326.789 121.127 326.874 120.532 326.416 120.421C325.957 120.358 325.492 120.358 325.033 120.421L323.514 120.523L320.56 120.71L314.73 121.051C310.817 121.28 306.897 121.467 302.984 121.697C300.786 121.824 298.588 121.995 296.39 122.148C296.336 122.158 296.287 122.187 296.252 122.23C296.216 122.272 296.197 122.326 296.197 122.381C296.197 122.437 296.216 122.49 296.252 122.533C296.287 122.576 296.336 122.605 296.39 122.615L296.381 122.598Z" fill="#343B38"/>
<path d="M294.616 187.363C296.806 187.558 299.012 187.507 301.21 187.499C303.408 187.49 305.454 187.456 307.626 187.397C311.96 187.289 316.294 187.13 320.628 186.921L324.345 186.725C324.956 186.725 325.576 186.648 326.195 186.606L327.044 186.546C327.362 186.534 327.664 186.403 327.893 186.181C327.943 186.129 327.98 186.067 328.003 186C328.026 185.932 328.033 185.859 328.024 185.788C328.015 185.717 327.99 185.649 327.951 185.589C327.912 185.529 327.86 185.478 327.799 185.441C327.332 185.217 326.805 185.151 326.297 185.254L324.6 185.33L321.4 185.5C319.228 185.614 317.061 185.713 314.899 185.798C310.588 185.977 306.285 186.087 301.974 186.215C299.521 186.283 297.069 186.266 294.625 186.512C294.512 186.512 294.404 186.557 294.325 186.637C294.245 186.717 294.2 186.825 294.2 186.938C294.2 187.05 294.245 187.158 294.325 187.238C294.404 187.318 294.512 187.363 294.625 187.363H294.616Z" fill="#343B38"/>
<path d="M314.492 242.118C314.355 242.887 314.281 243.667 314.271 244.448C314.212 245.299 314.161 246.191 314.11 247.059C314.068 247.773 314.025 248.487 313.991 249.202C313.932 249.559 313.932 249.924 313.991 250.282C314.11 250.698 314.577 250.613 314.908 250.613H316.902H320.577C322.919 250.613 325.262 250.613 327.604 250.613C328.911 250.613 330.218 250.613 331.525 250.554C332.178 250.554 332.84 250.554 333.494 250.494C334.144 250.495 334.793 250.427 335.429 250.29C335.717 250.222 335.751 249.729 335.429 249.678C334.33 249.585 333.226 249.585 332.127 249.678C331.024 249.678 329.912 249.738 328.809 249.746C326.586 249.746 324.362 249.746 322.13 249.746C319.898 249.746 317.428 249.704 315.078 249.704C314.911 249.686 314.743 249.686 314.577 249.704C314.475 249.857 314.857 249.916 314.815 250.061C314.819 250.013 314.819 249.964 314.815 249.916C314.815 249.729 314.815 249.542 314.815 249.346C314.815 248.709 314.815 248.062 314.865 247.424C314.865 246.489 314.933 245.554 314.942 244.618C315.002 243.767 314.974 242.912 314.857 242.067C314.845 242.029 314.821 241.996 314.789 241.972C314.757 241.949 314.719 241.936 314.679 241.936C314.639 241.936 314.6 241.949 314.568 241.972C314.536 241.996 314.512 242.029 314.501 242.067L314.492 242.118Z" fill="#343B38"/>
<path d="M314.178 256.94C313.855 258.482 313.755 260.063 313.881 261.634C313.883 261.746 313.929 261.853 314.008 261.932C314.087 262.012 314.194 262.057 314.305 262.059C321.943 261.566 329.649 261.634 337.321 261.532L340.3 261.49C341.233 261.523 342.166 261.483 343.092 261.371C343.147 261.353 343.195 261.319 343.229 261.272C343.263 261.225 343.282 261.169 343.282 261.111C343.282 261.053 343.263 260.997 343.229 260.951C343.195 260.904 343.147 260.869 343.092 260.852C342.264 260.761 341.43 260.73 340.597 260.758H337.949C336.006 260.758 334.071 260.758 332.128 260.758C328.13 260.758 324.125 260.809 320.127 260.937C318.184 261.005 316.24 261.081 314.305 261.226L314.73 261.651C314.54 260.114 314.503 258.561 314.619 257.017C314.614 256.966 314.592 256.918 314.556 256.881C314.52 256.844 314.473 256.82 314.422 256.813C314.371 256.806 314.319 256.817 314.275 256.843C314.231 256.869 314.197 256.909 314.178 256.957V256.94Z" fill="#343B38"/>
<path d="M314.229 265.98C314.062 266.849 313.963 267.731 313.932 268.616C313.873 269.577 313.813 270.529 313.796 271.49C313.762 272.153 313.762 272.817 313.796 273.48C313.796 273.665 313.837 273.848 313.915 274.016C314.153 274.398 314.713 274.262 315.078 274.228C317.318 274.041 319.593 274.075 321.867 274.041L329.217 273.948C331.717 273.965 334.216 273.837 336.702 273.565C336.747 273.565 336.79 273.547 336.822 273.515C336.854 273.483 336.872 273.44 336.872 273.395C336.872 273.35 336.854 273.307 336.822 273.275C336.79 273.243 336.747 273.225 336.702 273.225C334.623 273.055 332.526 273.089 330.439 273.106C328.105 273.106 325.779 273.182 323.454 273.216C321.129 273.25 318.999 273.293 316.767 273.31C316.274 273.31 315.774 273.31 315.281 273.31C315.053 273.276 314.822 273.276 314.594 273.31C314.484 273.31 314.373 273.225 314.594 273.429C314.594 273.429 314.747 273.607 314.772 273.625C314.763 273.597 314.763 273.567 314.772 273.539C314.772 273.454 314.772 273.539 314.772 273.539C314.772 273.539 314.772 273.429 314.772 273.378C314.772 273.327 314.772 273.123 314.772 272.987C314.772 272.655 314.772 272.323 314.772 271.983C314.772 270.997 314.772 270.01 314.772 269.024C314.772 268.038 314.866 267.051 314.84 266.073C314.835 266.005 314.807 265.94 314.76 265.89C314.713 265.84 314.651 265.808 314.583 265.799C314.515 265.79 314.446 265.805 314.388 265.841C314.329 265.877 314.285 265.932 314.263 265.997L314.229 265.98Z" fill="#343B38"/>
<path d="M314.093 278.752C313.872 279.838 313.823 280.951 313.949 282.052C314.034 282.579 314.161 283.268 314.721 283.455C315.635 283.679 316.573 283.793 317.513 283.795C321.061 284.033 324.634 284.135 328.198 284.135C330.082 284.181 331.966 284.115 333.842 283.94C333.869 283.932 333.893 283.916 333.91 283.894C333.927 283.872 333.937 283.844 333.937 283.816C333.937 283.788 333.927 283.761 333.91 283.738C333.893 283.716 333.869 283.7 333.842 283.693C332.306 283.531 330.744 283.506 329.191 283.463L323.709 283.302C322.011 283.242 320.365 283.174 318.693 283.081C317.591 283.038 316.492 282.939 315.4 282.783C315.247 282.783 315.095 282.723 314.95 282.681C314.806 282.638 314.95 282.723 314.95 282.681C314.95 282.638 315.044 282.8 315.027 282.74C314.987 282.628 314.942 282.517 314.891 282.409C314.593 281.241 314.492 280.03 314.594 278.829C314.594 278.565 314.17 278.497 314.127 278.769L314.093 278.752Z" fill="#343B38"/>
<path d="M313.737 290.215C313.594 291.229 313.54 292.253 313.575 293.277C313.575 294.331 313.575 295.386 313.575 296.449C313.575 296.568 313.623 296.683 313.707 296.767C313.792 296.852 313.906 296.899 314.025 296.899C318.515 296.721 323.013 296.831 327.502 296.899C333.095 297.001 338.679 297.197 344.272 297.316C346.436 297.367 348.617 297.401 350.781 297.316C350.828 297.316 350.874 297.297 350.907 297.264C350.941 297.23 350.959 297.185 350.959 297.137C350.959 297.09 350.941 297.045 350.907 297.011C350.874 296.978 350.828 296.959 350.781 296.959C348.906 296.712 347.013 296.593 345.121 296.517C342.515 296.398 339.91 296.321 337.304 296.253C331.72 296.1 326.127 295.964 320.535 295.93C318.362 295.93 316.198 295.887 314.025 295.989L314.475 296.449C314.475 295.386 314.475 294.331 314.416 293.277C314.442 292.252 314.374 291.227 314.212 290.215C314.198 290.165 314.168 290.121 314.127 290.089C314.086 290.057 314.035 290.04 313.983 290.04C313.931 290.04 313.88 290.057 313.839 290.089C313.797 290.121 313.767 290.165 313.754 290.215H313.737Z" fill="#343B38"/>
<path d="M313.754 301.508C313.563 303.701 313.563 305.906 313.754 308.099C313.754 308.229 313.806 308.355 313.898 308.447C313.99 308.54 314.115 308.592 314.246 308.592C320.56 308.736 326.874 308.821 333.197 308.889C336.891 308.935 340.586 308.96 344.281 308.966C347.794 308.966 351.316 309.06 354.821 308.966C356.569 308.898 358.326 308.881 360.074 308.804C361.551 308.736 363.053 308.711 364.521 308.507C364.852 308.464 364.75 307.963 364.445 307.946C363.146 307.886 361.848 307.946 360.55 307.946H355.958C352.496 307.946 349.03 307.946 345.562 307.946C338.331 307.946 331.103 307.875 323.878 307.733L314.246 307.571L314.738 308.073C314.529 305.883 314.43 303.683 314.441 301.483C314.441 301.023 313.788 301.032 313.745 301.483L313.754 301.508Z" fill="#343B38"/>
<path d="M295.626 204.149C299.87 204.566 304.113 204.659 308.407 204.778C312.701 204.897 316.817 204.778 321.018 204.472C323.44 204.419 325.854 204.16 328.232 203.698C328.385 203.654 328.518 203.557 328.605 203.423C328.692 203.289 328.728 203.129 328.706 202.97C328.684 202.812 328.607 202.667 328.487 202.562C328.367 202.457 328.213 202.398 328.054 202.397C325.927 202.399 323.802 202.524 321.689 202.771C319.618 202.925 317.545 203.046 315.468 203.137C311.225 203.324 306.981 203.579 302.738 203.605C300.353 203.605 297.968 203.605 295.592 203.605C295.527 203.616 295.469 203.65 295.426 203.701C295.384 203.751 295.361 203.815 295.361 203.881C295.361 203.947 295.384 204.011 295.426 204.062C295.469 204.112 295.527 204.146 295.592 204.158L295.626 204.149Z" fill="#343B38"/>
<path d="M297.884 108.627C296.132 108.448 294.365 108.482 292.622 108.729C292.504 108.733 292.392 108.782 292.308 108.865C292.225 108.949 292.176 109.061 292.172 109.179C292.172 115.472 291.96 121.756 291.994 128.049C291.916 130.01 292.012 131.973 292.282 133.917C292.35 134.248 292.91 134.257 292.961 133.917C293.14 132.185 293.191 130.443 293.114 128.704C293.114 126.924 293.114 125.147 293.114 123.372C293.114 120.09 293.114 116.799 293.072 113.516C293.072 112.071 293.072 110.625 293.072 109.179L292.622 109.63C294.362 109.4 296.135 109.298 297.884 109.213C297.953 109.202 298.015 109.166 298.061 109.112C298.106 109.058 298.131 108.99 298.131 108.92C298.131 108.85 298.106 108.782 298.061 108.728C298.015 108.674 297.953 108.638 297.884 108.627Z" fill="#343B38"/>
<path d="M305.522 122.292C305.417 123.252 305.397 124.22 305.462 125.183C305.462 126.144 305.462 127.105 305.522 128.058C305.581 129.01 305.522 129.928 305.607 130.855C305.649 131.332 305.683 131.799 305.708 132.276C305.688 132.801 305.737 133.327 305.853 133.84C305.874 133.902 305.914 133.956 305.967 133.994C306.02 134.032 306.084 134.053 306.15 134.053C306.215 134.053 306.279 134.032 306.332 133.994C306.385 133.956 306.426 133.902 306.447 133.84C306.533 133.349 306.556 132.849 306.515 132.352C306.515 131.876 306.515 131.408 306.515 130.932C306.515 129.979 306.472 129.01 306.43 128.058C306.387 127.105 306.345 126.195 306.311 125.26C306.317 124.266 306.238 123.273 306.073 122.292C306.014 122.02 305.564 122.003 305.522 122.292Z" fill="#343B38"/>
<path d="M316.206 121.416C316.052 122.096 315.986 122.794 316.011 123.491C316.011 124.163 316.011 124.843 315.969 125.515C315.969 126.952 315.969 128.381 316.045 129.818C316.122 131.255 316.139 132.633 316.172 134.07C316.206 135.507 316.13 136.953 316.257 138.373C316.3 138.815 317.03 139.01 317.106 138.492C317.255 137.08 317.289 135.658 317.208 134.24C317.208 132.803 317.114 131.374 317.038 129.937L316.834 125.685C316.792 124.954 316.775 124.222 316.741 123.491C316.741 123.151 316.699 122.819 316.682 122.479C316.689 122.123 316.658 121.766 316.588 121.416C316.579 121.372 316.555 121.333 316.52 121.305C316.485 121.277 316.442 121.261 316.397 121.261C316.353 121.261 316.309 121.277 316.274 121.305C316.24 121.333 316.216 121.372 316.206 121.416Z" fill="#343B38"/>
<path d="M306.124 170.602C306.184 172.872 306.124 175.16 306.184 177.405C306.184 179.837 306.234 182.277 306.184 184.71C306.184 185.177 306.184 185.628 306.184 186.096C306.184 186.266 306.184 186.453 306.184 186.623C306.196 186.76 306.26 186.887 306.362 186.98C306.438 187.065 306.362 186.929 306.413 187.057C306.425 187.074 306.442 187.088 306.461 187.098C306.48 187.108 306.501 187.113 306.523 187.113C306.545 187.113 306.566 187.108 306.585 187.098C306.604 187.088 306.621 187.074 306.633 187.057C306.693 187.006 306.837 186.98 306.93 186.827C307 186.668 307.04 186.498 307.049 186.325C307.124 185.924 307.169 185.517 307.185 185.109C307.227 184.021 307.244 182.932 307.227 181.852C307.227 179.244 307.123 176.637 306.913 174.029C306.829 172.864 306.71 171.699 306.582 170.542C306.582 170.262 306.133 170.245 306.141 170.542L306.124 170.602Z" fill="#343B38"/>
<path d="M316.453 156.06C316.402 160.1 316.308 164.139 316.342 168.178C316.376 172.218 316.342 176.078 316.342 180.024C316.342 182.328 316.223 184.642 316.342 186.938C316.342 187.167 316.707 187.244 316.758 186.997C317.119 184.989 317.331 182.956 317.395 180.917C317.488 178.935 317.522 176.946 317.522 174.964C317.522 170.976 317.361 166.996 317.208 163.017C317.123 160.695 316.945 158.382 316.868 156.06C316.868 156.006 316.847 155.954 316.809 155.916C316.771 155.878 316.719 155.856 316.665 155.856C316.611 155.856 316.559 155.878 316.521 155.916C316.483 155.954 316.461 156.006 316.461 156.06H316.453Z" fill="#343B38"/>
<path d="M306.472 204.09C306.243 208.852 306.073 213.622 305.988 218.393C305.929 221.514 305.887 224.643 305.861 227.747C305.861 230.655 305.904 233.563 305.937 236.472C305.937 238.717 306.031 240.97 306.201 243.207C306.201 243.274 306.227 243.339 306.275 243.387C306.323 243.435 306.388 243.462 306.455 243.462C306.523 243.462 306.587 243.435 306.635 243.387C306.683 243.339 306.71 243.274 306.71 243.207C306.803 241.251 306.896 239.295 306.922 237.331C306.964 234.524 307.075 231.71 307.083 228.903C307.083 222.866 307.083 216.831 307.083 210.799C307.083 208.563 307.041 206.318 307.083 204.073C307.071 203.997 307.032 203.928 306.974 203.879C306.915 203.829 306.841 203.802 306.765 203.802C306.688 203.802 306.614 203.829 306.556 203.879C306.498 203.928 306.459 203.997 306.447 204.073L306.472 204.09Z" fill="#343B38"/>
<path d="M293.343 254.338C293.343 256.592 293.207 258.837 293.165 261.081C293.089 265.036 293.097 268.981 293.106 272.936C293.106 276.677 293.106 280.41 293.106 284.152C293.106 285.317 293.106 286.491 293.106 287.664C292.993 289.394 293.073 291.131 293.343 292.843C293.463 293.616 293.759 294.35 294.208 294.99C294.657 295.63 295.247 296.158 295.932 296.534C297.026 297.018 298.291 296.797 299.462 296.806C301.703 296.806 303.977 296.925 306.209 297.12C306.616 297.163 307.015 297.18 307.423 297.188C307.54 297.188 307.653 297.146 307.741 297.068C307.83 296.991 307.887 296.884 307.902 296.768C307.918 296.652 307.891 296.533 307.826 296.436C307.761 296.338 307.663 296.267 307.55 296.236C306.637 295.946 305.689 295.783 304.732 295.751C303.544 295.624 302.348 295.547 301.151 295.496C300.243 295.496 299.326 295.42 298.418 295.445C297.757 295.54 297.083 295.479 296.449 295.266C295.851 294.926 295.382 294.397 295.117 293.761C294.268 291.976 294.514 289.875 294.531 287.953C294.531 286.899 294.531 285.844 294.531 284.79C294.531 281.21 294.455 277.621 294.404 274.041C294.345 270.087 294.311 266.124 294.132 262.136C294.022 259.644 293.92 257.144 293.717 254.653C293.717 254.542 293.717 254.423 293.717 254.304C293.708 254.262 293.685 254.225 293.651 254.198C293.618 254.171 293.577 254.157 293.534 254.157C293.491 254.157 293.45 254.171 293.417 254.198C293.384 254.225 293.361 254.262 293.352 254.304L293.343 254.338Z" fill="#343B38"/>
<path d="M51.9387 244.287C51.8007 245.145 51.7128 246.011 51.6756 246.88C51.6685 247.732 51.711 248.584 51.8029 249.431C51.804 250.115 51.9516 250.791 52.2357 251.413C52.6261 252.008 53.3814 251.889 54.0009 251.983C56.9493 252.334 59.9176 252.49 62.8865 252.45C63.6673 252.45 64.4481 252.45 65.2374 252.45C65.9954 252.488 66.754 252.39 67.4778 252.161C67.8597 251.991 67.6985 251.455 67.3675 251.311C66.8112 251.184 66.2395 251.138 65.6702 251.175C65.0422 251.175 64.4057 251.175 63.7776 251.175C62.3943 251.175 61.0195 251.175 59.6446 251.175C58.2698 251.175 56.9204 251.124 55.554 251.081C54.8836 251.081 54.2216 251.081 53.5512 251.081C53.2117 251.081 52.991 251.081 52.8807 250.681C52.7835 250.314 52.721 249.938 52.694 249.559C52.5808 248.703 52.4875 247.853 52.4139 247.008C52.3206 246.081 52.1848 245.171 52.1339 244.244C52.1339 244.234 52.1319 244.224 52.1281 244.215C52.1242 244.206 52.1186 244.197 52.1115 244.19C52.1044 244.183 52.096 244.177 52.0867 244.173C52.0775 244.17 52.0675 244.168 52.0575 244.168C52.0475 244.168 52.0375 244.17 52.0283 244.173C52.019 244.177 52.0106 244.183 52.0035 244.19C51.9964 244.197 51.9908 244.206 51.9869 244.215C51.9831 244.224 51.9811 244.234 51.9811 244.244L51.9387 244.287Z" fill="#343B38"/>
<path d="M67.6136 249.84C67.1819 251.885 66.9404 253.966 66.8923 256.056C66.8943 256.151 66.9323 256.241 66.9985 256.309C67.0646 256.377 67.1541 256.417 67.2487 256.422C68.6999 256.422 70.1342 256.49 71.5854 256.575C73.2828 256.677 74.9801 256.753 76.6096 256.813C80.0637 256.932 83.5093 257.042 86.9549 257.076C88.5866 257.163 90.2228 257.101 91.8432 256.889C91.8982 256.872 91.9462 256.837 91.9802 256.791C92.0143 256.744 92.0326 256.688 92.0326 256.63C92.0326 256.572 92.0143 256.516 91.9802 256.469C91.9462 256.423 91.8982 256.388 91.8432 256.37C90.4373 256.173 89.0196 256.07 87.5999 256.064C85.9025 256.002 84.2306 255.934 82.5842 255.86C79.1386 255.707 75.676 255.622 72.2304 255.639C71.3817 255.639 70.5331 255.699 69.6844 255.707C68.8357 255.716 68.0974 255.707 67.2996 255.707L67.6646 256.073C67.7579 254.015 67.9107 251.94 67.8428 249.874C67.8369 249.855 67.825 249.838 67.809 249.826C67.793 249.814 67.7736 249.808 67.7537 249.808C67.7338 249.808 67.7144 249.814 67.6984 249.826C67.6823 249.838 67.6705 249.855 67.6646 249.874L67.6136 249.84Z" fill="#343B38"/>
<path d="M30.3485 83.6853C30.3485 84.3401 30.1872 84.9948 30.1194 85.6496C30.0515 86.3044 30.026 86.8912 29.9751 87.5204C29.8733 88.7706 29.8393 90.0253 29.8732 91.2791C29.8754 91.425 29.9343 91.5643 30.0372 91.6675C30.1402 91.7707 30.2793 91.8296 30.4249 91.8318C33.6498 91.8744 36.8663 92.0784 40.0912 92.172C41.5934 92.223 43.104 92.2655 44.6062 92.274C46.1083 92.2825 47.7038 92.1975 49.2569 92.155L51.9302 92.0784C52.8464 92.1156 53.7641 92.0672 54.6714 91.9339C54.7114 91.9217 54.7465 91.8969 54.7713 91.8632C54.7962 91.8295 54.8097 91.7887 54.8097 91.7468C54.8097 91.7049 54.7962 91.6641 54.7713 91.6304C54.7465 91.5967 54.7114 91.5719 54.6714 91.5597C53.8967 91.4394 53.1126 91.391 52.3291 91.4152L49.8764 91.3131L45.2087 91.0835C42.1535 90.9134 39.0813 90.9304 36.0176 90.8624C34.1505 90.8624 32.292 90.8114 30.4249 90.7178L30.985 91.2791C30.985 90.0205 30.985 88.728 30.9256 87.5204C30.9256 86.8912 30.9256 86.2704 30.9256 85.6496C30.9256 85.0289 30.7813 84.3401 30.7219 83.6853C30.7134 83.6477 30.6923 83.6141 30.6623 83.5901C30.6322 83.5661 30.5949 83.553 30.5564 83.553C30.518 83.553 30.4806 83.5661 30.4506 83.5901C30.4205 83.6141 30.3995 83.6477 30.3909 83.6853H30.3485Z" fill="#343B38"/>
<path d="M45.7603 91.6532C45.4271 93.4873 45.2877 95.3514 45.3445 97.2147C45.3474 97.3247 45.3851 97.431 45.4522 97.5181C45.5193 97.6053 45.6124 97.6687 45.7179 97.6994C47.2303 98.1028 48.8023 98.2324 50.3601 98.0821L55.4013 97.7844C58.7959 97.5803 62.1906 97.4868 65.5853 97.2232C66.5443 97.1466 67.5203 97.1041 68.4708 96.9851C69.4095 96.9329 70.3384 96.7673 71.2375 96.4919C71.2897 96.4777 71.3359 96.4468 71.3688 96.4037C71.4017 96.3607 71.4195 96.308 71.4195 96.2538C71.4195 96.1995 71.4017 96.1468 71.3688 96.1038C71.3359 96.0607 71.2897 96.0298 71.2375 96.0157C70.4553 95.8852 69.6605 95.8481 68.8697 95.9051C68.021 95.9051 67.1723 95.9561 66.3916 95.9986C64.6942 96.0837 62.9969 96.2027 61.2995 96.3303C57.9642 96.5769 54.6205 96.764 51.2852 97.0361C50.3941 97.1041 49.4945 97.2062 48.6034 97.2062C47.7009 97.2 46.8058 97.0419 45.9555 96.7385L46.3205 97.2147C46.3096 96.3621 46.2558 95.5107 46.1592 94.6636C46.08 93.6715 46.0461 92.6765 46.0574 91.6787C46.0574 91.5002 45.7688 91.4491 45.7349 91.6787L45.7603 91.6532Z" fill="#343B38"/>
<path d="M352.606 198.613C352.402 199.532 352.207 200.441 352.08 201.377C351.952 202.312 351.851 203.375 351.8 204.379C351.735 204.755 351.779 205.141 351.927 205.493C352.025 205.673 352.163 205.827 352.331 205.944C352.499 206.061 352.692 206.136 352.894 206.164C353.438 206.241 354.023 206.164 354.592 206.224L356.408 206.309C360.991 206.53 365.582 206.743 370.173 206.819C371.446 206.819 372.719 206.819 373.984 206.819H375.936C376.64 206.819 377.37 206.819 378.075 206.819C378.261 206.819 378.346 206.496 378.125 206.462C377.031 206.292 375.902 206.275 374.79 206.198C373.678 206.122 372.66 206.037 371.591 205.969C369.427 205.824 367.246 205.739 365.073 205.663C362.9 205.586 360.753 205.493 358.598 205.493H355.262C354.702 205.493 354.15 205.493 353.565 205.493C352.979 205.493 352.538 205.493 352.572 204.838C352.623 203.809 352.784 202.788 352.877 201.759C352.971 200.731 353.013 199.736 353.022 198.707C353.022 198.469 352.657 198.401 352.606 198.647V198.613Z" fill="#343B38"/>
<path d="M20.9028 102.785C21.8052 102.874 22.7117 102.916 23.6185 102.912C24.4672 102.912 25.3753 102.963 26.2494 102.963H31.596C35.1378 102.963 38.6739 102.963 42.2044 102.963C43.1974 102.963 44.1903 102.963 45.1748 102.904H46.7024C47.1949 102.933 47.6891 102.893 48.1706 102.785C48.2567 102.759 48.3323 102.706 48.386 102.634C48.4398 102.562 48.4688 102.475 48.4688 102.385C48.4688 102.295 48.4398 102.207 48.386 102.135C48.3323 102.063 48.2567 102.011 48.1706 101.985C47.7731 101.893 47.3647 101.855 46.957 101.875H45.5142C44.6656 101.875 43.766 101.824 42.8834 101.815C41.1011 101.815 39.3189 101.815 37.5367 101.815C34.0063 101.815 30.4673 101.815 26.9283 101.815C25.9439 101.815 24.9509 101.815 23.958 101.875C22.9379 101.865 21.918 101.91 20.9028 102.011C20.8047 102.031 20.7166 102.084 20.6532 102.161C20.5899 102.239 20.5552 102.336 20.5552 102.436C20.5552 102.536 20.5899 102.633 20.6532 102.711C20.7166 102.788 20.8047 102.841 20.9028 102.861V102.785Z" fill="#343B38"/>
<path d="M36.3741 116.807C42.4392 116.994 48.5101 117.159 54.5865 117.3C55.4352 117.3 56.2839 117.3 57.1326 117.3H58.4056C58.8574 117.284 59.3079 117.241 59.755 117.173C60.1453 117.122 60.3405 116.476 59.8653 116.399C59.5238 116.322 59.1781 116.265 58.8299 116.229C58.431 116.229 58.0321 116.229 57.6418 116.186L55.3503 116.135C53.8312 116.135 52.3036 116.135 50.776 116.084C47.7293 116.084 44.6741 116.033 41.6273 116.025H36.3741C36.2728 116.025 36.1756 116.065 36.104 116.137C36.0324 116.209 35.9922 116.306 35.9922 116.408C35.9922 116.509 36.0324 116.606 36.104 116.678C36.1756 116.75 36.2728 116.79 36.3741 116.79V116.807Z" fill="#343B38"/>
<path d="M341.514 215.57C351.214 215.748 360.923 215.884 370.623 215.927C371.981 215.927 373.339 215.927 374.697 215.927C376.087 215.915 377.475 215.827 378.855 215.663C379 215.663 379.076 215.391 378.855 215.365C377.663 215.191 376.461 215.08 375.257 215.034C374.069 215.034 372.881 214.949 371.693 214.932L364.394 214.838C359.531 214.796 354.66 214.719 349.797 214.719H341.48C341.388 214.746 341.306 214.801 341.249 214.878C341.191 214.955 341.16 215.048 341.16 215.144C341.16 215.24 341.191 215.334 341.249 215.411C341.306 215.487 341.388 215.543 341.48 215.57H341.514Z" fill="#343B38"/>
<path d="M352.835 224.328C355.186 224.447 357.545 224.507 359.904 224.49C361.05 224.49 362.204 224.439 363.35 224.388C363.936 224.388 364.538 224.388 365.115 224.286C365.692 224.184 366.295 224.099 366.881 224.005C367.262 223.937 367.152 223.376 366.796 223.359C366.21 223.359 365.616 223.282 365.03 223.274C364.445 223.265 363.851 223.274 363.265 223.325L359.82 223.393C357.486 223.393 355.16 223.393 352.835 223.393C352.215 223.393 352.224 224.32 352.835 224.354V224.328Z" fill="#343B38"/>
<path d="M12.119 262.578C13.8352 262.723 15.5593 262.748 17.279 262.655H21.6411C24.4502 262.655 27.2593 262.655 30.0684 262.655C31.9851 262.663 33.9006 262.561 35.8054 262.349C35.882 262.349 35.9554 262.318 36.0095 262.264C36.0636 262.21 36.094 262.136 36.094 262.059C36.094 261.983 36.0636 261.909 36.0095 261.855C35.9554 261.801 35.882 261.77 35.8054 261.77C34.1081 261.592 32.3344 261.592 30.6201 261.575C29.1688 261.575 27.7261 261.575 26.2749 261.532C23.4573 261.532 20.6397 261.532 17.8306 261.532H15.1827C14.1588 261.505 13.1344 261.559 12.119 261.694C11.7032 261.77 11.6947 262.485 12.119 262.544V262.578Z" fill="#343B38"/>
<path d="M12.2294 269.339C14.699 269.594 17.1686 269.823 19.6552 269.84C20.767 269.84 21.8787 269.84 22.982 269.755C23.6355 269.755 24.289 269.662 24.934 269.594C25.6624 269.572 26.3833 269.44 27.0726 269.203C27.1529 269.151 27.2169 269.078 27.2571 268.991C27.2974 268.905 27.3121 268.809 27.2996 268.714C27.2871 268.619 27.248 268.53 27.1867 268.457C27.1255 268.384 27.0447 268.33 26.9538 268.301C26.2357 268.203 25.5078 268.203 24.7897 268.301L22.982 268.386C21.8533 268.437 20.7246 268.471 19.5873 268.48H16.269C14.9196 268.48 13.5787 268.48 12.2209 268.539C12.1151 268.539 12.0136 268.581 11.9388 268.656C11.864 268.731 11.822 268.833 11.822 268.939C11.822 269.045 11.864 269.147 11.9388 269.222C12.0136 269.297 12.1151 269.339 12.2209 269.339H12.2294Z" fill="#343B38"/>
<path d="M283.804 83.2005C288.896 83.4726 294.065 83.7873 299.191 83.9999L306.829 84.3145C309.375 84.4165 311.921 84.5781 314.467 84.5866C315.875 84.5866 317.284 84.5866 318.71 84.6546C320.136 84.7227 321.655 84.7397 323.106 84.6546C323.352 84.6546 323.446 84.238 323.174 84.2039C320.628 83.8468 318.082 83.7958 315.536 83.6342C312.99 83.4726 310.444 83.3706 307.898 83.277C302.806 83.0814 297.646 82.8859 292.512 82.7413C289.643 82.6563 286.766 82.6052 283.889 82.5202C283.448 82.5202 283.456 83.1835 283.889 83.209L283.804 83.2005Z" fill="#343B38"/>
</g>
<defs>
<clipPath id="clip0">
<rect width="403" height="309" fill="white"/>
</clipPath>
</defs>
</svg>
