<svg xmlns="http://www.w3.org/2000/svg" width="532" height="175" fill="none" xmlns:v="https://vecta.io/nano"><g clip-path="url(#A)"><g fill="#8a9990"><path d="M111.176 174.72c-4.866 0-9.622-1.444-13.667-4.149a24.61 24.61 0 0 1-9.06-11.046 24.63 24.63 0 0 1-1.4-14.222 24.61 24.61 0 0 1 6.733-12.603c3.441-3.442 7.824-5.787 12.596-6.737a24.59 24.59 0 0 1 14.213 1.401 24.6 24.6 0 0 1 11.04 9.066c2.703 4.048 4.146 8.807 4.146 13.675 0 6.528-2.592 12.789-7.205 17.405s-10.871 7.21-17.395 7.21zm0-46.607c-4.362 0-8.626 1.294-12.253 3.719a22.07 22.07 0 0 0-8.123 9.904c-1.669 4.033-2.106 8.47-1.255 12.751a22.07 22.07 0 0 0 6.036 11.299 22.05 22.05 0 0 0 24.036 4.784c4.03-1.67 7.475-4.499 9.898-8.128a22.08 22.08 0 0 0 3.717-12.261 22.07 22.07 0 0 0-6.46-15.604c-4.136-4.139-9.746-6.464-15.595-6.464zM24.6 174.72a24.59 24.59 0 0 1-13.667-4.149 24.61 24.61 0 0 1-9.061-11.046 24.63 24.63 0 0 1-1.4-14.222A24.61 24.61 0 0 1 7.205 132.7c3.441-3.442 7.824-5.787 12.596-6.737s9.718-.462 14.213 1.401a24.6 24.6 0 0 1 11.04 9.066c2.703 4.048 4.146 8.807 4.146 13.675a24.62 24.62 0 0 1-7.205 17.405 24.59 24.59 0 0 1-17.395 7.21zm.246-46.174c-12.139 0-22.742 9.218-22.742 21.364s10.315 21.364 22.496 21.364 22.055-8.989 22.055-21.126a21.49 21.49 0 0 0-1.635-8.347c-1.096-2.646-2.709-5.045-4.745-7.058a21.46 21.46 0 0 0-15.472-6.197h.042z"/></g><g fill="#c4f0df"><path d="M111.888 150.521L89.333 91.225a1.5 1.5 0 0 0-1.408-1.019l-15.269-.543.187-1.146 15.074-.433a3.62 3.62 0 0 1 3.393 2.411l22.539 59.271-1.96.755zm-56.207-.051l-16.474-40.436 1.79-.73 18.085 39.774-3.402 1.392z"/><path d="M56.462 151.183H24.227c-.197 0-.39-.055-.558-.158s-.303-.252-.391-.428-.125-.374-.108-.57.09-.384.208-.542l20.266-28.782a1.08 1.08 0 0 1 .333-.307c.132-.078.278-.126.43-.143l53.391-6.96.73 2.114.11-.077 1.315 1.698-42.787 33.951c-.202.152-.452.224-.704.204zm-29.987-2.156l29.283-.849 38.241-30.471-47.614 5.228-19.909 26.092z"/></g><g fill="#fff0b0"><path d="M93.498 93.805c1.841 5.532 3.974 10.964 6.388 16.271a2.02 2.02 0 0 0 .329.721 2.01 2.01 0 0 0 .58.538c.228.139.48.231.744.271a2 2 0 0 0 .79-.036l14.421-1.112c.551.018 1.091-.15 1.535-.475a2.35 2.35 0 0 0 .552-1.07 33.97 33.97 0 0 0 .432-18.452 2.47 2.47 0 0 0-.542-1.154 2.54 2.54 0 0 0-.98-.418c-.352-.068-.715-.062-1.065.019-7.363.704-13.869 1.061-21.207 2.275-1.807.306-2.333 1.494-1.977 2.623zm-22.777-6.281a.9.9 0 0 0-.899.849 8.49 8.49 0 0 0 .28 2.937c.211.306.506.544.848.688 1.094.348 6.786-.221 10.052-.433.16.003.32-.028.467-.093.131-.085.243-.196.329-.326s.145-.276.172-.43a7.52 7.52 0 0 0 .229-3.132.69.69 0 0 0-.085-.263c-.119-.178-.373-.178-.594-.17-3.902.288-9.679.373-10.799.373zM35.06 104.5c-.848.11-2.019.569-2.019 1.655 0 1.426 1.629 3.225 2.876 3.777 1.175.401 2.437.468 3.648.195 4.241-.568 12.724-2.436 13.106-3.955.144-.603-1.111-1.137-2.85-1.367-3.037-.407-12.122-.687-14.76-.305z"/></g><g fill="#c4f0df"><path d="M48.055 140.217c-1.953-4.62-5.222-8.561-9.401-11.332a25.49 25.49 0 0 0-28.185 0c-4.178 2.771-7.448 6.712-9.4 11.332L0 139.249c4.241-10.092 13.573-16.721 24.6-16.721s20.791 6.926 25.058 17.027l-1.603.662zm39.632 0l-1.561-.662a27.22 27.22 0 0 1 7.019-9.783 27.19 27.19 0 0 1 10.551-5.795 27.18 27.18 0 0 1 12.017-.674c4.005.677 7.809 2.242 11.131 4.581l-.984 1.392a25.49 25.49 0 0 0-10.436-4.296 25.48 25.48 0 0 0-21.158 6.064 25.51 25.51 0 0 0-6.579 9.173z"/></g><path d="M61.492 147.033a6.27 6.27 0 0 0-6.125-1.426c-1.045.362-1.937 1.067-2.53 2.001a4.9 4.9 0 0 0-.736 3.142c.215 1.068.704 2.063 1.417 2.886a7.97 7.97 0 0 0 2.517 2.258 7.96 7.96 0 0 0 3.226 1.01c2.273.068 4.649-1.553 4.903-3.82s-.992-4.447-2.672-6.051z" fill="#fff0b0"/><path d="M54.986 91.446l-6.863 2.385V28.822l8.178-1.765-1.315 64.389z" fill="#d5e3f9"/><g fill="#a0b7ee"><path d="M57.683 174.72H47.648a.85.85 0 0 1-.848-.849l-.679-82.264a.85.85 0 0 1 .269-.622.85.85 0 0 1 .639-.227l8.483.628a.85.85 0 0 1 .789.849l2.231 81.645a.85.85 0 0 1-.252.594c-.159.158-.373.246-.597.246zm79.23-173.441S88.408-.605 61.636 15.997C38.733 30.18 32.133 44.542 30.691 48.421a.85.85 0 0 0 .079.735c.068.109.159.2.267.269s.23.111.358.126l6.464.713a.85.85 0 0 0 .452-.079.84.84 0 0 0 .345-.303c2.061-3.242 15.634-23.52 34.669-30.87 31.293-12.07 63.622-9.498 63.622-9.498l-.034-8.233z"/></g><path d="M449.768 174.72H133.214l5.234-442.099H443.83l5.938 442.099z" fill="#ff886d"/><path d="M339.075 145.386h-92.276l2.545-109.307 91.428-2.546-1.697 111.853z" fill="#00b28c"/><path d="M348.432 38.583l-108.241 1.494a2.54 2.54 0 0 1-1.036-.215c-.327-.144-.62-.354-.86-.619s-.422-.576-.533-.915-.151-.698-.116-1.053l1.79-17.714c.063-.613.347-1.182.798-1.602a2.54 2.54 0 0 1 1.654-.681l105.348-3.268c.663-.021 1.309.218 1.799.667s.785 1.071.822 1.735l1.103 19.48a2.56 2.56 0 0 1-.15 1.015c-.118.325-.3.622-.537.874s-.522.453-.838.591-.658.21-1.003.212z" fill="#fffaeb"/><g fill="#d5e3f9"><path d="M289.374 107.946l-29.325.518a.86.86 0 0 1-.339-.07.84.84 0 0 1-.283-.2.86.86 0 0 1-.179-.295c-.039-.11-.055-.227-.047-.344l3.393-55.943c.014-.208.104-.403.253-.548a.85.85 0 0 1 .553-.241l26.874-1.383a.84.84 0 0 1 .337.052.85.85 0 0 1 .485.462c.045.106.068.22.068.335l-.95 56.809a.85.85 0 0 1-.245.597c-.157.159-.371.25-.595.252zm38.461.526h-31.428a.85.85 0 0 1-.6-.248c-.159-.16-.249-.376-.249-.601l2.63-57.114a.85.85 0 0 1 .23-.583c.148-.158.351-.253.567-.266l26.755-1.8a.85.85 0 0 1 .34.049.84.84 0 0 1 .49.463.83.83 0 0 1 .069.337l2.028 58.923c-.002.221-.09.432-.246.589s-.365.247-.586.251z"/></g><g fill="#ffe7e2"><path d="M160.325 70.379l-26.297-1.587a.86.86 0 0 1-.321-.084.85.85 0 0 1-.264-.201c-.074-.084-.131-.181-.167-.287s-.052-.217-.045-.329l.747-11.204a.85.85 0 0 1 .848-.798l24.083-.798a.85.85 0 0 1 .848.755l1.501 13.58a.85.85 0 0 1-.556.907c-.12.043-.249.058-.377.044zm268.507 32.788l-25.533-.789c-.117 0-.232-.024-.339-.07a.84.84 0 0 1-.283-.199.85.85 0 0 1-.227-.639l.789-11.943 24.812-.849a.85.85 0 0 1 .849.798l.746 12.775c.009.114-.005.229-.041.337s-.094.209-.17.295-.169.155-.273.204a.84.84 0 0 1-.33.08z"/></g><path d="M414.632 98.075l-25.576-.789c-.218 0-.427-.083-.585-.233a.85.85 0 0 1-.263-.573l-.747-12.791c-.006-.119.013-.239.056-.35s.109-.213.194-.297a.85.85 0 0 1 .299-.191c.112-.042.231-.06.35-.053l24.83 1.587c.198.013.385.094.529.231s.236.319.26.516l1.484 11.993a.84.84 0 0 1-.204.661c-.078.09-.175.162-.283.212s-.225.076-.344.078z" fill="#ff6952"/><path d="M288.721.948H171.565l-1.764-89.369 117.156-2.623L288.721.948zM174.89-2.447h110.37l-1.629-85.125-110.369 2.47 1.628 82.655z" fill="#00b28c"/><path d="M201.034 136.329H67.192v38.382h133.842v-38.382z" fill="#ff6952"/><path d="M142.715 107.674c-2.757-3.284-9.026-5.61-14.328-4.778s-10.298 5.899-9 11.102c-6.574-4.321-12.232-5.203-17.627-3.684-6.091 1.698-7.244 7.07-5.276 8.7-7.168-2.427-15.218-3.174-20.359-1.171-4.776 1.867-7.329 6.671-6.218 10.627-7.863-2.199-12.224 4.973-10.527 10.083 1.926 5.831 10.96 6.349 16.881 4.711.068 3.327 4.301 7.563 7.94 8.785 12.224 4.108 24.075 1.918 34.61-5.5a27.74 27.74 0 0 0 9.354 6.507c3.535 1.498 7.341 2.245 11.18 2.194s7.623-.899 11.117-2.491a27.72 27.72 0 0 0 9.177-6.754c11.401 8.531 22.963 7.402 28.494 4.38 5.387-2.937 5.505-10.533 4.012-11.238 24.142 6.239 23.387-10.185 8.39-14.234 2.18-4.804-1.569-9.922-7.1-12.061-9.331-3.607-19.129-2.801-26.034 3.616 1.629-4.652-.585-8.946-7.295-11.442-2.87-1.12-5.983-1.464-9.028-1a17.56 17.56 0 0 0-8.32 3.648" fill="#00b28c"/><path d="M91.479 133.078a2.7 2.7 0 0 0-.548-2.595c-.307-.349-.699-.612-1.137-.765a2.69 2.69 0 0 0-1.366-.107c-.457.082-.885.281-1.243.578s-.632.681-.798 1.115a2.7 2.7 0 0 0-.148 1.363c.069.46.255.894.541 1.26a2.82 2.82 0 0 0-1.075-.901c-.429-.205-.902-.298-1.376-.27-.933.102-2.061 1.103-1.323 3.039a6.6 6.6 0 0 0 1.736 2.621c.781.721 1.725 1.243 2.751 1.521 1.04.288 2.138.294 3.181.018s1.995-.824 2.757-1.589c1.697-1.825 2.621-4.388 1.417-5.754-.975-1.078-3.011-.696-3.368.466z" fill="#ffe87b"/><path d="M91.445 135.684c0 1.078-1.001 1.655-2.29 1.367s-2.451-.747-2.451-1.698c0-.602.662-1.069 2.01-1.069s2.731.509 2.731 1.4z" fill="#ff886d"/><path d="M182.448 125.465a2.7 2.7 0 0 0-.548-2.596c-.307-.348-.698-.612-1.137-.765a2.7 2.7 0 0 0-2.609.472c-.358.296-.633.68-.798 1.114a2.7 2.7 0 0 0-.148 1.364c.069.459.255.893.541 1.26a2.81 2.81 0 0 0-1.075-.901 2.82 2.82 0 0 0-1.377-.271c-.933.102-2.061 1.104-1.323 3.039a6.65 6.65 0 0 0 1.743 2.62 6.63 6.63 0 0 0 2.753 1.522c1.04.287 2.138.293 3.181.017s1.995-.823 2.757-1.587c1.697-1.825 2.613-4.388 1.408-5.755-.975-1.078-3.011-.704-3.368.467z" fill="#ffe87b"/><g fill="#ff886d"><path d="M182.423 128.071c0 1.078-1.009 1.697-2.299 1.366s-2.451-.755-2.451-1.697c0-.612.661-1.07 2.01-1.07s2.74.509 2.74 1.401zm-43.11-11.637c.156-.42.199-.874.123-1.316s-.266-.856-.552-1.2a2.54 2.54 0 0 0-2.396-.879c-.386-.016-.769.067-1.114.242a2.27 2.27 0 0 0-.856.756 2.26 2.26 0 0 0-.378 1.077c-.033.385.034.772.194 1.125-.239-.442-.621-.79-1.084-.985a2.21 2.21 0 0 0-1.461-.093c-1.366.424-1.535 2.164-1.069 3.395a7.18 7.18 0 0 0 1.619 2.641c.725.752 1.606 1.337 2.58 1.713.952.39 1.993.506 3.007.333a5.49 5.49 0 0 0 2.728-1.309c1.874-1.613 3.121-4.04 2.086-5.543-.873-1.205-2.935-1.069-3.427.043z"/></g><g fill="#a0b7ee"><path d="M138.754 118.454c0 1.069-1.001 1.647-2.291 1.366s-2.451-.755-2.451-1.697c0-.603.653-1.07 2.01-1.07s2.732.51 2.732 1.401zm13.563 18.41a2.54 2.54 0 0 0 .123-1.313c-.075-.441-.265-.854-.55-1.199a2.55 2.55 0 0 0-1.076-.762 2.54 2.54 0 0 0-1.313-.121 2.27 2.27 0 0 0-1.115.242c-.345.175-.639.435-.855.756s-.346.691-.379 1.077.035.773.195 1.125c-.242-.44-.624-.785-1.086-.981a2.23 2.23 0 0 0-1.459-.097c-1.366.424-1.527 2.164-1.061 3.395a7.18 7.18 0 0 0 1.619 2.641c.725.752 1.606 1.337 2.58 1.713.952.391 1.993.506 3.007.333a5.49 5.49 0 0 0 2.728-1.309c1.874-1.613 3.113-4.04 2.086-5.542-.882-1.206-2.952-1.07-3.444.042z"/></g><path d="M152.148 138.613c0 1.069-1.01 1.646-2.29 1.366s-2.452-.755-2.452-1.698c0-.602.653-1.069 2.01-1.069s2.732.509 2.732 1.401z" fill="#ffe87b"/><path d="M523.237 136.329H389.395v38.382h133.842v-38.382z" fill="#ff6952"/><path d="M457.029 114.405c-2.265-3.285-5.531-4.711-9.866-4.354s-7.464 3.395-6.998 7.223a13.18 13.18 0 0 0-5.333-3.747c-2.062-.782-4.289-1.034-6.474-.733a13.18 13.18 0 0 0-6.035 2.459c-1.774 1.312-3.191 3.049-4.12 5.051-3.469-2.877-9.051-3.684-13.649-2.784s-8.152 4.482-7.346 8.437c-1.463-.66-3.046-1.013-4.651-1.038a11.74 11.74 0 0 0-4.68.894c-2.901 1.358-5.022 4.549-4.564 7.724a6.56 6.56 0 0 0 .87 2.47 6.55 6.55 0 0 0 1.767 1.933c.712.519 1.522.889 2.381 1.088s1.749.222 2.617.068c-.246 4.244 3.164 8.488 6.922 9.651 10.798 3.276 19.722 1.638 27.628-4.371 12.801 9.243 31.531 9.252 44.331 0 3.877 6.926 12.564 8.912 21.208 6.883 4.996-1.162 10.018-5.568 10.807-10.516 6.311 3.633 15.048 5.729 21.775 3.124 6.973-2.7 9.764-7.784 7.694-13.7-2.155-6.128-9.518-8.369-15.032-7.147.849-3.989-2.909-9.336-8.245-11.093-8.814-2.903-18.857-1.384-24.057 2.597-.178-4.015-6.294-6.162-10.824-6.12-6.6.085-12.105 1.902-16.126 6.001z" fill="#00b28c"/><path d="M445.95 125.117a6.04 6.04 0 0 1-3.621 1.034c-1.287-.051-2.523-.511-3.53-1.314-.941.102-2.061 1.103-1.323 3.03.357 1.002.952 1.903 1.733 2.625a6.57 6.57 0 0 0 2.754 1.517 6.05 6.05 0 0 0 3.183.024 6.06 6.06 0 0 0 2.755-1.594c1.697-1.825 2.621-4.38 1.417-5.747-.976-1.111-3.011-.738-3.368.425z" fill="#ffe87b"/><path d="M445.916 127.731c0 1.078-1.001 1.647-2.29 1.367s-2.452-.756-2.452-1.698c0-.603.654-1.069 2.011-1.069s2.731.509 2.731 1.4z" fill="#ff886d"/><path d="M503.93 117.333a6.05 6.05 0 0 1-3.622 1.026c-1.286-.052-2.522-.512-3.529-1.314-.941.102-2.061 1.103-1.323 3.039.357 1.002.952 1.903 1.733 2.624s1.727 1.242 2.754 1.518a6.09 6.09 0 0 0 3.182.018c1.043-.276 1.994-.824 2.756-1.589 1.697-1.825 2.622-4.388 1.417-5.754-.975-1.112-3.011-.73-3.368.432z" fill="#ffe87b"/><g fill="#ff886d"><path d="M503.879 119.948c0 1.069-1.001 1.646-2.29 1.366s-2.452-.755-2.452-1.697c0-.603.662-1.07 2.011-1.07s2.731.501 2.731 1.401zm-12.817 13.674c.156-.42.198-.874.123-1.316s-.266-.856-.553-1.201a2.54 2.54 0 0 0-2.395-.878 2.26 2.26 0 0 0-1.115.245c-.345.176-.639.437-.854.759a2.27 2.27 0 0 0-.376 1.079 2.28 2.28 0 0 0 .199 1.125 2.24 2.24 0 0 0-2.545-1.087c-1.366.425-1.527 2.173-1.069 3.396.34.989.892 1.893 1.617 2.646s1.607 1.34 2.582 1.716a5.51 5.51 0 0 0 3.011.335c1.015-.173 1.962-.627 2.732-1.311 1.875-1.612 3.113-4.048 2.078-5.542-.882-1.214-2.943-1.078-3.435.034z"/></g><g fill="#a0b7ee"><path d="M490.502 135.633c0 1.078-1.001 1.655-2.29 1.367s-2.452-.756-2.452-1.698c0-.611.662-1.069 2.011-1.069s2.731.509 2.731 1.4zm-73.894-1.052c.156-.42.199-.874.123-1.316s-.266-.856-.552-1.2a2.54 2.54 0 0 0-2.396-.879c-.385-.015-.768.07-1.111.245s-.637.436-.852.757a2.27 2.27 0 0 0-.183 2.198c-.243-.449-.632-.801-1.103-.997s-.995-.225-1.484-.081c-1.366.424-1.527 2.164-1.069 3.395a7.18 7.18 0 0 0 1.619 2.641c.725.752 1.606 1.337 2.58 1.713.953.393 1.996.51 3.012.337a5.49 5.49 0 0 0 2.731-1.313c1.875-1.613 3.113-4.04 2.078-5.543-.839-1.179-2.901-1.069-3.393.043z"/></g><path d="M416.439 136.329c0 1.078-1.01 1.647-2.299 1.367s-2.452-.756-2.452-1.698c0-.602.662-1.069 2.011-1.069s2.74.509 2.74 1.4z" fill="#ffe87b"/><g fill="#fffaeb"><path d="M351.087 154.578l-115.443-.849 1.637-22.688c.016-.214.111-.415.269-.562a.85.85 0 0 1 .58-.227l112.117.849a.85.85 0 0 1 .848.849l-.008 22.628z"/><path d="M362.505 174.72h-138.27l1.629-23.537a.85.85 0 0 1 .268-.562c.158-.147.365-.228.58-.227l133.316 1.697c.214 0 .42.08.577.224a.85.85 0 0 1 .271.557l1.629 21.848z"/></g><path d="M309.36.948l.848-94.597 1.748.059 116.324 4.312-4.402 87.603L309.36.948zm4.241-91.075l-.848 87.603 107.927-2.47 4.072-81.017-111.151-4.117z" fill="#00b28c"/><g fill="#343b38"><path d="M138.872 32.048a23.64 23.64 0 0 0 3.292.34l3.291.195 6.659.306 13.242.322h3.715a19.68 19.68 0 0 0 3.733-.212.38.38 0 0 0 .194-.592.38.38 0 0 0-.194-.138c-1.096-.159-2.202-.224-3.309-.195h-3.206l-6.668-.076-13.241-.382-3.623-.136-1.857-.059a18.35 18.35 0 0 0-1.934 0c-.365 0-.501.586-.094.679v-.051zm24.965 6.009l23.09.068 3.207-.059c1.103 0 2.205-.17 3.3-.246.083 0 .163-.033.222-.092s.092-.139.092-.222-.033-.163-.092-.222-.139-.092-.222-.092L192 37.115c-.483 0-.958-.102-1.442-.11h-2.876-5.742c-3.86.051-7.737 0-11.588.212-2.163.11-4.343.119-6.515.17a.33.33 0 1 0 0 .662v.008zm-29.444 18.402a51.1 51.1 0 0 0-.958 7.707l-.094 1.961c-.098.619-.098 1.249 0 1.867a1.41 1.41 0 0 0 .377.591 1.4 1.4 0 0 0 .616.334c.282.035.567.035.848 0 .357 0 .713.051 1.069.076l7.898.458 7.566.407a81.28 81.28 0 0 0 9.094.178.38.38 0 0 0 .325-.378.38.38 0 0 0-.325-.378c-2.545-.322-5.141-.399-7.711-.518l-7.278-.348-7.236-.272-1.926-.051a8.97 8.97 0 0 1-1.968-.051c-.56-.153-.398-.849-.39-1.307v-1.91l.475-8.344a.22.22 0 0 0-.341-.183c-.044.029-.077.073-.092.124l.051.034zm4.191 17.485l11.426.696 11.333.789 6.447.255c.187 0 .246-.297 0-.34l-2.791-.45s-1.849-.28-2.782-.373a159.91 159.91 0 0 0-5.7-.492c-3.835-.272-7.635-.433-11.503-.552-2.163-.068-4.318-.11-6.473-.076-.072 0-.141.029-.191.08s-.08.12-.08.192.029.141.08.192a.27.27 0 0 0 .191.08h.043zm248.869 10.635c-.755 4.244-.187 8.641.483 12.868a.65.65 0 0 0 .225.332c.108.084.241.131.378.135h3.987c1.772 0 3.537-.068 5.31 0l11.146.28 2.545.059a10.08 10.08 0 0 0 2.087 0 .45.45 0 0 0 .218-.164c.053-.076.082-.167.082-.26s-.029-.184-.082-.26a.45.45 0 0 0-.218-.164 8.07 8.07 0 0 0-1.807-.178l-2.197-.076-5.302-.144-5.734-.102c-1.917-.034-3.614-.136-5.421-.195h-4.606l.602.458c-.356-2.054-.678-4.125-.848-6.205s-.263-4.176-.297-6.264c0-.28-.449-.365-.509-.068l-.042-.051z"/><path d="M403.46 97.828a3.87 3.87 0 0 0-.501 2.122l-.254 2.394a.55.55 0 0 0 .164.385c.103.101.242.158.387.158a16.46 16.46 0 0 1 2.664.068l2.545.11 4.945.162 9.798.203 5.895-.195c.076-.012.144-.051.194-.109a.33.33 0 0 0 .077-.209c0-.077-.028-.151-.077-.209a.32.32 0 0 0-.194-.109c-3.35-.357-6.786-.34-10.128-.399l-9.713-.213-2.85-.033h-1.485a9.28 9.28 0 0 1-1.527-.077l.391.679c.135-.781.161-1.587.229-2.376a4.17 4.17 0 0 0-.06-2.216c-.025-.042-.058-.077-.099-.104s-.086-.044-.135-.051a.32.32 0 0 0-.143.013c-.046.015-.088.04-.123.074v-.068zM239.216 20.682a35.55 35.55 0 0 0-.713 4.006l-.568 4.176-.772 8.233c-.051 1.137-.111 2.266.848 3.03s2.299.467 3.393.467l8.178-.051 16.846-.229 16.864-.263 16.491-.187a12.55 12.55 0 0 0 1.951-.187.4.4 0 0 0 .27-.378c0-.083-.026-.164-.074-.232a.4.4 0 0 0-.196-.145 22.9 22.9 0 0 0-3.885-.212h-3.987l-8.084.093-16.432.305-16.431.306-8.075.093h-3.979c-.941 0-2.324.263-2.714-.891-.112-.596-.127-1.207-.043-1.808l.094-1.944a103.38 103.38 0 0 1 .339-4.049l.848-8.131c.051-.672.051-1.348 0-2.02-.007-.025-.022-.047-.042-.063s-.046-.024-.072-.024-.052.009-.072.024-.036.038-.043.063l.06.017z"/><path d="M249.14 40.077c-.127 1.154-.127 2.326-.169 3.48l-.119 3.573-.255 7.639-.559 15.465-.102 4.193v4.108c0 .238.415.34.458.059.178-1.163.254-2.351.322-3.522l.221-3.743.314-7.639.424-15.516.042-4.091-.051-3.964a.28.28 0 0 0-.095-.166c-.051-.042-.115-.066-.18-.066a.28.28 0 0 0-.18.066c-.051.042-.085.101-.096.166l.025-.043zm-12.198 92.484c-.492 4.575-.848 9.175-1.247 13.767-.076.959-.203 1.944-.195 2.911a1.62 1.62 0 0 0 .112.767c.099.242.256.457.456.625a1.78 1.78 0 0 0 1.001.204c1.697.051 3.393.212 5.09.297l5.268.229c7.363.272 14.735.374 22.055.408h22.285l21.503.11h2.545a.35.35 0 0 0 .211-.118c.053-.063.083-.143.083-.226s-.03-.163-.083-.226-.129-.105-.211-.117c-1.696-.17-3.393-.162-5.089-.204l-5.226-.085-10.688-.085h-21.843a840.44 840.44 0 0 1-21.742-.28l-10.578-.382-2.587-.136c-.485.008-.969-.014-1.451-.068-.373-.076-.297-.738-.288-1.061s0-.848.068-1.247c.288-4.669.848-9.337.958-14.014v-1.052c-.01-.053-.038-.1-.079-.133s-.092-.053-.146-.053-.104.019-.145.053-.069.08-.079.133l.042-.017zm90.427 19.36c8.381.365 16.779.552 25.169.62h3.511a35.43 35.43 0 0 0 3.555-.059c.099 0 .194-.04.264-.11s.109-.165.109-.264-.039-.194-.109-.264-.165-.109-.264-.109c-1.044-.111-2.096-.085-3.147-.102l-3.097-.06-6.328-.118-12.597-.187c-2.358 0-4.708 0-7.066.11a.26.26 0 0 0-.155.091c-.039.047-.061.107-.061.168a.27.27 0 0 0 .061.169c.039.048.094.079.155.09v.025zm-101.667.111c-.178.981-.28 1.974-.305 2.971l-.339 4.439-.806 10.355a48.54 48.54 0 0 0-.221 4.957c.001.044.018.086.048.12a.18.18 0 0 0 .113.06c.044.006.088-.003.126-.027s.065-.06.078-.102a28.56 28.56 0 0 0 .645-4.244l.407-5.093.517-9.829.068-2.02a8.96 8.96 0 0 0 0-1.519c0-.17-.28-.238-.322-.043l-.009-.025zm2.935 16.203l-.212 3.209c0 .551-.076 1.103-.093 1.697a3.4 3.4 0 0 0 .187 1.698c.02.033.049.061.083.08a.23.23 0 0 0 .112.029c.039 0 .077-.01.112-.029s.062-.047.083-.08a4.27 4.27 0 0 0 .204-1.698l.076-1.697a22.62 22.62 0 0 0 .085-3.209.32.32 0 0 0-.527-.193c-.058.049-.097.118-.11.193zm2.783 1.256c-.102.849-.102 1.698-.136 2.547l-.059 1.332c-.078.482-.01.975.195 1.418.021.033.051.06.086.079s.074.029.113.029.079-.01.114-.029a.23.23 0 0 0 .085-.079c.188-.448.255-.936.196-1.418v-1.332a18.99 18.99 0 0 0 0-2.547c-.013-.075-.052-.144-.11-.193a.32.32 0 0 0-.417 0c-.058.049-.097.118-.11.193h.043zm2.706 1.214c-.102.679-.11 1.384-.161 2.071 0 .365-.043.722-.06 1.087a1.39 1.39 0 0 0 .229 1.086c.043.043.101.066.162.066s.118-.023.161-.066a1.51 1.51 0 0 0 .237-1.086v-1.087a10.54 10.54 0 0 0 0-2.071.31.31 0 0 0-.305-.241c-.071 0-.139.023-.195.067a.32.32 0 0 0-.111.174h.043zM96.043 136.177c-1.482.02-2.925.478-4.148 1.315a9.57 9.57 0 0 0-2.223 1.774c-.694.662-1.168 1.521-1.357 2.462 0 .297.373.339.517.144a17.15 17.15 0 0 1 1.519-2.198c.586-.623 1.247-1.17 1.968-1.63a9.86 9.86 0 0 1 2.053-1.027 5.43 5.43 0 0 1 1.697-.408.22.22 0 0 0 .127-.076c.032-.039.05-.089.05-.14a.22.22 0 0 0-.05-.14.21.21 0 0 0-.127-.076h-.025zm-15.253.729c.365 0 .721-.101 1.086-.101a4.08 4.08 0 0 1 1.06.144 6.19 6.19 0 0 1 1.96.959 8.14 8.14 0 0 1 1.442 1.316l.475.602c.153.213.28.433.484.518a.28.28 0 0 0 .101.035c.036.004.072.002.107-.008a.27.27 0 0 0 .096-.048c.029-.023.052-.049.07-.081.254-.526-.288-1.188-.619-1.579a7.92 7.92 0 0 0-1.697-1.502 6.7 6.7 0 0 0-2.222-.942 3.48 3.48 0 0 0-2.434.204.26.26 0 0 0-.103.128c-.02.052-.022.11-.007.164s.047.101.091.136.098.054.154.055h-.042zm48.149-17.366c1.504-.011 2.971.466 4.182 1.358a19.93 19.93 0 0 1 1.637 1.274c.244.198.468.42.67.662.102.127.187.271.289.407s.237.178.339.289c.03.029.067.051.107.062s.084.01.124-.001.078-.033.107-.063a.24.24 0 0 0 .061-.109c.088-.142.132-.307.127-.475a1.58 1.58 0 0 0-.204-.543c-.21-.32-.467-.606-.763-.849-.611-.539-1.266-1.024-1.96-1.451-.691-.464-1.471-.779-2.29-.925a6.01 6.01 0 0 0-2.469.076c-.035.008-.067.028-.089.057s-.035.063-.035.1a.16.16 0 0 0 .124.157l.043-.026zm14.862.017a6.6 6.6 0 0 0-3.232 1.104c-1.343.732-2.516 1.738-3.444 2.953a4.41 4.41 0 0 0-.552 1.019 1.34 1.34 0 0 0-.159.538c-.015.189.011.379.075.557.024.042.058.077.099.104s.086.044.134.051a.32.32 0 0 0 .144-.013.31.31 0 0 0 .123-.074c.263-.204.365-.688.517-.976.196-.344.42-.67.671-.976a9.91 9.91 0 0 1 1.874-1.757 13.2 13.2 0 0 1 2.113-1.307 4.78 4.78 0 0 1 1.637-.612c.081 0 .158-.032.216-.089s.089-.135.089-.216-.032-.159-.089-.216-.135-.09-.216-.09zm-2.494 19.65c1.687.113 3.263.881 4.394 2.139.51.55.944 1.166 1.289 1.833l.475.993c.101.317.293.598.552.806.03.017.063.027.097.029s.069-.004.101-.017.06-.033.083-.059.04-.055.05-.088a1.49 1.49 0 0 0-.102-1.078 6.69 6.69 0 0 0-.526-1.112 9.61 9.61 0 0 0-1.519-1.995c-.634-.65-1.397-1.16-2.24-1.498a6.53 6.53 0 0 0-2.654-.463c-.068 0-.132.027-.18.075s-.075.113-.075.18.027.132.075.18.112.075.18.075zm29.97-9.719a8.69 8.69 0 0 1 4.631 1.095c1.231.702 2.323 1.622 3.224 2.716.356.399.958-.11.721-.552-.838-1.369-2.093-2.434-3.58-3.038-1.591-.73-3.36-.978-5.09-.713-.28.042-.212.509.068.492h.026zm9.662 4.804a10.48 10.48 0 0 1 3.138-3.48 10.79 10.79 0 0 1 2.189-1.197c.356-.136.722-.246 1.094-.331a2.65 2.65 0 0 0 1.103-.331.35.35 0 0 0 .078-.131c.016-.049.021-.101.015-.152s-.025-.1-.052-.144-.065-.08-.109-.107c-.305-.213-.848-.094-1.23-.043-.429.073-.85.19-1.256.348-.868.315-1.685.755-2.426 1.307-1.458.943-2.546 2.362-3.079 4.015-.076.314.382.526.543.229l-.008.017zm224.311 2.462a9.1 9.1 0 0 1 4.292 1.697 6.94 6.94 0 0 1 1.552 1.638c.418.699.795 1.422 1.129 2.165.178.331.805.195.755-.204-.351-1.752-1.379-3.295-2.859-4.295-1.395-1.013-3.07-1.568-4.793-1.587-.314 0-.407.518-.076.569v.017zm8.712 5.228c1.028-1.101 2.239-2.017 3.579-2.707a10.36 10.36 0 0 1 1.892-.578l.984-.195c.322.001.642-.06.942-.178a.28.28 0 0 0 .097-.099c.023-.041.035-.087.035-.134s-.012-.094-.035-.135a.28.28 0 0 0-.097-.099 1.99 1.99 0 0 0-1.044-.102c-.357.001-.714.024-1.069.068a8.41 8.41 0 0 0-2.129.611c-1.539.609-2.803 1.759-3.554 3.234-.036.053-.05.118-.04.181a.26.26 0 0 0 .094.161c.05.04.114.058.178.053s.123-.034.167-.081zm21.597-14.047a6.73 6.73 0 0 1 4.496 1.825c.635.514 1.204 1.104 1.696 1.757a9.02 9.02 0 0 1 .569.899c.144.255.28.671.534.849a.35.35 0 0 0 .257.035c.087-.023.162-.077.21-.154.186-.322 0-.789-.145-1.103-.171-.361-.382-.703-.627-1.019-.563-.746-1.228-1.409-1.977-1.969-1.417-1.189-3.247-1.766-5.089-1.604-.297.042-.23.535.067.518l.009-.034zm15.159.221c-1.395.174-2.717.722-3.826 1.587-.691.498-1.315 1.083-1.858 1.74a6.57 6.57 0 0 0-1.357 2.308.46.46 0 0 0 .25.599.46.46 0 0 0 .598-.251 14.01 14.01 0 0 1 1.23-1.969c.513-.616 1.081-1.184 1.697-1.697.523-.451 1.092-.846 1.696-1.18.475-.293 1.002-.489 1.553-.577.364-.043.381-.611 0-.586l.017.026zm28.96 8.309c1.238-.255 2.545.391 3.58 1.002 1.342.796 2.498 1.87 3.393 3.149.178.254.899 1.561 1.281 1.001.161-.237 0-.662-.128-.899a4.4 4.4 0 0 0-.644-1.044c-.941-1.229-2.136-2.24-3.504-2.963a6.53 6.53 0 0 0-4.139-.899c-.424.076-.246.746.178.653h-.017zm9.662 4.719a10.34 10.34 0 0 1 3.512-3.242c1.043-.652 2.191-1.12 3.393-1.384.119 0 .119-.229 0-.246-.567-.078-1.143-.043-1.697.102-.735.18-1.441.466-2.095.849-1.514.856-2.758 2.12-3.588 3.65-.026.064-.028.135-.005.2s.067.121.127.156a.29.29 0 0 0 .197.035c.068-.012.129-.049.173-.103l-.017-.017zm4.36-21.049c.399.11.848.135 1.213.246.386.1.761.24 1.12.416a7.25 7.25 0 0 1 1.815 1.307c.53.524.986 1.118 1.357 1.765.276.659.638 1.279 1.078 1.842.032.027.071.044.113.049s.084 0 .122-.016a.23.23 0 0 0 .096-.078c.025-.034.039-.074.042-.116-.032-.825-.329-1.617-.848-2.258-.43-.693-.952-1.325-1.553-1.876-.609-.548-1.31-.984-2.07-1.29-.798-.354-1.679-.48-2.544-.365-.04.012-.075.037-.1.071s-.039.074-.039.116.014.082.039.116a.2.2 0 0 0 .1.071h.059zm15.388.28a8.82 8.82 0 0 0-4.606 1.553 12.68 12.68 0 0 0-2.096 1.765c-.706.645-1.225 1.469-1.501 2.385 0 .162.153.357.314.238.671-.567 1.282-1.201 1.824-1.893.584-.627 1.229-1.196 1.925-1.697 1.257-.911 2.71-1.513 4.242-1.757.339-.043.254-.603-.085-.594h-.017zm-359.901 23.698a4.29 4.29 0 0 0 .849-.73c.3-.271.615-.526.941-.764.593-.437 1.22-.826 1.875-1.163a38.47 38.47 0 0 1 3.97-1.494.23.23 0 0 0 .114-.097c.026-.044.036-.096.029-.147a.23.23 0 0 0-.203-.197c-1.513-.019-3.006.352-4.334 1.078a12.3 12.3 0 0 0-1.985 1.239l-.908.755c-.348.276-.637.62-.848 1.01-.041.072-.057.154-.046.235a.38.38 0 0 0 .106.214c.058.058.133.095.214.106s.164-.005.235-.045h-.009zM409.72 64.989a13.73 13.73 0 0 0 3.639.085l3.716-.102 7.261-.136h14.709 4.055a17.69 17.69 0 0 0 4.182-.161.45.45 0 0 0 0-.848 15.19 15.19 0 0 0-3.673-.28c-1.238 0-2.477-.051-3.715-.059h-7.27l-14.709.348-4.055.17-2.028.093a8.04 8.04 0 0 0-2.112.306.33.33 0 0 0-.226.315c0 .07.022.137.062.194s.098.099.164.121v-.042zm17.381 6.705c1.273.076 2.545-.068 3.843-.11l3.767-.076h3.766a17.61 17.61 0 0 0 3.783-.187c.074-.023.139-.07.185-.132a.37.37 0 0 0 0-.431c-.046-.062-.111-.109-.185-.132a15.26 15.26 0 0 0-3.783-.322h-3.851l-3.843.17a27.11 27.11 0 0 0-3.8.331c-.509.11-.357.849.118.849v.043z"/></g></g><defs><clipPath id="A"><path fill="#fff" d="M0 0h532v175H0z"/></clipPath></defs></svg>