<svg xmlns="http://www.w3.org/2000/svg" width="114" height="50" fill="none" xmlns:v="https://vecta.io/nano"><g clip-path="url(#A)"><path d="M78.371 2.761C72.57.193 59.014-1.082 46.169 1.158c-5.193.906-12.039 4.044-15.158 10.413-1.714 3.558-1.714 8.198-6.624 8.038-9.674-.311-17.532 1.418-21.628 6.805-6.315 8.391-.951 17.31 7.712 19.684 14.24 3.828 29.113 4.858 43.761 3.029 6.589-.839 13.11-2.173 19.708-2.517s13.462.377 20.12-.21 13.556-2.752 17.926-7.719a8.96 8.96 0 0 0 1.752-3.581c.305-1.306.309-2.662.013-3.971-1.868-6.092-7.644-7.434-16.709-8.491-2.493-.294-6.786-1.905-6.675-7.04S85.003 5.698 78.371 2.761z" fill="#d5e3f9"/></g><defs><clipPath id="A"><path fill="#fff" d="M0 0h114v50H0z"/></clipPath></defs></svg>