<svg xmlns="http://www.w3.org/2000/svg" width="115" height="146" fill="none" xmlns:v="https://vecta.io/nano"><g clip-path="url(#A)"><path d="M41.672 106.402a288.28 288.28 0 0 1-1.787 32.797c-1.615 14.7-14.681 1.702-15.248-3.311s-6.555-5.55-8.479-1.337c-2.431 5.32-19.054 16.888-15.72 0 1.914-9.521 3.123-19.168 3.617-28.864l37.617.715z" fill="#444e4a"/><path d="M84.375 64.309c1.314-1.115 9.45-9.414 11.236-11.517 1.168-1.396 5.154-6.188 6.313-5.048s0 3.405-1.082 4.937c2.577-1.575 8.479-5.686 10.068-4.256s-3.075 4.588-4.226 5.533c1.838-1.021 6.7-4.188 7.654-2.894 1.168 1.575-3.505 4.911-5.67 6.044 2.105-1.081 5.446-2.69 6.237-1.175.541 1.047-1.366 2.247-2.655 3.073-1.649 1.055-17.275 12.768-21.863 14.845l-6.013-9.542z" fill="#ffe87b"/><path d="M41.234 59.713c8.453 3.294 15.231 10.3 25.496 7.389 3.161-.851 1.624-2.792 5.524-3.677 1.615-.375 3.797.655 5.24-.136 1.237-.681 2.388-3.354 3.848-3.405 1.813-.094 3.436 1.073 4.794 2.247 3.961 3.38 7.43 7.287 10.308 11.611 1.211 1.822 2.354 3.992 1.718 6.086-.739 2.503-5.369 1.234-7.499 2.4-2.577 1.422-2.826 4.426-5.386 5.959-4.295 2.554-9.02-.724-12.568 2.094-2.826 2.239-12.276 1.209-15.643.358-5-1.26-13.109-5.737-13.143-6.026 1.856 13.943 2.208 30.192.275 31.852-1.778 1.532-4.295 1.702-6.7 1.77-8.496.307-17 1.184-25.496.903-6.116-.196-7.955-1.49-8.676-4.529-2.465-10.376-2.053-26.081.971-39.896L8.917 54.81a75.64 75.64 0 0 1 32.317 4.903z" fill="#7393ed"/><path d="M21.562 11.219c4.914-3.626 13.659-4.699 19.586-1.302s8.9 10.419 8.848 22.744c-.043 9.066-5.275 18.284-13.745 21.663s-19.543-.196-23.452-8.359a21.88 21.88 0 0 1-1.899-8.231c-.593-10.878 5.747-22.889 10.661-26.515z" fill="#ffe87b"/><path d="M32.79 29.299a.92.92 0 0 1 .367-.238.93.93 0 0 1 .437-.043c.147.021.286.077.407.163s.218.2.284.331c.404.63.498 1.702.283 3.498-.155 1.319-.704 2.554-1.409 2.869s-1.46-.434-1.615-1.702c-.043-.413-.043-.83 0-1.243.089-1.298.519-2.551 1.246-3.635z" fill="#ff886d"/><g fill="#ffe87b"><path d="M49.343 28.039c1.718 0 7.465-.289 8.359 5.005 1.039 6.112-5.653 8.708-9.999 7.814a34.34 34.34 0 0 0 1.649-6.384c.266-2.137.263-4.299-.009-6.435zM14.879 21.28C9.931 18.19 5 21.8 4.622 25.426c-.55 5.252 4.295 8.24 6.984 7.933a42.21 42.21 0 0 1 1.22-6.81 35.73 35.73 0 0 1 2.053-5.269z"/></g><g fill="#343b38"><path d="M37.695 32.116c-.095.851.335 1.762.782 1.813s1.022-.417 1.117-1.268-.258-1.754-.747-1.813-1.048.417-1.151 1.268zm-9.183-1.881c-.095.851-.73 1.643-1.177 1.592s-.859-.638-.799-1.49.67-1.651 1.16-1.592.919.639.816 1.49z"/></g><path d="M26.776 4.954c.301-1.958 2.122-3.269 3.917-4.018C36.14-1.328 45.108.758 49.704 4.571a10.9 10.9 0 0 1 3.496 4.733 6.39 6.39 0 0 1 .358 2.935 6.41 6.41 0 0 1-1.002 2.785c.685-.2 1.422-.127 2.053.204a6.54 6.54 0 0 1 2.573 2.385 6.46 6.46 0 0 1 .957 3.36 9.32 9.32 0 0 1-2.637 6.393 16.25 16.25 0 0 1-5.833 3.788c.558-2.554 0-6.086-2.079-7.848-.301 1.626-3.436 4.145-7.98 2.886-2.328-.638-3.187-4.648-2.577-6.035-.773 1.651-4.613 4.154-7.989 4.537-5.567.621-8.015-1.915-8.9-4.724a15.46 15.46 0 0 0-6.237 7.023C11.821 21.4 8.161 11.27 15.36 6.027c3.333-2.417 7.542-2.477 11.417-1.073z" fill="#212121"/><path d="M26.321 37.172c1.409-.724 3.05.23 3.874 1.056s2.216 1.702 5.532.996c.186-.051.381-.066.573-.042a1.47 1.47 0 0 1 .545.18c.168.095.315.222.433.374a1.44 1.44 0 0 1 .254.51 2.64 2.64 0 0 1-.132 1.285 2.66 2.66 0 0 1-.727 1.073c-1.353 1.12-3.074 1.711-4.836 1.66-4.665-.111-6.305-2.017-6.872-3.711a2.71 2.71 0 0 1 .029-1.946c.25-.623.723-1.133 1.329-1.433z" fill="#ff886d"/><g fill="#343b38"><path d="M39.842 28.482c2.637-.894 6.211-.732 8.058 1.575 1.297 1.609 2.122 4.256 1.392 6.282-1.151 3.15-4.699 4.699-7.895 4.426-1.458-.056-2.847-.626-3.917-1.609a6.78 6.78 0 0 1-1.718-3.899 5.71 5.71 0 0 1 .567-3.592c.76-1.414 1.967-2.541 3.436-3.209.464-.179.266-.919-.206-.741a7.4 7.4 0 0 0-3.264 2.517c-.825 1.129-1.307 2.468-1.392 3.859a8.39 8.39 0 0 0 1.151 4.563c.814 1.291 2.111 2.21 3.608 2.554a8.92 8.92 0 0 0 5.26-.122c1.7-.569 3.185-1.636 4.258-3.062 1.572-2.273 1.211-5.235-.112-7.55-.748-1.382-2.007-2.423-3.514-2.903a10.4 10.4 0 0 0-6.013.128c-.369.196-.172.936.301.783zm-16.897-2.673a7.9 7.9 0 0 1 3.857.196 4.74 4.74 0 0 1 1.888.916 4.68 4.68 0 0 1 1.299 1.638c1.254 2.554-.077 5.959-2.208 7.661-1.19.845-2.57 1.391-4.02 1.592a8.16 8.16 0 0 1-2.981 0 5.38 5.38 0 0 1-3.236-2.126 5.29 5.29 0 0 1-.948-3.731 6.07 6.07 0 0 1 1.606-3.703c1.37-1.155 2.994-1.977 4.742-2.4.099-.027.183-.092.234-.181a.38.38 0 0 0 .037-.292c-.027-.098-.093-.182-.182-.232a.39.39 0 0 0-.294-.036c-1.745.451-3.38 1.25-4.802 2.349a6.35 6.35 0 0 0-1.95 3.499c-.704 2.962.739 6.308 3.711 7.346 1.326.384 2.719.487 4.088.302s2.683-.653 3.858-1.374c2.577-1.541 4.295-5.294 3.367-8.163a5.42 5.42 0 0 0-1.262-2.187c-.588-.621-1.315-1.096-2.123-1.388-1.56-.585-3.255-.718-4.888-.383a.39.39 0 0 0-.145.187.38.38 0 0 0-.007.236.39.39 0 0 0 .358.275z"/><path d="M30.977 29.793c.327-.17.682-.282 1.048-.332.39-.083.787-.122 1.185-.119 1.082 0 2.371.196 3.032 1.158.283.409.953 0 .67-.383-.419-.508-.954-.912-1.559-1.178a4.26 4.26 0 0 0-1.928-.354 6.3 6.3 0 0 0-1.495.119c-.47.063-.924.21-1.34.434-.421.255 0 .919.387.656z"/></g><path d="M32.36 51.073c.636 1.515 0 5.686-.241 8.121-.335 3.796-3.556 6.35-5.652 6.427-3.178.187-7.147-1.575-7.482-6.571-.215-3.286.567-8.631 1.95-10.461 1.108-1.473 4.089-1.2 6.443-.613 1.77.434 4.347 1.583 4.982 3.099z" fill="#ffe87b"/><g fill="#343b38"><path d="M25.771 55.474a17.03 17.03 0 0 0 7.86.102 19.73 19.73 0 0 0 10.618-6.163 24.07 24.07 0 0 0 2.68-3.558 23.2 23.2 0 0 0 1.177-2.213l.55-1.217.421-1.319c.146-.468-.481-.638-.662-.272s-.412.672-.584 1.021l-.515 1.03-1.048 1.915c-.66 1.135-1.409 2.217-2.242 3.235a20.18 20.18 0 0 1-5 4.367 19.89 19.89 0 0 1-9.561 2.843 16.46 16.46 0 0 1-3.608-.204c-.292-.051-.421.358-.129.434h.043zm16.503 19.433l.954 5.959.481 2.996.223 1.456a5.2 5.2 0 0 0 .284 1.507c.028.045.068.081.117.103s.102.031.155.023.102-.029.143-.064a.27.27 0 0 0 .084-.131 4.34 4.34 0 0 0 0-1.456c0-.519-.069-1.038-.12-1.558l-.421-3.047c-.36-2.007-.936-3.971-1.718-5.856 0-.094-.215-.051-.198.051l.017.017z"/><path d="M45.074 77.86c.151 1.227.116 2.469-.103 3.686-.241 1.217-.859 2.332-.971 3.567-.001.06.016.118.049.168a.3.3 0 0 0 .136.112c.056.023.117.029.176.017a.3.3 0 0 0 .155-.083c1.014-.851 1.314-2.358 1.486-3.635.185-1.315.023-2.656-.472-3.89-.094-.238-.515-.238-.49.06h.034zm57.015-27.911a28.88 28.88 0 0 0-2.019 3.149c-.388.886-.539 1.857-.438 2.818.175.9.086 1.83-.258 2.681a5.99 5.99 0 0 1-2.027 1.839c-.155.119-.198.46.069.502.971.128 1.933-.681 2.483-1.379a3.83 3.83 0 0 0 .658-1.37c.125-.495.15-1.011.072-1.516a6.69 6.69 0 0 1 .146-3.03 13.27 13.27 0 0 1 .859-1.66 8.75 8.75 0 0 0 .774-1.932c.007-.036.002-.074-.015-.107s-.045-.059-.079-.074-.073-.018-.109-.008-.068.031-.09.061l-.025.026zm2.963 5.244a13.14 13.14 0 0 0 2.114-1.498l2.577-2.145c.309-.261.596-.545.859-.851.016-.031.023-.065.019-.1s-.016-.067-.038-.094a.18.18 0 0 0-.187-.061 4.21 4.21 0 0 0-.859.553l-1.203.953-2.577 2.162a8.84 8.84 0 0 1-.937.758c-.035.03-.058.071-.066.116a.2.2 0 0 0 .025.131c.024.04.06.07.104.085a.2.2 0 0 0 .135-.001l.034-.008zm2.5 2.868l2.345-1.166a11.4 11.4 0 0 0 2.217-1.217c.086-.068 0-.196-.086-.196a4.89 4.89 0 0 0-2.44.809l-2.285 1.345a.25.25 0 0 0-.101.149.25.25 0 0 0 .028.177c.031.054.082.094.142.112a.25.25 0 0 0 .18-.013zM8.161 24.609a2.46 2.46 0 0 1 1.287.624 2.42 2.42 0 0 1 .714 1.231 2.98 2.98 0 0 1 0 1.456 9.68 9.68 0 0 1-.627 1.507.51.51 0 0 0 .138.647.51.51 0 0 0 .661 0 3.29 3.29 0 0 0 .902-1.873 3.72 3.72 0 0 0-.249-2.094 3.21 3.21 0 0 0-1.147-1.34 3.26 3.26 0 0 0-1.688-.541c-.049.01-.092.036-.124.074s-.048.086-.048.135.017.097.048.135.075.064.124.074l.009-.034z"/><path d="M10.506 25.605c-.108-.034-.221-.051-.335-.051h-.344a4.72 4.72 0 0 0-.593.17 6.33 6.33 0 0 0-.636.23 2.19 2.19 0 0 0-.567.358.38.38 0 0 0-.06.46c.045.069.111.122.188.152a.41.41 0 0 0 .242.018 2.8 2.8 0 0 0 .636-.213h.077.112l.215-.094h0 .052l.541-.204a2.46 2.46 0 0 0 .309-.136c.096-.059.185-.127.266-.204.03-.032.051-.07.061-.112a.26.26 0 0 0-.001-.127c-.011-.042-.033-.08-.063-.111s-.068-.054-.109-.067l.009-.068zm44.593 7.303a4.51 4.51 0 0 0-3.135 1.396c-.418.416-.754.907-.988 1.447a1.97 1.97 0 0 0-.223.953c0 .23 0 .579.172.775.038.028.085.044.133.044a.22.22 0 0 0 .133-.044c.113-.083.197-.199.241-.332l.052-.162s.12-.221 0-.111a3.86 3.86 0 0 0 .318-.732 4.71 4.71 0 0 1 .79-1.226c.671-.748 1.581-1.247 2.577-1.413.369-.059.283-.647-.086-.638l.017.043z"/><path d="M53.046 34.372h.12.06a1.17 1.17 0 0 1 .223.128l.112.077.077.059c.077.043.146.111.215.145s0 0 0 0l.06.051.094.085c.059.061.122.118.189.17l.189.179a.52.52 0 0 0 .163.156c.065.04.139.065.215.073.071-.003.139-.028.196-.07a.35.35 0 0 0 .122-.168c.077-.247-.189-.536-.335-.715-.145-.156-.317-.285-.507-.383-.174-.11-.366-.187-.567-.23a2.94 2.94 0 0 0-.61-.094c-.055 0-.108.019-.149.055s-.068.086-.074.14.003.111.033.158.076.081.13.097l.043.085z"/></g></g><defs><clipPath id="A"><path fill="#fff" d="M0 0h115v146H0z"/></clipPath></defs></svg>