<svg xmlns="http://www.w3.org/2000/svg" width="367" height="76" fill="none" xmlns:v="https://vecta.io/nano"><rect x="77" y="5" width="290" height="68" rx="4" fill="#fff0b0"/><path d="M29.376-40.792v-4.158H45.36c1.458 0 2.106-.756 2.106-2.43s-.648-2.43-2.106-2.43H11.232v-7.776h33.804c1.458 0 2.106-.756 2.106-2.43s-.648-2.43-2.106-2.43H8.694c-1.89 0-2.808.756-2.808 2.7v12.258c0 1.782.918 2.538 2.808 2.538h15.174v4.158H4.698c-1.458 0-2.16.81-2.16 2.538s.702 2.484 2.16 2.484H48.6c1.512 0 2.16-.756 2.16-2.484s-.648-2.538-2.16-2.538H29.376zm-14.202 8.478c-6.426 0-9.99 3.618-9.99 9.342s3.564 9.288 9.99 9.288h23.004c6.426 0 9.936-3.564 9.936-9.288s-3.51-9.342-9.936-9.342H15.174zm.702 13.824c-3.456 0-5.4-1.512-5.4-4.482 0-3.078 1.944-4.482 5.4-4.482H37.53c3.348 0 5.346 1.512 5.346 4.482s-1.998 4.482-5.346 4.482H15.876zm82.203-45.09c-1.728 0-2.646.756-2.646 2.376v44.82c0 1.674.864 2.376 2.646 2.376s2.592-.702 2.592-2.376v-44.82c0-1.62-.864-2.376-2.592-2.376zm-10.476.27c-1.728 0-2.646.702-2.646 2.376v16.848h-8.208c-1.62 0-2.484.918-2.484 2.538s.864 2.538 2.484 2.538h8.208v22.41c0 1.674.918 2.376 2.646 2.376s2.592-.702 2.592-2.376v-44.334c0-1.674-.918-2.376-2.592-2.376zm-25.65 42.66v-39.798c0-1.62-.864-2.376-2.7-2.376s-2.7.756-2.7 2.376v42.336c0 1.728.756 2.43 2.43 2.43h18.9c1.512 0 2.106-.756 2.106-2.43 0-1.728-.594-2.538-2.106-2.538h-15.93zm74.967-22.518c-1.566 0-2.376.702-2.376 2.106v24.408c0 1.404.81 2.106 2.376 2.106s2.376-.702 2.376-2.106v-24.408c0-1.404-.81-2.106-2.376-2.106zm-7.938.324c-1.566 0-2.322.702-2.322 2.106v8.694h-2.97v-3.888c0-3.24-2.16-6.426-7.668-6.426s-7.668 3.186-7.668 6.426v14.31c0 3.24 2.16 6.426 7.668 6.426s7.668-3.186 7.668-6.426v-5.886h2.97v10.53c0 1.404.756 2.106 2.322 2.106s2.322-.702 2.322-2.106v-23.76c0-1.404-.756-2.106-2.322-2.106zm-9.936 20.358c0 1.728-1.08 2.97-3.024 2.97s-3.024-1.242-3.024-2.97v-12.582c0-1.728 1.08-2.97 3.024-2.97s3.024 1.242 3.024 2.97v12.582zm49.853-41.094c-1.836 0-2.538.756-2.538 2.376v17.28h-4.968c-1.458 0-2.106.648-2.106 2.376s.648 2.376 2.106 2.376h4.968v22.788c0 1.62.702 2.376 2.538 2.376s2.538-.756 2.538-2.376v-44.82c0-1.62-.702-2.376-2.538-2.376zm-13.014 3.186c0-1.62-.702-2.376-2.538-2.376s-2.538.756-2.538 2.376v27.324l-7.182 13.878c-.756 1.458-.594 2.538 1.026 3.402 1.566.81 2.538.378 3.294-1.08l5.4-10.422 5.4 10.422c.756 1.458 1.728 1.89 3.294 1.08 1.62-.864 1.782-1.944 1.026-3.402l-7.182-13.878v-27.324zm56.86 17.118v-17.928c0-1.62-.702-2.376-2.538-2.376s-2.538.756-2.538 2.376v44.82c0 1.62.702 2.376 2.538 2.376s2.538-.756 2.538-2.376v-22.14h2.16c1.458 0 2.106-.648 2.106-2.376s-.648-2.376-2.106-2.376h-2.16zm-25.002-19.332c-1.674 0-2.43.756-2.43 2.484v42.228c0 1.728.756 2.484 2.43 2.484h12.96c1.674 0 2.43-.756 2.43-2.484v-42.228c0-1.728-.756-2.484-2.43-2.484h-12.96zm2.538 42.66v-38.124h7.884v38.124h-7.884zm29.937-22.032c-1.134 1.134-1.242 2.214.108 3.456 1.296 1.242 2.322 1.08 3.564-.162l8.046-8.316 8.046 8.316c1.242 1.242 2.268 1.404 3.564.162 1.35-1.242 1.242-2.322.108-3.456l-9.18-9.504v-6.426h7.398c1.458 0 2.106-.648 2.106-2.322 0-1.728-.648-2.376-2.106-2.376H222c-1.458 0-2.106.648-2.106 2.376 0 1.674.648 2.322 2.106 2.322h7.398v6.426l-9.18 9.504zm-1.08 9.072c-1.458 0-2.106.648-2.106 2.376s.648 2.376 2.106 2.376h10.26v11.772c0 1.62.702 2.376 2.538 2.376s2.538-.756 2.538-2.376v-11.772h10.26c1.458 0 2.106-.648 2.106-2.376s-.648-2.376-2.106-2.376h-25.596zm39.79-11.178l5.562 7.668c.918 1.242 1.998 1.512 3.402.432 1.512-1.134 1.566-2.214.594-3.51l-7.02-9.45v-6.264h5.076c1.458 0 2.106-.648 2.106-2.322 0-1.728-.648-2.376-2.106-2.376h-5.022v-2.376c0-1.62-.702-2.376-2.592-2.376s-2.592.756-2.592 2.376v2.376h-5.022c-1.458 0-2.106.648-2.106 2.376 0 1.674.648 2.322 2.106 2.322h5.076v6.264l-7.02 9.45c-.864 1.35-.972 2.43.594 3.51 1.404 1.08 2.43.756 3.402-.432l5.562-7.668zm16.524 16.848c1.836 0 2.538-.756 2.538-2.376v-31.59c0-1.62-.702-2.376-2.538-2.376s-2.538.756-2.538 2.376v31.59c0 1.62.702 2.376 2.538 2.376zm-17.658 8.586v-10.584c0-1.62-.702-2.376-2.538-2.376-1.782 0-2.484.756-2.484 2.376v12.744c0 1.728.756 2.484 2.538 2.484h21.384c1.458 0 2.106-.648 2.106-2.322s-.648-2.322-2.106-2.322h-18.9zM31.158 23.058c-1.836 0-2.43.918-2.43 2.322v12.042h-3.564V25.65c0-1.404-.54-2.322-2.376-2.322s-2.376.918-2.376 2.322v33.21c0 1.404.54 2.322 2.376 2.322s2.376-.918 2.376-2.322V42.066h3.564V59.13c0 1.404.594 2.322 2.43 2.322s2.43-.918 2.43-2.322V25.38c0-1.404-.594-2.322-2.43-2.322zM8.586 55.836V26.568c0-1.566-.756-2.322-2.484-2.322s-2.484.756-2.484 2.322v31.428c0 1.458.81 2.376 2.376 2.376h10.422c1.296 0 1.944-.648 1.944-2.268s-.648-2.268-1.944-2.268h-7.83zm56.683-12.204V34.83c0-1.404-.864-2.106-2.43-2.106s-2.43.702-2.43 2.106v24.408c0 1.404.864 2.106 2.43 2.106s2.43-.702 2.43-2.106v-11.07h2.43c1.296 0 1.89-.756 1.89-2.268s-.594-2.268-1.89-2.268h-2.43zm-24.624-9.45c-1.134 0-1.998.432-1.998 2.16 0 1.674.864 2.16 1.998 2.16h10.26l-9.18 19.116c-.756 1.566.162 2.43 1.404 2.862 1.62.54 2.322-.054 3.186-1.89l9.99-20.79c.972-1.998-.162-3.618-2.106-3.618H40.645zm84.033-7.884v21.924c0 2.052 1.134 2.97 3.456 2.97s3.456-.918 3.456-2.97V14.904c0-1.998-1.134-2.97-3.456-2.97s-3.456.972-3.456 2.97v4.86h-1.62c-2.214 0-3.294 1.242-3.294 3.24s1.08 3.294 3.294 3.294h1.62zm-16.254 7.614c5.94 0 9.774-3.78 9.774-10.638 0-6.804-3.618-10.53-9.774-10.53h-11.61c-5.832 0-9.774 3.402-9.774 10.53 0 7.182 4.158 10.638 9.774 10.638h11.61zm-.972-15.282c2.538 0 4.05 1.836 4.05 4.644 0 2.862-1.512 4.752-4.05 4.752h-9.666c-2.592 0-4.05-1.89-4.05-4.752 0-2.808 1.458-4.644 4.05-4.644h9.666zm-8.046 29.538c0 2.052 1.134 2.97 3.456 2.97s3.456-.918 3.456-2.97V43.2h13.986c1.944 0 2.754-.972 2.754-3.132s-.81-3.132-2.754-3.132H87.796c-1.944 0-2.754.972-2.754 3.132s.81 3.132 2.754 3.132h11.61v4.968zm-1.998 7.938v-6.102c0-2.052-1.134-3.024-3.51-3.024-2.214 0-3.348.972-3.348 3.024v9.288c0 2.16.972 3.186 3.24 3.186h35.748c1.944 0 2.754-1.08 2.754-3.186 0-2.16-.81-3.186-2.754-3.186h-32.13zm59.94-38.34v-4.86c0-2.052-1.08-3.078-3.348-3.078-2.214 0-3.294 1.026-3.294 3.078v4.86h-10.098c-1.944 0-2.754 1.08-2.754 3.024 0 2.106.81 3.132 2.754 3.132h26.73c1.998 0 2.808-1.026 2.808-3.132 0-1.944-.81-3.024-2.808-3.024h-9.99zm23.976 13.662v-16.47c0-1.998-1.134-3.024-3.402-3.024s-3.402 1.026-3.402 3.024v44.388c0 2.052 1.134 3.024 3.402 3.024s3.402-.972 3.402-3.024v-21.33h5.13c1.944 0 2.754-1.134 2.754-3.348 0-2.16-.81-3.24-2.754-3.24h-5.13zm-27.216-5.562c-7.452 0-14.472 3.51-14.472 13.824v7.83c0 10.314 7.02 13.77 14.472 13.77 7.506 0 14.472-3.456 14.472-13.77v-7.83c0-10.314-6.966-13.824-14.472-13.824zm7.83 21.276c0 6.21-3.888 7.992-7.83 7.992s-7.83-1.782-7.83-7.992v-7.074c0-6.264 3.888-7.992 7.83-7.992s7.83 1.728 7.83 7.992v7.074zm57.726-23.436c-2.214 0-3.294 1.242-3.294 3.24s1.08 3.294 3.294 3.294h10.476v14.472c0 2.052 1.134 2.97 3.456 2.97 2.376 0 3.456-.918 3.456-2.97V14.904c0-1.998-1.134-2.97-3.456-2.97-2.268 0-3.456.972-3.456 2.97v8.802h-10.476zm2.754 14.148c0-2.052-.81-3.132-2.754-3.132h-20.142V19.764h18.9c1.944 0 2.754-1.026 2.754-3.078 0-2.106-.81-3.132-2.754-3.132h-22.68c-2.16 0-3.132.972-3.132 3.132v21.33c0 1.998.972 2.97 3.132 2.97h23.922c1.944 0 2.754-1.026 2.754-3.132zM202.87 56.052V47.25c0-2.052-1.134-3.024-3.51-3.024-2.214 0-3.348.972-3.348 3.024v11.772c0 2.268 1.08 3.402 3.51 3.402h35.91c1.944 0 2.754-1.08 2.754-3.186 0-2.16-.81-3.186-2.754-3.186H202.87zm98.132-44.118c-2.214 0-3.348 1.026-3.348 3.024v16.308h-3.834V15.282c0-2.052-1.188-3.024-3.348-3.024s-3.348.972-3.348 3.024V59.13c0 2.052 1.134 3.024 3.348 3.024s3.348-.972 3.348-3.024V37.746h3.834v21.6c0 2.052 1.08 3.024 3.348 3.024s3.294-.972 3.294-3.024V14.958c0-1.998-1.08-3.024-3.294-3.024zm-21.438.81c-2.106 0-3.348.972-3.348 3.186v13.986h-9.828V15.93c0-2.214-1.242-3.186-3.348-3.186s-3.348.972-3.348 3.186v41.958c0 2.16.972 3.132 3.132 3.132h17.01c2.106 0 3.078-.972 3.078-3.132V15.93c0-2.214-1.188-3.186-3.348-3.186zm-13.176 23.22h9.828v18.954h-9.828V35.964zm80.784-3.996c5.778 0 9.99-2.754 9.99-9.612 0-6.804-4.212-9.504-9.936-9.504h-23.76c-5.67 0-9.936 2.7-9.936 9.504 0 6.858 4.266 9.612 9.936 9.612h23.706zm-.054-12.906c2.268 0 3.348 1.458 3.348 3.294 0 1.89-1.08 3.402-3.348 3.402h-23.49c-2.322 0-3.402-1.512-3.402-3.402 0-1.836 1.08-3.294 3.402-3.294h23.49zM313.53 34.668c-1.944 0-2.808 1.08-2.808 3.24s.864 3.132 2.808 3.132h18.414v3.888H317.04c-2.106 0-3.078.972-3.078 3.132v11.124c0 2.16.972 3.186 3.078 3.186h36.666c2.16 0 3.078-1.026 3.078-3.186V48.06c0-2.16-.918-3.132-3.078-3.132h-14.958V41.04h18.414c1.998 0 2.808-.972 2.808-3.132s-.81-3.24-2.808-3.24H313.53zm7.128 21.654v-5.346h29.43v5.346h-29.43z" fill="#212121"/></svg>