<svg width="165" height="129" viewBox="0 0 165 129" fill="none" xmlns="http://www.w3.org/2000/svg">
<g clip-path="url(#clip0)">
<path d="M45.9373 29.7042C45.0866 34.1277 43.3086 37.9337 41.318 41.9681C39.3274 46.0026 37.7536 50.4683 38.3491 54.9256C38.4564 56.4622 39.1003 57.9132 40.1696 59.0277C41.2191 59.8524 42.4537 60.4125 43.768 60.6601C49.1869 62.0979 54.9631 63.0199 60.365 61.5059C61.1468 61.3662 61.8577 60.9666 62.3811 60.3725C62.671 59.8772 62.8644 59.3321 62.9511 58.7655C63.5211 56.3127 64.8396 54.0968 65.5967 51.6863C66.7066 47.9219 66.518 43.8966 65.0608 40.2512C63.5904 36.6223 61.1845 33.4425 58.0851 31.0321C55.2949 28.8161 52.9044 25.2891 49.34 24.9254C47.9704 24.7817 46.7029 25.712 45.9373 29.7042Z" fill="#212121"/>
<path d="M84.6361 63.5793L53.6678 60.723L48.84 112.466L79.8083 115.323L84.6361 63.5793Z" fill="#F2F5F9"/>
<path d="M44.6868 94.7286L80.6965 103.542C81.8875 111.754 82.8743 119.612 83.759 127.351L34.8783 129C37.254 117.342 40.5333 105.884 44.6868 94.7286Z" fill="#444E4A"/>
<path d="M128.905 38.5934C130.105 37.4009 137.506 28.6216 139.113 26.414C140.168 24.9508 143.682 19.9437 144.949 20.9756C146.217 22.0075 145.213 24.308 144.252 25.9319C146.71 24.1811 152.172 19.6985 153.839 20.9671C155.506 22.2358 151.151 25.7205 150.096 26.7354C151.797 25.5936 156.365 22.1174 157.403 23.3523C158.662 24.8155 154.315 28.427 152.299 29.7211C154.29 28.5031 157.454 26.6678 158.339 28.1141C158.952 29.1037 157.157 30.4231 155.957 31.3281C154.409 32.4953 139.922 45.1906 135.541 47.5673L128.905 38.5934Z" fill="#FFE7E2"/>
<path d="M20.9355 91.6499C20.4761 90.0175 18.3324 78.7685 18.0346 76.0704C17.839 74.2858 17.2265 68.2045 15.6102 68.4583C13.9938 68.712 13.7471 71.2409 13.7897 73.1186C12.5051 70.4036 9.93605 63.8149 7.83484 64.1363C5.73363 64.4577 7.83484 69.5916 8.26869 70.9872C7.34995 69.1857 5.10412 63.9418 3.5984 64.4915C1.77792 65.1597 3.78555 70.4121 4.94249 72.5434C3.80257 70.5135 1.93955 67.3757 0.459352 68.2045C-0.561477 68.7712 0.348762 70.8011 0.952752 72.1713C1.70136 73.939 8.13258 92.0558 10.7697 96.251L20.9355 91.6499Z" fill="#FFE7E2"/>
<path d="M98.6801 21.2124C99.9023 21.0167 101.156 21.2091 102.261 21.7622C103.016 22.114 103.639 22.6953 104.039 23.422C104.44 24.1487 104.598 24.9833 104.49 25.8051C104.039 28.2578 102.508 29.6619 102.415 30.9644C102.279 32.656 104.21 34.0938 103.929 35.7854C103.82 36.2513 103.581 36.6772 103.239 37.0139C102.898 37.3506 102.467 37.5844 101.998 37.6884C101.051 37.8777 100.07 37.8015 99.165 37.4685C94.6648 36.056 88.8206 30.7783 91.4407 24.9085C92.2829 23.0055 97.1659 21.5169 98.6801 21.2124Z" fill="#4CD8AC"/>
<path d="M94.6733 36.978C94.6733 41.4691 95.7367 45.5459 96.9446 49.8763C98.1526 54.2068 98.8757 58.884 97.4721 63.1552C97.0762 64.6433 96.1745 65.9493 94.92 66.8513C93.7343 67.4719 92.4148 67.7969 91.0749 67.7986C85.4858 68.2131 79.6416 68.0777 74.6055 65.6334C73.8612 65.354 73.2364 64.8284 72.8361 64.1448C72.6403 63.6029 72.5508 63.0286 72.5724 62.4532C72.4703 59.9158 71.5771 57.5138 71.2878 55.0187C70.8905 51.1144 71.8188 47.1901 73.925 43.8712C76.0452 40.558 79.0096 37.8617 82.5169 36.0561C85.6645 34.3645 88.7015 31.3704 92.2573 31.658C93.5759 31.7679 94.6818 32.9182 94.6733 36.978Z" fill="#212121"/>
<path d="M82.4404 15.2242C78.8505 10.7162 71.1858 7.6121 64.9587 9.30368C58.7317 10.9953 54.3336 16.6705 51.3477 27.9111C49.1784 36.1829 51.6879 45.8418 58.5785 50.9589C65.4691 56.0759 76.3665 55.4669 81.913 48.9205C83.6016 46.8337 84.867 44.4411 85.639 41.8751C88.8546 32.14 86.0218 19.69 82.4404 15.2242Z" fill="#FFE7E2"/>
<path d="M66.039 27.6066C65.9693 27.479 65.8696 27.3699 65.7485 27.2886C65.6274 27.2073 65.4883 27.1562 65.3432 27.1396C65.198 27.123 65.0509 27.1414 64.9144 27.1933C64.7779 27.2451 64.6559 27.3289 64.5588 27.4375C64.0144 27.9365 63.6486 28.943 63.3934 30.7107C63.2062 32.0132 63.3934 33.3326 64.0059 33.8063C64.6184 34.2799 65.5116 33.8063 65.988 32.5799C66.1338 32.1971 66.2393 31.8002 66.3028 31.3958C66.5487 30.1315 66.4578 28.8252 66.039 27.6066Z" fill="#FF886D"/>
<path d="M52.8194 24.5872C51.118 24.1558 45.7842 22.4304 43.5724 27.2683C41.0203 32.8675 46.788 37.0118 51.118 37.2148C50.9281 35.0442 50.948 32.8606 51.1776 30.6938C51.4688 28.5986 52.0203 26.5474 52.8194 24.5872Z" fill="#FFE7E2"/>
<path d="M60.6457 29.0698C60.5181 29.9156 59.8801 30.6768 59.4377 30.6092C58.9954 30.5415 58.587 29.9579 58.6976 29.1206C58.8082 28.2832 59.3952 27.5051 59.8716 27.5728C60.348 27.6404 60.7648 28.2325 60.6457 29.0698Z" fill="#343B38"/>
<path d="M69.8672 29.6027C69.7481 30.4485 70.148 31.3619 70.5903 31.4211C71.0327 31.4803 71.6026 31.0321 71.7302 30.1947C71.8579 29.3574 71.5176 28.4524 71.0327 28.3847C70.5478 28.3171 69.9948 28.7569 69.8672 29.6027Z" fill="#343B38"/>
<path d="M83.2571 6.37726C78.3061 0.372152 70.5223 -0.575134 63.5211 0.262199C57.1919 1.01495 52.896 3.72148 49.8165 7.42604C46.8497 10.9412 45.0018 15.2544 44.5081 19.8169C44.2529 23.5214 46.2776 26.4817 51.1605 26.634C56.9112 26.8285 57.9661 21.1109 59.6675 18.2691C62.832 13.0844 67.5023 12.1033 70.5648 18.6835C72.0365 21.8468 75.4308 27.9872 78.0084 28.2494C81.5727 28.6469 83.5889 27.6658 82.9594 24.9847C85.1374 27.5396 87.0739 30.2888 88.7441 33.1973C99.5223 33.1973 99.3947 24.4856 95.6772 15.275C93.6611 10.2933 87.1873 5.92054 83.2571 6.37726Z" fill="#212121"/>
<path d="M70.1905 36.7581C69.0336 35.7178 67.2301 36.2168 66.2263 36.7581C65.2225 37.2994 63.6742 37.8661 60.7053 36.3183C60.5407 36.2228 60.3587 36.1606 60.1698 36.1352C59.9809 36.1099 59.7888 36.1219 59.6046 36.1707C59.4204 36.2194 59.2477 36.3039 59.0964 36.4192C58.9452 36.5345 58.8183 36.6784 58.7232 36.8427C58.5567 37.2427 58.4921 37.6774 58.5352 38.1083C58.5782 38.5391 58.7275 38.9527 58.9699 39.3124C59.9701 40.7158 61.4532 41.7058 63.1383 42.095C67.6044 43.1607 69.6546 41.7567 70.5818 40.2681C70.9501 39.7334 71.1131 39.085 71.0413 38.4409C70.9695 37.7968 70.6676 37.1997 70.1905 36.7581Z" fill="#FF886D"/>
<path d="M62.245 50.6798C61.088 52.0415 60.399 56.6003 59.8205 59.1884C58.9103 63.2482 61.4198 66.8767 63.5465 67.6463C66.7792 68.8727 71.4494 68.323 73.4486 63.2482C74.7586 59.9496 75.7114 54.1306 74.8607 51.7962C74.1972 49.9101 71.0241 49.2588 68.3955 49.0728C66.4559 48.9543 63.4104 49.3096 62.245 50.6798Z" fill="#FFE7E2"/>
<path d="M86.209 26.6509C91.7044 24.9593 95.4815 29.628 94.9201 33.1973C94.0694 38.3481 88.727 39.9636 86.2345 39.0248C86.6167 36.7694 86.8102 34.4864 86.813 32.1992C86.7559 30.3371 86.554 28.4821 86.209 26.6509Z" fill="#FFE7E2"/>
<path d="M34.8272 69.8285C32.139 74.9625 30.7864 84.2069 21.8967 81.3566C15.1422 79.2083 1.60772 84.9174 8.13251 95.4644C15.0061 106.561 27.3241 108.151 37.2006 98.1371C35.8201 104.105 35.2479 110.229 35.4992 116.347C35.6949 119.426 41.2329 122.775 47.2558 122.521C50.8882 122.369 53.0915 121.616 54.0018 119.087C54.0018 119.087 56.2646 111.238 58.6635 85.501C60.0076 71.1226 60.0161 58.2665 60.0161 58.2665C47.6981 57.6068 38.4681 62.8846 34.8272 69.8285Z" fill="#FFE87B"/>
<path d="M143.316 37.976C140.177 33.9331 137.319 25.9827 132.35 27.2767C129.382 28.0464 98.7992 59.8312 83.3422 59.9665C77.549 59.9665 80.0925 59.8989 74.529 59.6028C74.529 59.6028 70.6329 69.025 66.473 90.8294C62.7214 110.443 61.0286 119.163 63.0022 121.675C64.9758 124.187 70.0204 125.431 74.7417 124.915C77.0556 124.661 85.7326 122.158 86.8896 119.282C88.2422 115.899 88.8036 98.8306 87.7998 84.283C87.7998 84.5706 109.263 75.749 117.387 69.7523C130.487 60.1103 144.924 46.3831 145.46 43.8542C145.919 41.7482 144.617 39.6845 143.316 37.976Z" fill="#FFE87B"/>
<path d="M144.736 42.6701C144.362 42.9492 143.605 42.7716 142.984 42.2388C139.08 38.7147 135.366 34.988 131.857 31.0743C131.508 30.6937 131.151 30.2285 131.228 30.0255C131.381 29.6111 136.51 26.3294 137.182 26.2195C137.475 26.2074 137.765 26.274 138.023 26.4125C138.28 26.551 138.496 26.756 138.646 27.0061C141.546 31.235 144.303 35.1087 147.212 39.583C147.535 40.082 147.561 40.5726 147.212 40.7925L144.736 42.6701Z" fill="#FFE87B"/>
<path d="M4.8064 85.1965C4.77025 84.9148 4.83025 84.6291 4.97677 84.3853C5.1233 84.1415 5.34788 83.9536 5.61455 83.8517C9.5894 81.9057 13.6837 80.2108 17.873 78.777C18.2813 78.6332 18.7237 78.5063 18.9194 78.667C19.7046 80.8453 20.2744 83.0944 20.6207 85.3826C20.5704 85.6292 20.4429 85.8536 20.2564 86.0237C20.07 86.1939 19.8343 86.301 19.5829 86.3299C15.3294 87.1165 12.7774 90.0937 8.28572 90.7787C8.08754 90.8436 7.87232 90.8337 7.68097 90.751C7.48962 90.6684 7.33549 90.5187 7.24788 90.3305L4.8064 85.1965Z" fill="#FFE87B"/>
<path d="M53.2022 20.485C52.0954 20.8241 51.121 21.4946 50.4119 22.405C49.2266 24.3509 48.7184 26.6306 48.9657 28.8922C49.1869 31.1758 50.1312 32.9943 51.3307 33.7132C50.3869 31.5057 50.092 29.0775 50.48 26.7101C50.7437 24.8155 52.36 21.7537 53.2277 20.485" fill="#212121"/>
<path d="M65.7923 13.2874C65.4605 13.6765 65.5796 14.2939 65.5796 14.7675C65.5796 15.3765 65.5796 15.977 65.5796 16.5775C65.628 17.826 65.7645 19.0695 65.988 20.299C66.3028 22.25 67.271 24.0382 68.7357 25.3737C69.2025 25.7761 69.7272 26.1068 70.2925 26.3549C70.8724 26.6855 71.5408 26.8302 72.2065 26.7693C72.2686 26.749 72.3236 26.7117 72.3654 26.6618C72.4072 26.6119 72.4341 26.5513 72.443 26.487C72.4518 26.4226 72.4423 26.3571 72.4156 26.2979C72.3888 26.2386 72.3459 26.188 72.2916 26.1519C71.8492 25.8643 71.2452 25.7882 70.7689 25.5429C70.3309 25.3143 69.9249 25.03 69.5609 24.6971C68.8682 24.0627 68.2924 23.3127 67.8595 22.4811C67.0487 20.6929 66.6144 18.7587 66.5835 16.7974C66.5324 16.1715 66.4899 15.5456 66.4559 14.9113C66.4559 14.4207 66.5409 13.7018 66.1836 13.3128C66.1583 13.2867 66.1278 13.2659 66.0942 13.2518C66.0606 13.2376 66.0245 13.2303 65.988 13.2303C65.9515 13.2303 65.9153 13.2376 65.8817 13.2518C65.8481 13.2659 65.8177 13.2867 65.7923 13.3128V13.2874Z" fill="#212121"/>
<path d="M62.2195 53.2848C62.7016 53.6472 63.2509 53.9116 63.8358 54.063C64.563 54.3255 65.3078 54.5375 66.0646 54.6973C66.9044 54.8746 67.7585 54.9765 68.6167 55.0018C69.5454 55.1357 70.4931 54.9914 71.3389 54.5873C71.3889 54.5568 71.429 54.5126 71.4545 54.46C71.48 54.4074 71.4897 54.3487 71.4825 54.2907C71.4754 54.2328 71.4516 54.1781 71.4141 54.1333C71.3765 54.0884 71.3268 54.0552 71.2708 54.0376C70.4265 53.9056 69.5683 53.8857 68.7188 53.9784C67.8834 53.9516 67.0507 53.8696 66.2262 53.7331C65.5287 53.6147 64.8311 53.454 64.1506 53.2679C63.6009 53.0684 63.0301 52.9322 62.4492 52.8619C62.4009 52.8641 62.3542 52.8798 62.3146 52.9073C62.2749 52.9348 62.2439 52.9729 62.2252 53.0172C62.2065 53.0615 62.2008 53.1101 62.2089 53.1575C62.2169 53.2049 62.2383 53.2491 62.2705 53.2848H62.2195Z" fill="#343B38"/>
<path d="M31.1863 82.0417C30.5795 81.5195 29.9006 81.0866 29.1702 80.7561C28.8107 80.5383 28.3895 80.4432 27.9707 80.4854C27.7975 80.5348 27.6388 80.6253 27.5084 80.749C27.3781 80.8728 27.2798 81.0261 27.2221 81.1959C26.9748 81.8778 26.8989 82.6095 27.0009 83.3273C27.0945 84.0462 27.3752 85.0865 28.1324 85.3741C28.311 85.4417 28.4641 85.2641 28.4811 85.1034C28.4794 84.9405 28.4565 84.7785 28.4131 84.6213C28.3842 84.484 28.3473 84.3484 28.3025 84.2154C28.1946 83.9407 28.1093 83.6579 28.0473 83.3696C27.9199 82.8144 27.9025 82.2398 27.9962 81.678C27.9962 81.5088 28.0898 81.3143 28.26 81.3228C28.562 81.3733 28.8511 81.4825 29.1107 81.6442C29.7025 81.9073 30.2716 82.2185 30.812 82.5745C31.1353 82.786 31.5351 82.2785 31.2289 82.0332L31.1863 82.0417Z" fill="#343B38"/>
<path d="M36.7413 101.622C37.0816 100.573 37.3708 99.5073 37.7111 98.4501C38.1109 97.1898 38.5618 95.9127 39.0381 94.7117C39.5145 93.5106 40.0335 92.1743 40.5269 90.8549C41.0203 89.5354 41.4796 88.5374 41.8624 87.3533C42.1772 86.3722 42.577 85.4164 42.8237 84.4184C42.8918 84.1393 42.4664 83.9278 42.3388 84.2069C40.2438 88.6045 38.4172 93.1236 36.8689 97.7396C36.4409 98.9521 36.1916 100.22 36.1288 101.503C36.1341 101.576 36.1644 101.644 36.2145 101.696C36.2646 101.748 36.3315 101.782 36.4037 101.791C36.4758 101.8 36.5489 101.784 36.6105 101.745C36.672 101.707 36.7183 101.648 36.7413 101.579V101.622Z" fill="#343B38"/>
<path d="M18.5195 103.855C17.8219 103.508 17.0988 103.22 16.4098 102.857C15.6461 102.453 14.9075 102.004 14.198 101.512C12.7352 100.474 11.3966 99.274 10.2082 97.9341C9.0582 96.6911 8.09022 95.293 7.33288 93.7812C6.94265 93.0931 6.70915 92.3281 6.64888 91.5404C6.58862 90.7526 6.70305 89.9614 6.9841 89.2224C7.80022 87.7004 9.06872 86.4658 10.6165 85.687C10.8377 85.5517 10.6931 85.1626 10.4379 85.2641C8.90378 85.8427 7.5813 86.8686 6.64382 88.2075C6.16723 88.9568 5.87968 89.8095 5.80563 90.693C5.73158 91.5765 5.87321 92.4648 6.21848 93.2822C7.48601 96.6654 10.2422 99.5326 13.1006 101.672C13.9464 102.307 14.8426 102.873 15.7802 103.364C16.5923 103.829 17.4833 104.141 18.4089 104.286C18.6301 104.286 18.7151 103.956 18.5195 103.863V103.855Z" fill="#343B38"/>
<path d="M134.877 27.6066C135.524 28.0547 136.098 28.5996 136.578 29.2221C137.043 29.8501 137.456 30.5149 137.812 31.2097C137.957 31.4719 138.186 32.2584 138.62 32.0047C139.054 31.751 138.68 31.1589 138.561 30.8967C138.485 30.6942 138.397 30.4964 138.297 30.3047C138.195 30.1271 138.084 29.9579 137.974 29.7887C137.756 29.4594 137.508 29.1508 137.233 28.8668C136.59 28.2273 135.853 27.6883 135.047 27.2683C135.002 27.2425 134.948 27.2356 134.898 27.249C134.848 27.2625 134.805 27.2953 134.779 27.3402C134.753 27.385 134.746 27.4383 134.76 27.4883C134.773 27.5382 134.806 27.5808 134.851 27.6066H134.877Z" fill="#343B38"/>
<path d="M85.4858 86.6936C86.44 85.7623 87.5441 84.9961 88.7525 84.4269C90.4539 83.5811 92.1553 82.8029 93.9417 82.084C98.4248 80.2402 102.934 78.464 107.272 76.3242C109.992 75.096 112.561 73.5607 114.928 71.7485C115.2 71.5201 114.852 71.1226 114.562 71.2748C112.181 72.4843 109.884 73.8122 107.493 75.0301C105.103 76.2481 102.831 77.2461 100.467 78.278C96.5618 79.9695 92.5466 81.5004 88.7865 83.5134C87.374 84.1793 86.0921 85.0901 85.0009 86.203C84.7032 86.5329 85.1881 87.0488 85.4943 86.6936H85.4858Z" fill="#343B38"/>
<path d="M59.8716 58.072C59.8716 58.6471 59.812 59.2223 59.795 59.7636C59.7525 60.8462 59.7014 61.9288 59.6504 63.0114L59.2165 71.537C59.0889 73.9813 58.9273 76.4341 58.8337 78.8785C58.6636 83.2596 58.7146 87.6493 58.5019 92.022C58.3829 94.5594 58.2212 97.0376 57.8724 99.5157C57.5156 101.941 56.9955 104.34 56.3157 106.696C56.3157 106.806 56.4603 106.891 56.5113 106.781C58.087 102.695 58.989 98.3819 59.1825 94.0096C59.5228 89.5862 59.4547 85.1288 59.5738 80.6969C59.7269 75.1147 60.0587 69.5409 60.1778 63.9672C60.1778 62.6562 60.2374 61.3452 60.2459 60.0427C60.2786 59.3646 60.2473 58.685 60.1523 58.0128C60.1523 57.8521 59.8716 57.8944 59.8716 58.0128V58.072Z" fill="#343B38"/>
<path d="M74.4949 59.1039C74.2938 59.4519 74.1312 59.8206 74.01 60.2034C73.6527 61.0492 73.355 61.895 73.0657 62.8C72.13 65.6672 71.2623 68.5598 70.4201 71.4609C69.3142 75.2782 68.2792 79.1153 67.3151 82.9721C66.3112 86.9811 65.4294 91.0156 64.6694 95.0754C64.3206 96.9361 63.9974 98.8053 63.7251 100.683C63.4955 102.324 63.2658 103.99 63.1977 105.648C63.1722 106.014 63.1722 106.381 63.1977 106.747C63.1977 106.976 63.5635 107.06 63.6316 106.806C63.9974 105.284 64.0654 103.669 64.3121 102.121C64.5928 100.311 64.8991 98.5093 65.2479 96.7162C66.022 92.7072 66.9493 88.7319 67.8765 84.7567C68.8038 80.7815 69.8076 76.967 70.8199 73.0933C71.6195 70.0259 72.4702 66.9641 73.372 63.908C73.6612 62.9099 73.9419 61.9035 74.2227 60.9054C74.3534 60.3776 74.5153 59.858 74.7076 59.3492C74.7223 59.3115 74.7394 59.2748 74.7586 59.2392C74.8607 59.0954 74.631 58.9686 74.5204 59.1039H74.4949Z" fill="#343B38"/>
<path d="M40.2462 104.937C39.4072 106.232 38.8053 107.663 38.4682 109.166C38.0753 110.67 37.96 112.231 38.1279 113.776C38.3455 115.028 39.0076 116.162 39.9942 116.97C40.9807 117.779 42.2261 118.209 43.5043 118.182C46.1925 118.182 48.6085 116.372 49.9185 114.173C50.685 112.862 51.2256 111.433 51.5178 109.944C51.733 109.252 51.8364 108.529 51.8241 107.804C51.7861 107.504 51.6453 107.226 51.4253 107.016C51.2053 106.807 50.9196 106.679 50.6161 106.654C49.9355 106.553 49.221 106.654 48.5319 106.612C47.7854 106.571 47.0415 106.492 46.3031 106.375C44.8305 106.152 43.3979 105.719 42.0496 105.089C41.9666 105.057 41.8745 105.055 41.7901 105.084C41.7057 105.113 41.6345 105.171 41.5893 105.247C41.5441 105.324 41.5279 105.414 41.5437 105.501C41.5595 105.589 41.6062 105.668 41.6753 105.724C43.5554 107.077 46.0649 107.5 48.3447 107.585C48.8977 107.585 49.4421 107.585 49.9866 107.585C50.2352 107.549 50.4889 107.584 50.7182 107.686C50.9734 107.855 50.8373 108.295 50.7947 108.532C50.6025 109.842 50.2482 111.123 49.7399 112.346C48.7701 114.545 46.9836 116.575 44.5337 117.066C42.3984 117.514 39.8719 116.465 39.1828 114.3C38.817 112.768 38.817 111.172 39.1828 109.64C39.4486 108.068 39.9385 106.541 40.6375 105.106C40.6603 105.053 40.6629 104.994 40.6446 104.939C40.6264 104.884 40.5887 104.838 40.5385 104.809C40.4883 104.78 40.4292 104.77 40.3722 104.781C40.3153 104.792 40.2644 104.824 40.2292 104.87L40.2462 104.937Z" fill="#343B38"/>
<path d="M68.2849 108.515C67.6249 109.765 67.2256 111.134 67.111 112.541C66.9351 113.89 66.8867 115.252 66.9664 116.609C66.9707 117.221 67.1083 117.824 67.3697 118.377C67.6311 118.931 68.0101 119.421 68.4806 119.815C69.5637 120.474 70.8185 120.801 72.0875 120.754C73.3773 120.949 74.6961 120.719 75.8411 120.097C76.9861 119.475 77.894 118.496 78.4252 117.311C79.016 116.032 79.3814 114.662 79.5055 113.26C79.5906 112.558 79.6587 111.839 79.6927 111.137C79.7345 110.841 79.6912 110.539 79.5678 110.267C79.4443 109.995 79.2458 109.762 78.9951 109.598C78.3766 109.344 77.7018 109.256 77.0385 109.344C76.2786 109.344 75.5215 109.31 74.7672 109.242C73.2007 109.104 71.644 108.873 70.1054 108.549C70.0384 108.53 69.9684 108.525 69.8994 108.534C69.8304 108.543 69.7638 108.565 69.7034 108.599C69.643 108.633 69.5899 108.679 69.5472 108.733C69.5045 108.788 69.4731 108.85 69.4546 108.917C69.4362 108.983 69.4312 109.053 69.4398 109.122C69.4484 109.19 69.4705 109.256 69.5049 109.316C69.5392 109.377 69.5852 109.429 69.64 109.472C69.6949 109.514 69.7577 109.545 69.8247 109.564C72.1397 110.261 74.5524 110.584 76.9705 110.52C77.3873 110.52 78.0934 110.3 78.4677 110.52C78.842 110.739 78.6293 111.661 78.6123 112.008C78.592 113.326 78.4034 114.636 78.0509 115.907C77.7215 116.945 77.1366 117.884 76.3495 118.639C75.4876 119.445 74.3421 119.882 73.1594 119.857C72.0016 119.917 70.8437 119.742 69.7566 119.341C69.2848 119.119 68.8796 118.778 68.5812 118.352C68.2827 117.927 68.1014 117.431 68.0553 116.914C67.9149 115.609 67.9149 114.294 68.0553 112.989C68.1255 111.545 68.4123 110.12 68.9059 108.76C69.0335 108.43 68.4976 108.219 68.3275 108.523L68.2849 108.515Z" fill="#343B38"/>
<path d="M45.0865 25.1454C44.6442 25.1454 44.2358 25.6106 43.9296 25.8981C43.5822 26.2348 43.274 26.6093 43.0108 27.0146C42.5434 27.7279 42.2708 28.5499 42.2197 29.3997C42.1896 30.2377 42.3345 31.0729 42.645 31.8525C42.9003 32.5376 43.2661 33.6456 44.0232 33.9162C44.0542 33.9223 44.0861 33.9218 44.1169 33.9145C44.1476 33.9073 44.1765 33.8936 44.2015 33.8744C44.2265 33.8552 44.247 33.8308 44.2617 33.803C44.2765 33.7752 44.285 33.7446 44.2869 33.7132C44.2807 33.343 44.1621 32.9833 43.9466 32.6814C43.7643 32.3387 43.6024 31.9857 43.4617 31.6241C43.1936 30.9512 43.0579 30.2334 43.0619 29.5097C43.0823 28.783 43.2715 28.0709 43.6148 27.429C43.8338 27.0441 44.0903 26.6815 44.3805 26.3464C44.6527 26.0335 45.1291 25.7374 45.2311 25.323C45.2362 25.3022 45.2366 25.2806 45.2321 25.2596C45.2277 25.2387 45.2187 25.219 45.2056 25.202C45.1926 25.1849 45.1759 25.171 45.1568 25.1612C45.1376 25.1515 45.1165 25.146 45.095 25.1454H45.0865Z" fill="#343B38"/>
<path d="M4.08327 64.6607C4.48166 64.9355 4.80831 65.3008 5.03605 65.7264C5.41035 66.2931 5.75063 66.8682 6.07389 67.4603C6.39715 68.0523 6.77146 68.7881 7.09472 69.4648C7.25635 69.7946 7.40097 70.1414 7.58812 70.4544C7.72657 70.7495 7.92667 71.0118 8.1751 71.224C8.32822 71.3424 8.53239 71.224 8.53239 71.021C8.50933 70.6559 8.40471 70.3005 8.22614 69.9807C8.07301 69.6424 7.89437 69.321 7.72423 68.9911C7.36694 68.2807 7.00114 67.5702 6.58431 66.8936C6.02285 65.9801 5.30827 64.7114 4.20237 64.3562C4.16601 64.3447 4.12662 64.347 4.09194 64.3629C4.05725 64.3787 4.02975 64.4068 4.01485 64.4418C3.99994 64.4767 3.99869 64.5159 4.01135 64.5517C4.02401 64.5875 4.04966 64.6173 4.08327 64.6353V64.6607Z" fill="#343B38"/>
<path d="M12.4711 78.4555C12.42 76.9839 13.2792 75.8167 13.7981 74.5057C14.0027 73.9627 14.126 73.3927 14.1639 72.8141C14.283 72.2638 14.2265 71.6902 14.0023 71.1733C13.9863 71.1538 13.9662 71.1381 13.9434 71.1274C13.9206 71.1166 13.8957 71.111 13.8704 71.111C13.8452 71.111 13.8203 71.1166 13.7975 71.1274C13.7746 71.1381 13.7545 71.1538 13.7386 71.1733C13.4502 71.6458 13.2918 72.1854 13.2792 72.738C13.2271 73.3425 13.0926 73.9372 12.8794 74.5057C12.3605 75.7659 11.4332 77.1107 11.9777 78.5147C12.0712 78.76 12.4881 78.7516 12.4711 78.4471V78.4555Z" fill="#343B38"/>
<path d="M7.81779 64.3224C8.66848 64.4662 9.34903 65.4219 9.85094 66.0817C10.1322 66.4955 10.3796 66.9311 10.591 67.3842C10.9653 68.0946 11.3141 68.8136 11.6544 69.5409C11.8075 69.8708 11.9606 70.1922 12.1223 70.5136C12.2075 70.7946 12.3998 71.0313 12.6582 71.1733C12.7002 71.183 12.7443 71.1793 12.784 71.1625C12.8238 71.1458 12.8571 71.117 12.8794 71.0803C12.9232 70.9336 12.9352 70.7794 12.9147 70.6278C12.8942 70.4762 12.8415 70.3306 12.7603 70.2007C12.6072 69.8285 12.4541 69.4648 12.2754 69.1096C11.9011 68.3568 11.5013 67.6041 11.0844 66.8682C10.8097 66.3668 10.4817 65.8961 10.1061 65.4642C9.52767 64.7961 8.81309 63.9672 7.82629 64.0518C7.66466 64.0518 7.59661 64.3393 7.78376 64.3647L7.81779 64.3224Z" fill="#343B38"/>
<path d="M1.40363 68.2722C1.76051 68.5608 2.09599 68.8745 2.40745 69.2111C2.77382 69.5574 3.10702 69.9368 3.40276 70.3444C3.69199 70.7419 3.93018 71.1902 4.18539 71.5877C4.30449 71.7823 4.41508 71.9937 4.54268 72.1882C4.67029 72.3828 4.79789 72.6196 4.98504 72.6534C5.00923 72.65 5.03238 72.6414 5.05293 72.6283C5.07348 72.6151 5.09095 72.5978 5.10414 72.5773C5.20622 72.4082 5.10414 72.1037 5.01907 71.9261C4.92588 71.6816 4.815 71.4441 4.6873 71.2156C4.43744 70.7579 4.15307 70.3196 3.83661 69.9046C3.52904 69.4809 3.17841 69.0897 2.79026 68.7374C2.41059 68.4207 1.97501 68.1769 1.50571 68.0185C1.34408 67.9678 1.27603 68.1877 1.39513 68.2722H1.40363Z" fill="#343B38"/>
<path d="M7.21378 83.2596C8.70249 82.7437 10.1572 82.1855 11.6119 81.568C12.8454 81.0521 14.0789 80.5362 15.3379 80.0625C15.9589 79.8342 16.5884 79.6058 17.2264 79.4028C17.5327 79.3013 17.8474 79.1998 18.1622 79.1152C18.4769 79.0307 18.6386 79.2252 18.7917 79.5466C18.9859 80.1238 19.2456 80.6771 19.5658 81.1959C19.9695 81.6473 20.4998 81.9684 21.0886 82.1178C21.7905 82.3305 22.5163 82.4555 23.2493 82.49C23.6406 82.49 24.0319 82.49 24.4233 82.49C24.8939 82.5339 25.3682 82.4582 25.8014 82.27C25.8735 82.2194 25.9304 82.1502 25.9658 82.0699C26.0013 81.9895 26.014 81.901 26.0027 81.814C25.9913 81.727 25.9562 81.6447 25.9013 81.576C25.8463 81.5073 25.7735 81.4548 25.6908 81.4243C25.302 81.3242 24.8967 81.304 24.4998 81.365C24.1255 81.365 23.7597 81.365 23.3854 81.365C22.7438 81.3546 22.1073 81.2492 21.4969 81.0521C21.2301 80.9894 20.9802 80.87 20.7644 80.7021C20.5485 80.5342 20.3718 80.3218 20.2464 80.0794C20.0515 79.5018 19.7643 78.9592 19.3957 78.4724C18.8342 77.8719 18.1537 78.0749 17.4731 78.3033C16.7926 78.5316 16.1886 78.7346 15.5506 78.9715C14.2915 79.4366 12.9985 79.9441 11.8245 80.5193C11.0929 80.8576 10.3698 81.2128 9.63825 81.5596C8.78756 81.9825 7.93687 82.4899 7.08618 82.9636C6.93305 83.0566 7.03514 83.3273 7.21378 83.2681V83.2596Z" fill="#343B38"/>
<path d="M44.7122 27.7842C45.5954 28.2246 46.3029 28.9489 46.7199 29.8395C46.919 30.2526 47.0484 30.6956 47.1027 31.1505C47.1027 31.4211 47.1027 31.6833 47.1877 31.9455C47.2728 32.2077 47.1877 32.4276 47.3068 32.6306C47.3217 32.6558 47.3415 32.6778 47.365 32.6953C47.3886 32.7128 47.4154 32.7255 47.4439 32.7326C47.4724 32.7397 47.5021 32.741 47.5311 32.7366C47.5602 32.7322 47.588 32.722 47.6131 32.7067C47.8683 32.563 47.9023 32.2585 47.9959 32.0047C48.0839 31.7172 48.1043 31.4133 48.0554 31.1167C47.9956 30.5244 47.8193 29.9497 47.5365 29.4251C47.0099 28.385 46.0934 27.5922 44.9845 27.2176C44.6442 27.1076 44.406 27.6489 44.7377 27.8096L44.7122 27.7842Z" fill="#343B38"/>
<path d="M46.5582 28.7569C46.3703 28.7163 46.1799 28.688 45.9883 28.6723C45.7827 28.6552 45.5757 28.6724 45.3758 28.723C45.1729 28.7628 44.9777 28.8342 44.7973 28.9345L44.5251 29.129C44.4321 29.1904 44.3537 29.2712 44.2954 29.3658C44.2644 29.423 44.2506 29.4878 44.2557 29.5525C44.2607 29.6172 44.2844 29.6791 44.3238 29.7308C44.3633 29.7825 44.4169 29.8219 44.4782 29.8441C44.5395 29.8664 44.606 29.8707 44.6697 29.8564C44.7652 29.8216 44.8566 29.7762 44.9419 29.7211L45.0865 29.6027L45.3843 29.4589C45.3843 29.4589 45.5204 29.3997 45.4353 29.4589H45.5374L46.0138 29.3066C46.1627 29.2604 46.3172 29.2348 46.4731 29.2305C46.7198 29.2305 46.7964 28.8499 46.5327 28.7907L46.5582 28.7569Z" fill="#343B38"/>
<path d="M92.3765 30.3385C91.8042 30.183 91.1996 30.1902 90.6312 30.3591C90.0628 30.528 89.5534 30.852 89.1609 31.2943C88.7112 31.8024 88.4162 32.4272 88.3102 33.0958C88.1616 33.8284 88.2697 34.5895 88.6164 35.2526C88.8631 35.6416 89.6032 35.5148 89.5522 34.9988C89.5522 34.6943 89.4501 34.3983 89.4076 34.0938C89.3863 33.8462 89.3863 33.5972 89.4076 33.3495C89.4212 32.8401 89.5646 32.3425 89.8244 31.9032C90.0616 31.4851 90.4193 31.1472 90.8514 30.9331C91.2836 30.7191 91.7703 30.6386 92.2489 30.7022C92.3019 30.7168 92.3586 30.7098 92.4064 30.6829C92.4543 30.6559 92.4894 30.6111 92.5041 30.5584C92.5187 30.5057 92.5117 30.4494 92.4846 30.4018C92.4575 30.3542 92.4125 30.3193 92.3595 30.3047L92.3765 30.3385Z" fill="#343B38"/>
<path d="M89.5437 31.3873C89.5953 31.4771 89.6551 31.5621 89.7224 31.641C89.7984 31.7183 89.881 31.7891 89.9691 31.8525L90.2243 32.047L90.2838 32.0978L90.4029 32.1908L90.8368 32.546C91.0035 32.6926 91.1861 32.8203 91.3812 32.9266C91.4538 32.968 91.538 32.9847 91.6209 32.974C91.7039 32.9633 91.781 32.9259 91.8406 32.8674C91.8951 32.8076 91.9301 32.7326 91.9407 32.6525C91.9513 32.5725 91.9372 32.4911 91.9001 32.4192C91.7831 32.2309 91.6333 32.0648 91.4578 31.9286C91.2886 31.7813 91.1095 31.6457 90.9218 31.5226C90.7668 31.4086 90.6048 31.3041 90.4369 31.2097C90.3318 31.1524 90.2205 31.107 90.1052 31.0744C89.9978 31.041 89.8859 31.0239 89.7734 31.0236C89.7298 31.0244 89.6871 31.0362 89.6495 31.0581C89.6118 31.0799 89.5804 31.1109 89.5582 31.1482C89.536 31.1856 89.5238 31.2279 89.5228 31.2712C89.5217 31.3146 89.5319 31.3574 89.5522 31.3958L89.5437 31.3873Z" fill="#343B38"/>
<path d="M28.7448 81.1959C29.073 81.0842 29.3826 80.9246 29.6636 80.7223C29.9718 80.4941 30.2568 80.2363 30.5143 79.9526C31.0245 79.3685 31.4642 78.727 31.8243 78.0411C32.6158 76.5235 33.2981 74.9521 33.866 73.3385C34.3631 71.8686 35.0072 70.4518 35.7885 69.1096C36.7609 67.6325 37.9028 66.2729 39.1913 65.0582C39.9119 64.3556 40.6702 63.6921 41.4627 63.0706C42.1941 62.5393 42.9522 62.0453 43.734 61.5905C43.7801 61.5615 43.8143 61.517 43.8304 61.4652C43.8466 61.4134 43.8437 61.3575 43.8222 61.3077C43.8007 61.2578 43.762 61.2171 43.7131 61.193C43.6642 61.1689 43.6083 61.1629 43.5554 61.1761C42.7961 61.3885 42.0734 61.7135 41.4116 62.1403C40.6655 62.5723 39.9545 63.0615 39.2849 63.6035C37.8585 64.772 36.5814 66.1099 35.4823 67.5872C34.5521 68.8832 33.8183 70.3081 33.3045 71.8161C32.709 73.4062 32.1731 75.0132 31.467 76.5525C30.7635 78.1429 29.7518 79.5799 28.4896 80.7815C28.311 80.9422 28.4896 81.2974 28.7363 81.2044L28.7448 81.1959Z" fill="#343B38"/>
<path d="M143.494 29.3828C143.572 29.3138 143.646 29.2404 143.716 29.1629C143.774 29.0931 143.828 29.0197 143.877 28.943C144.005 28.7823 144.158 28.6385 144.286 28.4863C144.581 28.1369 144.801 27.731 144.932 27.2937C144.994 27.0816 145.031 26.8631 145.043 26.6424C145.051 26.5383 145.051 26.4336 145.043 26.3295C145.026 26.2093 145.001 26.0906 144.966 25.9743C144.966 25.7966 144.847 25.5175 144.609 25.5852C144.371 25.6529 144.405 25.9743 144.379 26.1603L144.422 26.0081C144.355 26.1487 144.318 26.3011 144.311 26.4564C144.311 26.6086 144.243 26.7693 144.201 26.9215C144.122 27.2162 144.008 27.5002 143.86 27.7673C143.588 28.2325 142.848 28.7992 143.231 29.3828C143.247 29.401 143.268 29.4155 143.291 29.4255C143.313 29.4354 143.338 29.4406 143.363 29.4406C143.387 29.4406 143.412 29.4354 143.435 29.4255C143.457 29.4155 143.478 29.401 143.494 29.3828Z" fill="#343B38"/>
<path d="M146.446 39.0248C146.67 38.9886 146.886 38.9142 147.084 38.8049C147.282 38.7134 147.475 38.6117 147.663 38.5004C148.037 38.289 148.411 38.0606 148.769 37.8153C149.136 37.5837 149.488 37.3295 149.824 37.0541C149.994 36.9188 150.147 36.7581 150.3 36.6143C150.474 36.4694 150.609 36.2832 150.691 36.073C150.691 35.9292 150.623 35.7431 150.462 35.76C150.264 35.7986 150.08 35.8859 149.926 36.0138L149.398 36.3859C149.049 36.6228 148.726 36.9019 148.377 37.1387C148.029 37.3755 147.688 37.5954 147.34 37.8069C147.152 37.9168 146.957 38.0183 146.77 38.1367C146.571 38.2331 146.39 38.3617 146.234 38.5173C146.195 38.5601 146.169 38.613 146.16 38.6697C146.15 38.7264 146.157 38.7847 146.179 38.8378C146.201 38.8909 146.238 38.9367 146.285 38.9697C146.333 39.0028 146.389 39.0219 146.446 39.0248Z" fill="#343B38"/>
<path d="M152.512 39.4223L164.532 33.5018C164.734 33.4019 164.888 33.2264 164.959 33.0139C165.031 32.8013 165.015 32.5692 164.915 32.3684L154.707 11.9172C154.609 11.7242 154.441 11.5755 154.237 11.5016C154.033 11.4277 153.809 11.4342 153.609 11.5197L140.526 17.1273C140.418 17.1741 140.321 17.2426 140.241 17.3284C140.162 17.4143 140.101 17.5157 140.062 17.6261C140.024 17.7366 140.009 17.8538 140.019 17.9702C140.028 18.0867 140.062 18.2 140.117 18.3029L151.423 39.0671C151.527 39.2505 151.697 39.3886 151.898 39.4543C152.1 39.52 152.318 39.5086 152.512 39.4223Z" fill="#667770"/>
<path d="M152.682 37.0456L162.482 32.2161C162.684 32.1162 162.837 31.9408 162.909 31.7282C162.981 31.5157 162.965 31.2836 162.865 31.0828L154.409 14.167C154.312 13.976 154.145 13.8288 153.943 13.7551C153.741 13.6813 153.518 13.6864 153.32 13.7695L142.61 18.3621C142.502 18.4089 142.405 18.4774 142.326 18.5633C142.246 18.6491 142.185 18.7505 142.146 18.861C142.108 18.9714 142.093 19.0886 142.103 19.2051C142.112 19.3216 142.146 19.4348 142.201 19.5377L151.559 36.6735C151.661 36.8683 151.835 37.0161 152.045 37.0855C152.254 37.155 152.483 37.1407 152.682 37.0456Z" fill="#00B28C"/>
<path d="M15.7548 68.6697C16.1303 69.1471 16.4579 69.6599 16.7331 70.2006C16.9989 70.7669 17.2042 71.3594 17.3456 71.9683C17.4902 72.5913 17.5841 73.2249 17.6263 73.8629C17.6263 74.1927 17.6263 74.5226 17.6688 74.8609C17.6688 75.0047 17.6688 75.1569 17.6688 75.3092C17.6923 75.4671 17.7381 75.6208 17.805 75.7659C17.8231 75.8247 17.8598 75.8762 17.9096 75.9127C17.9593 75.9493 18.0196 75.969 18.0814 75.969C18.1433 75.969 18.2035 75.9493 18.2533 75.9127C18.3031 75.8762 18.3397 75.8247 18.3579 75.7659C18.4049 75.6168 18.4391 75.464 18.46 75.3092C18.46 75.14 18.46 74.9709 18.46 74.8017C18.46 74.4465 18.4004 74.0913 18.3749 73.7445C18.3248 73.022 18.2224 72.304 18.0687 71.5962C17.9083 70.9453 17.641 70.3251 17.2775 69.7608C16.9604 69.2142 16.4824 68.7773 15.9079 68.509C15.8058 68.509 15.6952 68.6105 15.7548 68.7036V68.6697Z" fill="#343B38"/>
</g>
<defs>
<clipPath id="clip0">
<rect width="165" height="129" fill="white"/>
</clipPath>
</defs>
</svg>
