<svg xmlns="http://www.w3.org/2000/svg" width="169" height="92" fill="none" xmlns:v="https://vecta.io/nano"><g clip-path="url(#A)" fill="#d5e3f9"><path d="M72.443 12.861a26.17 26.17 0 0 1 8.508-8.742A25.79 25.79 0 0 1 92.449.232c8.351-.514 17.135-.472 24.563 3.43s12.908 12.861 10.341 20.912c-.499 1.543-1.27 3.112-.99 4.707.338 1.955 2.134 3.293 3.913 4.107 4.844 2.229 11.358 2.829 13.509 7.768 7.166 16.462-11.155 23.656-23.309 25.182-14.772 1.852-29.645 2.332-44.535 2.384-13.162.052-26.638 0-38.962-4.51-3.337-1.226-7.165-3.961-6.276-7.442.288-1.098 1.042-2.058 1.135-3.19.271-3.19-4.091-4.201-7.25-4.287-7.437-.274-15.11-2.409-20.472-7.622a12.89 12.89 0 0 1-3.87-6.38c-1.313-6.173 3.93-11.807 9.393-14.833 17.067-9.517 35.353-4.236 54.826-5.024 2.245-.112 6.801-.6 7.979-2.572zm69.216 61.785c4.54-3.035 10.494-2.572 15.83-1.501a20.33 20.33 0 0 1 7.623 2.709c2.253 1.526 3.998 4.081 3.888 6.859-.102 2.572-1.863 4.922-4.049 6.285a19.11 19.11 0 0 1-7.326 2.306c-4.308.644-8.668.865-13.018.66a17.32 17.32 0 0 1-6.632-1.329 7.15 7.15 0 0 1-2.725-2.013 7.27 7.27 0 0 1-1.51-3.054c-.107-1.001-.013-2.013.279-2.976a7.44 7.44 0 0 1 1.415-2.623c1.282-1.531 2.767-2.876 4.413-3.996.867-.697 1.794-1.313 2.769-1.843"/></g><defs><clipPath id="A"><path fill="#fff" transform="matrix(-1 0 0 1 169 0)" d="M0 0h169v92H0z"/></clipPath></defs></svg>