<svg xmlns="http://www.w3.org/2000/svg" width="403" height="309" fill="none" xmlns:v="https://vecta.io/nano"><style><![CDATA[.B{opacity:.5}.C{fill:#ff886d}.D{fill:#fffaeb}.E{fill:#5874dc}.F{fill:#fff5d9}]]></style><g clip-path="url(#C)"><path d="M381.503 308.073H9.649L23.237 44.798l351.528 2.594 6.738 260.682z" fill="#ffe87b"/><path d="M132.053 282.281l-87.71-1.309.95-6.438 86.759-2.083v9.83z" fill="#8a9990"/><g class="D"><path d="M46.414 308.073h-5.092l1.901-45.997c.009-.172.069-.337.174-.473s.248-.239.411-.292l1.485-.493c.131-.043.27-.053.406-.03a.84.84 0 0 1 .373.162.86.86 0 0 1 .255.318.85.85 0 0 1 .078.4l.008 46.405zm83.102 0h5.092l-1.867-45.248c-.008-.19-.079-.372-.202-.517a.85.85 0 0 0-.477-.283l-1.519-.314a.84.84 0 0 0-.377.008c-.124.031-.239.09-.337.172a.84.84 0 0 0-.228.3.86.86 0 0 0-.077.37l-.008 45.512z"/><path d="M130.543 284.866l-85.063-2.015-.569-3.401h84.604l1.027 5.416zm0 9.321l-85.105.314.535-2.432 84.953-1.471-.382 3.589z"/></g><path d="M165.05 224.269H63.871l-1.502-111.68 101.17-3.308 1.511 114.988z" fill="#d5e3f9"/><path d="M88.296 224.515H63.625V112.828l33.259-1.37-13.095 58.668 4.507 54.389z" class="D"/><mask id="A" maskUnits="userSpaceOnUse" x="63" y="111" width="34" height="114" mask-type="alpha"><path d="M88.296 224.516H63.625V112.828l33.259-1.37-13.095 58.668 4.506 54.39z" class="D"/></mask><g mask="url(#A)" class="C"><g class="B"><path d="M62.36 226.097h4.277V109.111H62.36v116.986z" class="B"/><path d="M73.122 108.321h5.177l-.187 116.985h-3.293l-1.697-116.985z" class="B"/><path d="M85.376 109.12h3.48l.798 116.977h-4.277V109.12z" class="B"/><path d="M99.923 118.321v5.357H52.635v-2.899l47.288-2.458z" class="B"/><path d="M99.923 130.923v4.286l-47.288 1.25v-5.536h47.288z" class="B"/><path d="M100.05 142.327v4.286H52.762v-2.526l47.288-1.76z" class="B"/><path d="M100.423 154.147v4.286l-47.288.927v-6.301l47.288 1.088z" class="B"/><path d="M99.549 165.848v4.278l-47.288-.715v-2.576l47.288-.987z" class="B"/><path d="M99.923 177.09v5.256l-49.291-.842 2.003-3.444 47.288-.97z" class="B"/><path d="M101.051 188.936l-1.128 5.417-47.288-.757v-3.529l48.416-1.131z" class="B"/><path d="M99.923 202.253l-.696 3.282-46.592 1.004v-5.825l47.288 1.539z" class="B"/><path d="M99.923 212.245v4.286H52.635v-2.024l47.288-2.262z" class="B"/></g></g><path d="M139.513 224.516h24.671v-113.84l-33.26-1.395 13.095 59.799-4.506 55.436z" class="D"/><mask id="B" maskUnits="userSpaceOnUse" x="130" y="109" width="35" height="116" mask-type="alpha"><path d="M139.513 224.516h24.671v-113.84l-33.259-1.395 13.095 59.799-4.507 55.436z" class="D"/></mask><g mask="url(#B)" class="C"><g class="B"><path d="M165.448 106.892h-4.277v119.239h4.277V106.892z" class="B"/><path d="M154.696 106.084h-5.186l.196 119.239h3.292l1.698-119.239z" class="B"/><path d="M142.432 106.892h-3.479l-.798 119.239h4.277V106.892z" class="B"/><path d="M127.25 117.632l.45 2.925 47.474 1.174v-5.485l-47.924 1.386z" class="B"/><path d="M128.26 130.226v3.657l47.305-1.004v-5.646l-47.305 2.993z" class="B"/><path d="M127.886 139.546v5.689h47.288v-2.661l-47.288-3.028z" class="B"/><path d="M127.386 152.795v4.362l47.288.953v-6.42l-47.288 1.105z" class="B"/><path d="M128.26 164.717v4.363l47.288-.732v-2.627l-47.288-1.004z" class="B"/><path d="M127.886 176.18v5.349l49.283-.859-1.995-3.503-47.288-.987z" class="B"/><path d="M126.758 188.247l1.128 5.519 47.288-.765v-3.597l-48.416-1.157z" class="B"/><path d="M127.886 201.828l.696 3.342 46.592 1.02v-5.936l-47.288 1.574z" class="B"/><path d="M127.886 212.007v4.37h47.288v-2.057l-47.288-2.313z" class="B"/></g></g><path d="M98.692 209.779c-5.194-2.365-4.778-6.557-4.243-8.028a4.37 4.37 0 0 1 1.376-1.967c.633-.514 1.397-.84 2.205-.941.499-.023.998.057 1.466.235s.892.452 1.25.802c.56-2.083 2.104-2.551 3.963-2.33a2.77 2.77 0 0 1 2.461 2.262c1.265-2.015 4.617-.969 5.491.102 2.325 2.832 2.113 7.594-3.709 9.958-3.046 1.233-8.274.808-10.26-.093z" fill="#00b28c"/><path d="M110.234 222.857l-13.027-.459a.85.85 0 0 1-.849-.706l-2.088-12.347a.85.85 0 0 1 .018-.37c.033-.121.092-.232.173-.327s.182-.171.296-.223a.85.85 0 0 1 .362-.075l17.941-.102a.84.84 0 0 1 .372.077.85.85 0 0 1 .301.231c.082.099.14.216.17.34s.033.255.006.381l-2.826 12.908a.85.85 0 0 1-.304.489c-.155.123-.348.188-.545.183z" fill="#f3b131"/><path d="M106.084 196.649c-.108-.055-.227-.083-.348-.083s-.24.028-.348.083c-.153-.383-.382-.672-.653-.689a1.06 1.06 0 0 0-.638.256c-.178.154-.3.363-.347.594a1.02 1.02 0 0 0-1.163.119c-.331.366-.059 1.335.603 1.863a2.09 2.09 0 0 0 .733.375 2.08 2.08 0 0 0 .82.062c.275-.034.54-.123.781-.261s.451-.322.619-.542a1.23 1.23 0 0 0 .266-.415c.06-.155.088-.32.082-.486a1.23 1.23 0 0 0-.114-.48 1.24 1.24 0 0 0-.293-.396z" fill="#ff6952"/><path d="M166.772 225.97l-105.32 1.165.373-115.651 103.393-3.937 1.553 118.423zm-101.221-3.402h97.776l-1.46-111.535-97.784 3.198 1.468 108.337z" class="E"/><path d="M366.159 115.481l-25.299 2.899V81.092c0-.12.024-.239.073-.349s.119-.208.208-.288a.85.85 0 0 1 .308-.178c.114-.037.234-.049.353-.036l23.534 2.704c.207.025.398.126.535.282s.213.359.212.568l.076 31.685z" class="D"/><path d="M295.524 294.459h-90.443l-1.349-185.178 90.443 1.48 1.349 183.698z" fill="#d5e3f9"/><path d="M333.63 298.005l-36.536-1.854-1.383-187.065 32.784.195 5.135 188.724z" class="E"/><path d="M224.44 223.265l-6.128-.595-3.42-60.325 5.474-1.659 4.074 62.579z" class="C"/><g class="D"><path d="M294.192 118.576h-90.46l.059-9.295 90.231 2.364.17 6.931zm0 174.667h-90.46l.059-8.173 90.095-2.585.306 10.758z"/></g><path d="M297.23 296.159l-95.849 1.148.603-189.752 93.837 1.539 1.409 187.065zm-90.468-3.401h87.048l-1.324-180.279-87.048-1.429 1.324 181.708z" class="E"/><g fill="#9ae2c6"><path d="M367.101 119.903l-27.344-.936c-.225 0-.441-.089-.6-.249a.85.85 0 0 1-.249-.601v-1.701a.85.85 0 0 1 .249-.601c.159-.16.375-.249.6-.249l27.344-.936a.85.85 0 0 1 .6.249c.159.16.249.376.249.602v3.571c0 .112-.022.223-.065.326a.84.84 0 0 1-.184.276.85.85 0 0 1-.275.184.84.84 0 0 1-.325.065z"/><path d="M351.596 130.957l-.849-12.117h5.466l.263 11.692a.85.85 0 0 1-.215.571c-.139.157-.332.257-.54.28l-3.158.34c-.114.016-.23.01-.341-.02a.86.86 0 0 1-.527-.417c-.055-.102-.089-.213-.099-.329z"/></g><path d="M255.187 73.719h-51.455v25.792h51.455V73.719z" class="D"/><path d="M256.027 100.344h-53.144V72.869h53.144v27.475zm-51.446-1.701h49.749V74.569h-49.749v24.074z" fill="#9ae2c6"/><path d="M389.854 306.704h-66.01l1.885-58.395h64.125v58.395z" class="F"/><path d="M381.503 279.45a13.01 13.01 0 0 1-1.111 5.506c-.767 1.732-1.902 3.275-3.327 4.521a12.96 12.96 0 0 1-4.921 2.692 12.93 12.93 0 0 1-5.594.359c-8.182-1.114-15.735-8.588-15.735-16.863a13.44 13.44 0 0 1 1.291-5.64 13.39 13.39 0 0 1 3.541-4.571 13.38 13.38 0 0 1 5.132-2.653c1.883-.499 3.853-.581 5.771-.24 9.725 1.769 14.953 8.614 14.953 16.889z" fill="#a9b5af"/><g fill="#55625d"><path d="M320.45 308.073h-6.348l.568-64.815h7.545l-1.765 64.815zm78.96 0h-7.29l1.383-64.28 4.396-.535 1.511 64.815z"/></g><g fill="#8a9990"><path d="M397.891 250.188h-83.11c-.045 0-.089-.018-.12-.05s-.05-.075-.05-.12l.059-8.946c-.001-.022.003-.045.011-.066s.02-.041.036-.057.036-.028.057-.036.043-.012.066-.011l82.898 2.356c.022-.001.043.002.063.01a.16.16 0 0 1 .054.034c.015.015.027.034.035.054a.17.17 0 0 1 .01.063l.127 6.591c.003.041-.01.082-.035.115s-.061.055-.101.063zm.255 11.089l-83.467-.128c-.022.001-.044-.004-.064-.013a.15.15 0 0 1-.053-.037c-.015-.016-.027-.035-.035-.055a.16.16 0 0 1-.009-.065v-4.251a.16.16 0 0 1 .009-.065c.008-.02.02-.039.035-.055a.15.15 0 0 1 .053-.037c.02-.009.042-.014.064-.014l83.348-2.219a.18.18 0 0 1 .178.17l.153 6.59c0 .027-.005.053-.016.078a.17.17 0 0 1-.048.062c-.02.018-.044.03-.07.037s-.052.007-.078.002zm.263 10.995l-83.832 1.548a.17.17 0 0 1-.17-.17l.068-8.01a.17.17 0 0 1 .17-.171h83.602c.045 0 .089.018.121.05s.049.075.049.121l.153 6.496c-.009.037-.029.07-.058.095a.17.17 0 0 1-.103.041zm.322 14.389l-84.247-3.699c-.022 0-.044-.005-.064-.013s-.038-.022-.054-.038a.15.15 0 0 1-.034-.055.18.18 0 0 1-.01-.065v-4.115c0-.045.018-.089.05-.121s.075-.049.12-.049l84.019-1.182c.045 0 .088.018.12.049s.049.076.049.121l.196 8.997c0 .041-.014.08-.041.112s-.063.052-.104.058zm.289 12.483l-84.647-3.299c-.044-.004-.085-.025-.115-.058s-.046-.076-.046-.121l.042-5.476c.005-.045.025-.086.058-.116s.076-.046.121-.046l84.442 1.114c.045 0 .089.018.12.05a.17.17 0 0 1 .05.12l.178 7.654c.001.025-.005.051-.015.074s-.026.045-.045.062a.2.2 0 0 1-.067.037c-.025.007-.051.009-.076.005zm.39 8.929h-85.139a.17.17 0 0 1-.12-.05c-.031-.032-.049-.075-.049-.12l.059-6.658c-.001-.024.002-.047.011-.069s.022-.042.039-.058a.17.17 0 0 1 .059-.036c.022-.007.046-.01.069-.007l84.8 2.406c.043.002.083.019.115.049a.18.18 0 0 1 .054.113l.102 4.43z"/></g><path d="M71.212 96.254l-24.798.961c-.492 0-.908-.213-.908-.51v-8.266l25.596-.995c.492 0 .908.213.908.51v7.772c0 .289-.348.51-.798.527z" class="F"/><path d="M54.493 91.934l-23.16-.476c-.458 0-.849-.238-.849-.519v-7.254c0-.289.399-.527.849-.519l23.899.485c.475 0 .849.255.849.544l-.747 7.254c.009.281-.382.493-.84.485z" fill="#ffcc1c"/><g class="F"><path d="M378.049 206.641l-25.112-1.004c-.467 0-.849-.272-.798-.57l.747-7.075c0-.272.382-.493.849-.501l24.093-.502c.45 0 .849.195.849.476l.28 8.58c.051.298-.382.596-.908.596zM79.181 252.008l-25.579-.451c-.433 0-.789-.212-.849-.459l-.747-7.33c0-.289.39-.527.9-.51l24.832.91c.407 0 .738.195.789.425l1.494 6.871c.093.297-.314.553-.84.544z"/></g><path d="M93.354 256.625l-25.46-.45c-.475 0-.849-.247-.849-.519l.798-6.845 24.815-.468c.467 0 .849.195.849.459l.747 7.313c.043.281-.365.519-.9.51z" fill="#ffcc1c"/><g class="E"><path d="M4.405 63.565l392.57 3.044c.524-.004 1.035-.169 1.462-.475s.75-.736.923-1.232a2.56 2.56 0 0 0 .048-1.54c-.143-.506-.439-.955-.846-1.286l-52.686-44.389-309.095 9.941-34.04 31.472a2.55 2.55 0 0 0-.786 1.294c-.125.501-.096 1.028.085 1.512a2.55 2.55 0 0 0 .925 1.198 2.54 2.54 0 0 0 1.44.461z"/><path d="M52.966 40.588H38.343l-2.597-21.71c-.042-.384.003-.772.132-1.136a2.55 2.55 0 0 1 .615-.964l7.299-7.424a2.54 2.54 0 0 1 3.301-.273l7.638 5.561a2.55 2.55 0 0 1 .857 1.036 2.56 2.56 0 0 1 .212 1.329l-2.834 23.581zm288.87-8.614l-10.26-1.216a2.55 2.55 0 0 1-1.554-.777c-.411-.433-.657-.998-.695-1.595l-1.366-21.804c-.034-.487.073-.974.308-1.402a2.55 2.55 0 0 1 1.015-1.013l7.299-3.869a2.55 2.55 0 0 1 1.426-.287 2.54 2.54 0 0 1 1.349.542l7.358 5.859c.348.278.618.642.782 1.057s.216.865.152 1.307l-3.022 21.03c-.095.653-.439 1.244-.959 1.648s-1.178.591-1.833.52z"/></g><g fill="#7393ed"><path d="M8.903 53.489a6.58 6.58 0 0 0-3.934-.065c-1.287.38-2.429 1.144-3.271 2.191C0 57.825.713 61.814 3.004 63.344c1.697 1.148 4.761 1.114 6.654.255 2.682-1.233 3.14-3.461 3.149-5.451.017-1.803-1.774-3.997-3.904-4.66zm35.483.161c-1.271-.425-2.64-.449-3.925-.071a6.56 6.56 0 0 0-3.263 2.188c-1.697 2.177-.993 6.208 1.29 7.73 1.731 1.131 4.795 1.131 6.654.281 2.682-1.224 3.14-3.453 3.157-5.451.008-1.82-1.782-4.022-3.912-4.677zm35.483-.161c-1.272-.421-2.641-.443-3.926-.063s-2.423 1.144-3.262 2.189c-1.697 2.177-.993 6.199 1.29 7.73 1.697 1.148 4.761 1.114 6.654.255 2.69-1.233 3.14-3.461 3.157-5.451.008-1.803-1.782-3.997-3.912-4.66zm35.482.255a6.54 6.54 0 0 0-3.927-.069 6.55 6.55 0 0 0-3.261 2.195c-1.697 2.177-.993 6.199 1.29 7.721 1.697 1.157 4.761 1.122 6.654.255 2.69-1.224 3.14-3.452 3.157-5.451.008-1.794-1.782-3.971-3.913-4.651zm35.483.501c-1.271-.422-2.641-.445-3.926-.065a6.57 6.57 0 0 0-3.262 2.191c-1.697 2.177-.993 6.199 1.29 7.73 1.697 1.148 4.761 1.114 6.654.247 2.69-1.225 3.14-3.453 3.157-5.451.008-1.794-1.782-3.988-3.913-4.651zm35.492 0c-1.273-.423-2.644-.446-3.931-.066s-2.426 1.145-3.266 2.192c-1.697 2.177-.993 6.199 1.29 7.73 1.697 1.148 4.77 1.114 6.654.247 2.69-1.225 3.14-3.453 3.157-5.451.008-1.794-1.774-3.988-3.904-4.651zm35.483.681a6.57 6.57 0 0 0-3.93-.064 6.59 6.59 0 0 0-3.267 2.19c-1.697 2.177-.993 6.208 1.29 7.73 1.697 1.148 4.769 1.114 6.654.255 2.69-1.233 3.14-3.453 3.157-5.451.034-1.76-1.774-3.997-3.904-4.66zm35.483 0c-1.273-.421-2.644-.442-3.93-.063a6.59 6.59 0 0 0-3.267 2.188c-1.697 2.177-.993 6.208 1.29 7.73 1.697 1.148 4.769 1.114 6.654.255 2.69-1.233 3.14-3.453 3.157-5.451.008-1.76-1.774-3.997-3.904-4.66zm35.5.391c-1.273-.423-2.645-.446-3.931-.066a6.58 6.58 0 0 0-3.266 2.192c-1.698 2.177-.993 6.199 1.298 7.721 1.698 1.156 4.761 1.123 6.645.255 2.691-1.225 3.149-3.453 3.157-5.451 0-1.794-1.79-3.997-3.903-4.651zm35.466 0c-1.273-.423-2.645-.446-3.931-.066a6.58 6.58 0 0 0-3.266 2.192c-1.698 2.177-.993 6.199 1.298 7.721 1.698 1.156 4.761 1.123 6.645.255 2.691-1.225 3.149-3.453 3.157-5.451.017-1.794-1.773-3.997-3.903-4.651zm35.483.451a6.58 6.58 0 0 0-3.93-.063c-1.286.38-2.425 1.143-3.267 2.188-1.698 2.177-.993 6.208 1.298 7.73 1.698 1.148 4.761 1.114 6.654.255 2.682-1.233 3.14-3.461 3.148-5.451.017-1.752-1.773-3.997-3.903-4.66zm34.727.102c-1.277-.431-2.656-.458-3.949-.077s-2.439 1.149-3.282 2.203c-1.697 2.177-.993 6.199 1.299 7.721 1.697 1.157 4.761 1.123 6.653.255 2.682-1.225 3.141-3.452 3.149-5.451.051-1.794-1.765-3.997-3.87-4.652z"/></g><g fill="#ff6952"><path d="M220.06 88.89c0-.604.357-.85 1.019-.85s.848.255.848.757v.298c-.076 2.279-2.087 3.869-5.38 3.869-4.159 0-5.644-2.551-5.644-5.459v-2.721c0-2.917 1.451-5.459 5.78-5.459 2.979 0 5.151 1.454 5.151 3.946v.272c0 .425-.17.85-.925.85s-1.01-.425-1.01-.85v-.332c0-1.012-1.358-2.1-3.148-2.1-2.487 0-3.955 1.352-3.955 4.073v1.956c0 2.713 1.4 4.065 3.878 4.065 1.825 0 3.208-.927 3.319-2.083l.067-.23zm11.44-2.373v5.621c0 .578-.246.85-.925.85s-.916-.272-.916-.85v-.298a3.82 3.82 0 0 1-1.352.88 3.81 3.81 0 0 1-1.593.243c-1.918 0-3.522-.612-3.649-2.747-.111-1.862.993-2.653 2.741-3.044l3.853-.85c-.043-1.216-.391-1.896-2.173-1.939-1.476 0-2.249.689-2.249 1.199v.136c0 .323-.348.604-.942.587s-.899-.264-.899-.697v-.264c0-1.701 1.697-2.679 4.141-2.679 3.386.008 3.963 1.743 3.963 3.852zm-1.841 2.211v-.706l-3.59.85c-.326.043-.624.203-.841.45s-.337.565-.339.894c0 .85.807 1.106 1.842 1.055 1.468-.094 2.928-.757 2.928-2.543zm7.383-7.696c-.56 0-1.069.247-1.069.944v.85h1.579c.534 0 .772.255.772.85s-.238.85-.772.85h-1.579v7.56c0 .57-.263.85-.925.85s-.934-.281-.934-.85v-7.509h-.662c-.534 0-.772-.255-.772-.85s.238-.85.772-.85h.662v-.969c0-1.701 1.061-2.628 2.928-2.628h.662c.552 0 .849.247.849.85s-.289.85-.849.85l-.662.051zm1.817 5.757c0-2.194 1.332-4.116 4.404-4.116 2.47 0 4.125 1.497 4.125 3.929v.986c0 .68-.297.901-.891.901H240.7v.051c0 1.573.594 2.619 2.453 2.645 1.29 0 2.24-.468 2.24-1.165v-.145c0-.519.518-.612.959-.612s.849.17.849.74v.051c0 1.845-1.697 2.917-4.176 2.917-2.91 0-4.2-1.896-4.2-4.056l.034-2.126zm1.867 0h4.947v-.476c0-1.012-.848-1.879-2.41-1.879-.322-.042-.649-.013-.959.083a2.26 2.26 0 0 0-.837.476 2.25 2.25 0 0 0-.563.782 2.26 2.26 0 0 0-.187.946l.009.068z"/></g><g fill="#343b38"><path d="M8.623 54.024c.325-.134.615-.341.849-.604l.738-.646 1.562-1.412 3.081-2.857 3.072-2.874 1.485-1.395a12.67 12.67 0 0 0 1.502-1.437c.212-.255 0-.68-.373-.485a11.69 11.69 0 0 0-1.519 1.225l-1.613 1.369-3.191 2.713-3.182 2.789-1.528 1.344-.738.663c-.263.23-.628.459-.764.791a.56.56 0 0 0 .014.641.56.56 0 0 0 .605.209v-.034z"/><path d="M10.973 54.62c-.348-1.089-1.994-1.565-3.013-1.701a9.06 9.06 0 0 0-3.785.357 5.62 5.62 0 0 0-3.327 2.211A5.45 5.45 0 0 0 0 58.956c.168 1.263.698 2.451 1.525 3.419a6.6 6.6 0 0 0 3.135 2.04c2.605.85 6.093.459 7.901-1.803a5.47 5.47 0 0 0 1.358-3.937c-.144-1.352-.849-2.857-2.19-3.342-.441-.162-.73.442-.441.748a4.39 4.39 0 0 1 1.477 2.551c.055.5.009 1.005-.137 1.486a3.71 3.71 0 0 1-.711 1.311 6.33 6.33 0 0 1-2.845 1.791 6.32 6.32 0 0 1-3.359.08 5.47 5.47 0 0 1-2.732-1.329 5.49 5.49 0 0 1-1.605-2.583 4.26 4.26 0 0 1 .322-2.679c.226-.475.544-.901.936-1.251s.85-.619 1.347-.79c1.082-.422 2.234-.633 3.395-.621a6.32 6.32 0 0 1 1.697.272c.499.253 1.015.472 1.545.655a.3.3 0 0 0 .149-.004c.049-.014.093-.04.128-.076s.062-.08.075-.129.015-.1.004-.149zm31.944-1.752a5.86 5.86 0 0 0-3.649.332 6.29 6.29 0 0 0-2.911 2.134 5.91 5.91 0 0 0-.161 6.743 7.54 7.54 0 0 0 3.365 2.489 7.52 7.52 0 0 0 4.171.308c2.605-.527 5.024-2.364 5.516-5.102a5.28 5.28 0 0 0-.014-2.136 5.27 5.27 0 0 0-.86-1.954 8.01 8.01 0 0 0-1.612-1.701 5.15 5.15 0 0 0-.934-.604 1.7 1.7 0 0 0-1.12-.187c-.39.051-.424.561-.212.799a6.97 6.97 0 0 0 1.307.952 6.49 6.49 0 0 1 1.205 1.182c.688.768 1.066 1.766 1.061 2.798-.068 2.228-1.884 3.869-3.887 4.49-1.146.368-2.37.414-3.54.133a6.58 6.58 0 0 1-3.097-1.724 4.66 4.66 0 0 1-.568-5.349 5.34 5.34 0 0 1 2.478-2.203 20.02 20.02 0 0 1 3.463-.85.28.28 0 0 0 .197-.268c0-.06-.019-.118-.054-.166a.28.28 0 0 0-.142-.102v-.017z"/><path d="M36.79 55.699c.569.289 1.197-.731 1.502-1.08l1.596-1.896 3.148-3.878 3.047-3.861 1.511-1.93.764-.961a8.41 8.41 0 0 0 .67-1.046c.204-.349-.246-.655-.535-.417a9.28 9.28 0 0 0-.934.85l-.883 1.038-1.562 1.888-3.064 3.827-3.047 3.861-1.528 1.922c-.187.247-1.29 1.352-.704 1.65l.017.034zm35.771.808c.849-.935 1.477-2.032 2.223-3.036l2.444-3.299 4.812-6.803a21.9 21.9 0 0 0 2.02-4.039c.127-.34-.39-.536-.569-.238l-4.371 6.726-4.871 6.573c-.898 1.116-1.675 2.325-2.317 3.606-.153.366.297.85.611.468l.017.043z"/><path d="M75.574 53.352a5.75 5.75 0 0 0-3.071 1.753 5.77 5.77 0 0 0-1.469 3.222 6.59 6.59 0 0 0 .772 3.214 5.76 5.76 0 0 0 2.325 2.236 7.48 7.48 0 0 0 6.832.145c2.147-1.003 4.243-2.985 3.895-5.544a5.49 5.49 0 0 0-1.935-3.478c-.511-.445-1.082-.814-1.697-1.097a3.71 3.71 0 0 0-2.028-.442.42.42 0 0 0-.282.294.42.42 0 0 0 0 .211c.018.069.054.132.103.184a5.09 5.09 0 0 0 1.264.689 10.12 10.12 0 0 1 1.417.799 4.54 4.54 0 0 1 1.723 2.288 3.15 3.15 0 0 1 .18 1.381 3.14 3.14 0 0 1-.434 1.323c-.564.834-1.329 1.513-2.224 1.973a6.44 6.44 0 0 1-2.715.858 6.43 6.43 0 0 1-2.819-.399 5.39 5.39 0 0 1-2.147-1.454c-.535-.68-.888-1.484-1.027-2.339a3.78 3.78 0 0 1 .849-3.104 10.33 10.33 0 0 1 2.758-2.126c.064-.041.111-.103.133-.176s.019-.151-.011-.221-.082-.127-.15-.162-.145-.044-.219-.028h-.025zm-60.739 8.972l2.274-.561 2.232-.697 4.473-1.556a3.97 3.97 0 0 1 2.181-.153l2.198.553 4.294 1.488 4.77 1.913c.569.204.968-.723.416-.978-2.828-1.318-5.753-2.416-8.75-3.282l-2.257-.604a5.84 5.84 0 0 0-2.266-.196 12.36 12.36 0 0 0-2.181.655l-2.368.85-2.546.944c-.849.332-1.697.85-2.622 1.191-.255.102-.161.51.119.425l.034.008z"/><path d="M370.301 64.747c.806-.357 1.638-.604 2.452-.935l2.198-1.003 4.473-2.169a2.77 2.77 0 0 1 2.164-.059 21.63 21.63 0 0 1 2.113.757 44.75 44.75 0 0 1 4.142 2.015l4.676 2.611c.123.072.269.093.406.057a.53.53 0 0 0 .189-.091.55.55 0 0 0 .139-.157.54.54 0 0 0 .069-.198.57.57 0 0 0-.012-.209c-.018-.068-.049-.132-.092-.189a.52.52 0 0 0-.156-.139c-2.739-1.748-5.621-3.262-8.614-4.524l-2.249-.85c-.718-.29-1.497-.396-2.266-.306a9.25 9.25 0 0 0-2.283.944l-2.359 1.174-2.546 1.318-2.614 1.556c-.263.144 0 .502.221.391l-.051.008zM49.223 62.928a13.03 13.03 0 0 0 2.877-.748l2.903-.944 2.902-.969a10.44 10.44 0 0 1 2.775-.68c1.697-.077 3.242.621 4.821 1.072l4.243 1.233 2.419.901a19.14 19.14 0 0 0 2.393.986.47.47 0 0 0 .572-.507.47.47 0 0 0-.122-.267 5.03 5.03 0 0 0-2.02-1.31c-.733-.325-1.484-.609-2.249-.85-1.468-.451-2.987-.757-4.49-1.105s-3.166-.969-4.803-1.19c-2.02-.272-3.895.553-5.771 1.182l-3.395 1.156a15.2 15.2 0 0 0-3.25 1.301c-.289.178-.195.714.187.68l.008.059zm62.513-9.533a5.82 5.82 0 0 0-3.012 1.472 5.85 5.85 0 0 0-1.707 2.891c-.244 1.046-.185 2.14.17 3.154a5.65 5.65 0 0 0 1.833 2.569 7.77 7.77 0 0 0 3.276 1.31 5.93 5.93 0 0 0 3.081-.264c2.376-.85 4.668-2.551 4.574-5.332a6.46 6.46 0 0 0-1.986-4.456 5.09 5.09 0 0 0-1.957-1.311 5.08 5.08 0 0 0-2.337-.288c-.305.051-.255.485 0 .57a8.75 8.75 0 0 1 3.2 1.641 5.37 5.37 0 0 1 1.824 3.189 3.58 3.58 0 0 1-.006 1.515 3.6 3.6 0 0 1-.63 1.377c-.66.792-1.514 1.399-2.478 1.76a5.14 5.14 0 0 1-2.614.519 7.18 7.18 0 0 1-2.708-.799 4.04 4.04 0 0 1-1.901-1.93c-.351-.761-.522-1.594-.5-2.432.084-2.355 1.901-4.005 3.988-4.771.025-.007.049-.018.07-.034s.037-.035.05-.058.022-.047.025-.073a.2.2 0 0 0-.005-.077c-.007-.025-.018-.049-.034-.069s-.035-.038-.058-.051-.047-.022-.073-.025-.051-.002-.076.005h-.009z"/><path d="M108.29 56.686c.319-.448.586-.93.798-1.437l.849-1.701 1.782-3.52 3.658-7.126.916-1.905c.136-.306.221-.629.357-.944a4.58 4.58 0 0 0 .297-.935c.051-.213-.229-.442-.399-.238-.373.451-.594.995-.925 1.463a12.12 12.12 0 0 0-.849 1.59l-1.85 3.504-3.632 7.279-.849 1.922a6.7 6.7 0 0 0-.585 1.879c.002.05.019.098.048.139a.26.26 0 0 0 .262.106c.049-.009.094-.032.131-.066l-.009-.009zm-23.041 7.092a13.79 13.79 0 0 0 3.14-1.105c1.12-.505 2.211-1.072 3.267-1.701a21.75 21.75 0 0 1 3.098-1.701 5.79 5.79 0 0 1 1.757-.434 1.54 1.54 0 0 1 .28 0c-.093 0 .093 0 .17 0a24.03 24.03 0 0 1 3.776 1.412l5.534 2.347 3.165 1.327c.272.111.535.136.849.221l.721.238a9.23 9.23 0 0 0 1.367.366.34.34 0 0 0 .238-.022c.074-.036.132-.097.165-.173a.34.34 0 0 0-.14-.426 8.91 8.91 0 0 0-1.112-.621l-.569-.281c-.246-.119-.433-.272-.662-.4-.441-.238-.95-.4-1.417-.595l-1.468-.604-5.805-2.288a33.82 33.82 0 0 0-4.142-1.378c-1.867-.425-3.743.502-5.27 1.488a50.66 50.66 0 0 1-7.18 3.691c-.407.179-.093.731.28.672l-.042-.034zm62.725-10.077a5.59 5.59 0 0 0-3.276 1.072c-.821.591-1.483 1.377-1.926 2.288a8.03 8.03 0 0 0-.586 3.401 4.73 4.73 0 0 0 1.341 3.223 7.33 7.33 0 0 0 3.61 1.83 7.32 7.32 0 0 0 4.028-.367 6.69 6.69 0 0 0 2.827-2.169 6.71 6.71 0 0 0 1.315-3.315 6.09 6.09 0 0 0-1.053-3.538 5.56 5.56 0 0 0-1.34-1.412 5.5 5.5 0 0 0-1.859-.85c-.535-.153-.738.638-.229.85.902.346 1.695.93 2.292 1.69a5.37 5.37 0 0 1 1.103 2.63c.28 1.93-1.18 3.827-2.75 4.762a6.33 6.33 0 0 1-6.56-.349 3.92 3.92 0 0 1-1.63-2.458 7.12 7.12 0 0 1 .136-2.84c.294-1.025.884-1.94 1.697-2.629a5.37 5.37 0 0 1 2.869-1.24c.331-.042.348-.544 0-.536l-.009-.043z"/><path d="M143.756 56.796l3.319-7.296 1.476-3.75.654-1.905a6.91 6.91 0 0 0 .484-1.913c0-.213-.306-.374-.459-.187-.357.548-.642 1.14-.848 1.76l-.747 1.701-1.621 3.818a64.36 64.36 0 0 0-2.775 7.517c-.077.298.356.502.509.221l.008.034zm-23.1 6.872l4.565-2.441 2.317-1.327a21.18 21.18 0 0 1 2.071-1.131 5.78 5.78 0 0 1 2.309-.298c.782.058 1.544.276 2.24.638l4.6 2.168 2.665 1.233 1.357.544c.422.189.868.321 1.324.391.196 0 .272-.247.153-.374a4.36 4.36 0 0 0-1.01-.697l-1.23-.706-2.411-1.182-4.82-2.279c-1.469-.763-3.148-1.02-4.778-.731a8.22 8.22 0 0 0-2.164 1.004l-2.241 1.386-5.194 3.359a.26.26 0 0 0-.117.158c-.017.066-.007.136.028.195s.092.101.158.118a.26.26 0 0 0 .195-.028h-.017zm70.728.467a12.18 12.18 0 0 0 2.648-.961l2.546-1.097 2.546-1.122c.79-.398 1.621-.708 2.478-.927 1.57-.306 3.216.544 4.617 1.174l3.937 1.913 2.496 1.225 1.171.561a4.92 4.92 0 0 0 1.349.349c.399.051.611-.544.331-.791a7.75 7.75 0 0 0-2.122-1.225l-2.342-1.063-4.286-1.803c-1.442-.57-3.072-1.395-4.693-1.429a6.12 6.12 0 0 0-2.546.595l-2.656 1.165-2.911 1.31a13.67 13.67 0 0 0-2.911 1.514c-.323.247.051.663.356.612h-.008zm35.593.493c1.005-.236 1.973-.608 2.877-1.105a28.64 28.64 0 0 0 3.047-1.76 19.55 19.55 0 0 1 2.758-1.701c.502-.239 1.042-.388 1.596-.442a1.27 1.27 0 0 1 .254 0c-.136 0 .093 0 .144 0a20.79 20.79 0 0 1 3.395 1.412l5.024 2.338 2.911 1.327c.255.111.501.145.755.23l.662.238a8.06 8.06 0 0 0 1.265.366.34.34 0 0 0 .263-.621 7.52 7.52 0 0 0-1.01-.612l-.518-.289c-.22-.111-.39-.272-.602-.391-.4-.211-.811-.401-1.231-.57l-1.349-.612-5.355-2.304a29.16 29.16 0 0 0-3.811-1.386c-1.697-.425-3.454.519-4.812 1.48a46.23 46.23 0 0 1-6.577 3.699c-.399.196-.102.74.28.672l.034.034zm36.374.307c1.596-.663 3.115-1.48 4.642-2.279l2.283-1.216a18.91 18.91 0 0 1 2.19-1.114 5.72 5.72 0 0 1 4.532.442l4.591 2.347 2.631 1.318 1.332.578a4.9 4.9 0 0 0 1.299.468c.204 0 .263-.247.153-.374a4.74 4.74 0 0 0-.993-.731l-1.214-.74-2.368-1.267-4.752-2.432c-1.449-.789-3.113-1.087-4.744-.85-.776.183-1.519.481-2.207.884l-2.3 1.31-5.287 3.18c-.221.153-.093.595.195.476h.017zM182.795 53.65c-1.123.144-2.175.628-3.015 1.388a5.56 5.56 0 0 0-1.686 2.864c-.236 1.172-.138 2.386.282 3.505s1.146 2.096 2.094 2.822c1.048.865 2.338 1.384 3.692 1.488 1.399.032 2.765-.428 3.861-1.301 1.042-.76 1.839-1.81 2.292-3.019s.541-2.525.254-3.784a5.74 5.74 0 0 0-2.41-3.453c-1.095-.714-2.852-1.301-4.074-.612a.44.44 0 0 0-.162.183c-.035.075-.048.159-.038.241a.43.43 0 0 0 .302.359c.492.085.993.06 1.485.145a4.59 4.59 0 0 1 1.553.519c.9.495 1.6 1.289 1.978 2.245.374.986.444 2.063.2 3.089a5.26 5.26 0 0 1-1.567 2.668c-.77.772-1.755 1.294-2.826 1.497a4.81 4.81 0 0 1-3.191-.748 5.61 5.61 0 0 1-2.064-2.052c-.496-.854-.759-1.824-.762-2.812.059-1.093.474-2.137 1.18-2.972s1.666-1.416 2.733-1.654c.331-.068.263-.638-.085-.604h-.026z"/><path d="M181.437 54.56c.366-1.291.621-2.611.764-3.946l.628-4.082a56.26 56.26 0 0 0 .917-8.062.25.25 0 0 0-.066-.149c-.038-.041-.089-.067-.145-.075s-.111.003-.159.032-.086.072-.105.125a46.87 46.87 0 0 0-1.655 7.977l-.569 3.997a23.66 23.66 0 0 0-.356 4.09c.004.088.038.172.098.237s.14.107.227.118a.38.38 0 0 0 .25-.056.37.37 0 0 0 .154-.204h.017zM157.7 64.178c1.645-.706 3.246-1.51 4.795-2.407l2.427-1.233a16.19 16.19 0 0 1 2.427-1.131 3.24 3.24 0 0 1 2.547.493l2.172 1.046 4.617 2.075 2.546 1.114a6.85 6.85 0 0 0 2.546.85c.052-.002.103-.019.145-.049s.076-.072.096-.12.025-.102.015-.153-.033-.099-.069-.137a5.43 5.43 0 0 0-2.046-1.301l-2.359-1.029-4.82-2.024-2.317-1.004c-.739-.418-1.564-.66-2.411-.706a6.39 6.39 0 0 0-2.427.85l-2.495 1.276-2.767 1.48c-.966.491-1.891 1.06-2.766 1.701-.187.145-.094.527.187.425l-.043-.017zm141.694.34c1.621-.748 3.149-1.701 4.702-2.551l4.43-2.551c1.536-.723 3.064-.247 4.489.519s2.988 1.837 4.481 2.747l2.614 1.582 1.265.68c.432.262.897.465 1.383.604.161 0 .374-.153.246-.323-.25-.287-.535-.541-.848-.757l-1.239-.91-2.351-1.505-4.727-2.908a6.78 6.78 0 0 0-4.753-1.08 7.44 7.44 0 0 0-2.223 1.02l-2.402 1.48-5.321 3.47c-.05.039-.084.096-.096.158s0 .127.032.182a.26.26 0 0 0 .142.117c.061.02.126.018.185-.006l-.009.034zm35.517.204a37.89 37.89 0 0 0 4.473-2.219l2.308-1.165a12.47 12.47 0 0 1 2.198-.961 3.01 3.01 0 0 1 2.241.476l2.019.978 4.159 1.862 2.436 1.029a5.75 5.75 0 0 0 2.317.714.27.27 0 0 0 .145-.049c.043-.03.076-.072.096-.12s.025-.102.015-.153-.034-.099-.07-.137a4.6 4.6 0 0 0-1.867-1.191l-2.206-.961-4.498-1.871-2.156-.927a4.79 4.79 0 0 0-2.147-.595 5.83 5.83 0 0 0-2.19.748l-2.368 1.216-2.546 1.369a17.06 17.06 0 0 0-2.546 1.565c-.186.145 0 .468.23.391h-.043zM219.059 54.177a4.96 4.96 0 0 0-3.497 1.097 6.95 6.95 0 0 0-2.367 2.976c-.461 1.225-.523 2.564-.177 3.826a6.19 6.19 0 0 0 2.103 3.198c1.078.824 2.365 1.329 3.715 1.458a7.25 7.25 0 0 0 3.923-.727c1.031-.473 1.934-1.187 2.631-2.083.63-.813 1.002-1.796 1.069-2.823.191-1.531-.135-3.081-.925-4.405a4.98 4.98 0 0 0-1.736-1.632c-.702-.395-1.49-.614-2.295-.638-.075.004-.147.031-.205.078s-.101.112-.121.184a.36.36 0 0 0 .011.22.35.35 0 0 0 .137.172 8.83 8.83 0 0 1 2.936 1.896 4.86 4.86 0 0 1 1.002 3.129 4.68 4.68 0 0 1-.543 2.602 5.5 5.5 0 0 1-1.842 1.803 6.39 6.39 0 0 1-6.255.298c-.924-.509-1.675-1.285-2.154-2.226a5.29 5.29 0 0 1-.536-3.054c.237-1.208.863-2.304 1.782-3.121a8.48 8.48 0 0 1 3.344-1.616c.255-.076.306-.527 0-.57v-.042z"/><path d="M217.005 55.147a10.64 10.64 0 0 0 .289-2.262 26.41 26.41 0 0 0 0-2.951l-.306-6.097c0-.23 0-.459-.051-.689l-.144-.646c-.041-.321-.112-.637-.212-.944-.016-.047-.046-.088-.087-.117s-.088-.044-.138-.044a.24.24 0 0 0-.138.044c-.04.028-.071.07-.087.117-.086.277-.143.562-.17.85v.247c0 .043-.042.298 0 .17-.038.094-.069.191-.093.289v.332 2.772l.229 6.242a19.1 19.1 0 0 0 .314 2.687c.019.065.059.122.113.163s.121.063.188.063.134-.022.189-.063a.31.31 0 0 0 .113-.163h-.009zm35.636-.442c-2.173.85-4.108 2.679-4.243 5.102a6.44 6.44 0 0 0 .694 3.08c.483.953 1.195 1.771 2.072 2.379 1.148.665 2.436 1.05 3.76 1.123a7.53 7.53 0 0 0 3.14-.255c.872-.285 1.673-.755 2.346-1.379a6.37 6.37 0 0 0 1.558-2.235 5.48 5.48 0 0 0 .398-2.206 5.47 5.47 0 0 0-.517-2.181 8.08 8.08 0 0 0-2.885-3.231c-.518-.374-1.129.442-.671.85 1.511 1.412 3.047 3.401 2.453 5.587a4.87 4.87 0 0 1-1.248 2.151 4.38 4.38 0 0 1-1.502 1.063 7.73 7.73 0 0 1-5.397-.204 4.84 4.84 0 0 1-1.897-1.509c-.494-.656-.814-1.427-.93-2.241-.415-2.219 1.341-4.175 3.208-5.102.416-.213.119-.952-.331-.774l-.008-.017z"/><path d="M253.549 43.369a20.4 20.4 0 0 0 .925 3.138l1.129 3.104 1.163 3.002a16.31 16.31 0 0 0 1.459 2.993c.045.113.133.203.245.251s.237.049.349.004a.46.46 0 0 0 .255-.595 16.63 16.63 0 0 0-1.078-3.121l-1.273-3.053-1.23-2.959a27.24 27.24 0 0 0-1.384-3.036c-.036-.063-.094-.11-.163-.133s-.143-.02-.21.008-.12.08-.152.145-.038.14-.018.21l-.017.042zm33.59 11.795c-1.193.575-2.161 1.532-2.749 2.721-.511 1.113-.628 2.366-.331 3.554a8.26 8.26 0 0 0 1.519 3.316 6.71 6.71 0 0 0 3.395 2.16c1.059.275 2.168.301 3.239.077a7.12 7.12 0 0 0 2.939-1.37c1.969-1.531 2.495-4.252 1.943-6.624a5.77 5.77 0 0 0-2.317-3.401 6.78 6.78 0 0 0-1.578-.85 1.69 1.69 0 0 0-.656-.207 1.71 1.71 0 0 0-.685.071c-.083.027-.157.075-.217.138a.52.52 0 0 0-.126.225c-.023.084-.024.173-.005.258s.061.164.119.229c.208.217.46.388.738.502.374.182.737.387 1.087.612a4.65 4.65 0 0 1 1.841 1.956c.738 1.701.62 4.167-.747 5.51a5.14 5.14 0 0 1-1.697 1.08 5.56 5.56 0 0 1-2.648.417c-1.035-.123-2.014-.542-2.817-1.208a5.27 5.27 0 0 1-1.604-2.338c-.443-.968-.565-2.053-.348-3.095a5.1 5.1 0 0 1 2.223-2.925.49.49 0 1 0-.492-.85l-.026.042z"/><path d="M284.415 38.786a10.02 10.02 0 0 0 .849 1.845l1.069 2.058 2.334 4.252 4.795 8.112a22.73 22.73 0 0 0 2.342 3.24c.365.391.968-.111.73-.561-1.239-2.288-2.724-4.456-4.09-6.667l-5.092-8.342-1.324-2.16a12.4 12.4 0 0 0-1.316-1.964.18.18 0 0 0-.099-.04c-.036-.003-.073.005-.104.024a.18.18 0 0 0-.085.187l-.009.017zm38.08 16.667c-3.963 1.998-3.327 7.764-.11 10.136a6.88 6.88 0 0 0 6.509.536c1.1-.386 2.062-1.088 2.766-2.018a5.96 5.96 0 0 0 1.197-3.212 5.71 5.71 0 0 0-.178-2.219 5.55 5.55 0 0 0-1.23-1.939 6.21 6.21 0 0 0-1.994-1.515 6.19 6.19 0 0 0-2.428-.603c-.339 0-.543.527-.187.689a13.01 13.01 0 0 1 3.293 1.947c.439.343.799.777 1.056 1.271a3.93 3.93 0 0 1 .438 1.595c.076.943-.134 1.888-.604 2.709s-1.176 1.481-2.027 1.892c-.834.449-1.763.691-2.709.707a5.93 5.93 0 0 1-2.731-.614 5.44 5.44 0 0 1-1.712-1.669 5.46 5.46 0 0 1-.834-2.243c-.15-.918-.047-1.859.299-2.723a5.1 5.1 0 0 1 1.661-2.175c.331-.255-.093-.723-.424-.553h-.051z"/><path d="M311.793 32.654l7.223 9.805 8.249 11.131.424.578a6.45 6.45 0 0 0 .288.374l.111.128c.042.068.093.128.136.187l.076.102s-.068-.093 0 0l.178.238.348.459a3.88 3.88 0 0 0 .798.85l.136.093c.416.247-.289-.153.102.068a.65.65 0 0 0 .492.119l-.425-.17c.272.408.925 0 .654-.374l-.06.459a.52.52 0 0 0 .104-.191.53.53 0 0 0 .015-.217v-.221c-.085-.434.043.306 0 0a.98.98 0 0 0 0-.153c-.061-.303-.179-.591-.348-.85l-1.222-1.76-3.836-5.017-9.123-11.472-3.827-4.498c-.204-.23-.62.077-.433.332h-.06zm47.458 22.85a7.06 7.06 0 0 0-3.024 2.441c-.761 1.081-1.203 2.353-1.279 3.674a5.11 5.11 0 0 0 .37 2.007 5.1 5.1 0 0 0 1.124 1.701 5.83 5.83 0 0 0 3.064 1.463 10.38 10.38 0 0 0 3.394 0c.922-.108 1.813-.397 2.623-.85 1.058-.696 1.873-1.707 2.329-2.89s.533-2.48.217-3.709c-.343-1.009-.949-1.908-1.757-2.602a7 7 0 0 0-1.697-1.139 6.47 6.47 0 0 0-1.172-.434 3.76 3.76 0 0 0-.594-.136c-.246 0-.5.06-.755.051-.39 0-.407.519-.085.646a3.23 3.23 0 0 1 .492.315 2.89 2.89 0 0 0 .45.162l.891.374c.484.235.942.52 1.367.85.654.491 1.183 1.129 1.544 1.862a3.38 3.38 0 0 1 .272.799c.004.057.004.113 0 .17 0-.178 0 .17 0 .204a5.03 5.03 0 0 1 0 .85 5.17 5.17 0 0 1-1.511 3.112 4.06 4.06 0 0 1-2.13 1.02 9.64 9.64 0 0 1-2.707.23c-.937-.028-1.855-.272-2.682-.714a3.76 3.76 0 0 1-1.143-1.026 3.77 3.77 0 0 1-.639-1.398c-.637-2.483 1.222-5.221 3.293-6.446.314-.187.11-.757-.255-.612v.026z"/><path d="M348.6 39.738l7.002 7.407 6.263 6.862 1.765 1.862.959.986s.705.672 1.239.561a.52.52 0 0 0 .244-.139.53.53 0 0 0 .138-.244c.195-.791-.747-1.497-1.23-2.007l-1.613-1.701-3.148-3.317-6.688-6.803a94.12 94.12 0 0 0-4.388-4.014c-.373-.323-.899.179-.543.544zm45.379 16.089a6.23 6.23 0 0 0-2.918 2.351 6.25 6.25 0 0 0-1.046 3.602 5.57 5.57 0 0 0 1.201 3.112 5.55 5.55 0 0 0 2.763 1.863c1.2.362 2.471.42 3.7.168a7.55 7.55 0 0 0 3.335-1.613 6.27 6.27 0 0 0 1.626-2.495c.334-.95.434-1.967.292-2.965a5.62 5.62 0 0 0-1.96-3.231c-1.097-.962-2.483-1.531-3.938-1.616a.51.51 0 0 0-.483.441c-.016.118.01.239.073.34a.51.51 0 0 0 .274.214 11.43 11.43 0 0 1 3.013 1.258 4.71 4.71 0 0 1 1.765 2.364c.189.597.224 1.231.102 1.845a5.31 5.31 0 0 1-.985 2.389 6.11 6.11 0 0 1-5.584 1.99 4.69 4.69 0 0 1-2.468-1.033 4.71 4.71 0 0 1-1.504-2.216 5.61 5.61 0 0 1 .438-3.603 5.6 5.6 0 0 1 2.55-2.579c.331-.153.093-.714-.238-.587h-.008z"/><path d="M351.749 22.892a46.32 46.32 0 0 0 3.844 3.47l3.947 3.402 8.003 6.701 15.955 13.512 4.404 3.852 2.13 1.871c.682.709 1.466 1.311 2.326 1.786.066.035.143.048.217.037a.35.35 0 0 0 .197-.099c.054-.053.09-.121.102-.196a.35.35 0 0 0-.033-.218 7.8 7.8 0 0 0-1.697-1.862l-1.909-1.743-3.887-3.444-7.995-6.803-16.184-13.393-4.574-3.657a57.72 57.72 0 0 0-4.609-3.546c-.195-.128-.39.153-.237.306v.026zm-24.255-4.481c2.546.085 5.092-.059 7.638-.136l3.793-.136 3.87-.153c.142-.017.273-.086.368-.193a.59.59 0 0 0 .148-.389c0-.143-.053-.282-.148-.389s-.226-.176-.368-.193l-3.87.136-3.793.153-7.638.434a.44.44 0 0 0-.25.15.43.43 0 0 0-.098.275.44.44 0 0 0 .098.275c.063.078.152.131.25.15v.017zM99.074 199.2a7.82 7.82 0 0 0 .849.621 5.77 5.77 0 0 1 .848.646c.246.231.471.485.671.757l.288.425a5.39 5.39 0 0 0 .348.51c.064.058.145.094.231.103a.41.41 0 0 0 .247-.053c.074-.044.133-.11.168-.189a.41.41 0 0 0 .025-.252 3.08 3.08 0 0 0-.645-1.054 5.69 5.69 0 0 0-.849-.851 3.73 3.73 0 0 0-2.071-1.029c-.038.001-.075.013-.106.035s-.056.051-.07.087a.2.2 0 0 0-.011.111c.007.038.025.072.052.099l.025.034zm9.267-.578c-.089-.018-.181-.018-.271 0-.094.031-.185.07-.272.119a4.17 4.17 0 0 0-.458.297 4.05 4.05 0 0 0-.687.74 3.69 3.69 0 0 0-.484.85 1.82 1.82 0 0 0-.238 1.14.43.43 0 0 0 .11.18c.052.049.115.085.184.103s.141.017.21-.001.132-.054.184-.103c.07-.09.124-.19.161-.298.059-.136 0 .11 0-.068a1.03 1.03 0 0 0 0-.136l.076-.204c.051-.136 0 .076 0-.051l.06-.153c.051-.136 0 .085 0-.051-.004-.026-.004-.051 0-.077l.101-.195c.072-.136.151-.266.238-.392l.068-.085c0-.068 0 0 0 0l.144-.161.306-.315.314-.298c.11-.093.119-.085.17-.136a.76.76 0 0 0 .144-.221.29.29 0 0 0 .034-.139.28.28 0 0 0-.037-.138c-.023-.043-.057-.079-.098-.104a.3.3 0 0 0-.137-.044l.178-.059zM94.975 211.59a30.51 30.51 0 0 0 5.499.408h2.75a8.29 8.29 0 0 0 2.741-.374.27.27 0 0 0 .124-.097c.03-.044.046-.096.046-.15s-.016-.106-.046-.15-.074-.077-.124-.096a9.29 9.29 0 0 0-2.656-.17l-2.75.042c-1.833 0-3.692-.119-5.508 0-.297 0-.407.485-.076.553v.034zM37.528 28.062a7.34 7.34 0 0 0 1.833 0l1.935-.085 3.878-.153 3.878-.119 1.867-.051c.339 0 .679 0 1.01-.068a1.55 1.55 0 0 0 .764-.17.17.17 0 0 0 .08-.145.17.17 0 0 0-.08-.145 3.64 3.64 0 0 0-1.697-.179h-1.935l-3.878.119-3.879.179-1.85.102a8.04 8.04 0 0 0-1.918.213c-.221.076-.263.442 0 .493l-.009.009zm308.424 91.569a15.03 15.03 0 0 0 2.623.093l2.707.051 5.347.094 5.346.093c1.806.115 3.617.115 5.423 0 .204 0 .297-.365.06-.4-1.763-.206-3.538-.295-5.313-.263l-5.431-.111-5.432-.076h-2.707a13.52 13.52 0 0 0-2.623 0c-.054.02-.1.055-.133.103a.28.28 0 0 0 0 .321c.033.047.079.083.133.103v-.008zm5.873 11.531a1.88 1.88 0 0 0 .204-.919c0-.323.068-.646.093-.978l-.399.4 4.023-.4h.441c.034-.004.068-.004.102 0 .051 0 0-.051 0 0a2.09 2.09 0 0 1-.102.757c-.135.544-.475.995-.628 1.531-.042.144.111.34.28.272a1.55 1.55 0 0 0 .747-.646c.169-.296.298-.614.382-.944.153-.596.306-1.599-.492-1.786a3.2 3.2 0 0 0-1.061 0l-1.205.119-2.546.255a.42.42 0 0 0-.275.124c-.074.073-.118.172-.124.276 0 .331-.042.654-.059.978v.442c-.016.166.023.333.11.476.093.204.365.153.475 0l.034.043zm-55.444-8.564l11.755-.17 11.737-.612 3.208-.213 1.697-.119a5.85 5.85 0 0 0 1.638-.212c.373-.145.458-.74 0-.851-.459-.063-.924-.063-1.383 0l-1.519.102-2.954.187-5.83.341-11.746.646-6.594.451c-.054.01-.103.039-.138.082a.24.24 0 0 0-.055.151c0 .055.019.109.055.152s.084.072.138.082l-.009-.017zm-1.765 64.765c2.19.195 4.396.144 6.594.136l6.416-.102 13.002-.476 3.717-.196c.611 0 1.231-.077 1.85-.119l.849-.06a1.29 1.29 0 0 0 .849-.365.49.49 0 0 0 .11-.181c.023-.068.03-.141.021-.212s-.034-.139-.073-.199-.091-.111-.152-.148a2.38 2.38 0 0 0-1.502-.187l-1.697.076-3.2.17-6.501.298-12.925.417-7.349.297a.42.42 0 0 0-.3.125c-.08.08-.125.188-.125.301s.045.22.125.3a.42.42 0 0 0 .3.125h-.009zm19.876 54.755c-.137.769-.211 1.549-.221 2.33l-.161 2.611-.119 2.143c-.059.357-.059.722 0 1.08.119.416.586.331.917.331h1.994 3.675 7.027l3.921-.059 1.969-.06c.65.001 1.299-.067 1.935-.204.288-.068.322-.561 0-.612-1.099-.093-2.203-.093-3.302 0l-3.318.068h-6.679c-2.232 0-4.702-.042-7.052-.042a2.33 2.33 0 0 0-.501 0c-.102.153.28.212.238.357a.88.88 0 0 0 0-.145v-.57l.05-1.922.077-2.806c.06-.851.032-1.706-.085-2.551-.012-.038-.036-.071-.068-.095s-.07-.036-.11-.036-.079.013-.111.036a.18.18 0 0 0-.067.095l-.009.051zm-.314 14.822c-.323 1.542-.423 3.123-.297 4.694.002.112.048.219.127.298a.43.43 0 0 0 .297.127c7.638-.493 15.344-.425 23.016-.527l2.979-.042a17.96 17.96 0 0 0 2.792-.119c.055-.018.103-.052.137-.099s.053-.103.053-.161a.27.27 0 0 0-.053-.16c-.034-.047-.082-.082-.137-.099a17.47 17.47 0 0 0-2.495-.094h-2.648-5.821c-3.998 0-8.003.051-12.001.179-1.943.068-3.887.144-5.822.289l.425.425c-.19-1.537-.227-3.09-.111-4.634-.005-.051-.027-.099-.063-.136a.23.23 0 0 0-.134-.068c-.051-.007-.103.004-.147.03a.23.23 0 0 0-.097.114v-.017zm.051 9.04c-.167.869-.266 1.751-.297 2.636l-.136 2.874c-.034.663-.034 1.327 0 1.99 0 .185.041.368.119.536.238.382.798.246 1.163.212 2.24-.187 4.515-.153 6.789-.187l7.35-.093c2.5.017 4.999-.111 7.485-.383a.17.17 0 1 0 0-.34c-2.079-.17-4.176-.136-6.263-.119l-6.985.11-6.687.094h-1.486c-.228-.034-.459-.034-.687 0-.11 0-.221-.085 0 .119l.178.196a.14.14 0 0 1 0-.086c0-.085 0 0 0 0v-.161-.391-1.004-2.959l.068-2.951a.3.3 0 0 0-.08-.183c-.047-.05-.109-.082-.177-.091s-.137.006-.195.042-.103.091-.125.156l-.034-.017zm-.136 12.772c-.221 1.086-.27 2.199-.144 3.3.085.527.212 1.216.772 1.403a11.84 11.84 0 0 0 2.792.34c3.548.238 7.121.34 10.685.34 1.884.046 3.768-.02 5.644-.195.027-.008.051-.024.068-.046s.027-.05.027-.078-.01-.055-.027-.078-.041-.038-.068-.045c-1.536-.162-3.098-.187-4.651-.23l-5.482-.161-5.016-.221c-1.102-.043-2.201-.142-3.293-.298-.153 0-.305-.06-.45-.102s0 .042 0 0 .094.119.077.059a3.65 3.65 0 0 0-.136-.331c-.298-1.168-.399-2.379-.297-3.58 0-.264-.424-.332-.467-.06l-.034-.017zm-.356 11.463c-.143 1.014-.197 2.038-.162 3.062v3.172a.45.45 0 0 0 .45.45c4.49-.178 8.988-.068 13.477 0l16.77.417c2.164.051 4.345.085 6.509 0a.18.18 0 0 0 .126-.052c.034-.034.052-.079.052-.127s-.018-.092-.052-.126a.18.18 0 0 0-.126-.052c-1.875-.247-3.768-.366-5.66-.442l-7.817-.264-16.769-.323c-2.173 0-4.337-.043-6.51.059l.45.46c0-1.063 0-2.118-.059-3.172.026-1.025-.042-2.05-.204-3.062-.014-.05-.044-.094-.085-.126s-.092-.049-.144-.049-.103.017-.144.049-.072.076-.085.126h-.017zm.017 11.293a37.98 37.98 0 0 0 0 6.591c0 .13.052.256.144.348a.49.49 0 0 0 .348.145l18.951.297 11.084.077h10.54l5.253-.162 4.447-.297c.331-.043.229-.544-.076-.561-1.299-.06-2.597 0-3.895 0h-4.592-10.396c-7.231 0-14.459-.071-21.684-.213l-9.632-.162.492.502c-.209-2.19-.308-4.39-.297-6.59 0-.46-.653-.451-.696 0l.009.025z"/><path d="M295.626 204.149c4.244.417 8.487.51 12.781.629s8.41 0 12.611-.306c2.422-.053 4.836-.312 7.214-.774a.66.66 0 0 0 .373-.275c.087-.134.123-.294.101-.453a.66.66 0 0 0-.219-.408c-.12-.105-.274-.164-.433-.165-2.127.002-4.252.127-6.365.374-2.071.154-4.144.275-6.221.366-4.243.187-8.487.442-12.73.468h-7.146c-.065.011-.123.045-.166.096a.28.28 0 0 0-.065.18c0 .066.023.13.065.181a.28.28 0 0 0 .166.096l.034-.009zm2.258-95.522a21.75 21.75 0 0 0-5.262.102.47.47 0 0 0-.45.45l-.178 18.87a33.09 33.09 0 0 0 .288 5.868c.068.331.628.34.679 0a35.45 35.45 0 0 0 .153-5.213v-5.332l-.042-9.856v-4.337l-.45.451c1.74-.23 3.513-.332 5.262-.417.069-.011.131-.047.177-.101a.3.3 0 0 0 0-.384c-.046-.054-.108-.09-.177-.101zm7.638 13.665c-.105.96-.125 1.928-.06 2.891l.06 2.875.085 2.797.101 1.421a6.05 6.05 0 0 0 .145 1.564c.021.062.061.116.114.154s.117.059.183.059a.31.31 0 0 0 .182-.059c.053-.038.094-.092.115-.154a5.84 5.84 0 0 0 .068-1.488v-1.42l-.085-2.874-.119-2.798c.006-.994-.073-1.987-.238-2.968-.059-.272-.509-.289-.551 0zm10.684-.876c-.154.68-.22 1.378-.195 2.075l-.042 2.024.076 4.303.127 4.252.085 4.303c.043.442.773.637.849.119a26.25 26.25 0 0 0 .102-4.252l-.17-4.303-.204-4.252-.093-2.194c0-.34-.042-.672-.059-1.012a4.93 4.93 0 0 0-.094-1.063.19.19 0 0 0-.068-.111c-.035-.028-.078-.044-.123-.044s-.088.016-.123.044-.058.067-.068.111z"/><path d="M306.124 170.602l.06 6.803v7.305 1.386.527a.55.55 0 0 0 .178.357c.076.085 0-.051.051.077.012.017.029.031.048.041s.04.015.062.015.043-.005.062-.015.036-.024.048-.041c.06-.051.204-.077.297-.23a1.43 1.43 0 0 0 .119-.502 8.41 8.41 0 0 0 .136-1.216l.042-3.257-.314-7.823-.331-3.487c0-.28-.449-.297-.441 0l-.017.06zm10.329-14.542l-.111 12.118v11.846 6.914c0 .229.365.306.416.059.361-2.008.573-4.041.637-6.08l.127-5.953c0-3.988-.161-7.968-.314-11.947l-.34-6.957c0-.054-.021-.106-.059-.144s-.09-.06-.144-.06-.106.022-.144.06-.06.09-.06.144h-.008zm-9.981 48.03l-.484 14.303-.127 9.354.076 8.725.264 6.735c0 .067.026.132.074.18s.113.075.18.075.132-.027.18-.075.075-.113.075-.18l.212-5.876.161-8.428v-18.104-6.726a.32.32 0 0 0-.109-.194c-.059-.05-.133-.077-.209-.077a.32.32 0 0 0-.318.271l.025.017zm-13.129 50.248l-.178 6.743-.059 11.855v11.216 3.512a23.44 23.44 0 0 0 .237 5.179 5.1 5.1 0 0 0 .865 2.147 5.11 5.11 0 0 0 1.724 1.544c1.094.484 2.359.263 3.53.272l6.747.314 1.214.068a.48.48 0 0 0 .403-.752c-.065-.098-.163-.169-.276-.2-.913-.29-1.861-.453-2.818-.485l-3.581-.255c-.908 0-1.825-.076-2.733-.051a4.27 4.27 0 0 1-1.969-.179c-.598-.34-1.067-.869-1.332-1.505-.849-1.785-.603-3.886-.586-5.808v-3.163l-.127-10.749-.272-11.905-.415-7.483v-.349c-.009-.042-.032-.079-.066-.106s-.074-.041-.117-.041-.084.014-.117.041-.056.064-.065.106l-.009.034zM51.939 244.287a22.35 22.35 0 0 0-.263 2.593c-.007.852.035 1.704.127 2.551a4.79 4.79 0 0 0 .433 1.982c.39.595 1.146.476 1.765.57a67.48 67.48 0 0 0 8.886.467h2.351a6.37 6.37 0 0 0 2.24-.289c.382-.17.221-.706-.11-.85-.556-.127-1.128-.173-1.697-.136h-1.893-4.133c-1.375 0-2.724-.051-4.091-.094h-2.003c-.34 0-.56 0-.671-.4a6.07 6.07 0 0 1-.187-1.122l-.28-2.551-.28-2.764c0-.01-.002-.02-.006-.029a.08.08 0 0 0-.017-.025c-.007-.007-.016-.013-.025-.017s-.019-.005-.029-.005-.02.002-.029.005-.018.01-.025.017a.08.08 0 0 0-.017.025c-.004.009-.006.019-.006.029l-.042.043z"/><path d="M67.614 249.84a33.87 33.87 0 0 0-.721 6.216c.002.095.04.185.106.253s.156.108.25.113l4.337.153 5.024.238 10.345.263a26.71 26.71 0 0 0 4.888-.187.27.27 0 0 0 .137-.098c.034-.047.052-.103.052-.161s-.018-.114-.052-.161a.28.28 0 0 0-.137-.099 31.54 31.54 0 0 0-4.243-.306l-5.016-.204c-3.446-.153-6.908-.238-10.354-.221-.849 0-1.697.06-2.546.068H67.3l.365.366c.093-2.058.246-4.133.178-6.199-.006-.019-.018-.036-.034-.048s-.035-.018-.055-.018-.039.006-.055.018-.028.029-.034.048l-.051-.034zM30.349 83.685c0 .655-.161 1.31-.229 1.964l-.144 1.871a34.74 34.74 0 0 0-.102 3.759.56.56 0 0 0 .552.553l9.666.34 4.515.102 4.651-.119 2.673-.077a14.7 14.7 0 0 0 2.741-.145c.04-.012.075-.037.1-.071s.038-.075.038-.116-.014-.083-.038-.116-.06-.058-.1-.071a12.71 12.71 0 0 0-2.342-.145l-2.453-.102-4.668-.23-9.191-.221a111.52 111.52 0 0 1-5.593-.145l.56.561-.059-3.759V85.65c0-.621-.144-1.309-.204-1.964a.17.17 0 0 0-.166-.132.17.17 0 0 0-.166.132h-.042z"/><path d="M45.76 91.653a26.58 26.58 0 0 0-.416 5.561.52.52 0 0 0 .373.485 13.12 13.12 0 0 0 4.642.383l5.041-.298 10.184-.561 2.885-.238c.939-.052 1.868-.218 2.767-.493.052-.014.098-.045.131-.088s.051-.096.051-.15-.018-.107-.051-.15-.079-.074-.131-.088a10.04 10.04 0 0 0-2.368-.111l-2.478.093-5.092.332-10.014.706-2.682.17a8.02 8.02 0 0 1-2.648-.468l.365.476a25.38 25.38 0 0 0-.161-2.551 32.82 32.82 0 0 1-.102-2.985c0-.178-.289-.23-.322 0l.025-.026zm306.846 106.96l-.526 2.764-.28 3.002c-.065.376-.021.762.127 1.114.098.18.236.334.404.451s.361.192.563.22c.544.077 1.129 0 1.698.06l1.816.085 13.765.51h3.811 1.952 2.139c.186 0 .271-.323.05-.357-1.094-.17-2.223-.187-3.335-.264l-3.199-.229-6.518-.306-6.475-.17h-3.336-1.697c-.586 0-1.027 0-.993-.655l.305-3.079.145-3.052c0-.238-.365-.306-.416-.06v-.034zM20.903 102.785a26.48 26.48 0 0 0 2.716.127l2.631.051h5.347 10.608l2.97-.059h1.528a5.29 5.29 0 0 0 1.468-.119.42.42 0 0 0 .215-.151c.054-.072.083-.159.083-.249a.42.42 0 0 0-.298-.4 4.42 4.42 0 0 0-1.214-.11h-1.443c-.849 0-1.748-.051-2.631-.06h-5.347-10.608l-2.97.06a28.08 28.08 0 0 0-3.055.136.44.44 0 0 0-.25.15.43.43 0 0 0-.098.275.44.44 0 0 0 .098.275.43.43 0 0 0 .25.15v-.076zm15.471 14.022l18.212.493h2.546 1.273a11.74 11.74 0 0 0 1.349-.127c.39-.051.585-.697.11-.774a8.84 8.84 0 0 0-1.035-.17c-.399 0-.798 0-1.188-.043l-2.292-.051c-1.519 0-3.047 0-4.574-.051-3.047 0-6.102-.051-9.149-.059h-5.253a.38.38 0 0 0-.27.112c-.072.072-.112.169-.112.271a.38.38 0 0 0 .382.382v.017zm305.14 98.763l29.109.357h4.074c1.39-.012 2.778-.1 4.158-.264.145 0 .221-.272 0-.298-1.192-.174-2.394-.285-3.598-.331-1.188 0-2.376-.085-3.564-.102l-7.299-.094-14.597-.119h-8.317a.44.44 0 0 0-.32.425c0 .096.031.19.089.267s.139.132.231.159h.034zm11.321 8.758l7.069.162 3.446-.102c.586 0 1.188 0 1.765-.102l1.766-.281c.381-.068.271-.629-.085-.646-.586 0-1.18-.077-1.766-.085s-1.179 0-1.765.051l-3.445.068h-6.985c-.62 0-.611.927 0 .961v-.026zm-340.716 38.25a37.34 37.34 0 0 0 5.16.077h4.362 8.427a49.98 49.98 0 0 0 5.737-.306.29.29 0 0 0 .289-.29.29.29 0 0 0-.289-.289c-1.697-.178-3.471-.178-5.185-.195-1.451 0-2.894 0-4.345-.043h-8.444-2.648a19.37 19.37 0 0 0-3.064.162c-.416.076-.424.791 0 .85v.034zm.11 6.761l7.426.501 3.327-.085c.654 0 1.307-.093 1.952-.161a7.25 7.25 0 0 0 2.139-.391c.08-.052.144-.125.184-.212a.5.5 0 0 0-.303-.69 8 8 0 0 0-2.164 0l-1.808.085-3.395.094h-3.318l-4.048.059a.4.4 0 0 0 0 .8h.008zM283.804 83.201l15.387.799 7.638.315 7.638.272 4.243.068h4.396c.246 0 .34-.417.068-.451-2.546-.357-5.092-.408-7.638-.57l-7.638-.357-15.386-.536-8.623-.221c-.441 0-.433.663 0 .689l-.085-.008z"/></g></g><defs><clipPath id="C"><path fill="#fff" d="M0 0h403v309H0z"/></clipPath></defs></svg>