<svg xmlns="http://www.w3.org/2000/svg" width="108" height="200" fill="none" xmlns:v="https://vecta.io/nano"><g clip-path="url(#A)"><path d="M60.659 200h-12.66l4.288-103.412 2.043-2.274L60.659 200z" fill="#ff886d"/><path d="M42.336 0C16.382 0-1.857 20.14 11.014 41.818c2.887 4.853 6.659 9.749 6.583 15.405s-4.515 10.222-8.052 14.695c-7.714 9.732-15.927 31.368-2.051 50.577 12.863 17.798 32.722 21.137 54.059 19.083 34.79-3.382 43.483-19.446 46.007-36.415 2.338-15.693-4.676-30.92-23.979-40.998-3.587-1.877-7.326-4.084-9.208-7.669-3.528-6.764 1.553-14.61 2.532-22.152C79.278 15.692 67.116 0 42.336 0z" fill="#00b28c"/><g fill="#009375"><path d="M23.253 20.884c-1.156 0-3.275.955-1.84 3.382 1.646 2.79 4.752 4.422 7.79 5.58 1.224.465 3.199.372 3.199-.939 0-2.486-4.836-8.024-9.149-8.024zM65.09 31.072c-.051-1.15-1.106-3.23-3.443-1.691-2.701 1.784-4.22 4.988-5.208 8.066-.414 1.243-.228 3.221 1.08 3.154 2.481-.11 7.773-5.217 7.571-9.529zM48.354 8.632c-.633-.964-2.591-2.215-3.815.313-1.41 2.892-1.063 6.443-.363 9.596.279 1.277 1.452 2.883 2.532 2.165 2.085-1.37 4.026-8.472 1.646-12.074zm-5.689 49.03c-.988-.592-3.3-.846-3.309 1.945 0 3.238 1.831 6.265 3.832 8.801.844 1.031 2.532 1.97 3.224.846 1.274-2.139-.051-9.385-3.747-11.592zm44.8 40.186c-.245-1.124-1.612-3.001-3.671-1.099-2.38 2.19-3.376 5.606-3.84 8.802-.203 1.293.295 3.213 1.578 2.942 2.431-.516 6.828-6.417 5.933-10.645zm-45.053 18.609c-1.013-.549-3.376-.718-3.216 2.089.135 3.238 2.11 6.172 4.22 8.624.844.989 2.642 1.851 3.266.693 1.173-2.19-.473-9.368-4.271-11.406zm28.426 7.272c-.489-1.04-2.254-2.537-3.823-.229-1.815 2.681-1.975 6.215-1.739 9.444.101 1.302 1.03 3.061 2.211 2.537 2.245-1.049 5.191-7.812 3.351-11.752zM47.586 92.835c-1.131-.178-3.376.44-2.33 3.044 1.199 3.001 4.043 5.073 6.845 6.722 1.139.651 3.106.845 3.309-.431.38-2.461-3.562-8.675-7.824-9.334zm-32.09 7.034c-1.148.093-3.19 1.201-1.578 3.5 1.848 2.655 5.064 4.067 8.187 4.989 1.258.372 3.224.126 3.123-1.176-.186-2.477-5.435-7.634-9.731-7.313zm55.08-25.407c-.515-1.032-2.321-2.537-3.832-.135-1.756 2.722-1.823 6.265-1.502 9.486.135 1.302 1.106 3.035 2.27 2.443 2.22-1.116 4.997-7.931 3.064-11.794zm-46.42-1.158c-1.047-.482-3.376-.499-3.072 2.291.338 3.221 2.532 6.028 4.76 8.337.912.939 2.752 1.691 3.3.482 1.03-2.257-1.063-9.317-4.988-11.11z"/></g></g><defs><clipPath id="A"><path fill="#fff" d="M0 0h108v200H0z"/></clipPath></defs></svg>