<svg xmlns="http://www.w3.org/2000/svg" width="52" height="50" fill="none" xmlns:v="https://vecta.io/nano"><g clip-path="url(#A)"><path d="M2.801 10.673A18.49 18.49 0 0 1 13.34 2.616C20.843 0 27.046-.833 34.825.958s15.524 7.374 16.866 15.264c.834 4.783.375 10.398-3.969 15.156-8.671 9.449-15.374 6.699-18.042 8.14-4.035 2.183-5.052 7.815-8.788 10.473-.667-1.841-.3-3.933-.951-5.782-1.176-3.333-5.077-4.674-8.171-6.416C2.76 32.719-4.06 21.455 2.801 10.673z" fill="#ffe87b"/><g fill="#28c99b"><path d="M39.736 13.331a2.65 2.65 0 0 1 1.617.239 2.64 2.64 0 0 1 1.167 1.144c.209.489.231 1.037.062 1.541a2.17 2.17 0 0 1-.979 1.192c-.642.35-1.376.542-2.034.833-.733.357-1.349.915-1.776 1.608-.834 1.358-.784 3.058-.634 4.583a1.28 1.28 0 0 0 1.251 1.249 1.26 1.26 0 0 0 1.251-1.25c-.133-1.392-.375-3.241 1.092-3.991.801-.306 1.586-.654 2.351-1.041a4.37 4.37 0 0 0 1.668-1.983 4.74 4.74 0 0 0-.767-4.999c-.626-.674-1.415-1.174-2.292-1.453a5.34 5.34 0 0 0-2.711-.138 1.27 1.27 0 0 0-.727.603 1.26 1.26 0 0 0-.107.938 1.29 1.29 0 0 0 .591.788 1.29 1.29 0 0 0 .474.166 1.27 1.27 0 0 0 .502-.029zm-2.418 14.664l-.067.175a1.01 1.01 0 0 0 0 .5 1.1 1.1 0 0 0 .144.47 1.13 1.13 0 0 0 .332.363.95.95 0 0 0 .425.225l.334.042a1.25 1.25 0 0 0 .625-.167l.258-.2a1.31 1.31 0 0 0 .317-.55l.067-.175a1.01 1.01 0 0 0 0-.5c-.008-.163-.06-.322-.15-.458a.88.88 0 0 0-.325-.35.84.84 0 0 0-.425-.225l-.333-.05a1.18 1.18 0 0 0-.625.175l-.258.192a1.31 1.31 0 0 0-.317.55v-.017zM10.58 20.313l4.686-5.366 2.501-2.5c.35-.308.725-.775 1.209-.833a5.75 5.75 0 0 1 1.734.55 74.09 74.09 0 0 1 11.305 5.416c1.417.775 2.676-1.383 1.267-2.158-4.21-2.283-8.337-4.574-12.956-6.016a3.27 3.27 0 0 0-3.252.358 25.83 25.83 0 0 0-2.826 2.566c-1.934 1.958-3.685 4.083-5.469 6.174-1.034 1.216.725 2.991 1.768 1.766l.033.042z"/><path d="M10.28 17.372c.04 3.132.441 6.249 1.192 9.29.121.612.4 1.181.81 1.652s.935.826 1.525 1.031c1.35.276 2.736.326 4.102.15l9.738-.692c1.251-.133 2.926-.058 3.952-.9s.901-2.325.725-3.616a77.45 77.45 0 0 0-2.043-9.932 1.25 1.25 0 0 0-1.517-.815 1.25 1.25 0 0 0-.892 1.473c.801 2.93 1.433 5.904 1.893 8.907.05.333.434 1.741.234 2.008s-1.568.275-1.968.317l-4.961.45a157.93 157.93 0 0 1-5.002.275l-2.293.067c-.542 0-1.292.092-1.667-.383-.296-.569-.471-1.193-.517-1.833a50.08 50.08 0 0 1-.442-2.575 47.81 47.81 0 0 1-.4-4.874c-.05-1.608-2.551-1.616-2.501 0h.033z"/><path d="M22.861 19.405c-.534-.367-2.41-.042-3.493.125-.375.067-.834.183-.959.533a1.15 1.15 0 0 0 0 .65c.459 2.374 1.083 4.712 1.868 6.999.032.129.098.247.192.342a.75.75 0 0 0 .483.117h2.985c.122.016.245.006.363-.028s.227-.093.321-.172c.11-.147.168-.325.167-.508.267-2.783-1.384-7.69-1.926-8.057z"/></g></g><defs><clipPath id="A"><path fill="#fff" d="M0 0h52v50H0z"/></clipPath></defs></svg>