<svg xmlns="http://www.w3.org/2000/svg" width="134" height="33" fill="none" xmlns:v="https://vecta.io/nano"><g clip-path="url(#A)"><g fill="#fff5d9"><path d="M133.153 7.481L2.847 7.243a.83.83 0 0 1-.599-.258A.9.9 0 0 1 2 6.362L2.059.881a.9.9 0 0 1 .248-.623A.83.83 0 0 1 2.906 0l130.187 2.714c.225 0 .441.093.6.258s.248.389.248.623l.076 3.005c0 .117-.022.233-.066.341s-.108.206-.188.288a.85.85 0 0 1-.281.19.82.82 0 0 1-.329.062zm-1.525 24.964L1.322 32.207a.83.83 0 0 1-.599-.258.9.9 0 0 1-.248-.623l.051-5.481a.9.9 0 0 1 .248-.623.83.83 0 0 1 .599-.258l130.195 2.705a.83.83 0 0 1 .599.258.9.9 0 0 1 .249.623l.076 3.005a.92.92 0 0 1-.064.344.89.89 0 0 1-.187.291c-.081.083-.177.148-.282.192a.82.82 0 0 1-.331.063z"/><path d="M11.913 31.493H6.634L7.795 2.141h4.118v29.352zm55.888 0h-5.27l1.152-29.352h4.118v29.352zM80.985 3.736h5.279l-1.161 27.123h-4.118V3.736zM29.842 30.083l-6.041-.996-.559-26.946 4.084-1.41 2.517 29.352zM41.441 1.26l6.041.987.559 26.955-4.084 1.41L41.441 1.26zm87.204 29.599h-5.27l1.152-27.123h4.118v27.123zM102.286 3.058l6.041.96.559 26.144-4.084 1.375-2.516-28.48z"/></g><g fill="#343b38"><path d="M1.517 1.383l.22 6.08c0 .077.029.151.082.206s.124.085.198.085l7.134.291 10.659.229 13.396.132 15.15.053h16.099l16.209-.097 15.463-.123 13.921-.15 11.396-.141 8.083-.106 1.373-.062a.28.28 0 0 0 .166-.099.3.3 0 0 0 0-.374.28.28 0 0 0-.166-.099c-2.381 0-4.762-.053-7.143-.062H113.09l-13.396.053-15.15.062-16.099.071-16.209.07-15.463.044H22.852c-3.788 0-7.626-.141-11.388-.053-2.686.062-5.397-.088-8.075-.176l-1.373-.044.28.291-.415-6.08c0-.238-.373-.247-.364 0zM.381 26.515C.127 28.488.068 30.462 0 32.445c.002.13.053.254.141.346s.208.145.333.147c1.745-.176 3.499-.167 5.245-.194h8.363l21.97.229h6.558 3.16a27.64 27.64 0 0 0 3.203-.15.38.38 0 0 0 .194-.143.41.41 0 0 0 .075-.235c0-.084-.026-.167-.075-.235a.38.38 0 0 0-.194-.143c-.949-.103-1.902-.153-2.855-.15-.932 0-1.864-.053-2.805-.062l-5.829-.062c-3.864 0-7.727-.106-11.591-.132-6.431 0-12.862-.123-19.293 0-2.042.062-4.059.062-6.126.291l.474.493a60.21 60.21 0 0 0-.102-5.93c-.011-.059-.041-.111-.085-.149a.24.24 0 0 0-.157-.059.24.24 0 0 0-.157.059c-.044.038-.074.091-.085.149h.017z"/></g></g><defs><clipPath id="A"><path fill="#fff" d="M0 0h134v33H0z"/></clipPath></defs></svg>