<svg width="24" height="24" viewBox="0 0 24 24" fill="none" xmlns="http://www.w3.org/2000/svg">
<circle cx="12" cy="12" r="12" fill="#F5F5F5"/>
<mask id="mask0_339_63" style="mask-type:alpha" maskUnits="userSpaceOnUse" x="0" y="0" width="24" height="24">
<circle cx="12" cy="12" r="12" fill="#F5F5F5"/>
</mask>
<g mask="url(#mask0_339_63)">
<path d="M11.9997 13.7026C11.2236 13.7039 10.4596 13.5057 9.77853 13.1264C9.09747 12.7472 8.52129 12.199 8.10328 11.5327C8.07409 11.4821 8.05546 11.426 8.04841 11.3678C8.04136 11.3096 8.04603 11.2505 8.06228 11.1943C8.07853 11.138 8.10597 11.0857 8.14284 11.0406C8.17971 10.9956 8.22531 10.9587 8.27672 10.9323L9.00564 10.549C9.09818 10.4977 9.20579 10.4822 9.30865 10.5054C9.41151 10.5285 9.50272 10.5888 9.56543 10.675C9.83571 11.079 10.1987 11.4097 10.6229 11.6382C11.0472 11.8666 11.5198 11.9861 11.9997 11.9861C12.4796 11.9861 12.9521 11.8666 13.3764 11.6382C13.8006 11.4097 14.1637 11.079 14.434 10.675C14.4967 10.5888 14.5879 10.5285 14.6908 10.5054C14.7936 10.4822 14.9012 10.4977 14.9938 10.549L15.7227 10.9323C15.7737 10.9592 15.8188 10.9964 15.8551 11.0417C15.8915 11.0869 15.9184 11.1392 15.9341 11.1955C15.9499 11.2517 15.9542 11.3106 15.9468 11.3686C15.9394 11.4266 15.9204 11.4824 15.891 11.5327C15.4736 12.1984 14.8983 12.7463 14.2182 13.1255C13.5381 13.5048 12.775 13.7033 11.9997 13.7026Z" fill="#E0E0E0"/>
<path d="M8.62941 8.72266C9.2463 8.72266 9.74639 8.21311 9.74639 7.58455C9.74639 6.95599 9.2463 6.44644 8.62941 6.44644C8.01251 6.44644 7.51242 6.95599 7.51242 7.58455C7.51242 8.21311 8.01251 8.72266 8.62941 8.72266Z" fill="#E0E0E0"/>
<path d="M15.3701 8.72266C15.987 8.72266 16.4871 8.21311 16.4871 7.58455C16.4871 6.95599 15.987 6.44644 15.3701 6.44644C14.7532 6.44644 14.2531 6.95599 14.2531 7.58455C14.2531 8.21311 14.7532 8.72266 15.3701 8.72266Z" fill="#E0E0E0"/>
</g>
</svg>
