<svg width="24" height="24" viewBox="0 0 24 24" fill="none" xmlns="http://www.w3.org/2000/svg">
<path fill-rule="evenodd" clip-rule="evenodd" d="M13.4279 5.17786C13.8962 4.70957 14.455 4.3416 15.0702 4.09641C15.6854 3.85122 16.3441 3.73395 17.0062 3.75176C17.6682 3.76956 18.3197 3.92206 18.9208 4.19996C19.522 4.47786 20.0602 4.87532 20.5027 5.36811C22.2691 7.32976 21.9937 10.4006 20.1271 12.2672L12.5303 19.864C12.3897 20.0046 12.1989 20.0836 12 20.0836C11.8011 20.0836 11.6103 20.0046 11.4697 19.864L3.67785 12.0721C3.20956 11.6038 2.8416 11.045 2.59641 10.4298C2.35122 9.81459 2.23395 9.15587 2.25176 8.49384C2.26956 7.8318 2.42206 7.18033 2.69996 6.57919C2.97786 5.97804 3.37532 5.43981 3.8681 4.99735C5.82976 3.23091 8.9006 3.5063 10.7672 5.3729L12 6.6057L13.4279 5.17786ZM12 4.34296L12.2965 4.04648C12.9185 3.4245 13.6607 2.93576 14.4778 2.6101C15.295 2.28445 16.1699 2.12869 17.0492 2.15234C17.9285 2.17598 18.7938 2.37853 19.5922 2.74763C20.3903 3.11657 21.1049 3.64418 21.6924 4.2983C24.1028 6.976 23.6438 11.0132 21.2585 13.3986L13.6617 20.9953C13.221 21.436 12.6233 21.6836 12 21.6836C11.3767 21.6836 10.779 21.436 10.3383 20.9953L2.54648 13.2035C1.92451 12.5815 1.43576 11.8393 1.1101 11.0222C0.784445 10.205 0.628688 9.33013 0.652334 8.45083C0.67598 7.57152 0.878532 6.70625 1.24763 5.90781C1.61657 5.10971 2.14418 4.39512 2.7983 3.80759C5.476 1.39724 9.51321 1.85617 11.8986 4.24153L12 4.34296Z" fill="#FFDD37"/>
</svg>
