<svg width="24" height="24" viewBox="0 0 24 24" fill="none" xmlns="http://www.w3.org/2000/svg">
<path d="M12 4.34296L12.2965 4.04648C12.9185 3.4245 13.6607 2.93576 14.4778 2.6101C15.295 2.28445 16.1699 2.12869 17.0492 2.15234C17.9285 2.17598 18.7938 2.37853 19.5922 2.74763C20.3903 3.11657 21.1049 3.64418 21.6924 4.2983C24.1028 6.976 23.6438 11.0132 21.2585 13.3986L13.6617 20.9953C13.221 21.436 12.6233 21.6836 12 21.6836C11.3767 21.6836 10.779 21.436 10.3383 20.9953L2.54648 13.2035C1.92451 12.5815 1.43576 11.8393 1.1101 11.0222C0.784445 10.205 0.628688 9.33013 0.652334 8.45083C0.67598 7.57152 0.878532 6.70625 1.24763 5.90781C1.61657 5.10971 2.14418 4.39512 2.7983 3.80759C5.476 1.39724 9.51321 1.85617 11.8986 4.24153L12 4.34296Z" fill="#FFDD37"/>
</svg>
