<svg xmlns="http://www.w3.org/2000/svg" width="12" height="12" fill="none" xmlns:v="https://vecta.io/nano"><g fill="#ffb800"><path d="M3.536 7.151c-.476-.372-.861-.846-1.127-1.388S2.003 4.626 2 4.022C1.988 1.853 3.734.052 5.904.001a4 4 0 0 1 3.861 2.646 4 4 0 0 1-1.294 4.498l-.002.002a.6.6 0 0 0-.233.47v.264c0 .218-.087.428-.241.582s-.364.241-.582.241H4.588c-.218 0-.428-.087-.582-.241s-.241-.364-.241-.582v-.265c0-.09-.021-.178-.061-.259s-.098-.152-.169-.207z"/><path d="M3.765 9.647a.47.47 0 0 1 .471-.471h3.529a.47.47 0 1 1 0 .941H4.235a.47.47 0 0 1-.471-.471z" fill-rule="evenodd"/></g><g fill="#fff0b0"><path fill-rule="evenodd" d="M6 4.294a.47.47 0 0 1 .471.471v2.471a.47.47 0 1 1-.941 0V4.765A.47.47 0 0 1 6 4.294z"/><path fill-rule="evenodd" d="M4.255 3.02a.47.47 0 0 1 .666 0L6 4.099 7.079 3.02a.47.47 0 1 1 .666.666L6.332 5.097a.47.47 0 0 1-.666 0L4.255 3.686a.47.47 0 0 1 0-.666z"/></g></svg>