<svg width="12" height="12" viewBox="0 0 12 12" fill="none" xmlns="http://www.w3.org/2000/svg">
<path d="M3.5355 7.1508C3.05977 6.77925 2.67446 6.30469 2.40852 5.7628C2.1426 5.22097 2.00295 4.62592 2.00006 4.02237C1.98816 1.85332 3.73424 0.0523502 5.90357 0.00115354C6.74341 -0.0190152 7.56854 0.225734 8.26147 0.700705C8.95447 1.17572 9.48031 1.85689 9.76439 2.64758C10.0485 3.43826 10.0764 4.29833 9.84417 5.10577C9.61194 5.91321 9.13138 6.62704 8.47064 7.14599L8.46818 7.14791C8.39616 7.2037 8.33777 7.27514 8.29743 7.35682C8.25726 7.43814 8.23603 7.52749 8.2353 7.61817L8.2353 7.88238C8.2353 8.10079 8.14853 8.31026 7.99409 8.46469C7.83965 8.61913 7.63018 8.7059 7.41177 8.7059H4.58823C4.36982 8.7059 4.16035 8.61913 4.00591 8.46469C3.85147 8.31026 3.7647 8.10079 3.7647 7.88238L3.76469 7.617C3.7644 7.5272 3.7437 7.43863 3.70416 7.358C3.66456 7.27722 3.60649 7.20606 3.5355 7.1508Z" fill="#FFB800"/>
<path fill-rule="evenodd" clip-rule="evenodd" d="M3.76465 9.64704C3.76465 9.38714 3.97534 9.17645 4.23524 9.17645H7.76465C8.02455 9.17645 8.23524 9.38714 8.23524 9.64704C8.23524 9.90694 8.02455 10.1176 7.76465 10.1176H4.23524C3.97534 10.1176 3.76465 9.90694 3.76465 9.64704Z" fill="#FFB800"/>
<path fill-rule="evenodd" clip-rule="evenodd" d="M5.99989 4.29413C6.25978 4.29413 6.47047 4.50482 6.47047 4.76472V7.2353C6.47047 7.4952 6.25978 7.70589 5.99989 7.70589C5.73999 7.70589 5.5293 7.4952 5.5293 7.2353V4.76472C5.5293 4.50482 5.73999 4.29413 5.99989 4.29413Z" fill="#FFF0B0"/>
<path fill-rule="evenodd" clip-rule="evenodd" d="M4.25502 3.02016C4.4388 2.83638 4.73676 2.83638 4.92053 3.02016L5.99954 4.09916L7.07855 3.02016C7.26232 2.83638 7.56029 2.83638 7.74406 3.02016C7.92784 3.20393 7.92784 3.50189 7.74406 3.68567L6.3323 5.09743C6.14852 5.28121 5.85056 5.28121 5.66678 5.09743L4.25502 3.68567C4.07124 3.50189 4.07124 3.20393 4.25502 3.02016Z" fill="#FFF0B0"/>
</svg>
