<svg xmlns="http://www.w3.org/2000/svg" width="24" height="24" fill="none" xmlns:v="https://vecta.io/nano"><path d="M12 21.495a.84.84 0 0 1-.414-.11c-.316-.181-7.736-4.495-7.736-10.729A8.15 8.15 0 0 1 12 2.633a8.15 8.15 0 0 1 8.15 8.023c0 6.169-7.416 10.543-7.732 10.726-.127.074-.271.113-.418.113zm0-17.319c-1.718.002-3.365.685-4.58 1.9s-1.898 2.862-1.9 4.58c0 4.5 4.983 8.054 6.477 9.02 1.493-.976 6.484-4.572 6.484-9.02A6.49 6.49 0 0 0 12 4.176zm0 10.721a4.11 4.11 0 0 1-3.798-2.538 4.11 4.11 0 0 1 .891-4.48 4.11 4.11 0 0 1 4.48-.891 4.11 4.11 0 0 1 2.538 3.798c-.001 1.09-.434 2.135-1.205 2.906S13.09 14.896 12 14.897zm0-6.552a2.44 2.44 0 0 0-2.255 1.508 2.44 2.44 0 0 0 .53 2.66 2.44 2.44 0 0 0 2.66.529 2.44 2.44 0 0 0 1.507-2.255c-.001-.647-.258-1.268-.716-1.726S12.647 8.345 12 8.345z" fill="#00b28f"/></svg>