<svg xmlns="http://www.w3.org/2000/svg" width="24" height="24" fill="#00b28f" xmlns:v="https://vecta.io/nano"><path d="M13.258 6.583H7.147c-.23 0-.417.187-.417.417v.833c0 .23.187.417.417.417h6.111c.23 0 .417-.187.417-.417V7c0-.23-.187-.417-.417-.417zm-1.545 3.373H7.147c-.23 0-.417.187-.417.417v.833c0 .23.187.417.417.417h4.567c.23 0 .417-.187.417-.417v-.833c0-.23-.187-.417-.417-.417zm-1.045 3.932H7.147c-.23 0-.417.187-.417.417v.833c0 .23.187.417.417.417h3.521c.23 0 .417-.187.417-.417v-.833c0-.23-.187-.417-.417-.417zM18.233 2.68h-12.5a2.52 2.52 0 0 0-2.519 2.519v15.288c0 .151.041.299.118.428a.84.84 0 0 0 .322.307.83.83 0 0 0 .434.098c.151-.007.297-.055.422-.139l2.654-1.769 2.654 1.769c.137.091.298.14.462.14s.325-.049.462-.14l2.655-1.769 2.654 1.769c.137.091.298.14.462.14.221 0 .433-.088.589-.244s.244-.368.244-.589V11.61h2.607c.221 0 .433-.088.589-.244s.244-.368.244-.589V5.23c-.002-.677-.272-1.325-.751-1.803s-1.128-.747-1.804-.747zM15.68 18.93l-1.822-1.213c-.137-.091-.298-.14-.462-.14s-.325.049-.462.14l-2.655 1.769-2.653-1.769c-.137-.091-.298-.14-.462-.14s-.325.049-.462.14L4.88 18.93V5.199c0-.226.09-.443.25-.603a.85.85 0 0 1 .603-.25h10.116c-.109.283-.165.584-.167.888v13.695l-.002.001zm3.441-8.982h-1.772V5.235a.89.89 0 0 1 .541-.844.89.89 0 0 1 .692 0 .89.89 0 0 1 .541.845l-.002 4.713z"/></svg>