<svg width="32" height="32" viewBox="0 0 32 32" fill="none" xmlns="http://www.w3.org/2000/svg">
<path d="M12.4698 2.04834C5.99478 2.04834 0.925781 6.41434 0.925781 15.7383C0.925781 25.0623 5.99478 29.4283 12.4698 29.4283C14.9118 29.4283 17.1318 28.7993 18.9818 27.5413L20.3878 29.2803C21.0908 30.1683 22.2008 30.1313 23.0518 29.4283C23.9028 28.7623 24.1248 27.7263 23.4218 26.8753L21.6828 24.7663C23.1628 22.5463 24.0138 19.5863 24.0138 15.7383C24.0138 6.41434 18.9448 2.04834 12.4698 2.04834ZM12.4698 5.82234C16.7988 5.82234 19.9068 9.33734 19.9068 15.7383C19.9068 17.9213 19.5368 19.8083 18.8708 21.2883L16.5028 18.2913C15.7998 17.4033 14.6898 17.4403 13.8388 18.1433C12.9878 18.8093 12.7658 19.8453 13.4688 20.6963L16.4658 24.4333C15.3188 25.2473 13.9498 25.6543 12.4698 25.6543C8.14078 25.6543 5.03278 22.1393 5.03278 15.7383C5.03278 9.33734 8.14078 5.82234 12.4698 5.82234Z" fill="#E0E0E0"/>
<path d="M26.1904 27.6523C26.1904 28.7623 27.2264 29.4283 28.6324 29.4283C30.0384 29.4283 31.0744 28.7623 31.0744 27.6523V26.0243C31.0744 24.9143 30.0384 24.2483 28.6324 24.2483C27.2264 24.2483 26.1904 24.9143 26.1904 26.0243V27.6523Z" fill="#E0E0E0"/>
</svg>
