<svg xmlns="http://www.w3.org/2000/svg" width="12" height="12" fill="none" xmlns:v="https://vecta.io/nano"><path d="M5.426 2.331L1.78 8.629c-.058.101-.089.215-.089.332s.03.231.089.332.142.185.243.243.215.089.332.089h7.291c.116 0 .231-.031.332-.089s.185-.142.243-.243.089-.215.089-.332a.66.66 0 0 0-.089-.332L6.574 2.331c-.058-.101-.142-.184-.243-.242S6.116 2 6 2s-.23.031-.331.089-.184.142-.243.242z" fill="#f93f32"/><g fill="#ffe7e0"><path fill-rule="evenodd" d="M6 4.573a.41.41 0 0 1 .41.41v1.658a.41.41 0 1 1-.821 0V4.984a.41.41 0 0 1 .41-.41z"/><path d="M6 8.63c.275 0 .497-.223.497-.497S6.275 7.636 6 7.636s-.497.223-.497.497.223.497.497.497z"/><path fill-rule="evenodd" d="M6 8.528c.218 0 .395-.177.395-.395S6.218 7.738 6 7.738s-.395.177-.395.395.177.395.395.395zm.497-.395c0 .275-.223.497-.497.497s-.497-.223-.497-.497.223-.497.497-.497.497.223.497.497z"/></g></svg>