<svg xmlns="http://www.w3.org/2000/svg" width="240" height="240" fill="none" xmlns:v="https://vecta.io/nano"><path d="M230 0H10C4.477 0 0 4.477 0 10v220a10 10 0 0 0 10 10h220a10 10 0 0 0 10-10V10a10 10 0 0 0-10-10z" fill="#c3d4f8"/><path d="M216.3 240H23.7l29.7-118.79a6 6 0 0 1 5.72-4.55l137-2.29L216.3 240z" fill="#7391ed"/><path d="M161.1 165.56h-101a3.01 3.01 0 0 1-1.301-.299c-.406-.196-.762-.481-1.042-.833s-.478-.764-.578-1.203a3 3 0 0 1 .001-1.335l7.7-33.61a3 3 0 0 1 2.9-2.28l91-2 5.29 38.22a2.99 2.99 0 0 1-.121 1.246c-.127.402-.338.772-.618 1.088a3.01 3.01 0 0 1-1.008.741c-.385.173-.801.263-1.223.265zm8.71 61.67l-124.4-1.11a3.01 3.01 0 0 1-2.33-1.14c-.278-.352-.474-.762-.573-1.2a3 3 0 0 1 .002-1.33L51.56 183 162 179.05c.71-.012 1.402.229 1.951.68s.921 1.081 1.049 1.78l7.78 42.17a3 3 0 0 1-.047 1.31c-.112.428-.317.826-.601 1.165a2.99 2.99 0 0 1-1.041.797 3 3 0 0 1-1.281.278z" fill="#fff0b0"/><path d="M0 188.92c10-12 26.09-19.37 41.73-18.81 23.86.86 38.08 12.39 42.92 31.15 1.18 4.59-.69 12.81-5.58 15.78s-12.88 3-22.86-1.63c-16.35-7.54-42.28.44-56.21 11.85v-38.34zm240-3.59c-6.85-7.26-17.78-11.39-28.63-13.33-9.535-1.624-19.3-1.307-28.71.93-9.18 2.16-18.4 6.92-24 13.69-5.83 7.08-6 19.43 1.58 24.59 7.79 5.31 18.11.45 27.41-1.17 9.257-1.548 18.759-.616 27.54 2.7 7.41 3 20.32 14 24.78 16.74l.03-44.15z" fill="#ffe7e2"/><path d="M147.39 72.36L23.91 69a3 3 0 0 1-2.121-.967A3 3 0 0 1 21 65.84l2.1-46.17a3 3 0 0 1 2.9-2.86l123.77-3.39a3 3 0 0 1 1.203.22c.382.155.727.387 1.015.682s.513.645.659 1.03a3 3 0 0 1 .193 1.208l-2.37 52.94a3 3 0 0 1-3.08 2.86z" fill="#fff"/><path d="M221.94 137.47L97.75 143a3.01 3.01 0 0 1-1.163-.18 2.99 2.99 0 0 1-1.004-.613 3 3 0 0 1-.963-2.097l-2-52.46a3 3 0 0 1 3-3.11l123.12 1.68a3 3 0 0 1 3 2.8l3 45.3c.041.788-.23 1.56-.754 2.15a3 3 0 0 1-2.046 1zM47.15 31.49a15.77 15.77 0 0 0-10 2c-1.71 1-4.46 3.48-4.68 9.14-.12 3.26 1.83 6.92 5.75 9.4 7.18 4.53 14.32 2.28 17.87-2.6 2.4-3.28 2.46-8.35.57-11.95s-6.44-5.48-9.51-5.99z" fill="#c4f0e0"/><path d="M80.44 131.64c-2.732-.207-5.474.239-8 1.3a6.21 6.21 0 0 0-3.89 5.29c-.16 1.86 1.32 3.91 4.4 5.25 5.64 2.45 11.37 1 14.29-1.8a5.26 5.26 0 0 0 .67-6.82c-1.48-2.01-5.04-3-7.47-3.22z" fill="#c1c9c5"/><path d="M118.82 101.45c-3.743-.512-7.55.238-10.82 2.13-1.85 1.09-4.82 3.76-5 9.87-.14 3.52 2 7.48 6.2 10.15 7.75 4.89 15.47 2.46 19.31-2.8 2.58-3.55 2.64-9 .61-12.91s-6.99-5.89-10.3-6.44z" fill="#a0b6ee"/><path d="M123.83 32.71a3.86 3.86 0 0 1 4.17 2.06 3.18 3.18 0 0 1-1.34 4c-.94.52-2 .78-3 1.26a6.27 6.27 0 0 0-2.59 2.33c-1.21 2-1.14 4.47-.93 6.7a1.88 1.88 0 0 0 1.86 1.81 1.83 1.83 0 0 0 1.82-1.82c-.19-2-.55-4.73 1.59-5.82 1.12-.57 2.37-.84 3.43-1.52a6.35 6.35 0 0 0 2.45-2.9c.523-1.198.697-2.519.5-3.81a6.92 6.92 0 0 0-1.61-3.49 7.8 7.8 0 0 0-7.27-2.32c-.235.062-.456.17-.649.318a1.82 1.82 0 0 0-.475.545c-.121.211-.198.445-.227.686a1.85 1.85 0 0 0 .056.721 1.84 1.84 0 0 0 .331.643 1.82 1.82 0 0 0 .554.464 1.85 1.85 0 0 0 .691.214 1.83 1.83 0 0 0 .719-.071h-.08zm-3.53 21.45l-.09.26a1.26 1.26 0 0 0 0 .72 1.36 1.36 0 0 0 .21.68 1.44 1.44 0 0 0 .47.51 1.49 1.49 0 0 0 .62.33l.49.06c.322.001.639-.082.92-.24l.37-.29c.217-.226.378-.5.47-.8l.09-.26c.07-.238.07-.492 0-.73a1.35 1.35 0 0 0-.21-.67 1.39 1.39 0 0 0-.47-.52 1.32 1.32 0 0 0-.62-.32l-.49-.07a1.87 1.87 0 0 0-.92.25l-.37.29a1.85 1.85 0 0 0-.47.8z" fill="#667770"/><path d="M201.79 99.07a152.43 152.43 0 0 0-1.88 16.78c0 .477.19.935.527 1.273a1.8 1.8 0 0 0 1.273.527c.477 0 .935-.19 1.273-.527a1.8 1.8 0 0 0 .527-1.273 142.43 142.43 0 0 1 1.76-15.85c.106-.457.034-.937-.203-1.342A1.84 1.84 0 0 0 204 97.82a1.82 1.82 0 0 0-2.22 1.25h.01zm-2.17 22.03l-.19.43-.07.48.07.48.18.43.28.37.37.28.22.09.22.09a1.92 1.92 0 0 0 .24 0h.24.05l.48-.07.43-.18.37-.28.28-.37c.074-.14.135-.288.18-.44l.07-.48-.07-.48c0-.07-.2-.47-.09-.22s-.06-.15-.09-.22c-.107-.207-.27-.38-.47-.5a1.34 1.34 0 0 0-.61-.33c-.236-.06-.484-.06-.72 0-.24.009-.472.085-.67.22l-.36.28c-.223.218-.385.49-.47.79l-.06.48c-.004.321.083.636.25.91l-.18-.43-.07-.48.07-.48.19-.43.28-.36.36-.28.43-.18.48-.07h-.05l.48.07.43.18.36.28.28.36.19.43.07.48-.07.47-.18.43c.137-.197.213-.43.22-.67a1.58 1.58 0 0 0-.026-.707c-.063-.23-.177-.443-.334-.623a1.31 1.31 0 0 0-.5-.46l-.43-.18c-.326-.098-.674-.098-1 0l-.43.18c-.268.154-.492.375-.65.64l.02.07z" fill="#28c99e"/><path d="M31.42 213.78a37.18 37.18 0 0 1 9.53-.86 42.35 42.35 0 0 1 10 1.35 31.82 31.82 0 0 1 4.41 1.6 51.45 51.45 0 0 0 5.51 2.06 32.41 32.41 0 0 0 9.26 1.56c4.23 0 8.6-1.17 11.64-4.23 4.3-4.33 5.27-10.9 3.8-16.63a31.31 31.31 0 0 0-4.21-9.2c-1.798-2.844-3.933-5.46-6.36-7.79-.56-.53-1.14-1-1.72-1.54-.155-.128-.353-.193-.554-.183a.81.81 0 0 0-.586 1.323c4.4 4.6 8.71 9.72 11 15.75a19.19 19.19 0 0 1 1.28 9.08 14.75 14.75 0 0 1-1.42 4.45 16.06 16.06 0 0 1-1.22 2.13c-.1.16-.21.31-.32.46s0 0-.1.13l-.22.27c-2.51 3-6.29 4.3-10.2 4.44a28.78 28.78 0 0 1-8.6-1.13 47.78 47.78 0 0 1-5.21-1.76c-1.55-.62-3.06-1.31-4.67-1.79-3.119-.899-6.336-1.412-9.58-1.53-3.221-.159-6.45.059-9.62.65a32.79 32.79 0 0 0-2.13.5.45.45 0 0 0-.161.082.44.44 0 0 0-.117.137.47.47 0 0 0-.056.171c-.007.06-.002.121.014.18a.47.47 0 0 0 .082.161.48.48 0 0 0 .137.117c.053.03.111.049.171.056s.121.002.18-.014h.04zm136.7-36.29a17.73 17.73 0 0 0-4.07 2.08 26.87 26.87 0 0 0-3.66 2.81 23.33 23.33 0 0 0-5.43 7.34c-1.245 2.664-1.838 5.586-1.73 8.525a18.52 18.52 0 0 0 2.35 8.375 15.08 15.08 0 0 0 6.39 5.94c2.935 1.378 6.148 2.062 9.39 2 3.384-.1 6.743-.617 10-1.54a92.64 92.64 0 0 1 9.9-2 48 48 0 0 1 8.64-.4c3 .15 6 .71 9 .94l2.52.24c.45 0 .46-.59.1-.73-1.494-.621-3.04-1.11-4.62-1.46-1.5-.31-3-.54-4.52-.71a44.05 44.05 0 0 0-8.28-.12c-3.07.263-6.12.727-9.13 1.39-3.25.7-6.45 1.72-9.75 2.17-5.77.78-12.4 0-16.49-4.57-3.56-4-4.48-10-3-15 1.63-5.62 6-10.13 10.93-13.06l1.89-1.13c.62-.39.2-1.26-.44-1l.01-.09zM92.25 87.6c.09 12.58.48 25.17 1 37.75l.35 8.6a26.44 26.44 0 0 0 .45 6 4.58 4.58 0 0 0 4 3.84 36.87 36.87 0 0 0 4.46 0l4.44-.06c12.26-.2 24.52-.67 36.78-1.26l37.38-2 36.67-1.92c1.464-.066 2.922-.213 4.37-.44.86-.13.57-1.37-.19-1.43-2.954-.135-5.913-.085-8.86.15l-9 .45-18.11 1-36.75 2.06-36.31 1.41-8.91.16-4.42.05c-1 0-2.19.07-2.93-.71-1.16-1.23-1.17-3.4-1.23-5l-.26-7.2-1.83-37.14-.29-4.39a.42.42 0 0 0-.84 0l.03.08zM22.77 20.56c-.41 6.14-.43 12.32-.68 18.47l-.93 18.74-.26 4.61a16.03 16.03 0 0 0-.06 4.14 4.71 4.71 0 0 0 1.72 2.73 5.31 5.31 0 0 0 3.29 1.06l16.19.51 34 1.32 34.46 1.06 16.76.22c5.41 0 10.85.07 16.27-.18 1.287-.06 2.577-.15 3.87-.27a.61.61 0 0 0 0-1.21c-5.25-.26-10.51-.09-15.77-.12-5.46 0-10.93-.09-16.39-.18l-33.91-1-33.64-1.3-16.19-.6-3.95-.14a7.79 7.79 0 0 1-3.33-.4 2.93 2.93 0 0 1-1.56-2.2 10.39 10.39 0 0 1 .05-1.82l.14-2.49c.67-12.18 1.17-24.39 1-36.59a70.28 70.28 0 0 0-.15-4.36.46.46 0 0 0-.91 0h-.02z" fill="#343b38"/></svg>