<svg width="88" height="68" viewBox="0 0 88 68" fill="none" xmlns="http://www.w3.org/2000/svg">
<path d="M25.949 6.472V6.648C25.949 7.52267 25.9277 8.472 25.885 9.496C25.8423 10.52 25.693 11.688 25.437 13L27.085 13.192C27.213 12.488 27.309 11.8373 27.373 11.24C27.4477 10.6427 27.501 10.0827 27.533 9.56C27.565 9.02667 27.581 8.52 27.581 8.04C27.5917 7.56 27.597 7.096 27.597 6.648V5.128H17.197V6.472H25.949ZM28.957 14.984H24.109V10.312H22.477V14.984H20.541V10.312H18.909V14.984H15.901V16.344H28.957V14.984ZM38.7957 6.296V5.08H35.5157V3.72H33.8517V5.08H30.5397V6.296H38.7957ZM43.5957 8.68H41.6117V3.768H39.9637V15.08H41.6117V10.04H43.5957V8.68ZM39.3237 12.888L39.1958 11.752C38.6091 11.8373 38.0064 11.9067 37.3877 11.96C36.7797 12.0133 36.1557 12.0613 35.5157 12.104V11.192C36.3157 11.096 36.9451 10.8613 37.4037 10.488C37.8731 10.104 38.1077 9.61867 38.1077 9.032C38.1077 8.328 37.7984 7.784 37.1797 7.4C36.5717 7.00533 35.7344 6.808 34.6677 6.808C33.6011 6.808 32.7584 7.00533 32.1397 7.4C31.5317 7.784 31.2277 8.328 31.2277 9.032C31.2277 9.64 31.4624 10.1307 31.9317 10.504C32.4011 10.8667 33.0411 11.096 33.8517 11.192V12.184C33.1797 12.2053 32.5344 12.2213 31.9157 12.232C31.2971 12.232 30.7157 12.232 30.1717 12.232L30.3637 13.544C30.9931 13.544 31.6704 13.5387 32.3957 13.528C33.1211 13.5067 33.8677 13.4747 34.6357 13.432C35.4144 13.3787 36.1984 13.3093 36.9877 13.224C37.7877 13.1387 38.5664 13.0267 39.3237 12.888ZM32.7797 9.032C32.7797 8.69067 32.9504 8.424 33.2917 8.232C33.6331 8.02933 34.0917 7.928 34.6677 7.928C35.2437 7.928 35.7024 8.02933 36.0437 8.232C36.3851 8.424 36.5557 8.69067 36.5557 9.032C36.5557 9.37333 36.3851 9.64 36.0437 9.832C35.7024 10.0133 35.2437 10.104 34.6677 10.104C34.0917 10.104 33.6331 10.0133 33.2917 9.832C32.9504 9.64 32.7797 9.37333 32.7797 9.032ZM33.9157 16.616V14.36H32.2677V17.96H42.1077V16.616H33.9157ZM57.0025 3.784H55.4345V9.768H53.8985V4.088H52.3625V17.56H53.8985V11.128H55.4345V18.232H57.0025V3.784ZM49.0345 6.136V4.2H47.4025V6.136H44.6665V7.464H51.7385V6.136H49.0345ZM48.2185 8.28C47.7598 8.28 47.3385 8.36 46.9545 8.52C46.5705 8.68 46.2398 8.90933 45.9625 9.208C45.6852 9.50667 45.4665 9.864 45.3065 10.28C45.1572 10.6853 45.0825 11.1387 45.0825 11.64C45.0825 12.1307 45.1572 12.584 45.3065 13C45.4665 13.416 45.6852 13.7733 45.9625 14.072C46.2398 14.36 46.5705 14.5893 46.9545 14.76C47.3385 14.92 47.7598 15 48.2185 15C48.6772 15 49.0985 14.92 49.4825 14.76C49.8665 14.5893 50.1972 14.36 50.4745 14.072C50.7518 13.7733 50.9652 13.416 51.1145 13C51.2745 12.584 51.3545 12.1307 51.3545 11.64C51.3545 11.1387 51.2745 10.6853 51.1145 10.28C50.9652 9.864 50.7518 9.50667 50.4745 9.208C50.1972 8.90933 49.8665 8.68 49.4825 8.52C49.0985 8.36 48.6772 8.28 48.2185 8.28ZM48.2185 13.624C47.7278 13.624 47.3278 13.448 47.0185 13.096C46.7092 12.7333 46.5545 12.248 46.5545 11.64C46.5545 11.032 46.7092 10.5467 47.0185 10.184C47.3278 9.82133 47.7278 9.64 48.2185 9.64C48.7092 9.64 49.1092 9.82133 49.4185 10.184C49.7278 10.5467 49.8825 11.032 49.8825 11.64C49.8825 12.248 49.7278 12.7333 49.4185 13.096C49.1092 13.448 48.7092 13.624 48.2185 13.624ZM72.1853 15.112H69.0973V11.352C69.6733 11.0213 70.1213 10.6053 70.4413 10.104C70.7719 9.60267 70.9373 9.032 70.9373 8.392C70.9373 7.816 70.8039 7.29867 70.5373 6.84C70.2706 6.37067 69.9026 5.97067 69.4333 5.64C68.9639 5.30933 68.4039 5.05867 67.7533 4.888C67.1026 4.70667 66.3933 4.616 65.6253 4.616C64.8573 4.616 64.1479 4.70667 63.4973 4.888C62.8466 5.05867 62.2813 5.30933 61.8013 5.64C61.3319 5.97067 60.9639 6.37067 60.6973 6.84C60.4413 7.29867 60.3133 7.816 60.3133 8.392C60.3133 9.032 60.4733 9.608 60.7933 10.12C61.1239 10.6213 61.5773 11.032 62.1533 11.352V15.112H59.0973V16.456H72.1853V15.112ZM65.6253 5.912C66.1693 5.912 66.6653 5.97067 67.1133 6.088C67.5719 6.20533 67.9613 6.37067 68.2812 6.584C68.6119 6.79733 68.8679 7.05867 69.0493 7.368C69.2306 7.66667 69.3213 8.008 69.3213 8.392C69.3213 8.776 69.2306 9.12267 69.0493 9.432C68.8679 9.74133 68.6119 10.0027 68.2812 10.216C67.9613 10.4293 67.5719 10.5947 67.1133 10.712C66.6653 10.8293 66.1693 10.888 65.6253 10.888C65.0813 10.888 64.5799 10.8293 64.1213 10.712C63.6626 10.5947 63.2679 10.4293 62.9373 10.216C62.6173 10.0027 62.3666 9.74133 62.1853 9.432C62.0039 9.12267 61.9133 8.776 61.9133 8.392C61.9133 8.008 62.0039 7.66667 62.1853 7.368C62.3666 7.05867 62.6173 6.79733 62.9373 6.584C63.2679 6.37067 63.6626 6.20533 64.1213 6.088C64.5799 5.97067 65.0813 5.912 65.6253 5.912ZM63.8013 15.112V11.976C64.3666 12.104 64.9746 12.168 65.6253 12.168C65.9453 12.168 66.2599 12.152 66.5693 12.12C66.8786 12.088 67.1719 12.0347 67.4493 11.96V15.112H63.8013Z" fill="#9E9E9E"/>
<path d="M25.293 46.936L27.405 47.144C27.917 44.152 27.901 42.12 27.901 40.328V38.904H17.069V40.584H25.789C25.789 42.296 25.757 44.248 25.293 46.936ZM29.117 50.6V48.904H24.285V44.248H22.221V48.904H20.653V44.248H18.573V48.904H15.773V50.6H29.117ZM30.3637 40.344H38.7317V38.84H35.6117V37.576H33.4997V38.84H30.3637V40.344ZM43.7078 44.184V42.456H41.8518V37.624H39.7397V49.144H41.8518V44.184H43.7078ZM39.2597 47.064L39.0997 45.624C37.9478 45.8 36.8277 45.88 35.6117 45.96V45.208C37.1637 44.968 38.1397 44.168 38.1397 43.016C38.1397 41.608 36.7157 40.728 34.5557 40.728C32.3797 40.728 30.9557 41.608 30.9557 43.016C30.9557 44.168 31.8997 44.968 33.4997 45.208V46.056C32.2197 46.104 31.0357 46.104 29.9957 46.104L30.2197 47.72C32.7317 47.72 36.2037 47.656 39.2597 47.064ZM32.9557 43.016C32.9557 42.44 33.5317 42.136 34.5557 42.136C35.5797 42.136 36.1397 42.44 36.1397 43.016C36.1397 43.576 35.5797 43.88 34.5557 43.88C33.5317 43.88 32.9557 43.576 32.9557 43.016ZM42.3477 50.44H34.1557V48.424H32.0437V52.12H42.3477V50.44ZM57.2105 52.36V37.624H55.2105V43.64H54.0905V37.912H52.1225V51.752H54.0905V45.336H55.2105V52.36H57.2105ZM51.5945 39.864H49.1465V38.04H47.0665V39.864H44.5545V41.544H51.5945V39.864ZM48.1065 42.184C46.2345 42.184 44.8745 43.64 44.8745 45.704C44.8745 47.752 46.2345 49.208 48.1065 49.208C49.9785 49.208 51.3385 47.752 51.3385 45.704C51.3385 43.64 49.9785 42.184 48.1065 42.184ZM48.1065 47.448C47.2905 47.448 46.7305 46.808 46.7305 45.704C46.7305 44.6 47.2905 43.944 48.1065 43.944C48.9225 43.944 49.4825 44.6 49.4825 45.704C49.4825 46.808 48.9225 47.448 48.1065 47.448ZM72.3133 50.664V48.952H69.3533V45.352C70.4573 44.664 71.1293 43.608 71.1293 42.328C71.1293 39.912 68.8093 38.36 65.6253 38.36C62.4733 38.36 60.1373 39.912 60.1373 42.328C60.1213 43.608 60.7613 44.664 61.9133 45.352V48.952H58.9693V50.664H72.3133ZM65.6253 40.024C67.6733 40.024 69.0493 40.856 69.0493 42.328C69.0493 43.8 67.6733 44.632 65.6253 44.632C63.5773 44.632 62.2173 43.8 62.2173 42.328C62.2173 40.856 63.5773 40.024 65.6253 40.024ZM67.2573 48.952H64.0093V46.136C64.5213 46.232 65.0653 46.28 65.6253 46.28C66.2013 46.28 66.7453 46.232 67.2573 46.136V48.952Z" fill="#00B28F"/>
</svg>
