<svg width="88" height="96" viewBox="0 0 88 96" fill="none" xmlns="http://www.w3.org/2000/svg">
<path d="M29.229 13.968H27.181V10.784H25.533V18.432H27.181V15.328H29.229V13.968ZM23.309 11.776H16.541V13.104H21.469C21.3837 14.0853 20.8823 14.9547 19.965 15.712C19.0583 16.4587 17.709 17.0133 15.917 17.376L16.573 18.704C18.7277 18.2453 20.3863 17.4453 21.549 16.304C22.7223 15.152 23.309 13.6427 23.309 11.776ZM19.581 23.824V22.608H27.085V21.424H19.581V20.272H27.261V19.04H17.933V25.056H27.565V23.824H19.581ZM42.1877 10.768H40.5238V25.264H42.1877V10.768ZM34.4917 11.84C33.9584 11.84 33.4624 11.9627 33.0037 12.208C32.5557 12.4427 32.1664 12.784 31.8357 13.232C31.5051 13.6693 31.2437 14.2027 31.0517 14.832C30.8704 15.4507 30.7797 16.1493 30.7797 16.928C30.7797 17.7067 30.8704 18.416 31.0517 19.056C31.2437 19.6853 31.5051 20.2187 31.8357 20.656C32.1664 21.0933 32.5557 21.4347 33.0037 21.68C33.4624 21.9147 33.9584 22.032 34.4917 22.032C35.0357 22.032 35.5317 21.9147 35.9797 21.68C36.4384 21.4347 36.8331 21.0933 37.1637 20.656C37.4944 20.2187 37.7504 19.6853 37.9317 19.056C38.1237 18.416 38.2197 17.7067 38.2197 16.928C38.2197 16.1493 38.1237 15.4507 37.9317 14.832C37.7504 14.2027 37.4944 13.6693 37.1637 13.232C36.8331 12.784 36.4384 12.4427 35.9797 12.208C35.5317 11.9627 35.0357 11.84 34.4917 11.84ZM34.4917 13.328C35.1317 13.328 35.6491 13.648 36.0437 14.288C36.4384 14.9173 36.6357 15.7973 36.6357 16.928C36.6357 18.0907 36.4384 18.9867 36.0437 19.616C35.6491 20.2453 35.1317 20.56 34.4917 20.56C33.8517 20.56 33.3344 20.2453 32.9397 19.616C32.5557 18.9867 32.3637 18.0907 32.3637 16.928C32.3637 15.7973 32.5557 14.9173 32.9397 14.288C33.3344 13.648 33.8517 13.328 34.4917 13.328ZM57.0025 10.784H55.4345V16.768H53.8985V11.088H52.3625V24.56H53.8985V18.128H55.4345V25.232H57.0025V10.784ZM49.0345 13.136V11.2H47.4025V13.136H44.6665V14.464H51.7385V13.136H49.0345ZM48.2185 15.28C47.7598 15.28 47.3385 15.36 46.9545 15.52C46.5705 15.68 46.2398 15.9093 45.9625 16.208C45.6852 16.5067 45.4665 16.864 45.3065 17.28C45.1572 17.6853 45.0825 18.1387 45.0825 18.64C45.0825 19.1307 45.1572 19.584 45.3065 20C45.4665 20.416 45.6852 20.7733 45.9625 21.072C46.2398 21.36 46.5705 21.5893 46.9545 21.76C47.3385 21.92 47.7598 22 48.2185 22C48.6772 22 49.0985 21.92 49.4825 21.76C49.8665 21.5893 50.1972 21.36 50.4745 21.072C50.7518 20.7733 50.9652 20.416 51.1145 20C51.2745 19.584 51.3545 19.1307 51.3545 18.64C51.3545 18.1387 51.2745 17.6853 51.1145 17.28C50.9652 16.864 50.7518 16.5067 50.4745 16.208C50.1972 15.9093 49.8665 15.68 49.4825 15.52C49.0985 15.36 48.6772 15.28 48.2185 15.28ZM48.2185 20.624C47.7278 20.624 47.3278 20.448 47.0185 20.096C46.7092 19.7333 46.5545 19.248 46.5545 18.64C46.5545 18.032 46.7092 17.5467 47.0185 17.184C47.3278 16.8213 47.7278 16.64 48.2185 16.64C48.7092 16.64 49.1092 16.8213 49.4185 17.184C49.7278 17.5467 49.8825 18.032 49.8825 18.64C49.8825 19.248 49.7278 19.7333 49.4185 20.096C49.1092 20.448 48.7092 20.624 48.2185 20.624ZM72.1853 22.112H69.0973V18.352C69.6733 18.0213 70.1213 17.6053 70.4413 17.104C70.7719 16.6027 70.9373 16.032 70.9373 15.392C70.9373 14.816 70.8039 14.2987 70.5373 13.84C70.2706 13.3707 69.9026 12.9707 69.4333 12.64C68.9639 12.3093 68.4039 12.0587 67.7533 11.888C67.1026 11.7067 66.3933 11.616 65.6253 11.616C64.8573 11.616 64.1479 11.7067 63.4973 11.888C62.8466 12.0587 62.2813 12.3093 61.8013 12.64C61.3319 12.9707 60.9639 13.3707 60.6973 13.84C60.4413 14.2987 60.3133 14.816 60.3133 15.392C60.3133 16.032 60.4733 16.608 60.7933 17.12C61.1239 17.6213 61.5773 18.032 62.1533 18.352V22.112H59.0973V23.456H72.1853V22.112ZM65.6253 12.912C66.1693 12.912 66.6653 12.9707 67.1133 13.088C67.5719 13.2053 67.9613 13.3707 68.2812 13.584C68.6119 13.7973 68.8679 14.0587 69.0493 14.368C69.2306 14.6667 69.3213 15.008 69.3213 15.392C69.3213 15.776 69.2306 16.1227 69.0493 16.432C68.8679 16.7413 68.6119 17.0027 68.2812 17.216C67.9613 17.4293 67.5719 17.5947 67.1133 17.712C66.6653 17.8293 66.1693 17.888 65.6253 17.888C65.0813 17.888 64.5799 17.8293 64.1213 17.712C63.6626 17.5947 63.2679 17.4293 62.9373 17.216C62.6173 17.0027 62.3666 16.7413 62.1853 16.432C62.0039 16.1227 61.9133 15.776 61.9133 15.392C61.9133 15.008 62.0039 14.6667 62.1853 14.368C62.3666 14.0587 62.6173 13.7973 62.9373 13.584C63.2679 13.3707 63.6626 13.2053 64.1213 13.088C64.5799 12.9707 65.0813 12.912 65.6253 12.912ZM63.8013 22.112V18.976C64.3666 19.104 64.9746 19.168 65.6253 19.168C65.9453 19.168 66.2599 19.152 66.5693 19.12C66.8786 19.088 67.1719 19.0347 67.4493 18.96V22.112H63.8013Z" fill="#9E9E9E"/>
<path d="M29.325 63.392V61.648H27.373V58.624H25.261V66.352H27.373V63.392H29.325ZM23.389 59.616H16.429V61.312H21.037C20.829 62.928 19.309 64.352 15.725 64.944L16.541 66.624C21.037 65.776 23.389 63.568 23.389 59.616ZM27.741 71.68H19.821V70.8H27.277V69.328H19.821V68.464H27.437V66.928H17.725V73.216H27.741V71.68ZM42.3798 73.408V58.624H40.2677V73.408H42.3798ZM34.4597 59.664C32.2357 59.664 30.5877 61.68 30.5877 64.912C30.5877 68.16 32.2357 70.192 34.4597 70.192C36.6837 70.192 38.3317 68.16 38.3317 64.912C38.3317 61.68 36.6837 59.664 34.4597 59.664ZM34.4597 61.568C35.5477 61.568 36.2997 62.72 36.2997 64.912C36.2997 67.104 35.5477 68.272 34.4597 68.272C33.3717 68.272 32.6197 67.104 32.6197 64.912C32.6197 62.72 33.3717 61.568 34.4597 61.568ZM57.2105 73.36V58.624H55.2105V64.64H54.0905V58.912H52.1225V72.752H54.0905V66.336H55.2105V73.36H57.2105ZM51.5945 60.864H49.1465V59.04H47.0665V60.864H44.5545V62.544H51.5945V60.864ZM48.1065 63.184C46.2345 63.184 44.8745 64.64 44.8745 66.704C44.8745 68.752 46.2345 70.208 48.1065 70.208C49.9785 70.208 51.3385 68.752 51.3385 66.704C51.3385 64.64 49.9785 63.184 48.1065 63.184ZM48.1065 68.448C47.2905 68.448 46.7305 67.808 46.7305 66.704C46.7305 65.6 47.2905 64.944 48.1065 64.944C48.9225 64.944 49.4825 65.6 49.4825 66.704C49.4825 67.808 48.9225 68.448 48.1065 68.448ZM72.3133 71.664V69.952H69.3533V66.352C70.4573 65.664 71.1293 64.608 71.1293 63.328C71.1293 60.912 68.8093 59.36 65.6253 59.36C62.4733 59.36 60.1373 60.912 60.1373 63.328C60.1213 64.608 60.7613 65.664 61.9133 66.352V69.952H58.9693V71.664H72.3133ZM65.6253 61.024C67.6733 61.024 69.0493 61.856 69.0493 63.328C69.0493 64.8 67.6733 65.632 65.6253 65.632C63.5773 65.632 62.2173 64.8 62.2173 63.328C62.2173 61.856 63.5773 61.024 65.6253 61.024ZM67.2573 69.952H64.0093V67.136C64.5213 67.232 65.0653 67.28 65.6253 67.28C66.2013 67.28 66.7453 67.232 67.2573 67.136V69.952Z" fill="#00B28F"/>
</svg>
