<svg width="66" height="96" viewBox="0 0 66 96" fill="none" xmlns="http://www.w3.org/2000/svg">
<path d="M49.4333 13.168V11.904H44.4573V10.608H42.7933V11.904H37.7373V13.168H49.4333ZM50.1533 18.656H44.4573V17.744C46.9693 17.616 48.3613 16.912 48.3613 15.696C48.3613 14.336 46.7453 13.632 43.6253 13.632C40.4893 13.632 38.8733 14.336 38.8733 15.696C38.8733 16.912 40.2173 17.616 42.7933 17.744V18.656H37.0813V19.952H50.1533V18.656ZM40.6333 15.696C40.6333 15.072 41.6253 14.768 43.6253 14.768C45.6253 14.768 46.6173 15.072 46.6173 15.696C46.6173 16.32 45.6253 16.624 43.6253 16.624C41.6253 16.624 40.6333 16.32 40.6333 15.696ZM38.6493 20.896V25.056H48.5693V20.896H38.6493ZM40.2812 23.824V22.144H46.9533V23.824H40.2812Z" fill="#9E9E9E"/>
<path d="M25.6871 23.6246V20.2495C25.6871 20.1004 25.6278 19.9573 25.5223 19.8518C25.4168 19.7463 25.2738 19.687 25.1246 19.687H22.8746C22.7254 19.687 22.5823 19.7463 22.4768 19.8518C22.3714 19.9573 22.3121 20.1004 22.3121 20.2495V23.6246C22.3121 23.7738 22.2528 23.9168 22.1474 24.0223C22.0419 24.1278 21.8988 24.1871 21.7497 24.1871L18.3751 24.1876C18.3012 24.1876 18.228 24.173 18.1598 24.1448C18.0915 24.1165 18.0295 24.0751 17.9773 24.0228C17.925 23.9706 17.8836 23.9086 17.8553 23.8403C17.8271 23.7721 17.8125 23.6989 17.8125 23.6251V17.1239C17.8125 17.0456 17.8289 16.9681 17.8606 16.8964C17.8923 16.8247 17.9386 16.7605 17.9966 16.7077L23.6212 11.5936C23.7247 11.4994 23.8597 11.4473 23.9996 11.4473C24.1395 11.4473 24.2745 11.4994 24.378 11.5936L30.0034 16.7077C30.0614 16.7605 30.1077 16.8247 30.1394 16.8964C30.1711 16.9681 30.1875 17.0456 30.1875 17.124V23.6251C30.1875 23.6989 30.1729 23.7721 30.1447 23.8403C30.1164 23.9086 30.075 23.9706 30.0227 24.0228C29.9705 24.0751 29.9085 24.1165 29.8402 24.1448C29.772 24.173 29.6988 24.1876 29.6249 24.1876L26.2495 24.1871C26.1003 24.1871 25.9573 24.1278 25.8518 24.0223C25.7463 23.9168 25.6871 23.7738 25.6871 23.6246V23.6246Z" fill="#BDBDBD"/>
<path d="M37.5933 61.264H49.5933V59.68H44.6813V58.528H42.5693V59.68H37.5933V61.264ZM50.2973 68.16V66.528H44.6813V65.792C47.1933 65.648 48.5693 64.96 48.5693 63.728C48.5693 62.32 46.9053 61.632 43.6253 61.632C40.3453 61.632 38.6973 62.336 38.6973 63.728C38.6973 64.96 40.0573 65.648 42.5693 65.792V66.528H36.9533V68.16H50.2973ZM40.9533 63.728C40.9533 63.232 41.7533 63.056 43.6253 63.056C45.4973 63.056 46.2973 63.232 46.2973 63.728C46.2973 64.224 45.4973 64.416 43.6253 64.416C41.7533 64.416 40.9533 64.224 40.9533 63.728ZM48.6973 68.928H38.5213V73.2H48.6973V68.928ZM46.6173 71.648H40.5853V70.48H46.6173V71.648Z" fill="#00B28F"/>
<path d="M25.6871 71.6246V68.2495C25.6871 68.1004 25.6278 67.9573 25.5223 67.8518C25.4168 67.7463 25.2738 67.687 25.1246 67.687H22.8746C22.7254 67.687 22.5823 67.7463 22.4768 67.8518C22.3714 67.9573 22.3121 68.1004 22.3121 68.2495V71.6246C22.3121 71.7738 22.2528 71.9168 22.1474 72.0223C22.0419 72.1278 21.8988 72.1871 21.7497 72.1871L18.3751 72.1876C18.3012 72.1876 18.228 72.173 18.1598 72.1448C18.0915 72.1165 18.0295 72.0751 17.9773 72.0228C17.925 71.9706 17.8836 71.9086 17.8553 71.8403C17.8271 71.7721 17.8125 71.6989 17.8125 71.6251V65.1239C17.8125 65.0456 17.8289 64.9681 17.8606 64.8964C17.8923 64.8247 17.9386 64.7605 17.9966 64.7077L23.6212 59.5936C23.7247 59.4994 23.8597 59.4473 23.9996 59.4473C24.1395 59.4473 24.2745 59.4994 24.378 59.5936L30.0034 64.7077C30.0614 64.7605 30.1077 64.8247 30.1394 64.8964C30.1711 64.9681 30.1875 65.0456 30.1875 65.124V71.6251C30.1875 71.6989 30.1729 71.7721 30.1447 71.8403C30.1164 71.9086 30.075 71.9706 30.0227 72.0228C29.9705 72.0751 29.9085 72.1165 29.8402 72.1448C29.772 72.173 29.6988 72.1876 29.6249 72.1876L26.2495 72.1871C26.1003 72.1871 25.9573 72.1278 25.8518 72.0223C25.7463 71.9168 25.6871 71.7738 25.6871 71.6246V71.6246Z" fill="#00B28F"/>
</svg>
