<svg width="103" height="68" viewBox="0 0 103 68" fill="none" xmlns="http://www.w3.org/2000/svg">
<path d="M29.8142 6.744H27.7822V3.768H26.1342V11.08H27.7822V8.104H29.8142V6.744ZM24.2622 7.496C24.2622 5.592 22.6782 4.248 20.4862 4.248C18.2942 4.248 16.6782 5.592 16.6782 7.496C16.6782 9.4 18.2942 10.744 20.4862 10.744C22.6782 10.744 24.2622 9.4 24.2622 7.496ZM18.2782 7.496C18.2782 6.344 19.2062 5.592 20.4862 5.592C21.7662 5.592 22.6622 6.344 22.6622 7.496C22.6622 8.648 21.7662 9.416 20.4862 9.416C19.2062 9.416 18.2782 8.648 18.2782 7.496ZM20.1022 16.744V15.432H27.7822V11.704H18.4542V13H26.1502V14.232H18.4862V18.056H28.2622V16.744H20.1022ZM42.869 3.752H41.221V6.968H38.581V8.312H41.221V10.904H38.501V12.248H41.221V18.248H42.869V3.752ZM33.029 13.592V10.408H37.749V5.032H31.381V6.36H36.133V9.08H31.413V14.952H32.517C34.757 14.952 36.629 14.888 38.805 14.552L38.677 13.192C36.693 13.496 34.997 13.576 33.029 13.592ZM46.0197 9.56L46.6117 10.856C48.9957 10.488 50.9317 9.32 51.8277 7.72C52.7397 9.336 54.6757 10.472 57.0597 10.856L57.6517 9.56C54.9157 9.176 52.8517 7.64 52.7717 5.928H57.1397V4.6H46.4997V5.928H50.8997C50.8197 7.64 48.7557 9.176 46.0197 9.56ZM58.3558 13.24L58.3717 11.912H45.2997V13.24H50.9637V18.248H52.6117V13.24H58.3558ZM72.0345 3.784H70.4665V18.232H72.0345V3.784ZM67.5225 4.056V8.84H65.3945V10.184H67.5225V17.56H69.0745V4.056H67.5225ZM64.1305 7.64V5.112H62.5305V7.72C62.5305 10.184 61.5385 12.76 59.4905 13.992L60.4985 15.24C61.9065 14.392 62.8345 12.904 63.3465 11.096C63.8425 12.712 64.6745 14.104 66.0185 14.92L66.9465 13.64C65.0105 12.392 64.1305 9.992 64.1305 7.64ZM87.1853 15.112H84.0973V11.352C85.2493 10.696 85.9373 9.672 85.9373 8.392C85.9373 6.088 83.6973 4.616 80.6253 4.616C77.5373 4.616 75.3133 6.088 75.3133 8.392C75.3133 9.672 76.0013 10.712 77.1533 11.352V15.112H74.0973V16.456H87.1853V15.112ZM80.6253 5.912C82.8013 5.912 84.3213 6.872 84.3213 8.392C84.3213 9.928 82.8013 10.888 80.6253 10.888C78.4333 10.888 76.9133 9.928 76.9133 8.392C76.9133 6.872 78.4333 5.912 80.6253 5.912ZM78.8013 15.112V11.976C79.3613 12.104 79.9693 12.168 80.6253 12.168C81.2653 12.168 81.8893 12.104 82.4493 11.96V15.112H78.8013Z" fill="#9E9E9E"/>
<path d="M29.9102 42.2V40.472H27.9742V37.64H25.8622V45H27.9742V42.2H29.9102ZM24.3262 41.4C24.3262 39.464 22.6622 38.056 20.4062 38.056C18.1662 38.056 16.4862 39.464 16.4862 41.4C16.4862 43.368 18.1662 44.76 20.4062 44.76C22.6622 44.76 24.3262 43.368 24.3262 41.4ZM18.5182 41.4C18.5182 40.376 19.3022 39.752 20.4062 39.752C21.5102 39.752 22.2942 40.376 22.2942 41.4C22.2942 42.44 21.5102 43.064 20.4062 43.064C19.3022 43.064 18.5182 42.44 18.5182 41.4ZM28.3902 50.568H20.3582V49.608H27.9742V45.576H18.2462V47.208H25.8942V48.088H18.2622V52.2H28.3902V50.568ZM43.109 52.408V37.624H40.981V40.76H38.565V42.456H40.981V44.76H38.533V46.456H40.981V52.408H43.109ZM33.365 47.384V44.568H37.829V38.872H31.253V40.552H35.749V42.904H31.285V49.128H32.469C34.693 49.128 36.549 49.08 38.725 48.744L38.565 47.016C36.709 47.288 35.157 47.368 33.365 47.384ZM45.8117 43.288L46.5797 44.936C49.1557 44.568 50.9477 43.512 51.8437 41.976C52.7397 43.512 54.5317 44.568 57.1077 44.936L57.8597 43.288C54.8517 42.904 53.3158 41.496 53.1077 40.072H57.2837V38.392H46.3557V40.072H50.5957C50.3877 41.496 48.8357 42.904 45.8117 43.288ZM52.8517 47.464H58.4998V45.784H45.1877V47.464H50.7397V52.408H52.8517V47.464ZM72.2105 52.376V37.64H70.2105V52.376H72.2105ZM69.1865 37.88H67.2185V42.616H65.3785V44.328H67.2185V51.72H69.1865V37.88ZM64.2745 41.32V38.92H62.2425V41.4C62.2425 43.912 61.4585 46.552 59.2985 47.864L60.5625 49.448C61.9065 48.632 62.7545 47.272 63.2665 45.608C63.7305 47.096 64.4825 48.344 65.7625 49.112L66.9145 47.48C64.9145 46.152 64.2745 43.704 64.2745 41.32ZM87.3133 50.664V48.952H84.3533V45.352C85.4573 44.664 86.1293 43.608 86.1293 42.328C86.1293 39.912 83.8093 38.36 80.6253 38.36C77.4733 38.36 75.1373 39.912 75.1373 42.328C75.1213 43.608 75.7613 44.664 76.9133 45.352V48.952H73.9693V50.664H87.3133ZM80.6253 40.024C82.6733 40.024 84.0493 40.856 84.0493 42.328C84.0493 43.8 82.6733 44.632 80.6253 44.632C78.5773 44.632 77.2173 43.8 77.2173 42.328C77.2173 40.856 78.5773 40.024 80.6253 40.024ZM82.2573 48.952H79.0093V46.136C79.5213 46.232 80.0653 46.28 80.6253 46.28C81.2013 46.28 81.7453 46.232 82.2573 46.136V48.952Z" fill="#00B28F"/>
</svg>
