<svg width="60" height="79" viewBox="0 0 60 79" fill="none" xmlns="http://www.w3.org/2000/svg">
<path d="M20.2105 33H16.7895C14.1443 33 12 35.0893 12 37.6667V44.3333C12 46.9107 14.1443 49 16.7895 49H20.2105C22.8557 49 25 46.9107 25 44.3333V37.6667C25 35.0893 22.8557 33 20.2105 33Z" fill="#9AE2C7"/>
<path d="M34.6875 26.5H25.3125C18.0638 26.5 12.1875 32.3763 12.1875 39.625V58.375C12.1875 65.6237 18.0638 71.5 25.3125 71.5H34.6875C41.9362 71.5 47.8125 65.6237 47.8125 58.375V39.625C47.8125 32.3763 41.9362 26.5 34.6875 26.5Z" stroke="white" stroke-width="4" stroke-linecap="round" stroke-linejoin="round"/>
<path d="M30 45.25L30 35.875" stroke="white" stroke-width="4" stroke-linecap="round" stroke-linejoin="round"/>
<path d="M29.5494 -7.5C13.9512 0.5 15.9511 13 24.9512 15C33.9512 17 42.9509 12.9954 42.9509 7.5C42.9509 4.65016 37.4511 3 32.9511 8.5C28.4511 14 28.7374 20.5131 29.5494 26.3038" stroke="white" stroke-width="4" stroke-linecap="round"/>
</svg>
