<svg width="240" height="240" viewBox="0 0 240 240" fill="none" xmlns="http://www.w3.org/2000/svg">
<path d="M230 0H10C4.47715 0 0 4.47715 0 10V230C0 235.523 4.47715 240 10 240H230C235.523 240 240 235.523 240 230V10C240 4.47715 235.523 0 230 0Z" fill="#FFE97B"/>
<path d="M188.1 240H60.17L51.77 181.83H200.52L188.1 240Z" fill="#A0B6EE"/>
<path d="M114.44 94.56C99.22 87.32 85.81 89.93 78.36 94.84C65.96 103.01 61.83 115.49 72.3 125.84C65.53 125.84 56.35 131.33 52.74 140.74C50 148 53.93 155.59 59.38 157.48C54.99 157.66 42.1 159.48 40.94 172.28C40.36 178.7 46.31 185.49 51.94 188.68C75.39 201.98 101.51 205.24 128.43 206.81C153.82 208.3 177.64 208.95 198.74 199.38C204.96 196.56 211.67 192.87 211.67 180.73C211.67 170.73 200.54 162.66 186.38 164.55C193.97 157.43 195.18 148.73 189.95 141.07C185.72 134.9 181.4 133.79 181.4 133.79C181.4 133.79 187.16 127.25 187.89 120.88C188.58 114.95 185.13 106.28 177.22 100.26C169.31 94.24 154.63 95.5 145.22 98.9C133.68 103.06 113.85 94.89 114.44 94.56Z" fill="#FFBEAE"/>
<path d="M136 51.1701C126.122 49.8148 116.074 51.785 107.44 56.7701C102.59 59.6501 94.76 66.6801 94.15 82.7701C93.79 92.0301 99.34 102.44 110.47 109.47C130.87 122.35 151.19 115.96 161.28 102.1C168.08 92.7701 168.28 78.3701 162.9 68.1501C157.52 57.9301 144.7 52.5801 136 51.1701Z" fill="#4CD8AE"/>
<path d="M40.68 100.06C39.3697 99.8823 38.0373 100.142 36.89 100.8C36.3205 101.172 35.8576 101.685 35.5472 102.29C35.2368 102.895 35.0896 103.571 35.12 104.25C35.1442 104.979 35.3568 105.689 35.7371 106.311C36.1174 106.933 36.6524 107.446 37.29 107.8C38.3184 108.556 39.6035 108.874 40.8658 108.687C42.128 108.5 43.2653 107.822 44.03 106.8C44.4617 106.135 44.7095 105.367 44.7482 104.575C44.7868 103.783 44.6149 102.994 44.25 102.29C43.8528 101.681 43.3277 101.166 42.7111 100.781C42.0945 100.396 41.4014 100.15 40.68 100.06Z" fill="#4CD8AE"/>
<path d="M19.21 181.93C19.737 186.462 19.4935 191.05 18.49 195.5C17.49 199.62 15.49 204.27 11.28 205.99C9.99001 206.53 10.45 208.59 11.88 208.16C15.81 206.99 19.49 209.44 21.88 212.44C24.3208 215.818 26.0616 219.65 27 223.71C27.0785 223.966 27.2456 224.186 27.4713 224.331C27.6971 224.475 27.9668 224.535 28.2324 224.499C28.498 224.463 28.7422 224.333 28.9212 224.134C29.1003 223.935 29.2026 223.678 29.21 223.41C29.21 218.82 29.58 214.08 31.35 209.79C32.72 206.49 35.49 202.6 39.46 202.57C39.7401 202.544 40.0002 202.414 40.1896 202.206C40.3789 201.998 40.4838 201.726 40.4838 201.445C40.4838 201.164 40.3789 200.893 40.1896 200.685C40.0002 200.476 39.7401 200.347 39.46 200.32C34.8649 199.961 30.5966 197.805 27.58 194.32C24.58 190.77 22.72 186.04 21.45 181.63C21.3499 181.368 21.1562 181.153 20.9064 181.026C20.6565 180.899 20.3684 180.87 20.098 180.943C19.8276 181.017 19.5942 181.188 19.443 181.424C19.2919 181.66 19.2338 181.944 19.28 182.22C20.67 187.08 22.79 192.27 26.16 196.11C29.5909 199.903 34.358 202.218 39.46 202.57V200.32C34.98 200.32 31.58 204.06 29.78 207.83C27.47 212.65 26.95 218.14 26.96 223.41L29.17 223.11C27.91 218.5 26.12 213.86 22.94 210.21C20.08 206.92 15.7 204.68 11.31 205.99L11.91 208.16C16.49 206.29 19.23 201.78 20.43 197.16C21.6905 192.191 22.0495 187.036 21.49 181.94C21.32 180.5 19.07 180.48 19.21 181.93Z" fill="#4CD8AE"/>
<path d="M212.58 85.0001C210.33 88.4701 206.1 92.1001 201.69 90.2101C200.4 89.6601 199.24 91.4501 200.55 92.1501C204.95 94.5001 204.67 100.04 203.2 104.08C203.137 104.319 203.153 104.572 203.247 104.801C203.342 105.029 203.508 105.221 203.722 105.345C203.935 105.47 204.183 105.522 204.429 105.492C204.674 105.462 204.903 105.352 205.08 105.18C207.62 102.18 212.44 98.7401 216.23 101.89C217.33 102.8 218.91 101.28 217.82 100.3C215.828 98.4546 214.435 96.0548 213.82 93.4101C213.438 90.8649 213.735 88.2639 214.68 85.8701C215.15 84.5001 212.97 83.8701 212.51 85.2701C211.454 88.0558 211.157 91.072 211.65 94.0101C212.368 97.0394 213.977 99.784 216.27 101.89L217.86 100.3C216.827 99.4653 215.608 98.8913 214.306 98.6268C213.004 98.3622 211.657 98.4148 210.38 98.7801C207.66 99.6474 205.269 101.326 203.53 103.59L205.41 104.68C207.23 99.6801 207.01 93.0301 201.73 90.2101L200.59 92.1501C206.25 94.5801 211.59 90.7801 214.59 86.1501C215.31 84.9001 213.37 83.7701 212.58 85.0001Z" fill="#4CD8AE"/>
<path d="M111.88 69.7601C112.728 79.3687 114.251 88.9057 116.44 98.3001C116.558 98.6723 116.815 98.9844 117.158 99.1709C117.502 99.3573 117.904 99.4036 118.28 99.3001C120.68 98.6401 121.74 96.4401 122.68 94.35C123.62 92.26 124.63 89.9801 125.59 87.7901C127.59 83.3201 129.46 78.7901 131.48 74.4101L128.74 74.0501C131.74 82.2701 133.07 91.6601 138.31 98.8901C138.519 99.2236 138.848 99.465 139.228 99.5653C139.609 99.6656 140.014 99.6172 140.36 99.4301C142.26 98.4301 143.17 96.4301 143.69 94.4301C144.39 91.7801 144.89 89.0601 145.45 86.4301C146.61 80.8167 147.673 75.1934 148.64 69.56C148.96 67.67 146.07 66.8601 145.74 68.7601C144.86 73.9201 143.897 79.0634 142.85 84.1901C142.33 86.7501 141.78 89.3101 141.22 91.8701C140.83 93.6001 140.58 95.9501 138.85 96.8701L140.9 97.4001C135.81 90.4001 134.57 81.2601 131.63 73.2801C131.23 72.2001 129.47 71.6401 128.89 72.9201C127.03 77.01 125.25 81.1401 123.46 85.2501C122.56 87.3101 121.66 89.3601 120.74 91.42C120.06 92.9501 119.29 95.9401 117.48 96.42L119.33 97.42C117.198 88.2891 115.711 79.0196 114.88 69.6801C114.71 67.7701 111.71 67.7501 111.88 69.6801V69.7601Z" fill="white"/>
<path d="M107.23 85.6099L155.32 82.8599C157.24 82.7499 157.25 79.7499 155.32 79.8599L107.23 82.6099C105.31 82.7199 105.29 85.7199 107.23 85.6099Z" fill="white"/>
<path d="M20.88 0C20.88 14.58 31.48 32.43 46.34 42.17C44.9 43.63 41.34 49.17 40.69 52.92C39.9527 57.0568 40.7895 61.3198 43.036 64.8709C45.2825 68.422 48.7761 71.0042 52.83 72.11C58.54 73.63 61.38 71.46 62.36 72.17C63.18 72.76 65.13 77.62 70.95 80.01C84.69 85.67 92.23 74.32 85.39 71.74C77.57 68.79 79.17 63.39 82.39 55.15C84.39 65.27 91.8 73.9 106.02 75.09C109.62 75.39 114.42 74.54 115.86 71.34C118.47 65.56 107.33 66.06 105.22 58.23C107.209 56.8511 109.317 55.653 111.52 54.65C113 54 115 53.3 115 53.3C111.81 39 104.88 34.09 99.46 30.71C93.9769 27.3081 87.4534 25.9913 81.08 27C80.2393 27.247 79.3413 27.2155 78.52 26.91C77.94 26.6 77.64 25.98 77.21 25.48C72.17 19.68 65.86 11.05 65.48 0H20.88Z" fill="#FFE7E2"/>
<path d="M168.78 0C172 12.15 168 21.54 159.5 27.86C158.739 28.2807 157.934 28.6161 157.1 28.86C153.15 29.86 147.64 31.86 144.1 35.86C138.7 41.86 137.88 46.69 138.1 51.59C145.17 53.17 151.05 56.36 152.28 57.47C153.23 58.32 151.28 62.87 147.94 63.86C142.79 65.4 141.5 68.22 141.56 70.68C141.64 74.19 145.88 75.89 148.05 76.68C157.42 79.98 171.69 76.22 176.81 59.68C179.41 62.36 183.32 69.68 180.01 74.07C178.22 76.45 171.43 77.46 169.94 82.01C168.94 84.92 172.4 87.83 175.45 88.13C185.29 89.13 195.11 85.02 198.45 74.88C209.03 76 213.14 68.96 212.16 62.18C211.55 57.93 207.58 52.66 205.63 50.82C205.251 50.5117 204.978 50.0919 204.85 49.62C204.746 49.2617 204.75 48.8805 204.862 48.5246C204.974 48.1687 205.189 47.8539 205.48 47.62C220.11 38.72 226.67 17.01 222.48 0.01L168.78 0Z" fill="#FFE7E2"/>
<path d="M119 106.25C112.93 102.96 97.79 99.2501 90.61 105.16C88.14 107.16 86.46 110.67 85.43 113.55C83.86 117.98 86.58 122.79 90.21 126.1C99.28 134.39 114.71 136.23 125.86 130.37C129 128.71 132.24 126.16 132.25 122.88C132.21 116.73 125.6 109.84 119 106.25Z" fill="#FFBEAE"/>
<path d="M127.15 119.09C128.92 114.96 132.23 111.67 135.81 108.95C141.195 104.868 147.302 101.838 153.81 100.02C160.86 98.0199 168.61 97.6099 175.32 100.54C176.902 101.156 178.286 102.193 179.32 103.54C179.972 104.608 180.349 105.82 180.419 107.07C180.489 108.319 180.249 109.566 179.72 110.7C178.635 112.961 177.084 114.968 175.17 116.59C169.25 122.11 161.95 126.42 153.95 127.59C145.95 128.76 137.22 126.59 131.6 120.74" fill="#FFBEAE"/>
<path d="M128.94 116.08C129.221 115.602 129.535 115.144 129.88 114.71C130.25 114.2 130.59 113.71 130.95 113.15C131.69 112.103 132.491 111.101 133.35 110.15C135.111 108.158 137.075 106.355 139.21 104.77C141.167 103.297 143.313 102.093 145.59 101.19C148.427 100.138 151.371 99.4033 154.37 99C156.05 98.77 157.74 98.66 159.37 98.49C161 98.32 162.76 98.39 164.44 98.26C164.81 98.26 164.93 97.69 164.54 97.59C163.013 97.2371 161.456 97.0328 159.89 96.98C158.342 96.88 156.788 96.88 155.24 96.98C152.091 97.2321 148.987 97.8806 146 98.91C140.808 100.791 136.194 103.989 132.61 108.19C131.578 109.332 130.654 110.567 129.85 111.88C129.5 112.5 129.12 113.1 128.85 113.75C128.592 114.404 128.368 115.072 128.18 115.75C128.158 115.852 128.173 115.958 128.22 116.05C128.268 116.143 128.346 116.216 128.442 116.257C128.537 116.298 128.644 116.305 128.744 116.276C128.844 116.248 128.931 116.185 128.99 116.1L128.94 116.08Z" fill="#343B38"/>
<path d="M89.07 104.24C96.1218 102.849 103.424 103.498 110.12 106.11C116.143 108.597 121.342 112.732 125.12 118.04C126.19 119.523 127.153 121.08 128 122.7C128.41 123.5 128.79 124.31 129.14 125.14C129.443 126.007 129.839 126.838 130.32 127.62C130.432 127.805 130.6 127.948 130.8 128.03C131 128.111 131.221 128.125 131.43 128.07C131.636 128.01 131.817 127.885 131.947 127.714C132.077 127.543 132.148 127.335 132.15 127.12C132.084 126.237 131.861 125.374 131.49 124.57C131.17 123.73 130.79 122.91 130.39 122.1C129.662 120.627 128.826 119.21 127.89 117.86C124.249 112.603 119.301 108.385 113.534 105.623C107.766 102.861 101.378 101.65 95 102.11C92.8944 102.279 90.8128 102.671 88.79 103.28C88.6574 103.315 88.5439 103.4 88.4745 103.518C88.4051 103.637 88.3855 103.777 88.42 103.91C88.4545 104.043 88.5402 104.156 88.6584 104.226C88.7765 104.295 88.9174 104.315 89.05 104.28L89.07 104.24Z" fill="#343B38"/>
<path d="M114.48 66.5001C112.828 65.5809 111.302 64.4515 109.94 63.1401C108.854 62.1417 107.888 61.0209 107.06 59.8001C106.352 58.7887 105.793 57.6807 105.4 56.5101C104.867 54.808 104.565 53.0424 104.5 51.2601C104.45 50.3508 104.45 49.4394 104.5 48.5301C104.626 47.7939 104.663 47.0451 104.61 46.3001C104.586 46.2074 104.537 46.1228 104.47 46.055C104.402 45.9871 104.318 45.9385 104.225 45.9141C104.133 45.8897 104.035 45.8903 103.943 45.916C103.851 45.9416 103.767 45.9914 103.7 46.0601C103.302 46.6535 103.077 47.346 103.05 48.0601C102.937 48.9187 102.883 49.7841 102.89 50.6501C102.88 52.5886 103.149 54.5184 103.69 56.3801C104.614 59.2274 106.302 61.7663 108.57 63.7201C109.335 64.4227 110.162 65.0552 111.04 65.6101C112.053 66.2026 113.114 66.7109 114.21 67.1301C114.54 67.2601 114.77 66.7101 114.45 66.5401L114.48 66.5001Z" fill="#343B38"/>
<path d="M146.81 64.53C148.37 63.9872 149.784 63.0936 150.944 61.9182C152.103 60.7427 152.978 59.3167 153.5 57.75C154.426 54.71 154.516 51.4767 153.76 48.39C153.593 47.535 153.366 46.6929 153.08 45.87C152.907 45.0826 152.535 44.3526 152 43.75C151.69 43.49 151.09 43.62 151.12 44.11C151.245 44.7279 151.443 45.3287 151.71 45.9C151.925 46.5804 152.105 47.2713 152.25 47.97C152.558 49.4353 152.742 50.9239 152.8 52.42C152.882 53.7893 152.768 55.1632 152.46 56.5C152.073 57.9371 151.43 59.2923 150.56 60.5C149.511 61.9385 148.142 63.1129 146.56 63.93C146.49 63.9655 146.436 64.0261 146.409 64.0998C146.382 64.1734 146.384 64.2546 146.414 64.3269C146.445 64.3992 146.502 64.4572 146.573 64.4894C146.645 64.5215 146.726 64.5253 146.8 64.5L146.81 64.53Z" fill="#343B38"/>
<path d="M40.69 57.6299C40.6772 54.9536 41.051 52.2894 41.8 49.7199C42.4361 47.8823 43.4208 46.1846 44.7 44.7199C45.353 43.9835 46.0582 43.2951 46.81 42.6599C46.8716 42.5876 46.9175 42.5032 46.9445 42.4121C46.9715 42.321 46.9791 42.2253 46.9669 42.1311C46.9546 42.0369 46.9228 41.9463 46.8734 41.8651C46.8239 41.7839 46.7581 41.7141 46.68 41.6599C44.85 40.2999 43.07 38.8399 41.32 37.3799C39.85 36.1599 38.42 34.8899 37.06 33.5499C34.7627 31.2426 32.6993 28.7136 30.9 25.9999C29.82 24.3999 28.73 22.8399 27.73 21.1999C27.6965 21.1428 27.6521 21.0928 27.5993 21.0529C27.5465 21.0129 27.4864 20.9837 27.4223 20.967C27.3582 20.9503 27.2915 20.9464 27.2259 20.9554C27.1603 20.9645 27.0971 20.9864 27.04 21.0199C26.9829 21.0534 26.9329 21.0978 26.8929 21.1506C26.853 21.2034 26.8238 21.2636 26.8071 21.3276C26.7904 21.3917 26.7865 21.4584 26.7955 21.524C26.8046 21.5896 26.8265 21.6528 26.86 21.7099C27.28 22.5032 27.71 23.2932 28.15 24.0799C28.57 24.8299 28.91 25.5899 29.37 26.3199C30.24 27.6899 31.16 29.0299 32.15 30.3199C34.3828 33.1476 36.9179 35.7229 39.71 37.9999C40.64 38.7799 41.59 39.5399 42.55 40.2799C43.67 41.1399 44.85 41.8999 46 42.7099L45.87 41.6599C44.4441 42.9087 43.2227 44.3731 42.25 45.9999C41.0835 48.0279 40.3482 50.2747 40.09 52.5999C39.8947 54.284 39.935 55.987 40.21 57.6599C40.21 57.9499 40.68 57.8599 40.69 57.5999V57.6299Z" fill="#343B38"/>
<path d="M210.13 56C209.514 54.41 208.723 52.894 207.77 51.48C206.794 50.1476 205.688 48.915 204.47 47.8L204.33 48.8C205.969 48.0117 207.532 47.0744 209 46C210.459 44.9068 211.818 43.6853 213.06 42.35C215.676 39.5367 217.835 36.3312 219.46 32.85C219.96 31.85 220.37 30.74 220.77 29.65C221.258 28.5856 221.595 27.4579 221.77 26.3C221.77 26.1878 221.734 26.0786 221.666 25.9893C221.598 25.9 221.503 25.8355 221.395 25.8059C221.286 25.7763 221.171 25.7832 221.068 25.8255C220.964 25.8678 220.877 25.9432 220.82 26.04C220.355 26.941 219.97 27.8813 219.67 28.85C219.3 29.74 218.88 30.6 218.47 31.46C217.651 33.1841 216.722 34.8541 215.69 36.46C213.745 39.4883 211.332 42.1885 208.54 44.46C207.02 45.7065 205.382 46.8016 203.65 47.73C203.568 47.7811 203.499 47.8495 203.447 47.9302C203.395 48.0109 203.361 48.1021 203.347 48.1974C203.334 48.2927 203.342 48.3897 203.37 48.4817C203.398 48.5737 203.446 48.6584 203.51 48.73C205.945 50.8503 207.957 53.412 209.44 56.28C209.62 56.64 210.28 56.38 210.11 55.99L210.13 56Z" fill="#343B38"/>
<path d="M80.33 126.89C90 131.55 100.61 134.05 111.25 135.26C122.428 136.413 133.692 136.467 144.88 135.42C151.31 134.88 157.73 134.05 164.09 132.98C164.51 132.91 164.42 132.21 163.99 132.24C152.62 133.24 141.28 134.46 129.85 134.62C119.022 134.856 108.204 133.815 97.62 131.52C91.8149 130.211 86.1287 128.421 80.62 126.17C80.21 126 79.92 126.7 80.32 126.89H80.33Z" fill="#343B38"/>
<path d="M63 158.38C69.6514 161.302 76.4979 163.758 83.49 165.73C90.9426 167.821 98.5169 169.451 106.17 170.61C114.186 171.838 122.266 172.603 130.37 172.9C138.652 173.214 146.945 173.067 155.21 172.46C163.538 171.832 171.818 170.677 180 169C181 168.79 182 168.56 183 168.28C183.48 168.14 183.41 167.28 182.88 167.38C180.88 167.65 178.81 168.06 176.77 168.38C174.73 168.7 172.69 168.98 170.65 169.27C166.54 169.85 162.4 170.27 158.26 170.67C150.022 171.403 141.749 171.677 133.48 171.49C125.453 171.311 117.441 170.697 109.48 169.65C101.808 168.65 94.202 167.201 86.7 165.31C79.6615 163.555 72.7464 161.336 66 158.67L63.49 157.67C62.99 157.46 62.54 158.19 63.05 158.42L63 158.38Z" fill="#343B38"/>
<path d="M48.71 177.55C55.3515 181.827 62.3828 185.467 69.71 188.42C77.4027 191.507 85.3583 193.893 93.48 195.55C95.88 196.05 98.28 196.45 100.69 196.82C103.198 197.282 105.728 197.616 108.27 197.82C108.323 197.815 108.373 197.792 108.412 197.755C108.451 197.719 108.476 197.67 108.484 197.617C108.492 197.564 108.482 197.51 108.456 197.464C108.43 197.417 108.389 197.381 108.34 197.36C106.1 196.92 103.83 196.67 101.58 196.28C99.33 195.89 97.34 195.48 95.23 195.05C91.11 194.21 87.02 193.2 82.99 192.05C75.29 189.813 67.7905 186.937 60.57 183.45C56.62 181.53 52.75 179.45 48.99 177.17C48.933 177.149 48.8706 177.149 48.8135 177.17C48.7564 177.19 48.7083 177.23 48.6775 177.282C48.6466 177.334 48.635 177.396 48.6446 177.455C48.6542 177.515 48.6844 177.57 48.73 177.61L48.71 177.55Z" fill="#FF896D"/>
<path d="M74.57 183.13C80.76 185.04 87.02 186.74 93.34 188.19C99.66 189.64 106.09 190.84 112.53 191.78C118.97 192.72 125.37 193.42 131.82 193.86C138.27 194.3 144.82 194.52 151.25 194.45C157.68 194.38 164.25 194.06 170.67 193.38L173.13 193.11C173.43 193.11 173.45 192.6 173.13 192.62C166.69 193.04 160.26 193.31 153.81 193.37C147.36 193.43 140.81 193.28 134.37 192.9C127.93 192.52 121.51 191.9 115.12 191.07C108.73 190.24 102.26 189.14 95.89 187.83C89.52 186.52 83.29 185.04 77.09 183.27L74.72 182.59C74.6845 182.58 74.6475 182.577 74.6109 182.582C74.5744 182.586 74.5391 182.598 74.5071 182.616C74.475 182.634 74.4469 182.658 74.4242 182.687C74.4016 182.716 74.3848 182.75 74.375 182.785C74.3651 182.821 74.3624 182.858 74.3668 182.894C74.3713 182.931 74.3829 182.966 74.401 182.998C74.4191 183.03 74.4434 183.058 74.4724 183.081C74.5013 183.103 74.5345 183.12 74.57 183.13Z" fill="#FF896D"/>
<path d="M67.8 170.66C73.0297 172.865 78.4142 174.683 83.91 176.1C90.276 177.725 96.7299 178.984 103.24 179.87C105.24 180.14 107.16 180.32 109.12 180.52C111.08 180.72 113.34 180.99 115.44 181.05C115.62 181.05 115.67 180.76 115.44 180.73C111.82 180.16 108.14 179.98 104.54 179.31C101.21 178.7 97.85 178.31 94.54 177.67C88.5131 176.576 82.5561 175.126 76.7 173.33C73.7 172.41 70.82 171.41 67.94 170.26C67.71 170.17 67.54 170.56 67.77 170.66H67.8Z" fill="#FF896D"/>
<path d="M84.87 150.64C90.0264 152.609 95.308 154.233 100.68 155.5C106.436 156.886 112.275 157.904 118.16 158.55C124.28 159.28 130.44 159.7 136.6 159.87C142.76 160.04 149.06 159.94 155.27 159.55C158.27 159.36 161.35 159.11 164.37 158.79C167.39 158.47 170.27 158.13 173.17 157.57C173.88 157.44 174.58 157.3 175.28 157.15C175.62 157.08 175.55 156.5 175.2 156.54C169.3 157.2 163.39 157.9 157.46 158.29C151.32 158.697 145.167 158.867 139 158.8C132.833 158.733 126.693 158.4 120.58 157.8C114.654 157.227 108.763 156.343 102.93 155.15C97.4845 154.055 92.1164 152.605 86.86 150.81C86.24 150.6 85.62 150.38 85.01 150.15C84.69 150.03 84.56 150.53 84.87 150.66V150.64Z" fill="#FF896D"/>
<path d="M125.32 152.76C136.88 153.515 148.484 153.261 160 152C161.58 151.82 163.18 151.66 164.76 151.4C166.34 151.14 167.95 150.83 169.55 150.49C169.584 150.49 169.618 150.476 169.642 150.452C169.666 150.428 169.68 150.394 169.68 150.36C169.68 150.326 169.666 150.292 169.642 150.268C169.618 150.244 169.584 150.23 169.55 150.23L165.29 150.66C163.86 150.8 162.44 150.99 161.01 151.14C158.15 151.45 155.29 151.73 152.43 151.93C146.69 152.343 140.947 152.527 135.2 152.48C131.927 152.48 128.663 152.37 125.41 152.15C125.03 152.15 125.03 152.71 125.41 152.74L125.32 152.76Z" fill="#FF896D"/>
<path d="M139.7 147.13C145.08 147.13 150.45 147.07 155.83 146.75C161.21 146.43 166.42 145.93 171.69 145.23C173.17 145.03 174.64 144.82 176.11 144.58L178.24 144.22C179.019 144.127 179.789 143.966 180.54 143.74C180.619 143.713 180.686 143.66 180.73 143.59C180.774 143.519 180.792 143.436 180.781 143.353C180.771 143.271 180.732 143.195 180.672 143.137C180.611 143.08 180.533 143.046 180.45 143.04C179.137 143.132 177.831 143.309 176.54 143.57C175.21 143.77 173.87 143.95 172.54 144.13C169.92 144.503 167.293 144.837 164.66 145.13C159.37 145.68 154.07 146.13 148.75 146.34C145.75 146.47 142.75 146.58 139.7 146.58C139.623 146.58 139.549 146.611 139.495 146.665C139.441 146.719 139.41 146.793 139.41 146.87C139.41 146.947 139.441 147.021 139.495 147.075C139.549 147.129 139.623 147.16 139.7 147.16V147.13Z" fill="#FF896D"/>
<path d="M73.37 110C81.3745 115.962 90.4587 120.315 100.12 122.82C102.795 123.514 105.51 124.045 108.25 124.41C108.49 124.41 108.54 124.04 108.31 124C98.6418 122.068 89.3269 118.665 80.69 113.91C78.28 112.55 75.91 111.13 73.61 109.59C73.35 109.41 73.13 109.82 73.37 110Z" fill="#FF896D"/>
<path d="M85 112.89C91.4197 116.331 98.4029 118.597 105.62 119.58C105.94 119.58 106.08 119.15 105.75 119.09C102.25 118.35 98.75 117.52 95.33 116.45C91.8985 115.352 88.5555 113.995 85.33 112.39C85 112.23 84.71 112.71 85.04 112.89H85Z" fill="#FF896D"/>
<path d="M142.56 120C150.332 119.341 157.908 117.217 164.89 113.74C166.846 112.757 168.737 111.648 170.55 110.42C170.624 110.378 170.679 110.307 170.701 110.225C170.724 110.142 170.712 110.054 170.67 109.98C170.628 109.906 170.557 109.851 170.475 109.829C170.392 109.806 170.304 109.818 170.23 109.86C163.543 113.664 156.333 116.46 148.83 118.16C146.72 118.61 144.6 119.01 142.47 119.3C142.07 119.3 142.16 120.04 142.56 120Z" fill="#FF896D"/>
<path d="M157.23 122.39C159.076 122.294 160.909 122.036 162.71 121.62C164.535 121.237 166.338 120.753 168.11 120.17C171.651 119.007 175.062 117.482 178.29 115.62C179.18 115.1 180.05 114.51 180.89 113.92C181.32 113.62 181.7 113.26 182.11 112.92C182.54 112.608 182.954 112.274 183.35 111.92C183.382 111.879 183.4 111.829 183.4 111.777C183.399 111.725 183.382 111.674 183.349 111.634C183.317 111.593 183.271 111.565 183.221 111.553C183.17 111.542 183.117 111.548 183.07 111.57C181.47 112.45 179.94 113.47 178.32 114.32C176.7 115.17 175.15 116.07 173.5 116.83C170.185 118.371 166.733 119.6 163.19 120.5C161.19 121.01 159.19 121.35 157.14 121.78C157.069 121.806 157.008 121.855 156.969 121.92C156.93 121.985 156.914 122.062 156.924 122.137C156.935 122.212 156.971 122.281 157.027 122.333C157.083 122.384 157.154 122.415 157.23 122.42V122.39Z" fill="#FF896D"/>
<path d="M170.11 124.24C171.641 124.185 173.157 123.926 174.62 123.47C175.354 123.24 176.072 122.962 176.77 122.64C177.477 122.395 178.112 121.979 178.62 121.43C178.655 121.368 178.673 121.299 178.672 121.228C178.672 121.157 178.653 121.087 178.618 121.026C178.582 120.965 178.532 120.913 178.471 120.877C178.41 120.841 178.341 120.821 178.27 120.82C177.917 120.886 177.578 121.015 177.27 121.2L176.36 121.62C175.707 121.913 175.039 122.174 174.36 122.4C172.99 122.873 171.576 123.208 170.14 123.4C169.61 123.47 169.57 124.29 170.14 124.26L170.11 124.24Z" fill="#FF896D"/>
<path d="M81 135.45C80.1734 135.342 79.3343 135.507 78.61 135.92C78.2494 136.154 77.9569 136.478 77.762 136.861C77.5671 137.244 77.4767 137.671 77.5 138.1C77.5121 138.559 77.6439 139.008 77.8824 139.401C78.1209 139.794 78.4579 140.117 78.86 140.34C79.5086 140.819 80.3198 141.022 81.1174 140.906C81.9151 140.79 82.6347 140.364 83.12 139.72C83.3917 139.299 83.5478 138.814 83.5723 138.314C83.5969 137.813 83.4892 137.315 83.26 136.87C83.0062 136.486 82.6733 136.161 82.2835 135.916C81.8937 135.671 81.4561 135.512 81 135.45Z" fill="#7391ED"/>
<path d="M182.64 132.69C181.81 132.573 180.965 132.739 180.24 133.16C179.882 133.393 179.591 133.716 179.396 134.097C179.201 134.478 179.11 134.903 179.13 135.33C179.142 135.791 179.275 136.24 179.515 136.633C179.756 137.026 180.095 137.349 180.5 137.57C181.149 138.049 181.96 138.252 182.757 138.136C183.555 138.02 184.275 137.594 184.76 136.95C185.028 136.529 185.182 136.046 185.204 135.547C185.227 135.049 185.119 134.553 184.89 134.11C184.641 133.723 184.311 133.396 183.922 133.151C183.534 132.905 183.096 132.748 182.64 132.69Z" fill="#7391ED"/>
<path d="M169.93 121.47C169.104 121.353 168.263 121.515 167.54 121.93C167.182 122.166 166.891 122.491 166.696 122.873C166.502 123.255 166.41 123.682 166.43 124.11C166.442 124.569 166.574 125.018 166.812 125.411C167.051 125.804 167.388 126.127 167.79 126.35C168.439 126.829 169.25 127.032 170.047 126.916C170.845 126.8 171.565 126.374 172.05 125.73C172.322 125.311 172.478 124.828 172.503 124.329C172.527 123.83 172.419 123.334 172.19 122.89C171.939 122.503 171.607 122.176 171.217 121.931C170.826 121.685 170.387 121.528 169.93 121.47Z" fill="#7391ED"/>
<path d="M87.72 88.2599C86.8912 88.144 86.0473 88.3058 85.32 88.7199C84.9616 88.9556 84.6708 89.2806 84.4762 89.6628C84.2815 90.0451 84.1898 90.4714 84.21 90.8999C84.2241 91.3601 84.3578 91.8087 84.5981 92.2015C84.8383 92.5943 85.1767 92.9177 85.58 93.1399C86.2286 93.6184 87.0398 93.8218 87.8375 93.7057C88.6351 93.5896 89.3547 93.1635 89.84 92.5199C90.115 92.1028 90.2747 91.6203 90.3028 91.1214C90.3309 90.6226 90.2264 90.1253 90 89.6799C89.7481 89.2898 89.4131 88.9602 89.019 88.7147C88.6248 88.4692 88.1812 88.3139 87.72 88.2599Z" fill="#7391ED"/>
<path d="M65.34 144.78C64.5132 144.667 63.6724 144.832 62.95 145.25C62.589 145.484 62.2957 145.808 62.0992 146.191C61.9026 146.573 61.8098 147 61.83 147.43C61.8458 147.888 61.9803 148.335 62.2205 148.726C62.4606 149.117 62.7981 149.439 63.2 149.66C63.8473 150.14 64.6578 150.345 65.4553 150.23C66.2529 150.116 66.9732 149.692 67.46 149.05C67.7302 148.628 67.8844 148.143 67.9073 147.642C67.9301 147.142 67.8206 146.645 67.59 146.2C67.3407 145.814 67.0103 145.487 66.6217 145.242C66.2331 144.996 65.7957 144.839 65.34 144.78Z" fill="#7391ED"/>
<path d="M181.35 189.45C180.523 189.332 179.681 189.498 178.96 189.92C178.598 190.151 178.304 190.473 178.108 190.854C177.911 191.235 177.819 191.662 177.84 192.09C177.854 192.55 177.988 192.999 178.228 193.392C178.468 193.784 178.807 194.108 179.21 194.33C179.858 194.811 180.67 195.016 181.468 194.9C182.266 194.784 182.986 194.356 183.47 193.71C183.74 193.29 183.895 192.806 183.918 192.307C183.94 191.809 183.831 191.313 183.6 190.87C183.35 190.485 183.019 190.158 182.631 189.913C182.242 189.668 181.805 189.51 181.35 189.45Z" fill="#7391ED"/>
<path d="M132.68 154.92C131.85 154.807 131.006 154.972 130.28 155.39C129.921 155.625 129.63 155.95 129.435 156.332C129.24 156.715 129.149 157.141 129.17 157.57C129.183 158.029 129.316 158.477 129.557 158.868C129.797 159.26 130.136 159.581 130.54 159.8C130.857 160.044 131.22 160.221 131.607 160.323C131.994 160.424 132.397 160.447 132.794 160.39C133.19 160.333 133.57 160.198 133.913 159.992C134.256 159.786 134.554 159.513 134.79 159.19C135.062 158.769 135.218 158.284 135.242 157.784C135.267 157.283 135.159 156.785 134.93 156.34C134.68 155.955 134.349 155.629 133.961 155.383C133.572 155.138 133.135 154.98 132.68 154.92Z" fill="#7391ED"/>
<path d="M61.66 194.92C62.11 200.55 62.76 206.17 63.49 211.77C64.25 217.67 65.0933 223.56 66.02 229.44C66.26 231 66.51 232.55 66.77 234.11C66.9581 235.622 67.2521 237.119 67.65 238.59C67.6712 238.686 67.7278 238.771 67.8087 238.827C67.8896 238.883 67.9886 238.906 68.086 238.892C68.1834 238.878 68.272 238.828 68.3339 238.752C68.3958 238.675 68.4266 238.578 68.42 238.48C68.316 237.16 68.1323 235.848 67.87 234.55C67.65 233.17 67.42 231.79 67.2 230.41C66.74 227.53 66.2933 224.643 65.86 221.75C64.96 215.863 64.11 209.967 63.31 204.06C62.9 200.99 62.46 197.93 62.02 194.87C62.02 194.66 61.64 194.71 61.66 194.87V194.92Z" fill="#7391ED"/>
<path d="M70 200.78C70.38 205.64 71.07 210.51 71.75 215.34C72.48 220.48 73.32 225.62 74.41 230.69C74.9255 233.352 75.6238 235.975 76.5 238.54C76.5265 238.633 76.5888 238.711 76.6732 238.758C76.7576 238.805 76.8572 238.817 76.95 238.79C77.0428 238.764 77.1213 238.701 77.1682 238.617C77.2151 238.532 77.2265 238.433 77.2 238.34C76.64 236.02 75.98 233.73 75.46 231.4C74.94 229.07 74.4 226.47 73.94 223.99C73 218.88 72.21 213.74 71.48 208.6C71.11 205.98 70.78 203.34 70.32 200.73C70.32 200.55 69.98 200.59 70 200.78Z" fill="#7391ED"/>
<path d="M80.75 205.15C81.13 209.41 81.87 213.67 82.53 217.89C83.23 222.36 83.98 226.82 84.84 231.26C85.08 232.49 85.32 233.72 85.58 234.95C85.7389 236.214 86.0755 237.45 86.58 238.62C86.6123 238.666 86.658 238.7 86.7108 238.719C86.7636 238.737 86.8208 238.739 86.8746 238.724C86.9284 238.708 86.9761 238.677 87.0111 238.633C87.0461 238.589 87.0667 238.536 87.07 238.48C87.0221 237.396 86.8442 236.322 86.54 235.28C86.31 234.17 86.08 233.07 85.86 231.96C85.41 229.74 85 227.51 84.6 225.28C83.82 220.907 83.08 216.533 82.38 212.16C81.99 209.8 81.65 207.43 81.13 205.1C81.1164 205.06 81.0894 205.027 81.0537 205.005C81.018 204.983 80.9758 204.974 80.9343 204.98C80.8929 204.986 80.8548 205.006 80.8267 205.037C80.7985 205.068 80.782 205.108 80.78 205.15H80.75Z" fill="#7391ED"/>
<path d="M90.75 210.22C91.75 217.78 92.64 225.34 93.91 232.86C94.09 233.86 94.27 234.86 94.46 235.86C94.5985 236.768 94.84 237.657 95.18 238.51C95.24 238.65 95.46 238.57 95.46 238.43C95.4503 237.64 95.3598 236.852 95.19 236.08C95.03 235.18 94.88 234.28 94.72 233.39C94.38 231.48 94.07 229.58 93.72 227.67C93.09 223.74 92.53 219.79 91.88 215.86C91.5666 213.967 91.2666 212.07 90.98 210.17C90.98 210.02 90.69 210.06 90.71 210.17L90.75 210.22Z" fill="#7391ED"/>
<path d="M101.74 206.4C101.633 208.364 101.717 210.333 101.99 212.28C102.19 214.44 102.42 216.6 102.68 218.76C103.2 223.24 103.84 227.7 104.56 232.16C104.74 233.31 104.94 234.46 105.14 235.6C105.24 236.14 105.34 236.68 105.45 237.21C105.519 237.711 105.667 238.197 105.89 238.65C105.923 238.705 105.972 238.749 106.03 238.777C106.088 238.805 106.153 238.815 106.216 238.807C106.28 238.798 106.34 238.771 106.388 238.729C106.437 238.687 106.472 238.632 106.49 238.57C106.539 237.642 106.448 236.711 106.22 235.81C106.06 234.81 105.89 233.81 105.73 232.76C105.39 230.61 105.05 228.46 104.73 226.31C104.07 221.84 103.41 217.36 102.89 212.87C102.75 211.72 102.61 210.57 102.49 209.42C102.407 208.391 102.253 207.368 102.03 206.36C102.03 206.19 101.76 206.25 101.74 206.36V206.4Z" fill="#7391ED"/>
<path d="M111.54 207.67C111.525 209.356 111.605 211.042 111.78 212.72C111.98 214.92 112.21 217.117 112.47 219.31C113.03 223.87 113.64 228.41 114.13 232.97C114.24 233.97 114.34 235.04 114.42 236.08C114.455 236.915 114.545 237.747 114.69 238.57C114.708 238.639 114.748 238.7 114.804 238.743C114.86 238.787 114.929 238.811 115 238.811C115.071 238.811 115.14 238.787 115.196 238.743C115.252 238.7 115.292 238.639 115.31 238.57C115.498 236.965 115.451 235.341 115.17 233.75C114.96 231.58 114.68 229.43 114.4 227.28C113.793 222.687 113.177 218.103 112.55 213.53C112.29 211.59 112.09 209.63 112.02 207.67C112.02 207.606 111.995 207.545 111.95 207.5C111.905 207.455 111.844 207.43 111.78 207.43C111.716 207.43 111.655 207.455 111.61 207.5C111.565 207.545 111.54 207.606 111.54 207.67Z" fill="#7391ED"/>
<path d="M123.93 209.3C123.84 210.25 123.87 211.23 123.86 212.19C123.86 214.19 123.86 216.13 123.86 218.1C123.86 222.93 123.95 227.75 123.86 232.57C123.86 233.69 123.86 234.81 123.8 235.93C123.75 236.779 123.75 237.631 123.8 238.48C123.8 238.86 124.39 238.99 124.5 238.58C124.645 237.842 124.715 237.092 124.71 236.34C124.71 235.34 124.71 234.41 124.77 233.44C124.77 231.11 124.77 228.78 124.77 226.44C124.723 221.893 124.62 217.343 124.46 212.79C124.46 211.62 124.34 210.45 124.33 209.29C124.33 209.24 124.31 209.191 124.274 209.156C124.239 209.12 124.19 209.1 124.14 209.1C124.09 209.1 124.041 209.12 124.006 209.156C123.97 209.191 123.95 209.24 123.95 209.29L123.93 209.3Z" fill="#7391ED"/>
<path d="M134.81 209.3C134.66 217.01 134.26 224.74 133.81 232.44C133.68 234.44 133.56 236.44 133.47 238.44C133.47 238.87 134.08 238.85 134.12 238.44C134.54 234.73 134.7 231 134.86 227.27C135.04 223.27 135.163 219.27 135.23 215.27C135.23 213.27 135.23 211.27 135.23 209.27C135.237 209.241 135.237 209.21 135.23 209.181C135.223 209.152 135.21 209.124 135.191 209.101C135.173 209.077 135.149 209.058 135.122 209.045C135.095 209.032 135.065 209.026 135.035 209.026C135.005 209.026 134.975 209.032 134.948 209.045C134.921 209.058 134.897 209.077 134.879 209.101C134.86 209.124 134.847 209.152 134.84 209.181C134.833 209.21 134.833 209.241 134.84 209.27L134.81 209.3Z" fill="#7391ED"/>
<path d="M143.92 210.86C142.75 218.22 142.09 225.63 141.42 233.04C141.34 233.97 141.24 234.9 141.17 235.83C141.17 236.27 141.1 236.7 141.07 237.14C141.045 237.573 141.045 238.007 141.07 238.44C141.07 238.63 141.37 238.68 141.41 238.49C141.592 237.776 141.729 237.051 141.82 236.32C141.92 235.51 142.01 234.69 142.1 233.87C142.27 232.09 142.44 230.31 142.6 228.52C142.94 224.69 143.25 220.85 143.6 217.02C143.8 215.02 143.99 212.95 144.25 210.91C144.25 210.7 143.91 210.65 143.87 210.91L143.92 210.86Z" fill="#7391ED"/>
<path d="M152.29 212.35C151.75 215.75 151.39 219.18 150.89 222.59C150.39 226 149.82 229.41 149.2 232.81C149.03 233.74 148.85 234.67 148.67 235.59C148.421 236.538 148.25 237.504 148.16 238.48C148.16 238.93 148.73 238.94 148.88 238.58C149.15 237.776 149.344 236.949 149.46 236.11L149.97 233.52C150.29 231.83 150.59 230.13 150.88 228.43C151.43 225.05 151.97 221.66 152.3 218.25C152.48 216.31 152.74 214.37 152.82 212.42C152.82 212.13 152.34 212.05 152.29 212.35Z" fill="#7391ED"/>
<path d="M162.19 209.3C161.41 217.09 160.19 224.88 158.77 232.58C158.58 233.58 158.38 234.58 158.18 235.58C157.928 236.514 157.754 237.467 157.66 238.43C157.66 238.72 158.11 238.87 158.24 238.59C158.548 237.8 158.77 236.978 158.9 236.14C159.1 235.22 159.29 234.29 159.47 233.37C159.863 231.423 160.217 229.463 160.53 227.49C161.197 223.437 161.77 219.37 162.25 215.29C162.47 213.29 162.64 211.29 162.78 209.29C162.78 208.91 162.22 208.92 162.19 209.29V209.3Z" fill="#7391ED"/>
<path d="M171.11 209.3C171.06 210.61 170.88 211.91 170.74 213.21C170.51 215.28 170.26 217.34 170.01 219.4C169.46 224 168.85 228.59 168.13 233.17C167.86 234.9 167.52 236.63 167.27 238.36C167.262 238.431 167.28 238.502 167.319 238.561C167.359 238.62 167.419 238.663 167.487 238.682C167.556 238.701 167.629 238.695 167.693 238.666C167.758 238.636 167.81 238.584 167.84 238.52C168.278 237.066 168.593 235.577 168.78 234.07C169.14 231.9 169.46 229.73 169.78 227.55C170.41 223.04 171.04 218.5 171.37 213.95C171.516 212.404 171.583 210.852 171.57 209.3C171.559 209.248 171.531 209.202 171.49 209.169C171.449 209.136 171.398 209.118 171.345 209.118C171.292 209.118 171.241 209.136 171.2 209.169C171.159 209.202 171.131 209.248 171.12 209.3H171.11Z" fill="#7391ED"/>
<path d="M181.52 206.33C180.545 209.781 179.794 213.292 179.27 216.84C178.4 221.65 177.58 226.48 176.64 231.28C176.17 233.64 175.64 235.99 175.15 238.36C175.143 238.433 175.162 238.506 175.203 238.566C175.245 238.627 175.307 238.67 175.377 238.689C175.448 238.708 175.523 238.702 175.59 238.671C175.656 238.64 175.709 238.587 175.74 238.52C176.354 236.513 176.855 234.473 177.24 232.41C177.74 230 178.19 227.59 178.64 225.18C179.48 220.63 180.23 216.07 181.06 211.52C181.37 209.84 181.66 208.14 182.06 206.52C182.066 206.453 182.047 206.385 182.008 206.33C181.97 206.275 181.913 206.235 181.847 206.217C181.782 206.199 181.713 206.205 181.651 206.233C181.589 206.261 181.54 206.309 181.51 206.37L181.52 206.33Z" fill="#7391ED"/>
<path d="M190.34 204C189.759 206.05 189.289 208.13 188.93 210.23C188.44 212.55 187.93 214.87 187.51 217.23C187.09 219.59 186.51 222.04 186.02 224.44C185.53 226.84 185.02 229 184.49 231.29C183.96 233.58 183.33 236.03 182.75 238.4C182.75 238.55 182.93 238.6 182.98 238.46C184.502 234.224 185.699 229.878 186.56 225.46C187.63 220.73 188.56 215.98 189.5 211.23C189.96 208.87 190.57 206.5 190.86 204.12C190.86 203.82 190.43 203.78 190.34 204.05V204Z" fill="#7391ED"/>
<path d="M53.58 191C53.65 192.17 53.81 193.32 53.97 194.49C54.09 195.36 54.31 196.27 55.3 196.49C56.2778 196.57 57.2616 196.447 58.19 196.13C59.3428 195.941 60.4572 195.566 61.49 195.02C61.69 194.9 61.55 194.64 61.34 194.67C60.3599 194.877 59.3918 195.138 58.44 195.45C57.5544 195.742 56.6319 195.907 55.7 195.94C54.65 195.89 54.61 194.87 54.5 194.05C54.35 193.05 54.19 191.98 53.97 190.96C53.9557 190.916 53.9263 190.878 53.8869 190.853C53.8475 190.828 53.8005 190.817 53.7543 190.823C53.708 190.829 53.6652 190.851 53.6334 190.885C53.6016 190.919 53.5827 190.963 53.58 191.01V191Z" fill="#7391ED"/>
<path d="M61.54 195.91C61.9227 196.847 62.3774 197.753 62.9 198.62C63.317 199.433 63.868 200.17 64.53 200.8C64.8876 201.048 65.3044 201.197 65.7381 201.232C66.1719 201.267 66.6072 201.187 67 201L68.54 200.5C69.1 200.386 69.6372 200.18 70.13 199.89C70.1828 199.855 70.2232 199.805 70.2455 199.746C70.2678 199.686 70.2708 199.622 70.2542 199.561C70.2376 199.5 70.2021 199.446 70.1529 199.406C70.1036 199.366 70.0431 199.343 69.98 199.34C69.5209 199.379 69.0713 199.493 68.65 199.68L67.27 200.14C66.8397 200.316 66.3946 200.453 65.94 200.55C65.7272 200.576 65.5112 200.552 65.3097 200.479C65.1081 200.406 64.9266 200.287 64.78 200.13C64.2252 199.516 63.7359 198.846 63.32 198.13C62.82 197.357 62.35 196.567 61.91 195.76C61.8 195.55 61.42 195.7 61.52 195.93L61.54 195.91Z" fill="#7391ED"/>
<path d="M70 198.6C70.3427 199.832 70.9199 200.987 71.7 202C72.3725 203.019 73.3045 203.841 74.4 204.38C74.8508 204.488 75.3193 204.502 75.7755 204.419C76.2318 204.336 76.6658 204.16 77.05 203.9C77.4744 203.659 77.9117 203.442 78.36 203.25C78.8192 203.092 79.3054 203.027 79.79 203.06C79.8502 203.056 79.9074 203.032 79.9538 202.994C80.0002 202.955 80.0334 202.903 80.0488 202.845C80.0642 202.787 80.061 202.725 80.0397 202.668C80.0184 202.612 79.9801 202.564 79.93 202.53C79.21 202.06 78.22 202.46 77.53 202.8C76.806 203.333 75.9605 203.677 75.07 203.8C74.4952 203.709 73.9692 203.423 73.58 202.99C73.1414 202.598 72.7367 202.17 72.37 201.71C71.5989 200.753 70.9722 199.689 70.51 198.55C70.39 198.27 69.94 198.37 70.03 198.68L70 198.6Z" fill="#7391ED"/>
<path d="M79.75 203C80.68 203.29 81.17 204.22 81.75 205C81.988 205.415 82.3103 205.775 82.6961 206.057C83.082 206.34 83.5227 206.538 83.99 206.64C85.2882 206.736 86.593 206.593 87.84 206.22C88.5153 206.07 89.1828 205.886 89.84 205.67C90.5128 205.494 91.1563 205.222 91.75 204.86C91.7932 204.828 91.8244 204.782 91.8386 204.731C91.8529 204.679 91.8494 204.624 91.8286 204.574C91.8079 204.525 91.7711 204.484 91.7243 204.458C91.6774 204.431 91.6231 204.422 91.57 204.43C90.9213 204.597 90.2834 204.804 89.66 205.05C89.03 205.26 88.38 205.44 87.73 205.59C87.08 205.74 86.42 205.86 85.73 205.96C85.0706 206.099 84.3894 206.099 83.73 205.96C82.01 205.44 81.73 202.96 79.88 202.68C79.8358 202.676 79.7916 202.688 79.7552 202.713C79.7187 202.738 79.6922 202.776 79.6803 202.818C79.6685 202.861 79.6719 202.907 79.6901 202.947C79.7083 202.988 79.7401 203.02 79.78 203.04L79.75 203Z" fill="#7391ED"/>
<path d="M91.18 204.53C91.53 206.2 92.63 208.23 94.62 207.96C95.213 207.843 95.7951 207.675 96.36 207.46L98.3 206.82C99.58 206.39 100.92 206.03 102.16 205.5C102.49 205.36 102.25 204.86 101.92 204.94C100.79 205.2 99.68 205.64 98.58 206C97.48 206.36 96.37 206.74 95.25 207.09C94.8403 207.288 94.3752 207.341 93.9316 207.239C93.4879 207.137 93.0923 206.887 92.81 206.53C92.3207 205.857 91.9394 205.111 91.68 204.32C91.55 204.02 91.12 204.24 91.18 204.53Z" fill="#7391ED"/>
<path d="M102 205C101.66 206.77 103.38 208.54 105 208.92C106.013 209.098 107.056 208.977 108 208.57L109.55 207.95C110.074 207.79 110.581 207.576 111.06 207.31C111.17 207.24 111.17 207.03 111.06 207C110.149 206.993 109.253 207.235 108.47 207.7C107.606 208.127 106.654 208.35 105.69 208.35C104.854 208.276 104.073 207.903 103.49 207.3C102.923 206.649 102.548 205.852 102.41 205C102.401 204.961 102.378 204.926 102.346 204.901C102.315 204.876 102.275 204.862 102.235 204.862C102.195 204.862 102.155 204.876 102.124 204.901C102.092 204.926 102.069 204.961 102.06 205H102Z" fill="#7391ED"/>
<path d="M112.3 207.93C113.24 208.55 114.3 209.06 115.23 209.61C116.019 210.179 116.902 210.602 117.84 210.86C118.84 210.862 119.826 210.618 120.71 210.15C121.665 209.758 122.585 209.287 123.46 208.74C123.78 208.54 123.46 208.03 123.16 208.23C122.33 208.751 121.457 209.2 120.55 209.57C119.701 210.049 118.734 210.278 117.76 210.23C116.882 209.91 116.049 209.48 115.28 208.95C114.38 208.46 113.49 207.95 112.56 207.49C112.503 207.469 112.441 207.469 112.384 207.49C112.326 207.51 112.278 207.55 112.247 207.602C112.217 207.654 112.205 207.716 112.215 207.776C112.224 207.835 112.254 207.89 112.3 207.93Z" fill="#7391ED"/>
<path d="M124.78 208.83C125.98 210.227 127.661 211.123 129.49 211.34C130.268 211.417 131.051 211.28 131.757 210.943C132.462 210.606 133.061 210.083 133.49 209.43C133.528 209.365 133.54 209.287 133.521 209.214C133.502 209.141 133.455 209.078 133.39 209.04C133.325 209.001 133.247 208.99 133.174 209.009C133.101 209.028 133.038 209.075 133 209.14C132.589 209.714 132.032 210.167 131.387 210.452C130.741 210.737 130.031 210.843 129.33 210.76C127.706 210.481 126.212 209.697 125.06 208.52C125.019 208.477 124.963 208.453 124.904 208.452C124.844 208.451 124.787 208.474 124.745 208.515C124.703 208.556 124.678 208.612 124.677 208.671C124.676 208.73 124.699 208.787 124.74 208.83H124.78Z" fill="#7391ED"/>
<path d="M136.42 209.25C137.346 210.448 138.6 211.352 140.03 211.85C140.683 212.044 141.377 212.044 142.03 211.85C142.756 211.658 143.392 211.22 143.83 210.61C143.844 210.583 143.851 210.552 143.848 210.521C143.845 210.49 143.834 210.461 143.815 210.437C143.795 210.412 143.77 210.394 143.741 210.384C143.711 210.374 143.68 210.372 143.65 210.38C143.01 210.56 142.53 211.11 141.88 211.32C141.262 211.519 140.598 211.519 139.98 211.32C138.721 210.788 137.569 210.033 136.58 209.09C136.568 209.077 136.553 209.068 136.536 209.061C136.52 209.054 136.503 209.051 136.485 209.051C136.467 209.051 136.45 209.054 136.434 209.061C136.417 209.068 136.402 209.077 136.39 209.09C136.378 209.102 136.368 209.117 136.361 209.133C136.354 209.15 136.351 209.167 136.351 209.185C136.351 209.203 136.354 209.22 136.361 209.236C136.368 209.253 136.378 209.267 136.39 209.28L136.42 209.25Z" fill="#7391ED"/>
<path d="M144.89 210C145.81 210.57 146.73 211.13 147.66 211.67C147.974 211.885 148.332 212.025 148.708 212.081C149.084 212.136 149.468 212.105 149.83 211.99C150.406 211.729 150.931 211.366 151.38 210.92C151.643 210.666 151.927 210.435 152.23 210.23C152.518 210.052 152.819 209.895 153.13 209.76C153.178 209.734 153.215 209.692 153.236 209.642C153.257 209.591 153.26 209.535 153.245 209.483C153.23 209.431 153.198 209.385 153.153 209.353C153.108 209.322 153.054 209.307 153 209.31C152.404 209.395 151.853 209.672 151.43 210.1C150.964 210.541 150.462 210.942 149.93 211.3C149.596 211.469 149.221 211.541 148.848 211.507C148.475 211.474 148.119 211.336 147.82 211.11C146.93 210.6 146.03 210.11 145.12 209.61C145.069 209.591 145.014 209.591 144.963 209.609C144.912 209.627 144.869 209.662 144.842 209.709C144.814 209.755 144.804 209.81 144.813 209.863C144.822 209.916 144.849 209.965 144.89 210Z" fill="#7391ED"/>
<path d="M153 210C154.74 210.08 156.13 211.85 157.95 211.34C158.647 211.084 159.281 210.681 159.81 210.16C160.37 209.601 161.09 209.23 161.87 209.1C161.99 209.1 162.07 208.92 161.94 208.85C160.54 208.12 159.24 210.15 158.13 210.69C157.691 210.839 157.224 210.887 156.764 210.832C156.303 210.777 155.861 210.619 155.47 210.37C154.706 209.957 153.865 209.706 153 209.63C152.958 209.64 152.921 209.663 152.894 209.697C152.868 209.73 152.853 209.772 152.853 209.815C152.853 209.858 152.868 209.899 152.894 209.933C152.921 209.967 152.958 209.99 153 210Z" fill="#7391ED"/>
<path d="M163.6 208.87C165.232 209.138 166.773 209.8 168.09 210.8C168.134 210.826 168.184 210.84 168.235 210.84C168.286 210.84 168.336 210.826 168.38 210.8L170 209.8C170.538 209.51 171.036 209.151 171.48 208.73C171.59 208.6 171.48 208.37 171.31 208.43C170.741 208.652 170.203 208.948 169.71 209.31L168.09 210.31H168.38C167 209.279 165.364 208.643 163.65 208.47C163.43 208.47 163.38 208.82 163.6 208.86V208.87Z" fill="#7391ED"/>
<path d="M171.64 208.64C172.64 208.88 173.64 209.09 174.69 209.31L176.17 209.61C176.55 209.715 176.95 209.715 177.33 209.61C178 209.36 178.43 208.61 178.99 208.19C179.327 207.932 179.693 207.714 180.08 207.54C180.482 207.41 180.87 207.243 181.24 207.04C181.33 206.97 181.34 206.79 181.24 206.77C180.519 206.756 179.815 206.985 179.24 207.42C178.638 207.829 178.081 208.302 177.58 208.83C177.4 208.992 177.178 209.1 176.939 209.142C176.701 209.185 176.455 209.16 176.23 209.07L174.74 208.78C173.74 208.58 172.74 208.39 171.74 208.22C171.49 208.22 171.37 208.56 171.63 208.62L171.64 208.64Z" fill="#7391ED"/>
<path d="M182.11 206.76C182.977 206.681 183.849 206.854 184.62 207.26C184.971 207.401 185.348 207.464 185.726 207.447C186.104 207.43 186.473 207.332 186.81 207.16C187.376 206.775 187.868 206.291 188.26 205.73C188.462 205.474 188.687 205.237 188.93 205.02C189.209 204.823 189.511 204.662 189.83 204.54C189.858 204.527 189.881 204.507 189.897 204.481C189.914 204.455 189.922 204.425 189.922 204.395C189.922 204.365 189.914 204.335 189.897 204.309C189.881 204.283 189.858 204.263 189.83 204.25C189.26 204.12 188.61 204.66 188.25 205.04C187.818 205.615 187.325 206.141 186.78 206.61C186.417 206.8 186.014 206.899 185.605 206.899C185.196 206.899 184.792 206.8 184.43 206.61C183.684 206.273 182.848 206.189 182.05 206.37C182.024 206.377 182 206.388 181.979 206.404C181.958 206.42 181.94 206.44 181.927 206.462C181.913 206.485 181.904 206.51 181.901 206.537C181.897 206.563 181.898 206.589 181.905 206.615C181.912 206.641 181.923 206.665 181.939 206.686C181.955 206.707 181.975 206.725 181.997 206.738C182.02 206.752 182.045 206.761 182.072 206.764C182.098 206.768 182.124 206.767 182.15 206.76H182.11Z" fill="#7391ED"/>
<path d="M190.61 203.63C191.056 203.807 191.53 203.901 192.01 203.91C192.506 203.912 193.001 203.848 193.48 203.72C193.945 203.604 194.39 203.418 194.8 203.17C195.001 203.045 195.195 202.908 195.38 202.76C195.568 202.608 195.731 202.425 195.86 202.22C195.876 202.195 195.884 202.165 195.881 202.135C195.878 202.106 195.864 202.078 195.843 202.057C195.822 202.036 195.794 202.023 195.765 202.019C195.735 202.016 195.705 202.024 195.68 202.04C195.5 202.154 195.327 202.278 195.16 202.41C194.98 202.53 194.8 202.65 194.61 202.76C194.212 202.973 193.793 203.144 193.36 203.27C192.484 203.465 191.576 203.465 190.7 203.27C190.659 203.258 190.615 203.263 190.577 203.284C190.54 203.304 190.512 203.339 190.5 203.38C190.488 203.421 190.493 203.465 190.514 203.503C190.534 203.54 190.569 203.568 190.61 203.58V203.63Z" fill="#7391ED"/>
<path d="M172.33 69.42C173.892 67.9411 175.141 66.1624 176 64.19C176.42 63.3327 176.771 62.4432 177.05 61.53C177.196 61.2026 177.271 60.8483 177.271 60.49C177.271 60.1317 177.196 59.7774 177.05 59.45C177.02 59.3981 176.977 59.3549 176.925 59.3249C176.874 59.2949 176.815 59.2791 176.755 59.2791C176.695 59.2791 176.636 59.2949 176.585 59.3249C176.533 59.3549 176.49 59.3981 176.46 59.45C176.169 60.0219 175.957 60.6308 175.83 61.26C175.56 62.0948 175.226 62.9073 174.83 63.69C173.965 65.4888 172.873 67.1692 171.58 68.69C171.497 68.7851 171.454 68.9078 171.458 69.0337C171.462 69.1596 171.513 69.2794 171.601 69.3691C171.69 69.4588 171.809 69.5118 171.935 69.5175C172.06 69.5233 172.184 69.4813 172.28 69.4L172.33 69.42Z" fill="#343B38"/>
<path d="M173.76 78C174.22 77.85 174.69 77.8 175.16 77.65C175.602 77.4891 176.033 77.2986 176.45 77.08C177.143 76.7407 177.811 76.3531 178.45 75.92C179.545 75.2112 180.44 74.2334 181.05 73.08C182.46 70.22 181.91 66.91 180.72 64.08C180.305 63.0435 179.767 62.06 179.12 61.15C178.585 60.2746 177.802 59.5783 176.87 59.15C176.783 59.1252 176.69 59.1242 176.602 59.147C176.514 59.1699 176.434 59.2158 176.37 59.28C176.306 59.3442 176.26 59.4244 176.237 59.5123C176.214 59.6003 176.215 59.6927 176.24 59.78C176.547 60.508 176.929 61.2018 177.38 61.85C177.84 62.6 178.29 63.36 178.69 64.15C179.439 65.4342 179.96 66.8383 180.23 68.3C180.415 69.4622 180.296 70.6525 179.884 71.7548C179.472 72.8572 178.782 73.834 177.88 74.59C177.281 75.0538 176.646 75.4685 175.98 75.83C175.58 76.05 175.17 76.25 174.77 76.48C174.37 76.71 173.92 77.11 173.45 77.37C172.98 77.63 173.34 78.14 173.72 78.01L173.76 78Z" fill="#343B38"/>
<path d="M87.49 65.8101C86.9142 65.2504 86.4134 64.6185 86 63.9301C85.4547 63.1504 84.9507 62.3426 84.49 61.5101C83.5725 59.8384 82.9884 58.0045 82.77 56.1101C82.77 55.6001 82.01 55.3001 81.77 55.8301C80.33 58.5301 79.01 61.3201 79.01 64.4601C78.9452 66.0333 79.2861 67.5967 80 69.0001C80.7089 70.174 81.6812 71.1668 82.84 71.9001C84.0153 72.7923 85.4658 73.2452 86.94 73.1801C87.4 73.1001 87.3 72.4701 86.94 72.3401C86.2879 72.1406 85.6525 71.8898 85.04 71.5901C84.3579 71.2327 83.7202 70.7963 83.14 70.2901C81.9397 69.3715 81.0781 68.0808 80.69 66.6201C79.86 63.1801 81.09 59.4401 82.69 56.4101L81.69 56.1301C81.9023 58.1839 82.5101 60.1773 83.48 62.0001C84.3268 63.7092 85.5551 65.201 87.07 66.3601C87.39 66.5901 87.78 66.0801 87.49 65.8201V65.8101Z" fill="#343B38"/>
<path d="M48.16 70.5C50.0153 71.9261 52.239 72.7934 54.57 73C57.1192 73.4844 59.7511 73.2878 62.2 72.43C62.2943 72.4019 62.3812 72.353 62.4542 72.2869C62.5272 72.2208 62.5845 72.1393 62.6219 72.0482C62.6593 71.9571 62.6759 71.8588 62.6703 71.7605C62.6648 71.6622 62.6374 71.5663 62.59 71.48C61.1047 69.0384 60.3644 66.2163 60.46 63.36C60.5609 62.2215 60.8657 61.1105 61.36 60.08C61.89 58.95 62.65 57.96 63.19 56.83C63.33 56.54 63.02 56.13 62.7 56.35C61.6419 57.1607 60.8032 58.2228 60.26 59.44C59.6759 60.6263 59.3037 61.9056 59.16 63.22C58.82 66.35 59.98 69.44 61.47 72.13L61.7 71.24C59.4538 72.025 57.0447 72.2247 54.7 71.82C53.5015 71.6716 52.3151 71.4377 51.15 71.12C50.2015 70.9138 49.2862 70.5772 48.43 70.12C48.19 69.98 47.92 70.31 48.13 70.5H48.16Z" fill="#343B38"/>
<path d="M210.19 70.25C208.883 72.0004 207.072 73.309 205 74C203.03 74.6563 200.931 74.8312 198.88 74.51L199.32 75.29C200.129 73.0325 200.47 70.6335 200.32 68.24C200.267 67.3069 200.133 66.3801 199.92 65.47C199.804 64.7664 199.564 64.0892 199.21 63.47C199.171 63.4172 199.116 63.379 199.053 63.3616C198.99 63.3441 198.923 63.3485 198.863 63.374C198.803 63.3995 198.753 63.4445 198.721 63.5019C198.69 63.5593 198.679 63.6255 198.69 63.69C198.81 64.32 199.01 64.94 199.1 65.59C199.224 66.5012 199.277 67.4206 199.26 68.34C199.258 70.6038 198.852 72.8491 198.06 74.97C198.019 75.1316 198.042 75.3027 198.124 75.4478C198.206 75.593 198.341 75.7012 198.5 75.75C203 76.48 208.5 75.05 210.94 70.92C211.22 70.44 210.5 69.84 210.14 70.3L210.19 70.25Z" fill="#343B38"/>
<path d="M70.81 79.3701C69.75 78.6701 68.65 78 67.66 77.2C66.6967 76.4412 65.8062 75.5942 65 74.6701C64.2769 73.8238 63.6088 72.9319 63 72.0001C62.74 71.6101 62.48 71.21 62.23 70.81C61.9847 70.4301 61.707 70.0721 61.4 69.74C61.2 69.51 60.9 69.74 60.93 70.02C60.9963 70.4757 61.1347 70.9179 61.34 71.3301C61.5617 71.7939 61.8157 72.2417 62.1 72.67C62.7402 73.6743 63.4663 74.6212 64.27 75.5001C65.9306 77.5181 68.088 79.069 70.53 80.0001C70.6119 80.0185 70.6978 80.0078 70.7726 79.9697C70.8475 79.9316 70.9067 79.8685 70.9399 79.7913C70.9731 79.7142 70.9783 79.6278 70.9546 79.5472C70.9309 79.4666 70.8797 79.3969 70.81 79.35V79.3701Z" fill="#343B38"/>
<path d="M188.4 86.55C190.538 85.8217 192.517 84.6914 194.23 83.22C195.837 81.6838 197.146 79.863 198.09 77.85C198.837 76.4846 199.35 75.0043 199.61 73.47C199.61 73.15 199.2 73.1 199.05 73.32C198.342 74.452 197.727 75.6392 197.21 76.87C196.727 77.8894 196.176 78.875 195.56 79.82C194.465 81.4663 193.063 82.8856 191.43 84C190.377 84.7202 189.274 85.3651 188.13 85.93C187.79 86.1 188.03 86.69 188.4 86.55Z" fill="#343B38"/>
</svg>
