<svg xmlns="http://www.w3.org/2000/svg" width="240" height="240" fill="none" xmlns:v="https://vecta.io/nano"><path d="M230 0H10C4.477 0 0 4.477 0 10v220a10 10 0 0 0 10 10h220a10 10 0 0 0 10-10V10a10 10 0 0 0-10-10z" fill="#9ae2c7"/><path d="M14.38 82.75c.06-11.91 11.93-33.41 29.88-49.44a82 82 0 0 1 53.8-20.6c24.07 0 35.91 10.86 41.35 25.1 7.11 18.59-8.63 43-43.73 42.44C77.6 80 53.13 69.12 42.14 69.17c-12.78.06-20.47 4.83-27.76 13.58zm214.01-8.68c-16 20.89-39.78 26-57.19 19.73-25.31-9.06-47.48-11-65.61-2-7.17 3.59-13.45 9.38-16 17a28.88 28.88 0 0 0 6.48 29.2c14.55 14.93 35.63 16.46 51.49 15.44 22.39-1.44 43.07-13.2 58.18-28.37 8.73-8.76 20.45-27 22.65-51z" fill="#ffe97b"/><g fill="#28c99b"><path d="M120.14 120.19c2.21-2.61 4.39-5.25 6.74-7.74 1.17-1.24 2.38-2.44 3.66-3.57.51-.45 1-1.12 1.74-1.18.866.132 1.706.398 2.49.79 5.75 2 11 4.94 16.3 7.82 2 1.11 3.86-2 1.82-3.11-6.06-3.29-12-6.6-18.67-8.68-1.73-.55-3.18-.62-4.68.52a37.64 37.64 0 0 0-4.08 3.7c-2.79 2.82-5.3 5.88-7.87 8.9-1.5 1.75 1 4.32 2.55 2.55z"/><path d="M119.7 115.94c.061 4.511.638 9 1.72 13.38.175.881.578 1.702 1.167 2.381a5.17 5.17 0 0 0 2.193 1.489c1.85.58 4 .28 5.92.21 4.68-.17 9.37-.5 14-1 1.8-.19 4.21-.09 5.69-1.3 1.64-1.34 1.3-3.36 1.05-5.21a112.8 112.8 0 0 0-2.95-14.34 1.81 1.81 0 0 0-.863-1.084c-.42-.233-.916-.289-1.377-.156s-.851.443-1.084.863a1.81 1.81 0 0 0-.156 1.377c1.163 4.233 2.078 8.53 2.74 12.87.07.48.63 2.51.33 2.89s-2.26.4-2.83.46a196.88 196.88 0 0 1-7.15.65c-2.387.173-4.773.303-7.16.39-1.1 0-2.2.09-3.31.1-.78 0-1.86.13-2.4-.55a6.64 6.64 0 0 1-.74-2.65c-.25-1.23-.46-2.47-.64-3.71a66.13 66.13 0 0 1-.57-7c-.08-2.31-3.69-2.32-3.61 0l.03-.06z"/><path d="M137.83 118.88c-.77-.53-3.47-.06-5 .18-.54.09-1.17.26-1.37.76a1.67 1.67 0 0 0 0 .94c.665 3.421 1.563 6.792 2.69 10.09a1.07 1.07 0 0 0 .28.5c.209.129.455.185.7.16h4.29c.177.023.357.011.529-.038a1.31 1.31 0 0 0 .471-.242 1.36 1.36 0 0 0 .24-.74c.34-4.01-2.05-11.09-2.83-11.61z"/></g><path d="M162.54 109a152.19 152.19 0 0 0-1.88 16.78c.003.476.193.933.53 1.27a1.81 1.81 0 0 0 1.27.53 1.83 1.83 0 0 0 1.8-1.8c.285-5.288.866-10.557 1.74-15.78a1.85 1.85 0 0 0-.186-1.362c-.234-.414-.619-.721-1.074-.858-.461-.123-.953-.06-1.368.175a1.82 1.82 0 0 0-.852 1.085l.02-.04zm-2.17 22.05l-.18.43-.07.48.07.48.18.44.28.36.37.28.22.1.22.09h.25.24.05l.48-.06.43-.19.37-.28.28-.37c.084-.137.148-.285.19-.44l.07-.48-.07-.48-.09-.21c.06.16-.06-.15-.1-.22-.113-.206-.274-.381-.47-.51-.169-.162-.381-.273-.61-.32a1.26 1.26 0 0 0-.72 0 1.35 1.35 0 0 0-.67.21l-.36.28a1.8 1.8 0 0 0-.47.8l-.06.48c-.003.321.084.636.25.91l-.18-.43-.07-.48.07-.48.19-.43.28-.37.36-.28.43-.18.48-.06H162l.47.06.44.18.37.28.28.37.19.43.07.48-.07.48-.18.43a1.92 1.92 0 0 0 .18-1.39c-.049-.229-.16-.439-.32-.61-.123-.198-.295-.36-.5-.47l-.43-.18c-.328-.085-.672-.085-1 0l-.43.18a1.84 1.84 0 0 0-.65.65l-.05.04z" fill="#28c99e"/><g fill="#28c99b"><path d="M110.87 36.32a3.86 3.86 0 0 1 4.12 2c.302.716.332 1.517.086 2.253a3.19 3.19 0 0 1-1.426 1.747c-.94.51-2 .78-3 1.26A6.18 6.18 0 0 0 108.1 46c-1.21 2-1.15 4.46-.93 6.7a1.83 1.83 0 0 0 3.07 1.206c.339-.314.546-.745.58-1.206-.2-2-.55-4.73 1.59-5.83 1.11-.57 2.37-.83 3.43-1.51a6.52 6.52 0 0 0 2.45-2.9 7 7 0 0 0 .481-3.81c-.198-1.29-.752-2.499-1.601-3.49a7.79 7.79 0 0 0-7.27-2.32 1.83 1.83 0 0 0-1.27 2.16c.135.462.444.853.862 1.091a1.86 1.86 0 0 0 1.378.188v.04zm-3.52 21.45l-.1.25a1.39 1.39 0 0 0 0 .73 1.31 1.31 0 0 0 .22.68c.11.208.272.384.47.51a1.38 1.38 0 0 0 .62.33l.48.06a1.74 1.74 0 0 0 .92-.25l.37-.28a1.84 1.84 0 0 0 .47-.81l.1-.25c.06-.24.06-.49 0-.73-.013-.242-.089-.476-.22-.68-.11-.208-.272-.384-.47-.51a1.27 1.27 0 0 0-.62-.32l-.48-.07a1.74 1.74 0 0 0-.92.25l-.37.28a1.75 1.75 0 0 0-.47.81zm-39-11.22c2.25-2.63 4.45-5.31 6.83-7.83 1.18-1.25 2.41-2.47 3.7-3.61.51-.46 1.05-1.14 1.76-1.2a8.65 8.65 0 0 1 2.53.8c5.81 2 11.12 5 16.49 7.92 2.07 1.12 3.91-2 1.85-3.15-6.14-3.34-12.21-6.69-18.9-8.79-1.76-.55-3.22-.63-4.74.53-1.467 1.158-2.847 2.421-4.13 3.78-2.82 2.86-5.37 6-8 9-1.52 1.78 1 4.37 2.58 2.58l.03-.03z"/><path d="M67.91 42.26c.064 4.564.645 9.106 1.73 13.54a5.24 5.24 0 0 0 3.41 3.91c1.87.59 4.07.28 6 .21 4.74-.173 9.477-.507 14.21-1 1.82-.19 4.26-.09 5.75-1.31 1.66-1.35 1.32-3.4 1.07-5.28-.685-4.896-1.687-9.743-3-14.51a1.83 1.83 0 0 0-2.25-1.226 1.83 1.83 0 0 0-1.27 2.226c1.175 4.276 2.1 8.617 2.77 13 .08.5.64 2.55.34 2.93s-2.29.41-2.87.47a218.9 218.9 0 0 1-7.23.66l-7.25.4c-1.12 0-2.23.08-3.35.09-.8 0-1.89.14-2.44-.56a6.73 6.73 0 0 1-.74-2.68c-.25-1.24-.47-2.5-.65-3.75a67.89 67.89 0 0 1-.58-7.11c-.08-2.35-3.73-2.36-3.65 0v-.01z"/><path d="M86.27 45.22c-.79-.53-3.52 0-5.11.19-.55.09-1.18.26-1.39.78a1.59 1.59 0 0 0 0 .94 76.55 76.55 0 0 0 2.72 10.22 1 1 0 0 0 .28.5 1 1 0 0 0 .71.16h4.34a1.4 1.4 0 0 0 1-.29 1.21 1.21 0 0 0 .24-.74c.4-4.05-2.01-11.22-2.79-11.76z"/></g><path d="M240 194.67c-26.85 12.44-61.13 15.2-83.55 12.72 1.45 4.3-2.88 9.34-7.55 8.8-.8 4.26-6.79 6.66-10.5 4.21-1 4.77-13.37 6.18-18.4 5.54-12.08-1.54-24.87-12.54-37-12.18-30.89.91-70.53-10.87-83-17.56v-63.53c18.78 16.65 53.44 35.55 82.5 39.11 1.59.343 3.213.514 4.84.51 1.695-.269 3.337-.798 4.87-1.57 5.62-2.46 12.41-4.68 17.68-1.6 1 .6 2.06 1.42 3.26 1.32a4.92 4.92 0 0 0 2-.83c4.12-2.42 9.47-4.91 13.82-2.81 11.67 5.64 26.58 5.37 37.07 4 25.84-3.44 59.39-21 73.95-41.34l.01 65.21z" fill="#ffe7e2"/><g fill="#343b38"><path d="M113.5 169.74a19.02 19.02 0 0 0-3.86 2 24.48 24.48 0 0 0-3.45 2.73c-1.092 1.023-2.096 2.137-3 3.33-.468.556-.81 1.208-1 1.91-.143.806-.035 1.637.31 2.38 1 2.41 3.51 3.8 6 4.34a17.5 17.5 0 0 0 9.07-.62c3.355-1.247 6.532-2.928 9.45-5 .85-.56.06-1.93-.8-1.38-2.386 1.66-4.92 3.097-7.57 4.29-2.619 1.121-5.467 1.604-8.31 1.41a8.18 8.18 0 0 1-3.175-.74c-.998-.457-1.894-1.11-2.635-1.92-.377-.463-.65-1.002-.8-1.58a2.2 2.2 0 0 1 .003-.956c.07-.314.209-.609.407-.864.754-1.08 1.612-2.085 2.56-3 1.055-1.045 2.188-2.008 3.39-2.88 1.26-.92 2.6-1.65 3.92-2.46.55-.33.2-1.3-.45-1.07l-.06.08z"/><path d="M124.49 181.89a30.56 30.56 0 0 0 3.65 1.62l3.61 1.79 6.83 3.94c4.34 2.65 8.62 5.62 11.86 9.59a22.7 22.7 0 0 1 2.21 3.22c.33.57.63 1.16.9 1.75s.43 1.53.92 2c.099.095.221.163.354.197a.79.79 0 0 0 .756-.201c.099-.095.171-.215.21-.346a3.27 3.27 0 0 0-.45-1.82c-.27-.63-.55-1.24-.87-1.84a24.3 24.3 0 0 0-1.94-3.06 32.03 32.03 0 0 0-5.31-5.53 57.71 57.71 0 0 0-6.73-4.67c-2.35-1.43-4.74-2.79-7.19-4a52.23 52.23 0 0 0-4.17-1.9c-1.403-.689-2.91-1.145-4.46-1.35-.078.004-.152.033-.213.083a.37.37 0 0 0-.111.42c.028.073.078.135.144.177v-.07zm13.7 37.24a2.57 2.57 0 0 0-1.2-1.38l-1.74-1.15a26.54 26.54 0 0 0-3.69-1.76l-3.9-1.38-2-.56c-.641-.231-1.319-.343-2-.33-.063.019-.121.055-.167.102s-.079.107-.096.171a.39.39 0 0 0-.001.195c.016.065.049.124.094.172a5.54 5.54 0 0 0 1.75.73c.63.24 1.29.41 1.94.61l3.82 1.34a34.71 34.71 0 0 1 3.64 1.73l1.64 1a3.39 3.39 0 0 0 1.68.81c.036-.002.07-.011.102-.028a.24.24 0 0 0 .079-.07c.021-.028.036-.061.042-.096s.006-.071-.003-.106h.01zm10.93-3.98a4.48 4.48 0 0 0-.49-2.14 14.52 14.52 0 0 0-1-1.88 14.7 14.7 0 0 0-2.81-3.33A28.37 28.37 0 0 0 141 205c-.637-.418-1.306-.785-2-1.1a5.77 5.77 0 0 0-2.17-.63c-.051.003-.099.021-.138.053s-.068.075-.081.124-.011.1.007.147.05.088.092.116c.62.41 1.33.69 2 1.11l1.75 1.17c1.263.822 2.472 1.724 3.62 2.7 1.035.916 1.94 1.969 2.69 3.13.365.554.699 1.129 1 1.72a9.36 9.36 0 0 0 1 1.75c.16.19.42 0 .44-.18l-.09.04z"/></g></svg>