<svg width="103" height="96" viewBox="0 0 103 96" fill="none" xmlns="http://www.w3.org/2000/svg">
<path d="M29.8142 13.744H27.7822V10.768H26.1342V18.08H27.7822V15.104H29.8142V13.744ZM24.2622 14.496C24.2622 12.592 22.6782 11.248 20.4862 11.248C18.2942 11.248 16.6782 12.592 16.6782 14.496C16.6782 16.4 18.2942 17.744 20.4862 17.744C22.6782 17.744 24.2622 16.4 24.2622 14.496ZM18.2782 14.496C18.2782 13.344 19.2062 12.592 20.4862 12.592C21.7662 12.592 22.6622 13.344 22.6622 14.496C22.6622 15.648 21.7662 16.416 20.4862 16.416C19.2062 16.416 18.2782 15.648 18.2782 14.496ZM20.1022 23.744V22.432H27.7822V18.704H18.4542V20H26.1502V21.232H18.4862V25.056H28.2622V23.744H20.1022ZM42.869 10.752H41.221V13.968H38.581V15.312H41.221V17.904H38.501V19.248H41.221V25.248H42.869V10.752ZM33.029 20.592V17.408H37.749V12.032H31.381V13.36H36.133V16.08H31.413V21.952H32.517C34.757 21.952 36.629 21.888 38.805 21.552L38.677 20.192C36.693 20.496 34.997 20.576 33.029 20.592ZM46.0197 16.56L46.6117 17.856C48.9957 17.488 50.9317 16.32 51.8277 14.72C52.7397 16.336 54.6757 17.472 57.0597 17.856L57.6517 16.56C54.9157 16.176 52.8517 14.64 52.7717 12.928H57.1397V11.6H46.4997V12.928H50.8997C50.8197 14.64 48.7557 16.176 46.0197 16.56ZM58.3558 20.24L58.3717 18.912H45.2997V20.24H50.9637V25.248H52.6117V20.24H58.3558ZM72.0345 10.784H70.4665V25.232H72.0345V10.784ZM67.5225 11.056V15.84H65.3945V17.184H67.5225V24.56H69.0745V11.056H67.5225ZM64.1305 14.64V12.112H62.5305V14.72C62.5305 17.184 61.5385 19.76 59.4905 20.992L60.4985 22.24C61.9065 21.392 62.8345 19.904 63.3465 18.096C63.8425 19.712 64.6745 21.104 66.0185 21.92L66.9465 20.64C65.0105 19.392 64.1305 16.992 64.1305 14.64ZM87.1853 22.112H84.0973V18.352C85.2493 17.696 85.9373 16.672 85.9373 15.392C85.9373 13.088 83.6973 11.616 80.6253 11.616C77.5373 11.616 75.3133 13.088 75.3133 15.392C75.3133 16.672 76.0013 17.712 77.1533 18.352V22.112H74.0973V23.456H87.1853V22.112ZM80.6253 12.912C82.8013 12.912 84.3213 13.872 84.3213 15.392C84.3213 16.928 82.8013 17.888 80.6253 17.888C78.4333 17.888 76.9133 16.928 76.9133 15.392C76.9133 13.872 78.4333 12.912 80.6253 12.912ZM78.8013 22.112V18.976C79.3613 19.104 79.9693 19.168 80.6253 19.168C81.2653 19.168 81.8893 19.104 82.4493 18.96V22.112H78.8013Z" fill="#9E9E9E"/>
<path d="M29.9102 63.2V61.472H27.9742V58.64H25.8622V66H27.9742V63.2H29.9102ZM24.3262 62.4C24.3262 60.464 22.6622 59.056 20.4062 59.056C18.1662 59.056 16.4862 60.464 16.4862 62.4C16.4862 64.368 18.1662 65.76 20.4062 65.76C22.6622 65.76 24.3262 64.368 24.3262 62.4ZM18.5182 62.4C18.5182 61.376 19.3022 60.752 20.4062 60.752C21.5102 60.752 22.2942 61.376 22.2942 62.4C22.2942 63.44 21.5102 64.064 20.4062 64.064C19.3022 64.064 18.5182 63.44 18.5182 62.4ZM28.3902 71.568H20.3582V70.608H27.9742V66.576H18.2462V68.208H25.8942V69.088H18.2622V73.2H28.3902V71.568ZM43.109 73.408V58.624H40.981V61.76H38.565V63.456H40.981V65.76H38.533V67.456H40.981V73.408H43.109ZM33.365 68.384V65.568H37.829V59.872H31.253V61.552H35.749V63.904H31.285V70.128H32.469C34.693 70.128 36.549 70.08 38.725 69.744L38.565 68.016C36.709 68.288 35.157 68.368 33.365 68.384ZM45.8117 64.288L46.5797 65.936C49.1557 65.568 50.9477 64.512 51.8437 62.976C52.7397 64.512 54.5317 65.568 57.1077 65.936L57.8597 64.288C54.8517 63.904 53.3158 62.496 53.1077 61.072H57.2837V59.392H46.3557V61.072H50.5957C50.3877 62.496 48.8357 63.904 45.8117 64.288ZM52.8517 68.464H58.4998V66.784H45.1877V68.464H50.7397V73.408H52.8517V68.464ZM72.2105 73.376V58.64H70.2105V73.376H72.2105ZM69.1865 58.88H67.2185V63.616H65.3785V65.328H67.2185V72.72H69.1865V58.88ZM64.2745 62.32V59.92H62.2425V62.4C62.2425 64.912 61.4585 67.552 59.2985 68.864L60.5625 70.448C61.9065 69.632 62.7545 68.272 63.2665 66.608C63.7305 68.096 64.4825 69.344 65.7625 70.112L66.9145 68.48C64.9145 67.152 64.2745 64.704 64.2745 62.32ZM87.3133 71.664V69.952H84.3533V66.352C85.4573 65.664 86.1293 64.608 86.1293 63.328C86.1293 60.912 83.8093 59.36 80.6253 59.36C77.4733 59.36 75.1373 60.912 75.1373 63.328C75.1213 64.608 75.7613 65.664 76.9133 66.352V69.952H73.9693V71.664H87.3133ZM80.6253 61.024C82.6733 61.024 84.0493 61.856 84.0493 63.328C84.0493 64.8 82.6733 65.632 80.6253 65.632C78.5773 65.632 77.2173 64.8 77.2173 63.328C77.2173 61.856 78.5773 61.024 80.6253 61.024ZM82.2573 69.952H79.0093V67.136C79.5213 67.232 80.0653 67.28 80.6253 67.28C81.2013 67.28 81.7453 67.232 82.2573 67.136V69.952Z" fill="#00B28F"/>
</svg>
