<svg xmlns="http://www.w3.org/2000/svg" width="246" height="160" fill="none" xmlns:v="https://vecta.io/nano"><path d="M44.571 158.204c8.815 0 17.433-2.608 24.762-7.494s13.042-11.831 16.416-19.957a44.37 44.37 0 0 0 2.536-25.692c-1.72-8.626-5.965-16.55-12.198-22.769s-14.175-10.454-22.821-12.17-17.608-.835-25.752 2.531A44.55 44.55 0 0 0 7.512 89.031 44.39 44.39 0 0 0 0 113.736c0 11.794 4.696 23.104 13.055 31.444a44.62 44.62 0 0 0 31.516 13.024zm0-84.198a40.02 40.02 0 0 1 22.2 6.719 39.89 39.89 0 0 1 14.718 17.892c3.024 7.285 3.816 15.301 2.274 23.035s-5.348 14.837-10.936 20.413a39.99 39.99 0 0 1-20.46 10.911c-7.751 1.538-15.786.749-23.088-2.269a39.94 39.94 0 0 1-17.934-14.684 39.8 39.8 0 0 1-6.734-22.149 39.82 39.82 0 0 1 11.704-28.191c7.494-7.477 17.658-11.677 28.256-11.677zm156.858 84.198c8.815 0 17.433-2.608 24.762-7.494a44.49 44.49 0 0 0 16.416-19.957 44.38 44.38 0 0 0 2.537-25.692 44.44 44.44 0 0 0-12.198-22.769 44.61 44.61 0 0 0-22.821-12.17c-8.646-1.716-17.608-.835-25.752 2.531a44.55 44.55 0 0 0-20.003 16.378 44.39 44.39 0 0 0-7.512 24.705c0 11.794 4.696 23.104 13.055 31.444a44.62 44.62 0 0 0 31.516 13.024h0zm-.445-83.416c21.993 0 41.204 16.653 41.204 38.595s-18.689 38.595-40.759 38.595-39.96-16.238-39.96-38.165a38.74 38.74 0 0 1 2.963-15.08c1.986-4.779 4.908-9.114 8.597-12.75a38.91 38.91 0 0 1 12.883-8.422 38.95 38.95 0 0 1 15.148-2.773h-.076z" fill="#8a9990"/><g fill="#c4f0e0"><path d="M43.28 114.487L84.147 7.365a2.72 2.72 0 0 1 .982-1.326c.457-.33 1.006-.509 1.57-.514l27.665-.981-.338-2.07-27.312-.782c-1.349.007-2.663.429-3.763 1.209a6.55 6.55 0 0 0-2.384 3.146L39.73 113.123l3.55 1.364zm101.836-.092l29.847-73.05-3.243-1.319-32.767 71.855 6.163 2.514z"/><path d="M143.702 115.683h58.403c.357 0 .707-.099 1.01-.286a1.92 1.92 0 0 0 .904-1.802 1.91 1.91 0 0 0-.377-.978L166.925 60.62a1.94 1.94 0 0 0-.604-.555c-.238-.14-.504-.228-.779-.258L68.808 47.233l-1.322 3.818-.2-.138-2.382 3.067 77.523 61.335c.366.274.819.405 1.275.368zm54.331-3.894l-53.055-1.534-69.285-55.048 86.268 9.446 36.072 47.137z"/></g><path d="M76.601 12.027a298.78 298.78 0 0 1-11.573 29.395 3.63 3.63 0 0 1-.595 1.302 3.64 3.64 0 0 1-1.052.972 3.65 3.65 0 0 1-2.779.426l-26.128-2.009a4.48 4.48 0 0 1-2.782-.859c-.495-.547-.84-1.212-.999-1.932a61.2 61.2 0 0 1-.784-33.336 4.46 4.46 0 0 1 .984-2.085c.532-.374 1.136-.632 1.775-.756a4.62 4.62 0 0 1 1.929.035c13.34 1.273 25.129 1.917 38.423 4.109 3.274.552 4.227 2.699 3.581 4.738zM117.867.68a1.63 1.63 0 0 1 1.12.443c.303.285.485.675.509 1.09.143 1.784-.029 3.58-.507 5.305a3.52 3.52 0 0 1-1.537 1.242c-1.983.629-12.296-.399-18.213-.782a1.98 1.98 0 0 1-.845-.169 2.06 2.06 0 0 1-.596-.588 2.05 2.05 0 0 1-.311-.776 13.54 13.54 0 0 1-.415-5.658 1.24 1.24 0 0 1 .154-.475c.215-.322.676-.322 1.076-.307 7.07.521 17.536.675 19.565.675zm64.612 30.667c1.537.199 3.658 1.027 3.658 2.99 0 2.576-2.951 5.827-5.211 6.824a12.21 12.21 0 0 1-6.608.353c-7.685-1.027-23.054-4.401-23.746-7.146-.261-1.089 2.014-2.055 5.164-2.469 5.502-.736 21.963-1.242 26.743-.552z" fill="#fff0b0"/><path d="M158.933 95.872c3.538-8.346 9.462-15.466 17.032-20.472a46.29 46.29 0 0 1 25.533-7.676c9.083 0 17.963 2.67 25.534 7.676a46.13 46.13 0 0 1 17.031 20.472L246 94.124c-7.685-18.232-24.591-30.208-44.571-30.208s-37.67 12.512-45.4 30.76l2.904 1.196zm-71.804 0l2.828-1.196c-2.863-6.764-7.209-12.803-12.717-17.673a49.32 49.32 0 0 0-19.115-10.469 49.4 49.4 0 0 0-21.772-1.216 49.35 49.35 0 0 0-20.167 8.275l1.783 2.515a46.26 46.26 0 0 1 18.907-7.762 46.3 46.3 0 0 1 20.413 1.139A46.23 46.23 0 0 1 75.208 79.3c5.164 4.566 9.237 10.229 11.921 16.572h0z" fill="#c4f0e0"/><path d="M134.589 108.185c1.459-1.365 3.253-2.322 5.201-2.774s3.982-.384 5.895.198c1.894.654 3.509 1.929 4.584 3.616s1.545 3.688 1.334 5.676c-.391 1.93-1.275 3.726-2.567 5.214a14.43 14.43 0 0 1-4.56 4.079 14.46 14.46 0 0 1-5.845 1.824c-4.119.123-8.422-2.806-8.884-6.9s1.799-8.035 4.842-10.933z" fill="#fff0b0"/></svg>