<svg xmlns="http://www.w3.org/2000/svg" xmlns:xlink="http://www.w3.org/1999/xlink" width="420" height="278" fill="none" xmlns:v="https://vecta.io/nano"><style><![CDATA[.B{color-interpolation-filters:sRGB}.C{flood-opacity:0}.D{fill-opacity:.3}.E{fill:#ffdd37}.F{fill-opacity:.2}.G{fill:#fff5d9}]]></style><g opacity=".1" filter="url(#A)"><path d="M406.819 264.332l-90.835-2.264L209.946 268l-98.349-5.179-101.544 2.07 67.191-111.293 70.495-9.76 62.207 7.723 61.8-8.233 70.641 10.354 64.432 110.65z" fill="#000"/></g><use xlink:href="#U" fill="#fff"/><path d="M414.388 262.167l-98.629-11.008-105.813 12.991-97.912-12.991L5.501 262.167 78.87 132.06l69.374-9.797 61.702 7.921 62.159-7.922 68.737 9.796 73.546 130.109z" fill="#e6ecf8"/><path d="M308.062 154.464c-4.303.301 1.215-3.381.982-5.877-.229-2.474-4.631-5.392-9.964-5.512s-18.944 1.817-22.733 1.454-8.42-3.938-11.086-3.817-4.069 1.514-2.526 3.208 2.268 3.375.022 4.495c-2.055 1.027-9.05 1.999-15.927-.242-10.888-3.552-14.94-5.134-18.71-3.877-2.667.889 3.603 3.622 3.883 4.411s-5.76 1.267-7.157 1.575c-3.205.709-3.93 2.367-1.684 3.453 5.846 2.829 4.443 5.495.514 6.073-5.801.849-9.537-.928-15.247-1.212-6.502-.323-11.671.856-14.781 2.948-2.481 1.668-.795 4.128-4.724 4.612s-8.7-.787-12.77.485-4.307 5.965-12.164 8.756c-5.224 1.856-14.407 2.302-22.265 1.211s-11.6-.698-14.546.029-2.105 2.604-6.453 2.604-8.867-2.58-11.064-.079c-1.903 2.167-1.176 2.948 2.082 4.502 4.547 2.167 1.695 3.11.281 3.937-2.573 1.506 1.298 5.452-3.701 3.998a54.17 54.17 0 0 0-15.08-2.229c-7.626.133-15.599.23-17.283 1.2s-2.149 2.057-1.077 3.283a14.59 14.59 0 0 0 8.515 4.532c4.35.545 6.453-.485 8.7.787s-1.542 2.302 1.263 3.209 8.84 2.543 4.21 3.028-7.112-1.421-9.016.353 2.934 3.749 6.91 5.402c2.163.9-1.29 3.576 6.594 5.141 8.091 1.608 15.437-.294 16.84-1.93s.281-5.573.983-7.572 3.369-2.908 5.332-2.423-2.194 4.291-1.732 7.145c.245 1.509 4.678 3.004 9.168 1.833 3.772-.983 3.876-3.583 7.713-4.383 7.256-1.513 10.672 1.948 11.654 4.25s-2.697 6.206 4.583 8.15c5.565 1.486 12.678 2.088 15.063.331s-2.132-5.868.702-6.301c4.092-.625 1.96 4.277 7.016 4.664 3.321.255 4.794-1.169 4.654-3.774-.172-3.208-.121-5.287 5.24-6.343 9.387-1.848 6.14-6.721 10.13-6.958 3.691-.218 2.57 2.778 5.376 3.869s12.598-1.342 14.22 1.769c1.684 3.231 6.923 3.594 11.181.533 5.048-3.63 7.652-6.285 1.964-7.997-4.188-1.26-7.724-3.32-4.819-4.955 3.745-2.109 11.086-.688 15.155.707 4.442 1.513 9.145 2.098 13.82 1.718 7.087-.515 11.204-2.132 12.467-4.07s6.596-1.212 9.542-2.787 5.35-3.517 2.667-6.119c-1.592-1.542-1.498-2.896 1.262-3.663 2.675-.744 6.662-.133 10.197-1.535 4.911-1.947 5.134-3.958 3.696-4.918-2.855-1.907-8.788-.902-9.472-2.272-1.007-2.017 7.508-.818 11.297-2.635s4.069-3.938 1.262-7.33-3.227-4.605 2.807-4.362 8.643 1.273 10.804 1.708c2.807.565 7.86.473 7.579-2.011s-7.157-4.544-12.349-4.18zm-209.35 67.8c-1.263-1.212-3.718-1.151-5.543-1.878s-1.496-1.769-3.46-1.891-6.068-.01-7.578.97c-1.451.94.514 3.316 0 4.182-.419.704-2.433 1.314-1.751 3.101.901 2.359 4.277 3.138 4.277 4.108s-3.647 3.773 3.32 2.73c7.063-1.059 7.24-1.916 6.221-3.203-1.263-1.595-.187-2.605 1.124-3.344 1.49-.841 5.901-2.367 3.39-4.775zm104.383-10.735c-2.969.068-10.198 2.193-10.805 3.393-.667 1.318 1.964 2.968 5.403 4.422s7.227.182 9.893 1.454 2.385 4.725 7.297 3.635 12.91-3.514 7.999-5.15c-4.523-1.567-8.931-3.449-13.192-5.633-2.104-1.151-3.929-2.181-6.595-2.121z" fill="#c4f0e0"/><g filter="url(#B)"><use xlink:href="#U" fill="url(#K)" fill-opacity=".01"/></g><g opacity=".7" filter="url(#C)" class="D"><path d="M161.605 192.006c-1.716-.99-4.046-1.544-6.479-1.541s-4.767.564-6.49 1.557c-5.172 2.982-2.418 8.855-2.418 8.855s10.243 1.555 15.358-1.394c1.724-.994 2.695-2.34 2.701-3.742s-.956-2.746-2.672-3.735z" fill="url(#L)"/></g><use xlink:href="#V" class="E"/><use xlink:href="#V" fill="url(#M)" class="F"/><g filter="url(#D)" class="G"><path d="M145.594 192.79c2.263 0 4.098-1.841 4.098-4.111s-1.835-4.11-4.098-4.11-4.097 1.84-4.097 4.11 1.835 4.111 4.097 4.111z"/></g><g opacity=".4" filter="url(#E)" class="D"><path d="M233.061 175.355c-1.716-.989-4.047-1.543-6.479-1.54s-4.767.563-6.491 1.557c-5.172 2.981-2.417 8.854-2.417 8.854s10.242 1.556 15.357-1.394c1.724-.993 2.696-2.339 2.701-3.742s-.955-2.746-2.671-3.735z" fill="url(#N)"/></g><use xlink:href="#W" class="E"/><use xlink:href="#W" fill="url(#O)" class="F"/><g filter="url(#F)" class="G"><path d="M217.293 176.292c2.263 0 4.097-1.84 4.097-4.111s-1.834-4.11-4.097-4.11-4.098 1.84-4.098 4.11 1.835 4.111 4.098 4.111z"/></g><g opacity=".6" filter="url(#G)" class="D"><path d="M263.231 184.87c-1.716-.99-4.046-1.544-6.479-1.541s-4.767.564-6.491 1.557c-5.171 2.982-2.417 8.855-2.417 8.855s10.243 1.555 15.358-1.394c1.724-.994 2.695-2.34 2.701-3.742s-.956-2.746-2.672-3.735z" fill="url(#P)"/></g><use xlink:href="#X" class="E"/><use xlink:href="#X" fill="url(#Q)" class="F"/><g filter="url(#H)" class="G"><path d="M246.952 185.632c2.263 0 4.098-1.84 4.098-4.11s-1.835-4.111-4.098-4.111-4.097 1.841-4.097 4.111 1.834 4.11 4.097 4.11z"/></g><g opacity=".3" filter="url(#I)" class="D"><path d="M285.461 145.225c-1.716-.99-4.046-1.544-6.478-1.541s-4.767.564-6.491 1.557c-5.172 2.982-2.417 8.855-2.417 8.855s10.242 1.555 15.357-1.394c1.724-.994 2.696-2.34 2.701-3.742s-.956-2.746-2.672-3.735z" fill="url(#R)"/></g><use xlink:href="#Y" class="E"/><use xlink:href="#Y" fill="url(#S)" class="F"/><g filter="url(#J)" class="G"><path d="M269.068 146.365c2.263 0 4.097-1.84 4.097-4.11s-1.834-4.111-4.097-4.111-4.098 1.841-4.098 4.111 1.835 4.11 4.098 4.11z"/></g><g fill-rule="evenodd"><use xlink:href="#Z" fill="#ffe97b"/><use xlink:href="#Z" fill="url(#T)" fill-opacity=".14"/></g><path d="M258.143 39.833h-39.376V.491a46.24 46.24 0 0 0-13.444 0v39.342h-39.38a47.22 47.22 0 0 0-.514 6.926 45.44 45.44 0 0 0 .484 6.561h39.404v53.017l6.722 4.365s2.668-1.554 6.722-4.417V53.32h39.397c.326-2.172.491-4.365.493-6.561.001-2.318-.169-4.633-.508-6.926z" fill="#ff896d"/><path d="M232.644 28.925l-20.599 11.931-20.601-11.931a1.71 1.71 0 0 0-1.713 0 1.71 1.71 0 0 0-.856 1.489v32.323c-.001.302.078.598.229.86a1.71 1.71 0 0 0 .627.63c.26.151.556.23.856.23a1.71 1.71 0 0 0 .857-.23l20.6-11.931 20.6 11.931c.26.151.556.23.856.23a1.71 1.71 0 0 0 1.484-.86c.151-.261.23-.558.229-.86V30.414c0-.302-.079-.598-.229-.86a1.71 1.71 0 0 0-.627-.629c-.26-.151-.555-.23-.856-.23a1.71 1.71 0 0 0-.857.23z" fill="#ff6a52"/><defs><filter id="A" x=".053" y="133.328" width="416.767" height="144.672" filterUnits="userSpaceOnUse" class="B"><feFlood class="C"/><feBlend in="SourceGraphic"/><feGaussianBlur stdDeviation="5"/></filter><filter id="B" x="-5" y="114.541" width="430" height="158.459" filterUnits="userSpaceOnUse" class="B"><feFlood class="C"/><feGaussianBlur in="BackgroundImage" stdDeviation="2.5"/><feComposite in2="SourceAlpha" operator="in"/><feBlend in="SourceGraphic"/></filter><filter id="C" x="143.485" y="188.465" width="22.791" height="14.821" filterUnits="userSpaceOnUse" class="B"><feFlood class="C"/><feBlend in="SourceGraphic"/><feGaussianBlur stdDeviation="1"/></filter><filter id="D" x="141.497" y="184.569" width="8.195" height="8.221" filterUnits="userSpaceOnUse" class="B"><feFlood class="C"/><feBlend in="SourceGraphic" result="B"/><feColorMatrix in="SourceAlpha" values="0 0 0 0 0 0 0 0 0 0 0 0 0 0 0 0 0 0 127 0" result="C"/><feOffset/><feGaussianBlur stdDeviation="2"/><feComposite in2="C" operator="arithmetic" k2="-1" k3="1"/><feColorMatrix values="0 0 0 0 1 0 0 0 0 1 0 0 0 0 1 0 0 0 1 0"/><feBlend in2="B"/></filter><filter id="E" x="214.941" y="171.815" width="22.791" height="14.821" filterUnits="userSpaceOnUse" class="B"><feFlood class="C"/><feBlend in="SourceGraphic"/><feGaussianBlur stdDeviation="1"/></filter><filter id="F" x="213.195" y="168.071" width="8.195" height="8.221" filterUnits="userSpaceOnUse" class="B"><feFlood class="C"/><feBlend in="SourceGraphic" result="B"/><feColorMatrix in="SourceAlpha" values="0 0 0 0 0 0 0 0 0 0 0 0 0 0 0 0 0 0 127 0" result="C"/><feOffset/><feGaussianBlur stdDeviation="2"/><feComposite in2="C" operator="arithmetic" k2="-1" k3="1"/><feColorMatrix values="0 0 0 0 1 0 0 0 0 1 0 0 0 0 1 0 0 0 1 0"/><feBlend in2="B"/></filter><filter id="G" x="245.111" y="181.329" width="22.791" height="14.821" filterUnits="userSpaceOnUse" class="B"><feFlood class="C"/><feBlend in="SourceGraphic"/><feGaussianBlur stdDeviation="1"/></filter><filter id="H" x="242.855" y="177.411" width="8.195" height="8.221" filterUnits="userSpaceOnUse" class="B"><feFlood class="C"/><feBlend in="SourceGraphic" result="B"/><feColorMatrix in="SourceAlpha" values="0 0 0 0 0 0 0 0 0 0 0 0 0 0 0 0 0 0 127 0" result="C"/><feOffset/><feGaussianBlur stdDeviation="2"/><feComposite in2="C" operator="arithmetic" k2="-1" k3="1"/><feColorMatrix values="0 0 0 0 1 0 0 0 0 1 0 0 0 0 1 0 0 0 1 0"/><feBlend in2="B"/></filter><filter id="I" x="267.342" y="141.684" width="22.791" height="14.821" filterUnits="userSpaceOnUse" class="B"><feFlood class="C"/><feBlend in="SourceGraphic"/><feGaussianBlur stdDeviation="1"/></filter><filter id="J" x="264.97" y="138.144" width="8.195" height="8.221" filterUnits="userSpaceOnUse" class="B"><feFlood class="C"/><feBlend in="SourceGraphic" result="B"/><feColorMatrix in="SourceAlpha" values="0 0 0 0 0 0 0 0 0 0 0 0 0 0 0 0 0 0 127 0" result="C"/><feOffset/><feGaussianBlur stdDeviation="2"/><feComposite in2="C" operator="arithmetic" k2="-1" k3="1"/><feColorMatrix values="0 0 0 0 1 0 0 0 0 1 0 0 0 0 1 0 0 0 1 0"/><feBlend in2="B"/></filter><linearGradient id="K" x1="210" y1="130.452" x2="210" y2="197.364" xlink:href="#a"><stop stop-color="#fff"/><stop offset="1" stop-color="#fff" stop-opacity="0"/></linearGradient><linearGradient id="L" x1="161.605" y1="192.006" x2="153.928" y2="205.322" xlink:href="#a"><stop stop-opacity="0"/><stop offset="1"/></linearGradient><linearGradient id="M" x1="147.688" y1="200.368" x2="141.871" y2="180.839" xlink:href="#a"><stop stop-color="#ff5c00"/><stop offset="1" stop-color="#ff5c00" stop-opacity="0"/></linearGradient><linearGradient id="N" x1="233.061" y1="175.355" x2="225.383" y2="188.671" xlink:href="#a"><stop stop-opacity="0"/><stop offset="1"/></linearGradient><linearGradient id="O" x1="219.387" y1="183.87" x2="213.57" y2="164.34" xlink:href="#a"><stop stop-color="#ff5c00"/><stop offset="1" stop-color="#ff5c00" stop-opacity="0"/></linearGradient><linearGradient id="P" x1="263.231" y1="184.87" x2="255.554" y2="198.186" xlink:href="#a"><stop stop-opacity="0"/><stop offset="1"/></linearGradient><linearGradient id="Q" x1="249.045" y1="193.211" x2="243.228" y2="173.682" xlink:href="#a"><stop stop-color="#ff5c00"/><stop offset="1" stop-color="#ff5c00" stop-opacity="0"/></linearGradient><linearGradient id="R" x1="285.461" y1="145.225" x2="277.784" y2="158.541" xlink:href="#a"><stop stop-opacity="0"/><stop offset="1"/></linearGradient><linearGradient id="S" x1="271.16" y1="153.944" x2="265.343" y2="134.415" xlink:href="#a"><stop stop-color="#ff5c00"/><stop offset="1" stop-color="#ff5c00" stop-opacity="0"/></linearGradient><linearGradient id="T" x1="264.99" y1="80.779" x2="213.014" y2="22.292" xlink:href="#a"><stop stop-color="#ff5c00"/><stop offset="1" stop-color="#ff5c00" stop-opacity="0"/></linearGradient><path id="U" d="M420 265.669L315.984 254.06 209.946 268l-98.066-13.463L0 265.967l77.243-136.156 70.496-9.76 62.207 7.723 61.8-8.233 70.641 10.354L420 265.669z"/><path id="V" d="M145.595 179.337c-2.427 0-4.754.967-6.47 2.688s-2.68 4.057-2.68 6.491c0 7.304 9.15 12.552 9.15 12.552s9.15-5.327 9.15-12.552c0-2.434-.964-4.769-2.68-6.491s-4.043-2.688-6.47-2.688z"/><path id="W" d="M217.294 162.838a9.14 9.14 0 0 0-6.47 2.69c-1.715 1.721-2.679 4.056-2.679 6.49 0 7.304 9.15 12.552 9.15 12.552s9.15-5.327 9.15-12.552c0-1.205-.237-2.399-.697-3.513s-1.133-2.126-1.983-2.978a9.14 9.14 0 0 0-2.969-1.99 9.12 9.12 0 0 0-3.502-.699z"/><path id="X" d="M246.952 172.18a9.11 9.11 0 0 0-3.501.699 9.14 9.14 0 0 0-2.969 1.99c-.849.852-1.523 1.864-1.983 2.978s-.696 2.307-.696 3.512c0 7.304 9.149 12.552 9.149 12.552s9.151-5.327 9.151-12.552c0-1.205-.237-2.399-.697-3.513a9.19 9.19 0 0 0-1.983-2.978c-.85-.852-1.859-1.528-2.969-1.99a9.13 9.13 0 0 0-3.502-.698z"/><path id="Y" d="M269.068 132.913c-2.427 0-4.754.967-6.47 2.688s-2.68 4.057-2.68 6.491c0 7.304 9.15 12.552 9.15 12.552s9.15-5.327 9.15-12.552c0-1.205-.237-2.399-.696-3.513s-1.134-2.125-1.984-2.978a9.14 9.14 0 0 0-2.968-1.989 9.11 9.11 0 0 0-3.502-.699z"/><path id="Z" d="M179.153 13.635A46.58 46.58 0 0 1 205.322.491v39.342h-39.377c1.486-9.928 6.117-19.114 13.208-26.198zm26.168 92.702c-11.889-8.311-35.727-27.85-39.404-53.017h39.404v53.017zm52.823-66.504a46.84 46.84 0 0 0-13.209-26.198A46.58 46.58 0 0 0 218.766.491v39.342h39.378zm-39.377 66.452V53.32h39.396c-3.704 24.922-27.518 44.576-39.396 52.965z"/><linearGradient id="a" gradientUnits="userSpaceOnUse"/></defs></svg>