<svg xmlns="http://www.w3.org/2000/svg" width="240" height="240" fill="none" xmlns:v="https://vecta.io/nano"><path d="M230 0H10C4.477 0 0 4.477 0 10v220a10 10 0 0 0 10 10h220a10 10 0 0 0 10-10V10a10 10 0 0 0-10-10z" fill="#ffe97b"/><path d="M188.1 240H60.17l-8.4-58.17h148.75L188.1 240z" fill="#a0b6ee"/><path d="M114.44 94.56c-15.22-7.24-28.63-4.63-36.08.28-12.4 8.17-16.53 20.65-6.06 31-6.77 0-15.95 5.49-19.56 14.9-2.74 7.26 1.19 14.85 6.64 16.74-4.39.18-17.28 2-18.44 14.8-.58 6.42 5.37 13.21 11 16.4 23.45 13.3 49.57 16.56 76.49 18.13 25.39 1.49 49.21 2.14 70.31-7.43 6.22-2.82 12.93-6.51 12.93-18.65 0-10-11.13-18.07-25.29-16.18 7.59-7.12 8.8-15.82 3.57-23.48-4.23-6.17-8.55-7.28-8.55-7.28s5.76-6.54 6.49-12.91c.69-5.93-2.76-14.6-10.67-20.62s-22.59-4.76-32-1.36c-11.54 4.16-31.37-4.01-30.78-4.34z" fill="#ffbeae"/><path d="M136 51.17a44.91 44.91 0 0 0-28.56 5.6c-4.85 2.88-12.68 9.91-13.29 26-.36 9.26 5.19 19.67 16.32 26.7 20.4 12.88 40.72 6.49 50.81-7.37 6.8-9.33 7-23.73 1.62-33.95S144.7 52.58 136 51.17zm-95.32 48.89c-1.31-.178-2.643.082-3.79.74-.569.372-1.032.885-1.343 1.49a3.91 3.91 0 0 0-.427 1.96 4.22 4.22 0 0 0 .617 2.061c.38.622.915 1.135 1.553 1.489a4.84 4.84 0 0 0 3.576.887c1.262-.187 2.4-.865 3.164-1.887a4.49 4.49 0 0 0 .22-4.51 4.99 4.99 0 0 0-1.539-1.509 5.01 5.01 0 0 0-2.031-.721zm-21.47 81.87a40.45 40.45 0 0 1-.72 13.57c-1 4.12-3 8.77-7.21 10.49-1.29.54-.83 2.6.6 2.17 3.93-1.17 7.61 1.28 10 4.28 2.441 3.378 4.182 7.21 5.12 11.27.078.256.246.476.471.621s.495.204.761.168a1.13 1.13 0 0 0 .978-1.089c0-4.59.37-9.33 2.14-13.62 1.37-3.3 4.14-7.19 8.11-7.22a1.13 1.13 0 0 0 0-2.25 17.52 17.52 0 0 1-11.88-6c-3-3.55-4.86-8.28-6.13-12.69a1.13 1.13 0 0 0-1.352-.687 1.13 1.13 0 0 0-.818 1.277c1.39 4.86 3.51 10.05 6.88 13.89a19.77 19.77 0 0 0 13.3 6.46v-2.25c-4.48 0-7.88 3.74-9.68 7.51-2.31 4.82-2.83 10.31-2.82 15.58l2.21-.3c-1.26-4.61-3.05-9.25-6.23-12.9-2.86-3.29-7.24-5.53-11.63-4.22l.6 2.17c4.58-1.87 7.32-6.38 8.52-11a42.87 42.87 0 0 0 1.06-15.22c-.17-1.44-2.42-1.46-2.28-.01zM212.58 85c-2.25 3.47-6.48 7.1-10.89 5.21-1.29-.55-2.45 1.24-1.14 1.94 4.4 2.35 4.12 7.89 2.65 11.93-.063.239-.047.492.047.721a1.13 1.13 0 0 0 .475.544c.213.125.461.177.707.147a1.13 1.13 0 0 0 .651-.312c2.54-3 7.36-6.44 11.15-3.29 1.1.91 2.68-.61 1.59-1.59-1.992-1.845-3.385-4.245-4-6.89-.382-2.545-.085-5.146.86-7.54.47-1.37-1.71-2-2.17-.6a16.81 16.81 0 0 0-.86 8.74 15.58 15.58 0 0 0 4.62 7.88l1.59-1.59c-1.033-.835-2.252-1.409-3.554-1.673a8.28 8.28 0 0 0-3.926.153 14 14 0 0 0-6.85 4.81l1.88 1.09c1.82-5 1.6-11.65-3.68-14.47l-1.14 1.94c5.66 2.43 11-1.37 14-6 .72-1.25-1.22-2.38-2.01-1.15z" fill="#4cd8ae"/><g fill="#fff"><path d="M111.88 69.76c.848 9.609 2.371 19.146 4.56 28.54a1.51 1.51 0 0 0 .718.871c.344.186.746.233 1.122.129 2.4-.66 3.46-2.86 4.4-4.95l2.91-6.56 5.89-13.38-2.74-.36c3 8.22 4.33 17.61 9.57 24.84a1.55 1.55 0 0 0 2.05.54c1.9-1 2.81-3 3.33-5 .7-2.65 1.2-5.37 1.76-8 1.16-5.613 2.223-11.237 3.19-16.87.32-1.89-2.57-2.7-2.9-.8a482.46 482.46 0 0 1-2.89 15.43l-1.63 7.68c-.39 1.73-.64 4.08-2.37 5l2.05.53c-5.09-7-6.33-16.14-9.27-24.12-.4-1.08-2.16-1.64-2.74-.36l-5.43 12.33-2.72 6.17c-.68 1.53-1.45 4.52-3.26 5l1.85 1c-2.132-9.131-3.619-18.4-4.45-27.74-.17-1.91-3.17-1.93-3 0v.08z"/><path d="M107.23 85.61l48.09-2.75c1.92-.11 1.93-3.11 0-3l-48.09 2.75c-1.92.11-1.94 3.11 0 3z"/></g><path d="M20.88 0c0 14.58 10.6 32.43 25.46 42.17-1.44 1.46-5 7-5.65 10.75a16.83 16.83 0 0 0 12.14 19.19c5.71 1.52 8.55-.65 9.53.06.82.59 2.77 5.45 8.59 7.84 13.74 5.66 21.28-5.69 14.44-8.27-7.82-2.95-6.22-8.35-3-16.59 2 10.12 9.41 18.75 23.63 19.94 3.6.3 8.4-.55 9.84-3.75 2.61-5.78-8.53-5.28-10.64-13.11 1.989-1.379 4.097-2.577 6.3-3.58C113 54 115 53.3 115 53.3c-3.19-14.3-10.12-19.21-15.54-22.59A26.89 26.89 0 0 0 81.08 27a4.06 4.06 0 0 1-2.56-.09c-.58-.31-.88-.93-1.31-1.43C72.17 19.68 65.86 11.05 65.48 0h-44.6zm147.9 0c3.22 12.15-.78 21.54-9.28 27.86-.761.421-1.566.756-2.4 1-3.95 1-9.46 3-13 7-5.4 6-6.22 10.83-6 15.73 7.07 1.58 12.95 4.77 14.18 5.88.95.85-1 5.4-4.34 6.39-5.15 1.54-6.44 4.36-6.38 6.82.08 3.51 4.32 5.21 6.49 6 9.37 3.3 23.64-.46 28.76-17 2.6 2.68 6.51 10 3.2 14.39-1.79 2.38-8.58 3.39-10.07 7.94-1 2.91 2.46 5.82 5.51 6.12 9.84 1 19.66-3.11 23-13.25 10.58 1.12 14.69-5.92 13.71-12.7-.61-4.25-4.58-9.52-6.53-11.36-.379-.308-.652-.728-.78-1.2a1.89 1.89 0 0 1 .63-2c14.63-8.9 21.19-30.61 17-47.61L168.78 0z" fill="#ffe7e2"/><g fill="#ffbeae"><path d="M119 106.25c-6.07-3.29-21.21-7-28.39-1.09-2.47 2-4.15 5.51-5.18 8.39-1.57 4.43 1.15 9.24 4.78 12.55 9.07 8.29 24.5 10.13 35.65 4.27 3.14-1.66 6.38-4.21 6.39-7.49-.04-6.15-6.65-13.04-13.25-16.63z"/><path d="M127.15 119.09c1.77-4.13 5.08-7.42 8.66-10.14 5.385-4.082 11.492-7.112 18-8.93 7.05-2 14.8-2.41 21.51.52 1.582.616 2.966 1.653 4 3 .652 1.068 1.029 2.28 1.099 3.53s-.17 2.496-.699 3.63c-1.085 2.261-2.636 4.268-4.55 5.89-5.92 5.52-13.22 9.83-21.22 11s-16.73-1-22.35-6.85"/></g><path d="M128.94 116.08a11.86 11.86 0 0 1 .94-1.37l1.07-1.56a32.21 32.21 0 0 1 2.4-3c1.761-1.992 3.725-3.795 5.86-5.38 1.957-1.473 4.103-2.677 6.38-3.58a40.95 40.95 0 0 1 8.78-2.19l5-.51c1.63-.17 3.39-.1 5.07-.23.37 0 .49-.57.1-.67a24.29 24.29 0 0 0-4.65-.61c-1.548-.1-3.102-.1-4.65 0a37.57 37.57 0 0 0-9.24 1.93 31.87 31.87 0 0 0-13.39 9.28 24.89 24.89 0 0 0-2.76 3.69l-1 1.87c-.258.654-.482 1.322-.67 2a.45.45 0 0 0 .04.3c.048.093.126.166.222.207a.45.45 0 0 0 .302.019c.1-.028.187-.091.246-.176l-.05-.02zm-39.87-11.84c7.052-1.391 14.354-.742 21.05 1.87a34.64 34.64 0 0 1 15 11.93 38.27 38.27 0 0 1 2.88 4.66c.41.8.79 1.61 1.14 2.44.303.867.699 1.698 1.18 2.48.112.185.28.328.48.41a1 1 0 0 0 .63.04 1 1 0 0 0 .517-.356c.13-.171.201-.379.203-.594a7.4 7.4 0 0 0-.66-2.55 28.59 28.59 0 0 0-1.1-2.47c-.728-1.473-1.564-2.89-2.5-4.24a36.8 36.8 0 0 0-14.356-12.237c-5.768-2.762-12.156-3.973-18.534-3.513a29.81 29.81 0 0 0-6.21 1.17.52.52 0 0 0-.132.946c.118.069.259.089.392.054l.02-.04zm25.41-37.74a21.89 21.89 0 0 1-4.54-3.36c-1.086-.998-2.052-2.119-2.88-3.34a12.89 12.89 0 0 1-1.66-3.29 20.01 20.01 0 0 1-.9-5.25 24.86 24.86 0 0 1 0-2.73c.126-.736.163-1.485.11-2.23-.024-.093-.073-.177-.14-.245a.54.54 0 0 0-.527-.139c-.092.026-.176.075-.243.144a3.85 3.85 0 0 0-.65 2 18.69 18.69 0 0 0-.16 2.59 20.16 20.16 0 0 0 .8 5.73 16.35 16.35 0 0 0 4.88 7.34 17.35 17.35 0 0 0 2.47 1.89c1.013.593 2.074 1.101 3.17 1.52.33.13.56-.42.24-.59l.03-.04zm32.33-1.97a10.79 10.79 0 0 0 4.134-2.612 10.8 10.8 0 0 0 2.556-4.168c.926-3.04 1.016-6.273.26-9.36a18.45 18.45 0 0 0-.68-2.52 4.72 4.72 0 0 0-1.08-2.12c-.31-.26-.91-.13-.88.36a7.95 7.95 0 0 0 .59 1.79 21.1 21.1 0 0 1 .54 2.07 26.65 26.65 0 0 1 .55 4.45 14.35 14.35 0 0 1-.34 4.08 12.33 12.33 0 0 1-1.9 4 11.46 11.46 0 0 1-4 3.43.31.31 0 0 0-.151.17c-.027.074-.025.155.005.227s.088.13.159.163a.31.31 0 0 0 .227.011l.01.03zm-106.12-6.9a27.79 27.79 0 0 1 1.11-7.91 15.12 15.12 0 0 1 2.9-5 20.52 20.52 0 0 1 2.11-2.06.68.68 0 0 0-.13-1l-5.36-4.28-4.26-3.83A49.36 49.36 0 0 1 30.9 26l-3.17-4.8a.51.51 0 0 0-.308-.233.5.5 0 0 0-.196-.012c-.065.009-.129.031-.186.064s-.107.078-.147.131a.51.51 0 0 0-.086.177.5.5 0 0 0-.012.196c.009.065.031.129.064.186l1.29 2.37 1.22 2.24 2.78 4a49.47 49.47 0 0 0 7.56 7.68c.93.78 1.88 1.54 2.84 2.28 1.12.86 2.3 1.62 3.45 2.43l-.13-1.05A18.15 18.15 0 0 0 42.25 46a17 17 0 0 0-2.16 6.6 18.24 18.24 0 0 0 .12 5.06c0 .29.47.2.48-.06v.03zM210.13 56c-.616-1.59-1.407-3.106-2.36-4.52-.976-1.332-2.082-2.565-3.3-3.68l-.14 1A29.72 29.72 0 0 0 209 46a30.62 30.62 0 0 0 4.06-3.65 36.82 36.82 0 0 0 6.4-9.5c.5-1 .91-2.11 1.31-3.2a12.53 12.53 0 0 0 1-3.35.51.51 0 0 0-.95-.26 17.25 17.25 0 0 0-1.15 2.81l-1.2 2.61a44.83 44.83 0 0 1-2.78 5c-1.945 3.028-4.358 5.728-7.15 8-1.52 1.246-3.158 2.342-4.89 3.27a.65.65 0 0 0-.203.2c-.052.081-.086.172-.1.267a.65.65 0 0 0 .023.284.66.66 0 0 0 .14.248c2.435 2.12 4.447 4.682 5.93 7.55.18.36.84.1.67-.29l.02.01zm-129.8 70.89c9.67 4.66 20.28 7.16 30.92 8.37 11.178 1.153 22.442 1.207 33.63.16 6.43-.54 12.85-1.37 19.21-2.44.42-.07.33-.77-.1-.74-11.37 1-22.71 2.22-34.14 2.38a137.91 137.91 0 0 1-32.23-3.1 107.41 107.41 0 0 1-17-5.35c-.41-.17-.7.53-.3.72h.01zM63 158.38a156.68 156.68 0 0 0 20.49 7.35 188.36 188.36 0 0 0 22.68 4.88c8.016 1.228 16.096 1.993 24.2 2.29a223.52 223.52 0 0 0 24.84-.44A197.38 197.38 0 0 0 180 169c1-.21 2-.44 3-.72.48-.14.41-1-.12-.9-2 .27-4.07.68-6.11 1l-6.12.89c-4.11.58-8.25 1-12.39 1.4a222.77 222.77 0 0 1-24.78.82 222.02 222.02 0 0 1-24-1.84 197.79 197.79 0 0 1-22.78-4.34 164.84 164.84 0 0 1-20.7-6.64l-2.51-1c-.5-.21-.95.52-.44.75l-.05-.04z" fill="#343b38"/><g fill="#ff896d"><path d="M48.71 177.55a125.31 125.31 0 0 0 21 10.87 137.78 137.78 0 0 0 23.77 7.13l7.21 1.27c2.508.462 5.038.796 7.58 1a.24.24 0 0 0 .142-.065c.039-.036.064-.085.072-.138a.24.24 0 0 0-.144-.257l-6.76-1.08s-4.24-.8-6.35-1.23c-4.12-.84-8.21-1.85-12.24-3-7.7-2.237-15.199-5.113-22.42-8.6-3.95-1.92-7.82-4-11.58-6.28-.057-.021-.119-.021-.177 0a.26.26 0 0 0-.084.44l-.02-.06zm25.86 5.58a263.64 263.64 0 0 0 18.77 5.06 242.85 242.85 0 0 0 19.19 3.59c6.44.94 12.84 1.64 19.29 2.08s13 .66 19.43.59 13-.39 19.42-1.07l2.46-.27c.3 0 .32-.51 0-.49-6.44.42-12.87.69-19.32.75s-13-.09-19.44-.47-12.86-1-19.25-1.83-12.86-1.93-19.23-3.24-12.6-2.79-18.8-4.56l-2.37-.68c-.035-.01-.073-.013-.109-.008s-.072.016-.104.034-.06.042-.083.071-.039.063-.049.098-.013.073-.008.109.016.072.034.104.042.06.071.083.062.039.098.049zm-6.77-12.47a116.03 116.03 0 0 0 16.11 5.44 171.86 171.86 0 0 0 19.33 3.77c2 .27 3.92.45 5.88.65s4.22.47 6.32.53c.18 0 .23-.29 0-.32-3.62-.57-7.3-.75-10.9-1.42-3.33-.61-6.69-1-10-1.64-6.027-1.094-11.984-2.544-17.84-4.34-3-.92-5.88-1.92-8.76-3.07-.23-.09-.4.3-.17.4h.03zm17.07-20.02c5.156 1.969 10.438 3.593 15.81 4.86a139.86 139.86 0 0 0 17.48 3.05c6.12.73 12.28 1.15 18.44 1.32s12.46.07 18.67-.32c3-.19 6.08-.44 9.1-.76s5.9-.66 8.8-1.22a71.54 71.54 0 0 0 2.11-.42c.34-.07.27-.65-.08-.61-5.9.66-11.81 1.36-17.74 1.75a239.63 239.63 0 0 1-18.46.51c-6.167-.067-12.307-.4-18.42-1-5.926-.573-11.817-1.457-17.65-2.65a127.47 127.47 0 0 1-16.07-4.34 57.94 57.94 0 0 1-1.85-.66c-.32-.12-.45.38-.14.51v-.02zm40.45 2.12c11.56.755 23.164.501 34.68-.76 1.58-.18 3.18-.34 4.76-.6a105.86 105.86 0 0 0 4.79-.91c.034 0 .068-.014.092-.038s.038-.058.038-.092-.014-.068-.038-.092-.058-.038-.092-.038l-4.26.43-4.28.48c-2.86.31-5.72.59-8.58.79-5.74.413-11.483.597-17.23.55-3.273 0-6.537-.11-9.79-.33-.38 0-.38.56 0 .59l-.09.02zm14.38-5.63c5.38 0 10.75-.06 16.13-.38s10.59-.82 15.86-1.52l4.42-.65 2.13-.36c.779-.093 1.549-.254 2.3-.48.079-.027.146-.08.19-.15a.36.36 0 0 0 .051-.237c-.01-.082-.049-.158-.109-.216s-.139-.091-.222-.097c-1.313.092-2.619.269-3.91.53l-4 .56c-2.62.373-5.247.707-7.88 1-5.29.55-10.59 1-15.91 1.21-3 .13-6 .24-9.05.24a.29.29 0 0 0 0 .58v-.03zM73.37 110a77.23 77.23 0 0 0 26.75 12.82c2.675.694 5.39 1.225 8.13 1.59.24 0 .29-.37.06-.41-9.668-1.932-18.983-5.335-27.62-10.09-2.41-1.36-4.78-2.78-7.08-4.32-.26-.18-.48.23-.24.41zM85 112.89c6.42 3.441 13.403 5.707 20.62 6.69.32 0 .46-.43.13-.49-3.5-.74-7-1.57-10.42-2.64-3.431-1.098-6.775-2.455-10-4.06-.33-.16-.62.32-.29.5H85z"/><path d="M142.56 120c7.772-.659 15.348-2.783 22.33-6.26a50.65 50.65 0 0 0 5.66-3.32.32.32 0 0 0 .151-.195c.023-.083.011-.171-.031-.245a.32.32 0 0 0-.195-.151c-.083-.023-.171-.011-.245.031-6.687 3.804-13.897 6.6-21.4 8.3-2.11.45-4.23.85-6.36 1.14-.4 0-.31.74.09.7zm14.67 2.39a31.65 31.65 0 0 0 5.48-.77c1.825-.383 3.628-.867 5.4-1.45a54.26 54.26 0 0 0 10.18-4.55l2.6-1.7c.43-.3.81-.66 1.22-1 .43-.312.844-.646 1.24-1 .032-.041.05-.091.05-.143s-.018-.103-.051-.143a.23.23 0 0 0-.128-.081c-.051-.011-.104-.005-.151.017l-4.75 2.75s-3.17 1.75-4.82 2.51c-3.315 1.541-6.767 2.77-10.31 3.67-2 .51-4 .85-6.05 1.28-.071.026-.132.075-.171.14s-.055.142-.045.217.047.144.103.196.127.082.203.087v-.03zm12.88 1.85a17.23 17.23 0 0 0 4.51-.77 17.94 17.94 0 0 0 2.15-.83 4.55 4.55 0 0 0 1.85-1.21c.035-.062.053-.131.052-.202s-.019-.141-.054-.202a.42.42 0 0 0-.147-.149c-.061-.036-.13-.056-.201-.057a3.02 3.02 0 0 0-1 .38l-.91.42-2 .78c-1.37.473-2.784.808-4.22 1-.53.07-.57.89 0 .86l-.03-.02z"/></g><g fill="#7391ed"><path d="M81 135.45c-.827-.108-1.666.057-2.39.47a2.44 2.44 0 0 0-1.11 2.18c.012.459.144.908.382 1.301a2.64 2.64 0 0 0 .978.939 3.06 3.06 0 0 0 4.26-.62 2.85 2.85 0 0 0 .14-2.85 3.23 3.23 0 0 0-2.26-1.42zm101.64-2.76a3.74 3.74 0 0 0-2.4.47 2.45 2.45 0 0 0-.844.937c-.195.381-.286.806-.266 1.233a2.63 2.63 0 0 0 .385 1.303c.241.393.58.716.985.937a3.06 3.06 0 0 0 4.26-.62c.268-.421.422-.904.444-1.403s-.085-.994-.314-1.437a3.14 3.14 0 0 0-.968-.959 3.13 3.13 0 0 0-1.282-.461zm-12.71-11.22c-.826-.117-1.667.045-2.39.46a2.48 2.48 0 0 0-1.11 2.18c.012.459.144.908.382 1.301a2.64 2.64 0 0 0 .978.939 3.06 3.06 0 0 0 4.26-.62 2.83 2.83 0 0 0 .453-1.401 2.84 2.84 0 0 0-.313-1.439 3.17 3.17 0 0 0-.973-.959c-.391-.246-.83-.403-1.287-.461zM87.72 88.26a3.79 3.79 0 0 0-2.4.46 2.47 2.47 0 0 0-1.11 2.18 2.65 2.65 0 0 0 1.37 2.24 3.06 3.06 0 0 0 4.26-.62 2.83 2.83 0 0 0 .16-2.84 3.15 3.15 0 0 0-2.28-1.42zm-22.38 56.52c-.827-.113-1.668.052-2.39.47a2.46 2.46 0 0 0-.851.941c-.197.382-.289.809-.269 1.239a2.65 2.65 0 0 0 .391 1.296c.24.391.578.713.98.934.647.48 1.458.685 2.255.57a3.06 3.06 0 0 0 2.005-1.18 2.85 2.85 0 0 0 .13-2.85 3.16 3.16 0 0 0-.968-.958 3.15 3.15 0 0 0-1.282-.462zm116.01 44.67c-.827-.118-1.669.048-2.39.47-.362.231-.656.553-.852.934s-.289.808-.268 1.236c.014.46.148.909.388 1.302s.579.716.982.938a3.05 3.05 0 0 0 4.26-.62c.27-.42.425-.904.448-1.403s-.087-.994-.318-1.437a3.18 3.18 0 0 0-.969-.957c-.389-.245-.826-.403-1.281-.463zm-48.67-34.53c-.83-.113-1.674.052-2.4.47-.359.235-.65.56-.845.942a2.46 2.46 0 0 0-.265 1.238c.013.459.146.907.387 1.298a2.61 2.61 0 0 0 .983.932c.317.244.68.421 1.067.523s.79.124 1.187.067.776-.192 1.119-.398a3 3 0 0 0 .877-.802 2.84 2.84 0 0 0 .452-1.406c.025-.501-.083-.999-.312-1.444-.25-.385-.581-.711-.969-.957s-.826-.403-1.281-.463zm-71.02 40c.45 5.63 1.1 11.25 1.83 16.85l2.53 17.67.75 4.67c.188 1.512.482 3.009.88 4.48a.39.39 0 0 0 .684.162.39.39 0 0 0 .086-.272c-.104-1.32-.288-2.632-.55-3.93l-.67-4.14-1.34-8.66-2.55-17.69-1.29-9.19c0-.21-.38-.16-.36 0v.05zm8.34 5.86c.38 4.86 1.07 9.73 1.75 14.56.73 5.14 1.57 10.28 2.66 15.35a58.96 58.96 0 0 0 2.09 7.85c.026.093.089.171.173.218a.36.36 0 0 0 .277.032c.093-.026.171-.089.218-.173s.058-.184.032-.277l-1.74-6.94a214.48 214.48 0 0 1-1.52-7.41c-.94-5.11-1.73-10.25-2.46-15.39l-1.16-7.87c0-.18-.34-.14-.32.05zm10.75 4.37c.38 4.26 1.12 8.52 1.78 12.74.7 4.47 1.45 8.93 2.31 13.37l.74 3.69c.159 1.264.496 2.5 1 3.67a.27.27 0 0 0 .131.099c.053.018.11.02.164.005a.26.26 0 0 0 .136-.091.27.27 0 0 0 .059-.153 13.55 13.55 0 0 0-.53-3.2l-.68-3.32-1.26-6.68-2.22-13.12c-.39-2.36-.73-4.73-1.25-7.06-.014-.04-.041-.073-.076-.095s-.078-.031-.119-.025a.18.18 0 0 0-.154.17h-.03zm10 5.07l3.16 22.64.55 3a12.1 12.1 0 0 0 .72 2.65c.06.14.28.06.28-.08-.01-.79-.1-1.578-.27-2.35l-.47-2.69-1-5.72-1.84-11.81-.9-5.69c0-.15-.29-.11-.27 0l.04.05zm10.99-3.82c-.107 1.964-.023 3.933.25 5.88l.69 6.48a303.92 303.92 0 0 0 1.88 13.4l.58 3.44.31 1.61c.069.501.217.987.44 1.44a.33.33 0 0 0 .14.127c.058.028.123.038.186.03a.33.33 0 0 0 .274-.237c.049-.928-.042-1.859-.27-2.76l-.49-3.05-1-6.45-1.84-13.44-.4-3.45a22.57 22.57 0 0 0-.46-3.06c0-.17-.27-.11-.29 0v.04zm9.8 1.27a44.84 44.84 0 0 0 .24 5.05l.69 6.59 1.66 13.66a96.83 96.83 0 0 1 .29 3.11 18.92 18.92 0 0 0 .27 2.49.32.32 0 0 0 .114.173c.056.044.125.068.196.068s.14-.024.196-.068a.32.32 0 0 0 .114-.173c.188-1.605.141-3.229-.14-4.82l-.77-6.47-1.85-13.75-.53-5.86a.24.24 0 0 0-.48 0zm12.39 1.63c-.09.95-.06 1.93-.07 2.89v5.91 14.47l-.06 3.36c-.05.849-.05 1.701 0 2.55 0 .38.59.51.7.1a11.23 11.23 0 0 0 .21-2.24l.06-2.9v-7l-.31-13.65-.13-3.5c0-.05-.02-.099-.056-.134s-.084-.056-.134-.056-.099.02-.134.056-.056.084-.056.134l-.02.01zm10.88 0c-.15 7.71-.55 15.44-1 23.14l-.34 6c0 .43.61.41.65 0 .42-3.71.58-7.44.74-11.17l.37-12v-6c.007-.029.007-.06 0-.089a.2.2 0 0 0-.039-.08c-.018-.024-.042-.043-.069-.056a.2.2 0 0 0-.087-.019.2.2 0 0 0-.087.019c-.027.013-.051.032-.069.056a.2.2 0 0 0-.039.08c-.007.029-.007.06 0 .089l-.03.03zm9.11 1.56c-1.17 7.36-1.83 14.77-2.5 22.18l-.25 2.79c0 .44-.07.87-.1 1.31-.025.433-.025.867 0 1.3 0 .19.3.24.34.05a17.58 17.58 0 0 0 .41-2.17l.28-2.45.5-5.35 1-11.5.65-6.11c0-.21-.34-.26-.38 0l.05-.05z"/><path d="M152.29 212.35c-.54 3.4-.9 6.83-1.4 10.24a298.03 298.03 0 0 1-1.69 10.22l-.53 2.78a17.81 17.81 0 0 0-.51 2.89c0 .45.57.46.72.1.27-.804.464-1.631.58-2.47l.51-2.59.91-5.09c.55-3.38 1.09-6.77 1.42-10.18.18-1.94.44-3.88.52-5.83 0-.29-.48-.37-.53-.07zm9.9-3.05c-.78 7.79-2 15.58-3.42 23.28l-.59 3c-.252.934-.426 1.887-.52 2.85 0 .29.45.44.58.16.308-.79.53-1.612.66-2.45l.57-2.77a142.79 142.79 0 0 0 1.06-5.88c.667-4.053 1.24-8.12 1.72-12.2.22-2 .39-4 .53-6 0-.38-.56-.37-.59 0v.01zm8.92 0c-.05 1.31-.23 2.61-.37 3.91l-.73 6.19c-.55 4.6-1.16 9.19-1.88 13.77l-.86 5.19c-.008.071.01.142.049.201s.1.102.168.121.142.013.206-.016.117-.082.147-.146c.438-1.454.753-2.943.94-4.45l1-6.52c.63-4.51 1.26-9.05 1.59-13.6a45.41 45.41 0 0 0 .2-4.65c-.011-.052-.039-.098-.08-.131a.23.23 0 0 0-.29 0c-.041.033-.069.079-.08.131h-.01zm10.41-2.97a83.56 83.56 0 0 0-2.25 10.51l-2.63 14.44-1.49 7.08c-.007.073.012.146.053.206a.31.31 0 0 0 .174.123c.071.019.146.013.213-.018a.31.31 0 0 0 .15-.151 56.01 56.01 0 0 0 1.5-6.11l1.4-7.23 2.42-13.66 1-5c.006-.067-.013-.135-.052-.19a.29.29 0 0 0-.161-.113c-.066-.018-.134-.012-.196.016a.29.29 0 0 0-.141.137l.01-.04zm8.82-2.33a59.81 59.81 0 0 0-1.41 6.23l-1.42 7-1.49 7.21-1.53 6.85-1.74 7.11c0 .15.18.2.23.06 1.522-4.236 2.719-8.582 3.58-13 1.07-4.73 2-9.48 2.94-14.23.46-2.36 1.07-4.73 1.36-7.11 0-.3-.43-.34-.52-.07V204zM53.58 191c.07 1.17.23 2.32.39 3.49.12.87.34 1.78 1.33 2a7.14 7.14 0 0 0 2.89-.36 10.8 10.8 0 0 0 3.3-1.11c.2-.12.06-.38-.15-.35-.98.207-1.948.468-2.9.78-.886.292-1.808.457-2.74.49-1.05-.05-1.09-1.07-1.2-1.89l-.53-3.09a.2.2 0 0 0-.216-.137c-.046.006-.089.028-.121.062a.2.2 0 0 0-.053.125V191zm7.96 4.91a19.62 19.62 0 0 0 1.36 2.71c.417.813.968 1.55 1.63 2.18a2.47 2.47 0 0 0 1.208.432c.434.035.869-.045 1.262-.232l1.54-.5a5.17 5.17 0 0 0 1.59-.61.3.3 0 0 0 .124-.329c-.017-.061-.052-.115-.101-.155s-.11-.063-.173-.066a4.14 4.14 0 0 0-1.33.34l-1.38.46a7.81 7.81 0 0 1-1.33.41 1.36 1.36 0 0 1-.63-.071c-.201-.073-.383-.192-.53-.349-.555-.614-1.044-1.284-1.46-2l-1.41-2.37c-.11-.21-.49-.06-.39.17l.02-.02z"/><path d="M70 198.6a9.94 9.94 0 0 0 1.7 3.4 6.87 6.87 0 0 0 2.7 2.38 3.34 3.34 0 0 0 2.65-.48c.424-.241.862-.458 1.31-.65.459-.158.945-.223 1.43-.19a.29.29 0 0 0 .164-.066c.046-.039.08-.091.095-.149s.012-.12-.009-.177-.06-.104-.11-.138c-.72-.47-1.71-.07-2.4.27-.724.533-1.57.877-2.46 1-.575-.091-1.101-.377-1.49-.81a10.47 10.47 0 0 1-1.21-1.28 12.57 12.57 0 0 1-1.86-3.16c-.12-.28-.57-.18-.48.13l-.03-.08z"/><path d="M79.75 203c.93.29 1.42 1.22 2 2a3.41 3.41 0 0 0 .946 1.057 3.42 3.42 0 0 0 1.294.583c1.298.096 2.603-.047 3.85-.42l2-.55c.673-.176 1.316-.448 1.91-.81.043-.032.074-.078.089-.129s.011-.107-.01-.157a.24.24 0 0 0-.104-.116c-.047-.027-.101-.036-.154-.028a16.22 16.22 0 0 0-1.91.62l-1.93.54-2 .37a4.85 4.85 0 0 1-2 0c-1.72-.52-2-3-3.85-3.28a.19.19 0 0 0-.125.033c-.037.025-.063.063-.075.105a.19.19 0 0 0 .1.222l-.03-.04z"/><path d="M91.18 204.53c.35 1.67 1.45 3.7 3.44 3.43.593-.117 1.175-.285 1.74-.5l1.94-.64 3.86-1.32c.33-.14.09-.64-.24-.56-1.13.26-2.24.7-3.34 1.06l-3.33 1.09a2 2 0 0 1-2.44-.56c-.489-.673-.871-1.419-1.13-2.21-.13-.3-.56-.08-.5.21z"/><path d="M102 205c-.34 1.77 1.38 3.54 3 3.92 1.013.178 2.056.057 3-.35l1.55-.62c.524-.16 1.031-.374 1.51-.64.11-.07.11-.28 0-.31a5 5 0 0 0-2.59.7c-.864.427-1.816.65-2.78.65a3.49 3.49 0 0 1-2.2-1.05 4.63 4.63 0 0 1-1.08-2.3c-.009-.039-.032-.074-.064-.099a.18.18 0 0 0-.111-.039c-.04 0-.08.014-.111.039s-.055.06-.064.099H102zm10.3 2.93c.94.62 2 1.13 2.93 1.68a8.16 8.16 0 0 0 2.61 1.25 6.11 6.11 0 0 0 2.87-.71c.955-.392 1.875-.863 2.75-1.41.32-.2 0-.71-.3-.51a16.96 16.96 0 0 1-2.61 1.34 5.16 5.16 0 0 1-2.79.66c-.878-.32-1.711-.75-2.48-1.28l-2.72-1.46c-.057-.021-.119-.021-.176 0s-.106.06-.137.112-.042.114-.032.174.039.114.085.154zm12.48.9a7.35 7.35 0 0 0 4.71 2.51 4.28 4.28 0 0 0 2.267-.397c.705-.337 1.304-.86 1.733-1.513.038-.065.05-.143.031-.216s-.066-.136-.131-.174-.143-.05-.216-.031-.136.066-.174.131c-.411.574-.968 1.027-1.613 1.312s-1.356.391-2.057.308a7.83 7.83 0 0 1-4.27-2.24.22.22 0 0 0-.156-.068c-.06-.001-.117.022-.159.063s-.067.097-.068.156.022.116.063.159h.04zm11.64.42a7.81 7.81 0 0 0 3.61 2.6 3.51 3.51 0 0 0 2 0c.726-.192 1.362-.63 1.8-1.24a.16.16 0 0 0 .018-.089c-.003-.031-.014-.06-.033-.084s-.045-.043-.074-.053-.061-.012-.091-.004c-.64.18-1.12.73-1.77.94a3.1 3.1 0 0 1-1.9 0 11.3 11.3 0 0 1-3.4-2.23c-.012-.013-.027-.022-.044-.029s-.033-.01-.051-.01-.035.003-.051.01a.13.13 0 0 0-.044.029c-.012.013-.022.027-.029.043a.13.13 0 0 0-.01.052c0 .018.003.035.01.051a.16.16 0 0 0 .029.044l.03-.03zm8.47.75l2.77 1.67c.314.215.672.355 1.048.411a2.51 2.51 0 0 0 1.122-.091 5.31 5.31 0 0 0 1.55-1.07 6.33 6.33 0 0 1 .85-.69c.288-.178.589-.335.9-.47a.24.24 0 0 0 .106-.118c.021-.051.024-.107.009-.159s-.047-.098-.092-.13a.24.24 0 0 0-.153-.043 2.75 2.75 0 0 0-1.57.79 11.62 11.62 0 0 1-1.5 1.2c-.334.169-.709.241-1.082.207s-.729-.171-1.028-.397l-2.7-1.5a.23.23 0 0 0-.157-.001c-.051.018-.094.053-.121.1s-.038.101-.029.154.036.102.077.137z"/><path d="M153 210c1.74.08 3.13 1.85 4.95 1.34.697-.256 1.331-.659 1.86-1.18a3.8 3.8 0 0 1 2.06-1.06c.12 0 .2-.18.07-.25-1.4-.73-2.7 1.3-3.81 1.84-.439.149-.906.197-1.366.142a3.09 3.09 0 0 1-1.294-.462c-.764-.413-1.605-.664-2.47-.74a.19.19 0 0 0-.106.067c-.026.033-.041.075-.041.118s.015.084.041.118A.19.19 0 0 0 153 210zm10.6-1.13a10.14 10.14 0 0 1 4.49 1.93c.044.026.094.04.145.04s.101-.014.145-.04l1.62-1c.538-.29 1.036-.649 1.48-1.07.11-.13 0-.36-.17-.3-.569.222-1.107.518-1.6.88l-1.62 1h.29a9.5 9.5 0 0 0-4.73-1.84c-.22 0-.27.35-.05.39v.01z"/><path d="M171.64 208.64l3.05.67 1.48.3c.38.105.78.105 1.16 0 .67-.25 1.1-1 1.66-1.42a5.51 5.51 0 0 1 1.09-.65 6.69 6.69 0 0 0 1.16-.5c.09-.07.1-.25 0-.27a3.21 3.21 0 0 0-2 .65 10.16 10.16 0 0 0-1.66 1.41 1.29 1.29 0 0 1-1.35.24l-1.49-.29-3-.56c-.25 0-.37.34-.11.4l.01.02zm10.47-1.88a4.51 4.51 0 0 1 2.51.5c.351.141.728.204 1.106.187s.747-.115 1.084-.287a5.63 5.63 0 0 0 1.45-1.43c.202-.256.427-.493.67-.71.279-.197.581-.358.9-.48.028-.013.051-.033.067-.059s.025-.056.025-.086-.008-.06-.025-.086-.039-.046-.067-.059c-.57-.13-1.22.41-1.58.79a9.98 9.98 0 0 1-1.47 1.57c-.363.19-.766.289-1.175.289a2.53 2.53 0 0 1-1.175-.289 3.76 3.76 0 0 0-2.38-.24c-.026.007-.05.018-.071.034s-.039.036-.052.058-.023.048-.026.075-.003.052.004.078.018.05.034.071.036.039.058.052.048.023.075.026.052.003.078-.004h-.04zm8.5-3.13c.446.177.92.271 1.4.28a5.61 5.61 0 0 0 1.47-.19c.465-.116.91-.302 1.32-.55a6.01 6.01 0 0 0 .58-.41 2.21 2.21 0 0 0 .48-.54c.016-.025.024-.055.021-.085s-.017-.057-.038-.078-.049-.034-.078-.038-.06.005-.085.021a6.12 6.12 0 0 0-.52.37l-.55.35c-.398.213-.817.384-1.25.51a6.12 6.12 0 0 1-2.66 0 .16.16 0 0 0-.123.014c-.037.02-.065.055-.077.096a.16.16 0 0 0 .014.123c.02.037.055.065.096.077v.05z"/></g><g fill="#343b38"><path d="M172.33 69.42c1.562-1.479 2.811-3.258 3.67-5.23a18 18 0 0 0 1.05-2.66c.146-.327.221-.682.221-1.04s-.075-.713-.221-1.04a.34.34 0 0 0-.125-.125c-.051-.03-.11-.046-.17-.046s-.119.016-.17.046a.34.34 0 0 0-.125.125 7.08 7.08 0 0 0-.63 1.81c-.27.835-.604 1.647-1 2.43-.865 1.799-1.957 3.479-3.25 5a.5.5 0 0 0 .021.679.5.5 0 0 0 .679.031l.05.02z"/><path d="M173.76 78c.46-.15.93-.2 1.4-.35a10.51 10.51 0 0 0 1.29-.57c.693-.339 1.361-.727 2-1.16a7.64 7.64 0 0 0 2.6-2.84c1.41-2.86.86-6.17-.33-9a14.11 14.11 0 0 0-1.6-2.93c-.535-.875-1.318-1.572-2.25-2a.51.51 0 0 0-.633.362.51.51 0 0 0 .003.268 11.34 11.34 0 0 0 1.14 2.07l1.31 2.3a12.88 12.88 0 0 1 1.54 4.15 6.81 6.81 0 0 1-2.35 6.29c-.599.464-1.234.879-1.9 1.24l-1.21.65c-.4.23-.85.63-1.32.89s-.11.77.27.64l.04-.01zM87.49 65.81c-.576-.56-1.077-1.192-1.49-1.88a27.47 27.47 0 0 1-1.51-2.42 14.73 14.73 0 0 1-1.72-5.4c0-.51-.76-.81-1-.28-1.44 2.7-2.76 5.49-2.76 8.63A9.18 9.18 0 0 0 80 69a8.84 8.84 0 0 0 2.84 2.9 6.32 6.32 0 0 0 4.1 1.28c.46-.08.36-.71 0-.84a12.93 12.93 0 0 1-1.9-.75 9.83 9.83 0 0 1-1.9-1.3 6.83 6.83 0 0 1-2.45-3.67c-.83-3.44.4-7.18 2-10.21l-1-.28A16 16 0 0 0 83.48 62a12.45 12.45 0 0 0 3.59 4.36c.32.23.71-.28.42-.54v-.01zM48.16 70.5a12.3 12.3 0 0 0 6.41 2.5 14.75 14.75 0 0 0 7.63-.57.66.66 0 0 0 .39-.95 14.68 14.68 0 0 1-2.13-8.12 9.53 9.53 0 0 1 .9-3.28c.53-1.13 1.29-2.12 1.83-3.25.14-.29-.17-.7-.49-.48a8 8 0 0 0-2.44 3.09 11.35 11.35 0 0 0-1.1 3.78c-.34 3.13.82 6.22 2.31 8.91l.23-.89a14 14 0 0 1-7 .58c-1.199-.148-2.385-.382-3.55-.7a10.52 10.52 0 0 1-2.72-1c-.24-.14-.51.19-.3.38h.03zm162.03-.25C208.883 72 207.072 73.309 205 74a13 13 0 0 1-6.12.51l.44.78a17.63 17.63 0 0 0 1-7.05c-.053-.933-.187-1.86-.4-2.77a5.99 5.99 0 0 0-.71-2c-.039-.053-.094-.091-.157-.108s-.13-.013-.19.012a.29.29 0 0 0-.142.128c-.032.058-.042.124-.031.188l.41 1.9c.124.911.177 1.831.16 2.75a19 19 0 0 1-1.2 6.63.65.65 0 0 0 .44.78c4.5.73 10-.7 12.44-4.83.28-.48-.44-1.08-.8-.62l.05-.05z"/><path d="M70.81 79.37l-3.15-2.17A19.74 19.74 0 0 1 65 74.67c-.723-.846-1.391-1.738-2-2.67l-.77-1.19a7.81 7.81 0 0 0-.83-1.07c-.2-.23-.5 0-.47.28a4.34 4.34 0 0 0 .41 1.31 11.05 11.05 0 0 0 .76 1.34c.64 1.004 1.366 1.951 2.17 2.83a15.05 15.05 0 0 0 6.26 4.5.36.36 0 0 0 .28-.65v.02zm117.59 7.18c2.138-.728 4.117-1.859 5.83-3.33 1.607-1.536 2.916-3.357 3.86-5.37.747-1.365 1.26-2.846 1.52-4.38 0-.32-.41-.37-.56-.15-.708 1.132-1.323 2.319-1.84 3.55a25.02 25.02 0 0 1-1.65 2.95c-1.095 1.646-2.497 3.066-4.13 4.18a27.1 27.1 0 0 1-3.3 1.93c-.34.17-.1.76.27.62z"/></g></svg>