<svg xmlns="http://www.w3.org/2000/svg" xmlns:xlink="http://www.w3.org/1999/xlink" width="420" height="278" fill="none" xmlns:v="https://vecta.io/nano"><style><![CDATA[.B{color-interpolation-filters:sRGB}.C{flood-opacity:0}.D{fill-opacity:.3}.E{fill:#ffdd37}.F{fill-opacity:.2}.G{fill:#fff5d9}]]></style><g opacity=".1" filter="url(#B)"><path d="M406.819 264.332l-90.835-2.264L209.946 268l-98.349-5.179-101.544 2.07 67.191-111.293 70.495-9.76 62.207 7.723 61.8-8.233 70.641 10.354 64.432 110.65z" fill="#000"/></g><use xlink:href="#V" fill="#fff"/><path d="M414.388 262.167l-98.629-11.008-105.813 12.991-97.912-12.991L5.501 262.167 78.87 132.06l69.374-9.797 61.702 7.921 62.159-7.922 68.737 9.796 73.546 130.109z" fill="#e6ecf8"/><mask id="A" maskUnits="userSpaceOnUse" x="5" y="122" width="410" height="143" mask-type="alpha"><path d="M414.388 262.167l-98.629-11.008-105.813 12.991-97.912-12.991L5.501 262.167 78.87 132.06l69.374-9.797 61.702 7.921 62.159-7.922 68.737 9.796 73.546 130.109z" fill="#e6ecf8"/></mask><g mask="url(#A)"><path d="M317.198 166.625c-4.475-1.205-2.828-3.889-.739-5.413s8.951-5.117 12.085-7.969 3.133-5.362 1.567-7.157-10.631-2.435-9.969-5.104c.623-2.513 8.103-2.447 7.059-4.193s-13.423-.517-18.575-2.435-7.167-5.46-6.712-11.584-1.118-8.19-8.28-8.485-12.084 1.623-26.367.753c-14.894-.906-17.347-3.703-25.329-2.893-7.28.741-10.742 6.272-14.77 6.788s-7.776-.376-11.302 1.144c-4.364 1.881 1.864 3.835-2.574 5.276-4.401 1.426-7.987 2.356-9.25 5.066s2.982 6.811-7.311 7.621-18.574-2.874-19.693-5.605-2.972-3.703-10.966-3.209c-7.941.489-16.561 1.513-23.051 4.611s-5.476 23.211-22.827 22.578c-7.385-.27-12.33.478-15.889 2.657-2.154 1.318-4.588 1.07-9.176 1.475-6.062.536-6.154 2.361 0 3.394 6.914 1.161.896 3.412 11.862 3.32 8.84-.073 16.863-.732 21.708 3.395 4.028 3.43 7.384 5.753 17.008 4.648s16.24 4.82 32.577 9.324 31.779 7.316 42.072 3.626 15.368-11.408 30.437-12.097c21.882-.999 35.433 8.266 48.936 7.53 15.926-.871 26.526-13 27.922-14.357 3.488-3.396-4.854-1.197-10.453-2.705zm-270.361-15.56c-12.076-2.219-14.034-7.772-19.708-6.662-4.575.895 5.464 8.625 2.09 11.496-8.511 7.249-8.361 10.648 4.326 14.63 23.109 7.254 27.473 17.472 22.844 22.867-3.703 4.317-9.256 7.048-5.374 10.185s-1.515 4.72.896 7.576c3.583 4.246 15.285 4.564 26.335.516s16.992-6.898 24.134-5.871c10.899 1.568 4.781 27.367 28.369 28.347 9.215.383 11.346-4.311 18.513-4.573s8.585 1.764 18.141 2.026 18.013-3.826 22.471-5.683c12.466-5.192 25.272-3.415 42.925-2.447 10.75.588 10.228-3.756 17.857-3.218 11.359.801 3.12 15.725 20.739 16.64 11.954.62 26.876-1.502 34.938-5.813 4.996-2.671 2.709-7.936 8.958-10.124 5.973-2.09 10.754-.357 20.903-1.567 11.498-1.372 37.476-11.954 33.992-18.345-1.976-3.625-9.356-2.622-13.686-6.151-12.188-9.928 28.667-15.088 36.133-20.705 2.425-1.825 5.374-10.317 0-13.455s-18.514 1.698-32.251 3.658-23.889 3.135-28.667 8.621-16.296 14.551-30.928 14.683c-17.774.159-32.313-9.251-49.048-8.236-15.079.914-19.04 11.64-33.97 13.859s-33.811-3.278-44.864-5.456-22.669 1.796-32.25-.872c-8.212-2.285-5.608-3.112-11.102-6.921-6.121-4.246-14.654-8.18-30.182-10.22-31.327-4.121-27.174-14.126-52.534-18.785z" fill="#c4f0e0"/></g><g filter="url(#C)"><use xlink:href="#V" fill="url(#L)" fill-opacity=".01"/></g><g opacity=".7" filter="url(#D)" class="D"><path d="M161.605 192.006c-1.716-.99-4.046-1.544-6.479-1.541s-4.767.564-6.49 1.557c-5.172 2.982-2.418 8.855-2.418 8.855s10.243 1.555 15.358-1.394c1.724-.994 2.695-2.34 2.701-3.742s-.956-2.746-2.672-3.735z" fill="url(#M)"/></g><use xlink:href="#W" class="E"/><use xlink:href="#W" fill="url(#N)" class="F"/><g filter="url(#E)" class="G"><path d="M145.594 192.79c2.263 0 4.098-1.841 4.098-4.111s-1.835-4.11-4.098-4.11-4.097 1.84-4.097 4.11 1.835 4.111 4.097 4.111z"/></g><g opacity=".4" filter="url(#F)" class="D"><path d="M223.061 165.355c-1.716-.989-4.047-1.543-6.479-1.54s-4.767.563-6.491 1.557c-5.172 2.981-2.417 8.854-2.417 8.854s10.242 1.556 15.357-1.394c1.724-.993 2.696-2.339 2.701-3.742s-.955-2.746-2.671-3.735z" fill="url(#O)"/></g><use xlink:href="#X" class="E"/><use xlink:href="#X" fill="url(#P)" class="F"/><g filter="url(#G)" class="G"><path d="M207.293 166.292c2.263 0 4.097-1.84 4.097-4.111s-1.834-4.11-4.097-4.11-4.098 1.84-4.098 4.11 1.835 4.111 4.098 4.111z"/></g><g opacity=".6" filter="url(#H)" class="D"><path d="M263.231 184.87c-1.716-.99-4.046-1.544-6.479-1.541s-4.767.564-6.491 1.557c-5.171 2.982-2.417 8.855-2.417 8.855s10.243 1.555 15.358-1.394c1.724-.994 2.695-2.34 2.701-3.742s-.956-2.746-2.672-3.735z" fill="url(#Q)"/></g><use xlink:href="#Y" class="E"/><use xlink:href="#Y" fill="url(#R)" class="F"/><g filter="url(#I)" class="G"><path d="M246.952 185.632c2.263 0 4.098-1.84 4.098-4.11s-1.835-4.111-4.098-4.111-4.097 1.841-4.097 4.111 1.834 4.11 4.097 4.11z"/></g><g opacity=".3" filter="url(#J)" class="D"><path d="M285.461 145.225c-1.716-.99-4.046-1.544-6.478-1.541s-4.767.564-6.491 1.557c-5.172 2.982-2.417 8.855-2.417 8.855s10.242 1.555 15.357-1.394c1.724-.994 2.696-2.34 2.701-3.742s-.956-2.746-2.672-3.735z" fill="url(#S)"/></g><use xlink:href="#Z" class="E"/><use xlink:href="#Z" fill="url(#T)" class="F"/><g filter="url(#K)" class="G"><path d="M269.068 146.365c2.263 0 4.097-1.84 4.097-4.11s-1.834-4.111-4.097-4.111-4.098 1.841-4.098 4.111 1.835 4.11 4.098 4.11z"/></g><g fill-rule="evenodd"><use xlink:href="#a" fill="#ffe97b"/><use xlink:href="#a" fill="url(#U)" fill-opacity=".14"/></g><path d="M258.143 39.833h-39.376V.491a46.24 46.24 0 0 0-13.444 0v39.342h-39.38a47.22 47.22 0 0 0-.514 6.926 45.44 45.44 0 0 0 .484 6.561h39.404v53.017l6.722 4.365s2.668-1.554 6.722-4.417V53.32h39.397c.326-2.172.491-4.365.493-6.561.001-2.318-.169-4.633-.508-6.926z" fill="#ff896d"/><path d="M232.644 28.925l-20.599 11.931-20.601-11.931a1.71 1.71 0 0 0-1.713 0 1.71 1.71 0 0 0-.856 1.489v32.323c-.001.302.078.598.229.86a1.71 1.71 0 0 0 .627.63c.26.151.556.23.856.23a1.71 1.71 0 0 0 .857-.23l20.6-11.931 20.6 11.931c.26.151.556.23.856.23a1.71 1.71 0 0 0 1.484-.86c.151-.261.23-.558.229-.86V30.414c0-.302-.079-.598-.229-.86a1.71 1.71 0 0 0-.627-.629c-.26-.151-.555-.23-.856-.23a1.71 1.71 0 0 0-.857.23z" fill="#ff6a52"/><defs><filter id="B" x=".053" y="133.328" width="416.767" height="144.672" filterUnits="userSpaceOnUse" class="B"><feFlood class="C"/><feBlend in="SourceGraphic"/><feGaussianBlur stdDeviation="5"/></filter><filter id="C" x="-5" y="114.541" width="430" height="158.459" filterUnits="userSpaceOnUse" class="B"><feFlood class="C"/><feGaussianBlur in="BackgroundImage" stdDeviation="2.5"/><feComposite in2="SourceAlpha" operator="in"/><feBlend in="SourceGraphic"/></filter><filter id="D" x="143.485" y="188.465" width="22.791" height="14.821" filterUnits="userSpaceOnUse" class="B"><feFlood class="C"/><feBlend in="SourceGraphic"/><feGaussianBlur stdDeviation="1"/></filter><filter id="E" x="141.497" y="184.569" width="8.195" height="8.221" filterUnits="userSpaceOnUse" class="B"><feFlood class="C"/><feBlend in="SourceGraphic" result="B"/><feColorMatrix in="SourceAlpha" values="0 0 0 0 0 0 0 0 0 0 0 0 0 0 0 0 0 0 127 0" result="C"/><feOffset/><feGaussianBlur stdDeviation="2"/><feComposite in2="C" operator="arithmetic" k2="-1" k3="1"/><feColorMatrix values="0 0 0 0 1 0 0 0 0 1 0 0 0 0 1 0 0 0 1 0"/><feBlend in2="B"/></filter><filter id="F" x="204.941" y="161.815" width="22.791" height="14.821" filterUnits="userSpaceOnUse" class="B"><feFlood class="C"/><feBlend in="SourceGraphic"/><feGaussianBlur stdDeviation="1"/></filter><filter id="G" x="203.195" y="158.071" width="8.195" height="8.221" filterUnits="userSpaceOnUse" class="B"><feFlood class="C"/><feBlend in="SourceGraphic" result="B"/><feColorMatrix in="SourceAlpha" values="0 0 0 0 0 0 0 0 0 0 0 0 0 0 0 0 0 0 127 0" result="C"/><feOffset/><feGaussianBlur stdDeviation="2"/><feComposite in2="C" operator="arithmetic" k2="-1" k3="1"/><feColorMatrix values="0 0 0 0 1 0 0 0 0 1 0 0 0 0 1 0 0 0 1 0"/><feBlend in2="B"/></filter><filter id="H" x="245.111" y="181.329" width="22.791" height="14.821" filterUnits="userSpaceOnUse" class="B"><feFlood class="C"/><feBlend in="SourceGraphic"/><feGaussianBlur stdDeviation="1"/></filter><filter id="I" x="242.855" y="177.411" width="8.195" height="8.221" filterUnits="userSpaceOnUse" class="B"><feFlood class="C"/><feBlend in="SourceGraphic" result="B"/><feColorMatrix in="SourceAlpha" values="0 0 0 0 0 0 0 0 0 0 0 0 0 0 0 0 0 0 127 0" result="C"/><feOffset/><feGaussianBlur stdDeviation="2"/><feComposite in2="C" operator="arithmetic" k2="-1" k3="1"/><feColorMatrix values="0 0 0 0 1 0 0 0 0 1 0 0 0 0 1 0 0 0 1 0"/><feBlend in2="B"/></filter><filter id="J" x="267.342" y="141.684" width="22.791" height="14.821" filterUnits="userSpaceOnUse" class="B"><feFlood class="C"/><feBlend in="SourceGraphic"/><feGaussianBlur stdDeviation="1"/></filter><filter id="K" x="264.97" y="138.144" width="8.195" height="8.221" filterUnits="userSpaceOnUse" class="B"><feFlood class="C"/><feBlend in="SourceGraphic" result="B"/><feColorMatrix in="SourceAlpha" values="0 0 0 0 0 0 0 0 0 0 0 0 0 0 0 0 0 0 127 0" result="C"/><feOffset/><feGaussianBlur stdDeviation="2"/><feComposite in2="C" operator="arithmetic" k2="-1" k3="1"/><feColorMatrix values="0 0 0 0 1 0 0 0 0 1 0 0 0 0 1 0 0 0 1 0"/><feBlend in2="B"/></filter><linearGradient id="L" x1="210" y1="130.452" x2="210" y2="197.364" xlink:href="#b"><stop stop-color="#fff"/><stop offset="1" stop-color="#fff" stop-opacity="0"/></linearGradient><linearGradient id="M" x1="161.605" y1="192.006" x2="153.928" y2="205.322" xlink:href="#b"><stop stop-opacity="0"/><stop offset="1"/></linearGradient><linearGradient id="N" x1="147.688" y1="200.368" x2="141.871" y2="180.839" xlink:href="#b"><stop stop-color="#ff5c00"/><stop offset="1" stop-color="#ff5c00" stop-opacity="0"/></linearGradient><linearGradient id="O" x1="223.061" y1="165.355" x2="215.383" y2="178.671" xlink:href="#b"><stop stop-opacity="0"/><stop offset="1"/></linearGradient><linearGradient id="P" x1="209.387" y1="173.87" x2="203.57" y2="154.34" xlink:href="#b"><stop stop-color="#ff5c00"/><stop offset="1" stop-color="#ff5c00" stop-opacity="0"/></linearGradient><linearGradient id="Q" x1="263.231" y1="184.87" x2="255.554" y2="198.186" xlink:href="#b"><stop stop-opacity="0"/><stop offset="1"/></linearGradient><linearGradient id="R" x1="249.045" y1="193.211" x2="243.228" y2="173.682" xlink:href="#b"><stop stop-color="#ff5c00"/><stop offset="1" stop-color="#ff5c00" stop-opacity="0"/></linearGradient><linearGradient id="S" x1="285.461" y1="145.225" x2="277.784" y2="158.541" xlink:href="#b"><stop stop-opacity="0"/><stop offset="1"/></linearGradient><linearGradient id="T" x1="271.16" y1="153.944" x2="265.343" y2="134.415" xlink:href="#b"><stop stop-color="#ff5c00"/><stop offset="1" stop-color="#ff5c00" stop-opacity="0"/></linearGradient><linearGradient id="U" x1="264.99" y1="80.779" x2="213.014" y2="22.292" xlink:href="#b"><stop stop-color="#ff5c00"/><stop offset="1" stop-color="#ff5c00" stop-opacity="0"/></linearGradient><path id="V" d="M420 265.669L315.984 254.06 209.946 268l-98.066-13.463L0 265.967l77.243-136.156 70.496-9.76 62.207 7.723 61.8-8.233 70.641 10.354L420 265.669z"/><path id="W" d="M145.595 179.337c-2.427 0-4.754.967-6.47 2.688s-2.68 4.057-2.68 6.491c0 7.304 9.15 12.552 9.15 12.552s9.15-5.327 9.15-12.552c0-2.434-.964-4.769-2.68-6.491s-4.043-2.688-6.47-2.688z"/><path id="X" d="M207.294 152.838a9.14 9.14 0 0 0-6.47 2.69c-1.715 1.721-2.679 4.056-2.679 6.49 0 7.304 9.15 12.552 9.15 12.552s9.15-5.327 9.15-12.552c0-1.205-.237-2.399-.697-3.513s-1.133-2.126-1.983-2.978a9.14 9.14 0 0 0-2.969-1.99 9.12 9.12 0 0 0-3.502-.699z"/><path id="Y" d="M246.952 172.18a9.11 9.11 0 0 0-3.501.699 9.14 9.14 0 0 0-2.969 1.99c-.849.852-1.523 1.864-1.983 2.978s-.696 2.307-.696 3.512c0 7.304 9.149 12.552 9.149 12.552s9.151-5.327 9.151-12.552c0-1.205-.237-2.399-.697-3.513a9.19 9.19 0 0 0-1.983-2.978c-.85-.852-1.859-1.528-2.969-1.99a9.13 9.13 0 0 0-3.502-.698z"/><path id="Z" d="M269.068 132.913c-2.427 0-4.754.967-6.47 2.688s-2.68 4.057-2.68 6.491c0 7.304 9.15 12.552 9.15 12.552s9.15-5.327 9.15-12.552c0-1.205-.237-2.399-.696-3.513s-1.134-2.125-1.984-2.978a9.14 9.14 0 0 0-2.968-1.989 9.11 9.11 0 0 0-3.502-.699z"/><path id="a" d="M179.153 13.635A46.58 46.58 0 0 1 205.322.491v39.342h-39.377c1.486-9.928 6.117-19.114 13.208-26.198zm26.168 92.702c-11.889-8.311-35.727-27.85-39.404-53.017h39.404v53.017zm52.823-66.504a46.84 46.84 0 0 0-13.209-26.198A46.58 46.58 0 0 0 218.766.491v39.342h39.378zm-39.377 66.452V53.32h39.396c-3.704 24.922-27.518 44.576-39.396 52.965z"/><linearGradient id="b" gradientUnits="userSpaceOnUse"/></defs></svg>