<svg width="103" height="480" viewBox="0 0 103 480" fill="none" xmlns="http://www.w3.org/2000/svg">
<path d="M67.9333 13.168V11.904H62.9573V10.608H61.2933V11.904H56.2373V13.168H67.9333ZM68.6533 18.656H62.9573V17.744C65.4693 17.616 66.8613 16.912 66.8613 15.696C66.8613 14.336 65.2453 13.632 62.1253 13.632C58.9893 13.632 57.3733 14.336 57.3733 15.696C57.3733 16.912 58.7173 17.616 61.2933 17.744V18.656H55.5813V19.952H68.6533V18.656ZM59.1333 15.696C59.1333 15.072 60.1253 14.768 62.1253 14.768C64.1253 14.768 65.1173 15.072 65.1173 15.696C65.1173 16.32 64.1253 16.624 62.1253 16.624C60.1253 16.624 59.1333 16.32 59.1333 15.696ZM57.1493 20.896V25.056H67.0693V20.896H57.1493ZM58.7812 23.824V22.144H65.4533V23.824H58.7812Z" fill="#9E9E9E"/>
<path d="M44.1871 23.6246V20.2495C44.1871 20.1004 44.1278 19.9573 44.0223 19.8518C43.9168 19.7463 43.7738 19.687 43.6246 19.687H41.3746C41.2254 19.687 41.0823 19.7463 40.9768 19.8518C40.8714 19.9573 40.8121 20.1004 40.8121 20.2495V23.6246C40.8121 23.7738 40.7528 23.9168 40.6474 24.0223C40.5419 24.1278 40.3988 24.1871 40.2497 24.1871L36.8751 24.1876C36.8012 24.1876 36.728 24.173 36.6598 24.1448C36.5915 24.1165 36.5295 24.0751 36.4773 24.0228C36.425 23.9706 36.3836 23.9086 36.3553 23.8403C36.3271 23.7721 36.3125 23.6989 36.3125 23.6251V17.1239C36.3125 17.0456 36.3289 16.9681 36.3606 16.8964C36.3923 16.8247 36.4386 16.7605 36.4966 16.7077L42.1212 11.5936C42.2247 11.4994 42.3597 11.4473 42.4996 11.4473C42.6395 11.4473 42.7745 11.4994 42.878 11.5936L48.5034 16.7077C48.5614 16.7605 48.6077 16.8247 48.6394 16.8964C48.6711 16.9681 48.6875 17.0456 48.6875 17.124V23.6251C48.6875 23.6989 48.6729 23.7721 48.6447 23.8403C48.6164 23.9086 48.575 23.9706 48.5227 24.0228C48.4705 24.0751 48.4085 24.1165 48.3402 24.1448C48.272 24.173 48.1988 24.1876 48.1249 24.1876L44.7495 24.1871C44.6003 24.1871 44.4573 24.1278 44.3518 24.0223C44.2463 23.9168 44.1871 23.7738 44.1871 23.6246V23.6246Z" fill="#BDBDBD"/>
<path d="M56.0933 61.264H68.0933V59.68H63.1813V58.528H61.0693V59.68H56.0933V61.264ZM68.7973 68.16V66.528H63.1813V65.792C65.6933 65.648 67.0693 64.96 67.0693 63.728C67.0693 62.32 65.4053 61.632 62.1253 61.632C58.8453 61.632 57.1973 62.336 57.1973 63.728C57.1973 64.96 58.5573 65.648 61.0693 65.792V66.528H55.4533V68.16H68.7973ZM59.4533 63.728C59.4533 63.232 60.2533 63.056 62.1253 63.056C63.9973 63.056 64.7973 63.232 64.7973 63.728C64.7973 64.224 63.9973 64.416 62.1253 64.416C60.2533 64.416 59.4533 64.224 59.4533 63.728ZM67.1973 68.928H57.0213V73.2H67.1973V68.928ZM65.1173 71.648H59.0853V70.48H65.1173V71.648Z" fill="#00B28F"/>
<path d="M44.1871 71.6246V68.2495C44.1871 68.1004 44.1278 67.9573 44.0223 67.8518C43.9168 67.7463 43.7738 67.687 43.6246 67.687H41.3746C41.2254 67.687 41.0823 67.7463 40.9768 67.8518C40.8714 67.9573 40.8121 68.1004 40.8121 68.2495V71.6246C40.8121 71.7738 40.7528 71.9168 40.6474 72.0223C40.5419 72.1278 40.3988 72.1871 40.2497 72.1871L36.8751 72.1876C36.8012 72.1876 36.728 72.173 36.6598 72.1448C36.5915 72.1165 36.5295 72.0751 36.4773 72.0228C36.425 71.9706 36.3836 71.9086 36.3553 71.8403C36.3271 71.7721 36.3125 71.6989 36.3125 71.6251V65.1239C36.3125 65.0456 36.3289 64.9681 36.3606 64.8964C36.3923 64.8247 36.4386 64.7605 36.4966 64.7077L42.1212 59.5936C42.2247 59.4994 42.3597 59.4473 42.4996 59.4473C42.6395 59.4473 42.7745 59.4994 42.878 59.5936L48.5034 64.7077C48.5614 64.7605 48.6077 64.8247 48.6394 64.8964C48.6711 64.9681 48.6875 65.0456 48.6875 65.124V71.6251C48.6875 71.6989 48.6729 71.7721 48.6447 71.8403C48.6164 71.9086 48.575 71.9706 48.5227 72.0228C48.4705 72.0751 48.4085 72.1165 48.3402 72.1448C48.272 72.173 48.1988 72.1876 48.1249 72.1876L44.7495 72.1871C44.6003 72.1871 44.4573 72.1278 44.3518 72.0223C44.2463 71.9168 44.1871 71.7738 44.1871 71.6246V71.6246Z" fill="#00B28F"/>
<path d="M29.8142 109.744H27.7822V106.768H26.1342V114.08H27.7822V111.104H29.8142V109.744ZM24.2622 110.496C24.2622 108.592 22.6782 107.248 20.4862 107.248C18.2942 107.248 16.6782 108.592 16.6782 110.496C16.6782 112.4 18.2942 113.744 20.4862 113.744C22.6782 113.744 24.2622 112.4 24.2622 110.496ZM18.2782 110.496C18.2782 109.344 19.2062 108.592 20.4862 108.592C21.7662 108.592 22.6622 109.344 22.6622 110.496C22.6622 111.648 21.7662 112.416 20.4862 112.416C19.2062 112.416 18.2782 111.648 18.2782 110.496ZM20.1022 119.744V118.432H27.7822V114.704H18.4542V116H26.1502V117.232H18.4862V121.056H28.2622V119.744H20.1022ZM42.869 106.752H41.221V109.968H38.581V111.312H41.221V113.904H38.501V115.248H41.221V121.248H42.869V106.752ZM33.029 116.592V113.408H37.749V108.032H31.381V109.36H36.133V112.08H31.413V117.952H32.517C34.757 117.952 36.629 117.888 38.805 117.552L38.677 116.192C36.693 116.496 34.997 116.576 33.029 116.592ZM46.0197 112.56L46.6117 113.856C48.9957 113.488 50.9317 112.32 51.8277 110.72C52.7397 112.336 54.6757 113.472 57.0597 113.856L57.6517 112.56C54.9157 112.176 52.8517 110.64 52.7717 108.928H57.1397V107.6H46.4997V108.928H50.8997C50.8197 110.64 48.7557 112.176 46.0197 112.56ZM58.3558 116.24L58.3717 114.912H45.2997V116.24H50.9637V121.248H52.6117V116.24H58.3558ZM72.0345 106.784H70.4665V121.232H72.0345V106.784ZM67.5225 107.056V111.84H65.3945V113.184H67.5225V120.56H69.0745V107.056H67.5225ZM64.1305 110.64V108.112H62.5305V110.72C62.5305 113.184 61.5385 115.76 59.4905 116.992L60.4985 118.24C61.9065 117.392 62.8345 115.904 63.3465 114.096C63.8425 115.712 64.6745 117.104 66.0185 117.92L66.9465 116.64C65.0105 115.392 64.1305 112.992 64.1305 110.64ZM87.1853 118.112H84.0973V114.352C85.2493 113.696 85.9373 112.672 85.9373 111.392C85.9373 109.088 83.6973 107.616 80.6253 107.616C77.5373 107.616 75.3133 109.088 75.3133 111.392C75.3133 112.672 76.0013 113.712 77.1533 114.352V118.112H74.0973V119.456H87.1853V118.112ZM80.6253 108.912C82.8013 108.912 84.3213 109.872 84.3213 111.392C84.3213 112.928 82.8013 113.888 80.6253 113.888C78.4333 113.888 76.9133 112.928 76.9133 111.392C76.9133 109.872 78.4333 108.912 80.6253 108.912ZM78.8013 118.112V114.976C79.3613 115.104 79.9693 115.168 80.6253 115.168C81.2653 115.168 81.8893 115.104 82.4493 114.96V118.112H78.8013Z" fill="#9E9E9E"/>
<path d="M29.9102 159.2V157.472H27.9742V154.64H25.8622V162H27.9742V159.2H29.9102ZM24.3262 158.4C24.3262 156.464 22.6622 155.056 20.4062 155.056C18.1662 155.056 16.4862 156.464 16.4862 158.4C16.4862 160.368 18.1662 161.76 20.4062 161.76C22.6622 161.76 24.3262 160.368 24.3262 158.4ZM18.5182 158.4C18.5182 157.376 19.3022 156.752 20.4062 156.752C21.5102 156.752 22.2942 157.376 22.2942 158.4C22.2942 159.44 21.5102 160.064 20.4062 160.064C19.3022 160.064 18.5182 159.44 18.5182 158.4ZM28.3902 167.568H20.3582V166.608H27.9742V162.576H18.2462V164.208H25.8942V165.088H18.2622V169.2H28.3902V167.568ZM43.109 169.408V154.624H40.981V157.76H38.565V159.456H40.981V161.76H38.533V163.456H40.981V169.408H43.109ZM33.365 164.384V161.568H37.829V155.872H31.253V157.552H35.749V159.904H31.285V166.128H32.469C34.693 166.128 36.549 166.08 38.725 165.744L38.565 164.016C36.709 164.288 35.157 164.368 33.365 164.384ZM45.8117 160.288L46.5797 161.936C49.1557 161.568 50.9477 160.512 51.8437 158.976C52.7397 160.512 54.5317 161.568 57.1077 161.936L57.8597 160.288C54.8517 159.904 53.3158 158.496 53.1077 157.072H57.2837V155.392H46.3557V157.072H50.5957C50.3877 158.496 48.8357 159.904 45.8117 160.288ZM52.8517 164.464H58.4998V162.784H45.1877V164.464H50.7397V169.408H52.8517V164.464ZM72.2105 169.376V154.64H70.2105V169.376H72.2105ZM69.1865 154.88H67.2185V159.616H65.3785V161.328H67.2185V168.72H69.1865V154.88ZM64.2745 158.32V155.92H62.2425V158.4C62.2425 160.912 61.4585 163.552 59.2985 164.864L60.5625 166.448C61.9065 165.632 62.7545 164.272 63.2665 162.608C63.7305 164.096 64.4825 165.344 65.7625 166.112L66.9145 164.48C64.9145 163.152 64.2745 160.704 64.2745 158.32ZM87.3133 167.664V165.952H84.3533V162.352C85.4573 161.664 86.1293 160.608 86.1293 159.328C86.1293 156.912 83.8093 155.36 80.6253 155.36C77.4733 155.36 75.1373 156.912 75.1373 159.328C75.1213 160.608 75.7613 161.664 76.9133 162.352V165.952H73.9693V167.664H87.3133ZM80.6253 157.024C82.6733 157.024 84.0493 157.856 84.0493 159.328C84.0493 160.8 82.6733 161.632 80.6253 161.632C78.5773 161.632 77.2173 160.8 77.2173 159.328C77.2173 157.856 78.5773 157.024 80.6253 157.024ZM82.2573 165.952H79.0093V163.136C79.5213 163.232 80.0653 163.28 80.6253 163.28C81.2013 163.28 81.7453 163.232 82.2573 163.136V165.952Z" fill="#00B28F"/>
<path d="M36.729 205.968H34.681V202.784H33.033V210.432H34.681V207.328H36.729V205.968ZM30.809 203.776H24.041V205.104H28.969C28.793 207.072 27.001 208.656 23.417 209.376L24.073 210.704C28.377 209.792 30.809 207.504 30.809 203.776ZM27.081 215.824V214.608H34.585V213.424H27.081V212.272H34.761V211.04H25.433V217.056H35.065V215.824H27.081ZM49.6877 202.768H48.0238V217.264H49.6877V202.768ZM41.9917 203.84C39.8637 203.84 38.2797 205.824 38.2797 208.928C38.2797 212.064 39.8637 214.032 41.9917 214.032C44.1517 214.032 45.7197 212.064 45.7197 208.928C45.7197 205.824 44.1517 203.84 41.9917 203.84ZM41.9917 205.328C43.2717 205.328 44.1357 206.672 44.1357 208.928C44.1357 211.248 43.2717 212.56 41.9917 212.56C40.7117 212.56 39.8637 211.248 39.8637 208.928C39.8637 206.672 40.7117 205.328 41.9917 205.328ZM64.5025 202.784H62.9345V208.768H61.3985V203.088H59.8625V216.56H61.3985V210.128H62.9345V217.232H64.5025V202.784ZM56.5345 205.136V203.2H54.9025V205.136H52.1665V206.464H59.2385V205.136H56.5345ZM55.7185 207.28C53.8785 207.28 52.5825 208.64 52.5825 210.64C52.5825 212.624 53.8785 214 55.7185 214C57.5585 214 58.8545 212.624 58.8545 210.64C58.8545 208.64 57.5585 207.28 55.7185 207.28ZM55.7185 212.624C54.7425 212.624 54.0545 211.856 54.0545 210.64C54.0545 209.424 54.7425 208.64 55.7185 208.64C56.6945 208.64 57.3825 209.424 57.3825 210.64C57.3825 211.856 56.6945 212.624 55.7185 212.624ZM79.6853 214.112H76.5973V210.352C77.7493 209.696 78.4373 208.672 78.4373 207.392C78.4373 205.088 76.1973 203.616 73.1253 203.616C70.0373 203.616 67.8133 205.088 67.8133 207.392C67.8133 208.672 68.5013 209.712 69.6533 210.352V214.112H66.5973V215.456H79.6853V214.112ZM73.1253 204.912C75.3013 204.912 76.8213 205.872 76.8213 207.392C76.8213 208.928 75.3013 209.888 73.1253 209.888C70.9333 209.888 69.4133 208.928 69.4133 207.392C69.4133 205.872 70.9333 204.912 73.1253 204.912ZM71.3013 214.112V210.976C71.8613 211.104 72.4693 211.168 73.1253 211.168C73.7653 211.168 74.3893 211.104 74.9493 210.96V214.112H71.3013Z" fill="#9E9E9E"/>
<path d="M36.825 255.392V253.648H34.873V250.624H32.761V258.352H34.873V255.392H36.825ZM30.889 251.616H23.929V253.312H28.537C28.329 254.928 26.809 256.352 23.225 256.944L24.041 258.624C28.537 257.776 30.889 255.568 30.889 251.616ZM35.241 263.68H27.321V262.8H34.777V261.328H27.321V260.464H34.937V258.928H25.225V265.216H35.241V263.68ZM49.8798 265.408V250.624H47.7677V265.408H49.8798ZM41.9597 251.664C39.7357 251.664 38.0877 253.68 38.0877 256.912C38.0877 260.16 39.7357 262.192 41.9597 262.192C44.1837 262.192 45.8317 260.16 45.8317 256.912C45.8317 253.68 44.1837 251.664 41.9597 251.664ZM41.9597 253.568C43.0477 253.568 43.7997 254.72 43.7997 256.912C43.7997 259.104 43.0477 260.272 41.9597 260.272C40.8717 260.272 40.1197 259.104 40.1197 256.912C40.1197 254.72 40.8717 253.568 41.9597 253.568ZM64.7105 265.36V250.624H62.7105V256.64H61.5905V250.912H59.6225V264.752H61.5905V258.336H62.7105V265.36H64.7105ZM59.0945 252.864H56.6465V251.04H54.5665V252.864H52.0545V254.544H59.0945V252.864ZM55.6065 255.184C53.7345 255.184 52.3745 256.64 52.3745 258.704C52.3745 260.752 53.7345 262.208 55.6065 262.208C57.4785 262.208 58.8385 260.752 58.8385 258.704C58.8385 256.64 57.4785 255.184 55.6065 255.184ZM55.6065 260.448C54.7905 260.448 54.2305 259.808 54.2305 258.704C54.2305 257.6 54.7905 256.944 55.6065 256.944C56.4225 256.944 56.9825 257.6 56.9825 258.704C56.9825 259.808 56.4225 260.448 55.6065 260.448ZM79.8133 263.664V261.952H76.8533V258.352C77.9573 257.664 78.6293 256.608 78.6293 255.328C78.6293 252.912 76.3093 251.36 73.1253 251.36C69.9733 251.36 67.6373 252.912 67.6373 255.328C67.6213 256.608 68.2613 257.664 69.4133 258.352V261.952H66.4693V263.664H79.8133ZM73.1253 253.024C75.1733 253.024 76.5493 253.856 76.5493 255.328C76.5493 256.8 75.1733 257.632 73.1253 257.632C71.0773 257.632 69.7173 256.8 69.7173 255.328C69.7173 253.856 71.0773 253.024 73.1253 253.024ZM74.7573 261.952H71.5093V259.136C72.0213 259.232 72.5653 259.28 73.1253 259.28C73.7013 259.28 74.2453 259.232 74.7573 259.136V261.952Z" fill="#00B28F"/>
<path d="M33.449 301.472V301.648C33.449 303.392 33.449 305.376 32.937 308L34.585 308.192C35.097 305.392 35.097 303.456 35.097 301.648V300.128H24.697V301.472H33.449ZM36.457 309.984H31.609V305.312H29.977V309.984H28.041V305.312H26.409V309.984H23.401V311.344H36.457V309.984ZM46.2957 301.296V300.08H43.0157V298.72H41.3517V300.08H38.0397V301.296H46.2957ZM51.0957 303.68H49.1117V298.768H47.4637V310.08H49.1117V305.04H51.0957V303.68ZM46.8237 307.888L46.6958 306.752C45.5278 306.928 44.2957 307.024 43.0157 307.104V306.192C44.6157 306 45.6077 305.2 45.6077 304.032C45.6077 302.624 44.2957 301.808 42.1677 301.808C40.0397 301.808 38.7277 302.624 38.7277 304.032C38.7277 305.248 39.7357 306 41.3517 306.192V307.184C40.0077 307.232 38.7597 307.232 37.6717 307.232L37.8637 308.544C40.3757 308.544 43.7837 308.448 46.8237 307.888ZM40.2797 304.032C40.2797 303.344 41.0157 302.928 42.1677 302.928C43.3197 302.928 44.0557 303.344 44.0557 304.032C44.0557 304.72 43.3197 305.104 42.1677 305.104C41.0157 305.104 40.2797 304.72 40.2797 304.032ZM41.4157 311.616V309.36H39.7677V312.96H49.6077V311.616H41.4157ZM64.5025 298.784H62.9345V304.768H61.3985V299.088H59.8625V312.56H61.3985V306.128H62.9345V313.232H64.5025V298.784ZM56.5345 301.136V299.2H54.9025V301.136H52.1665V302.464H59.2385V301.136H56.5345ZM55.7185 303.28C53.8785 303.28 52.5825 304.64 52.5825 306.64C52.5825 308.624 53.8785 310 55.7185 310C57.5585 310 58.8545 308.624 58.8545 306.64C58.8545 304.64 57.5585 303.28 55.7185 303.28ZM55.7185 308.624C54.7425 308.624 54.0545 307.856 54.0545 306.64C54.0545 305.424 54.7425 304.64 55.7185 304.64C56.6945 304.64 57.3825 305.424 57.3825 306.64C57.3825 307.856 56.6945 308.624 55.7185 308.624ZM79.6853 310.112H76.5973V306.352C77.7493 305.696 78.4373 304.672 78.4373 303.392C78.4373 301.088 76.1973 299.616 73.1253 299.616C70.0373 299.616 67.8133 301.088 67.8133 303.392C67.8133 304.672 68.5013 305.712 69.6533 306.352V310.112H66.5973V311.456H79.6853V310.112ZM73.1253 300.912C75.3013 300.912 76.8213 301.872 76.8213 303.392C76.8213 304.928 75.3013 305.888 73.1253 305.888C70.9333 305.888 69.4133 304.928 69.4133 303.392C69.4133 301.872 70.9333 300.912 73.1253 300.912ZM71.3013 310.112V306.976C71.8613 307.104 72.4693 307.168 73.1253 307.168C73.7653 307.168 74.3893 307.104 74.9493 306.96V310.112H71.3013Z" fill="#9E9E9E"/>
<path d="M32.793 355.936L34.905 356.144C35.417 353.152 35.401 351.12 35.401 349.328V347.904H24.569V349.584H33.289C33.289 351.296 33.257 353.248 32.793 355.936ZM36.617 359.6V357.904H31.785V353.248H29.721V357.904H28.153V353.248H26.073V357.904H23.273V359.6H36.617ZM37.8637 349.344H46.2317V347.84H43.1117V346.576H40.9997V347.84H37.8637V349.344ZM51.2078 353.184V351.456H49.3518V346.624H47.2397V358.144H49.3518V353.184H51.2078ZM46.7597 356.064L46.5997 354.624C45.4478 354.8 44.3277 354.88 43.1117 354.96V354.208C44.6637 353.968 45.6397 353.168 45.6397 352.016C45.6397 350.608 44.2157 349.728 42.0557 349.728C39.8797 349.728 38.4557 350.608 38.4557 352.016C38.4557 353.168 39.3997 353.968 40.9997 354.208V355.056C39.7197 355.104 38.5357 355.104 37.4957 355.104L37.7197 356.72C40.2317 356.72 43.7037 356.656 46.7597 356.064ZM40.4557 352.016C40.4557 351.44 41.0317 351.136 42.0557 351.136C43.0797 351.136 43.6397 351.44 43.6397 352.016C43.6397 352.576 43.0797 352.88 42.0557 352.88C41.0317 352.88 40.4557 352.576 40.4557 352.016ZM49.8477 359.44H41.6557V357.424H39.5437V361.12H49.8477V359.44ZM64.7105 361.36V346.624H62.7105V352.64H61.5905V346.912H59.6225V360.752H61.5905V354.336H62.7105V361.36H64.7105ZM59.0945 348.864H56.6465V347.04H54.5665V348.864H52.0545V350.544H59.0945V348.864ZM55.6065 351.184C53.7345 351.184 52.3745 352.64 52.3745 354.704C52.3745 356.752 53.7345 358.208 55.6065 358.208C57.4785 358.208 58.8385 356.752 58.8385 354.704C58.8385 352.64 57.4785 351.184 55.6065 351.184ZM55.6065 356.448C54.7905 356.448 54.2305 355.808 54.2305 354.704C54.2305 353.6 54.7905 352.944 55.6065 352.944C56.4225 352.944 56.9825 353.6 56.9825 354.704C56.9825 355.808 56.4225 356.448 55.6065 356.448ZM79.8133 359.664V357.952H76.8533V354.352C77.9573 353.664 78.6293 352.608 78.6293 351.328C78.6293 348.912 76.3093 347.36 73.1253 347.36C69.9733 347.36 67.6373 348.912 67.6373 351.328C67.6213 352.608 68.2613 353.664 69.4133 354.352V357.952H66.4693V359.664H79.8133ZM73.1253 349.024C75.1733 349.024 76.5493 349.856 76.5493 351.328C76.5493 352.8 75.1733 353.632 73.1253 353.632C71.0773 353.632 69.7173 352.8 69.7173 351.328C69.7173 349.856 71.0773 349.024 73.1253 349.024ZM74.7573 357.952H71.5093V355.136C72.0213 355.232 72.5653 355.28 73.1253 355.28C73.7013 355.28 74.2453 355.232 74.7573 355.136V357.952Z" fill="#00B28F"/>
<path d="M35.737 394.784H34.169V398.32H32.521V395.056H30.969V408.544H32.521V403.92H34.169V409.216H35.737V394.784ZM26.649 395.904C24.793 395.904 23.545 397.856 23.545 401.024C23.545 404.176 24.793 406.16 26.649 406.16C28.505 406.16 29.753 404.176 29.753 401.024C29.753 397.856 28.505 395.904 26.649 395.904ZM26.649 404.608C25.673 404.608 25.065 403.344 25.065 401.024C25.065 398.704 25.673 397.456 26.649 397.456C27.625 397.456 28.233 398.704 28.233 401.024C28.233 403.344 27.625 404.608 26.649 404.608ZM34.169 402.56H32.521V399.68H34.169V402.56ZM49.7198 394.784H48.0717V409.232H49.7198V394.784ZM45.4637 396.304H38.6157V397.648H43.7677C43.4957 400.976 41.6877 403.504 37.8957 405.344L38.7757 406.656C43.7357 404.256 45.4637 400.608 45.4637 396.304ZM64.5025 394.784H62.9345V400.768H61.3985V395.088H59.8625V408.56H61.3985V402.128H62.9345V409.232H64.5025V394.784ZM56.5345 397.136V395.2H54.9025V397.136H52.1665V398.464H59.2385V397.136H56.5345ZM55.7185 399.28C53.8785 399.28 52.5825 400.64 52.5825 402.64C52.5825 404.624 53.8785 406 55.7185 406C57.5585 406 58.8545 404.624 58.8545 402.64C58.8545 400.64 57.5585 399.28 55.7185 399.28ZM55.7185 404.624C54.7425 404.624 54.0545 403.856 54.0545 402.64C54.0545 401.424 54.7425 400.64 55.7185 400.64C56.6945 400.64 57.3825 401.424 57.3825 402.64C57.3825 403.856 56.6945 404.624 55.7185 404.624ZM79.6853 406.112H76.5973V402.352C77.7493 401.696 78.4373 400.672 78.4373 399.392C78.4373 397.088 76.1973 395.616 73.1253 395.616C70.0373 395.616 67.8133 397.088 67.8133 399.392C67.8133 400.672 68.5013 401.712 69.6533 402.352V406.112H66.5973V407.456H79.6853V406.112ZM73.1253 396.912C75.3013 396.912 76.8213 397.872 76.8213 399.392C76.8213 400.928 75.3013 401.888 73.1253 401.888C70.9333 401.888 69.4133 400.928 69.4133 399.392C69.4133 397.872 70.9333 396.912 73.1253 396.912ZM71.3013 406.112V402.976C71.8613 403.104 72.4693 403.168 73.1253 403.168C73.7653 403.168 74.3893 403.104 74.9493 402.96V406.112H71.3013Z" fill="#9E9E9E"/>
<path d="M35.913 457.36V442.624H33.913V446.128H32.681V442.864H30.713V456.704H32.681V452.128H33.913V457.36H35.913ZM26.601 443.68C24.633 443.68 23.401 445.696 23.401 449.024C23.401 452.368 24.633 454.384 26.601 454.384C28.537 454.384 29.785 452.368 29.785 449.024C29.785 445.696 28.537 443.68 26.601 443.68ZM26.601 452.4C25.785 452.4 25.321 451.28 25.321 449.024C25.321 446.768 25.785 445.664 26.601 445.664C27.385 445.664 27.865 446.768 27.865 449.024C27.865 451.28 27.385 452.4 26.601 452.4ZM33.913 447.856V450.416H32.681V447.856H33.913ZM49.9438 457.36V442.624H47.8158V457.36H49.9438ZM45.5597 444.16H38.4877V445.84H43.3997C43.0957 449.104 41.4637 451.424 37.7037 453.216L38.8077 454.88C44.0397 452.368 45.5597 448.656 45.5597 444.16ZM64.7105 457.36V442.624H62.7105V448.64H61.5905V442.912H59.6225V456.752H61.5905V450.336H62.7105V457.36H64.7105ZM59.0945 444.864H56.6465V443.04H54.5665V444.864H52.0545V446.544H59.0945V444.864ZM55.6065 447.184C53.7345 447.184 52.3745 448.64 52.3745 450.704C52.3745 452.752 53.7345 454.208 55.6065 454.208C57.4785 454.208 58.8385 452.752 58.8385 450.704C58.8385 448.64 57.4785 447.184 55.6065 447.184ZM55.6065 452.448C54.7905 452.448 54.2305 451.808 54.2305 450.704C54.2305 449.6 54.7905 448.944 55.6065 448.944C56.4225 448.944 56.9825 449.6 56.9825 450.704C56.9825 451.808 56.4225 452.448 55.6065 452.448ZM79.8133 455.664V453.952H76.8533V450.352C77.9573 449.664 78.6293 448.608 78.6293 447.328C78.6293 444.912 76.3093 443.36 73.1253 443.36C69.9733 443.36 67.6373 444.912 67.6373 447.328C67.6213 448.608 68.2613 449.664 69.4133 450.352V453.952H66.4693V455.664H79.8133ZM73.1253 445.024C75.1733 445.024 76.5493 445.856 76.5493 447.328C76.5493 448.8 75.1733 449.632 73.1253 449.632C71.0773 449.632 69.7173 448.8 69.7173 447.328C69.7173 445.856 71.0773 445.024 73.1253 445.024ZM74.7573 453.952H71.5093V451.136C72.0213 451.232 72.5653 451.28 73.1253 451.28C73.7013 451.28 74.2453 451.232 74.7573 451.136V453.952Z" fill="#00B28F"/>
</svg>
