<svg width="88" height="96" viewBox="0 0 88 96" fill="none" xmlns="http://www.w3.org/2000/svg">
<path d="M25.949 13.472V13.648C25.949 14.5227 25.9277 15.472 25.885 16.496C25.8423 17.52 25.693 18.688 25.437 20L27.085 20.192C27.213 19.488 27.309 18.8373 27.373 18.24C27.4477 17.6427 27.501 17.0827 27.533 16.56C27.565 16.0267 27.581 15.52 27.581 15.04C27.5917 14.56 27.597 14.096 27.597 13.648V12.128H17.197V13.472H25.949ZM28.957 21.984H24.109V17.312H22.477V21.984H20.541V17.312H18.909V21.984H15.901V23.344H28.957V21.984ZM38.7957 13.296V12.08H35.5157V10.72H33.8517V12.08H30.5397V13.296H38.7957ZM43.5957 15.68H41.6117V10.768H39.9637V22.08H41.6117V17.04H43.5957V15.68ZM39.3237 19.888L39.1958 18.752C38.6091 18.8373 38.0064 18.9067 37.3877 18.96C36.7797 19.0133 36.1557 19.0613 35.5157 19.104V18.192C36.3157 18.096 36.9451 17.8613 37.4037 17.488C37.8731 17.104 38.1077 16.6187 38.1077 16.032C38.1077 15.328 37.7984 14.784 37.1797 14.4C36.5717 14.0053 35.7344 13.808 34.6677 13.808C33.6011 13.808 32.7584 14.0053 32.1397 14.4C31.5317 14.784 31.2277 15.328 31.2277 16.032C31.2277 16.64 31.4624 17.1307 31.9317 17.504C32.4011 17.8667 33.0411 18.096 33.8517 18.192V19.184C33.1797 19.2053 32.5344 19.2213 31.9157 19.232C31.2971 19.232 30.7157 19.232 30.1717 19.232L30.3637 20.544C30.9931 20.544 31.6704 20.5387 32.3957 20.528C33.1211 20.5067 33.8677 20.4747 34.6357 20.432C35.4144 20.3787 36.1984 20.3093 36.9877 20.224C37.7877 20.1387 38.5664 20.0267 39.3237 19.888ZM32.7797 16.032C32.7797 15.6907 32.9504 15.424 33.2917 15.232C33.6331 15.0293 34.0917 14.928 34.6677 14.928C35.2437 14.928 35.7024 15.0293 36.0437 15.232C36.3851 15.424 36.5557 15.6907 36.5557 16.032C36.5557 16.3733 36.3851 16.64 36.0437 16.832C35.7024 17.0133 35.2437 17.104 34.6677 17.104C34.0917 17.104 33.6331 17.0133 33.2917 16.832C32.9504 16.64 32.7797 16.3733 32.7797 16.032ZM33.9157 23.616V21.36H32.2677V24.96H42.1077V23.616H33.9157ZM57.0025 10.784H55.4345V16.768H53.8985V11.088H52.3625V24.56H53.8985V18.128H55.4345V25.232H57.0025V10.784ZM49.0345 13.136V11.2H47.4025V13.136H44.6665V14.464H51.7385V13.136H49.0345ZM48.2185 15.28C47.7598 15.28 47.3385 15.36 46.9545 15.52C46.5705 15.68 46.2398 15.9093 45.9625 16.208C45.6852 16.5067 45.4665 16.864 45.3065 17.28C45.1572 17.6853 45.0825 18.1387 45.0825 18.64C45.0825 19.1307 45.1572 19.584 45.3065 20C45.4665 20.416 45.6852 20.7733 45.9625 21.072C46.2398 21.36 46.5705 21.5893 46.9545 21.76C47.3385 21.92 47.7598 22 48.2185 22C48.6772 22 49.0985 21.92 49.4825 21.76C49.8665 21.5893 50.1972 21.36 50.4745 21.072C50.7518 20.7733 50.9652 20.416 51.1145 20C51.2745 19.584 51.3545 19.1307 51.3545 18.64C51.3545 18.1387 51.2745 17.6853 51.1145 17.28C50.9652 16.864 50.7518 16.5067 50.4745 16.208C50.1972 15.9093 49.8665 15.68 49.4825 15.52C49.0985 15.36 48.6772 15.28 48.2185 15.28ZM48.2185 20.624C47.7278 20.624 47.3278 20.448 47.0185 20.096C46.7092 19.7333 46.5545 19.248 46.5545 18.64C46.5545 18.032 46.7092 17.5467 47.0185 17.184C47.3278 16.8213 47.7278 16.64 48.2185 16.64C48.7092 16.64 49.1092 16.8213 49.4185 17.184C49.7278 17.5467 49.8825 18.032 49.8825 18.64C49.8825 19.248 49.7278 19.7333 49.4185 20.096C49.1092 20.448 48.7092 20.624 48.2185 20.624ZM72.1853 22.112H69.0973V18.352C69.6733 18.0213 70.1213 17.6053 70.4413 17.104C70.7719 16.6027 70.9373 16.032 70.9373 15.392C70.9373 14.816 70.8039 14.2987 70.5373 13.84C70.2706 13.3707 69.9026 12.9707 69.4333 12.64C68.9639 12.3093 68.4039 12.0587 67.7533 11.888C67.1026 11.7067 66.3933 11.616 65.6253 11.616C64.8573 11.616 64.1479 11.7067 63.4973 11.888C62.8466 12.0587 62.2813 12.3093 61.8013 12.64C61.3319 12.9707 60.9639 13.3707 60.6973 13.84C60.4413 14.2987 60.3133 14.816 60.3133 15.392C60.3133 16.032 60.4733 16.608 60.7933 17.12C61.1239 17.6213 61.5773 18.032 62.1533 18.352V22.112H59.0973V23.456H72.1853V22.112ZM65.6253 12.912C66.1693 12.912 66.6653 12.9707 67.1133 13.088C67.5719 13.2053 67.9613 13.3707 68.2812 13.584C68.6119 13.7973 68.8679 14.0587 69.0493 14.368C69.2306 14.6667 69.3213 15.008 69.3213 15.392C69.3213 15.776 69.2306 16.1227 69.0493 16.432C68.8679 16.7413 68.6119 17.0027 68.2812 17.216C67.9613 17.4293 67.5719 17.5947 67.1133 17.712C66.6653 17.8293 66.1693 17.888 65.6253 17.888C65.0813 17.888 64.5799 17.8293 64.1213 17.712C63.6626 17.5947 63.2679 17.4293 62.9373 17.216C62.6173 17.0027 62.3666 16.7413 62.1853 16.432C62.0039 16.1227 61.9133 15.776 61.9133 15.392C61.9133 15.008 62.0039 14.6667 62.1853 14.368C62.3666 14.0587 62.6173 13.7973 62.9373 13.584C63.2679 13.3707 63.6626 13.2053 64.1213 13.088C64.5799 12.9707 65.0813 12.912 65.6253 12.912ZM63.8013 22.112V18.976C64.3666 19.104 64.9746 19.168 65.6253 19.168C65.9453 19.168 66.2599 19.152 66.5693 19.12C66.8786 19.088 67.1719 19.0347 67.4493 18.96V22.112H63.8013Z" fill="#9E9E9E"/>
<path d="M25.293 67.936L27.405 68.144C27.917 65.152 27.901 63.12 27.901 61.328V59.904H17.069V61.584H25.789C25.789 63.296 25.757 65.248 25.293 67.936ZM29.117 71.6V69.904H24.285V65.248H22.221V69.904H20.653V65.248H18.573V69.904H15.773V71.6H29.117ZM30.3637 61.344H38.7317V59.84H35.6117V58.576H33.4997V59.84H30.3637V61.344ZM43.7078 65.184V63.456H41.8518V58.624H39.7397V70.144H41.8518V65.184H43.7078ZM39.2597 68.064L39.0997 66.624C37.9478 66.8 36.8277 66.88 35.6117 66.96V66.208C37.1637 65.968 38.1397 65.168 38.1397 64.016C38.1397 62.608 36.7157 61.728 34.5557 61.728C32.3797 61.728 30.9557 62.608 30.9557 64.016C30.9557 65.168 31.8997 65.968 33.4997 66.208V67.056C32.2197 67.104 31.0357 67.104 29.9957 67.104L30.2197 68.72C32.7317 68.72 36.2037 68.656 39.2597 68.064ZM32.9557 64.016C32.9557 63.44 33.5317 63.136 34.5557 63.136C35.5797 63.136 36.1397 63.44 36.1397 64.016C36.1397 64.576 35.5797 64.88 34.5557 64.88C33.5317 64.88 32.9557 64.576 32.9557 64.016ZM42.3477 71.44H34.1557V69.424H32.0437V73.12H42.3477V71.44ZM57.2105 73.36V58.624H55.2105V64.64H54.0905V58.912H52.1225V72.752H54.0905V66.336H55.2105V73.36H57.2105ZM51.5945 60.864H49.1465V59.04H47.0665V60.864H44.5545V62.544H51.5945V60.864ZM48.1065 63.184C46.2345 63.184 44.8745 64.64 44.8745 66.704C44.8745 68.752 46.2345 70.208 48.1065 70.208C49.9785 70.208 51.3385 68.752 51.3385 66.704C51.3385 64.64 49.9785 63.184 48.1065 63.184ZM48.1065 68.448C47.2905 68.448 46.7305 67.808 46.7305 66.704C46.7305 65.6 47.2905 64.944 48.1065 64.944C48.9225 64.944 49.4825 65.6 49.4825 66.704C49.4825 67.808 48.9225 68.448 48.1065 68.448ZM72.3133 71.664V69.952H69.3533V66.352C70.4573 65.664 71.1293 64.608 71.1293 63.328C71.1293 60.912 68.8093 59.36 65.6253 59.36C62.4733 59.36 60.1373 60.912 60.1373 63.328C60.1213 64.608 60.7613 65.664 61.9133 66.352V69.952H58.9693V71.664H72.3133ZM65.6253 61.024C67.6733 61.024 69.0493 61.856 69.0493 63.328C69.0493 64.8 67.6733 65.632 65.6253 65.632C63.5773 65.632 62.2173 64.8 62.2173 63.328C62.2173 61.856 63.5773 61.024 65.6253 61.024ZM67.2573 69.952H64.0093V67.136C64.5213 67.232 65.0653 67.28 65.6253 67.28C66.2013 67.28 66.7453 67.232 67.2573 67.136V69.952Z" fill="#00B28F"/>
</svg>
