<svg width="420" height="278" viewBox="0 0 420 278" fill="none" xmlns="http://www.w3.org/2000/svg">
<g opacity="0.1" filter="url(#filter0_f)">
<path d="M406.819 264.332L315.984 262.068L209.946 268L111.597 262.821L10.0527 264.891L77.2438 153.598L147.739 143.838L209.946 151.561L271.746 143.328L342.387 153.682L406.819 264.332Z" fill="black"/>
</g>
<path d="M420 265.669L315.984 254.06L209.946 268L111.88 254.537L0 265.967L77.2434 129.811L147.739 120.051L209.946 127.774L271.746 119.541L342.387 129.895L420 265.669Z" fill="white"/>
<path d="M414.388 262.167L315.759 251.159L209.946 264.15L112.034 251.159L5.50146 262.167L78.8696 132.06L148.244 122.263L209.946 130.184L272.105 122.262L340.842 132.058L414.388 262.167Z" fill="#E6ECF8"/>
<path d="M308.062 154.464C303.759 154.765 309.277 151.083 309.044 148.587C308.815 146.113 304.413 143.195 299.08 143.075C293.748 142.954 280.136 144.892 276.347 144.529C272.558 144.165 267.927 140.591 265.261 140.712C262.595 140.833 261.192 142.226 262.735 143.92C264.279 145.614 265.003 147.295 262.757 148.415C260.702 149.442 253.707 150.414 246.83 148.173C235.942 144.621 231.89 143.039 228.12 144.296C225.453 145.185 231.723 147.918 232.003 148.707C232.283 149.496 226.243 149.974 224.846 150.282C221.641 150.991 220.916 152.649 223.162 153.735C229.008 156.564 227.605 159.23 223.676 159.808C217.875 160.657 214.139 158.88 208.429 158.596C201.927 158.273 196.758 159.452 193.648 161.544C191.167 163.212 192.853 165.672 188.924 166.156C184.996 166.641 180.224 165.369 176.154 166.641C172.085 167.913 171.847 172.606 163.99 175.397C158.766 177.253 149.583 177.699 141.725 176.608C133.866 175.518 130.125 175.91 127.179 176.637C124.232 177.364 125.074 179.241 120.726 179.241C116.378 179.241 111.859 176.661 109.662 179.162C107.759 181.329 108.486 182.11 111.744 183.664C116.291 185.831 113.439 186.774 112.025 187.601C109.452 189.107 113.323 193.053 108.324 191.599C103.426 190.149 98.3497 189.398 93.2435 189.37C85.618 189.503 77.6447 189.6 75.9606 190.57C74.2766 191.541 73.8117 192.627 74.8836 193.853C77.129 196.287 80.1307 197.884 83.3982 198.385C87.7481 198.93 89.8513 197.9 92.0985 199.172C94.3456 200.445 90.5566 201.474 93.3617 202.381C96.1668 203.287 102.202 204.924 97.5716 205.409C92.9408 205.894 90.4601 203.988 88.5556 205.762C86.6511 207.536 91.4892 209.511 95.4655 211.164C97.6282 212.064 94.1755 214.74 102.06 216.305C110.151 217.913 117.497 216.011 118.9 214.375C120.304 212.74 119.181 208.802 119.883 206.803C120.585 204.804 123.252 203.895 125.215 204.38C127.179 204.864 123.021 208.671 123.483 211.525C123.728 213.034 128.161 214.529 132.651 213.358C136.423 212.375 136.527 209.775 140.364 208.975C147.62 207.462 151.036 210.923 152.018 213.225C153 215.528 149.321 219.431 156.601 221.375C162.166 222.861 169.279 223.463 171.664 221.706C174.05 219.949 169.532 215.838 172.366 215.405C176.458 214.78 174.326 219.682 179.382 220.069C182.703 220.324 184.176 218.9 184.036 216.295C183.864 213.087 183.915 211.008 189.276 209.952C198.663 208.104 195.416 203.231 199.406 202.994C203.097 202.776 201.976 205.772 204.782 206.863C207.588 207.953 217.38 205.521 219.002 208.632C220.686 211.863 225.925 212.226 230.183 209.165C235.231 205.535 237.835 202.88 232.147 201.168C227.959 199.908 224.423 197.848 227.328 196.213C231.073 194.104 238.414 195.525 242.483 196.92C246.925 198.433 251.628 199.018 256.303 198.638C263.39 198.123 267.507 196.506 268.77 194.568C270.033 192.629 275.366 193.356 278.312 191.781C281.259 190.206 283.662 188.264 280.979 185.662C279.387 184.12 279.481 182.766 282.241 181.999C284.916 181.255 288.903 181.866 292.438 180.464C297.349 178.517 297.572 176.506 296.134 175.546C293.279 173.639 287.346 174.644 286.662 173.274C285.655 171.257 294.17 172.456 297.959 170.639C301.748 168.821 302.028 166.701 299.221 163.309C296.415 159.916 295.994 158.704 302.028 158.947C308.063 159.189 310.671 160.22 312.832 160.655C315.639 161.22 320.692 161.128 320.411 158.644C320.131 156.161 313.254 154.1 308.062 154.464Z" fill="#C4F0E0"/>
<path d="M98.712 222.264C97.4494 221.052 94.9938 221.113 93.1692 220.386C91.3446 219.659 91.6736 218.617 89.7091 218.495C87.7446 218.374 83.6409 218.485 82.131 219.465C80.6799 220.405 82.645 222.781 82.131 223.647C81.7124 224.351 79.6977 224.961 80.3801 226.748C81.2807 229.107 84.6568 229.886 84.6568 230.856C84.6568 231.825 81.01 234.629 87.977 233.586C95.0395 232.527 95.2171 231.67 94.1983 230.383C92.9356 228.788 94.011 227.778 95.3221 227.039C96.8121 226.198 101.223 224.672 98.712 222.264Z" fill="#C4F0E0"/>
<path d="M203.095 211.529C200.126 211.597 192.897 213.722 192.29 214.922C191.623 216.24 194.254 217.89 197.693 219.344C201.131 220.798 204.92 219.526 207.586 220.798C210.252 222.07 209.971 225.523 214.883 224.433C219.795 223.343 227.793 220.919 222.882 219.283C218.359 217.716 213.951 215.834 209.69 213.65C207.586 212.499 205.761 211.469 203.095 211.529Z" fill="#C4F0E0"/>
<g filter="url(#filter1_b)">
<path d="M420 265.669L315.984 254.06L209.946 268L111.88 254.537L0 265.967L77.2434 129.811L147.739 120.051L209.946 127.774L271.746 119.541L342.387 129.895L420 265.669Z" fill="url(#paint0_linear)" fill-opacity="0.01"/>
</g>
<g opacity="0.7" filter="url(#filter2_f)">
<path d="M161.605 192.006C159.889 191.016 157.559 190.462 155.126 190.465C152.694 190.469 150.359 191.029 148.636 192.022C143.464 195.004 146.218 200.877 146.218 200.877C146.218 200.877 156.461 202.432 161.576 199.483C163.3 198.489 164.271 197.143 164.277 195.741C164.282 194.339 163.321 192.995 161.605 192.006Z" fill="url(#paint1_linear)" fill-opacity="0.3"/>
</g>
<path d="M145.595 179.337C143.168 179.337 140.841 180.304 139.125 182.025C137.409 183.747 136.445 186.082 136.445 188.516C136.445 195.82 145.595 201.068 145.595 201.068C145.595 201.068 154.745 195.741 154.745 188.516C154.745 186.082 153.781 183.747 152.065 182.025C150.349 180.304 148.022 179.337 145.595 179.337Z" fill="#FFDD37"/>
<path d="M145.595 179.337C143.168 179.337 140.841 180.304 139.125 182.025C137.409 183.747 136.445 186.082 136.445 188.516C136.445 195.82 145.595 201.068 145.595 201.068C145.595 201.068 154.745 195.741 154.745 188.516C154.745 186.082 153.781 183.747 152.065 182.025C150.349 180.304 148.022 179.337 145.595 179.337Z" fill="url(#paint2_linear)" fill-opacity="0.2"/>
<g filter="url(#filter3_i)">
<path d="M145.594 192.79C147.857 192.79 149.692 190.949 149.692 188.679C149.692 186.409 147.857 184.569 145.594 184.569C143.332 184.569 141.497 186.409 141.497 188.679C141.497 190.949 143.332 192.79 145.594 192.79Z" fill="#FFF5D9"/>
</g>
<g opacity="0.4" filter="url(#filter4_f)">
<path d="M233.061 175.355C231.345 174.366 229.014 173.812 226.582 173.815C224.15 173.818 221.815 174.378 220.091 175.372C214.919 178.353 217.674 184.226 217.674 184.226C217.674 184.226 227.916 185.782 233.031 182.832C234.755 181.839 235.727 180.493 235.732 179.09C235.738 177.688 234.777 176.344 233.061 175.355Z" fill="url(#paint3_linear)" fill-opacity="0.3"/>
</g>
<path d="M217.294 162.838C214.867 162.839 212.54 163.806 210.824 165.528C209.109 167.249 208.145 169.584 208.145 172.018C208.145 179.322 217.295 184.57 217.295 184.57C217.295 184.57 226.445 179.243 226.445 172.018C226.445 170.813 226.208 169.619 225.748 168.505C225.289 167.391 224.615 166.379 223.765 165.527C222.915 164.674 221.906 163.998 220.796 163.537C219.685 163.075 218.495 162.838 217.294 162.838Z" fill="#FFDD37"/>
<path d="M217.294 162.838C214.867 162.839 212.54 163.806 210.824 165.528C209.109 167.249 208.145 169.584 208.145 172.018C208.145 179.322 217.295 184.57 217.295 184.57C217.295 184.57 226.445 179.243 226.445 172.018C226.445 170.813 226.208 169.619 225.748 168.505C225.289 167.391 224.615 166.379 223.765 165.527C222.915 164.674 221.906 163.998 220.796 163.537C219.685 163.075 218.495 162.838 217.294 162.838Z" fill="url(#paint4_linear)" fill-opacity="0.2"/>
<g filter="url(#filter5_i)">
<path d="M217.293 176.292C219.556 176.292 221.39 174.452 221.39 172.181C221.39 169.911 219.556 168.071 217.293 168.071C215.03 168.071 213.195 169.911 213.195 172.181C213.195 174.452 215.03 176.292 217.293 176.292Z" fill="#FFF5D9"/>
</g>
<g opacity="0.6" filter="url(#filter6_f)">
<path d="M263.231 184.87C261.515 183.88 259.185 183.326 256.752 183.329C254.32 183.333 251.985 183.893 250.261 184.886C245.09 187.868 247.844 193.741 247.844 193.741C247.844 193.741 258.087 195.296 263.202 192.347C264.926 191.353 265.897 190.007 265.903 188.605C265.908 187.203 264.947 185.859 263.231 184.87Z" fill="url(#paint5_linear)" fill-opacity="0.3"/>
</g>
<path d="M246.952 172.18C245.751 172.18 244.561 172.417 243.451 172.879C242.341 173.34 241.332 174.016 240.482 174.869C239.633 175.721 238.959 176.733 238.499 177.847C238.039 178.96 237.803 180.154 237.803 181.359C237.803 188.663 246.952 193.911 246.952 193.911C246.952 193.911 256.103 188.584 256.103 181.359C256.103 180.154 255.866 178.96 255.406 177.846C254.947 176.733 254.272 175.721 253.423 174.868C252.573 174.016 251.564 173.34 250.454 172.878C249.344 172.417 248.154 172.18 246.952 172.18Z" fill="#FFDD37"/>
<path d="M246.952 172.18C245.751 172.18 244.561 172.417 243.451 172.879C242.341 173.34 241.332 174.016 240.482 174.869C239.633 175.721 238.959 176.733 238.499 177.847C238.039 178.96 237.803 180.154 237.803 181.359C237.803 188.663 246.952 193.911 246.952 193.911C246.952 193.911 256.103 188.584 256.103 181.359C256.103 180.154 255.866 178.96 255.406 177.846C254.947 176.733 254.272 175.721 253.423 174.868C252.573 174.016 251.564 173.34 250.454 172.878C249.344 172.417 248.154 172.18 246.952 172.18Z" fill="url(#paint6_linear)" fill-opacity="0.2"/>
<g filter="url(#filter7_i)">
<path d="M246.952 185.632C249.215 185.632 251.05 183.792 251.05 181.522C251.05 179.252 249.215 177.411 246.952 177.411C244.689 177.411 242.855 179.252 242.855 181.522C242.855 183.792 244.689 185.632 246.952 185.632Z" fill="#FFF5D9"/>
</g>
<g opacity="0.3" filter="url(#filter8_f)">
<path d="M285.461 145.225C283.745 144.235 281.415 143.681 278.983 143.684C276.551 143.688 274.216 144.248 272.492 145.241C267.32 148.223 270.075 154.096 270.075 154.096C270.075 154.096 280.317 155.651 285.432 152.702C287.156 151.708 288.128 150.362 288.133 148.96C288.138 147.558 287.177 146.214 285.461 145.225Z" fill="url(#paint7_linear)" fill-opacity="0.3"/>
</g>
<path d="M269.068 132.913C266.641 132.913 264.314 133.88 262.598 135.601C260.882 137.323 259.918 139.658 259.918 142.092C259.918 149.396 269.068 154.644 269.068 154.644C269.068 154.644 278.218 149.317 278.218 142.092C278.218 140.887 277.981 139.693 277.522 138.579C277.062 137.466 276.388 136.454 275.538 135.601C274.689 134.749 273.68 134.073 272.57 133.612C271.46 133.15 270.27 132.913 269.068 132.913Z" fill="#FFDD37"/>
<path d="M269.068 132.913C266.641 132.913 264.314 133.88 262.598 135.601C260.882 137.323 259.918 139.658 259.918 142.092C259.918 149.396 269.068 154.644 269.068 154.644C269.068 154.644 278.218 149.317 278.218 142.092C278.218 140.887 277.981 139.693 277.522 138.579C277.062 137.466 276.388 136.454 275.538 135.601C274.689 134.749 273.68 134.073 272.57 133.612C271.46 133.15 270.27 132.913 269.068 132.913Z" fill="url(#paint8_linear)" fill-opacity="0.2"/>
<g filter="url(#filter9_i)">
<path d="M269.068 146.365C271.331 146.365 273.165 144.525 273.165 142.255C273.165 139.985 271.331 138.144 269.068 138.144C266.805 138.144 264.97 139.985 264.97 142.255C264.97 144.525 266.805 146.365 269.068 146.365Z" fill="#FFF5D9"/>
</g>
<path fill-rule="evenodd" clip-rule="evenodd" d="M179.153 13.6349C186.244 6.55015 195.419 1.94204 205.322 0.491211V39.8333H165.945C167.431 29.905 172.062 20.7196 179.153 13.6349ZM205.321 106.337C193.432 98.0259 169.594 78.4874 165.917 53.3199H205.321V106.337ZM258.144 39.8333C256.657 29.905 252.026 20.7196 244.935 13.6349C237.844 6.55017 228.669 1.9421 218.766 0.491211V39.8333H258.144ZM218.767 106.285V53.3199H258.163C254.459 78.2422 230.645 97.8959 218.767 106.285Z" fill="#FFE97B"/>
<path fill-rule="evenodd" clip-rule="evenodd" d="M179.153 13.6349C186.244 6.55015 195.419 1.94204 205.322 0.491211V39.8333H165.945C167.431 29.905 172.062 20.7196 179.153 13.6349ZM205.321 106.337C193.432 98.0259 169.594 78.4874 165.917 53.3199H205.321V106.337ZM258.144 39.8333C256.657 29.905 252.026 20.7196 244.935 13.6349C237.844 6.55017 228.669 1.9421 218.766 0.491211V39.8333H258.144ZM218.767 106.285V53.3199H258.163C254.459 78.2422 230.645 97.8959 218.767 106.285Z" fill="url(#paint9_linear)" fill-opacity="0.14"/>
<path d="M258.143 39.8333H218.767V0.491196C214.309 -0.163732 209.781 -0.163732 205.323 0.491196V39.8333H165.943C165.602 42.1261 165.43 44.441 165.429 46.7593C165.432 48.955 165.593 51.1477 165.913 53.3199H205.317V106.337C209.372 109.17 212.039 110.702 212.039 110.702C212.039 110.702 214.707 109.148 218.761 106.285V53.3199H258.158C258.484 51.1483 258.649 48.9553 258.651 46.7593C258.652 44.4412 258.482 42.1263 258.143 39.8333Z" fill="#FF896D"/>
<path d="M232.644 28.9245L212.045 40.8553L191.444 28.9245C191.184 28.7737 190.888 28.6943 190.587 28.6943C190.287 28.6944 189.991 28.7739 189.731 28.9248C189.47 29.0758 189.254 29.2928 189.104 29.5542C188.953 29.8156 188.874 30.1123 188.875 30.4141V62.7373C188.874 63.0391 188.953 63.3355 189.104 63.5969C189.254 63.8583 189.47 64.0756 189.731 64.2266C189.991 64.3776 190.287 64.457 190.587 64.4571C190.888 64.4571 191.184 64.3778 191.444 64.2269L212.044 52.2961L232.644 64.2269C232.904 64.3778 233.2 64.4571 233.5 64.4571C233.801 64.457 234.097 64.3776 234.357 64.2266C234.618 64.0756 234.834 63.8583 234.984 63.5969C235.135 63.3355 235.214 63.0391 235.213 62.7373V30.4141C235.213 30.1124 235.134 29.8158 234.984 29.5545C234.834 29.2932 234.618 29.0761 234.357 28.9251C234.097 28.7742 233.802 28.6947 233.501 28.6946C233.2 28.6945 232.905 28.7738 232.644 28.9245Z" fill="#FF6A52"/>
<defs>
<filter id="filter0_f" x="0.0527344" y="133.328" width="416.767" height="144.672" filterUnits="userSpaceOnUse" color-interpolation-filters="sRGB">
<feFlood flood-opacity="0" result="BackgroundImageFix"/>
<feBlend mode="normal" in="SourceGraphic" in2="BackgroundImageFix" result="shape"/>
<feGaussianBlur stdDeviation="5" result="effect1_foregroundBlur"/>
</filter>
<filter id="filter1_b" x="-5" y="114.541" width="430" height="158.459" filterUnits="userSpaceOnUse" color-interpolation-filters="sRGB">
<feFlood flood-opacity="0" result="BackgroundImageFix"/>
<feGaussianBlur in="BackgroundImage" stdDeviation="2.5"/>
<feComposite in2="SourceAlpha" operator="in" result="effect1_backgroundBlur"/>
<feBlend mode="normal" in="SourceGraphic" in2="effect1_backgroundBlur" result="shape"/>
</filter>
<filter id="filter2_f" x="143.485" y="188.465" width="22.791" height="14.8213" filterUnits="userSpaceOnUse" color-interpolation-filters="sRGB">
<feFlood flood-opacity="0" result="BackgroundImageFix"/>
<feBlend mode="normal" in="SourceGraphic" in2="BackgroundImageFix" result="shape"/>
<feGaussianBlur stdDeviation="1" result="effect1_foregroundBlur"/>
</filter>
<filter id="filter3_i" x="141.497" y="184.569" width="8.19482" height="8.2207" filterUnits="userSpaceOnUse" color-interpolation-filters="sRGB">
<feFlood flood-opacity="0" result="BackgroundImageFix"/>
<feBlend mode="normal" in="SourceGraphic" in2="BackgroundImageFix" result="shape"/>
<feColorMatrix in="SourceAlpha" type="matrix" values="0 0 0 0 0 0 0 0 0 0 0 0 0 0 0 0 0 0 127 0" result="hardAlpha"/>
<feOffset/>
<feGaussianBlur stdDeviation="2"/>
<feComposite in2="hardAlpha" operator="arithmetic" k2="-1" k3="1"/>
<feColorMatrix type="matrix" values="0 0 0 0 1 0 0 0 0 1 0 0 0 0 1 0 0 0 1 0"/>
<feBlend mode="normal" in2="shape" result="effect1_innerShadow"/>
</filter>
<filter id="filter4_f" x="214.941" y="171.815" width="22.791" height="14.8213" filterUnits="userSpaceOnUse" color-interpolation-filters="sRGB">
<feFlood flood-opacity="0" result="BackgroundImageFix"/>
<feBlend mode="normal" in="SourceGraphic" in2="BackgroundImageFix" result="shape"/>
<feGaussianBlur stdDeviation="1" result="effect1_foregroundBlur"/>
</filter>
<filter id="filter5_i" x="213.195" y="168.071" width="8.19482" height="8.2207" filterUnits="userSpaceOnUse" color-interpolation-filters="sRGB">
<feFlood flood-opacity="0" result="BackgroundImageFix"/>
<feBlend mode="normal" in="SourceGraphic" in2="BackgroundImageFix" result="shape"/>
<feColorMatrix in="SourceAlpha" type="matrix" values="0 0 0 0 0 0 0 0 0 0 0 0 0 0 0 0 0 0 127 0" result="hardAlpha"/>
<feOffset/>
<feGaussianBlur stdDeviation="2"/>
<feComposite in2="hardAlpha" operator="arithmetic" k2="-1" k3="1"/>
<feColorMatrix type="matrix" values="0 0 0 0 1 0 0 0 0 1 0 0 0 0 1 0 0 0 1 0"/>
<feBlend mode="normal" in2="shape" result="effect1_innerShadow"/>
</filter>
<filter id="filter6_f" x="245.111" y="181.329" width="22.791" height="14.8213" filterUnits="userSpaceOnUse" color-interpolation-filters="sRGB">
<feFlood flood-opacity="0" result="BackgroundImageFix"/>
<feBlend mode="normal" in="SourceGraphic" in2="BackgroundImageFix" result="shape"/>
<feGaussianBlur stdDeviation="1" result="effect1_foregroundBlur"/>
</filter>
<filter id="filter7_i" x="242.855" y="177.411" width="8.19482" height="8.2207" filterUnits="userSpaceOnUse" color-interpolation-filters="sRGB">
<feFlood flood-opacity="0" result="BackgroundImageFix"/>
<feBlend mode="normal" in="SourceGraphic" in2="BackgroundImageFix" result="shape"/>
<feColorMatrix in="SourceAlpha" type="matrix" values="0 0 0 0 0 0 0 0 0 0 0 0 0 0 0 0 0 0 127 0" result="hardAlpha"/>
<feOffset/>
<feGaussianBlur stdDeviation="2"/>
<feComposite in2="hardAlpha" operator="arithmetic" k2="-1" k3="1"/>
<feColorMatrix type="matrix" values="0 0 0 0 1 0 0 0 0 1 0 0 0 0 1 0 0 0 1 0"/>
<feBlend mode="normal" in2="shape" result="effect1_innerShadow"/>
</filter>
<filter id="filter8_f" x="267.342" y="141.684" width="22.791" height="14.8213" filterUnits="userSpaceOnUse" color-interpolation-filters="sRGB">
<feFlood flood-opacity="0" result="BackgroundImageFix"/>
<feBlend mode="normal" in="SourceGraphic" in2="BackgroundImageFix" result="shape"/>
<feGaussianBlur stdDeviation="1" result="effect1_foregroundBlur"/>
</filter>
<filter id="filter9_i" x="264.97" y="138.144" width="8.19482" height="8.2207" filterUnits="userSpaceOnUse" color-interpolation-filters="sRGB">
<feFlood flood-opacity="0" result="BackgroundImageFix"/>
<feBlend mode="normal" in="SourceGraphic" in2="BackgroundImageFix" result="shape"/>
<feColorMatrix in="SourceAlpha" type="matrix" values="0 0 0 0 0 0 0 0 0 0 0 0 0 0 0 0 0 0 127 0" result="hardAlpha"/>
<feOffset/>
<feGaussianBlur stdDeviation="2"/>
<feComposite in2="hardAlpha" operator="arithmetic" k2="-1" k3="1"/>
<feColorMatrix type="matrix" values="0 0 0 0 1 0 0 0 0 1 0 0 0 0 1 0 0 0 1 0"/>
<feBlend mode="normal" in2="shape" result="effect1_innerShadow"/>
</filter>
<linearGradient id="paint0_linear" x1="210" y1="130.452" x2="210" y2="197.364" gradientUnits="userSpaceOnUse">
<stop stop-color="white"/>
<stop offset="1" stop-color="white" stop-opacity="0"/>
</linearGradient>
<linearGradient id="paint1_linear" x1="161.605" y1="192.006" x2="153.928" y2="205.322" gradientUnits="userSpaceOnUse">
<stop stop-opacity="0"/>
<stop offset="1"/>
</linearGradient>
<linearGradient id="paint2_linear" x1="147.688" y1="200.368" x2="141.871" y2="180.839" gradientUnits="userSpaceOnUse">
<stop stop-color="#FF5C00"/>
<stop offset="1" stop-color="#FF5C00" stop-opacity="0"/>
</linearGradient>
<linearGradient id="paint3_linear" x1="233.061" y1="175.355" x2="225.383" y2="188.671" gradientUnits="userSpaceOnUse">
<stop stop-opacity="0"/>
<stop offset="1"/>
</linearGradient>
<linearGradient id="paint4_linear" x1="219.387" y1="183.87" x2="213.57" y2="164.34" gradientUnits="userSpaceOnUse">
<stop stop-color="#FF5C00"/>
<stop offset="1" stop-color="#FF5C00" stop-opacity="0"/>
</linearGradient>
<linearGradient id="paint5_linear" x1="263.231" y1="184.87" x2="255.554" y2="198.186" gradientUnits="userSpaceOnUse">
<stop stop-opacity="0"/>
<stop offset="1"/>
</linearGradient>
<linearGradient id="paint6_linear" x1="249.045" y1="193.211" x2="243.228" y2="173.682" gradientUnits="userSpaceOnUse">
<stop stop-color="#FF5C00"/>
<stop offset="1" stop-color="#FF5C00" stop-opacity="0"/>
</linearGradient>
<linearGradient id="paint7_linear" x1="285.461" y1="145.225" x2="277.784" y2="158.541" gradientUnits="userSpaceOnUse">
<stop stop-opacity="0"/>
<stop offset="1"/>
</linearGradient>
<linearGradient id="paint8_linear" x1="271.16" y1="153.944" x2="265.343" y2="134.415" gradientUnits="userSpaceOnUse">
<stop stop-color="#FF5C00"/>
<stop offset="1" stop-color="#FF5C00" stop-opacity="0"/>
</linearGradient>
<linearGradient id="paint9_linear" x1="264.99" y1="80.7785" x2="213.014" y2="22.2921" gradientUnits="userSpaceOnUse">
<stop stop-color="#FF5C00"/>
<stop offset="1" stop-color="#FF5C00" stop-opacity="0"/>
</linearGradient>
</defs>
</svg>
