<svg width="88" height="68" viewBox="0 0 88 68" fill="none" xmlns="http://www.w3.org/2000/svg">
<path d="M28.237 3.784H26.669V7.32H25.021V4.056H23.469V17.544H25.021V12.92H26.669V18.216H28.237V3.784ZM19.149 4.904C18.6903 4.904 18.269 5.02133 17.885 5.256C17.501 5.49067 17.1703 5.832 16.893 6.28C16.6263 6.71733 16.4183 7.256 16.269 7.896C16.1197 8.52533 16.045 9.23467 16.045 10.024C16.045 10.8133 16.1197 11.528 16.269 12.168C16.4183 12.7973 16.6263 13.336 16.893 13.784C17.1703 14.2213 17.501 14.5627 17.885 14.808C18.269 15.0427 18.6903 15.16 19.149 15.16C19.6183 15.16 20.0397 15.0427 20.413 14.808C20.797 14.5627 21.1223 14.2213 21.389 13.784C21.6663 13.336 21.8797 12.7973 22.029 12.168C22.1783 11.528 22.253 10.8133 22.253 10.024C22.253 9.23467 22.1783 8.52533 22.029 7.896C21.8797 7.256 21.6663 6.71733 21.389 6.28C21.1223 5.832 20.797 5.49067 20.413 5.256C20.0397 5.02133 19.6183 4.904 19.149 4.904ZM19.149 13.608C18.6583 13.608 18.269 13.304 17.981 12.696C17.7037 12.0773 17.565 11.1867 17.565 10.024C17.565 8.86133 17.7037 7.976 17.981 7.368C18.269 6.76 18.6583 6.456 19.149 6.456C19.6397 6.456 20.0237 6.76 20.301 7.368C20.589 7.976 20.733 8.86133 20.733 10.024C20.733 11.1867 20.589 12.0773 20.301 12.696C20.0237 13.304 19.6397 13.608 19.149 13.608ZM26.669 11.56H25.021V8.68H26.669V11.56ZM42.2198 3.784H40.5717V18.232H42.2198V3.784ZM37.9637 5.304H31.1157V6.648H36.2677C36.1291 8.312 35.5904 9.784 34.6517 11.064C33.7131 12.3333 32.2944 13.4267 30.3957 14.344L31.2757 15.656C32.5131 15.0587 33.5584 14.3867 34.4117 13.64C35.2651 12.8827 35.9531 12.0667 36.4757 11.192C37.0091 10.3173 37.3877 9.38933 37.6117 8.408C37.8464 7.416 37.9637 6.38133 37.9637 5.304ZM57.0025 3.784H55.4345V9.768H53.8985V4.088H52.3625V17.56H53.8985V11.128H55.4345V18.232H57.0025V3.784ZM49.0345 6.136V4.2H47.4025V6.136H44.6665V7.464H51.7385V6.136H49.0345ZM48.2185 8.28C47.7598 8.28 47.3385 8.36 46.9545 8.52C46.5705 8.68 46.2398 8.90933 45.9625 9.208C45.6852 9.50667 45.4665 9.864 45.3065 10.28C45.1572 10.6853 45.0825 11.1387 45.0825 11.64C45.0825 12.1307 45.1572 12.584 45.3065 13C45.4665 13.416 45.6852 13.7733 45.9625 14.072C46.2398 14.36 46.5705 14.5893 46.9545 14.76C47.3385 14.92 47.7598 15 48.2185 15C48.6772 15 49.0985 14.92 49.4825 14.76C49.8665 14.5893 50.1972 14.36 50.4745 14.072C50.7518 13.7733 50.9652 13.416 51.1145 13C51.2745 12.584 51.3545 12.1307 51.3545 11.64C51.3545 11.1387 51.2745 10.6853 51.1145 10.28C50.9652 9.864 50.7518 9.50667 50.4745 9.208C50.1972 8.90933 49.8665 8.68 49.4825 8.52C49.0985 8.36 48.6772 8.28 48.2185 8.28ZM48.2185 13.624C47.7278 13.624 47.3278 13.448 47.0185 13.096C46.7092 12.7333 46.5545 12.248 46.5545 11.64C46.5545 11.032 46.7092 10.5467 47.0185 10.184C47.3278 9.82133 47.7278 9.64 48.2185 9.64C48.7092 9.64 49.1092 9.82133 49.4185 10.184C49.7278 10.5467 49.8825 11.032 49.8825 11.64C49.8825 12.248 49.7278 12.7333 49.4185 13.096C49.1092 13.448 48.7092 13.624 48.2185 13.624ZM72.1853 15.112H69.0973V11.352C69.6733 11.0213 70.1213 10.6053 70.4413 10.104C70.7719 9.60267 70.9373 9.032 70.9373 8.392C70.9373 7.816 70.8039 7.29867 70.5373 6.84C70.2706 6.37067 69.9026 5.97067 69.4333 5.64C68.9639 5.30933 68.4039 5.05867 67.7533 4.888C67.1026 4.70667 66.3933 4.616 65.6253 4.616C64.8573 4.616 64.1479 4.70667 63.4973 4.888C62.8466 5.05867 62.2813 5.30933 61.8013 5.64C61.3319 5.97067 60.9639 6.37067 60.6973 6.84C60.4413 7.29867 60.3133 7.816 60.3133 8.392C60.3133 9.032 60.4733 9.608 60.7933 10.12C61.1239 10.6213 61.5773 11.032 62.1533 11.352V15.112H59.0973V16.456H72.1853V15.112ZM65.6253 5.912C66.1693 5.912 66.6653 5.97067 67.1133 6.088C67.5719 6.20533 67.9613 6.37067 68.2812 6.584C68.6119 6.79733 68.8679 7.05867 69.0493 7.368C69.2306 7.66667 69.3213 8.008 69.3213 8.392C69.3213 8.776 69.2306 9.12267 69.0493 9.432C68.8679 9.74133 68.6119 10.0027 68.2812 10.216C67.9613 10.4293 67.5719 10.5947 67.1133 10.712C66.6653 10.8293 66.1693 10.888 65.6253 10.888C65.0813 10.888 64.5799 10.8293 64.1213 10.712C63.6626 10.5947 63.2679 10.4293 62.9373 10.216C62.6173 10.0027 62.3666 9.74133 62.1853 9.432C62.0039 9.12267 61.9133 8.776 61.9133 8.392C61.9133 8.008 62.0039 7.66667 62.1853 7.368C62.3666 7.05867 62.6173 6.79733 62.9373 6.584C63.2679 6.37067 63.6626 6.20533 64.1213 6.088C64.5799 5.97067 65.0813 5.912 65.6253 5.912ZM63.8013 15.112V11.976C64.3666 12.104 64.9746 12.168 65.6253 12.168C65.9453 12.168 66.2599 12.152 66.5693 12.12C66.8786 12.088 67.1719 12.0347 67.4493 11.96V15.112H63.8013Z" fill="#9E9E9E"/>
<path d="M28.413 52.36V37.624H26.413V41.128H25.181V37.864H23.213V51.704H25.181V47.128H26.413V52.36H28.413ZM19.101 38.68C17.133 38.68 15.901 40.696 15.901 44.024C15.901 47.368 17.133 49.384 19.101 49.384C21.037 49.384 22.285 47.368 22.285 44.024C22.285 40.696 21.037 38.68 19.101 38.68ZM19.101 47.4C18.285 47.4 17.821 46.28 17.821 44.024C17.821 41.768 18.285 40.664 19.101 40.664C19.885 40.664 20.365 41.768 20.365 44.024C20.365 46.28 19.885 47.4 19.101 47.4ZM26.413 42.856V45.416H25.181V42.856H26.413ZM42.4438 52.36V37.624H40.3158V52.36H42.4438ZM38.0597 39.16H30.9877V40.84H35.8997C35.5957 44.104 33.9637 46.424 30.2037 48.216L31.3077 49.88C36.5397 47.368 38.0597 43.656 38.0597 39.16ZM57.2105 52.36V37.624H55.2105V43.64H54.0905V37.912H52.1225V51.752H54.0905V45.336H55.2105V52.36H57.2105ZM51.5945 39.864H49.1465V38.04H47.0665V39.864H44.5545V41.544H51.5945V39.864ZM48.1065 42.184C46.2345 42.184 44.8745 43.64 44.8745 45.704C44.8745 47.752 46.2345 49.208 48.1065 49.208C49.9785 49.208 51.3385 47.752 51.3385 45.704C51.3385 43.64 49.9785 42.184 48.1065 42.184ZM48.1065 47.448C47.2905 47.448 46.7305 46.808 46.7305 45.704C46.7305 44.6 47.2905 43.944 48.1065 43.944C48.9225 43.944 49.4825 44.6 49.4825 45.704C49.4825 46.808 48.9225 47.448 48.1065 47.448ZM72.3133 50.664V48.952H69.3533V45.352C70.4573 44.664 71.1293 43.608 71.1293 42.328C71.1293 39.912 68.8093 38.36 65.6253 38.36C62.4733 38.36 60.1373 39.912 60.1373 42.328C60.1213 43.608 60.7613 44.664 61.9133 45.352V48.952H58.9693V50.664H72.3133ZM65.6253 40.024C67.6733 40.024 69.0493 40.856 69.0493 42.328C69.0493 43.8 67.6733 44.632 65.6253 44.632C63.5773 44.632 62.2173 43.8 62.2173 42.328C62.2173 40.856 63.5773 40.024 65.6253 40.024ZM67.2573 48.952H64.0093V46.136C64.5213 46.232 65.0653 46.28 65.6253 46.28C66.2013 46.28 66.7453 46.232 67.2573 46.136V48.952Z" fill="#00B28F"/>
</svg>
