<svg width="88" height="68" viewBox="0 0 88 68" fill="none" xmlns="http://www.w3.org/2000/svg">
<path d="M29.229 6.968H27.181V3.784H25.533V11.432H27.181V8.328H29.229V6.968ZM23.309 4.776H16.541V6.104H21.469C21.3837 7.08533 20.8823 7.95467 19.965 8.712C19.0583 9.45867 17.709 10.0133 15.917 10.376L16.573 11.704C18.7277 11.2453 20.3863 10.4453 21.549 9.304C22.7223 8.152 23.309 6.64267 23.309 4.776ZM19.581 16.824V15.608H27.085V14.424H19.581V13.272H27.261V12.04H17.933V18.056H27.565V16.824H19.581ZM42.1877 3.768H40.5238V18.264H42.1877V3.768ZM34.4917 4.84C33.9584 4.84 33.4624 4.96267 33.0037 5.208C32.5557 5.44267 32.1664 5.784 31.8357 6.232C31.5051 6.66933 31.2437 7.20267 31.0517 7.832C30.8704 8.45067 30.7797 9.14933 30.7797 9.928C30.7797 10.7067 30.8704 11.416 31.0517 12.056C31.2437 12.6853 31.5051 13.2187 31.8357 13.656C32.1664 14.0933 32.5557 14.4347 33.0037 14.68C33.4624 14.9147 33.9584 15.032 34.4917 15.032C35.0357 15.032 35.5317 14.9147 35.9797 14.68C36.4384 14.4347 36.8331 14.0933 37.1637 13.656C37.4944 13.2187 37.7504 12.6853 37.9317 12.056C38.1237 11.416 38.2197 10.7067 38.2197 9.928C38.2197 9.14933 38.1237 8.45067 37.9317 7.832C37.7504 7.20267 37.4944 6.66933 37.1637 6.232C36.8331 5.784 36.4384 5.44267 35.9797 5.208C35.5317 4.96267 35.0357 4.84 34.4917 4.84ZM34.4917 6.328C35.1317 6.328 35.6491 6.648 36.0437 7.288C36.4384 7.91733 36.6357 8.79733 36.6357 9.928C36.6357 11.0907 36.4384 11.9867 36.0437 12.616C35.6491 13.2453 35.1317 13.56 34.4917 13.56C33.8517 13.56 33.3344 13.2453 32.9397 12.616C32.5557 11.9867 32.3637 11.0907 32.3637 9.928C32.3637 8.79733 32.5557 7.91733 32.9397 7.288C33.3344 6.648 33.8517 6.328 34.4917 6.328ZM57.0025 3.784H55.4345V9.768H53.8985V4.088H52.3625V17.56H53.8985V11.128H55.4345V18.232H57.0025V3.784ZM49.0345 6.136V4.2H47.4025V6.136H44.6665V7.464H51.7385V6.136H49.0345ZM48.2185 8.28C47.7598 8.28 47.3385 8.36 46.9545 8.52C46.5705 8.68 46.2398 8.90933 45.9625 9.208C45.6852 9.50667 45.4665 9.864 45.3065 10.28C45.1572 10.6853 45.0825 11.1387 45.0825 11.64C45.0825 12.1307 45.1572 12.584 45.3065 13C45.4665 13.416 45.6852 13.7733 45.9625 14.072C46.2398 14.36 46.5705 14.5893 46.9545 14.76C47.3385 14.92 47.7598 15 48.2185 15C48.6772 15 49.0985 14.92 49.4825 14.76C49.8665 14.5893 50.1972 14.36 50.4745 14.072C50.7518 13.7733 50.9652 13.416 51.1145 13C51.2745 12.584 51.3545 12.1307 51.3545 11.64C51.3545 11.1387 51.2745 10.6853 51.1145 10.28C50.9652 9.864 50.7518 9.50667 50.4745 9.208C50.1972 8.90933 49.8665 8.68 49.4825 8.52C49.0985 8.36 48.6772 8.28 48.2185 8.28ZM48.2185 13.624C47.7278 13.624 47.3278 13.448 47.0185 13.096C46.7092 12.7333 46.5545 12.248 46.5545 11.64C46.5545 11.032 46.7092 10.5467 47.0185 10.184C47.3278 9.82133 47.7278 9.64 48.2185 9.64C48.7092 9.64 49.1092 9.82133 49.4185 10.184C49.7278 10.5467 49.8825 11.032 49.8825 11.64C49.8825 12.248 49.7278 12.7333 49.4185 13.096C49.1092 13.448 48.7092 13.624 48.2185 13.624ZM72.1853 15.112H69.0973V11.352C69.6733 11.0213 70.1213 10.6053 70.4413 10.104C70.7719 9.60267 70.9373 9.032 70.9373 8.392C70.9373 7.816 70.8039 7.29867 70.5373 6.84C70.2706 6.37067 69.9026 5.97067 69.4333 5.64C68.9639 5.30933 68.4039 5.05867 67.7533 4.888C67.1026 4.70667 66.3933 4.616 65.6253 4.616C64.8573 4.616 64.1479 4.70667 63.4973 4.888C62.8466 5.05867 62.2813 5.30933 61.8013 5.64C61.3319 5.97067 60.9639 6.37067 60.6973 6.84C60.4413 7.29867 60.3133 7.816 60.3133 8.392C60.3133 9.032 60.4733 9.608 60.7933 10.12C61.1239 10.6213 61.5773 11.032 62.1533 11.352V15.112H59.0973V16.456H72.1853V15.112ZM65.6253 5.912C66.1693 5.912 66.6653 5.97067 67.1133 6.088C67.5719 6.20533 67.9613 6.37067 68.2812 6.584C68.6119 6.79733 68.8679 7.05867 69.0493 7.368C69.2306 7.66667 69.3213 8.008 69.3213 8.392C69.3213 8.776 69.2306 9.12267 69.0493 9.432C68.8679 9.74133 68.6119 10.0027 68.2812 10.216C67.9613 10.4293 67.5719 10.5947 67.1133 10.712C66.6653 10.8293 66.1693 10.888 65.6253 10.888C65.0813 10.888 64.5799 10.8293 64.1213 10.712C63.6626 10.5947 63.2679 10.4293 62.9373 10.216C62.6173 10.0027 62.3666 9.74133 62.1853 9.432C62.0039 9.12267 61.9133 8.776 61.9133 8.392C61.9133 8.008 62.0039 7.66667 62.1853 7.368C62.3666 7.05867 62.6173 6.79733 62.9373 6.584C63.2679 6.37067 63.6626 6.20533 64.1213 6.088C64.5799 5.97067 65.0813 5.912 65.6253 5.912ZM63.8013 15.112V11.976C64.3666 12.104 64.9746 12.168 65.6253 12.168C65.9453 12.168 66.2599 12.152 66.5693 12.12C66.8786 12.088 67.1719 12.0347 67.4493 11.96V15.112H63.8013Z" fill="#9E9E9E"/>
<path d="M29.325 42.392V40.648H27.373V37.624H25.261V45.352H27.373V42.392H29.325ZM23.389 38.616H16.429V40.312H21.037C20.829 41.928 19.309 43.352 15.725 43.944L16.541 45.624C21.037 44.776 23.389 42.568 23.389 38.616ZM27.741 50.68H19.821V49.8H27.277V48.328H19.821V47.464H27.437V45.928H17.725V52.216H27.741V50.68ZM42.3798 52.408V37.624H40.2677V52.408H42.3798ZM34.4597 38.664C32.2357 38.664 30.5877 40.68 30.5877 43.912C30.5877 47.16 32.2357 49.192 34.4597 49.192C36.6837 49.192 38.3317 47.16 38.3317 43.912C38.3317 40.68 36.6837 38.664 34.4597 38.664ZM34.4597 40.568C35.5477 40.568 36.2997 41.72 36.2997 43.912C36.2997 46.104 35.5477 47.272 34.4597 47.272C33.3717 47.272 32.6197 46.104 32.6197 43.912C32.6197 41.72 33.3717 40.568 34.4597 40.568ZM57.2105 52.36V37.624H55.2105V43.64H54.0905V37.912H52.1225V51.752H54.0905V45.336H55.2105V52.36H57.2105ZM51.5945 39.864H49.1465V38.04H47.0665V39.864H44.5545V41.544H51.5945V39.864ZM48.1065 42.184C46.2345 42.184 44.8745 43.64 44.8745 45.704C44.8745 47.752 46.2345 49.208 48.1065 49.208C49.9785 49.208 51.3385 47.752 51.3385 45.704C51.3385 43.64 49.9785 42.184 48.1065 42.184ZM48.1065 47.448C47.2905 47.448 46.7305 46.808 46.7305 45.704C46.7305 44.6 47.2905 43.944 48.1065 43.944C48.9225 43.944 49.4825 44.6 49.4825 45.704C49.4825 46.808 48.9225 47.448 48.1065 47.448ZM72.3133 50.664V48.952H69.3533V45.352C70.4573 44.664 71.1293 43.608 71.1293 42.328C71.1293 39.912 68.8093 38.36 65.6253 38.36C62.4733 38.36 60.1373 39.912 60.1373 42.328C60.1213 43.608 60.7613 44.664 61.9133 45.352V48.952H58.9693V50.664H72.3133ZM65.6253 40.024C67.6733 40.024 69.0493 40.856 69.0493 42.328C69.0493 43.8 67.6733 44.632 65.6253 44.632C63.5773 44.632 62.2173 43.8 62.2173 42.328C62.2173 40.856 63.5773 40.024 65.6253 40.024ZM67.2573 48.952H64.0093V46.136C64.5213 46.232 65.0653 46.28 65.6253 46.28C66.2013 46.28 66.7453 46.232 67.2573 46.136V48.952Z" fill="#00B28F"/>
</svg>
