<svg width="66" height="68" viewBox="0 0 66 68" fill="none" xmlns="http://www.w3.org/2000/svg">
<path d="M49.4333 6.168V4.904H44.4573V3.608H42.7933V4.904H37.7373V6.168H49.4333ZM50.1533 11.656H44.4573V10.744C46.9693 10.616 48.3613 9.912 48.3613 8.696C48.3613 7.336 46.7453 6.632 43.6253 6.632C40.4893 6.632 38.8733 7.336 38.8733 8.696C38.8733 9.912 40.2173 10.616 42.7933 10.744V11.656H37.0813V12.952H50.1533V11.656ZM40.6333 8.696C40.6333 8.072 41.6253 7.768 43.6253 7.768C45.6253 7.768 46.6173 8.072 46.6173 8.696C46.6173 9.32 45.6253 9.624 43.6253 9.624C41.6253 9.624 40.6333 9.32 40.6333 8.696ZM38.6493 13.896V18.056H48.5693V13.896H38.6493ZM40.2812 16.824V15.144H46.9533V16.824H40.2812Z" fill="#9E9E9E"/>
<path d="M25.6871 16.6246V13.2495C25.6871 13.1004 25.6278 12.9573 25.5223 12.8518C25.4168 12.7463 25.2738 12.687 25.1246 12.687H22.8746C22.7254 12.687 22.5823 12.7463 22.4768 12.8518C22.3714 12.9573 22.3121 13.1004 22.3121 13.2495V16.6246C22.3121 16.7738 22.2528 16.9168 22.1474 17.0223C22.0419 17.1278 21.8988 17.1871 21.7497 17.1871L18.3751 17.1876C18.3012 17.1876 18.228 17.173 18.1598 17.1448C18.0915 17.1165 18.0295 17.0751 17.9773 17.0228C17.925 16.9706 17.8836 16.9086 17.8553 16.8403C17.8271 16.7721 17.8125 16.6989 17.8125 16.6251V10.1239C17.8125 10.0456 17.8289 9.96806 17.8606 9.89639C17.8923 9.82472 17.9386 9.76047 17.9966 9.70775L23.6212 4.59358C23.7247 4.49944 23.8597 4.44727 23.9996 4.44727C24.1395 4.44726 24.2745 4.49942 24.378 4.59356L30.0034 9.70774C30.0614 9.76046 30.1077 9.82472 30.1394 9.8964C30.1711 9.96807 30.1875 10.0456 30.1875 10.124V16.6251C30.1875 16.6989 30.1729 16.7721 30.1447 16.8403C30.1164 16.9086 30.075 16.9706 30.0227 17.0228C29.9705 17.0751 29.9085 17.1165 29.8402 17.1448C29.772 17.173 29.6988 17.1876 29.6249 17.1876L26.2495 17.1871C26.1003 17.1871 25.9573 17.1278 25.8518 17.0223C25.7463 16.9168 25.6871 16.7738 25.6871 16.6246V16.6246Z" fill="#BDBDBD"/>
<path d="M37.5933 40.264H49.5933V38.68H44.6813V37.528H42.5693V38.68H37.5933V40.264ZM50.2973 47.16V45.528H44.6813V44.792C47.1933 44.648 48.5693 43.96 48.5693 42.728C48.5693 41.32 46.9053 40.632 43.6253 40.632C40.3453 40.632 38.6973 41.336 38.6973 42.728C38.6973 43.96 40.0573 44.648 42.5693 44.792V45.528H36.9533V47.16H50.2973ZM40.9533 42.728C40.9533 42.232 41.7533 42.056 43.6253 42.056C45.4973 42.056 46.2973 42.232 46.2973 42.728C46.2973 43.224 45.4973 43.416 43.6253 43.416C41.7533 43.416 40.9533 43.224 40.9533 42.728ZM48.6973 47.928H38.5213V52.2H48.6973V47.928ZM46.6173 50.648H40.5853V49.48H46.6173V50.648Z" fill="#00B28F"/>
<path d="M25.6871 50.6246V47.2495C25.6871 47.1004 25.6278 46.9573 25.5223 46.8518C25.4168 46.7463 25.2738 46.687 25.1246 46.687H22.8746C22.7254 46.687 22.5823 46.7463 22.4768 46.8518C22.3714 46.9573 22.3121 47.1004 22.3121 47.2495V50.6246C22.3121 50.7738 22.2528 50.9168 22.1474 51.0223C22.0419 51.1278 21.8988 51.1871 21.7497 51.1871L18.3751 51.1876C18.3012 51.1876 18.228 51.173 18.1598 51.1448C18.0915 51.1165 18.0295 51.0751 17.9773 51.0228C17.925 50.9706 17.8836 50.9086 17.8553 50.8403C17.8271 50.7721 17.8125 50.6989 17.8125 50.6251V44.1239C17.8125 44.0456 17.8289 43.9681 17.8606 43.8964C17.8923 43.8247 17.9386 43.7605 17.9966 43.7077L23.6212 38.5936C23.7247 38.4994 23.8597 38.4473 23.9996 38.4473C24.1395 38.4473 24.2745 38.4994 24.378 38.5936L30.0034 43.7077C30.0614 43.7605 30.1077 43.8247 30.1394 43.8964C30.1711 43.9681 30.1875 44.0456 30.1875 44.124V50.6251C30.1875 50.6989 30.1729 50.7721 30.1447 50.8403C30.1164 50.9086 30.075 50.9706 30.0227 51.0228C29.9705 51.0751 29.9085 51.1165 29.8402 51.1448C29.772 51.173 29.6988 51.1876 29.6249 51.1876L26.2495 51.1871C26.1003 51.1871 25.9573 51.1278 25.8518 51.0223C25.7463 50.9168 25.6871 50.7738 25.6871 50.6246V50.6246Z" fill="#00B28F"/>
</svg>
