<svg xmlns="http://www.w3.org/2000/svg" width="60" height="79" fill="none" xmlns:v="https://vecta.io/nano"><path d="M20.211 33H16.79C14.144 33 12 35.089 12 37.667v6.667C12 46.911 14.144 49 16.79 49h3.421c2.645 0 4.79-2.089 4.79-4.667v-6.667C25 35.089 22.856 33 20.211 33z" fill="#fff" opacity=".4"/><g stroke="#fff" stroke-width="4"><g stroke-linejoin="round"><path d="M34.688 26.5h-9.375a13.13 13.13 0 0 0-13.125 13.125v18.75A13.13 13.13 0 0 0 25.313 71.5h9.375a13.13 13.13 0 0 0 13.125-13.125v-18.75A13.13 13.13 0 0 0 34.688 26.5z"/><path d="M30 45.25v-9.375" stroke-linecap="round"/></g><path d="M29.549-7.5C13.951.5 15.951 13 24.951 15s18-2.005 18-7.5c0-2.85-5.5-4.5-10 1s-4.214 12.013-3.402 17.804" stroke-linecap="round"/></g></svg>