<svg width="88" height="96" viewBox="0 0 88 96" fill="none" xmlns="http://www.w3.org/2000/svg">
<path d="M28.237 10.784H26.669V14.32H25.021V11.056H23.469V24.544H25.021V19.92H26.669V25.216H28.237V10.784ZM19.149 11.904C18.6903 11.904 18.269 12.0213 17.885 12.256C17.501 12.4907 17.1703 12.832 16.893 13.28C16.6263 13.7173 16.4183 14.256 16.269 14.896C16.1197 15.5253 16.045 16.2347 16.045 17.024C16.045 17.8133 16.1197 18.528 16.269 19.168C16.4183 19.7973 16.6263 20.336 16.893 20.784C17.1703 21.2213 17.501 21.5627 17.885 21.808C18.269 22.0427 18.6903 22.16 19.149 22.16C19.6183 22.16 20.0397 22.0427 20.413 21.808C20.797 21.5627 21.1223 21.2213 21.389 20.784C21.6663 20.336 21.8797 19.7973 22.029 19.168C22.1783 18.528 22.253 17.8133 22.253 17.024C22.253 16.2347 22.1783 15.5253 22.029 14.896C21.8797 14.256 21.6663 13.7173 21.389 13.28C21.1223 12.832 20.797 12.4907 20.413 12.256C20.0397 12.0213 19.6183 11.904 19.149 11.904ZM19.149 20.608C18.6583 20.608 18.269 20.304 17.981 19.696C17.7037 19.0773 17.565 18.1867 17.565 17.024C17.565 15.8613 17.7037 14.976 17.981 14.368C18.269 13.76 18.6583 13.456 19.149 13.456C19.6397 13.456 20.0237 13.76 20.301 14.368C20.589 14.976 20.733 15.8613 20.733 17.024C20.733 18.1867 20.589 19.0773 20.301 19.696C20.0237 20.304 19.6397 20.608 19.149 20.608ZM26.669 18.56H25.021V15.68H26.669V18.56ZM42.2198 10.784H40.5717V25.232H42.2198V10.784ZM37.9637 12.304H31.1157V13.648H36.2677C36.1291 15.312 35.5904 16.784 34.6517 18.064C33.7131 19.3333 32.2944 20.4267 30.3957 21.344L31.2757 22.656C32.5131 22.0587 33.5584 21.3867 34.4117 20.64C35.2651 19.8827 35.9531 19.0667 36.4757 18.192C37.0091 17.3173 37.3877 16.3893 37.6117 15.408C37.8464 14.416 37.9637 13.3813 37.9637 12.304ZM57.0025 10.784H55.4345V16.768H53.8985V11.088H52.3625V24.56H53.8985V18.128H55.4345V25.232H57.0025V10.784ZM49.0345 13.136V11.2H47.4025V13.136H44.6665V14.464H51.7385V13.136H49.0345ZM48.2185 15.28C47.7598 15.28 47.3385 15.36 46.9545 15.52C46.5705 15.68 46.2398 15.9093 45.9625 16.208C45.6852 16.5067 45.4665 16.864 45.3065 17.28C45.1572 17.6853 45.0825 18.1387 45.0825 18.64C45.0825 19.1307 45.1572 19.584 45.3065 20C45.4665 20.416 45.6852 20.7733 45.9625 21.072C46.2398 21.36 46.5705 21.5893 46.9545 21.76C47.3385 21.92 47.7598 22 48.2185 22C48.6772 22 49.0985 21.92 49.4825 21.76C49.8665 21.5893 50.1972 21.36 50.4745 21.072C50.7518 20.7733 50.9652 20.416 51.1145 20C51.2745 19.584 51.3545 19.1307 51.3545 18.64C51.3545 18.1387 51.2745 17.6853 51.1145 17.28C50.9652 16.864 50.7518 16.5067 50.4745 16.208C50.1972 15.9093 49.8665 15.68 49.4825 15.52C49.0985 15.36 48.6772 15.28 48.2185 15.28ZM48.2185 20.624C47.7278 20.624 47.3278 20.448 47.0185 20.096C46.7092 19.7333 46.5545 19.248 46.5545 18.64C46.5545 18.032 46.7092 17.5467 47.0185 17.184C47.3278 16.8213 47.7278 16.64 48.2185 16.64C48.7092 16.64 49.1092 16.8213 49.4185 17.184C49.7278 17.5467 49.8825 18.032 49.8825 18.64C49.8825 19.248 49.7278 19.7333 49.4185 20.096C49.1092 20.448 48.7092 20.624 48.2185 20.624ZM72.1853 22.112H69.0973V18.352C69.6733 18.0213 70.1213 17.6053 70.4413 17.104C70.7719 16.6027 70.9373 16.032 70.9373 15.392C70.9373 14.816 70.8039 14.2987 70.5373 13.84C70.2706 13.3707 69.9026 12.9707 69.4333 12.64C68.9639 12.3093 68.4039 12.0587 67.7533 11.888C67.1026 11.7067 66.3933 11.616 65.6253 11.616C64.8573 11.616 64.1479 11.7067 63.4973 11.888C62.8466 12.0587 62.2813 12.3093 61.8013 12.64C61.3319 12.9707 60.9639 13.3707 60.6973 13.84C60.4413 14.2987 60.3133 14.816 60.3133 15.392C60.3133 16.032 60.4733 16.608 60.7933 17.12C61.1239 17.6213 61.5773 18.032 62.1533 18.352V22.112H59.0973V23.456H72.1853V22.112ZM65.6253 12.912C66.1693 12.912 66.6653 12.9707 67.1133 13.088C67.5719 13.2053 67.9613 13.3707 68.2812 13.584C68.6119 13.7973 68.8679 14.0587 69.0493 14.368C69.2306 14.6667 69.3213 15.008 69.3213 15.392C69.3213 15.776 69.2306 16.1227 69.0493 16.432C68.8679 16.7413 68.6119 17.0027 68.2812 17.216C67.9613 17.4293 67.5719 17.5947 67.1133 17.712C66.6653 17.8293 66.1693 17.888 65.6253 17.888C65.0813 17.888 64.5799 17.8293 64.1213 17.712C63.6626 17.5947 63.2679 17.4293 62.9373 17.216C62.6173 17.0027 62.3666 16.7413 62.1853 16.432C62.0039 16.1227 61.9133 15.776 61.9133 15.392C61.9133 15.008 62.0039 14.6667 62.1853 14.368C62.3666 14.0587 62.6173 13.7973 62.9373 13.584C63.2679 13.3707 63.6626 13.2053 64.1213 13.088C64.5799 12.9707 65.0813 12.912 65.6253 12.912ZM63.8013 22.112V18.976C64.3666 19.104 64.9746 19.168 65.6253 19.168C65.9453 19.168 66.2599 19.152 66.5693 19.12C66.8786 19.088 67.1719 19.0347 67.4493 18.96V22.112H63.8013Z" fill="#9E9E9E"/>
<path d="M28.413 73.36V58.624H26.413V62.128H25.181V58.864H23.213V72.704H25.181V68.128H26.413V73.36H28.413ZM19.101 59.68C17.133 59.68 15.901 61.696 15.901 65.024C15.901 68.368 17.133 70.384 19.101 70.384C21.037 70.384 22.285 68.368 22.285 65.024C22.285 61.696 21.037 59.68 19.101 59.68ZM19.101 68.4C18.285 68.4 17.821 67.28 17.821 65.024C17.821 62.768 18.285 61.664 19.101 61.664C19.885 61.664 20.365 62.768 20.365 65.024C20.365 67.28 19.885 68.4 19.101 68.4ZM26.413 63.856V66.416H25.181V63.856H26.413ZM42.4438 73.36V58.624H40.3158V73.36H42.4438ZM38.0597 60.16H30.9877V61.84H35.8997C35.5957 65.104 33.9637 67.424 30.2037 69.216L31.3077 70.88C36.5397 68.368 38.0597 64.656 38.0597 60.16ZM57.2105 73.36V58.624H55.2105V64.64H54.0905V58.912H52.1225V72.752H54.0905V66.336H55.2105V73.36H57.2105ZM51.5945 60.864H49.1465V59.04H47.0665V60.864H44.5545V62.544H51.5945V60.864ZM48.1065 63.184C46.2345 63.184 44.8745 64.64 44.8745 66.704C44.8745 68.752 46.2345 70.208 48.1065 70.208C49.9785 70.208 51.3385 68.752 51.3385 66.704C51.3385 64.64 49.9785 63.184 48.1065 63.184ZM48.1065 68.448C47.2905 68.448 46.7305 67.808 46.7305 66.704C46.7305 65.6 47.2905 64.944 48.1065 64.944C48.9225 64.944 49.4825 65.6 49.4825 66.704C49.4825 67.808 48.9225 68.448 48.1065 68.448ZM72.3133 71.664V69.952H69.3533V66.352C70.4573 65.664 71.1293 64.608 71.1293 63.328C71.1293 60.912 68.8093 59.36 65.6253 59.36C62.4733 59.36 60.1373 60.912 60.1373 63.328C60.1213 64.608 60.7613 65.664 61.9133 66.352V69.952H58.9693V71.664H72.3133ZM65.6253 61.024C67.6733 61.024 69.0493 61.856 69.0493 63.328C69.0493 64.8 67.6733 65.632 65.6253 65.632C63.5773 65.632 62.2173 64.8 62.2173 63.328C62.2173 61.856 63.5773 61.024 65.6253 61.024ZM67.2573 69.952H64.0093V67.136C64.5213 67.232 65.0653 67.28 65.6253 67.28C66.2013 67.28 66.7453 67.232 67.2573 67.136V69.952Z" fill="#00B28F"/>
</svg>
