<svg xmlns="http://www.w3.org/2000/svg" width="52" height="52" fill="none" xmlns:v="https://vecta.io/nano"><path d="M0 10.833v30.333C0 47.15 4.85 52 10.833 52h30.333C47.15 52 52 47.15 52 41.167V10.833C52 4.85 47.15 0 41.167 0H10.833C4.85 0 0 4.85 0 10.833z" fill="#1cb78f"/><path d="M33.065 17.23c-1.393 0-2.73.553-3.715 1.539s-1.539 2.322-1.539 3.715c0 4.181 5.254 6.487 5.254 6.487s5.254-2.351 5.254-6.487c0-1.393-.554-2.73-1.539-3.715s-2.322-1.539-3.715-1.539zm0 7.597a2.25 2.25 0 0 1-2.079-1.389 2.25 2.25 0 0 1 .488-2.452 2.25 2.25 0 0 1 2.452-.488 2.25 2.25 0 0 1 1.389 2.079 2.25 2.25 0 0 1-2.25 2.25z" fill="#ffde3d"/><path d="M43.512 17.477h-2.103a.62.62 0 0 0-.619.619v11.243a.62.62 0 0 0 .619.619h2.103a.62.62 0 0 0 .619-.619V18.096a.62.62 0 0 0-.619-.619zm-29.196 0h-1.789a.62.62 0 0 0-.618.619v3.772H9.547v-3.772a.62.62 0 0 0-.62-.619H7.14a.62.62 0 0 0-.618.619v9.401a2.62 2.62 0 0 0 2.618 2.617h5.176a.62.62 0 0 0 .619-.619v-11.4a.62.62 0 0 0-.619-.619zM11.909 27.57h-1.565a.8.8 0 0 1-.797-.796v-2.363h2.362v3.159zm32.997 6.46c-2.817-.38-4.705-1.408-5.794-4.225-.155-.399-.35-.849-.98-.849h-1.318c-.24.006-.472.093-.656.247a1.07 1.07 0 0 0-.36.602c-1.094 3.024-3.467 4.111-6.776 4.111h-2.615a1.16 1.16 0 0 1-.816-.339c-.217-.216-.338-.51-.339-.816V18.096a.62.62 0 0 0-.619-.619h-1.83a.62.62 0 0 0-.619.619v3.626h-2.357v-3.628a.62.62 0 0 0-.619-.62h-1.83a.62.62 0 0 0-.619.62v18.145a.62.62 0 0 0 .619.62h1.83a.62.62 0 0 0 .619-.62V24.354h2.357v9.792a2.71 2.71 0 0 0 2.7 2.7l5.672-.03c1.29.102 2.583-.139 3.749-.699s2.162-1.42 2.888-2.491l.325-.481.336.481c.78 1.008 1.782 1.822 2.928 2.379a8.27 8.27 0 0 0 3.68.832.68.68 0 0 0 .703-.523l.304-1.504a.65.65 0 0 0-.563-.78z" fill="#fff"/></svg>