<svg xmlns="http://www.w3.org/2000/svg" width="60" height="30" fill="none" xmlns:v="https://vecta.io/nano"><path d="M40.795 0a8.03 8.03 0 0 0-8.031 8.031c0 6.39 8.031 9.915 8.031 9.915s8.031-3.593 8.031-9.915c0-2.13-.847-4.172-2.353-5.678A8.03 8.03 0 0 0 40.795 0h0zm0 11.612a3.44 3.44 0 0 1-3.177-2.123 3.44 3.44 0 0 1 .745-3.748 3.44 3.44 0 0 1 3.748-.746 3.44 3.44 0 0 1 2.123 3.177 3.44 3.44 0 0 1-3.439 3.439z" fill="#ffdd37"/><path d="M56.762.378h-3.214c-.522 0-.945.423-.945.945v17.184c0 .522.423.945.945.945h3.214c.522 0 .946-.423.946-.945V1.323c0-.522-.423-.945-.946-.945zm-44.624 0H9.404c-.251 0-.491.1-.668.277s-.277.418-.277.669V7.09h-3.61V1.323c0-.251-.1-.491-.278-.669S4.153.378 3.902.378H1.17c-.251 0-.491.1-.668.277s-.277.418-.277.669v14.369a4 4 0 0 0 4.002 4h7.911a.95.95 0 0 0 .669-.277c.178-.177.277-.418.277-.669V1.323a.95.95 0 0 0-.277-.669c-.177-.178-.418-.277-.669-.277h0zM8.459 15.805H6.066a1.22 1.22 0 0 1-1.217-1.217v-3.611h3.61v4.828zm50.434 9.872c-4.305-.581-7.191-2.153-8.855-6.458-.237-.609-.535-1.298-1.498-1.298h-2.015a1.63 1.63 0 0 0-1.553 1.298c-1.672 4.621-5.299 6.284-10.357 6.284h-3.997a1.77 1.77 0 0 1-1.765-1.765V1.323a.95.95 0 0 0-.277-.669.94.94 0 0 0-.668-.277H25.11c-.251 0-.491.1-.668.277s-.277.418-.277.669v5.542h-3.603V1.32c0-.251-.1-.492-.277-.669a.95.95 0 0 0-.669-.278h-2.797c-.251 0-.491.1-.669.278s-.277.418-.277.669v27.733c0 .251.1.492.277.669a.95.95 0 0 0 .669.278h2.797c.251 0 .491-.1.669-.278s.277-.418.277-.669V10.889h3.603v14.967a4.14 4.14 0 0 0 4.126 4.126l8.67-.046a11.18 11.18 0 0 0 10.144-4.876c.28-.376.497-.735.497-.735s.22.351.513.735a12.64 12.64 0 0 0 4.476 3.636 12.65 12.65 0 0 0 5.625 1.271 1.04 1.04 0 0 0 .683-.205c.197-.147.335-.357.392-.595l.465-2.298a1 1 0 0 0 0-.411.99.99 0 0 0-.47-.652.98.98 0 0 0-.39-.129h0z" fill="#00b28f"/></svg>