<svg xmlns="http://www.w3.org/2000/svg" width="52" height="26" fill="none" xmlns:v="https://vecta.io/nano"><g clip-path="url(#A)"><path d="M35.356 0a6.96 6.96 0 0 0-6.96 6.96c0 5.538 6.96 8.593 6.96 8.593s6.96-3.114 6.96-8.593A6.96 6.96 0 0 0 35.356 0zm0 10.064a2.98 2.98 0 0 1-2.754-1.84 2.98 2.98 0 0 1 .646-3.248 2.98 2.98 0 0 1 3.248-.646 2.98 2.98 0 0 1 1.84 2.754 2.98 2.98 0 0 1-2.981 2.981z" fill="#ffde3d"/><g fill="#fff"><path d="M49.194.327h-2.785a.82.82 0 0 0-.819.819V16.04a.82.82 0 0 0 .819.819h2.785a.82.82 0 0 0 .819-.819V1.147a.82.82 0 0 0-.819-.819zm-38.674 0H8.15a.82.82 0 0 0-.819.819v4.997H4.203V1.147a.82.82 0 0 0-.821-.819H1.014a.82.82 0 0 0-.819.819V13.6a3.47 3.47 0 0 0 3.468 3.467h6.857a.82.82 0 0 0 .819-.819V1.147a.82.82 0 0 0-.819-.819zm-3.189 13.37H5.257c-.28 0-.548-.112-.745-.309s-.309-.466-.309-.745v-3.13h3.128v4.184zm43.71 8.556c-3.731-.504-6.232-1.866-7.674-5.597-.205-.528-.464-1.125-1.299-1.125h-1.747a1.41 1.41 0 0 0-1.346 1.125c-1.449 4.005-4.592 5.446-8.976 5.446h-3.464a1.53 1.53 0 0 1-1.53-1.53V1.147a.82.82 0 0 0-.819-.819h-2.424a.82.82 0 0 0-.819.819V5.95H17.82V1.144A.82.82 0 0 0 17 .323h-2.424a.82.82 0 0 0-.819.821v24.035a.82.82 0 0 0 .819.821H17a.82.82 0 0 0 .82-.821V9.437h3.123v12.971a3.59 3.59 0 0 0 3.576 3.576l7.514-.04a9.69 9.69 0 0 0 8.791-4.226c.242-.326.43-.637.43-.637a9.59 9.59 0 0 0 .445.637 10.96 10.96 0 0 0 8.754 4.253.91.91 0 0 0 .592-.177c.171-.126.291-.309.34-.516l.403-1.992a.86.86 0 0 0-.747-1.034z"/></g></g><defs><clipPath id="A"><path fill="#fff" d="M0 0h52v26H0z"/></clipPath></defs></svg>